<?xml version="1.0" encoding="utf-8"?>
<!-- Generator: Adobe Illustrator 22.0.1, SVG Export Plug-In . SVG Version: 6.00 Build 0)  -->
<svg version="1.1" id="Ebene_1" xmlns="http://www.w3.org/2000/svg"  x="0px" y="0px"
	 viewBox="0 0 385.8 388" style="enable-background:new 0 0 385.8 388;" xml:space="preserve">
<style type="text/css">
	.st0{fill:url(#SVGID_1_);}
	.st1{fill:url(#SVGID_2_);}
	.st2{fill:url(#SVGID_3_);}
	.st3{fill:url(#SVGID_4_);}
	.st4{fill:url(#SVGID_5_);}
	.st5{fill:url(#SVGID_6_);}
</style>
<g>
	<linearGradient id="SVGID_1_" gradientUnits="userSpaceOnUse" x1="-425.7366" y1="25.6124" x2="-207.3631" y2="151.6905">
		<stop  offset="0" style="stop-color:#FF6167;stop-opacity:0.8"/>
		<stop  offset="0.1381" style="stop-color:#FB6067;stop-opacity:0.8249"/>
		<stop  offset="0.2696" style="stop-color:#F05C67;stop-opacity:0.8485"/>
		<stop  offset="0.3986" style="stop-color:#DC5666;stop-opacity:0.8717"/>
		<stop  offset="0.526" style="stop-color:#C14E65;stop-opacity:0.8947"/>
		<stop  offset="0.6522" style="stop-color:#9F4365;stop-opacity:0.9174"/>
		<stop  offset="0.7776" style="stop-color:#743663;stop-opacity:0.94"/>
		<stop  offset="0.9" style="stop-color:#422662;stop-opacity:0.962"/>
		<stop  offset="1" style="stop-color:#141861;stop-opacity:0.98"/>
	</linearGradient>
	<path class="st0" d="M-205.5,142.6l-7.6-15.2V67.2l5-1.3c1.8-0.5,3-2.1,3-3.9c0-1.8-1.2-3.4-3-3.9L-324.6,28c-0.7-0.2-1.4-0.2-2,0
		l-116.5,30.1c-1.8,0.5-3,2.1-3,3.9c0,1.8,1.2,3.4,3,3.9l53.2,13.8v56.7c0,1.8,1.3,3.5,3,3.9l25.5,6.4c-0.5,1-0.6,2.2-0.1,3.3
		c0.6,1.5,2.1,2.5,3.7,2.5h8v8c0,1.6,1,3.1,2.5,3.7c0.5,0.2,1,0.3,1.5,0.3c1,0,2.1-0.4,2.8-1.2l17.3-17.3l17.3,17.3
		c0.8,0.8,1.8,1.2,2.8,1.2c0.5,0,1-0.1,1.5-0.3c1.5-0.6,2.5-2.1,2.5-3.7v-8h8c1.6,0,3.1-1,3.7-2.5c0.5-1.1,0.4-2.3-0.1-3.3l25.5-6.4
		c1.8-0.5,3-2.1,3-3.9V79.7l40.2-10.4v58.1l-7.6,15.2c-0.6,1.1-0.6,2.5,0,3.6l8,16.1c0.7,1.4,2.1,2.2,3.6,2.2s2.9-0.9,3.6-2.2
		l8-16.1C-204.9,145.1-204.9,143.8-205.5,142.6L-205.5,142.6z M-341.7,150.8v-2.4c0-2.2-1.8-4-4-4h-2.4l7.2-7.2
		c2,2.3,4.4,4.3,7.3,5.5L-341.7,150.8z M-337.6,124.3c0-6.6,5.4-12.1,12.1-12.1s12.1,5.4,12.1,12.1c0,6.6-5.4,12.1-12.1,12.1
		S-337.6,131-337.6,124.3L-337.6,124.3z M-305.5,144.4c-2.2,0-4,1.8-4,4v2.4l-8.1-8.1c2.8-1.2,5.3-3.2,7.3-5.5l7.2,7.2H-305.5z
		 M-269.3,133.2l-26.9,6.7l-10.1-10.1c0.5-1.8,0.9-3.6,0.9-5.5c0-11.1-9-20.1-20.1-20.1c-11.1,0-20.1,9-20.1,20.1
		c0,1.9,0.4,3.7,0.9,5.5L-355,140l-26.9-6.7V81.8l55.3,14.3c0.3,0.1,0.7,0.1,1,0.1s0.7,0,1-0.1l55.3-14.3V133.2z M-325.6,88
		l-100.5-26l100.5-26l100.5,26L-325.6,88z M-217.1,151.5l-3.5-7.1l3.5-7.1l3.5,7.1L-217.1,151.5z M-217.1,151.5"/>
	<g>
		<linearGradient id="SVGID_2_" gradientUnits="userSpaceOnUse" x1="-398.0059" y1="259.1488" x2="-233.2619" y2="354.2638">
			<stop  offset="0" style="stop-color:#FF6167;stop-opacity:0.8"/>
			<stop  offset="0.1381" style="stop-color:#FB6067;stop-opacity:0.8249"/>
			<stop  offset="0.2696" style="stop-color:#F05C67;stop-opacity:0.8485"/>
			<stop  offset="0.3986" style="stop-color:#DC5666;stop-opacity:0.8717"/>
			<stop  offset="0.526" style="stop-color:#C14E65;stop-opacity:0.8947"/>
			<stop  offset="0.6522" style="stop-color:#9F4365;stop-opacity:0.9174"/>
			<stop  offset="0.7776" style="stop-color:#743663;stop-opacity:0.94"/>
			<stop  offset="0.9" style="stop-color:#422662;stop-opacity:0.962"/>
			<stop  offset="1" style="stop-color:#141861;stop-opacity:0.98"/>
		</linearGradient>
		<path class="st1" d="M-237.1,276.9h-35.3c-2.2-2.4-5.4-4-8.9-4c-3.1,0-5.9,1.2-8,3.1c-2.1-1.9-4.9-3.1-8-3.1c-3.1,0-5.9,1.2-8,3.1
			c-2.1-1.9-4.9-3.1-8-3.1c-3.1,0-5.9,1.2-8,3.1c-2.1-1.9-4.9-3.1-8-3.1c-3.5,0-6.7,1.6-8.9,4h-67.4c-2.2,0-4,1.8-4,4V309
			c0,11.1,9,20.1,20.1,20.1h32.2v20.1c0,1.1,0.4,2.1,1.2,2.8l6.9,6.9v6.4h8v-8c0-1.1-0.4-2.1-1.2-2.8l-6.9-6.9v-46.1
			c6.9,1.8,12.1,8.1,12.1,15.6v20.1h8v-8h52.2v36.2h8v-36.2h48.2c2.2,0,4-1.8,4-4V297C-217.1,285.9-226.1,276.9-237.1,276.9
			L-237.1,276.9z M-341.6,296.2c-3.6-2.1-7.7-3.3-12.1-3.3c-2.2,0-4,1.8-4,4v24.1h-32.2c-6.6,0-12.1-5.4-12.1-12.1v-24.1h60.3V296.2
			z M-285.4,284.9c0-2.2,1.8-4,4-4c2.2,0,4,1.8,4,4V301c0,2.2-1.8,4-4,4c-2.2,0-4-1.8-4-4V284.9z M-301.4,284.9c0-2.2,1.8-4,4-4
			c2.2,0,4,1.8,4,4V301c0,2.2-1.8,4-4,4c-2.2,0-4-1.8-4-4V284.9z M-317.5,284.9c0-2.2,1.8-4,4-4s4,1.8,4,4V301c0,2.2-1.8,4-4,4
			s-4-1.8-4-4V284.9z M-333.6,301v-16.1c0-2.2,1.8-4,4-4c2.2,0,4,1.8,4,4V301c0,2.2-1.8,4-4,4C-331.8,305-333.6,303.2-333.6,301
			L-333.6,301z M-225.1,321.1h-104.5v-4c0-1.4-0.1-2.7-0.4-4.1c0.1,0,0.2,0,0.4,0c3.1,0,5.9-1.2,8-3.1c2.1,1.9,4.9,3.1,8,3.1
			c3.1,0,5.9-1.2,8-3.1c2.1,1.9,4.9,3.1,8,3.1c3.1,0,5.9-1.2,8-3.1c2.1,1.9,4.9,3.1,8,3.1c6.6,0,12.1-5.4,12.1-12.1v-16.1h32.2
			c6.6,0,12.1,5.4,12.1,12.1V321.1z M-225.1,321.1"/>
		<linearGradient id="SVGID_3_" gradientUnits="userSpaceOnUse" x1="-410.6812" y1="262.0883" x2="-401.1724" y2="267.5782">
			<stop  offset="0" style="stop-color:#FF6167;stop-opacity:0.8"/>
			<stop  offset="0.1381" style="stop-color:#FB6067;stop-opacity:0.8249"/>
			<stop  offset="0.2696" style="stop-color:#F05C67;stop-opacity:0.8485"/>
			<stop  offset="0.3986" style="stop-color:#DC5666;stop-opacity:0.8717"/>
			<stop  offset="0.526" style="stop-color:#C14E65;stop-opacity:0.8947"/>
			<stop  offset="0.6522" style="stop-color:#9F4365;stop-opacity:0.9174"/>
			<stop  offset="0.7776" style="stop-color:#743663;stop-opacity:0.94"/>
			<stop  offset="0.9" style="stop-color:#422662;stop-opacity:0.962"/>
			<stop  offset="1" style="stop-color:#141861;stop-opacity:0.98"/>
		</linearGradient>
		<rect x="-409.9" y="260.8" class="st2" width="8" height="8"/>
		<linearGradient id="SVGID_4_" gradientUnits="userSpaceOnUse" x1="-394.6057" y1="262.0883" x2="-385.0969" y2="267.5782">
			<stop  offset="0" style="stop-color:#FF6167;stop-opacity:0.8"/>
			<stop  offset="0.1381" style="stop-color:#FB6067;stop-opacity:0.8249"/>
			<stop  offset="0.2696" style="stop-color:#F05C67;stop-opacity:0.8485"/>
			<stop  offset="0.3986" style="stop-color:#DC5666;stop-opacity:0.8717"/>
			<stop  offset="0.526" style="stop-color:#C14E65;stop-opacity:0.8947"/>
			<stop  offset="0.6522" style="stop-color:#9F4365;stop-opacity:0.9174"/>
			<stop  offset="0.7776" style="stop-color:#743663;stop-opacity:0.94"/>
			<stop  offset="0.9" style="stop-color:#422662;stop-opacity:0.962"/>
			<stop  offset="1" style="stop-color:#141861;stop-opacity:0.98"/>
		</linearGradient>
		<rect x="-393.9" y="260.8" class="st3" width="8" height="8"/>
		<linearGradient id="SVGID_5_" gradientUnits="userSpaceOnUse" x1="-378.5305" y1="262.0889" x2="-369.0237" y2="267.5777">
			<stop  offset="0" style="stop-color:#FF6167;stop-opacity:0.8"/>
			<stop  offset="0.1381" style="stop-color:#FB6067;stop-opacity:0.8249"/>
			<stop  offset="0.2696" style="stop-color:#F05C67;stop-opacity:0.8485"/>
			<stop  offset="0.3986" style="stop-color:#DC5666;stop-opacity:0.8717"/>
			<stop  offset="0.526" style="stop-color:#C14E65;stop-opacity:0.8947"/>
			<stop  offset="0.6522" style="stop-color:#9F4365;stop-opacity:0.9174"/>
			<stop  offset="0.7776" style="stop-color:#743663;stop-opacity:0.94"/>
			<stop  offset="0.9" style="stop-color:#422662;stop-opacity:0.962"/>
			<stop  offset="1" style="stop-color:#141861;stop-opacity:0.98"/>
		</linearGradient>
		<rect x="-377.8" y="260.8" class="st4" width="8" height="8"/>
	</g>
</g>
<g>
	<linearGradient id="SVGID_6_" gradientUnits="userSpaceOnUse" x1="35.3785" y1="122.4261" x2="307.626" y2="279.6083">
		<stop  offset="0" style="stop-color:#FF6167;stop-opacity:0.8"/>
		<stop  offset="0.1381" style="stop-color:#FB6067;stop-opacity:0.8249"/>
		<stop  offset="0.2696" style="stop-color:#F05C67;stop-opacity:0.8485"/>
		<stop  offset="0.3986" style="stop-color:#DC5666;stop-opacity:0.8717"/>
		<stop  offset="0.526" style="stop-color:#C14E65;stop-opacity:0.8947"/>
		<stop  offset="0.6522" style="stop-color:#9F4365;stop-opacity:0.9174"/>
		<stop  offset="0.7776" style="stop-color:#743663;stop-opacity:0.94"/>
		<stop  offset="0.9" style="stop-color:#422662;stop-opacity:0.962"/>
		<stop  offset="1" style="stop-color:#141861;stop-opacity:0.98"/>
	</linearGradient>
	<path class="st5" d="M329.4,210.8c0-0.1,0-0.2,0-0.3c0,0,0-0.1,0-0.1c0-0.1,0-0.2,0-0.2c0-0.1,0-0.1,0-0.2c0-0.1,0-0.1,0-0.2
		c0-0.1,0-0.2-0.1-0.2c0,0,0-0.1,0-0.1c0-0.1-0.1-0.2-0.1-0.3c0,0,0,0,0,0l-33.7-74.7H320c4.3,0,7.8-3.5,7.8-7.8v-10.3
		c0-4.3-3.5-7.8-7.8-7.8h-39.7c-7.5,0-14.5-3-19.7-8.5c-8.9-9.4-21.7-14.8-35.1-14.8h-27.4v-9.6c4.9-4,8-10.1,8-16.9
		c0-12.1-9.9-22-22-22c-12.1,0-22,9.9-22,22c0,6.8,3.1,12.9,8,16.9V85h-27.4c-13.5,0-26.3,5.4-35.1,14.8c-5.2,5.5-12.2,8.5-19.7,8.5
		H48c-4.3,0-7.8,3.5-7.8,7.8v10.3c0,4.3,3.5,7.8,7.8,7.8h24.6L38.9,209c0,0,0,0,0,0c0,0.1-0.1,0.2-0.1,0.3c0,0,0,0.1-0.1,0.1
		c0,0.1,0,0.2-0.1,0.2c0,0.1,0,0.1,0,0.2c0,0.1,0,0.1,0,0.2c0,0.1,0,0.2,0,0.3c0,0,0,0.1,0,0.1c0,0.1,0,0.2,0,0.3c0,0,0,0,0,0v4.3
		c0,21.6,17.6,39.2,39.2,39.2h3.4c21.6,0,39.2-17.6,39.2-39.2v-4.3c0,0,0,0,0,0c0-0.1,0-0.2,0-0.3c0-0.1,0-0.1,0-0.1
		c0-0.1,0-0.2,0-0.2c0-0.1,0-0.1,0-0.2c0-0.1,0-0.1,0-0.2c0-0.1,0-0.2-0.1-0.2c0,0,0-0.1,0-0.1c0-0.1-0.1-0.2-0.1-0.3c0,0,0,0,0,0
		l-33.7-74.7h3.1c13.5,0,26.3-5.4,35.1-14.8c5.2-5.5,12.2-8.5,19.7-8.5h25.8v172.6h-44.6c-7.3,0-13.2,5.9-13.2,13.2v7.7h-7.6
		c-7.4,0-13.5,6-13.5,13.5v13.8c0,2.4,1.9,4.3,4.3,4.3h177.1c2.4,0,4.3-1.9,4.3-4.3v-13.8c0-7.4-6-13.5-13.5-13.5h-7.6v-7.7
		c0-7.3-5.9-13.2-13.2-13.2h-44.6V158.3c0-2.4-1.9-4.3-4.3-4.3c-2.4,0-4.3,1.9-4.3,4.3v125.2h-10.8V110.9h10.8v20
		c0,2.4,1.9,4.3,4.3,4.3c2.4,0,4.3-1.9,4.3-4.3v-20h27.5c6.2,0,12.3,2.6,16.6,7.2c10.1,10.5,23.6,16.2,38.1,16.2h1.4L248.1,209
		c0,0,0,0,0,0c0,0.1-0.1,0.2-0.1,0.3c0,0,0,0.1,0,0.1c0,0.1,0,0.2-0.1,0.3c0,0.1,0,0.1,0,0.2c0,0.1,0,0.1,0,0.2c0,0.1,0,0.2,0,0.2
		c0,0,0,0.1,0,0.1c0,0.1,0,0.2,0,0.3c0,0,0,0,0,0v4.3c0,21.6,17.6,39.2,39.2,39.2h3.4c21.6,0,39.2-17.6,39.2-39.2L329.4,210.8
		C329.4,210.8,329.4,210.8,329.4,210.8L329.4,210.8z M184,45.1c7.4,0,13.4,6,13.4,13.4c0,4.7-2.5,8.9-6.2,11.3
		c-0.2,0.1-0.3,0.2-0.5,0.3c-0.1,0.1-0.2,0.1-0.3,0.1c-0.2,0.1-0.5,0.2-0.7,0.4c-0.1,0-0.2,0.1-0.3,0.1c-0.2,0.1-0.4,0.2-0.6,0.2
		c-0.1,0-0.2,0.1-0.2,0.1c-0.3,0.1-0.5,0.2-0.8,0.3c-0.1,0-0.1,0-0.2,0.1c-0.2,0.1-0.4,0.1-0.7,0.2c-0.1,0-0.1,0-0.2,0.1
		c-0.3,0.1-0.6,0.1-0.8,0.2c0,0-0.1,0-0.1,0c-0.2,0-0.5,0.1-0.7,0.1c-0.1,0-0.2,0-0.2,0c-0.3,0-0.6,0-0.9,0c-0.3,0-0.6,0-0.9,0
		c-0.1,0-0.2,0-0.2,0c-0.2,0-0.5,0-0.7-0.1c0,0-0.1,0-0.1,0c-0.3,0-0.6-0.1-0.8-0.2c-0.1,0-0.1,0-0.2-0.1c-0.2-0.1-0.4-0.1-0.7-0.2
		c-0.1,0-0.1,0-0.2-0.1c-0.3-0.1-0.5-0.2-0.8-0.3c-0.1,0-0.2-0.1-0.2-0.1c-0.2-0.1-0.4-0.2-0.6-0.2c-0.1,0-0.2-0.1-0.3-0.1
		c-0.2-0.1-0.5-0.2-0.7-0.4c-0.1-0.1-0.2-0.1-0.3-0.2c-0.2-0.1-0.3-0.2-0.5-0.3c-3.7-2.4-6.2-6.5-6.2-11.3
		C170.6,51.1,176.6,45.1,184,45.1L184,45.1z M189.4,79.8V85h-10.8v-5.2c0.1,0,0.1,0,0.2,0c0.3,0.1,0.7,0.2,1,0.2
		c0.1,0,0.2,0,0.3,0.1c0.3,0.1,0.7,0.1,1,0.2c0.1,0,0.2,0,0.2,0c0.9,0.1,1.7,0.2,2.6,0.2c0.5,0,0.9,0,1.4,0c0,0,0,0,0,0
		c0.4,0,0.8-0.1,1.3-0.1c0.1,0,0.2,0,0.2,0c0.3,0,0.7-0.1,1-0.2c0.1,0,0.2,0,0.3-0.1c0.3-0.1,0.7-0.1,1-0.2
		C189.3,79.8,189.3,79.8,189.4,79.8L189.4,79.8z M81.1,245.6h-3.4c-16.8,0-30.5-13.7-30.5-30.5h64.4
		C111.6,232,97.9,245.6,81.1,245.6L81.1,245.6z M109.3,206.5H49.6l29.8-66.3L109.3,206.5z M242.6,292.1c2.5,0,4.6,2.1,4.6,4.6v7.7
		h-90.4c-2.4,0-4.3,1.9-4.3,4.3c0,2.4,1.9,4.3,4.3,4.3h106.6c2.6,0,4.8,2.2,4.8,4.8v9.5H99.8v-9.5c0-2.6,2.2-4.8,4.8-4.8h24.6
		c2.4,0,4.3-1.9,4.3-4.3c0-2.4-1.9-4.3-4.3-4.3h-8.4v-7.7c0-2.5,2.1-4.6,4.6-4.6H242.6z M280.3,125.6c-12.1,0-23.5-4.8-31.9-13.6
		c-6-6.2-14.3-9.8-22.9-9.8h-81.4c-10,0-19.2,4-26,11.3c-7.2,7.7-17.7,12.1-28.8,12.1H48.8v-8.6h38.8c10,0,19.2-4,26-11.3
		c7.2-7.7,17.7-12.1,28.8-12.1h82.9c11.1,0,21.6,4.4,28.8,12.1c6.8,7.3,16.1,11.3,26,11.3h38.8v8.6H280.3z M288.5,140.2l29.9,66.3
		h-59.7L288.5,140.2z M290.2,245.6h-3.4c-16.8,0-30.5-13.7-30.5-30.5h64.4C320.7,232,307.1,245.6,290.2,245.6L290.2,245.6z
		 M290.2,245.6"/>
</g>
</svg>
