<?xml version="1.0" encoding="utf-8"?>
<!-- Generator: Adobe Illustrator 22.0.1, SVG Export Plug-In . SVG Version: 6.00 Build 0)  -->
<svg version="1.1" id="Ebene_1" xmlns="http://www.w3.org/2000/svg"  x="0px" y="0px"
	 viewBox="0 0 385.8 388" style="enable-background:new 0 0 385.8 388;" xml:space="preserve">
<style type="text/css">
	.st0{fill:url(#SVGID_1_);}
	.st1{fill:url(#SVGID_2_);}
	.st2{fill:url(#SVGID_3_);}
	.st3{fill:url(#SVGID_4_);}
	.st4{fill:url(#SVGID_5_);}
	.st5{fill:url(#SVGID_6_);}
	.st6{fill:url(#SVGID_7_);}
	.st7{fill:url(#SVGID_8_);}
	.st8{fill:url(#SVGID_9_);}
	.st9{fill:url(#SVGID_10_);}
	.st10{fill:url(#SVGID_11_);}
	.st11{fill:url(#SVGID_12_);}
</style>
<g>
	<linearGradient id="SVGID_1_" gradientUnits="userSpaceOnUse" x1="161.5662" y1="73.1918" x2="212.1992" y2="102.4248">
		<stop  offset="0" style="stop-color:#FF6167;stop-opacity:0.8"/>
		<stop  offset="0.1381" style="stop-color:#FB6067;stop-opacity:0.8249"/>
		<stop  offset="0.2696" style="stop-color:#F05C67;stop-opacity:0.8485"/>
		<stop  offset="0.3986" style="stop-color:#DC5666;stop-opacity:0.8717"/>
		<stop  offset="0.526" style="stop-color:#C14E65;stop-opacity:0.8947"/>
		<stop  offset="0.6522" style="stop-color:#9F4365;stop-opacity:0.9174"/>
		<stop  offset="0.7776" style="stop-color:#743663;stop-opacity:0.94"/>
		<stop  offset="0.9" style="stop-color:#422662;stop-opacity:0.962"/>
		<stop  offset="1" style="stop-color:#141861;stop-opacity:0.98"/>
	</linearGradient>
	<path class="st0" d="M163.6,92.1c0.2,1.3,0.6,2.5,1,3.7l-1.4,0.8c-2,1.2-2.7,3.8-1.6,5.8c0.8,1.4,2.2,2.1,3.7,2.1
		c0.7,0,1.5-0.2,2.1-0.6l1.4-0.8c0.8,1,1.7,1.9,2.7,2.7l-0.8,1.5c-1.2,2-0.5,4.7,1.6,5.8c0.7,0.4,1.4,0.6,2.1,0.6
		c1.5,0,2.9-0.8,3.7-2.1l0.8-1.4c1.2,0.4,2.4,0.7,3.6,1v1.7c0,2.4,1.9,4.3,4.3,4.3c2.4,0,4.3-1.9,4.3-4.3v-1.7
		c1.3-0.2,2.5-0.6,3.6-1l0.8,1.4c0.8,1.4,2.2,2.1,3.7,2.1c0.7,0,1.5-0.2,2.1-0.6c2-1.2,2.8-3.8,1.6-5.8l-0.8-1.5
		c1-0.8,1.9-1.7,2.7-2.7l1.4,0.8c0.7,0.4,1.4,0.6,2.1,0.6c1.5,0,2.9-0.8,3.7-2.1c1.2-2,0.5-4.7-1.6-5.8l-1.4-0.8
		c0.4-1.2,0.8-2.4,1-3.7h1.6c2.4,0,4.3-1.9,4.3-4.3c0-2.4-1.9-4.3-4.3-4.3h-1.6c-0.2-1.3-0.6-2.5-1-3.7l1.4-0.8
		c2-1.2,2.7-3.8,1.6-5.8c-1.2-2-3.8-2.7-5.8-1.6l-1.4,0.8c-0.8-1-1.7-1.9-2.7-2.7l0.8-1.5c1.2-2,0.5-4.7-1.6-5.8
		c-2-1.2-4.7-0.5-5.8,1.6l-0.8,1.4c-1.2-0.4-2.4-0.7-3.6-1v-1.7c0-2.4-1.9-4.3-4.3-4.3c-2.4,0-4.3,1.9-4.3,4.3v1.7
		c-1.3,0.2-2.5,0.6-3.6,1l-0.8-1.4c-1.2-2-3.8-2.8-5.8-1.6c-2,1.2-2.8,3.8-1.6,5.8l0.8,1.5c-1,0.8-1.9,1.7-2.7,2.7l-1.4-0.8
		c-2-1.2-4.7-0.5-5.9,1.6c-1.2,2-0.5,4.7,1.6,5.8l1.4,0.8c-0.4,1.2-0.8,2.4-1,3.7H162c-2.4,0-4.3,1.9-4.3,4.3c0,2.4,1.9,4.3,4.3,4.3
		H163.6z M186.9,72.6c8.3,0,15.1,6.8,15.1,15.2c0,8.4-6.8,15.2-15.1,15.2c-8.3,0-15.1-6.8-15.1-15.2
		C171.8,79.4,178.6,72.6,186.9,72.6L186.9,72.6z M186.9,72.6"/>
	<linearGradient id="SVGID_2_" gradientUnits="userSpaceOnUse" x1="74.1889" y1="71.5252" x2="82.4345" y2="76.2858">
		<stop  offset="0" style="stop-color:#FF6167;stop-opacity:0.8"/>
		<stop  offset="0.1381" style="stop-color:#FB6067;stop-opacity:0.8249"/>
		<stop  offset="0.2696" style="stop-color:#F05C67;stop-opacity:0.8485"/>
		<stop  offset="0.3986" style="stop-color:#DC5666;stop-opacity:0.8717"/>
		<stop  offset="0.526" style="stop-color:#C14E65;stop-opacity:0.8947"/>
		<stop  offset="0.6522" style="stop-color:#9F4365;stop-opacity:0.9174"/>
		<stop  offset="0.7776" style="stop-color:#743663;stop-opacity:0.94"/>
		<stop  offset="0.9" style="stop-color:#422662;stop-opacity:0.962"/>
		<stop  offset="1" style="stop-color:#141861;stop-opacity:0.98"/>
	</linearGradient>
	<path class="st1" d="M77.8,78.2h1.1c2.4,0,4.3-1.9,4.3-4.3c0-2.4-1.9-4.3-4.3-4.3h-1.1c-2.4,0-4.3,1.9-4.3,4.3
		C73.5,76.3,75.4,78.2,77.8,78.2L77.8,78.2z M77.8,78.2"/>
	<linearGradient id="SVGID_3_" gradientUnits="userSpaceOnUse" x1="90.8072" y1="71.5253" x2="99.0527" y2="76.2858">
		<stop  offset="0" style="stop-color:#FF6167;stop-opacity:0.8"/>
		<stop  offset="0.1381" style="stop-color:#FB6067;stop-opacity:0.8249"/>
		<stop  offset="0.2696" style="stop-color:#F05C67;stop-opacity:0.8485"/>
		<stop  offset="0.3986" style="stop-color:#DC5666;stop-opacity:0.8717"/>
		<stop  offset="0.526" style="stop-color:#C14E65;stop-opacity:0.8947"/>
		<stop  offset="0.6522" style="stop-color:#9F4365;stop-opacity:0.9174"/>
		<stop  offset="0.7776" style="stop-color:#743663;stop-opacity:0.94"/>
		<stop  offset="0.9" style="stop-color:#422662;stop-opacity:0.962"/>
		<stop  offset="1" style="stop-color:#141861;stop-opacity:0.98"/>
	</linearGradient>
	<path class="st2" d="M94.4,78.2h1.1c2.4,0,4.3-1.9,4.3-4.3c0-2.4-1.9-4.3-4.3-4.3h-1.1c-2.4,0-4.3,1.9-4.3,4.3
		C90.1,76.3,92,78.2,94.4,78.2L94.4,78.2z M94.4,78.2"/>
	<linearGradient id="SVGID_4_" gradientUnits="userSpaceOnUse" x1="182.9376" y1="85.5294" x2="190.8327" y2="90.0877">
		<stop  offset="0" style="stop-color:#FF6167;stop-opacity:0.8"/>
		<stop  offset="0.1381" style="stop-color:#FB6067;stop-opacity:0.8249"/>
		<stop  offset="0.2696" style="stop-color:#F05C67;stop-opacity:0.8485"/>
		<stop  offset="0.3986" style="stop-color:#DC5666;stop-opacity:0.8717"/>
		<stop  offset="0.526" style="stop-color:#C14E65;stop-opacity:0.8947"/>
		<stop  offset="0.6522" style="stop-color:#9F4365;stop-opacity:0.9174"/>
		<stop  offset="0.7776" style="stop-color:#743663;stop-opacity:0.94"/>
		<stop  offset="0.9" style="stop-color:#422662;stop-opacity:0.962"/>
		<stop  offset="1" style="stop-color:#141861;stop-opacity:0.98"/>
	</linearGradient>
	<path class="st3" d="M186.9,92.6c2.4,0,4.3-1.9,4.3-4.3v-1.1c0-2.4-1.9-4.3-4.3-4.3c-2.4,0-4.3,1.9-4.3,4.3v1.1
		C182.6,90.7,184.5,92.6,186.9,92.6L186.9,92.6z M186.9,92.6"/>
	<linearGradient id="SVGID_5_" gradientUnits="userSpaceOnUse" x1="147.1711" y1="64.88" x2="226.5983" y2="110.7373">
		<stop  offset="0" style="stop-color:#FF6167;stop-opacity:0.8"/>
		<stop  offset="0.1381" style="stop-color:#FB6067;stop-opacity:0.8249"/>
		<stop  offset="0.2696" style="stop-color:#F05C67;stop-opacity:0.8485"/>
		<stop  offset="0.3986" style="stop-color:#DC5666;stop-opacity:0.8717"/>
		<stop  offset="0.526" style="stop-color:#C14E65;stop-opacity:0.8947"/>
		<stop  offset="0.6522" style="stop-color:#9F4365;stop-opacity:0.9174"/>
		<stop  offset="0.7776" style="stop-color:#743663;stop-opacity:0.94"/>
		<stop  offset="0.9" style="stop-color:#422662;stop-opacity:0.962"/>
		<stop  offset="1" style="stop-color:#141861;stop-opacity:0.98"/>
	</linearGradient>
	<path class="st4" d="M186.9,133.8c25.3,0,45.8-20.6,45.8-46c0-25.4-20.6-46-45.8-46c-25.3,0-45.8,20.6-45.8,46
		C141.1,113.2,161.6,133.8,186.9,133.8L186.9,133.8z M186.9,50.4c20.5,0,37.3,16.8,37.3,37.4c0,20.6-16.7,37.4-37.3,37.4
		c-20.6,0-37.3-16.8-37.3-37.4C149.6,67.2,166.3,50.4,186.9,50.4L186.9,50.4z M186.9,50.4"/>
	<linearGradient id="SVGID_6_" gradientUnits="userSpaceOnUse" x1="145.9261" y1="314.0804" x2="225.4442" y2="359.9902">
		<stop  offset="0" style="stop-color:#FF6167;stop-opacity:0.8"/>
		<stop  offset="0.1381" style="stop-color:#FB6067;stop-opacity:0.8249"/>
		<stop  offset="0.2696" style="stop-color:#F05C67;stop-opacity:0.8485"/>
		<stop  offset="0.3986" style="stop-color:#DC5666;stop-opacity:0.8717"/>
		<stop  offset="0.526" style="stop-color:#C14E65;stop-opacity:0.8947"/>
		<stop  offset="0.6522" style="stop-color:#9F4365;stop-opacity:0.9174"/>
		<stop  offset="0.7776" style="stop-color:#743663;stop-opacity:0.94"/>
		<stop  offset="0.9" style="stop-color:#422662;stop-opacity:0.962"/>
		<stop  offset="1" style="stop-color:#141861;stop-opacity:0.98"/>
	</linearGradient>
	<path class="st5" d="M216.5,306.7c-7.3-1.9-18.6-4.2-31.4-4.2c-12.7,0-24.1,2.3-31.4,4.2c-4.6,1.2-7.9,5.4-7.9,10.3V361
		c0,1.6,1.3,2.9,2.9,2.9h15.1c1.6,0,2.9-1.3,2.9-2.9v-30.7c0-1.6-1.3-2.9-2.9-2.9c-1.6,0-2.9,1.3-2.9,2.9V358h-9.2v-41.1
		c0-2.2,1.4-4,3.5-4.6c5.7-1.5,17.1-4,29.9-4c12.7,0,24.2,2.5,29.9,4c2,0.5,3.5,2.4,3.5,4.6V358h-9.9v-27.7c0-1.6-1.3-2.9-2.9-2.9
		c-1.6,0-2.9,1.3-2.9,2.9V358h-27.4c-1.6,0-2.9,1.3-2.9,2.9c0,1.6,1.3,2.9,2.9,2.9h46.2c1.6,0,2.9-1.3,2.9-2.9v-44.1
		C224.4,312.1,221.2,307.9,216.5,306.7L216.5,306.7z M216.5,306.7"/>
	<linearGradient id="SVGID_7_" gradientUnits="userSpaceOnUse" x1="105.6137" y1="109.5397" x2="261.5078" y2="199.5451">
		<stop  offset="0" style="stop-color:#FF6167;stop-opacity:0.8"/>
		<stop  offset="0.1381" style="stop-color:#FB6067;stop-opacity:0.8249"/>
		<stop  offset="0.2696" style="stop-color:#F05C67;stop-opacity:0.8485"/>
		<stop  offset="0.3986" style="stop-color:#DC5666;stop-opacity:0.8717"/>
		<stop  offset="0.526" style="stop-color:#C14E65;stop-opacity:0.8947"/>
		<stop  offset="0.6522" style="stop-color:#9F4365;stop-opacity:0.9174"/>
		<stop  offset="0.7776" style="stop-color:#743663;stop-opacity:0.94"/>
		<stop  offset="0.9" style="stop-color:#422662;stop-opacity:0.962"/>
		<stop  offset="1" style="stop-color:#141861;stop-opacity:0.98"/>
	</linearGradient>
	<path class="st6" d="M277.7,141.9c-2.4,0-4.3,1.9-4.3,4.3v12.4h-82.3v-12.4c0-2.4-1.9-4.3-4.3-4.3c-2.4,0-4.3,1.9-4.3,4.3v12.4
		H93.7v-12.4c0-2.4-1.9-4.3-4.3-4.3c-2.4,0-4.3,1.9-4.3,4.3v16.7c0,2.4,1.9,4.3,4.3,4.3h93.2v6.8c0,2.4,1.9,4.3,4.3,4.3
		c2.4,0,4.3-1.9,4.3-4.3v-6.8h86.6c2.4,0,4.3-1.9,4.3-4.3v-16.7C282,143.8,280.1,141.9,277.7,141.9L277.7,141.9z M277.7,141.9"/>
	<linearGradient id="SVGID_8_" gradientUnits="userSpaceOnUse" x1="263.3119" y1="69.7973" x2="307.5601" y2="95.344">
		<stop  offset="0" style="stop-color:#FF6167;stop-opacity:0.8"/>
		<stop  offset="0.1381" style="stop-color:#FB6067;stop-opacity:0.8249"/>
		<stop  offset="0.2696" style="stop-color:#F05C67;stop-opacity:0.8485"/>
		<stop  offset="0.3986" style="stop-color:#DC5666;stop-opacity:0.8717"/>
		<stop  offset="0.526" style="stop-color:#C14E65;stop-opacity:0.8947"/>
		<stop  offset="0.6522" style="stop-color:#9F4365;stop-opacity:0.9174"/>
		<stop  offset="0.7776" style="stop-color:#743663;stop-opacity:0.94"/>
		<stop  offset="0.9" style="stop-color:#422662;stop-opacity:0.962"/>
		<stop  offset="1" style="stop-color:#141861;stop-opacity:0.98"/>
	</linearGradient>
	<path class="st7" d="M309.8,68.7c-2.9-2.9-6.8-4.5-10.9-4.5c-4.1,0-8,1.6-10.9,4.5l-0.9,0.9l-0.9-0.9c-2.9-2.9-6.8-4.5-10.9-4.5
		c-4.1,0-8,1.6-10.9,4.5c-6,6-6,15.8,0,21.8l19.6,19.7c0.8,0.8,1.9,1.3,3,1.3c1.1,0,2.2-0.5,3-1.3l19.6-19.7
		C315.7,84.5,315.7,74.7,309.8,68.7L309.8,68.7z M303.7,84.4l-16.6,16.6l-16.6-16.6c-2.7-2.7-2.7-7,0-9.7c1.3-1.3,3-2,4.8-2
		c1.8,0,3.5,0.7,4.8,2l3.9,3.9c0.8,0.8,1.9,1.3,3,1.3c1.1,0,2.2-0.5,3-1.3l3.9-3.9c1.3-1.3,3-2,4.8-2c1.8,0,3.5,0.7,4.8,2
		C306.4,77.4,306.4,81.8,303.7,84.4L303.7,84.4z M303.7,84.4"/>
	<linearGradient id="SVGID_9_" gradientUnits="userSpaceOnUse" x1="247.4334" y1="64.8792" x2="326.8625" y2="110.7376">
		<stop  offset="0" style="stop-color:#FF6167;stop-opacity:0.8"/>
		<stop  offset="0.1381" style="stop-color:#FB6067;stop-opacity:0.8249"/>
		<stop  offset="0.2696" style="stop-color:#F05C67;stop-opacity:0.8485"/>
		<stop  offset="0.3986" style="stop-color:#DC5666;stop-opacity:0.8717"/>
		<stop  offset="0.526" style="stop-color:#C14E65;stop-opacity:0.8947"/>
		<stop  offset="0.6522" style="stop-color:#9F4365;stop-opacity:0.9174"/>
		<stop  offset="0.7776" style="stop-color:#743663;stop-opacity:0.94"/>
		<stop  offset="0.9" style="stop-color:#422662;stop-opacity:0.962"/>
		<stop  offset="1" style="stop-color:#141861;stop-opacity:0.98"/>
	</linearGradient>
	<path class="st8" d="M287.1,41.8c-25.3,0-45.8,20.6-45.8,46c0,25.4,20.6,46,45.8,46c25.3,0,45.8-20.6,45.8-46
		C333,62.5,312.4,41.8,287.1,41.8L287.1,41.8z M287.1,125.2c-20.5,0-37.3-16.8-37.3-37.4c0-20.6,16.7-37.4,37.3-37.4
		c20.5,0,37.3,16.8,37.3,37.4C324.4,108.4,307.7,125.2,287.1,125.2L287.1,125.2z M287.1,125.2"/>
	<linearGradient id="SVGID_10_" gradientUnits="userSpaceOnUse" x1="46.9073" y1="64.88" x2="126.3345" y2="110.7374">
		<stop  offset="0" style="stop-color:#FF6167;stop-opacity:0.8"/>
		<stop  offset="0.1381" style="stop-color:#FB6067;stop-opacity:0.8249"/>
		<stop  offset="0.2696" style="stop-color:#F05C67;stop-opacity:0.8485"/>
		<stop  offset="0.3986" style="stop-color:#DC5666;stop-opacity:0.8717"/>
		<stop  offset="0.526" style="stop-color:#C14E65;stop-opacity:0.8947"/>
		<stop  offset="0.6522" style="stop-color:#9F4365;stop-opacity:0.9174"/>
		<stop  offset="0.7776" style="stop-color:#743663;stop-opacity:0.94"/>
		<stop  offset="0.9" style="stop-color:#422662;stop-opacity:0.962"/>
		<stop  offset="1" style="stop-color:#141861;stop-opacity:0.98"/>
	</linearGradient>
	<path class="st9" d="M132.4,87.8c0-25.4-20.6-46-45.8-46c-25.3,0-45.8,20.6-45.8,46c0,25.4,20.6,46,45.8,46
		C111.9,133.8,132.4,113.2,132.4,87.8L132.4,87.8z M49.4,87.8c0-20.6,16.7-37.4,37.3-37.4c20.5,0,37.3,16.8,37.3,37.4
		c0,20.6-16.7,37.4-37.3,37.4C66.1,125.2,49.4,108.4,49.4,87.8L49.4,87.8z M49.4,87.8"/>
	<linearGradient id="SVGID_11_" gradientUnits="userSpaceOnUse" x1="66.6696" y1="83.352" x2="104.0638" y2="104.9416">
		<stop  offset="0" style="stop-color:#FF6167;stop-opacity:0.8"/>
		<stop  offset="0.1381" style="stop-color:#FB6067;stop-opacity:0.8249"/>
		<stop  offset="0.2696" style="stop-color:#F05C67;stop-opacity:0.8485"/>
		<stop  offset="0.3986" style="stop-color:#DC5666;stop-opacity:0.8717"/>
		<stop  offset="0.526" style="stop-color:#C14E65;stop-opacity:0.8947"/>
		<stop  offset="0.6522" style="stop-color:#9F4365;stop-opacity:0.9174"/>
		<stop  offset="0.7776" style="stop-color:#743663;stop-opacity:0.94"/>
		<stop  offset="0.9" style="stop-color:#422662;stop-opacity:0.962"/>
		<stop  offset="1" style="stop-color:#141861;stop-opacity:0.98"/>
	</linearGradient>
	<path class="st10" d="M110,91.2c0.2-1.2-0.2-2.5-1-3.4c-0.8-0.9-2-1.5-3.2-1.5H67.4c-1.2,0-2.4,0.5-3.2,1.5c-0.8,0.9-1.2,2.2-1,3.4
		c1.7,11.6,11.7,20.4,23.4,20.4C98.3,111.6,108.4,102.8,110,91.2L110,91.2z M73.3,94.9H100c-2.6,4.9-7.7,8.1-13.4,8.1
		C80.9,103,75.8,99.7,73.3,94.9L73.3,94.9z M73.3,94.9"/>
	<linearGradient id="SVGID_12_" gradientUnits="userSpaceOnUse" x1="171.0993" y1="270.4913" x2="199.2421" y2="286.7396">
		<stop  offset="0" style="stop-color:#FF6167;stop-opacity:0.8"/>
		<stop  offset="0.1381" style="stop-color:#FB6067;stop-opacity:0.8249"/>
		<stop  offset="0.2696" style="stop-color:#F05C67;stop-opacity:0.8485"/>
		<stop  offset="0.3986" style="stop-color:#DC5666;stop-opacity:0.8717"/>
		<stop  offset="0.526" style="stop-color:#C14E65;stop-opacity:0.8947"/>
		<stop  offset="0.6522" style="stop-color:#9F4365;stop-opacity:0.9174"/>
		<stop  offset="0.7776" style="stop-color:#743663;stop-opacity:0.94"/>
		<stop  offset="0.9" style="stop-color:#422662;stop-opacity:0.962"/>
		<stop  offset="1" style="stop-color:#141861;stop-opacity:0.98"/>
	</linearGradient>
	<path class="st11" d="M201.4,278.6c0-9-7.3-16.4-16.2-16.4c-8.9,0-16.2,7.3-16.2,16.4c0,9,7.3,16.4,16.2,16.4
		C194.1,295,201.4,287.6,201.4,278.6L201.4,278.6z M174.9,278.6c0-5.8,4.6-10.5,10.3-10.5c5.7,0,10.3,4.7,10.3,10.5
		c0,5.8-4.6,10.5-10.3,10.5C179.5,289.1,174.9,284.4,174.9,278.6L174.9,278.6z M174.9,278.6"/>
</g>
</svg>
