<?xml version="1.0" encoding="utf-8"?>
<!-- Generator: Adobe Illustrator 22.0.1, SVG Export Plug-In . SVG Version: 6.00 Build 0)  -->
<svg version="1.1" id="Ebene_1" xmlns="http://www.w3.org/2000/svg"  x="0px" y="0px"
	 viewBox="0 0 385.8 388" style="enable-background:new 0 0 385.8 388;" xml:space="preserve">
<style type="text/css">
	.st0{fill:url(#SVGID_1_);}
	.st1{fill:url(#SVGID_2_);}
	.st2{fill:url(#SVGID_3_);}
	.st3{fill:url(#SVGID_4_);}
	.st4{fill:url(#SVGID_5_);}
	.st5{fill:url(#SVGID_6_);}
	.st6{fill:url(#SVGID_7_);}
	.st7{fill:url(#SVGID_8_);}
	.st8{fill:url(#SVGID_9_);}
	.st9{fill:url(#SVGID_10_);}
	.st10{fill:url(#SVGID_11_);}
	.st11{fill:url(#SVGID_12_);}
	.st12{fill:url(#SVGID_13_);}
	.st13{fill:url(#SVGID_14_);}
	.st14{fill:url(#SVGID_15_);}
	.st15{fill:url(#SVGID_16_);}
	.st16{fill:url(#SVGID_17_);}
	.st17{fill:url(#SVGID_18_);}
	.st18{fill:url(#SVGID_19_);}
	.st19{fill:url(#SVGID_20_);}
</style>
<g>
	<linearGradient id="SVGID_1_" gradientUnits="userSpaceOnUse" x1="161.5662" y1="-399.8082" x2="212.1992" y2="-370.5752">
		<stop  offset="0" style="stop-color:#FF6167;stop-opacity:0.8"/>
		<stop  offset="0.1381" style="stop-color:#FB6067;stop-opacity:0.8249"/>
		<stop  offset="0.2696" style="stop-color:#F05C67;stop-opacity:0.8485"/>
		<stop  offset="0.3986" style="stop-color:#DC5666;stop-opacity:0.8717"/>
		<stop  offset="0.526" style="stop-color:#C14E65;stop-opacity:0.8947"/>
		<stop  offset="0.6522" style="stop-color:#9F4365;stop-opacity:0.9174"/>
		<stop  offset="0.7776" style="stop-color:#743663;stop-opacity:0.94"/>
		<stop  offset="0.9" style="stop-color:#422662;stop-opacity:0.962"/>
		<stop  offset="1" style="stop-color:#141861;stop-opacity:0.98"/>
	</linearGradient>
	<path class="st0" d="M163.6-380.9c0.2,1.3,0.6,2.5,1,3.7l-1.4,0.8c-2,1.2-2.7,3.8-1.6,5.8c0.8,1.4,2.2,2.1,3.7,2.1
		c0.7,0,1.5-0.2,2.1-0.6l1.4-0.8c0.8,1,1.7,1.9,2.7,2.7l-0.8,1.5c-1.2,2-0.5,4.7,1.6,5.8c0.7,0.4,1.4,0.6,2.1,0.6
		c1.5,0,2.9-0.8,3.7-2.1l0.8-1.4c1.2,0.4,2.4,0.7,3.6,1v1.7c0,2.4,1.9,4.3,4.3,4.3c2.4,0,4.3-1.9,4.3-4.3v-1.7
		c1.3-0.2,2.5-0.6,3.6-1l0.8,1.4c0.8,1.4,2.2,2.1,3.7,2.1c0.7,0,1.5-0.2,2.1-0.6c2-1.2,2.8-3.8,1.6-5.8l-0.8-1.5
		c1-0.8,1.9-1.7,2.7-2.7l1.4,0.8c0.7,0.4,1.4,0.6,2.1,0.6c1.5,0,2.9-0.8,3.7-2.1c1.2-2,0.5-4.7-1.6-5.8l-1.4-0.8
		c0.4-1.2,0.8-2.4,1-3.7h1.6c2.4,0,4.3-1.9,4.3-4.3c0-2.4-1.9-4.3-4.3-4.3h-1.6c-0.2-1.3-0.6-2.5-1-3.7l1.4-0.8
		c2-1.2,2.7-3.8,1.6-5.8c-1.2-2-3.8-2.7-5.8-1.6l-1.4,0.8c-0.8-1-1.7-1.9-2.7-2.7l0.8-1.5c1.2-2,0.5-4.7-1.6-5.8
		c-2-1.2-4.7-0.5-5.8,1.6l-0.8,1.4c-1.2-0.4-2.4-0.7-3.6-1v-1.7c0-2.4-1.9-4.3-4.3-4.3c-2.4,0-4.3,1.9-4.3,4.3v1.7
		c-1.3,0.2-2.5,0.6-3.6,1l-0.8-1.4c-1.2-2-3.8-2.8-5.8-1.6c-2,1.2-2.8,3.8-1.6,5.8l0.8,1.5c-1,0.8-1.9,1.7-2.7,2.7l-1.4-0.8
		c-2-1.2-4.7-0.5-5.9,1.6c-1.2,2-0.5,4.7,1.6,5.8l1.4,0.8c-0.4,1.2-0.8,2.4-1,3.7H162c-2.4,0-4.3,1.9-4.3,4.3c0,2.4,1.9,4.3,4.3,4.3
		H163.6z M186.9-400.4c8.3,0,15.1,6.8,15.1,15.2c0,8.4-6.8,15.2-15.1,15.2c-8.3,0-15.1-6.8-15.1-15.2
		C171.8-393.6,178.6-400.4,186.9-400.4L186.9-400.4z M186.9-400.4"/>
	<linearGradient id="SVGID_2_" gradientUnits="userSpaceOnUse" x1="74.1889" y1="-401.4748" x2="82.4345" y2="-396.7142">
		<stop  offset="0" style="stop-color:#FF6167;stop-opacity:0.8"/>
		<stop  offset="0.1381" style="stop-color:#FB6067;stop-opacity:0.8249"/>
		<stop  offset="0.2696" style="stop-color:#F05C67;stop-opacity:0.8485"/>
		<stop  offset="0.3986" style="stop-color:#DC5666;stop-opacity:0.8717"/>
		<stop  offset="0.526" style="stop-color:#C14E65;stop-opacity:0.8947"/>
		<stop  offset="0.6522" style="stop-color:#9F4365;stop-opacity:0.9174"/>
		<stop  offset="0.7776" style="stop-color:#743663;stop-opacity:0.94"/>
		<stop  offset="0.9" style="stop-color:#422662;stop-opacity:0.962"/>
		<stop  offset="1" style="stop-color:#141861;stop-opacity:0.98"/>
	</linearGradient>
	<path class="st1" d="M77.8-394.8h1.1c2.4,0,4.3-1.9,4.3-4.3c0-2.4-1.9-4.3-4.3-4.3h-1.1c-2.4,0-4.3,1.9-4.3,4.3
		C73.5-396.7,75.4-394.8,77.8-394.8L77.8-394.8z M77.8-394.8"/>
	<linearGradient id="SVGID_3_" gradientUnits="userSpaceOnUse" x1="90.8072" y1="-401.4747" x2="99.0527" y2="-396.7142">
		<stop  offset="0" style="stop-color:#FF6167;stop-opacity:0.8"/>
		<stop  offset="0.1381" style="stop-color:#FB6067;stop-opacity:0.8249"/>
		<stop  offset="0.2696" style="stop-color:#F05C67;stop-opacity:0.8485"/>
		<stop  offset="0.3986" style="stop-color:#DC5666;stop-opacity:0.8717"/>
		<stop  offset="0.526" style="stop-color:#C14E65;stop-opacity:0.8947"/>
		<stop  offset="0.6522" style="stop-color:#9F4365;stop-opacity:0.9174"/>
		<stop  offset="0.7776" style="stop-color:#743663;stop-opacity:0.94"/>
		<stop  offset="0.9" style="stop-color:#422662;stop-opacity:0.962"/>
		<stop  offset="1" style="stop-color:#141861;stop-opacity:0.98"/>
	</linearGradient>
	<path class="st2" d="M94.4-394.8h1.1c2.4,0,4.3-1.9,4.3-4.3c0-2.4-1.9-4.3-4.3-4.3h-1.1c-2.4,0-4.3,1.9-4.3,4.3
		C90.1-396.7,92-394.8,94.4-394.8L94.4-394.8z M94.4-394.8"/>
	<linearGradient id="SVGID_4_" gradientUnits="userSpaceOnUse" x1="182.9376" y1="-387.4706" x2="190.8327" y2="-382.9123">
		<stop  offset="0" style="stop-color:#FF6167;stop-opacity:0.8"/>
		<stop  offset="0.1381" style="stop-color:#FB6067;stop-opacity:0.8249"/>
		<stop  offset="0.2696" style="stop-color:#F05C67;stop-opacity:0.8485"/>
		<stop  offset="0.3986" style="stop-color:#DC5666;stop-opacity:0.8717"/>
		<stop  offset="0.526" style="stop-color:#C14E65;stop-opacity:0.8947"/>
		<stop  offset="0.6522" style="stop-color:#9F4365;stop-opacity:0.9174"/>
		<stop  offset="0.7776" style="stop-color:#743663;stop-opacity:0.94"/>
		<stop  offset="0.9" style="stop-color:#422662;stop-opacity:0.962"/>
		<stop  offset="1" style="stop-color:#141861;stop-opacity:0.98"/>
	</linearGradient>
	<path class="st3" d="M186.9-380.4c2.4,0,4.3-1.9,4.3-4.3v-1.1c0-2.4-1.9-4.3-4.3-4.3c-2.4,0-4.3,1.9-4.3,4.3v1.1
		C182.6-382.3,184.5-380.4,186.9-380.4L186.9-380.4z M186.9-380.4"/>
	<linearGradient id="SVGID_5_" gradientUnits="userSpaceOnUse" x1="147.1711" y1="-408.12" x2="226.5983" y2="-362.2627">
		<stop  offset="0" style="stop-color:#FF6167;stop-opacity:0.8"/>
		<stop  offset="0.1381" style="stop-color:#FB6067;stop-opacity:0.8249"/>
		<stop  offset="0.2696" style="stop-color:#F05C67;stop-opacity:0.8485"/>
		<stop  offset="0.3986" style="stop-color:#DC5666;stop-opacity:0.8717"/>
		<stop  offset="0.526" style="stop-color:#C14E65;stop-opacity:0.8947"/>
		<stop  offset="0.6522" style="stop-color:#9F4365;stop-opacity:0.9174"/>
		<stop  offset="0.7776" style="stop-color:#743663;stop-opacity:0.94"/>
		<stop  offset="0.9" style="stop-color:#422662;stop-opacity:0.962"/>
		<stop  offset="1" style="stop-color:#141861;stop-opacity:0.98"/>
	</linearGradient>
	<path class="st4" d="M186.9-339.2c25.3,0,45.8-20.6,45.8-46c0-25.4-20.6-46-45.8-46c-25.3,0-45.8,20.6-45.8,46
		C141.1-359.8,161.6-339.2,186.9-339.2L186.9-339.2z M186.9-422.6c20.5,0,37.3,16.8,37.3,37.4c0,20.6-16.7,37.4-37.3,37.4
		c-20.6,0-37.3-16.8-37.3-37.4C149.6-405.8,166.3-422.6,186.9-422.6L186.9-422.6z M186.9-422.6"/>
	<linearGradient id="SVGID_6_" gradientUnits="userSpaceOnUse" x1="145.9261" y1="-158.9196" x2="225.4442" y2="-113.0098">
		<stop  offset="0" style="stop-color:#FF6167;stop-opacity:0.8"/>
		<stop  offset="0.1381" style="stop-color:#FB6067;stop-opacity:0.8249"/>
		<stop  offset="0.2696" style="stop-color:#F05C67;stop-opacity:0.8485"/>
		<stop  offset="0.3986" style="stop-color:#DC5666;stop-opacity:0.8717"/>
		<stop  offset="0.526" style="stop-color:#C14E65;stop-opacity:0.8947"/>
		<stop  offset="0.6522" style="stop-color:#9F4365;stop-opacity:0.9174"/>
		<stop  offset="0.7776" style="stop-color:#743663;stop-opacity:0.94"/>
		<stop  offset="0.9" style="stop-color:#422662;stop-opacity:0.962"/>
		<stop  offset="1" style="stop-color:#141861;stop-opacity:0.98"/>
	</linearGradient>
	<path class="st5" d="M216.5-166.3c-7.3-1.9-18.6-4.2-31.4-4.2c-12.7,0-24.1,2.3-31.4,4.2c-4.6,1.2-7.9,5.4-7.9,10.3v44.1
		c0,1.6,1.3,2.9,2.9,2.9h15.1c1.6,0,2.9-1.3,2.9-2.9v-30.7c0-1.6-1.3-2.9-2.9-2.9c-1.6,0-2.9,1.3-2.9,2.9v27.7h-9.2v-41.1
		c0-2.2,1.4-4,3.5-4.6c5.7-1.5,17.1-4,29.9-4c12.7,0,24.2,2.5,29.9,4c2,0.5,3.5,2.4,3.5,4.6v41.1h-9.9v-27.7c0-1.6-1.3-2.9-2.9-2.9
		c-1.6,0-2.9,1.3-2.9,2.9v27.7h-27.4c-1.6,0-2.9,1.3-2.9,2.9c0,1.6,1.3,2.9,2.9,2.9h46.2c1.6,0,2.9-1.3,2.9-2.9v-44.1
		C224.4-160.9,221.2-165.1,216.5-166.3L216.5-166.3z M216.5-166.3"/>
	<linearGradient id="SVGID_7_" gradientUnits="userSpaceOnUse" x1="105.6137" y1="-363.4603" x2="261.5078" y2="-273.4549">
		<stop  offset="0" style="stop-color:#FF6167;stop-opacity:0.8"/>
		<stop  offset="0.1381" style="stop-color:#FB6067;stop-opacity:0.8249"/>
		<stop  offset="0.2696" style="stop-color:#F05C67;stop-opacity:0.8485"/>
		<stop  offset="0.3986" style="stop-color:#DC5666;stop-opacity:0.8717"/>
		<stop  offset="0.526" style="stop-color:#C14E65;stop-opacity:0.8947"/>
		<stop  offset="0.6522" style="stop-color:#9F4365;stop-opacity:0.9174"/>
		<stop  offset="0.7776" style="stop-color:#743663;stop-opacity:0.94"/>
		<stop  offset="0.9" style="stop-color:#422662;stop-opacity:0.962"/>
		<stop  offset="1" style="stop-color:#141861;stop-opacity:0.98"/>
	</linearGradient>
	<path class="st6" d="M277.7-331.1c-2.4,0-4.3,1.9-4.3,4.3v12.4h-82.3v-12.4c0-2.4-1.9-4.3-4.3-4.3c-2.4,0-4.3,1.9-4.3,4.3v12.4
		H93.7v-12.4c0-2.4-1.9-4.3-4.3-4.3c-2.4,0-4.3,1.9-4.3,4.3v16.7c0,2.4,1.9,4.3,4.3,4.3h93.2v6.8c0,2.4,1.9,4.3,4.3,4.3
		c2.4,0,4.3-1.9,4.3-4.3v-6.8h86.6c2.4,0,4.3-1.9,4.3-4.3v-16.7C282-329.2,280.1-331.1,277.7-331.1L277.7-331.1z M277.7-331.1"/>
	<linearGradient id="SVGID_8_" gradientUnits="userSpaceOnUse" x1="263.3119" y1="-403.2027" x2="307.5601" y2="-377.656">
		<stop  offset="0" style="stop-color:#FF6167;stop-opacity:0.8"/>
		<stop  offset="0.1381" style="stop-color:#FB6067;stop-opacity:0.8249"/>
		<stop  offset="0.2696" style="stop-color:#F05C67;stop-opacity:0.8485"/>
		<stop  offset="0.3986" style="stop-color:#DC5666;stop-opacity:0.8717"/>
		<stop  offset="0.526" style="stop-color:#C14E65;stop-opacity:0.8947"/>
		<stop  offset="0.6522" style="stop-color:#9F4365;stop-opacity:0.9174"/>
		<stop  offset="0.7776" style="stop-color:#743663;stop-opacity:0.94"/>
		<stop  offset="0.9" style="stop-color:#422662;stop-opacity:0.962"/>
		<stop  offset="1" style="stop-color:#141861;stop-opacity:0.98"/>
	</linearGradient>
	<path class="st7" d="M309.8-404.3c-2.9-2.9-6.8-4.5-10.9-4.5c-4.1,0-8,1.6-10.9,4.5l-0.9,0.9l-0.9-0.9c-2.9-2.9-6.8-4.5-10.9-4.5
		c-4.1,0-8,1.6-10.9,4.5c-6,6-6,15.8,0,21.8l19.6,19.7c0.8,0.8,1.9,1.3,3,1.3c1.1,0,2.2-0.5,3-1.3l19.6-19.7
		C315.7-388.5,315.7-398.3,309.8-404.3L309.8-404.3z M303.7-388.6l-16.6,16.6l-16.6-16.6c-2.7-2.7-2.7-7,0-9.7c1.3-1.3,3-2,4.8-2
		c1.8,0,3.5,0.7,4.8,2l3.9,3.9c0.8,0.8,1.9,1.3,3,1.3c1.1,0,2.2-0.5,3-1.3l3.9-3.9c1.3-1.3,3-2,4.8-2c1.8,0,3.5,0.7,4.8,2
		C306.4-395.6,306.4-391.2,303.7-388.6L303.7-388.6z M303.7-388.6"/>
	<linearGradient id="SVGID_9_" gradientUnits="userSpaceOnUse" x1="247.4334" y1="-408.1208" x2="326.8625" y2="-362.2624">
		<stop  offset="0" style="stop-color:#FF6167;stop-opacity:0.8"/>
		<stop  offset="0.1381" style="stop-color:#FB6067;stop-opacity:0.8249"/>
		<stop  offset="0.2696" style="stop-color:#F05C67;stop-opacity:0.8485"/>
		<stop  offset="0.3986" style="stop-color:#DC5666;stop-opacity:0.8717"/>
		<stop  offset="0.526" style="stop-color:#C14E65;stop-opacity:0.8947"/>
		<stop  offset="0.6522" style="stop-color:#9F4365;stop-opacity:0.9174"/>
		<stop  offset="0.7776" style="stop-color:#743663;stop-opacity:0.94"/>
		<stop  offset="0.9" style="stop-color:#422662;stop-opacity:0.962"/>
		<stop  offset="1" style="stop-color:#141861;stop-opacity:0.98"/>
	</linearGradient>
	<path class="st8" d="M287.1-431.2c-25.3,0-45.8,20.6-45.8,46c0,25.4,20.6,46,45.8,46c25.3,0,45.8-20.6,45.8-46
		C333-410.5,312.4-431.2,287.1-431.2L287.1-431.2z M287.1-347.8c-20.5,0-37.3-16.8-37.3-37.4c0-20.6,16.7-37.4,37.3-37.4
		c20.5,0,37.3,16.8,37.3,37.4C324.4-364.6,307.7-347.8,287.1-347.8L287.1-347.8z M287.1-347.8"/>
	<linearGradient id="SVGID_10_" gradientUnits="userSpaceOnUse" x1="46.9073" y1="-408.12" x2="126.3345" y2="-362.2627">
		<stop  offset="0" style="stop-color:#FF6167;stop-opacity:0.8"/>
		<stop  offset="0.1381" style="stop-color:#FB6067;stop-opacity:0.8249"/>
		<stop  offset="0.2696" style="stop-color:#F05C67;stop-opacity:0.8485"/>
		<stop  offset="0.3986" style="stop-color:#DC5666;stop-opacity:0.8717"/>
		<stop  offset="0.526" style="stop-color:#C14E65;stop-opacity:0.8947"/>
		<stop  offset="0.6522" style="stop-color:#9F4365;stop-opacity:0.9174"/>
		<stop  offset="0.7776" style="stop-color:#743663;stop-opacity:0.94"/>
		<stop  offset="0.9" style="stop-color:#422662;stop-opacity:0.962"/>
		<stop  offset="1" style="stop-color:#141861;stop-opacity:0.98"/>
	</linearGradient>
	<path class="st9" d="M132.4-385.2c0-25.4-20.6-46-45.8-46c-25.3,0-45.8,20.6-45.8,46c0,25.4,20.6,46,45.8,46
		C111.9-339.2,132.4-359.8,132.4-385.2L132.4-385.2z M49.4-385.2c0-20.6,16.7-37.4,37.3-37.4c20.5,0,37.3,16.8,37.3,37.4
		c0,20.6-16.7,37.4-37.3,37.4C66.1-347.8,49.4-364.6,49.4-385.2L49.4-385.2z M49.4-385.2"/>
	<linearGradient id="SVGID_11_" gradientUnits="userSpaceOnUse" x1="66.6696" y1="-389.648" x2="104.0638" y2="-368.0584">
		<stop  offset="0" style="stop-color:#FF6167;stop-opacity:0.8"/>
		<stop  offset="0.1381" style="stop-color:#FB6067;stop-opacity:0.8249"/>
		<stop  offset="0.2696" style="stop-color:#F05C67;stop-opacity:0.8485"/>
		<stop  offset="0.3986" style="stop-color:#DC5666;stop-opacity:0.8717"/>
		<stop  offset="0.526" style="stop-color:#C14E65;stop-opacity:0.8947"/>
		<stop  offset="0.6522" style="stop-color:#9F4365;stop-opacity:0.9174"/>
		<stop  offset="0.7776" style="stop-color:#743663;stop-opacity:0.94"/>
		<stop  offset="0.9" style="stop-color:#422662;stop-opacity:0.962"/>
		<stop  offset="1" style="stop-color:#141861;stop-opacity:0.98"/>
	</linearGradient>
	<path class="st10" d="M110-381.8c0.2-1.2-0.2-2.5-1-3.4c-0.8-0.9-2-1.5-3.2-1.5H67.4c-1.2,0-2.4,0.5-3.2,1.5
		c-0.8,0.9-1.2,2.2-1,3.4c1.7,11.6,11.7,20.4,23.4,20.4C98.3-361.4,108.4-370.2,110-381.8L110-381.8z M73.3-378.1H100
		c-2.6,4.9-7.7,8.1-13.4,8.1C80.9-370,75.8-373.3,73.3-378.1L73.3-378.1z M73.3-378.1"/>
	<linearGradient id="SVGID_12_" gradientUnits="userSpaceOnUse" x1="171.0993" y1="-202.5087" x2="199.2421" y2="-186.2604">
		<stop  offset="0" style="stop-color:#FF6167;stop-opacity:0.8"/>
		<stop  offset="0.1381" style="stop-color:#FB6067;stop-opacity:0.8249"/>
		<stop  offset="0.2696" style="stop-color:#F05C67;stop-opacity:0.8485"/>
		<stop  offset="0.3986" style="stop-color:#DC5666;stop-opacity:0.8717"/>
		<stop  offset="0.526" style="stop-color:#C14E65;stop-opacity:0.8947"/>
		<stop  offset="0.6522" style="stop-color:#9F4365;stop-opacity:0.9174"/>
		<stop  offset="0.7776" style="stop-color:#743663;stop-opacity:0.94"/>
		<stop  offset="0.9" style="stop-color:#422662;stop-opacity:0.962"/>
		<stop  offset="1" style="stop-color:#141861;stop-opacity:0.98"/>
	</linearGradient>
	<path class="st11" d="M201.4-194.4c0-9-7.3-16.4-16.2-16.4c-8.9,0-16.2,7.3-16.2,16.4c0,9,7.3,16.4,16.2,16.4
		C194.1-178,201.4-185.4,201.4-194.4L201.4-194.4z M174.9-194.4c0-5.8,4.6-10.5,10.3-10.5c5.7,0,10.3,4.7,10.3,10.5
		c0,5.8-4.6,10.5-10.3,10.5C179.5-183.9,174.9-188.6,174.9-194.4L174.9-194.4z M174.9-194.4"/>
</g>
<g>
	<linearGradient id="SVGID_13_" gradientUnits="userSpaceOnUse" x1="38.9075" y1="108.4562" x2="182.9261" y2="357.9036">
		<stop  offset="0" style="stop-color:#FF6167;stop-opacity:0.8"/>
		<stop  offset="0.1381" style="stop-color:#FB6067;stop-opacity:0.8249"/>
		<stop  offset="0.2696" style="stop-color:#F05C67;stop-opacity:0.8485"/>
		<stop  offset="0.3986" style="stop-color:#DC5666;stop-opacity:0.8717"/>
		<stop  offset="0.526" style="stop-color:#C14E65;stop-opacity:0.8947"/>
		<stop  offset="0.6522" style="stop-color:#9F4365;stop-opacity:0.9174"/>
		<stop  offset="0.7776" style="stop-color:#743663;stop-opacity:0.94"/>
		<stop  offset="0.9" style="stop-color:#422662;stop-opacity:0.962"/>
		<stop  offset="1" style="stop-color:#141861;stop-opacity:0.98"/>
	</linearGradient>
	<path class="st12" d="M239.2,322.9c-0.1-28.2-8.4-52.7-25.6-74.8c-14.8-19.1-34.3-34.1-53.1-48.6c-35.9-27.7-69.9-53.9-69.9-105.7
		c0-2.1-1.7-3.8-3.8-3.8H71.7c-2.1,0-3.8,1.7-3.8,3.8c0,28.3,8.4,52.9,25.6,75c11.8,15.2,26.5,27.8,41.6,39.6
		c-14.1,11.1-29.4,24-41.6,39.6c-17.2,22.2-25.6,46.7-25.6,75c0,2.1,1.7,3.8,3.8,3.8h15.1c2.1,0,3.8-1.7,3.8-3.8
		c0-3.9,0.2-7.7,0.6-11.3h26.9c2.1,0,3.8-1.7,3.8-3.8s-1.7-3.8-3.8-3.8H92.3c1.5-8.1,3.9-15.5,7.1-22.4H193c2.1,0,3.8-1.7,3.8-3.8
		c0-2.1-1.7-3.8-3.8-3.8h-89.7c4.7-8,10.5-15.4,17.1-22.4h46.1c2.1,0,3.8-1.7,3.8-3.8c0-2.1-1.7-3.8-3.8-3.8h-38.5
		c7.7-7.3,16.4-14.3,25.6-21.4c33.3,25.9,63,51.9,63,100.3c0,2.1,1.7,3.8,3.8,3.8h15.1c2.1,0,3.8-1.7,3.8-3.8
		C239.3,323.1,239.3,323,239.2,322.9L239.2,322.9z M116.2,245.2c-0.2,0.1-0.3,0.3-0.5,0.5c-4.2,4.3-8.1,8.8-11.6,13.5
		c-4.1,5.4-7.5,11-10.4,16.8c-0.1,0.2-0.3,0.5-0.4,0.7c-4.7,9.6-7.7,19.7-9.2,30.5c0,0.2,0,0.3-0.1,0.5c-0.5,3.8-0.8,7.7-0.9,11.6
		h-7.6c0.7-25,8.6-46.8,24-66.6c12-15.5,27.7-28.4,41.7-39.5c1.8,1.4,3.6,2.8,5.4,4.2c0.3,0.2,0.5,0.4,0.8,0.6
		C136.3,226.8,125.6,235.6,116.2,245.2L116.2,245.2z M224.1,319.4c-0.7-23.4-8.2-43.8-22.7-62.4c-13.5-17.3-31.3-31-50.1-45.5
		c-18.5-14.2-37.5-29-51.8-47.3c-15.4-19.8-23.2-41.6-24-66.6h7.6c0.7,23.4,8.2,43.8,22.7,62.4c13.5,17.3,31.3,31,50.1,45.5
		c18.5,14.2,37.5,29,51.8,47.3c15.4,19.8,23.2,41.6,24,66.6H224.1z M224.1,319.4"/>
	<linearGradient id="SVGID_14_" gradientUnits="userSpaceOnUse" x1="118.0282" y1="132.4383" x2="125.5893" y2="145.5346">
		<stop  offset="0" style="stop-color:#FF6167;stop-opacity:0.8"/>
		<stop  offset="0.1381" style="stop-color:#FB6067;stop-opacity:0.8249"/>
		<stop  offset="0.2696" style="stop-color:#F05C67;stop-opacity:0.8485"/>
		<stop  offset="0.3986" style="stop-color:#DC5666;stop-opacity:0.8717"/>
		<stop  offset="0.526" style="stop-color:#C14E65;stop-opacity:0.8947"/>
		<stop  offset="0.6522" style="stop-color:#9F4365;stop-opacity:0.9174"/>
		<stop  offset="0.7776" style="stop-color:#743663;stop-opacity:0.94"/>
		<stop  offset="0.9" style="stop-color:#422662;stop-opacity:0.962"/>
		<stop  offset="1" style="stop-color:#141861;stop-opacity:0.98"/>
	</linearGradient>
	<path class="st13" d="M114.2,135.2c-2.1,0-3.8,1.7-3.8,3.8c0,2.1,1.7,3.8,3.8,3.8h15.1c2.1,0,3.8-1.7,3.8-3.8
		c0-2.1-1.7-3.8-3.8-3.8H114.2z M114.2,135.2"/>
	<linearGradient id="SVGID_15_" gradientUnits="userSpaceOnUse" x1="154.1566" y1="75.178" x2="215.5817" y2="181.5694">
		<stop  offset="0" style="stop-color:#FF6167;stop-opacity:0.8"/>
		<stop  offset="0.1381" style="stop-color:#FB6067;stop-opacity:0.8249"/>
		<stop  offset="0.2696" style="stop-color:#F05C67;stop-opacity:0.8485"/>
		<stop  offset="0.3986" style="stop-color:#DC5666;stop-opacity:0.8717"/>
		<stop  offset="0.526" style="stop-color:#C14E65;stop-opacity:0.8947"/>
		<stop  offset="0.6522" style="stop-color:#9F4365;stop-opacity:0.9174"/>
		<stop  offset="0.7776" style="stop-color:#743663;stop-opacity:0.94"/>
		<stop  offset="0.9" style="stop-color:#422662;stop-opacity:0.962"/>
		<stop  offset="1" style="stop-color:#141861;stop-opacity:0.98"/>
	</linearGradient>
	<path class="st14" d="M103.2,112.8H215c-1.4,8.1-3.8,15.5-7,22.4h-63.5c-2.1,0-3.8,1.7-3.8,3.8c0,2.1,1.7,3.8,3.8,3.8h59.6
		c-4.6,7.9-10.4,15.3-17.2,22.4h-46.3c-2.1,0-3.8,1.7-3.8,3.8c0,2.1,1.7,3.8,3.8,3.8h38.6c-4.9,4.6-10.1,9.1-15.8,13.6
		c-1.6,1.3-1.9,3.7-0.6,5.3c1.3,1.6,3.7,1.9,5.3,0.6c16.8-13.6,34.4-29.4,45.2-51.2c0.2-0.3,0.3-0.6,0.5-0.9c4.4-9,7.6-19,9.2-30.4
		c0-0.2,0.1-0.4,0.1-0.6c0.5-3.7,0.8-7.6,0.9-11.6h7.6c-0.7,25-8.6,46.8-24,66.6c-7.9,10.1-18,20.2-32,31.7
		c-1.6,1.3-1.8,3.7-0.5,5.3c0.7,0.9,1.8,1.4,2.9,1.4c0.8,0,1.7-0.3,2.4-0.9c14.4-11.8,24.9-22.3,33.1-32.8
		c17.2-22.2,25.6-46.7,25.6-75c0-2.1-1.7-3.8-3.8-3.8h-15.1c-2.1,0-3.8,1.7-3.8,3.8c0,3.9-0.2,7.7-0.5,11.3H103.2
		c-2.1,0-3.8,1.7-3.8,3.8C99.4,111.1,101.1,112.8,103.2,112.8L103.2,112.8z M103.2,112.8"/>
	<linearGradient id="SVGID_16_" gradientUnits="userSpaceOnUse" x1="157.8808" y1="289.4643" x2="179.3734" y2="326.6904">
		<stop  offset="0" style="stop-color:#FF6167;stop-opacity:0.8"/>
		<stop  offset="0.1381" style="stop-color:#FB6067;stop-opacity:0.8249"/>
		<stop  offset="0.2696" style="stop-color:#F05C67;stop-opacity:0.8485"/>
		<stop  offset="0.3986" style="stop-color:#DC5666;stop-opacity:0.8717"/>
		<stop  offset="0.526" style="stop-color:#C14E65;stop-opacity:0.8947"/>
		<stop  offset="0.6522" style="stop-color:#9F4365;stop-opacity:0.9174"/>
		<stop  offset="0.7776" style="stop-color:#743663;stop-opacity:0.94"/>
		<stop  offset="0.9" style="stop-color:#422662;stop-opacity:0.962"/>
		<stop  offset="1" style="stop-color:#141861;stop-opacity:0.98"/>
	</linearGradient>
	<path class="st15" d="M204.1,304.3h-70.8c-2.1,0-3.8,1.7-3.8,3.8s1.7,3.8,3.8,3.8h70.8c2.1,0,3.8-1.7,3.8-3.8
		S206.1,304.3,204.1,304.3L204.1,304.3z M204.1,304.3"/>
</g>
<g>
	<linearGradient id="SVGID_17_" gradientUnits="userSpaceOnUse" x1="260.2741" y1="66.072" x2="305.7153" y2="144.7785">
		<stop  offset="0" style="stop-color:#FF6167;stop-opacity:0.8"/>
		<stop  offset="0.1381" style="stop-color:#FB6067;stop-opacity:0.8249"/>
		<stop  offset="0.2696" style="stop-color:#F05C67;stop-opacity:0.8485"/>
		<stop  offset="0.3986" style="stop-color:#DC5666;stop-opacity:0.8717"/>
		<stop  offset="0.526" style="stop-color:#C14E65;stop-opacity:0.8947"/>
		<stop  offset="0.6522" style="stop-color:#9F4365;stop-opacity:0.9174"/>
		<stop  offset="0.7776" style="stop-color:#743663;stop-opacity:0.94"/>
		<stop  offset="0.9" style="stop-color:#422662;stop-opacity:0.962"/>
		<stop  offset="1" style="stop-color:#141861;stop-opacity:0.98"/>
	</linearGradient>
	<path class="st16" d="M323.5,133.7c0-8.9-2.7-16.6-8.1-23.6c-4.7-6-10.8-10.8-16.8-15.3c-11.3-8.7-22.1-17-22.1-33.3
		c0-0.7-0.5-1.2-1.2-1.2h-4.8c-0.7,0-1.2,0.5-1.2,1.2c0,8.9,2.6,16.7,8.1,23.7c3.7,4.8,8.4,8.8,13.1,12.5
		c-4.4,3.5-9.3,7.6-13.1,12.5c-5.4,7-8.1,14.7-8.1,23.7c0,0.7,0.5,1.2,1.2,1.2h4.8c0.7,0,1.2-0.5,1.2-1.2c0-1.2,0.1-2.4,0.2-3.6h8.5
		c0.7,0,1.2-0.5,1.2-1.2s-0.5-1.2-1.2-1.2h-8.1c0.5-2.6,1.2-4.9,2.2-7.1h29.5c0.7,0,1.2-0.5,1.2-1.2c0-0.7-0.5-1.2-1.2-1.2h-28.3
		c1.5-2.5,3.3-4.9,5.4-7.1h14.6c0.7,0,1.2-0.5,1.2-1.2c0-0.7-0.5-1.2-1.2-1.2h-12.2c2.4-2.3,5.2-4.5,8.1-6.8
		c10.5,8.2,19.9,16.4,19.9,31.7c0,0.7,0.5,1.2,1.2,1.2h4.8C323,135,323.5,134.5,323.5,133.7C323.5,133.8,323.5,133.8,323.5,133.7
		L323.5,133.7z M284.7,109.2c-0.1,0-0.1,0.1-0.1,0.1c-1.3,1.4-2.5,2.8-3.7,4.3c-1.3,1.7-2.4,3.5-3.3,5.3c0,0.1-0.1,0.2-0.1,0.2
		c-1.5,3-2.4,6.2-2.9,9.6c0,0,0,0.1,0,0.1c-0.2,1.2-0.3,2.4-0.3,3.7h-2.4c0.2-7.9,2.7-14.8,7.6-21c3.8-4.9,8.7-9,13.2-12.5
		c0.6,0.4,1.1,0.9,1.7,1.3c0.1,0.1,0.2,0.1,0.2,0.2C291,103.4,287.6,106.2,284.7,109.2L284.7,109.2z M318.7,132.6
		c-0.2-7.4-2.6-13.8-7.2-19.7c-4.3-5.5-9.9-9.8-15.8-14.4c-5.8-4.5-11.8-9.1-16.3-14.9c-4.9-6.2-7.3-13.1-7.6-21h2.4
		c0.2,7.4,2.6,13.8,7.2,19.7c4.3,5.5,9.9,9.8,15.8,14.4c5.8,4.5,11.8,9.1,16.3,14.9c4.9,6.2,7.3,13.1,7.6,21H318.7z M318.7,132.6"/>
	<linearGradient id="SVGID_18_" gradientUnits="userSpaceOnUse" x1="285.2385" y1="73.6389" x2="287.6242" y2="77.771">
		<stop  offset="0" style="stop-color:#FF6167;stop-opacity:0.8"/>
		<stop  offset="0.1381" style="stop-color:#FB6067;stop-opacity:0.8249"/>
		<stop  offset="0.2696" style="stop-color:#F05C67;stop-opacity:0.8485"/>
		<stop  offset="0.3986" style="stop-color:#DC5666;stop-opacity:0.8717"/>
		<stop  offset="0.526" style="stop-color:#C14E65;stop-opacity:0.8947"/>
		<stop  offset="0.6522" style="stop-color:#9F4365;stop-opacity:0.9174"/>
		<stop  offset="0.7776" style="stop-color:#743663;stop-opacity:0.94"/>
		<stop  offset="0.9" style="stop-color:#422662;stop-opacity:0.962"/>
		<stop  offset="1" style="stop-color:#141861;stop-opacity:0.98"/>
	</linearGradient>
	<path class="st17" d="M284,74.5c-0.7,0-1.2,0.5-1.2,1.2c0,0.7,0.5,1.2,1.2,1.2h4.8c0.7,0,1.2-0.5,1.2-1.2c0-0.7-0.5-1.2-1.2-1.2
		H284z M284,74.5"/>
	<linearGradient id="SVGID_19_" gradientUnits="userSpaceOnUse" x1="296.6379" y1="55.5719" x2="316.0189" y2="89.1409">
		<stop  offset="0" style="stop-color:#FF6167;stop-opacity:0.8"/>
		<stop  offset="0.1381" style="stop-color:#FB6067;stop-opacity:0.8249"/>
		<stop  offset="0.2696" style="stop-color:#F05C67;stop-opacity:0.8485"/>
		<stop  offset="0.3986" style="stop-color:#DC5666;stop-opacity:0.8717"/>
		<stop  offset="0.526" style="stop-color:#C14E65;stop-opacity:0.8947"/>
		<stop  offset="0.6522" style="stop-color:#9F4365;stop-opacity:0.9174"/>
		<stop  offset="0.7776" style="stop-color:#743663;stop-opacity:0.94"/>
		<stop  offset="0.9" style="stop-color:#422662;stop-opacity:0.962"/>
		<stop  offset="1" style="stop-color:#141861;stop-opacity:0.98"/>
	</linearGradient>
	<path class="st18" d="M280.5,67.4h35.3c-0.4,2.6-1.2,4.9-2.2,7.1h-20c-0.7,0-1.2,0.5-1.2,1.2c0,0.7,0.5,1.2,1.2,1.2h18.8
		c-1.4,2.5-3.3,4.8-5.4,7.1h-14.6c-0.7,0-1.2,0.5-1.2,1.2c0,0.7,0.5,1.2,1.2,1.2h12.2c-1.5,1.4-3.2,2.9-5,4.3
		c-0.5,0.4-0.6,1.2-0.2,1.7c0.4,0.5,1.2,0.6,1.7,0.2c5.3-4.3,10.8-9.3,14.3-16.1c0.1-0.1,0.1-0.2,0.1-0.3c1.4-2.8,2.4-6,2.9-9.6
		c0-0.1,0-0.1,0-0.2c0.2-1.2,0.3-2.4,0.3-3.6h2.4c-0.2,7.9-2.7,14.8-7.6,21c-2.5,3.2-5.7,6.4-10.1,10c-0.5,0.4-0.6,1.2-0.2,1.7
		c0.2,0.3,0.6,0.4,0.9,0.4c0.3,0,0.5-0.1,0.8-0.3c4.5-3.7,7.9-7,10.5-10.4c5.4-7,8.1-14.7,8.1-23.7c0-0.7-0.5-1.2-1.2-1.2h-4.8
		c-0.7,0-1.2,0.5-1.2,1.2c0,1.2-0.1,2.4-0.2,3.6h-35.6c-0.7,0-1.2,0.5-1.2,1.2C279.4,66.9,279.9,67.4,280.5,67.4L280.5,67.4z
		 M280.5,67.4"/>
	<linearGradient id="SVGID_20_" gradientUnits="userSpaceOnUse" x1="297.813" y1="123.1843" x2="304.5943" y2="134.93">
		<stop  offset="0" style="stop-color:#FF6167;stop-opacity:0.8"/>
		<stop  offset="0.1381" style="stop-color:#FB6067;stop-opacity:0.8249"/>
		<stop  offset="0.2696" style="stop-color:#F05C67;stop-opacity:0.8485"/>
		<stop  offset="0.3986" style="stop-color:#DC5666;stop-opacity:0.8717"/>
		<stop  offset="0.526" style="stop-color:#C14E65;stop-opacity:0.8947"/>
		<stop  offset="0.6522" style="stop-color:#9F4365;stop-opacity:0.9174"/>
		<stop  offset="0.7776" style="stop-color:#743663;stop-opacity:0.94"/>
		<stop  offset="0.9" style="stop-color:#422662;stop-opacity:0.962"/>
		<stop  offset="1" style="stop-color:#141861;stop-opacity:0.98"/>
	</linearGradient>
	<path class="st19" d="M312.4,127.9H290c-0.7,0-1.2,0.5-1.2,1.2s0.5,1.2,1.2,1.2h22.4c0.7,0,1.2-0.5,1.2-1.2S313,127.9,312.4,127.9
		L312.4,127.9z M312.4,127.9"/>
</g>
</svg>
