<?xml version="1.0" encoding="utf-8"?>
<!-- Generator: Adobe Illustrator 22.0.1, SVG Export Plug-In . SVG Version: 6.00 Build 0)  -->
<svg version="1.1" id="Ebene_1" xmlns="http://www.w3.org/2000/svg"  x="0px" y="0px"
	 viewBox="0 0 385.8 388" style="enable-background:new 0 0 385.8 388;" xml:space="preserve">
<style type="text/css">
	.st0{fill:url(#SVGID_1_);}
	.st1{fill:url(#SVGID_2_);}
	.st2{fill:url(#SVGID_3_);}
	.st3{fill:url(#SVGID_4_);}
</style>
<linearGradient id="SVGID_1_" gradientUnits="userSpaceOnUse" x1="153.669" y1="52.6773" x2="220.7498" y2="119.7581">
	<stop  offset="0" style="stop-color:#FF6167;stop-opacity:0.8"/>
	<stop  offset="0.1381" style="stop-color:#FB6067;stop-opacity:0.8249"/>
	<stop  offset="0.2696" style="stop-color:#F05C67;stop-opacity:0.8485"/>
	<stop  offset="0.3986" style="stop-color:#DC5666;stop-opacity:0.8717"/>
	<stop  offset="0.526" style="stop-color:#C14E65;stop-opacity:0.8947"/>
	<stop  offset="0.6522" style="stop-color:#9F4365;stop-opacity:0.9174"/>
	<stop  offset="0.7776" style="stop-color:#743663;stop-opacity:0.94"/>
	<stop  offset="0.9" style="stop-color:#422662;stop-opacity:0.962"/>
	<stop  offset="1" style="stop-color:#141861;stop-opacity:0.98"/>
</linearGradient>
<path class="st0" d="M230.8,68c-16.2-38.7-71.1-38.8-87.3,0c-4.7,11.4-4.9,24.4-0.1,36.2c0,0.1,0,0.1,0.1,0.2
	c16,38.3,71,39.1,87.3,0C235.6,93.1,235.8,79.9,230.8,68L230.8,68z M168.6,50c-4,5.6-6.7,12.4-8.2,19.1c-3.1-0.5-6.1-1.2-9.1-1.9
	C155.1,59.8,161.2,53.8,168.6,50L168.6,50z M148.6,73.2c3.5,0.9,7,1.6,10.6,2.3c-1,7-1,14.3,0,21.5c-3.6,0.6-7.1,1.4-10.6,2.3
	C145.7,90.8,145.7,81.6,148.6,73.2L148.6,73.2z M151.2,105.3c3-0.7,6-1.4,9.1-1.9c1.6,6.7,4.2,13.5,8.2,19.1
	C161.2,118.7,155.1,112.7,151.2,105.3L151.2,105.3z M183.9,126.5c-9.2-2.7-14.8-14.8-17.1-24.1c5.6-0.7,11.3-1.1,17.1-1.3V126.5z
	 M183.9,94.6c-6.2,0.1-12.3,0.6-18.3,1.4c-0.9-6.2-0.9-12.9,0-19.5c6,0.8,12.1,1.2,18.3,1.4V94.6z M183.9,71.3
	c-5.8-0.1-11.5-0.5-17.1-1.3c2.3-9.5,7.8-21.4,17.1-24.1V71.3z M223.2,67.1c-3,0.7-6,1.4-9.1,1.9c-1.6-6.8-4.2-13.5-8.2-19.1
	C213.2,53.8,219.3,59.8,223.2,67.1L223.2,67.1z M190.5,45.9c7.6,2.1,14,11.6,17.1,24.1c-5.6,0.7-11.3,1.1-17.1,1.3V45.9z
	 M190.5,77.9c6.2-0.1,12.3-0.6,18.3-1.4c0.9,6.2,0.9,12.8,0,19.5c-6-0.8-12.1-1.2-18.3-1.4V77.9z M190.5,126.5v-25.4
	c5.8,0.1,11.5,0.5,17.1,1.3C204.5,114.9,198,124.4,190.5,126.5L190.5,126.5z M205.8,122.5c4-5.6,6.7-12.4,8.2-19.1
	c3.1,0.5,6.1,1.2,9.1,1.9C219.3,112.7,213.2,118.7,205.8,122.5L205.8,122.5z M225.8,99.2c-3.5-0.9-7-1.6-10.6-2.3c1-7,1-14.3,0-21.5
	c3.6-0.6,7.1-1.4,10.6-2.3C228.7,81.6,228.7,90.8,225.8,99.2L225.8,99.2z M225.8,99.2"/>
<linearGradient id="SVGID_2_" gradientUnits="userSpaceOnUse" x1="119.8945" y1="201.0751" x2="149.4736" y2="230.6542">
	<stop  offset="0" style="stop-color:#FF6167;stop-opacity:0.8"/>
	<stop  offset="0.1381" style="stop-color:#FB6067;stop-opacity:0.8249"/>
	<stop  offset="0.2696" style="stop-color:#F05C67;stop-opacity:0.8485"/>
	<stop  offset="0.3986" style="stop-color:#DC5666;stop-opacity:0.8717"/>
	<stop  offset="0.526" style="stop-color:#C14E65;stop-opacity:0.8947"/>
	<stop  offset="0.6522" style="stop-color:#9F4365;stop-opacity:0.9174"/>
	<stop  offset="0.7776" style="stop-color:#743663;stop-opacity:0.94"/>
	<stop  offset="0.9" style="stop-color:#422662;stop-opacity:0.962"/>
	<stop  offset="1" style="stop-color:#141861;stop-opacity:0.98"/>
</linearGradient>
<path class="st1" d="M134.7,194.9c-11.5,0-20.9,9.4-20.9,20.9c0,11.5,9.4,20.9,20.9,20.9c11.5,0,20.9-9.4,20.9-20.9
	C155.6,204.3,146.2,194.9,134.7,194.9L134.7,194.9z M134.7,230.3c-7.9,0-14.4-6.5-14.4-14.4c0-7.9,6.5-14.4,14.4-14.4
	c7.9,0,14.4,6.5,14.4,14.4C149.1,223.8,142.6,230.3,134.7,230.3L134.7,230.3z M134.7,230.3"/>
<linearGradient id="SVGID_3_" gradientUnits="userSpaceOnUse" x1="224.3271" y1="201.0752" x2="253.9061" y2="230.6542">
	<stop  offset="0" style="stop-color:#FF6167;stop-opacity:0.8"/>
	<stop  offset="0.1381" style="stop-color:#FB6067;stop-opacity:0.8249"/>
	<stop  offset="0.2696" style="stop-color:#F05C67;stop-opacity:0.8485"/>
	<stop  offset="0.3986" style="stop-color:#DC5666;stop-opacity:0.8717"/>
	<stop  offset="0.526" style="stop-color:#C14E65;stop-opacity:0.8947"/>
	<stop  offset="0.6522" style="stop-color:#9F4365;stop-opacity:0.9174"/>
	<stop  offset="0.7776" style="stop-color:#743663;stop-opacity:0.94"/>
	<stop  offset="0.9" style="stop-color:#422662;stop-opacity:0.962"/>
	<stop  offset="1" style="stop-color:#141861;stop-opacity:0.98"/>
</linearGradient>
<path class="st2" d="M239.1,194.9c-11.5,0-20.9,9.4-20.9,20.9c0,11.5,9.4,20.9,20.9,20.9c11.5,0,20.9-9.4,20.9-20.9
	C260,204.3,250.7,194.9,239.1,194.9L239.1,194.9z M239.1,230.3c-7.9,0-14.4-6.5-14.4-14.4c0-7.9,6.5-14.4,14.4-14.4
	c7.9,0,14.4,6.5,14.4,14.4C253.5,223.8,247.1,230.3,239.1,230.3L239.1,230.3z M239.1,230.3"/>
<linearGradient id="SVGID_4_" gradientUnits="userSpaceOnUse" x1="126.1742" y1="219.2954" x2="247.6255" y2="340.7467">
	<stop  offset="0" style="stop-color:#FF6167;stop-opacity:0.8"/>
	<stop  offset="0.1381" style="stop-color:#FB6067;stop-opacity:0.8249"/>
	<stop  offset="0.2696" style="stop-color:#F05C67;stop-opacity:0.8485"/>
	<stop  offset="0.3986" style="stop-color:#DC5666;stop-opacity:0.8717"/>
	<stop  offset="0.526" style="stop-color:#C14E65;stop-opacity:0.8947"/>
	<stop  offset="0.6522" style="stop-color:#9F4365;stop-opacity:0.9174"/>
	<stop  offset="0.7776" style="stop-color:#743663;stop-opacity:0.94"/>
	<stop  offset="0.9" style="stop-color:#422662;stop-opacity:0.962"/>
	<stop  offset="1" style="stop-color:#141861;stop-opacity:0.98"/>
</linearGradient>
<path class="st3" d="M273.9,273.3c1.8,0,3.3-1.5,3.3-3.3v-14.5c0-11.6-8.9-14.3-12.4-14.3c0,0,0,0-0.1,0c-0.1,0-49.5,0-49.6,0
	c-1.2,0-5.2,0.5-8.1,4.6l-20.1,29.1l-20.1-29.1c-2.9-4.2-7-4.6-8.1-4.6c0,0-0.1,0-0.1,0c0,0-49.5,0-49.5,0
	c-3.4,0.1-12.4,2.7-12.4,14.3v46c0,4.7,3.8,8.5,8.5,8.5c3.4,0,3.9,0.1,5.1-0.2v13.7c0,1.8,1.5,3.3,3.3,3.3h13.1
	c1.8,0,3.3-1.5,3.3-3.3c0-1.8-1.5-3.3-3.3-3.3h-9.8v-61.7c0-1.8-1.5-3.3-3.3-3.3c-1.8,0-3.3,1.5-3.3,3.3v42.9c0,1.1-0.9,2-2,2h-3.2
	c-1.1,0-2-0.9-2-2v-46c0-5.2,2.7-7.6,5.9-7.8h49.4c0.3,0,1.8,0.2,2.9,1.8l21.5,31.1c-0.2,0.2-4.2,6-4.3,6.2l-20.1-29.1
	c-1.8-2.6-6-1.3-6,1.9v60.5h-10.6c-1.8,0-3.3,1.5-3.3,3.3c0,1.8,1.5,3.3,3.3,3.3h13.9c1.8,0,3.3-1.5,3.3-3.3v-53.3l19.3,27.9
	c4,5.9,13,5.8,17,0l19.3-27.9v53.3c0,1.8,1.5,3.3,3.3,3.3h42.3c1.8,0,3.3-1.5,3.3-3.3v-13.7c1.2,0.3,1.8,0.2,5.1,0.2
	c4.7,0,8.5-3.8,8.5-8.5v-16.2c0-1.8-1.5-3.3-3.3-3.3c-1.8,0-3.3,1.5-3.3,3.3v16.2c0,1.1-0.9,2-2,2h-3.2c-1.1,0-2-0.9-2-2v-42.9
	c0-1.8-1.5-3.3-3.3-3.3c-1.8,0-3.3,1.5-3.3,3.3v61.7h-35.7v-60.5c0-3.2-4.1-4.5-6-1.9c-27.1,39.2-25.5,37.4-27.2,37.9
	c-3.2,0.9-5.8-2.7-3.9-5.4l28.2-40.8c1.1-1.6,2.6-1.8,2.9-1.8c53.3,0,50.2-0.4,52.5,1.1c1.9,1.2,2.8,3.5,2.8,6.7V270
	C270.6,271.8,272.1,273.3,273.9,273.3L273.9,273.3z M273.9,273.3"/>
</svg>
