<?xml version="1.0" encoding="utf-8"?>
<!-- Generator: Adobe Illustrator 22.0.1, SVG Export Plug-In . SVG Version: 6.00 Build 0)  -->
<svg version="1.1" id="Ebene_1" xmlns="http://www.w3.org/2000/svg"  x="0px" y="0px"
	 viewBox="0 0 385.8 388" style="enable-background:new 0 0 385.8 388;" xml:space="preserve">
<style type="text/css">
	.st0{fill:url(#SVGID_1_);}
	.st1{fill:url(#SVGID_2_);}
	.st2{fill:url(#SVGID_3_);}
	.st3{fill:url(#SVGID_4_);}
	.st4{fill:url(#SVGID_5_);}
</style>
<g>
	<linearGradient id="SVGID_1_" gradientUnits="userSpaceOnUse" x1="136.6334" y1="33.5495" x2="238.9313" y2="210.7347">
		<stop  offset="0" style="stop-color:#FF6167;stop-opacity:0.8"/>
		<stop  offset="0.1381" style="stop-color:#FB6067;stop-opacity:0.8249"/>
		<stop  offset="0.2696" style="stop-color:#F05C67;stop-opacity:0.8485"/>
		<stop  offset="0.3986" style="stop-color:#DC5666;stop-opacity:0.8717"/>
		<stop  offset="0.526" style="stop-color:#C14E65;stop-opacity:0.8947"/>
		<stop  offset="0.6522" style="stop-color:#9F4365;stop-opacity:0.9174"/>
		<stop  offset="0.7776" style="stop-color:#743663;stop-opacity:0.94"/>
		<stop  offset="0.9" style="stop-color:#422662;stop-opacity:0.962"/>
		<stop  offset="1" style="stop-color:#141861;stop-opacity:0.98"/>
	</linearGradient>
	<path class="st0" d="M45.5,108.6v19.7c0,2.7,2.2,4.9,4.9,4.9H52V161c0,2.7,2.2,4.9,4.9,4.9h258.4c2.7,0,4.9-2.2,4.9-4.9v-27.8h1.6
		c2.7,0,4.9-2.2,4.9-4.9V89c0-2.7-2.2-4.9-4.9-4.9S317,86.3,317,89v13.7L191.1,78.4V62.8c0-2.7-2.2-4.9-4.9-4.9
		c-2.7,0-4.9,2.2-4.9,4.9v15.6L55.3,102.7V89c0-2.7-2.2-4.9-4.9-4.9c-2.7,0-4.9,2.2-4.9,4.9V108.6z M310.4,156H61.9v-22.9h248.6V156
		z M186.1,87.5L317,112.7v10.7H55.3v-10.7L186.1,87.5z M186.1,87.5"/>
	<linearGradient id="SVGID_2_" gradientUnits="userSpaceOnUse" x1="112.1149" y1="146.8404" x2="247.0959" y2="380.6344">
		<stop  offset="0" style="stop-color:#FF6167;stop-opacity:0.8"/>
		<stop  offset="0.1381" style="stop-color:#FB6067;stop-opacity:0.8249"/>
		<stop  offset="0.2696" style="stop-color:#F05C67;stop-opacity:0.8485"/>
		<stop  offset="0.3986" style="stop-color:#DC5666;stop-opacity:0.8717"/>
		<stop  offset="0.526" style="stop-color:#C14E65;stop-opacity:0.8947"/>
		<stop  offset="0.6522" style="stop-color:#9F4365;stop-opacity:0.9174"/>
		<stop  offset="0.7776" style="stop-color:#743663;stop-opacity:0.94"/>
		<stop  offset="0.9" style="stop-color:#422662;stop-opacity:0.962"/>
		<stop  offset="1" style="stop-color:#141861;stop-opacity:0.98"/>
	</linearGradient>
	<path class="st1" d="M335,299.7h-8.2V285c0-2.7-2.2-4.9-4.9-4.9h-14.7v-94.6h1.6c2.7,0,4.9-2.2,4.9-4.9c0-2.7-2.2-4.9-4.9-4.9
		h-32.7c-2.7,0-4.9,2.2-4.9,4.9c0,2.7,2.2,4.9,4.9,4.9h1.6v94.6H254v-94.6h1.6c2.7,0,4.9-2.2,4.9-4.9c0-2.7-2.2-4.9-4.9-4.9h-32.7
		c-2.7,0-4.9,2.2-4.9,4.9c0,2.7,2.2,4.9,4.9,4.9h1.6v94.6h-23.7v-94.6h1.6c2.7,0,4.9-2.2,4.9-4.9c0-2.7-2.2-4.9-4.9-4.9h-32.7
		c-2.7,0-4.9,2.2-4.9,4.9c0,2.7,2.2,4.9,4.9,4.9h1.6v94.6h-23.7v-94.6h1.6c2.7,0,4.9-2.2,4.9-4.9c0-2.7-2.2-4.9-4.9-4.9h-32.7
		c-2.7,0-4.9,2.2-4.9,4.9c0,2.7,2.2,4.9,4.9,4.9h1.6v94.6H94.6v-94.6h1.6c2.7,0,4.9-2.2,4.9-4.9c0-2.7-2.2-4.9-4.9-4.9H63.5
		c-2.7,0-4.9,2.2-4.9,4.9c0,2.7,2.2,4.9,4.9,4.9h1.6v94.6H50.4c-2.7,0-4.9,2.2-4.9,4.9v14.7h-8.2c-2.7,0-4.9,2.2-4.9,4.9v19.6
		c0,2.7,2.2,4.9,4.9,4.9H335c2.7,0,4.9-2.2,4.9-4.9v-19.6C339.9,301.9,337.7,299.7,335,299.7L335,299.7z M287.5,185.5h9.8v94.6h-9.8
		V185.5z M234.4,185.5h9.8v94.6h-9.8V185.5z M181.2,185.5h9.8v94.6h-9.8V185.5z M128.1,185.5h9.8v94.6h-9.8V185.5z M74.9,185.5h9.8
		v94.6h-9.8V185.5z M330.1,319.3H42.2v-9.8h47.4c2.7,0,4.9-2.2,4.9-4.9c0-2.7-2.2-4.9-4.9-4.9H55.3v-9.8H317v9.8H109.3
		c-2.7,0-4.9,2.2-4.9,4.9c0,2.7,2.2,4.9,4.9,4.9h220.8V319.3z M330.1,319.3"/>
</g>
<g>
	<path d="M272.2-118.1c-0.1-28.2-8.4-52.7-25.6-74.8c-14.8-19.1-34.3-34.1-53.1-48.6c-35.9-27.7-69.9-53.9-69.9-105.7
		c0-2.1-1.7-3.8-3.8-3.8h-15.1c-2.1,0-3.8,1.7-3.8,3.8c0,28.3,8.4,52.9,25.6,75c11.8,15.2,26.5,27.8,41.6,39.6
		c-14.1,11.1-29.4,24-41.6,39.6c-17.2,22.2-25.6,46.7-25.6,75c0,2.1,1.7,3.8,3.8,3.8h15.1c2.1,0,3.8-1.7,3.8-3.8
		c0-3.9,0.2-7.7,0.6-11.3h26.9c2.1,0,3.8-1.7,3.8-3.8s-1.7-3.8-3.8-3.8h-25.8c1.5-8.1,3.9-15.5,7.1-22.4H226c2.1,0,3.8-1.7,3.8-3.8
		c0-2.1-1.7-3.8-3.8-3.8h-89.7c4.7-8,10.5-15.4,17.1-22.4h46.1c2.1,0,3.8-1.7,3.8-3.8c0-2.1-1.7-3.8-3.8-3.8h-38.5
		c7.7-7.3,16.4-14.3,25.6-21.4c33.3,25.9,63,51.9,63,100.3c0,2.1,1.7,3.8,3.8,3.8h15.1c2.1,0,3.8-1.7,3.8-3.8
		C272.3-117.9,272.3-118,272.2-118.1L272.2-118.1z M149.2-195.8c-0.2,0.1-0.3,0.3-0.5,0.5c-4.2,4.3-8.1,8.8-11.6,13.5
		c-4.1,5.4-7.5,11-10.4,16.8c-0.1,0.2-0.3,0.5-0.4,0.7c-4.7,9.6-7.7,19.7-9.2,30.5c0,0.2,0,0.3-0.1,0.5c-0.5,3.8-0.8,7.7-0.9,11.6
		h-7.6c0.7-25,8.6-46.8,24-66.6c12-15.5,27.7-28.4,41.7-39.5c1.8,1.4,3.6,2.8,5.4,4.2c0.3,0.2,0.5,0.4,0.8,0.6
		C169.3-214.2,158.6-205.4,149.2-195.8L149.2-195.8z M257.1-121.6c-0.7-23.4-8.2-43.8-22.7-62.4c-13.5-17.3-31.3-31-50.1-45.5
		c-18.5-14.2-37.5-29-51.8-47.3c-15.4-19.8-23.2-41.6-24-66.6h7.6c0.7,23.4,8.2,43.8,22.7,62.4c13.5,17.3,31.3,31,50.1,45.5
		c18.5,14.2,37.5,29,51.8,47.3c15.4,19.8,23.2,41.6,24,66.6H257.1z M257.1-121.6"/>
	<linearGradient id="SVGID_3_" gradientUnits="userSpaceOnUse" x1="154.8082" y1="-305.7936" x2="154.8082" y2="-298.2333">
		<stop  offset="0" style="stop-color:#FF6167;stop-opacity:0.8"/>
		<stop  offset="0.1381" style="stop-color:#FB6067;stop-opacity:0.8249"/>
		<stop  offset="0.2696" style="stop-color:#F05C67;stop-opacity:0.8485"/>
		<stop  offset="0.3986" style="stop-color:#DC5666;stop-opacity:0.8717"/>
		<stop  offset="0.526" style="stop-color:#C14E65;stop-opacity:0.8947"/>
		<stop  offset="0.6522" style="stop-color:#9F4365;stop-opacity:0.9174"/>
		<stop  offset="0.7776" style="stop-color:#743663;stop-opacity:0.94"/>
		<stop  offset="0.9" style="stop-color:#422662;stop-opacity:0.962"/>
		<stop  offset="1" style="stop-color:#141861;stop-opacity:0.98"/>
	</linearGradient>
	<path class="st2" d="M147.2-305.8c-2.1,0-3.8,1.7-3.8,3.8c0,2.1,1.7,3.8,3.8,3.8h15.1c2.1,0,3.8-1.7,3.8-3.8c0-2.1-1.7-3.8-3.8-3.8
		H147.2z M147.2-305.8"/>
	<linearGradient id="SVGID_4_" gradientUnits="userSpaceOnUse" x1="202.3129" y1="-350.9117" x2="202.3129" y2="-238.3783">
		<stop  offset="0" style="stop-color:#FF6167;stop-opacity:0.8"/>
		<stop  offset="0.1381" style="stop-color:#FB6067;stop-opacity:0.8249"/>
		<stop  offset="0.2696" style="stop-color:#F05C67;stop-opacity:0.8485"/>
		<stop  offset="0.3986" style="stop-color:#DC5666;stop-opacity:0.8717"/>
		<stop  offset="0.526" style="stop-color:#C14E65;stop-opacity:0.8947"/>
		<stop  offset="0.6522" style="stop-color:#9F4365;stop-opacity:0.9174"/>
		<stop  offset="0.7776" style="stop-color:#743663;stop-opacity:0.94"/>
		<stop  offset="0.9" style="stop-color:#422662;stop-opacity:0.962"/>
		<stop  offset="1" style="stop-color:#141861;stop-opacity:0.98"/>
	</linearGradient>
	<path class="st3" d="M136.2-328.2H248c-1.4,8.1-3.8,15.5-7,22.4h-63.5c-2.1,0-3.8,1.7-3.8,3.8c0,2.1,1.7,3.8,3.8,3.8h59.6
		c-4.6,7.9-10.4,15.3-17.2,22.4h-46.3c-2.1,0-3.8,1.7-3.8,3.8c0,2.1,1.7,3.8,3.8,3.8h38.6c-4.9,4.6-10.1,9.1-15.8,13.6
		c-1.6,1.3-1.9,3.7-0.6,5.3c1.3,1.6,3.7,1.9,5.3,0.6c16.8-13.6,34.4-29.4,45.2-51.2c0.2-0.3,0.3-0.6,0.5-0.9c4.4-9,7.6-19,9.2-30.4
		c0-0.2,0.1-0.4,0.1-0.6c0.5-3.7,0.8-7.6,0.9-11.6h7.6c-0.7,25-8.6,46.8-24,66.6c-7.9,10.1-18,20.2-32,31.7
		c-1.6,1.3-1.8,3.7-0.5,5.3c0.7,0.9,1.8,1.4,2.9,1.4c0.8,0,1.7-0.3,2.4-0.9c14.4-11.8,24.9-22.3,33.1-32.8
		c17.2-22.2,25.6-46.7,25.6-75c0-2.1-1.7-3.8-3.8-3.8h-15.1c-2.1,0-3.8,1.7-3.8,3.8c0,3.9-0.2,7.7-0.5,11.3H136.2
		c-2.1,0-3.8,1.7-3.8,3.8C132.4-329.9,134.1-328.2,136.2-328.2L136.2-328.2z M136.2-328.2"/>
	<linearGradient id="SVGID_5_" gradientUnits="userSpaceOnUse" x1="201.627" y1="-136.7029" x2="201.627" y2="-129.1425">
		<stop  offset="0" style="stop-color:#FF6167;stop-opacity:0.8"/>
		<stop  offset="0.1381" style="stop-color:#FB6067;stop-opacity:0.8249"/>
		<stop  offset="0.2696" style="stop-color:#F05C67;stop-opacity:0.8485"/>
		<stop  offset="0.3986" style="stop-color:#DC5666;stop-opacity:0.8717"/>
		<stop  offset="0.526" style="stop-color:#C14E65;stop-opacity:0.8947"/>
		<stop  offset="0.6522" style="stop-color:#9F4365;stop-opacity:0.9174"/>
		<stop  offset="0.7776" style="stop-color:#743663;stop-opacity:0.94"/>
		<stop  offset="0.9" style="stop-color:#422662;stop-opacity:0.962"/>
		<stop  offset="1" style="stop-color:#141861;stop-opacity:0.98"/>
	</linearGradient>
	<path class="st4" d="M237.1-136.7h-70.8c-2.1,0-3.8,1.7-3.8,3.8s1.7,3.8,3.8,3.8h70.8c2.1,0,3.8-1.7,3.8-3.8
		S239.1-136.7,237.1-136.7L237.1-136.7z M237.1-136.7"/>
</g>
</svg>
