<?xml version="1.0" encoding="utf-8"?>
<!-- Generator: Adobe Illustrator 22.0.1, SVG Export Plug-In . SVG Version: 6.00 Build 0)  -->
<svg version="1.1" id="Ebene_1" xmlns="http://www.w3.org/2000/svg"  x="0px" y="0px"
	 viewBox="0 0 385.8 388" style="enable-background:new 0 0 385.8 388;" xml:space="preserve">
<style type="text/css">
	.st0{fill:url(#SVGID_1_);}
	.st1{fill:url(#SVGID_2_);}
	.st2{fill:url(#SVGID_3_);}
	.st3{fill:url(#SVGID_4_);}
	.st4{fill:url(#SVGID_5_);}
	.st5{fill:url(#SVGID_6_);}
	.st6{fill:url(#SVGID_7_);}
	.st7{fill:url(#SVGID_8_);}
</style>
<g>
	<linearGradient id="SVGID_1_" gradientUnits="userSpaceOnUse" x1="134.1124" y1="202.0819" x2="175.9902" y2="274.6164">
		<stop  offset="0" style="stop-color:#FF6167;stop-opacity:0.8"/>
		<stop  offset="0.1381" style="stop-color:#FB6067;stop-opacity:0.8249"/>
		<stop  offset="0.2696" style="stop-color:#F05C67;stop-opacity:0.8485"/>
		<stop  offset="0.3986" style="stop-color:#DC5666;stop-opacity:0.8717"/>
		<stop  offset="0.526" style="stop-color:#C14E65;stop-opacity:0.8947"/>
		<stop  offset="0.6522" style="stop-color:#9F4365;stop-opacity:0.9174"/>
		<stop  offset="0.7776" style="stop-color:#743663;stop-opacity:0.94"/>
		<stop  offset="0.9" style="stop-color:#422662;stop-opacity:0.962"/>
		<stop  offset="1" style="stop-color:#141861;stop-opacity:0.98"/>
	</linearGradient>
	<path class="st0" d="M141.2,200.7c-0.9-0.9-2.3-1.2-3.5-0.7c-1.2,0.5-2,1.7-2,2.9v56.6c0,1.8,1.4,3.2,3.2,3.2h56.6
		c1.3,0,2.5-0.8,2.9-2c0.5-1.2,0.2-2.6-0.7-3.5L141.2,200.7z M142.2,256.4v-45.7l45.7,45.7H142.2z M142.2,256.4"/>
	<linearGradient id="SVGID_2_" gradientUnits="userSpaceOnUse" x1="98.5674" y1="53.7415" x2="248.9506" y2="314.2127">
		<stop  offset="0" style="stop-color:#FF6167;stop-opacity:0.8"/>
		<stop  offset="0.1381" style="stop-color:#FB6067;stop-opacity:0.8249"/>
		<stop  offset="0.2696" style="stop-color:#F05C67;stop-opacity:0.8485"/>
		<stop  offset="0.3986" style="stop-color:#DC5666;stop-opacity:0.8717"/>
		<stop  offset="0.526" style="stop-color:#C14E65;stop-opacity:0.8947"/>
		<stop  offset="0.6522" style="stop-color:#9F4365;stop-opacity:0.9174"/>
		<stop  offset="0.7776" style="stop-color:#743663;stop-opacity:0.94"/>
		<stop  offset="0.9" style="stop-color:#422662;stop-opacity:0.962"/>
		<stop  offset="1" style="stop-color:#141861;stop-opacity:0.98"/>
	</linearGradient>
	<path class="st1" d="M302.3,87.6L285.7,71c-1.2-1.2-3.3-1.2-4.5,0L185.3,167c-0.3,0.3-0.5,0.7-0.7,1.1l-10.5,26.4l-42.3-42.3
		l7.6-7.6c1.2-1.2,1.2-3.3,0-4.5c-1.2-1.2-3.3-1.2-4.5,0l-7.6,7.6l-12.7-12.7V71.2c0-1.8-1.4-3.2-3.2-3.2H74.8
		c-1.8,0-3.2,1.4-3.2,3.2v254.2c0,1.8,1.4,3.2,3.2,3.2h36.6c1.8,0,3.2-1.4,3.2-3.2v-34.9h146.5l8.9,8.9c0.6,0.6,1.4,0.9,2.3,0.9
		c0.8,0,1.6-0.3,2.3-0.9c1.2-1.2,1.2-3.3,0-4.5l-95.5-95.5l26.4-10.5c0.4-0.2,0.8-0.4,1.1-0.7l95.9-95.9c0.6-0.6,0.9-1.4,0.9-2.3
		C303.3,89.1,302.9,88.2,302.3,87.6L302.3,87.6z M108.2,322.1H77.9v-5.7h5.5c1.8,0,3.2-1.4,3.2-3.2c0-1.8-1.4-3.2-3.2-3.2h-5.5v-10
		h5.5c1.8,0,3.2-1.4,3.2-3.2c0-1.8-1.4-3.2-3.2-3.2h-5.5v-10h5.5c1.8,0,3.2-1.4,3.2-3.2c0-1.8-1.4-3.2-3.2-3.2h-5.5v-10h5.5
		c1.8,0,3.2-1.4,3.2-3.2c0-1.8-1.4-3.2-3.2-3.2h-5.5v-10h5.5c1.8,0,3.2-1.4,3.2-3.2s-1.4-3.2-3.2-3.2h-5.5v-10.1h5.5
		c1.8,0,3.2-1.4,3.2-3.2c0-1.8-1.4-3.2-3.2-3.2h-5.5v-10h5.5c1.8,0,3.2-1.4,3.2-3.2c0-1.8-1.4-3.2-3.2-3.2h-5.5v-10h5.5
		c1.8,0,3.2-1.4,3.2-3.2c0-1.8-1.4-3.2-3.2-3.2h-5.5v-10h5.5c1.8,0,3.2-1.4,3.2-3.2c0-1.8-1.4-3.2-3.2-3.2h-5.5v-10h5.5
		c1.8,0,3.2-1.4,3.2-3.2c0-1.8-1.4-3.2-3.2-3.2h-5.5v-10h5.5c1.8,0,3.2-1.4,3.2-3.2c0-1.8-1.4-3.2-3.2-3.2h-5.5v-10h5.5
		c1.8,0,3.2-1.4,3.2-3.2c0-1.8-1.4-3.2-3.2-3.2h-5.5v-10h5.5c1.8,0,3.2-1.4,3.2-3.2c0-1.8-1.4-3.2-3.2-3.2h-5.5v-10h5.5
		c1.8,0,3.2-1.4,3.2-3.2c0-1.8-1.4-3.2-3.2-3.2h-5.5v-10h5.5c1.8,0,3.2-1.4,3.2-3.2c0-1.8-1.4-3.2-3.2-3.2h-5.5v-5.7h30.2V322.1z
		 M114.5,284V143.9l15.5,15.5l-9.1,9.1c-1.2,1.2-1.2,3.3,0,4.5c0.6,0.6,1.4,0.9,2.3,0.9c0.8,0,1.6-0.3,2.3-0.9l9.1-9.1l7.1,7.1
		l-9.1,9.1c-1.2,1.2-1.2,3.3,0,4.5c0.6,0.6,1.4,0.9,2.3,0.9c0.8,0,1.6-0.3,2.3-0.9l9.1-9.1l7.1,7.1l-9.1,9.1c-1.2,1.2-1.2,3.3,0,4.5
		c0.6,0.6,1.4,0.9,2.3,0.9c0.8,0,1.6-0.3,2.3-0.9l9.1-9.1l7.1,7.1l-9.1,9.1c-1.2,1.2-1.2,3.3,0,4.5c0.6,0.6,1.4,0.9,2.3,0.9
		c0.8,0,1.6-0.3,2.3-0.9l9.1-9.1l7.1,7.1l-9.1,9.1c-1.2,1.2-1.2,3.3,0,4.5c0.6,0.6,1.4,0.9,2.3,0.9c0.8,0,1.6-0.3,2.3-0.9l9.1-9.1
		l7.1,7.1l-9.1,9.1c-1.2,1.2-1.2,3.3,0,4.5c0.6,0.6,1.4,0.9,2.3,0.9c0.8,0,1.6-0.3,2.3-0.9l9.1-9.1l7.1,7.1l-9.1,9.1
		c-1.2,1.2-1.2,3.3,0,4.5c0.6,0.6,1.4,0.9,2.3,0.9c0.8,0,1.6-0.3,2.3-0.9l9.1-9.1l7.1,7.1l-9.1,9.1c-1.2,1.2-1.2,3.3,0,4.5
		c0.6,0.6,1.4,0.9,2.3,0.9c0.8,0,1.6-0.3,2.3-0.9l9.1-9.1l7.1,7.1l-9.1,9.1c-1.2,1.2-1.2,3.3,0,4.5c0.6,0.6,1.4,0.9,2.3,0.9
		c0.8,0,1.6-0.3,2.3-0.9l9.1-9.1l7.1,7.1l-9.1,9.1c-1.2,1.2-1.2,3.3,0,4.5c0.6,0.6,1.4,0.9,2.3,0.9c0.8,0,1.6-0.3,2.3-0.9l9.1-9.1
		l15.5,15.5L114.5,284L114.5,284z M200.4,177.5l79.4-79.4l3.8,3.8l-79.4,79.4L200.4,177.5z M195.9,173l-3.8-3.8l79.4-79.4l3.8,3.8
		L195.9,173z M188.7,174.9l9.7,9.7l-16.2,6.4L188.7,174.9z M288,97.4l-12.1-12.1l7.5-7.5l12.1,12.1L288,97.4z M288,97.4"/>
	<linearGradient id="SVGID_3_" gradientUnits="userSpaceOnUse" x1="279.9927" y1="301.2159" x2="289.9106" y2="318.3943">
		<stop  offset="0" style="stop-color:#FF6167;stop-opacity:0.8"/>
		<stop  offset="0.1381" style="stop-color:#FB6067;stop-opacity:0.8249"/>
		<stop  offset="0.2696" style="stop-color:#F05C67;stop-opacity:0.8485"/>
		<stop  offset="0.3986" style="stop-color:#DC5666;stop-opacity:0.8717"/>
		<stop  offset="0.526" style="stop-color:#C14E65;stop-opacity:0.8947"/>
		<stop  offset="0.6522" style="stop-color:#9F4365;stop-opacity:0.9174"/>
		<stop  offset="0.7776" style="stop-color:#743663;stop-opacity:0.94"/>
		<stop  offset="0.9" style="stop-color:#422662;stop-opacity:0.962"/>
		<stop  offset="1" style="stop-color:#141861;stop-opacity:0.98"/>
	</linearGradient>
	<path class="st2" d="M282.3,302.6c-1.2-1.2-3.3-1.2-4.5,0c-1.2,1.2-1.2,3.3,0,4.5l9.8,9.8c0.6,0.6,1.4,0.9,2.3,0.9
		c0.8,0,1.6-0.3,2.3-0.9c1.2-1.2,1.2-3.3,0-4.5L282.3,302.6z M282.3,302.6"/>
	<linearGradient id="SVGID_4_" gradientUnits="userSpaceOnUse" x1="296.1073" y1="319.7419" x2="299.4365" y2="325.5082">
		<stop  offset="0" style="stop-color:#FF6167;stop-opacity:0.8"/>
		<stop  offset="0.1381" style="stop-color:#FB6067;stop-opacity:0.8249"/>
		<stop  offset="0.2696" style="stop-color:#F05C67;stop-opacity:0.8485"/>
		<stop  offset="0.3986" style="stop-color:#DC5666;stop-opacity:0.8717"/>
		<stop  offset="0.526" style="stop-color:#C14E65;stop-opacity:0.8947"/>
		<stop  offset="0.6522" style="stop-color:#9F4365;stop-opacity:0.9174"/>
		<stop  offset="0.7776" style="stop-color:#743663;stop-opacity:0.94"/>
		<stop  offset="0.9" style="stop-color:#422662;stop-opacity:0.962"/>
		<stop  offset="1" style="stop-color:#141861;stop-opacity:0.98"/>
	</linearGradient>
	<path class="st3" d="M299.9,320.3c-1.2-1.2-3.3-1.2-4.5,0c-1.2,1.2-1.2,3.3,0,4.5l0.2,0.2c0.6,0.6,1.4,0.9,2.3,0.9
		c0.8,0,1.6-0.3,2.3-0.9c1.2-1.2,1.2-3.3,0-4.5L299.9,320.3z M299.9,320.3"/>
	<linearGradient id="SVGID_5_" gradientUnits="userSpaceOnUse" x1="196.4572" y1="78.4502" x2="199.7421" y2="84.1398">
		<stop  offset="0" style="stop-color:#FF6167;stop-opacity:0.8"/>
		<stop  offset="0.1381" style="stop-color:#FB6067;stop-opacity:0.8249"/>
		<stop  offset="0.2696" style="stop-color:#F05C67;stop-opacity:0.8485"/>
		<stop  offset="0.3986" style="stop-color:#DC5666;stop-opacity:0.8717"/>
		<stop  offset="0.526" style="stop-color:#C14E65;stop-opacity:0.8947"/>
		<stop  offset="0.6522" style="stop-color:#9F4365;stop-opacity:0.9174"/>
		<stop  offset="0.7776" style="stop-color:#743663;stop-opacity:0.94"/>
		<stop  offset="0.9" style="stop-color:#422662;stop-opacity:0.962"/>
		<stop  offset="1" style="stop-color:#141861;stop-opacity:0.98"/>
	</linearGradient>
	<path class="st4" d="M197.8,84.7c0.8,0,1.6-0.3,2.3-0.9l0.5-0.5c1.2-1.2,1.2-3.3,0-4.5c-1.2-1.2-3.3-1.2-4.5,0l-0.5,0.5
		c-1.2,1.2-1.2,3.3,0,4.5C196.2,84.4,197,84.7,197.8,84.7L197.8,84.7z M197.8,84.7"/>
	<linearGradient id="SVGID_6_" gradientUnits="userSpaceOnUse" x1="182.6275" y1="89.9447" x2="187.6214" y2="98.5943">
		<stop  offset="0" style="stop-color:#FF6167;stop-opacity:0.8"/>
		<stop  offset="0.1381" style="stop-color:#FB6067;stop-opacity:0.8249"/>
		<stop  offset="0.2696" style="stop-color:#F05C67;stop-opacity:0.8485"/>
		<stop  offset="0.3986" style="stop-color:#DC5666;stop-opacity:0.8717"/>
		<stop  offset="0.526" style="stop-color:#C14E65;stop-opacity:0.8947"/>
		<stop  offset="0.6522" style="stop-color:#9F4365;stop-opacity:0.9174"/>
		<stop  offset="0.7776" style="stop-color:#743663;stop-opacity:0.94"/>
		<stop  offset="0.9" style="stop-color:#422662;stop-opacity:0.962"/>
		<stop  offset="1" style="stop-color:#141861;stop-opacity:0.98"/>
	</linearGradient>
	<path class="st5" d="M180.2,102.4c0.8,0,1.6-0.3,2.3-0.9l9.8-9.8c1.2-1.2,1.2-3.3,0-4.5c-1.2-1.2-3.3-1.2-4.5,0l-9.8,9.8
		c-1.2,1.2-1.2,3.3,0,4.5C178.6,102.1,179.4,102.4,180.2,102.4L180.2,102.4z M180.2,102.4"/>
	<linearGradient id="SVGID_7_" gradientUnits="userSpaceOnUse" x1="164.9849" y1="107.5883" x2="169.9787" y2="116.2377">
		<stop  offset="0" style="stop-color:#FF6167;stop-opacity:0.8"/>
		<stop  offset="0.1381" style="stop-color:#FB6067;stop-opacity:0.8249"/>
		<stop  offset="0.2696" style="stop-color:#F05C67;stop-opacity:0.8485"/>
		<stop  offset="0.3986" style="stop-color:#DC5666;stop-opacity:0.8717"/>
		<stop  offset="0.526" style="stop-color:#C14E65;stop-opacity:0.8947"/>
		<stop  offset="0.6522" style="stop-color:#9F4365;stop-opacity:0.9174"/>
		<stop  offset="0.7776" style="stop-color:#743663;stop-opacity:0.94"/>
		<stop  offset="0.9" style="stop-color:#422662;stop-opacity:0.962"/>
		<stop  offset="1" style="stop-color:#141861;stop-opacity:0.98"/>
	</linearGradient>
	<path class="st6" d="M162.6,120c0.8,0,1.6-0.3,2.3-0.9l9.8-9.8c1.2-1.2,1.2-3.3,0-4.5c-1.2-1.2-3.3-1.2-4.5,0l-9.8,9.8
		c-1.2,1.2-1.2,3.3,0,4.5C160.9,119.7,161.7,120,162.6,120L162.6,120z M162.6,120"/>
	<linearGradient id="SVGID_8_" gradientUnits="userSpaceOnUse" x1="147.3395" y1="125.2316" x2="152.334" y2="133.8822">
		<stop  offset="0" style="stop-color:#FF6167;stop-opacity:0.8"/>
		<stop  offset="0.1381" style="stop-color:#FB6067;stop-opacity:0.8249"/>
		<stop  offset="0.2696" style="stop-color:#F05C67;stop-opacity:0.8485"/>
		<stop  offset="0.3986" style="stop-color:#DC5666;stop-opacity:0.8717"/>
		<stop  offset="0.526" style="stop-color:#C14E65;stop-opacity:0.8947"/>
		<stop  offset="0.6522" style="stop-color:#9F4365;stop-opacity:0.9174"/>
		<stop  offset="0.7776" style="stop-color:#743663;stop-opacity:0.94"/>
		<stop  offset="0.9" style="stop-color:#422662;stop-opacity:0.962"/>
		<stop  offset="1" style="stop-color:#141861;stop-opacity:0.98"/>
	</linearGradient>
	<path class="st7" d="M144.9,137.7c0.8,0,1.6-0.3,2.3-0.9l9.8-9.8c1.2-1.2,1.2-3.3,0-4.5c-1.2-1.2-3.3-1.2-4.5,0l-9.8,9.8
		c-1.2,1.2-1.2,3.3,0,4.5C143.3,137.4,144.1,137.7,144.9,137.7L144.9,137.7z M144.9,137.7"/>
</g>
</svg>
