<?xml version="1.0" encoding="utf-8"?>
<!-- Generator: Adobe Illustrator 22.0.1, SVG Export Plug-In . SVG Version: 6.00 Build 0)  -->
<svg version="1.1" id="Ebene_1" xmlns="http://www.w3.org/2000/svg"  x="0px" y="0px"
	 viewBox="0 0 394 346" style="enable-background:new 0 0 394 346;" xml:space="preserve">
<style type="text/css">
	.st0{fill:url(#SVGID_1_);}
	.st1{fill:url(#SVGID_2_);}
	.st2{fill:url(#SVGID_3_);}
	.st3{fill:url(#SVGID_4_);}
	.st4{fill:url(#SVGID_5_);}
	.st5{fill:url(#SVGID_6_);}
</style>
<linearGradient id="SVGID_1_" gradientUnits="userSpaceOnUse" x1="316.4466" y1="68.7633" x2="193.0111" y2="282.5598">
	<stop  offset="0" style="stop-color:#FF6167;stop-opacity:0.8"/>
	<stop  offset="0.1381" style="stop-color:#FB6067;stop-opacity:0.8249"/>
	<stop  offset="0.2696" style="stop-color:#F05C67;stop-opacity:0.8485"/>
	<stop  offset="0.3986" style="stop-color:#DC5666;stop-opacity:0.8717"/>
	<stop  offset="0.526" style="stop-color:#C14E65;stop-opacity:0.8947"/>
	<stop  offset="0.6522" style="stop-color:#9F4365;stop-opacity:0.9174"/>
	<stop  offset="0.7776" style="stop-color:#743663;stop-opacity:0.94"/>
	<stop  offset="0.9" style="stop-color:#422662;stop-opacity:0.962"/>
	<stop  offset="1" style="stop-color:#141861;stop-opacity:0.98"/>
</linearGradient>
<path class="st0" d="M279.2,140.8V74.3c6.5-0.7,11.6-6.2,11.6-12.9c0-7.2-5.8-13-13-13h-57.8c-7.2,0-13,5.8-13,13
	c0,6.7,5.1,12.2,11.6,12.9v66.4c-13.1,5.1-24.8,13.4-33.9,24.3c-1.5,1.8-1.3,4.6,0.5,6.1c0.8,0.7,1.8,1,2.8,1c1.2,0,2.5-0.5,3.3-1.5
	c8.8-10.4,20.2-18.3,33-22.7c1.7-0.6,2.9-2.2,2.9-4.1V74.4h24.6c2.4,0,4.3-1.9,4.3-4.3c0-2.4-1.9-4.3-4.3-4.3h-31.8
	c-2.4,0-4.3-1.9-4.3-4.3c0-2.4,1.9-4.3,4.3-4.3h57.8c2.4,0,4.3,1.9,4.3,4.3c0,2.4-1.9,4.3-4.3,4.3H269c-2.4,0-4.3,1.9-4.3,4.3
	c0,2.4,1.9,4.3,4.3,4.3h1.4v69.4c0,1.8,1.2,3.5,2.9,4.1c30.2,10.5,50.5,39,50.5,71c0,41.4-33.7,75.1-75.1,75.1
	c-9.8,0-19.3-1.9-28.3-5.5c-2.2-0.9-4.7,0.2-5.6,2.4c-0.9,2.2,0.2,4.7,2.4,5.6c10,4.1,20.6,6.1,31.5,6.1c46.2,0,83.8-37.6,83.8-83.8
	C332.6,184.2,311.3,153.2,279.2,140.8L279.2,140.8z M279.2,140.8"/>
<linearGradient id="SVGID_2_" gradientUnits="userSpaceOnUse" x1="283.285" y1="230.3698" x2="278.9503" y2="237.8777">
	<stop  offset="0" style="stop-color:#FF6167;stop-opacity:0.8"/>
	<stop  offset="0.1381" style="stop-color:#FB6067;stop-opacity:0.8249"/>
	<stop  offset="0.2696" style="stop-color:#F05C67;stop-opacity:0.8485"/>
	<stop  offset="0.3986" style="stop-color:#DC5666;stop-opacity:0.8717"/>
	<stop  offset="0.526" style="stop-color:#C14E65;stop-opacity:0.8947"/>
	<stop  offset="0.6522" style="stop-color:#9F4365;stop-opacity:0.9174"/>
	<stop  offset="0.7776" style="stop-color:#743663;stop-opacity:0.94"/>
	<stop  offset="0.9" style="stop-color:#422662;stop-opacity:0.962"/>
	<stop  offset="1" style="stop-color:#141861;stop-opacity:0.98"/>
</linearGradient>
<path class="st1" d="M285.5,234.1c0,2.4-1.9,4.3-4.3,4.3c-2.4,0-4.3-1.9-4.3-4.3c0-2.4,1.9-4.3,4.3-4.3
	C283.5,229.8,285.5,231.7,285.5,234.1L285.5,234.1z M285.5,234.1"/>
<linearGradient id="SVGID_3_" gradientUnits="userSpaceOnUse" x1="265.9487" y1="247.706" x2="261.614" y2="255.2139">
	<stop  offset="0" style="stop-color:#FF6167;stop-opacity:0.8"/>
	<stop  offset="0.1381" style="stop-color:#FB6067;stop-opacity:0.8249"/>
	<stop  offset="0.2696" style="stop-color:#F05C67;stop-opacity:0.8485"/>
	<stop  offset="0.3986" style="stop-color:#DC5666;stop-opacity:0.8717"/>
	<stop  offset="0.526" style="stop-color:#C14E65;stop-opacity:0.8947"/>
	<stop  offset="0.6522" style="stop-color:#9F4365;stop-opacity:0.9174"/>
	<stop  offset="0.7776" style="stop-color:#743663;stop-opacity:0.94"/>
	<stop  offset="0.9" style="stop-color:#422662;stop-opacity:0.962"/>
	<stop  offset="1" style="stop-color:#141861;stop-opacity:0.98"/>
</linearGradient>
<path class="st2" d="M268.1,251.5c0,2.4-1.9,4.3-4.3,4.3c-2.4,0-4.3-1.9-4.3-4.3c0-2.4,1.9-4.3,4.3-4.3
	C266.2,247.1,268.1,249.1,268.1,251.5L268.1,251.5z M268.1,251.5"/>
<linearGradient id="SVGID_4_" gradientUnits="userSpaceOnUse" x1="277.8792" y1="168.5273" x2="215.6923" y2="276.2382">
	<stop  offset="0" style="stop-color:#FF6167;stop-opacity:0.8"/>
	<stop  offset="0.1381" style="stop-color:#FB6067;stop-opacity:0.8249"/>
	<stop  offset="0.2696" style="stop-color:#F05C67;stop-opacity:0.8485"/>
	<stop  offset="0.3986" style="stop-color:#DC5666;stop-opacity:0.8717"/>
	<stop  offset="0.526" style="stop-color:#C14E65;stop-opacity:0.8947"/>
	<stop  offset="0.6522" style="stop-color:#9F4365;stop-opacity:0.9174"/>
	<stop  offset="0.7776" style="stop-color:#743663;stop-opacity:0.94"/>
	<stop  offset="0.9" style="stop-color:#422662;stop-opacity:0.962"/>
	<stop  offset="1" style="stop-color:#141861;stop-opacity:0.98"/>
</linearGradient>
<path class="st3" d="M224.3,271.2c-2.2-1-4.7-0.1-5.8,2.1c-1,2.2-0.1,4.7,2.1,5.8c8.9,4.1,18.3,6.2,28.2,6.2
	c36.6,0,66.5-29.8,66.5-66.5c0-11.7-3.1-23.2-8.9-33.2c-0.9-1.5-2.6-2.4-4.3-2.1l-1.6,0.2c-0.2,0-0.4,0.1-0.6,0.1
	c-6.6,1.9-10.1,4.7-12.9,7c-3.1,2.5-5.2,4.2-11.2,4.2c-5.1,0-7.4-2-10.6-4.7c-3.5-3-7.9-6.8-16.3-6.8c-8.3,0-12.7,3.8-16.3,6.8
	c-3.2,2.7-5.5,4.7-10.6,4.7c-6,0-8.1-1.7-11.2-4.2c-2.8-2.3-6.4-5.1-12.9-7c-0.2-0.1-0.4-0.1-0.6-0.1l-1.6-0.2
	c-1.7-0.2-3.5,0.6-4.3,2.1c0,0.1-0.1,0.1-0.1,0.2c-1.2,2.1-0.5,4.7,1.6,5.9c0.9,0.5,1.9,0.7,2.9,0.5l0.1,0c4.7,1.4,7.1,3.3,9.6,5.3
	c3.7,3,7.6,6.1,16.6,6.1c8.3,0,12.7-3.8,16.3-6.8c3.2-2.7,5.5-4.7,10.6-4.7c5.1,0,7.4,2,10.6,4.7c3.5,3,7.9,6.8,16.3,6.8
	c9,0,12.9-3.1,16.6-6.1c2.2-1.8,4.3-3.5,8-4.8c4.1,8,6.2,17,6.2,26.1c0,31.9-25.9,57.8-57.8,57.8C240.3,276.7,232,274.8,224.3,271.2
	L224.3,271.2z M224.3,271.2"/>
<linearGradient id="SVGID_5_" gradientUnits="userSpaceOnUse" x1="212.1391" y1="56.7644" x2="72.8729" y2="297.9807">
	<stop  offset="0" style="stop-color:#FF6167;stop-opacity:0.8"/>
	<stop  offset="0.1381" style="stop-color:#FB6067;stop-opacity:0.8249"/>
	<stop  offset="0.2696" style="stop-color:#F05C67;stop-opacity:0.8485"/>
	<stop  offset="0.3986" style="stop-color:#DC5666;stop-opacity:0.8717"/>
	<stop  offset="0.526" style="stop-color:#C14E65;stop-opacity:0.8947"/>
	<stop  offset="0.6522" style="stop-color:#9F4365;stop-opacity:0.9174"/>
	<stop  offset="0.7776" style="stop-color:#743663;stop-opacity:0.94"/>
	<stop  offset="0.9" style="stop-color:#422662;stop-opacity:0.962"/>
	<stop  offset="1" style="stop-color:#141861;stop-opacity:0.98"/>
</linearGradient>
<path class="st4" d="M165.6,143.1V57c6.5-0.7,11.6-6.2,11.6-12.9c0-7.2-5.8-13-13-13h-57.8c-7.2,0-13,5.8-13,13
	c0,6.7,5.1,12.2,11.6,12.9v69.5c0,2.4,1.9,4.3,4.3,4.3c2.4,0,4.3-1.9,4.3-4.3V57.1h24.6c2.4,0,4.3-1.9,4.3-4.3
	c0-2.4-1.9-4.3-4.3-4.3h-31.8c-2.4,0-4.3-1.9-4.3-4.3c0-2.4,1.9-4.3,4.3-4.3h57.8c2.4,0,4.3,1.9,4.3,4.3c0,2.4-1.9,4.3-4.3,4.3h-8.7
	c-2.4,0-4.3,1.9-4.3,4.3c0,2.4,1.9,4.3,4.3,4.3h1.4v86.7c0,0.5,0.1,1,0.2,1.4L199.3,267c2.5,7.4,2,14.2-1.6,19.2
	c-3.6,5-9.8,7.8-17.6,7.8H90.5c-7.8,0-14-2.8-17.6-7.8c-3.6-5-4.2-11.9-1.6-19.2l42.1-121.8c0.8-2.3-0.4-4.7-2.7-5.5
	c-2.3-0.8-4.7,0.4-5.5,2.7L63,264.2c-3.5,10.1-2.5,19.7,2.7,27.1c5.3,7.4,14,11.4,24.7,11.4h89.6c10.7,0,19.4-4.1,24.7-11.4
	s6.2-17,2.7-27.1L165.6,143.1z M165.6,143.1"/>
<linearGradient id="SVGID_6_" gradientUnits="userSpaceOnUse" x1="78.3402" y1="254.8185" x2="192.1912" y2="254.8185">
	<stop  offset="0" style="stop-color:#FF6167;stop-opacity:0.8"/>
	<stop  offset="0.1381" style="stop-color:#FB6067;stop-opacity:0.8249"/>
	<stop  offset="0.2696" style="stop-color:#F05C67;stop-opacity:0.8485"/>
	<stop  offset="0.3986" style="stop-color:#DC5666;stop-opacity:0.8717"/>
	<stop  offset="0.526" style="stop-color:#C14E65;stop-opacity:0.8947"/>
	<stop  offset="0.6522" style="stop-color:#9F4365;stop-opacity:0.9174"/>
	<stop  offset="0.7776" style="stop-color:#743663;stop-opacity:0.94"/>
	<stop  offset="0.9" style="stop-color:#422662;stop-opacity:0.962"/>
	<stop  offset="1" style="stop-color:#141861;stop-opacity:0.98"/>
</linearGradient>
<path class="st5" d="M98.4,232.6c-1.1-0.9-2.6-1.1-3.9-0.7c-1.3,0.4-2.4,1.4-2.9,2.7l-12.2,35.2c-1.6,4.6-1.4,8.7,0.5,11.4
	c1.9,2.7,5.7,4.2,10.6,4.2h89.6c4.9,0,8.7-1.5,10.6-4.2c1.9-2.7,2.1-6.7,0.5-11.4l-12.2-35.2c-0.5-1.3-1.5-2.3-2.9-2.7
	c-1.3-0.4-2.8-0.1-3.9,0.7c-2.4,1.8-4.6,3.2-10,3.2c-5.1,0-7.4-2-10.6-4.7c-3.5-3-7.9-6.8-16.3-6.8c-8.3,0-12.7,3.8-16.3,6.8
	c-3.2,2.7-5.5,4.7-10.6,4.7C103,235.9,100.7,234.5,98.4,232.6L98.4,232.6z M124.6,237.7c3.2-2.7,5.5-4.7,10.6-4.7
	c5.1,0,7.4,2,10.6,4.7c3.5,3,7.9,6.8,16.3,6.8c4.5,0,7.8-0.8,10.3-2l10.4,30.1c0.6,1.8,0.6,2.9,0.6,3.4c-0.5,0.2-1.6,0.6-3.4,0.6
	H90.5c-1.9,0-3-0.3-3.4-0.6c-0.1-0.5,0-1.7,0.6-3.4L98,242.6c2.5,1.1,5.8,1.9,10.3,1.9C116.7,244.5,121.1,240.7,124.6,237.7
	L124.6,237.7z M124.6,237.7"/>
</svg>
