<?xml version="1.0" encoding="utf-8"?>
<!-- Generator: Adobe Illustrator 22.0.1, SVG Export Plug-In . SVG Version: 6.00 Build 0)  -->
<svg version="1.1" id="Ebene_1" xmlns="http://www.w3.org/2000/svg"  x="0px" y="0px"
	 viewBox="0 0 394 346" style="enable-background:new 0 0 394 346;" xml:space="preserve">
<style type="text/css">
	.st0{fill:url(#SVGID_1_);}
	.st1{fill:url(#SVGID_2_);}
	.st2{fill:url(#SVGID_3_);}
	.st3{fill:url(#SVGID_4_);}
	.st4{fill:url(#SVGID_5_);}
	.st5{fill:url(#SVGID_6_);}
	.st6{fill:url(#SVGID_7_);}
</style>
<g>
	<linearGradient id="SVGID_1_" gradientUnits="userSpaceOnUse" x1="165.9736" y1="178.5398" x2="233.2762" y2="178.5398">
		<stop  offset="0" style="stop-color:#FF6167;stop-opacity:0.8"/>
		<stop  offset="0.1381" style="stop-color:#FB6067;stop-opacity:0.8249"/>
		<stop  offset="0.2696" style="stop-color:#F05C67;stop-opacity:0.8485"/>
		<stop  offset="0.3986" style="stop-color:#DC5666;stop-opacity:0.8717"/>
		<stop  offset="0.526" style="stop-color:#C14E65;stop-opacity:0.8947"/>
		<stop  offset="0.6522" style="stop-color:#9F4365;stop-opacity:0.9174"/>
		<stop  offset="0.7776" style="stop-color:#743663;stop-opacity:0.94"/>
		<stop  offset="0.9" style="stop-color:#422662;stop-opacity:0.962"/>
		<stop  offset="1" style="stop-color:#141861;stop-opacity:0.98"/>
	</linearGradient>
	<path class="st0" d="M199.6,144.9c-18.6,0-33.7,15.1-33.7,33.7c0,18.6,15.1,33.6,33.7,33.6c18.6,0,33.7-15.1,33.7-33.6
		C233.3,160,218.2,144.9,199.6,144.9L199.6,144.9z M199.6,202.6c-13.3,0-24-10.8-24-24c0-13.3,10.8-24,24-24c13.2,0,24,10.8,24,24
		C223.7,191.8,212.9,202.6,199.6,202.6L199.6,202.6z M199.6,202.6"/>
	<linearGradient id="SVGID_2_" gradientUnits="userSpaceOnUse" x1="264.1315" y1="66.8117" x2="135.1607" y2="290.1956">
		<stop  offset="0" style="stop-color:#FF6167;stop-opacity:0.8"/>
		<stop  offset="0.1381" style="stop-color:#FB6067;stop-opacity:0.8249"/>
		<stop  offset="0.2696" style="stop-color:#F05C67;stop-opacity:0.8485"/>
		<stop  offset="0.3986" style="stop-color:#DC5666;stop-opacity:0.8717"/>
		<stop  offset="0.526" style="stop-color:#C14E65;stop-opacity:0.8947"/>
		<stop  offset="0.6522" style="stop-color:#9F4365;stop-opacity:0.9174"/>
		<stop  offset="0.7776" style="stop-color:#743663;stop-opacity:0.94"/>
		<stop  offset="0.9" style="stop-color:#422662;stop-opacity:0.962"/>
		<stop  offset="1" style="stop-color:#141861;stop-opacity:0.98"/>
	</linearGradient>
	<path class="st1" d="M242.4,72.6l-8.7,4c11.9,25.8,18.8,62.9,18.8,101.9c0,73-24.2,134.6-52.9,134.6c-28.7,0-52.9-61.6-52.9-134.6
		c0-73,24.2-134.6,52.6-134.6c8.1,0.5,15.6,4.4,20.5,10.8l7.6-5.9c-6.7-8.6-16.7-13.8-27.8-14.5c-35,0-62.5,63.3-62.5,144.2
		c0,80.9,27.4,144.2,62.5,144.2c35,0,62.5-63.4,62.5-144.2C262.1,137.6,255.1,100,242.4,72.6L242.4,72.6z M242.4,72.6"/>
	<linearGradient id="SVGID_3_" gradientUnits="userSpaceOnUse" x1="264.2805" y1="66.9637" x2="135.3217" y2="290.3268">
		<stop  offset="0" style="stop-color:#FF6167;stop-opacity:0.8"/>
		<stop  offset="0.1381" style="stop-color:#FB6067;stop-opacity:0.8249"/>
		<stop  offset="0.2696" style="stop-color:#F05C67;stop-opacity:0.8485"/>
		<stop  offset="0.3986" style="stop-color:#DC5666;stop-opacity:0.8717"/>
		<stop  offset="0.526" style="stop-color:#C14E65;stop-opacity:0.8947"/>
		<stop  offset="0.6522" style="stop-color:#9F4365;stop-opacity:0.9174"/>
		<stop  offset="0.7776" style="stop-color:#743663;stop-opacity:0.94"/>
		<stop  offset="0.9" style="stop-color:#422662;stop-opacity:0.962"/>
		<stop  offset="1" style="stop-color:#141861;stop-opacity:0.98"/>
	</linearGradient>
	<path class="st2" d="M324.5,106.4c-8.7-15.1-30.2-21.3-60.5-17.3c-28.8,3.8-62.8,16.3-95.6,35.3c-35.2,20.3-65.2,46.1-82.3,70.6
		l7.9,5.5c16.3-23.4,45.2-48.1,79.2-67.8c31.7-18.3,64.4-30.4,92-34c25.8-3.4,44.4,1.1,50.9,12.5c14.3,24.8-27,76.6-90.1,113.1
		c-31.7,18.3-64.4,30.4-92,34.1c-25.8,3.4-44.4-1.2-50.8-12.3c-3.6-7-4-15.2-1.1-22.5l-9-3.5c-3.9,9.9-3.3,20.9,1.6,30.6
		c7,12.1,22.2,18.5,43.5,18.5c5.3,0,11-0.4,17.1-1.2c28.9-3.8,62.8-16.3,95.6-35.3C300.9,192.2,342,136.8,324.5,106.4L324.5,106.4z
		 M324.5,106.4"/>
	<linearGradient id="SVGID_4_" gradientUnits="userSpaceOnUse" x1="230.8673" y1="124.4287" x2="168.3835" y2="232.6539">
		<stop  offset="0" style="stop-color:#FF6167;stop-opacity:0.8"/>
		<stop  offset="0.1381" style="stop-color:#FB6067;stop-opacity:0.8249"/>
		<stop  offset="0.2696" style="stop-color:#F05C67;stop-opacity:0.8485"/>
		<stop  offset="0.3986" style="stop-color:#DC5666;stop-opacity:0.8717"/>
		<stop  offset="0.526" style="stop-color:#C14E65;stop-opacity:0.8947"/>
		<stop  offset="0.6522" style="stop-color:#9F4365;stop-opacity:0.9174"/>
		<stop  offset="0.7776" style="stop-color:#743663;stop-opacity:0.94"/>
		<stop  offset="0.9" style="stop-color:#422662;stop-opacity:0.962"/>
		<stop  offset="1" style="stop-color:#141861;stop-opacity:0.98"/>
	</linearGradient>
	<path class="st3" d="M309.2,189.6c-17.7-23.1-45.5-46.2-78.3-65.2c-70-40.4-138.6-48.3-156.1-18c-8.8,15.1-3.3,36.8,15.3,61.1
		c17.7,23.1,45.5,46.2,78.3,65.2c35.5,20.5,73,33.7,103,36.1l0.8-9.6c-28.6-2.3-64.6-15-98.9-34.8c-31.7-18.3-58.5-40.6-75.5-62.7
		c-15.9-20.6-21.2-39-14.6-50.4c14.4-24.8,79.8-15,143,21.5c31.7,18.3,58.5,40.6,75.5,62.7c15.9,20.6,21.2,39,14.7,50.2
		c-3.8,5.9-9.9,10.1-16.7,11.6l2,9.4c9.4-2,17.7-7.8,22.9-16C333.3,235.5,327.8,213.8,309.2,189.6L309.2,189.6z M309.2,189.6"/>
	<linearGradient id="SVGID_5_" gradientUnits="userSpaceOnUse" x1="214.0484" y1="63.166" x2="252.5033" y2="63.166">
		<stop  offset="0" style="stop-color:#FF6167;stop-opacity:0.8"/>
		<stop  offset="0.1381" style="stop-color:#FB6067;stop-opacity:0.8249"/>
		<stop  offset="0.2696" style="stop-color:#F05C67;stop-opacity:0.8485"/>
		<stop  offset="0.3986" style="stop-color:#DC5666;stop-opacity:0.8717"/>
		<stop  offset="0.526" style="stop-color:#C14E65;stop-opacity:0.8947"/>
		<stop  offset="0.6522" style="stop-color:#9F4365;stop-opacity:0.9174"/>
		<stop  offset="0.7776" style="stop-color:#743663;stop-opacity:0.94"/>
		<stop  offset="0.9" style="stop-color:#422662;stop-opacity:0.962"/>
		<stop  offset="1" style="stop-color:#141861;stop-opacity:0.98"/>
	</linearGradient>
	<path class="st4" d="M233.3,43.9c-10.6,0-19.2,8.6-19.2,19.2c0,10.6,8.6,19.2,19.2,19.2c10.6,0,19.2-8.6,19.2-19.2
		C252.5,52.6,243.9,43.9,233.3,43.9L233.3,43.9z M233.3,72.8c-5.3,0-9.6-4.3-9.6-9.6s4.3-9.6,9.6-9.6c5.3,0,9.6,4.3,9.6,9.6
		C242.9,68.5,238.6,72.8,233.3,72.8L233.3,72.8z M233.3,72.8"/>
	<linearGradient id="SVGID_6_" gradientUnits="userSpaceOnUse" x1="65.0222" y1="207.3835" x2="103.48" y2="207.3835">
		<stop  offset="0" style="stop-color:#FF6167;stop-opacity:0.8"/>
		<stop  offset="0.1381" style="stop-color:#FB6067;stop-opacity:0.8249"/>
		<stop  offset="0.2696" style="stop-color:#F05C67;stop-opacity:0.8485"/>
		<stop  offset="0.3986" style="stop-color:#DC5666;stop-opacity:0.8717"/>
		<stop  offset="0.526" style="stop-color:#C14E65;stop-opacity:0.8947"/>
		<stop  offset="0.6522" style="stop-color:#9F4365;stop-opacity:0.9174"/>
		<stop  offset="0.7776" style="stop-color:#743663;stop-opacity:0.94"/>
		<stop  offset="0.9" style="stop-color:#422662;stop-opacity:0.962"/>
		<stop  offset="1" style="stop-color:#141861;stop-opacity:0.98"/>
	</linearGradient>
	<path class="st5" d="M84.3,188.2c-10.6,0-19.2,8.6-19.2,19.2c0,10.6,8.6,19.2,19.2,19.2c10.6,0,19.2-8.6,19.2-19.2
		C103.5,196.8,94.9,188.2,84.3,188.2L84.3,188.2z M84.3,217c-5.3,0-9.6-4.3-9.6-9.6c0-5.3,4.3-9.6,9.6-9.6c5.3,0,9.6,4.3,9.6,9.6
		C93.9,212.7,89.6,217,84.3,217L84.3,217z M84.3,217"/>
	<linearGradient id="SVGID_7_" gradientUnits="userSpaceOnUse" x1="266.9257" y1="265.0719" x2="305.3834" y2="265.0719">
		<stop  offset="0" style="stop-color:#FF6167;stop-opacity:0.8"/>
		<stop  offset="0.1381" style="stop-color:#FB6067;stop-opacity:0.8249"/>
		<stop  offset="0.2696" style="stop-color:#F05C67;stop-opacity:0.8485"/>
		<stop  offset="0.3986" style="stop-color:#DC5666;stop-opacity:0.8717"/>
		<stop  offset="0.526" style="stop-color:#C14E65;stop-opacity:0.8947"/>
		<stop  offset="0.6522" style="stop-color:#9F4365;stop-opacity:0.9174"/>
		<stop  offset="0.7776" style="stop-color:#743663;stop-opacity:0.94"/>
		<stop  offset="0.9" style="stop-color:#422662;stop-opacity:0.962"/>
		<stop  offset="1" style="stop-color:#141861;stop-opacity:0.98"/>
	</linearGradient>
	<path class="st6" d="M286.2,245.8c-10.6,0-19.2,8.6-19.2,19.2c0,10.6,8.6,19.2,19.2,19.2c10.6,0,19.2-8.6,19.2-19.2
		C305.4,254.5,296.8,245.8,286.2,245.8L286.2,245.8z M286.2,274.7c-5.3,0-9.6-4.3-9.6-9.6c0-5.3,4.3-9.6,9.6-9.6
		c5.3,0,9.6,4.3,9.6,9.6C295.8,270.4,291.5,274.7,286.2,274.7L286.2,274.7z M286.2,274.7"/>
</g>
</svg>
