<?xml version="1.0" encoding="utf-8"?>
<!-- Generator: Adobe Illustrator 22.0.1, SVG Export Plug-In . SVG Version: 6.00 Build 0)  -->
<svg version="1.1" id="Ebene_1" xmlns="http://www.w3.org/2000/svg"  x="0px" y="0px"
	 viewBox="0 0 394 346" style="enable-background:new 0 0 394 346;" xml:space="preserve">
<style type="text/css">
	.st0{fill:url(#SVGID_1_);}
	.st1{fill:url(#SVGID_2_);}
	.st2{fill:url(#SVGID_3_);}
</style>
<g>
	<linearGradient id="SVGID_1_" gradientUnits="userSpaceOnUse" x1="76.5047" y1="203.7192" x2="330.7621" y2="203.7192">
		<stop  offset="0" style="stop-color:#FF6167;stop-opacity:0.8"/>
		<stop  offset="0.1381" style="stop-color:#FB6067;stop-opacity:0.8249"/>
		<stop  offset="0.2696" style="stop-color:#F05C67;stop-opacity:0.8485"/>
		<stop  offset="0.3986" style="stop-color:#DC5666;stop-opacity:0.8717"/>
		<stop  offset="0.526" style="stop-color:#C14E65;stop-opacity:0.8947"/>
		<stop  offset="0.6522" style="stop-color:#9F4365;stop-opacity:0.9174"/>
		<stop  offset="0.7776" style="stop-color:#743663;stop-opacity:0.94"/>
		<stop  offset="0.9" style="stop-color:#422662;stop-opacity:0.962"/>
		<stop  offset="1" style="stop-color:#141861;stop-opacity:0.98"/>
	</linearGradient>
	<path class="st0" d="M325.5,289H314V122c0-7.8-6.3-14.1-14.1-14.1h-25.7c-7.8,0-14.1,6.3-14.1,14.1v167h-29.2v-91.3
		c0-7.8-6.3-14.1-14.1-14.1h-25.7c-7.8,0-14.1,6.3-14.1,14.1V289h-29.2v-47.3c0-7.8-6.3-14.1-14.1-14.1H108
		c-7.8,0-14.1,6.3-14.1,14.1V289H81.7c-2.9,0-5.2,2.3-5.2,5.2c0,2.9,2.3,5.2,5.2,5.2h243.8c2.9,0,5.2-2.3,5.2-5.2
		C330.8,291.4,328.4,289,325.5,289L325.5,289z M137.3,289h-32.9v-47.3c0-2,1.6-3.6,3.6-3.6h25.7c2,0,3.6,1.6,3.6,3.6V289z
		 M220.4,289h-32.9v-91.3c0-2,1.6-3.6,3.6-3.6h25.7c2,0,3.6,1.6,3.6,3.6V289z M303.5,289h-32.9V122c0-2,1.6-3.6,3.6-3.6h25.7
		c2,0,3.6,1.6,3.6,3.6V289z M303.5,289"/>
	<linearGradient id="SVGID_2_" gradientUnits="userSpaceOnUse" x1="200.4714" y1="74.0922" x2="226.9538" y2="119.9609">
		<stop  offset="0" style="stop-color:#FF6167;stop-opacity:0.8"/>
		<stop  offset="0.1381" style="stop-color:#FB6067;stop-opacity:0.8249"/>
		<stop  offset="0.2696" style="stop-color:#F05C67;stop-opacity:0.8485"/>
		<stop  offset="0.3986" style="stop-color:#DC5666;stop-opacity:0.8717"/>
		<stop  offset="0.526" style="stop-color:#C14E65;stop-opacity:0.8947"/>
		<stop  offset="0.6522" style="stop-color:#9F4365;stop-opacity:0.9174"/>
		<stop  offset="0.7776" style="stop-color:#743663;stop-opacity:0.94"/>
		<stop  offset="0.9" style="stop-color:#422662;stop-opacity:0.962"/>
		<stop  offset="1" style="stop-color:#141861;stop-opacity:0.98"/>
	</linearGradient>
	<path class="st1" d="M314,36.5c0.1-1.4-0.4-2.9-1.5-4c-1.1-1.1-2.6-1.6-4-1.5c-0.1,0-0.2,0-0.3,0h-31.7c-2.9,0-5.2,2.3-5.2,5.2
		c0,2.9,2.3,5.2,5.2,5.2h19.6l-51.8,51.8l-19.6-19.6c-1-1-2.3-1.5-3.7-1.5c-1.4,0-2.7,0.6-3.7,1.5L123,168.1c-2,2-2,5.4,0,7.4
		c1,1,2.4,1.5,3.7,1.5c1.3,0,2.7-0.5,3.7-1.5L221,84.9l19.6,19.6c2,2,5.4,2,7.4,0l55.6-55.6v17.7c0,2.9,2.3,5.2,5.2,5.2
		s5.2-2.3,5.2-5.2V36.8C314,36.7,314,36.6,314,36.5L314,36.5z M314,36.5"/>
	<linearGradient id="SVGID_3_" gradientUnits="userSpaceOnUse" x1="106.4201" y1="185.5309" x2="111.6654" y2="194.6161">
		<stop  offset="0" style="stop-color:#FF6167;stop-opacity:0.8"/>
		<stop  offset="0.1381" style="stop-color:#FB6067;stop-opacity:0.8249"/>
		<stop  offset="0.2696" style="stop-color:#F05C67;stop-opacity:0.8485"/>
		<stop  offset="0.3986" style="stop-color:#DC5666;stop-opacity:0.8717"/>
		<stop  offset="0.526" style="stop-color:#C14E65;stop-opacity:0.8947"/>
		<stop  offset="0.6522" style="stop-color:#9F4365;stop-opacity:0.9174"/>
		<stop  offset="0.7776" style="stop-color:#743663;stop-opacity:0.94"/>
		<stop  offset="0.9" style="stop-color:#422662;stop-opacity:0.962"/>
		<stop  offset="1" style="stop-color:#141861;stop-opacity:0.98"/>
	</linearGradient>
	<path class="st2" d="M114.3,190.1c0,2.9-2.3,5.2-5.2,5.2c-2.9,0-5.2-2.3-5.2-5.2s2.3-5.2,5.2-5.2
		C111.9,184.8,114.3,187.2,114.3,190.1L114.3,190.1z M114.3,190.1"/>
</g>
</svg>
