<?xml version="1.0" encoding="utf-8"?>
<!-- Generator: Adobe Illustrator 22.0.1, SVG Export Plug-In . SVG Version: 6.00 Build 0)  -->
<svg version="1.1" id="Ebene_1" xmlns="http://www.w3.org/2000/svg" xmlns:xlink="http://www.w3.org/1999/xlink" x="0px" y="0px"
	 viewBox="0 0 385.8 388" style="enable-background:new 0 0 385.8 388;" xml:space="preserve">
<style type="text/css">
	.st0{fill:url(#SVGID_1_);}
	.st1{fill:url(#SVGID_2_);}
	.st2{fill:url(#SVGID_3_);}
	.st3{fill:url(#SVGID_4_);}
	.st4{fill:url(#SVGID_5_);}
</style>
<g>
	<linearGradient id="SVGID_1_" gradientUnits="userSpaceOnUse" x1="118.8169" y1="93.2154" x2="152.9435" y2="112.9184">
		<stop  offset="0" style="stop-color:#FF6167;stop-opacity:0.8"/>
		<stop  offset="0.1381" style="stop-color:#FB6067;stop-opacity:0.8249"/>
		<stop  offset="0.2696" style="stop-color:#F05C67;stop-opacity:0.8485"/>
		<stop  offset="0.3986" style="stop-color:#DC5666;stop-opacity:0.8717"/>
		<stop  offset="0.526" style="stop-color:#C14E65;stop-opacity:0.8947"/>
		<stop  offset="0.6522" style="stop-color:#9F4365;stop-opacity:0.9174"/>
		<stop  offset="0.7776" style="stop-color:#743663;stop-opacity:0.94"/>
		<stop  offset="0.9" style="stop-color:#422662;stop-opacity:0.962"/>
		<stop  offset="1" style="stop-color:#141861;stop-opacity:0.98"/>
	</linearGradient>
	<path class="st0" d="M135.9,122.8c10.9,0,19.7-8.8,19.7-19.7c0-10.9-8.8-19.7-19.7-19.7c-10.9,0-19.7,8.8-19.7,19.7
		C116.2,113.9,125,122.8,135.9,122.8L135.9,122.8z M135.9,93.1c5.5,0,9.9,4.5,9.9,9.9c0,5.5-4.4,9.9-9.9,9.9c-5.5,0-9.9-4.5-9.9-9.9
		C126,97.6,130.4,93.1,135.9,93.1L135.9,93.1z M135.9,93.1"/>
	<linearGradient id="SVGID_2_" gradientUnits="userSpaceOnUse" x1="73.7549" y1="132.9747" x2="114.9353" y2="156.7502">
		<stop  offset="0" style="stop-color:#FF6167;stop-opacity:0.8"/>
		<stop  offset="0.1381" style="stop-color:#FB6067;stop-opacity:0.8249"/>
		<stop  offset="0.2696" style="stop-color:#F05C67;stop-opacity:0.8485"/>
		<stop  offset="0.3986" style="stop-color:#DC5666;stop-opacity:0.8717"/>
		<stop  offset="0.526" style="stop-color:#C14E65;stop-opacity:0.8947"/>
		<stop  offset="0.6522" style="stop-color:#9F4365;stop-opacity:0.9174"/>
		<stop  offset="0.7776" style="stop-color:#743663;stop-opacity:0.94"/>
		<stop  offset="0.9" style="stop-color:#422662;stop-opacity:0.962"/>
		<stop  offset="1" style="stop-color:#141861;stop-opacity:0.98"/>
	</linearGradient>
	<path class="st1" d="M94.3,168.6c13.1,0,23.8-10.7,23.8-23.8c0-13.1-10.7-23.8-23.8-23.8c-13.1,0-23.8,10.7-23.8,23.8
		C70.6,158,81.2,168.6,94.3,168.6L94.3,168.6z M94.3,130.9c7.7,0,14,6.3,14,14c0,7.7-6.3,14-14,14c-7.7,0-14-6.3-14-14
		C80.4,137.1,86.6,130.9,94.3,130.9L94.3,130.9z M94.3,130.9"/>
	<linearGradient id="SVGID_3_" gradientUnits="userSpaceOnUse" x1="114.7814" y1="232.4693" x2="155.9615" y2="256.2446">
		<stop  offset="0" style="stop-color:#FF6167;stop-opacity:0.8"/>
		<stop  offset="0.1381" style="stop-color:#FB6067;stop-opacity:0.8249"/>
		<stop  offset="0.2696" style="stop-color:#F05C67;stop-opacity:0.8485"/>
		<stop  offset="0.3986" style="stop-color:#DC5666;stop-opacity:0.8717"/>
		<stop  offset="0.526" style="stop-color:#C14E65;stop-opacity:0.8947"/>
		<stop  offset="0.6522" style="stop-color:#9F4365;stop-opacity:0.9174"/>
		<stop  offset="0.7776" style="stop-color:#743663;stop-opacity:0.94"/>
		<stop  offset="0.9" style="stop-color:#422662;stop-opacity:0.962"/>
		<stop  offset="1" style="stop-color:#141861;stop-opacity:0.98"/>
	</linearGradient>
	<path class="st2" d="M135.4,220.6c-13.1,0-23.8,10.7-23.8,23.8c0,13.1,10.7,23.8,23.8,23.8c13.1,0,23.8-10.7,23.8-23.8
		C159.2,231.2,148.5,220.6,135.4,220.6L135.4,220.6z M135.4,258.4c-7.7,0-14-6.3-14-14c0-7.7,6.3-14,14-14c7.7,0,14,6.3,14,14
		C149.4,252.1,143.1,258.4,135.4,258.4L135.4,258.4z M135.4,258.4"/>
	<linearGradient id="SVGID_4_" gradientUnits="userSpaceOnUse" x1="68.9131" y1="191.7351" x2="110.5124" y2="215.7525">
		<stop  offset="0" style="stop-color:#FF6167;stop-opacity:0.8"/>
		<stop  offset="0.1381" style="stop-color:#FB6067;stop-opacity:0.8249"/>
		<stop  offset="0.2696" style="stop-color:#F05C67;stop-opacity:0.8485"/>
		<stop  offset="0.3986" style="stop-color:#DC5666;stop-opacity:0.8717"/>
		<stop  offset="0.526" style="stop-color:#C14E65;stop-opacity:0.8947"/>
		<stop  offset="0.6522" style="stop-color:#9F4365;stop-opacity:0.9174"/>
		<stop  offset="0.7776" style="stop-color:#743663;stop-opacity:0.94"/>
		<stop  offset="0.9" style="stop-color:#422662;stop-opacity:0.962"/>
		<stop  offset="1" style="stop-color:#141861;stop-opacity:0.98"/>
	</linearGradient>
	<path class="st3" d="M89.7,179.7c-13.2,0-24,10.8-24,24c0,13.2,10.8,24,24,24c13.2,0,24-10.8,24-24
		C113.7,190.5,103,179.7,89.7,179.7L89.7,179.7z M89.7,218c-7.9,0-14.2-6.4-14.2-14.2c0-7.8,6.4-14.2,14.2-14.2
		c7.8,0,14.2,6.4,14.2,14.2C103.9,211.6,97.6,218,89.7,218L89.7,218z M89.7,218"/>
	<linearGradient id="SVGID_5_" gradientUnits="userSpaceOnUse" x1="55.4051" y1="106.8496" x2="301.6948" y2="249.045">
		<stop  offset="0" style="stop-color:#FF6167;stop-opacity:0.8"/>
		<stop  offset="0.1381" style="stop-color:#FB6067;stop-opacity:0.8249"/>
		<stop  offset="0.2696" style="stop-color:#F05C67;stop-opacity:0.8485"/>
		<stop  offset="0.3986" style="stop-color:#DC5666;stop-opacity:0.8717"/>
		<stop  offset="0.526" style="stop-color:#C14E65;stop-opacity:0.8947"/>
		<stop  offset="0.6522" style="stop-color:#9F4365;stop-opacity:0.9174"/>
		<stop  offset="0.7776" style="stop-color:#743663;stop-opacity:0.94"/>
		<stop  offset="0.9" style="stop-color:#422662;stop-opacity:0.962"/>
		<stop  offset="1" style="stop-color:#141861;stop-opacity:0.98"/>
	</linearGradient>
	<path class="st4" d="M363.8,115.6c-9.7-9.7-23.1-2.7-28.8,2.3l-55.8,49c-3.4-21.7-14.3-26.6-23.5-26.6c-10.7,0-21.1,7-24.1,9.2
		l-20.1,15c-11.1,8.3-26.9,5.2-34.1-6.7c-6.2-10.3-3.6-23.5,6-30.8l20.1-15.1c29-22.2,20.4-51.8-32.3-58.1
		C107.4,46.4,45.4,91.2,35.7,158.7c-10,69.9,40.6,133,110,139.6c-2.5,10.2-2,21,2.1,30.7c0.5,1.2,1.4,2.1,2.6,2.6
		c29.9,12.5,68.1-9.2,65.8-39.5c1.5-0.3-0.5,0.9,29.1-19.1c10.2,4.8,21.7-6,17.8-16.5l69.4-79.1c1.8-2,1.6-5.1-0.4-6.9
		c-2-1.8-5.1-1.6-6.9,0.5l-68.2,77.8l-26.3-26.3c2.2-1.9,105.6-92.6,110.7-97.1c0.1-0.1,9.9-8.4,15.5-2.8c5.6,5.6-2.7,15.4-2.8,15.5
		l-18.4,21c-1.8,2-1.6,5.1,0.4,6.9c2,1.8,5.1,1.6,6.9-0.4l18.4-21C366.5,138.7,373.4,125.3,363.8,115.6L363.8,115.6z M198.9,312.8
		c-11.4,11.4-28.2,15.7-42.8,10.6c-7.6-21.4,6.9-50.5,28.6-50.5c6,0,11.5,2.2,15.6,6.3C209.2,288,208.5,303.1,198.9,312.8
		L198.9,312.8z M216,281c-7.5-7.5-10.6-10.6-17.6-17.6l14.6-21.7l24.6,24.6L216,281z M254.1,260.8c0,1.3-0.8,1.8-1.7,2.8
		c-1,1-2.7,1-3.6,0l-33-33c-1-1-1-2.6,0-3.6l1-1c1-1,2.7-1,3.6,0C256.1,261.8,254.1,259.3,254.1,260.8L254.1,260.8z M222.9,216.3
		c-10.4-3.9-21.3,7.6-16.5,17.8c-19.4,28.7-18.9,27.5-19.1,29c-17.1-1.3-31,10.2-38.2,25.6C84,284,36.2,225.2,45.4,160.1
		c8.4-58.6,59.6-99,115.8-97c25.7,0.9,47,10.2,48.8,20.8c1.6,9.4-11,19.4-12.5,20.5l-20.1,15c-15.8,11.9-17.8,34.6-4.5,49.1
		c11.2,12.2,30.3,14.5,44.3,4l20-15c4.6-3.4,12.1-7.3,18.3-7.3c8.5,0,13.4,8.3,14.5,24.6L222.9,216.3z M222.9,216.3"/>
</g>
</svg>
