<?xml version="1.0" encoding="utf-8"?>
<!-- Generator: Adobe Illustrator 22.0.1, SVG Export Plug-In . SVG Version: 6.00 Build 0)  -->
<svg version="1.1" id="Ebene_1" xmlns="http://www.w3.org/2000/svg" xmlns:xlink="http://www.w3.org/1999/xlink" x="0px" y="0px"
	 viewBox="0 0 385.8 388" style="enable-background:new 0 0 385.8 388;" xml:space="preserve">
<style type="text/css">
	.st0{fill:url(#SVGID_1_);}
	.st1{fill:url(#SVGID_2_);}
	.st2{fill:url(#SVGID_3_);}
	.st3{fill:url(#SVGID_4_);}
	.st4{fill:url(#SVGID_5_);}
</style>
<g>
	<linearGradient id="SVGID_1_" gradientUnits="userSpaceOnUse" x1="77.2634" y1="25.6124" x2="295.6369" y2="151.6905">
		<stop  offset="0" style="stop-color:#FF6167;stop-opacity:0.8"/>
		<stop  offset="0.1381" style="stop-color:#FB6067;stop-opacity:0.8249"/>
		<stop  offset="0.2696" style="stop-color:#F05C67;stop-opacity:0.8485"/>
		<stop  offset="0.3986" style="stop-color:#DC5666;stop-opacity:0.8717"/>
		<stop  offset="0.526" style="stop-color:#C14E65;stop-opacity:0.8947"/>
		<stop  offset="0.6522" style="stop-color:#9F4365;stop-opacity:0.9174"/>
		<stop  offset="0.7776" style="stop-color:#743663;stop-opacity:0.94"/>
		<stop  offset="0.9" style="stop-color:#422662;stop-opacity:0.962"/>
		<stop  offset="1" style="stop-color:#141861;stop-opacity:0.98"/>
	</linearGradient>
	<path class="st0" d="M297.5,142.6l-7.6-15.2V67.2l5-1.3c1.8-0.5,3-2.1,3-3.9c0-1.8-1.2-3.4-3-3.9L178.4,28c-0.7-0.2-1.4-0.2-2,0
		L59.9,58.2c-1.8,0.5-3,2.1-3,3.9c0,1.8,1.2,3.4,3,3.9l53.2,13.8v56.7c0,1.8,1.3,3.5,3,3.9l25.5,6.4c-0.5,1-0.6,2.2-0.1,3.3
		c0.6,1.5,2.1,2.5,3.7,2.5h8v8c0,1.6,1,3.1,2.5,3.7c0.5,0.2,1,0.3,1.5,0.3c1,0,2.1-0.4,2.8-1.2l17.3-17.3l17.3,17.3
		c0.8,0.8,1.8,1.2,2.8,1.2c0.5,0,1-0.1,1.5-0.3c1.5-0.6,2.5-2.1,2.5-3.7v-8h8c1.6,0,3.1-1,3.7-2.5c0.5-1.1,0.4-2.3-0.1-3.3l25.5-6.4
		c1.8-0.5,3-2.1,3-3.9V79.7l40.2-10.4v58.1l-7.6,15.2c-0.6,1.1-0.6,2.5,0,3.6l8,16.1c0.7,1.4,2.1,2.2,3.6,2.2c1.5,0,2.9-0.9,3.6-2.2
		l8-16.1C298.1,145.1,298.1,143.8,297.5,142.6L297.5,142.6z M161.3,150.8v-2.4c0-2.2-1.8-4-4-4H155l7.2-7.2c2,2.3,4.4,4.3,7.3,5.5
		L161.3,150.8z M165.4,124.3c0-6.6,5.4-12.1,12.1-12.1s12.1,5.4,12.1,12.1c0,6.6-5.4,12.1-12.1,12.1S165.4,131,165.4,124.3
		L165.4,124.3z M197.5,144.4c-2.2,0-4,1.8-4,4v2.4l-8.1-8.1c2.8-1.2,5.3-3.2,7.3-5.5l7.2,7.2H197.5z M233.7,133.2l-26.9,6.7
		l-10.1-10.1c0.5-1.8,0.9-3.6,0.9-5.5c0-11.1-9-20.1-20.1-20.1s-20.1,9-20.1,20.1c0,1.9,0.4,3.7,0.9,5.5L148,140l-26.9-6.7V81.8
		l55.3,14.3c0.3,0.1,0.7,0.1,1,0.1c0.3,0,0.7,0,1-0.1l55.3-14.3V133.2z M177.4,88L76.9,62l100.5-26l100.5,26L177.4,88z M285.9,151.5
		l-3.5-7.1l3.5-7.1l3.5,7.1L285.9,151.5z M285.9,151.5"/>
	<g>
		<linearGradient id="SVGID_2_" gradientUnits="userSpaceOnUse" x1="104.9941" y1="259.1488" x2="269.7381" y2="354.2638">
			<stop  offset="0" style="stop-color:#FF6167;stop-opacity:0.8"/>
			<stop  offset="0.1381" style="stop-color:#FB6067;stop-opacity:0.8249"/>
			<stop  offset="0.2696" style="stop-color:#F05C67;stop-opacity:0.8485"/>
			<stop  offset="0.3986" style="stop-color:#DC5666;stop-opacity:0.8717"/>
			<stop  offset="0.526" style="stop-color:#C14E65;stop-opacity:0.8947"/>
			<stop  offset="0.6522" style="stop-color:#9F4365;stop-opacity:0.9174"/>
			<stop  offset="0.7776" style="stop-color:#743663;stop-opacity:0.94"/>
			<stop  offset="0.9" style="stop-color:#422662;stop-opacity:0.962"/>
			<stop  offset="1" style="stop-color:#141861;stop-opacity:0.98"/>
		</linearGradient>
		<path class="st1" d="M265.9,276.9h-35.3c-2.2-2.4-5.4-4-8.9-4c-3.1,0-5.9,1.2-8,3.1c-2.1-1.9-4.9-3.1-8-3.1c-3.1,0-5.9,1.2-8,3.1
			c-2.1-1.9-4.9-3.1-8-3.1c-3.1,0-5.9,1.2-8,3.1c-2.1-1.9-4.9-3.1-8-3.1c-3.5,0-6.7,1.6-8.9,4H97.1c-2.2,0-4,1.8-4,4V309
			c0,11.1,9,20.1,20.1,20.1h32.2v20.1c0,1.1,0.4,2.1,1.2,2.8l6.9,6.9v6.4h8v-8c0-1.1-0.4-2.1-1.2-2.8l-6.9-6.9v-46.1
			c6.9,1.8,12.1,8.1,12.1,15.6v20.1h8v-8h52.2v36.2h8v-36.2h48.2c2.2,0,4-1.8,4-4V297C285.9,285.9,276.9,276.9,265.9,276.9
			L265.9,276.9z M161.4,296.2c-3.6-2.1-7.7-3.3-12.1-3.3c-2.2,0-4,1.8-4,4v24.1h-32.2c-6.6,0-12.1-5.4-12.1-12.1v-24.1h60.3V296.2z
			 M217.6,284.9c0-2.2,1.8-4,4-4c2.2,0,4,1.8,4,4V301c0,2.2-1.8,4-4,4c-2.2,0-4-1.8-4-4V284.9z M201.6,284.9c0-2.2,1.8-4,4-4
			c2.2,0,4,1.8,4,4V301c0,2.2-1.8,4-4,4c-2.2,0-4-1.8-4-4V284.9z M185.5,284.9c0-2.2,1.8-4,4-4s4,1.8,4,4V301c0,2.2-1.8,4-4,4
			s-4-1.8-4-4V284.9z M169.4,301v-16.1c0-2.2,1.8-4,4-4c2.2,0,4,1.8,4,4V301c0,2.2-1.8,4-4,4C171.2,305,169.4,303.2,169.4,301
			L169.4,301z M277.9,321.1H173.4v-4c0-1.4-0.1-2.7-0.4-4.1c0.1,0,0.2,0,0.4,0c3.1,0,5.9-1.2,8-3.1c2.1,1.9,4.9,3.1,8,3.1
			c3.1,0,5.9-1.2,8-3.1c2.1,1.9,4.9,3.1,8,3.1c3.1,0,5.9-1.2,8-3.1c2.1,1.9,4.9,3.1,8,3.1c6.6,0,12.1-5.4,12.1-12.1v-16.1h32.2
			c6.6,0,12.1,5.4,12.1,12.1V321.1z M277.9,321.1"/>
		<linearGradient id="SVGID_3_" gradientUnits="userSpaceOnUse" x1="92.3188" y1="262.0883" x2="101.8276" y2="267.5782">
			<stop  offset="0" style="stop-color:#FF6167;stop-opacity:0.8"/>
			<stop  offset="0.1381" style="stop-color:#FB6067;stop-opacity:0.8249"/>
			<stop  offset="0.2696" style="stop-color:#F05C67;stop-opacity:0.8485"/>
			<stop  offset="0.3986" style="stop-color:#DC5666;stop-opacity:0.8717"/>
			<stop  offset="0.526" style="stop-color:#C14E65;stop-opacity:0.8947"/>
			<stop  offset="0.6522" style="stop-color:#9F4365;stop-opacity:0.9174"/>
			<stop  offset="0.7776" style="stop-color:#743663;stop-opacity:0.94"/>
			<stop  offset="0.9" style="stop-color:#422662;stop-opacity:0.962"/>
			<stop  offset="1" style="stop-color:#141861;stop-opacity:0.98"/>
		</linearGradient>
		<rect x="93.1" y="260.8" class="st2" width="8" height="8"/>
		<linearGradient id="SVGID_4_" gradientUnits="userSpaceOnUse" x1="108.3943" y1="262.0883" x2="117.9031" y2="267.5782">
			<stop  offset="0" style="stop-color:#FF6167;stop-opacity:0.8"/>
			<stop  offset="0.1381" style="stop-color:#FB6067;stop-opacity:0.8249"/>
			<stop  offset="0.2696" style="stop-color:#F05C67;stop-opacity:0.8485"/>
			<stop  offset="0.3986" style="stop-color:#DC5666;stop-opacity:0.8717"/>
			<stop  offset="0.526" style="stop-color:#C14E65;stop-opacity:0.8947"/>
			<stop  offset="0.6522" style="stop-color:#9F4365;stop-opacity:0.9174"/>
			<stop  offset="0.7776" style="stop-color:#743663;stop-opacity:0.94"/>
			<stop  offset="0.9" style="stop-color:#422662;stop-opacity:0.962"/>
			<stop  offset="1" style="stop-color:#141861;stop-opacity:0.98"/>
		</linearGradient>
		<rect x="109.1" y="260.8" class="st3" width="8" height="8"/>
		<linearGradient id="SVGID_5_" gradientUnits="userSpaceOnUse" x1="124.4695" y1="262.0889" x2="133.9763" y2="267.5777">
			<stop  offset="0" style="stop-color:#FF6167;stop-opacity:0.8"/>
			<stop  offset="0.1381" style="stop-color:#FB6067;stop-opacity:0.8249"/>
			<stop  offset="0.2696" style="stop-color:#F05C67;stop-opacity:0.8485"/>
			<stop  offset="0.3986" style="stop-color:#DC5666;stop-opacity:0.8717"/>
			<stop  offset="0.526" style="stop-color:#C14E65;stop-opacity:0.8947"/>
			<stop  offset="0.6522" style="stop-color:#9F4365;stop-opacity:0.9174"/>
			<stop  offset="0.7776" style="stop-color:#743663;stop-opacity:0.94"/>
			<stop  offset="0.9" style="stop-color:#422662;stop-opacity:0.962"/>
			<stop  offset="1" style="stop-color:#141861;stop-opacity:0.98"/>
		</linearGradient>
		<rect x="125.2" y="260.8" class="st4" width="8" height="8"/>
	</g>
</g>
</svg>
