<?xml version="1.0" encoding="utf-8"?>
<!-- Generator: Adobe Illustrator 22.0.1, SVG Export Plug-In . SVG Version: 6.00 Build 0)  -->
<svg version="1.1" id="Ebene_1" xmlns="http://www.w3.org/2000/svg" xmlns:xlink="http://www.w3.org/1999/xlink" x="0px" y="0px"
	 viewBox="0 0 385.8 388" style="enable-background:new 0 0 385.8 388;" xml:space="preserve">
<style type="text/css">
	.st0{fill:url(#SVGID_1_);}
	.st1{fill:url(#SVGID_2_);}
	.st2{fill:url(#SVGID_3_);}
	.st3{fill:url(#SVGID_4_);}
	.st4{fill:url(#SVGID_5_);}
	.st5{fill:url(#SVGID_6_);}
	.st6{fill:url(#SVGID_7_);}
	.st7{fill:url(#SVGID_8_);}
	.st8{fill:url(#SVGID_9_);}
	.st9{fill:url(#SVGID_10_);}
	.st10{fill:url(#SVGID_11_);}
	.st11{fill:url(#SVGID_12_);}
	.st12{fill:url(#SVGID_13_);}
	.st13{fill:url(#SVGID_14_);}
	.st14{fill:url(#SVGID_15_);}
	.st15{fill:url(#SVGID_16_);}
	.st16{fill:url(#SVGID_17_);}
	.st17{fill:url(#SVGID_18_);}
	.st18{fill:url(#SVGID_19_);}
</style>
<g>
	<linearGradient id="SVGID_1_" gradientUnits="userSpaceOnUse" x1="-425.7366" y1="25.6124" x2="-207.3631" y2="151.6905">
		<stop  offset="0" style="stop-color:#FF6167;stop-opacity:0.8"/>
		<stop  offset="0.1381" style="stop-color:#FB6067;stop-opacity:0.8249"/>
		<stop  offset="0.2696" style="stop-color:#F05C67;stop-opacity:0.8485"/>
		<stop  offset="0.3986" style="stop-color:#DC5666;stop-opacity:0.8717"/>
		<stop  offset="0.526" style="stop-color:#C14E65;stop-opacity:0.8947"/>
		<stop  offset="0.6522" style="stop-color:#9F4365;stop-opacity:0.9174"/>
		<stop  offset="0.7776" style="stop-color:#743663;stop-opacity:0.94"/>
		<stop  offset="0.9" style="stop-color:#422662;stop-opacity:0.962"/>
		<stop  offset="1" style="stop-color:#141861;stop-opacity:0.98"/>
	</linearGradient>
	<path class="st0" d="M-205.5,142.6l-7.6-15.2V67.2l5-1.3c1.8-0.5,3-2.1,3-3.9c0-1.8-1.2-3.4-3-3.9L-324.6,28c-0.7-0.2-1.4-0.2-2,0
		l-116.5,30.1c-1.8,0.5-3,2.1-3,3.9c0,1.8,1.2,3.4,3,3.9l53.2,13.8v56.7c0,1.8,1.3,3.5,3,3.9l25.5,6.4c-0.5,1-0.6,2.2-0.1,3.3
		c0.6,1.5,2.1,2.5,3.7,2.5h8v8c0,1.6,1,3.1,2.5,3.7c0.5,0.2,1,0.3,1.5,0.3c1,0,2.1-0.4,2.8-1.2l17.3-17.3l17.3,17.3
		c0.8,0.8,1.8,1.2,2.8,1.2c0.5,0,1-0.1,1.5-0.3c1.5-0.6,2.5-2.1,2.5-3.7v-8h8c1.6,0,3.1-1,3.7-2.5c0.5-1.1,0.4-2.3-0.1-3.3l25.5-6.4
		c1.8-0.5,3-2.1,3-3.9V79.7l40.2-10.4v58.1l-7.6,15.2c-0.6,1.1-0.6,2.5,0,3.6l8,16.1c0.7,1.4,2.1,2.2,3.6,2.2s2.9-0.9,3.6-2.2
		l8-16.1C-204.9,145.1-204.9,143.8-205.5,142.6L-205.5,142.6z M-341.7,150.8v-2.4c0-2.2-1.8-4-4-4h-2.4l7.2-7.2
		c2,2.3,4.4,4.3,7.3,5.5L-341.7,150.8z M-337.6,124.3c0-6.6,5.4-12.1,12.1-12.1s12.1,5.4,12.1,12.1c0,6.6-5.4,12.1-12.1,12.1
		S-337.6,131-337.6,124.3L-337.6,124.3z M-305.5,144.4c-2.2,0-4,1.8-4,4v2.4l-8.1-8.1c2.8-1.2,5.3-3.2,7.3-5.5l7.2,7.2H-305.5z
		 M-269.3,133.2l-26.9,6.7l-10.1-10.1c0.5-1.8,0.9-3.6,0.9-5.5c0-11.1-9-20.1-20.1-20.1c-11.1,0-20.1,9-20.1,20.1
		c0,1.9,0.4,3.7,0.9,5.5L-355,140l-26.9-6.7V81.8l55.3,14.3c0.3,0.1,0.7,0.1,1,0.1s0.7,0,1-0.1l55.3-14.3V133.2z M-325.6,88
		l-100.5-26l100.5-26l100.5,26L-325.6,88z M-217.1,151.5l-3.5-7.1l3.5-7.1l3.5,7.1L-217.1,151.5z M-217.1,151.5"/>
	<g>
		<linearGradient id="SVGID_2_" gradientUnits="userSpaceOnUse" x1="-398.0059" y1="259.1488" x2="-233.2619" y2="354.2638">
			<stop  offset="0" style="stop-color:#FF6167;stop-opacity:0.8"/>
			<stop  offset="0.1381" style="stop-color:#FB6067;stop-opacity:0.8249"/>
			<stop  offset="0.2696" style="stop-color:#F05C67;stop-opacity:0.8485"/>
			<stop  offset="0.3986" style="stop-color:#DC5666;stop-opacity:0.8717"/>
			<stop  offset="0.526" style="stop-color:#C14E65;stop-opacity:0.8947"/>
			<stop  offset="0.6522" style="stop-color:#9F4365;stop-opacity:0.9174"/>
			<stop  offset="0.7776" style="stop-color:#743663;stop-opacity:0.94"/>
			<stop  offset="0.9" style="stop-color:#422662;stop-opacity:0.962"/>
			<stop  offset="1" style="stop-color:#141861;stop-opacity:0.98"/>
		</linearGradient>
		<path class="st1" d="M-237.1,276.9h-35.3c-2.2-2.4-5.4-4-8.9-4c-3.1,0-5.9,1.2-8,3.1c-2.1-1.9-4.9-3.1-8-3.1c-3.1,0-5.9,1.2-8,3.1
			c-2.1-1.9-4.9-3.1-8-3.1c-3.1,0-5.9,1.2-8,3.1c-2.1-1.9-4.9-3.1-8-3.1c-3.5,0-6.7,1.6-8.9,4h-67.4c-2.2,0-4,1.8-4,4V309
			c0,11.1,9,20.1,20.1,20.1h32.2v20.1c0,1.1,0.4,2.1,1.2,2.8l6.9,6.9v6.4h8v-8c0-1.1-0.4-2.1-1.2-2.8l-6.9-6.9v-46.1
			c6.9,1.8,12.1,8.1,12.1,15.6v20.1h8v-8h52.2v36.2h8v-36.2h48.2c2.2,0,4-1.8,4-4V297C-217.1,285.9-226.1,276.9-237.1,276.9
			L-237.1,276.9z M-341.6,296.2c-3.6-2.1-7.7-3.3-12.1-3.3c-2.2,0-4,1.8-4,4v24.1h-32.2c-6.6,0-12.1-5.4-12.1-12.1v-24.1h60.3V296.2
			z M-285.4,284.9c0-2.2,1.8-4,4-4c2.2,0,4,1.8,4,4V301c0,2.2-1.8,4-4,4c-2.2,0-4-1.8-4-4V284.9z M-301.4,284.9c0-2.2,1.8-4,4-4
			c2.2,0,4,1.8,4,4V301c0,2.2-1.8,4-4,4c-2.2,0-4-1.8-4-4V284.9z M-317.5,284.9c0-2.2,1.8-4,4-4s4,1.8,4,4V301c0,2.2-1.8,4-4,4
			s-4-1.8-4-4V284.9z M-333.6,301v-16.1c0-2.2,1.8-4,4-4c2.2,0,4,1.8,4,4V301c0,2.2-1.8,4-4,4C-331.8,305-333.6,303.2-333.6,301
			L-333.6,301z M-225.1,321.1h-104.5v-4c0-1.4-0.1-2.7-0.4-4.1c0.1,0,0.2,0,0.4,0c3.1,0,5.9-1.2,8-3.1c2.1,1.9,4.9,3.1,8,3.1
			c3.1,0,5.9-1.2,8-3.1c2.1,1.9,4.9,3.1,8,3.1c3.1,0,5.9-1.2,8-3.1c2.1,1.9,4.9,3.1,8,3.1c6.6,0,12.1-5.4,12.1-12.1v-16.1h32.2
			c6.6,0,12.1,5.4,12.1,12.1V321.1z M-225.1,321.1"/>
		<linearGradient id="SVGID_3_" gradientUnits="userSpaceOnUse" x1="-410.6812" y1="262.0883" x2="-401.1724" y2="267.5782">
			<stop  offset="0" style="stop-color:#FF6167;stop-opacity:0.8"/>
			<stop  offset="0.1381" style="stop-color:#FB6067;stop-opacity:0.8249"/>
			<stop  offset="0.2696" style="stop-color:#F05C67;stop-opacity:0.8485"/>
			<stop  offset="0.3986" style="stop-color:#DC5666;stop-opacity:0.8717"/>
			<stop  offset="0.526" style="stop-color:#C14E65;stop-opacity:0.8947"/>
			<stop  offset="0.6522" style="stop-color:#9F4365;stop-opacity:0.9174"/>
			<stop  offset="0.7776" style="stop-color:#743663;stop-opacity:0.94"/>
			<stop  offset="0.9" style="stop-color:#422662;stop-opacity:0.962"/>
			<stop  offset="1" style="stop-color:#141861;stop-opacity:0.98"/>
		</linearGradient>
		<rect x="-409.9" y="260.8" class="st2" width="8" height="8"/>
		<linearGradient id="SVGID_4_" gradientUnits="userSpaceOnUse" x1="-394.6057" y1="262.0883" x2="-385.0969" y2="267.5782">
			<stop  offset="0" style="stop-color:#FF6167;stop-opacity:0.8"/>
			<stop  offset="0.1381" style="stop-color:#FB6067;stop-opacity:0.8249"/>
			<stop  offset="0.2696" style="stop-color:#F05C67;stop-opacity:0.8485"/>
			<stop  offset="0.3986" style="stop-color:#DC5666;stop-opacity:0.8717"/>
			<stop  offset="0.526" style="stop-color:#C14E65;stop-opacity:0.8947"/>
			<stop  offset="0.6522" style="stop-color:#9F4365;stop-opacity:0.9174"/>
			<stop  offset="0.7776" style="stop-color:#743663;stop-opacity:0.94"/>
			<stop  offset="0.9" style="stop-color:#422662;stop-opacity:0.962"/>
			<stop  offset="1" style="stop-color:#141861;stop-opacity:0.98"/>
		</linearGradient>
		<rect x="-393.9" y="260.8" class="st3" width="8" height="8"/>
		<linearGradient id="SVGID_5_" gradientUnits="userSpaceOnUse" x1="-378.5305" y1="262.0889" x2="-369.0237" y2="267.5777">
			<stop  offset="0" style="stop-color:#FF6167;stop-opacity:0.8"/>
			<stop  offset="0.1381" style="stop-color:#FB6067;stop-opacity:0.8249"/>
			<stop  offset="0.2696" style="stop-color:#F05C67;stop-opacity:0.8485"/>
			<stop  offset="0.3986" style="stop-color:#DC5666;stop-opacity:0.8717"/>
			<stop  offset="0.526" style="stop-color:#C14E65;stop-opacity:0.8947"/>
			<stop  offset="0.6522" style="stop-color:#9F4365;stop-opacity:0.9174"/>
			<stop  offset="0.7776" style="stop-color:#743663;stop-opacity:0.94"/>
			<stop  offset="0.9" style="stop-color:#422662;stop-opacity:0.962"/>
			<stop  offset="1" style="stop-color:#141861;stop-opacity:0.98"/>
		</linearGradient>
		<rect x="-377.8" y="260.8" class="st4" width="8" height="8"/>
	</g>
</g>
<g>
	<linearGradient id="SVGID_6_" gradientUnits="userSpaceOnUse" x1="48.3785" y1="605.4261" x2="320.626" y2="762.6083">
		<stop  offset="0" style="stop-color:#FF6167;stop-opacity:0.8"/>
		<stop  offset="0.1381" style="stop-color:#FB6067;stop-opacity:0.8249"/>
		<stop  offset="0.2696" style="stop-color:#F05C67;stop-opacity:0.8485"/>
		<stop  offset="0.3986" style="stop-color:#DC5666;stop-opacity:0.8717"/>
		<stop  offset="0.526" style="stop-color:#C14E65;stop-opacity:0.8947"/>
		<stop  offset="0.6522" style="stop-color:#9F4365;stop-opacity:0.9174"/>
		<stop  offset="0.7776" style="stop-color:#743663;stop-opacity:0.94"/>
		<stop  offset="0.9" style="stop-color:#422662;stop-opacity:0.962"/>
		<stop  offset="1" style="stop-color:#141861;stop-opacity:0.98"/>
	</linearGradient>
	<path class="st5" d="M342.4,693.8c0-0.1,0-0.2,0-0.3c0,0,0-0.1,0-0.1c0-0.1,0-0.2,0-0.2c0-0.1,0-0.1,0-0.2c0-0.1,0-0.1,0-0.2
		c0-0.1,0-0.2-0.1-0.2c0,0,0-0.1,0-0.1c0-0.1-0.1-0.2-0.1-0.3c0,0,0,0,0,0l-33.7-74.7H333c4.3,0,7.8-3.5,7.8-7.8v-10.3
		c0-4.3-3.5-7.8-7.8-7.8h-39.7c-7.5,0-14.5-3-19.7-8.5c-8.9-9.4-21.7-14.8-35.1-14.8h-27.4v-9.6c4.9-4,8-10.1,8-16.9
		c0-12.1-9.9-22-22-22c-12.1,0-22,9.9-22,22c0,6.8,3.1,12.9,8,16.9v9.6h-27.4c-13.5,0-26.3,5.4-35.1,14.8
		c-5.2,5.5-12.2,8.5-19.7,8.5H61c-4.3,0-7.8,3.5-7.8,7.8v10.3c0,4.3,3.5,7.8,7.8,7.8h24.6L51.9,692c0,0,0,0,0,0
		c0,0.1-0.1,0.2-0.1,0.3c0,0,0,0.1-0.1,0.1c0,0.1,0,0.2-0.1,0.2c0,0.1,0,0.1,0,0.2c0,0.1,0,0.1,0,0.2c0,0.1,0,0.2,0,0.3
		c0,0,0,0.1,0,0.1c0,0.1,0,0.2,0,0.3c0,0,0,0,0,0v4.3c0,21.6,17.6,39.2,39.2,39.2h3.4c21.6,0,39.2-17.6,39.2-39.2v-4.3c0,0,0,0,0,0
		c0-0.1,0-0.2,0-0.3c0-0.1,0-0.1,0-0.1c0-0.1,0-0.2,0-0.2c0-0.1,0-0.1,0-0.2c0-0.1,0-0.1,0-0.2c0-0.1,0-0.2-0.1-0.2c0,0,0-0.1,0-0.1
		c0-0.1-0.1-0.2-0.1-0.3c0,0,0,0,0,0l-33.7-74.7h3.1c13.5,0,26.3-5.4,35.1-14.8c5.2-5.5,12.2-8.5,19.7-8.5h25.8v172.6h-44.6
		c-7.3,0-13.2,5.9-13.2,13.2v7.7h-7.6c-7.4,0-13.5,6-13.5,13.5v13.8c0,2.4,1.9,4.3,4.3,4.3h177.1c2.4,0,4.3-1.9,4.3-4.3v-13.8
		c0-7.4-6-13.5-13.5-13.5h-7.6v-7.7c0-7.3-5.9-13.2-13.2-13.2h-44.6V641.3c0-2.4-1.9-4.3-4.3-4.3c-2.4,0-4.3,1.9-4.3,4.3v125.2
		h-10.8V593.9h10.8v20c0,2.4,1.9,4.3,4.3,4.3c2.4,0,4.3-1.9,4.3-4.3v-20h27.5c6.2,0,12.3,2.6,16.6,7.2
		c10.1,10.5,23.6,16.2,38.1,16.2h1.4L261.1,692c0,0,0,0,0,0c0,0.1-0.1,0.2-0.1,0.3c0,0,0,0.1,0,0.1c0,0.1,0,0.2-0.1,0.3
		c0,0.1,0,0.1,0,0.2c0,0.1,0,0.1,0,0.2c0,0.1,0,0.2,0,0.2c0,0,0,0.1,0,0.1c0,0.1,0,0.2,0,0.3c0,0,0,0,0,0v4.3
		c0,21.6,17.6,39.2,39.2,39.2h3.4c21.6,0,39.2-17.6,39.2-39.2L342.4,693.8C342.4,693.8,342.4,693.8,342.4,693.8L342.4,693.8z
		 M197,528.1c7.4,0,13.4,6,13.4,13.4c0,4.7-2.5,8.9-6.2,11.3c-0.2,0.1-0.3,0.2-0.5,0.3c-0.1,0.1-0.2,0.1-0.3,0.1
		c-0.2,0.1-0.5,0.2-0.7,0.4c-0.1,0-0.2,0.1-0.3,0.1c-0.2,0.1-0.4,0.2-0.6,0.2c-0.1,0-0.2,0.1-0.2,0.1c-0.3,0.1-0.5,0.2-0.8,0.3
		c-0.1,0-0.1,0-0.2,0.1c-0.2,0.1-0.4,0.1-0.7,0.2c-0.1,0-0.1,0-0.2,0.1c-0.3,0.1-0.6,0.1-0.8,0.2c0,0-0.1,0-0.1,0
		c-0.2,0-0.5,0.1-0.7,0.1c-0.1,0-0.2,0-0.2,0c-0.3,0-0.6,0-0.9,0c-0.3,0-0.6,0-0.9,0c-0.1,0-0.2,0-0.2,0c-0.2,0-0.5,0-0.7-0.1
		c0,0-0.1,0-0.1,0c-0.3,0-0.6-0.1-0.8-0.2c-0.1,0-0.1,0-0.2-0.1c-0.2-0.1-0.4-0.1-0.7-0.2c-0.1,0-0.1,0-0.2-0.1
		c-0.3-0.1-0.5-0.2-0.8-0.3c-0.1,0-0.2-0.1-0.2-0.1c-0.2-0.1-0.4-0.2-0.6-0.2c-0.1,0-0.2-0.1-0.3-0.1c-0.2-0.1-0.5-0.2-0.7-0.4
		c-0.1-0.1-0.2-0.1-0.3-0.2c-0.2-0.1-0.3-0.2-0.5-0.3c-3.7-2.4-6.2-6.5-6.2-11.3C183.6,534.1,189.6,528.1,197,528.1L197,528.1z
		 M202.4,562.8v5.2h-10.8v-5.2c0.1,0,0.1,0,0.2,0c0.3,0.1,0.7,0.2,1,0.2c0.1,0,0.2,0,0.3,0.1c0.3,0.1,0.7,0.1,1,0.2
		c0.1,0,0.2,0,0.2,0c0.9,0.1,1.7,0.2,2.6,0.2c0.5,0,0.9,0,1.4,0c0,0,0,0,0,0c0.4,0,0.8-0.1,1.3-0.1c0.1,0,0.2,0,0.2,0
		c0.3,0,0.7-0.1,1-0.2c0.1,0,0.2,0,0.3-0.1c0.3-0.1,0.7-0.1,1-0.2C202.3,562.8,202.3,562.8,202.4,562.8L202.4,562.8z M94.1,728.6
		h-3.4c-16.8,0-30.5-13.7-30.5-30.5h64.4C124.6,715,110.9,728.6,94.1,728.6L94.1,728.6z M122.3,689.5H62.6l29.8-66.3L122.3,689.5z
		 M255.6,775.1c2.5,0,4.6,2.1,4.6,4.6v7.7h-90.4c-2.4,0-4.3,1.9-4.3,4.3c0,2.4,1.9,4.3,4.3,4.3h106.6c2.6,0,4.8,2.2,4.8,4.8v9.5
		H112.8v-9.5c0-2.6,2.2-4.8,4.8-4.8h24.6c2.4,0,4.3-1.9,4.3-4.3c0-2.4-1.9-4.3-4.3-4.3h-8.4v-7.7c0-2.5,2.1-4.6,4.6-4.6H255.6z
		 M293.3,608.6c-12.1,0-23.5-4.8-31.9-13.6c-6-6.2-14.3-9.8-22.9-9.8h-81.4c-10,0-19.2,4-26,11.3c-7.2,7.7-17.7,12.1-28.8,12.1H61.8
		v-8.6h38.8c10,0,19.2-4,26-11.3c7.2-7.7,17.7-12.1,28.8-12.1h82.9c11.1,0,21.6,4.4,28.8,12.1c6.8,7.3,16.1,11.3,26,11.3h38.8v8.6
		H293.3z M301.5,623.2l29.9,66.3h-59.7L301.5,623.2z M303.2,728.6h-3.4c-16.8,0-30.5-13.7-30.5-30.5h64.4
		C333.7,715,320.1,728.6,303.2,728.6L303.2,728.6z M303.2,728.6"/>
</g>
<g>
	<linearGradient id="SVGID_7_" gradientUnits="userSpaceOnUse" x1="598.7805" y1="120.3239" x2="858.6247" y2="270.345">
		<stop  offset="0" style="stop-color:#FF6167;stop-opacity:0.8"/>
		<stop  offset="0.1381" style="stop-color:#FB6067;stop-opacity:0.8249"/>
		<stop  offset="0.2696" style="stop-color:#F05C67;stop-opacity:0.8485"/>
		<stop  offset="0.3986" style="stop-color:#DC5666;stop-opacity:0.8717"/>
		<stop  offset="0.526" style="stop-color:#C14E65;stop-opacity:0.8947"/>
		<stop  offset="0.6522" style="stop-color:#9F4365;stop-opacity:0.9174"/>
		<stop  offset="0.7776" style="stop-color:#743663;stop-opacity:0.94"/>
		<stop  offset="0.9" style="stop-color:#422662;stop-opacity:0.962"/>
		<stop  offset="1" style="stop-color:#141861;stop-opacity:0.98"/>
	</linearGradient>
	<path class="st6" d="M867.3,200.1l-21.8-39.5c0-4.8-0.1-19.3-0.4-22.2c0-0.1,0-0.1,0-0.2l-0.9-8.5c0-0.1,0-0.1,0-0.2
		c-4.3-29-18.8-53-41.9-69.4c-21.6-15.3-49.7-23.5-81.3-23.8c-0.3,0-0.7,0-1,0c-68.5,0-124.8,55.4-125.7,124
		c-0.7,51.9,30.6,98.7,78.4,118.1l-11,51.8c-0.4,1.7,0,3.4,1,4.8c1,1.4,2.5,2.3,4.2,2.5l96.2,12.8c0.3,0,0.5,0.1,0.8,0.1
		c2.7,0,5.2-1.8,5.9-4.5l12.7-47.1c0.9,0.1,1.9,0.2,3,0.3c5.7,0.5,12.8,1.1,17.8,1.5c4.3,0.4,25.9,2.2,27,2.2c4.7,0,9-1.8,12.2-5.1
		c3-3.1,4.6-7.3,4.4-11.6v-63.6l10.4-1.8c4.5-0.7,8.3-3.5,10.3-7.6C869.6,208.9,869.5,204.1,867.3,200.1L867.3,200.1z M856.6,207.6
		c-0.2,0.4-0.5,0.8-1.2,0.9c0,0-0.1,0-0.1,0l-15.6,2.7c-3,0.5-5.1,3.1-5.1,6V286c0,0.1,0,0.2,0,0.3c0.1,1.3-0.5,2.2-1,2.8
		c-0.8,0.8-1.9,1.3-3.2,1.3c-3.5-0.2-47.3-3.9-51.4-4.4c-0.8-0.2-1.6-0.2-2.4,0c-2.3,0.5-4.1,2.2-4.7,4.4l-12.6,46.9l-84.3-11.2
		l9.5-44.6l42.4,8.3c0.4,0.1,0.8,0.1,1.2,0.1c2.9,0,5.4-2,6-5c0.6-3.3-1.5-6.5-4.8-7.2l-47.8-9.3c-45.4-16.4-75.5-59.8-74.9-108.1
		c0.8-62.2,52-112.4,114.3-111.9c61.1,0.5,103.7,32.1,111.2,82.6l0.9,8.3c0.1,1.9,0.2,9.3,0.3,15.2H820c-3.4,0-6.1,2.7-6.1,6.1
		c0,3.4,2.7,6.1,6.1,6.1h14.9l21.7,39.2C856.9,206.7,856.8,207.2,856.6,207.6L856.6,207.6z M856.6,207.6"/>
	<linearGradient id="SVGID_8_" gradientUnits="userSpaceOnUse" x1="636.8293" y1="110.8908" x2="788.0701" y2="198.2097">
		<stop  offset="0" style="stop-color:#FF6167;stop-opacity:0.8"/>
		<stop  offset="0.1381" style="stop-color:#FB6067;stop-opacity:0.8249"/>
		<stop  offset="0.2696" style="stop-color:#F05C67;stop-opacity:0.8485"/>
		<stop  offset="0.3986" style="stop-color:#DC5666;stop-opacity:0.8717"/>
		<stop  offset="0.526" style="stop-color:#C14E65;stop-opacity:0.8947"/>
		<stop  offset="0.6522" style="stop-color:#9F4365;stop-opacity:0.9174"/>
		<stop  offset="0.7776" style="stop-color:#743663;stop-opacity:0.94"/>
		<stop  offset="0.9" style="stop-color:#422662;stop-opacity:0.962"/>
		<stop  offset="1" style="stop-color:#141861;stop-opacity:0.98"/>
	</linearGradient>
	<path class="st7" d="M796.9,154.6c0-10.7-5.4-20.5-14.2-26.3c3-7.4,3.1-15.8-0.1-23.1c0-0.1-0.1-0.1-0.1-0.2
		c-5.5-11.7-15.9-18.4-28.3-18.5c-5.3-10.1-15.1-16-27.3-16.4c-0.1,0-0.1,0-0.2,0c-5.1,0-9.9,1.2-14.3,3.4
		c-7.4-3.9-15.7-4.4-24.9-1.6c-0.1,0-0.2,0.1-0.3,0.1c-6.7,2.4-12.2,7-15.8,12.9c-0.2,0-0.3,0-0.4,0c-10.8,0-20.9,5.2-27,13.8
		c-6.3,9-7.4,20.6-3.2,30.5c-8.1,5.9-12.9,15.2-12.9,25.4c0,10.7,5.4,20.5,14.2,26.3c-3,7.4-3.1,15.8,0.1,23.1
		c0,0.1,0.1,0.1,0.1,0.2c5.5,11.7,15.9,18.4,28.3,18.5c5.3,10.1,15.1,16,27.3,16.4c0.1,0,0.1,0,0.2,0c5.3,0,10.5-1.3,15-3.7
		c3.7,1.2,10.1,3,16.5,3c2.6,0,5.2-0.3,7.7-1c0.1,0,0.2-0.1,0.3-0.1c6.7-2.4,12.2-7,15.8-12.9c0.2,0,0.3,0,0.4,0
		c10.8,0,20.9-5.2,27-13.8c6.3-9,7.4-20.6,3.2-30.5C792.1,174.1,796.9,164.8,796.9,154.6L796.9,154.6z M706.3,225
		c-2.5,1.2-5.3,1.8-8.1,1.8c-8.7-0.3-15-4.8-17.9-12.6c-0.9-2.4-3.2-4-5.7-4c-0.2,0-0.5,0-0.7,0c-9,1.1-16.4-3-20.3-11.2
		c-1.6-3.9-1.7-8.2-0.5-12.1c1.9,0.7,3.9,1,5.9,1c4.4,0,8.8-1.7,12.2-5c2.4-2.4,2.4-6.3,0-8.7s-6.3-2.4-8.7,0c-2,2-5.4,1.8-7.5-0.3
		c-0.1-0.1-0.1-0.1-0.2-0.1c-0.1-0.1-0.1-0.1-0.2-0.2c-0.1-0.1-0.2-0.2-0.3-0.3c-0.1,0-0.1-0.1-0.2-0.1c-0.2-0.1-0.3-0.2-0.5-0.3
		c0,0-0.1,0-0.1-0.1c-0.2-0.1-0.4-0.2-0.6-0.3c-7.7-3.1-12.6-10.2-12.6-18.2c0-5.3,2.1-10.1,5.8-13.7c3.1,4.6,8.4,7.6,14.3,7.6
		c3.4,0,6.1-2.7,6.1-6.1s-2.7-6.1-6.1-6.1c-2.8,0-5-2.2-5.1-5.1c0,0,0-0.1,0-0.1c0-0.1,0-0.2,0-0.3c0-0.1,0-0.2,0-0.4
		c0-0.1,0-0.2,0-0.2c0-0.1-0.1-0.3-0.1-0.4c0-0.1,0-0.1-0.1-0.2c0-0.1-0.1-0.3-0.1-0.4c0-0.1-0.1-0.1-0.1-0.2
		c-0.1-0.1-0.1-0.3-0.2-0.4c0-0.1-0.1-0.1-0.1-0.2c-0.1-0.1-0.1-0.2-0.2-0.4c0,0-0.1-0.1-0.1-0.1c-4.7-6.7-4.7-15.5,0-22.1
		c3.6-5.1,9.5-8.3,15.9-8.6c2.4,6.7,8.9,11.6,16.6,11.6c3.4,0,6.1-2.7,6.1-6.1c0-3.4-2.7-6.1-6.1-6.1c-2.6,0-4.7-1.8-5.2-4.1
		c2-4.1,5.5-7.2,10-8.8c5.8-1.7,10.6-1.6,15,0.5V225z M778.9,168.3c-3.1-4.6-8.4-7.6-14.3-7.6c-3.4,0-6.1,2.7-6.1,6.1
		s2.7,6.1,6.1,6.1c2.8,0,5,2.2,5.1,5.1c0,0,0,0.1,0,0.1c0,0.1,0,0.2,0,0.3c0,0.1,0,0.3,0,0.4c0,0.1,0,0.1,0,0.2
		c0,0.1,0.1,0.3,0.1,0.4c0,0.1,0,0.1,0.1,0.2c0,0.1,0.1,0.3,0.1,0.4c0,0.1,0,0.1,0.1,0.2c0.1,0.1,0.1,0.3,0.2,0.4c0,0,0,0.1,0.1,0.1
		c0.1,0.2,0.2,0.3,0.3,0.5c0,0,0,0,0,0.1c4.7,6.7,4.7,15.5,0,22.1c-3.6,5.1-9.5,8.3-15.9,8.6c-2.4-6.7-8.9-11.6-16.6-11.6
		c-3.4,0-6.1,2.7-6.1,6.1c0,3.4,2.7,6.1,6.1,6.1c2.6,0,4.7,1.7,5.2,4.1c-2,4-5.5,7.1-10,8.8c-4,1.1-10.2,0-15-1.4V84.1
		c2.5-1.2,5.3-1.8,8.1-1.8c8.7,0.3,15,4.8,17.9,12.6c1,2.7,3.7,4.3,6.5,3.9c9-1.1,16.4,3,20.3,11.2c1.6,3.9,1.7,8.2,0.5,12.1
		c-6.2-2.1-13.2-0.8-18,4c-2.4,2.4-2.4,6.3,0,8.7c2.4,2.4,6.3,2.4,8.7,0c2-2,5.4-1.8,7.5,0.3c0.1,0.1,0.1,0.1,0.2,0.1
		c0.1,0.1,0.1,0.1,0.2,0.2c0.1,0.1,0.2,0.2,0.3,0.3c0.1,0,0.1,0.1,0.2,0.1c0.1,0.1,0.3,0.2,0.5,0.3c0,0,0.1,0,0.1,0.1
		c0.2,0.1,0.4,0.2,0.6,0.3c7.7,3.1,12.6,10.2,12.6,18.2C784.7,159.8,782.6,164.7,778.9,168.3L778.9,168.3z M778.9,168.3"/>
</g>
<g>
	<linearGradient id="SVGID_9_" gradientUnits="userSpaceOnUse" x1="870.3519" y1="77.4796" x2="942.134" y2="118.923">
		<stop  offset="0" style="stop-color:#FF6167;stop-opacity:0.8"/>
		<stop  offset="0.1381" style="stop-color:#FB6067;stop-opacity:0.8249"/>
		<stop  offset="0.2696" style="stop-color:#F05C67;stop-opacity:0.8485"/>
		<stop  offset="0.3986" style="stop-color:#DC5666;stop-opacity:0.8717"/>
		<stop  offset="0.526" style="stop-color:#C14E65;stop-opacity:0.8947"/>
		<stop  offset="0.6522" style="stop-color:#9F4365;stop-opacity:0.9174"/>
		<stop  offset="0.7776" style="stop-color:#743663;stop-opacity:0.94"/>
		<stop  offset="0.9" style="stop-color:#422662;stop-opacity:0.962"/>
		<stop  offset="1" style="stop-color:#141861;stop-opacity:0.98"/>
	</linearGradient>
	<path class="st8" d="M944.5,99.5l-6-10.9c0-1.3,0-5.3-0.1-6.1c0,0,0,0,0-0.1l-0.3-2.3c0,0,0,0,0-0.1c-1.2-8-5.2-14.6-11.6-19.2
		c-6-4.2-13.7-6.5-22.5-6.6c-0.1,0-0.2,0-0.3,0c-18.9,0-34.5,15.3-34.7,34.3c-0.2,14.3,8.5,27.3,21.7,32.6l-3,14.3
		c-0.1,0.5,0,0.9,0.3,1.3c0.3,0.4,0.7,0.6,1.2,0.7l26.6,3.5c0.1,0,0.1,0,0.2,0c0.8,0,1.4-0.5,1.6-1.3l3.5-13c0.3,0,0.5,0,0.8,0.1
		c1.6,0.1,3.5,0.3,4.9,0.4c1.2,0.1,7.2,0.6,7.5,0.6c1.3,0,2.5-0.5,3.4-1.4c0.8-0.9,1.3-2,1.2-3.2v-17.6l2.9-0.5
		c1.2-0.2,2.3-1,2.9-2.1C945.2,101.9,945.1,100.6,944.5,99.5L944.5,99.5z M941.6,101.6c0,0.1-0.1,0.2-0.3,0.2c0,0,0,0,0,0l-4.3,0.7
		c-0.8,0.1-1.4,0.8-1.4,1.7v19c0,0,0,0,0,0.1c0,0.4-0.1,0.6-0.3,0.8c-0.2,0.2-0.5,0.4-0.9,0.4c-1-0.1-13.1-1.1-14.2-1.2
		c-0.2,0-0.4,0-0.7,0c-0.6,0.1-1.1,0.6-1.3,1.2l-3.5,13l-23.3-3.1L894,122l11.7,2.3c0.1,0,0.2,0,0.3,0c0.8,0,1.5-0.6,1.7-1.4
		c0.2-0.9-0.4-1.8-1.3-2l-13.2-2.6c-12.5-4.5-20.8-16.5-20.7-29.9c0.2-17.2,14.4-31,31.6-30.9c16.9,0.1,28.6,8.9,30.7,22.8l0.3,2.3
		c0,0.5,0.1,2.6,0.1,4.2h-3.6c-0.9,0-1.7,0.8-1.7,1.7c0,0.9,0.8,1.7,1.7,1.7h4.1l6,10.8C941.7,101.3,941.6,101.5,941.6,101.6
		L941.6,101.6z M941.6,101.6"/>
	<linearGradient id="SVGID_10_" gradientUnits="userSpaceOnUse" x1="880.8629" y1="74.8737" x2="922.6432" y2="98.9956">
		<stop  offset="0" style="stop-color:#FF6167;stop-opacity:0.8"/>
		<stop  offset="0.1381" style="stop-color:#FB6067;stop-opacity:0.8249"/>
		<stop  offset="0.2696" style="stop-color:#F05C67;stop-opacity:0.8485"/>
		<stop  offset="0.3986" style="stop-color:#DC5666;stop-opacity:0.8717"/>
		<stop  offset="0.526" style="stop-color:#C14E65;stop-opacity:0.8947"/>
		<stop  offset="0.6522" style="stop-color:#9F4365;stop-opacity:0.9174"/>
		<stop  offset="0.7776" style="stop-color:#743663;stop-opacity:0.94"/>
		<stop  offset="0.9" style="stop-color:#422662;stop-opacity:0.962"/>
		<stop  offset="1" style="stop-color:#141861;stop-opacity:0.98"/>
	</linearGradient>
	<path class="st9" d="M925.1,86.9c0-3-1.5-5.7-3.9-7.3c0.8-2,0.9-4.4,0-6.4c0,0,0,0,0-0.1c-1.5-3.2-4.4-5.1-7.8-5.1
		c-1.5-2.8-4.2-4.4-7.5-4.5c0,0,0,0-0.1,0c-1.4,0-2.7,0.3-4,0.9c-2-1.1-4.3-1.2-6.9-0.4c0,0-0.1,0-0.1,0c-1.8,0.7-3.4,1.9-4.4,3.6
		c0,0-0.1,0-0.1,0c-3,0-5.8,1.4-7.5,3.8c-1.8,2.5-2,5.7-0.9,8.4c-2.2,1.6-3.6,4.2-3.6,7c0,3,1.5,5.7,3.9,7.3c-0.8,2-0.9,4.4,0,6.4
		c0,0,0,0,0,0.1c1.5,3.2,4.4,5.1,7.8,5.1c1.5,2.8,4.2,4.4,7.5,4.5c0,0,0,0,0.1,0c1.5,0,2.9-0.4,4.2-1c1,0.3,2.8,0.8,4.6,0.8
		c0.7,0,1.4-0.1,2.1-0.3c0,0,0.1,0,0.1,0c1.8-0.7,3.4-1.9,4.4-3.6c0,0,0.1,0,0.1,0c3,0,5.8-1.4,7.5-3.8c1.8-2.5,2-5.7,0.9-8.4
		C923.8,92.3,925.1,89.8,925.1,86.9L925.1,86.9z M900.1,106.4c-0.7,0.3-1.5,0.5-2.3,0.5c-2.4-0.1-4.2-1.3-5-3.5
		c-0.2-0.7-0.9-1.1-1.6-1.1c-0.1,0-0.1,0-0.2,0c-2.5,0.3-4.5-0.8-5.6-3.1c-0.4-1.1-0.5-2.3-0.1-3.3c0.5,0.2,1.1,0.3,1.6,0.3
		c1.2,0,2.4-0.5,3.4-1.4c0.7-0.7,0.7-1.7,0-2.4c-0.7-0.7-1.7-0.7-2.4,0c-0.5,0.5-1.5,0.5-2.1-0.1c0,0,0,0,0,0c0,0,0,0-0.1,0
		c0,0-0.1,0-0.1-0.1c0,0,0,0,0,0c0,0-0.1-0.1-0.1-0.1c0,0,0,0,0,0c-0.1,0-0.1-0.1-0.2-0.1c-2.1-0.9-3.5-2.8-3.5-5
		c0-1.5,0.6-2.8,1.6-3.8c0.9,1.3,2.3,2.1,4,2.1c0.9,0,1.7-0.8,1.7-1.7c0-0.9-0.8-1.7-1.7-1.7c-0.8,0-1.4-0.6-1.4-1.4c0,0,0,0,0,0
		c0,0,0-0.1,0-0.1c0,0,0-0.1,0-0.1c0,0,0,0,0-0.1c0,0,0-0.1,0-0.1c0,0,0,0,0-0.1c0,0,0-0.1,0-0.1c0,0,0,0,0-0.1c0,0,0-0.1,0-0.1
		c0,0,0,0,0-0.1c0,0,0-0.1-0.1-0.1c0,0,0,0,0,0c-1.3-1.8-1.3-4.3,0-6.1c1-1.4,2.6-2.3,4.4-2.4c0.7,1.9,2.5,3.2,4.6,3.2
		c0.9,0,1.7-0.8,1.7-1.7c0-0.9-0.8-1.7-1.7-1.7c-0.7,0-1.3-0.5-1.4-1.1c0.6-1.1,1.5-2,2.8-2.4c1.6-0.5,2.9-0.4,4.1,0.1V106.4z
		 M920.1,90.7c-0.9-1.3-2.3-2.1-4-2.1c-0.9,0-1.7,0.8-1.7,1.7s0.8,1.7,1.7,1.7c0.8,0,1.4,0.6,1.4,1.4c0,0,0,0,0,0c0,0,0,0,0,0.1
		c0,0,0,0.1,0,0.1c0,0,0,0,0,0.1c0,0,0,0.1,0,0.1c0,0,0,0,0,0.1c0,0,0,0.1,0,0.1c0,0,0,0,0,0c0,0,0,0.1,0.1,0.1c0,0,0,0,0,0
		c0,0,0.1,0.1,0.1,0.1c0,0,0,0,0,0c1.3,1.8,1.3,4.3,0,6.1c-1,1.4-2.6,2.3-4.4,2.4c-0.7-1.9-2.5-3.2-4.6-3.2c-0.9,0-1.7,0.8-1.7,1.7
		c0,0.9,0.8,1.7,1.7,1.7c0.7,0,1.3,0.5,1.4,1.1c-0.6,1.1-1.5,2-2.8,2.4c-1.1,0.3-2.8,0-4.1-0.4V67.5c0.7-0.3,1.5-0.5,2.2-0.5
		c2.4,0.1,4.2,1.3,5,3.5c0.3,0.7,1,1.2,1.8,1.1c2.5-0.3,4.5,0.8,5.6,3.1c0.4,1.1,0.5,2.3,0.1,3.3c-1.7-0.6-3.6-0.2-5,1.1
		c-0.7,0.7-0.7,1.7,0,2.4c0.7,0.7,1.7,0.7,2.4,0c0.5-0.5,1.5-0.5,2.1,0.1c0,0,0,0,0,0c0,0,0,0,0.1,0c0,0,0.1,0.1,0.1,0.1
		c0,0,0,0,0,0c0,0,0.1,0.1,0.1,0.1c0,0,0,0,0,0c0.1,0,0.1,0.1,0.2,0.1c2.1,0.9,3.5,2.8,3.5,5C921.7,88.4,921.1,89.7,920.1,90.7
		L920.1,90.7z M920.1,90.7"/>
</g>
<g>
	<linearGradient id="SVGID_11_" gradientUnits="userSpaceOnUse" x1="204.8133" y1="286.412" x2="211.7101" y2="298.3575">
		<stop  offset="0" style="stop-color:#FF6167;stop-opacity:0.8"/>
		<stop  offset="0.1381" style="stop-color:#FB6067;stop-opacity:0.8249"/>
		<stop  offset="0.2696" style="stop-color:#F05C67;stop-opacity:0.8485"/>
		<stop  offset="0.3986" style="stop-color:#DC5666;stop-opacity:0.8717"/>
		<stop  offset="0.526" style="stop-color:#C14E65;stop-opacity:0.8947"/>
		<stop  offset="0.6522" style="stop-color:#9F4365;stop-opacity:0.9174"/>
		<stop  offset="0.7776" style="stop-color:#743663;stop-opacity:0.94"/>
		<stop  offset="0.9" style="stop-color:#422662;stop-opacity:0.962"/>
		<stop  offset="1" style="stop-color:#141861;stop-opacity:0.98"/>
	</linearGradient>
	<path class="st10" d="M210.1,285.8c-2.4-1.2-5.2-0.2-6.4,2.2c-0.7,1.5-0.6,3.2,0.1,4.5c-0.8,1.4-0.9,3.2-0.1,4.7
		c0.9,1.6,2.5,2.6,4.3,2.6c0.8,0,1.5-0.2,2.3-0.6c4.1-2.2,4.7-5.1,4.6-6.7C214.8,289.3,212.3,287,210.1,285.8L210.1,285.8z
		 M210.1,285.8"/>
	<linearGradient id="SVGID_12_" gradientUnits="userSpaceOnUse" x1="194.4051" y1="134.6425" x2="207.2209" y2="156.8401">
		<stop  offset="0" style="stop-color:#FF6167;stop-opacity:0.8"/>
		<stop  offset="0.1381" style="stop-color:#FB6067;stop-opacity:0.8249"/>
		<stop  offset="0.2696" style="stop-color:#F05C67;stop-opacity:0.8485"/>
		<stop  offset="0.3986" style="stop-color:#DC5666;stop-opacity:0.8717"/>
		<stop  offset="0.526" style="stop-color:#C14E65;stop-opacity:0.8947"/>
		<stop  offset="0.6522" style="stop-color:#9F4365;stop-opacity:0.9174"/>
		<stop  offset="0.7776" style="stop-color:#743663;stop-opacity:0.94"/>
		<stop  offset="0.9" style="stop-color:#422662;stop-opacity:0.962"/>
		<stop  offset="1" style="stop-color:#141861;stop-opacity:0.98"/>
	</linearGradient>
	<path class="st11" d="M200.9,138.4c1.8,1.5,2.2,2.3,2.2,2.2c0,1.9-2,4.8-3.6,6.4l-6.3,7c-1.8,2-1.6,5,0.4,6.8
		c0.9,0.8,2.1,1.2,3.2,1.2c1.3,0,2.6-0.5,3.6-1.6l6.1-6.8c0.6-0.6,6.2-6.4,6.2-13.1c0-3.3-1.9-6.5-5.7-9.7c-2.1-1.7-5.1-1.4-6.8,0.7
		C198.5,133.7,198.8,136.8,200.9,138.4L200.9,138.4z M200.9,138.4"/>
	<linearGradient id="SVGID_13_" gradientUnits="userSpaceOnUse" x1="136.2118" y1="212.1526" x2="163.5952" y2="259.5821">
		<stop  offset="0" style="stop-color:#FF6167;stop-opacity:0.8"/>
		<stop  offset="0.1381" style="stop-color:#FB6067;stop-opacity:0.8249"/>
		<stop  offset="0.2696" style="stop-color:#F05C67;stop-opacity:0.8485"/>
		<stop  offset="0.3986" style="stop-color:#DC5666;stop-opacity:0.8717"/>
		<stop  offset="0.526" style="stop-color:#C14E65;stop-opacity:0.8947"/>
		<stop  offset="0.6522" style="stop-color:#9F4365;stop-opacity:0.9174"/>
		<stop  offset="0.7776" style="stop-color:#743663;stop-opacity:0.94"/>
		<stop  offset="0.9" style="stop-color:#422662;stop-opacity:0.962"/>
		<stop  offset="1" style="stop-color:#141861;stop-opacity:0.98"/>
	</linearGradient>
	<path class="st12" d="M156.7,256.7c-5.2-5.6-11.5-14.4-11.5-24.4c0-6,2.2-12.2,6.7-18.6c1.5-2.2,1-5.2-1.2-6.7
		c-2.2-1.5-5.2-1-6.7,1.2c-5.6,8-8.4,16.1-8.4,24.1c0,13.2,7.7,24.2,14.1,31c0.9,1,2.2,1.5,3.5,1.5c1.2,0,2.4-0.4,3.3-1.3
		C158.4,261.7,158.5,258.7,156.7,256.7L156.7,256.7z M156.7,256.7"/>
	<linearGradient id="SVGID_14_" gradientUnits="userSpaceOnUse" x1="87.8394" y1="71.2668" x2="135.4304" y2="153.6968">
		<stop  offset="0" style="stop-color:#FF6167;stop-opacity:0.8"/>
		<stop  offset="0.1381" style="stop-color:#FB6067;stop-opacity:0.8249"/>
		<stop  offset="0.2696" style="stop-color:#F05C67;stop-opacity:0.8485"/>
		<stop  offset="0.3986" style="stop-color:#DC5666;stop-opacity:0.8717"/>
		<stop  offset="0.526" style="stop-color:#C14E65;stop-opacity:0.8947"/>
		<stop  offset="0.6522" style="stop-color:#9F4365;stop-opacity:0.9174"/>
		<stop  offset="0.7776" style="stop-color:#743663;stop-opacity:0.94"/>
		<stop  offset="0.9" style="stop-color:#422662;stop-opacity:0.962"/>
		<stop  offset="1" style="stop-color:#141861;stop-opacity:0.98"/>
	</linearGradient>
	<path class="st13" d="M105.1,160.2c-14.3,4.8-22.5,3.9-28.3-3.1l-4.7-7.5l20.4-1.7c2.7-0.2,4.6-2.5,4.4-5.2
		c-0.2-2.7-2.5-4.6-5.2-4.4l-25.4,2.1l-6.7-10.7l33.4-6c2.6-0.5,4.4-3,3.9-5.6c-0.5-2.6-3-4.4-5.6-3.9l-37.1,6.7L53,119
		c-3.1-5.5-4.2-7.7-4.2-12.1c0-1.8,2.6-3.9,6-5l105.8-19.2c2.6-0.5,4.4-3,3.9-5.6c-0.5-2.6-3-4.4-5.6-3.9L52.7,92.5
		c-0.2,0-0.4,0.1-0.5,0.1c-7.9,2.4-13.1,8-13.1,14.3c0,6.9,2,10.7,5.6,17l24.1,38.6c0.1,0.2,0.2,0.3,0.3,0.5c6,7.4,13.4,9.9,21,9.9
		c6.2,0,12.5-1.6,18.1-3.5c2.5-0.8,3.9-3.6,3.1-6.1C110.4,160.7,107.6,159.3,105.1,160.2L105.1,160.2z M105.1,160.2"/>
	<linearGradient id="SVGID_15_" gradientUnits="userSpaceOnUse" x1="198.5599" y1="94.0291" x2="245.9857" y2="176.1731">
		<stop  offset="0" style="stop-color:#FF6167;stop-opacity:0.8"/>
		<stop  offset="0.1381" style="stop-color:#FB6067;stop-opacity:0.8249"/>
		<stop  offset="0.2696" style="stop-color:#F05C67;stop-opacity:0.8485"/>
		<stop  offset="0.3986" style="stop-color:#DC5666;stop-opacity:0.8717"/>
		<stop  offset="0.526" style="stop-color:#C14E65;stop-opacity:0.8947"/>
		<stop  offset="0.6522" style="stop-color:#9F4365;stop-opacity:0.9174"/>
		<stop  offset="0.7776" style="stop-color:#743663;stop-opacity:0.94"/>
		<stop  offset="0.9" style="stop-color:#422662;stop-opacity:0.962"/>
		<stop  offset="1" style="stop-color:#141861;stop-opacity:0.98"/>
	</linearGradient>
	<path class="st14" d="M224.5,92.9c-3.6-1.8-9.5-3.1-16.3-3.5c-2.6-0.1-5,1.8-5.1,4.5c-0.2,2.7,1.8,5,4.5,5.1
		c6.1,0.4,10.7,1.6,12.7,2.5c8,4,21.4,16.7,21.4,39.1c0,21.5-22.9,40.1-23.2,40.3c-2.1,1.7-2.4,4.7-0.7,6.8c1,1.2,2.4,1.8,3.8,1.8
		c1.1,0,2.1-0.3,3-1.1c1.1-0.9,26.8-21.7,26.8-47.8C251.3,113.5,234.5,97.9,224.5,92.9L224.5,92.9z M224.5,92.9"/>
	<linearGradient id="SVGID_16_" gradientUnits="userSpaceOnUse" x1="243.0462" y1="52.09" x2="305.86" y2="160.8866">
		<stop  offset="0" style="stop-color:#FF6167;stop-opacity:0.8"/>
		<stop  offset="0.1381" style="stop-color:#FB6067;stop-opacity:0.8249"/>
		<stop  offset="0.2696" style="stop-color:#F05C67;stop-opacity:0.8485"/>
		<stop  offset="0.3986" style="stop-color:#DC5666;stop-opacity:0.8717"/>
		<stop  offset="0.526" style="stop-color:#C14E65;stop-opacity:0.8947"/>
		<stop  offset="0.6522" style="stop-color:#9F4365;stop-opacity:0.9174"/>
		<stop  offset="0.7776" style="stop-color:#743663;stop-opacity:0.94"/>
		<stop  offset="0.9" style="stop-color:#422662;stop-opacity:0.962"/>
		<stop  offset="1" style="stop-color:#141861;stop-opacity:0.98"/>
	</linearGradient>
	<path class="st15" d="M315.4,92.6c-0.2,0-0.4-0.1-0.5-0.1L208.8,73.2c-2.6-0.5-5.1,1.3-5.6,3.9c-0.5,2.6,1.3,5.1,3.9,5.6
		l105.8,19.2c3.4,1.1,6,3.2,6,5c0,4.4-1.1,6.6-4.1,11.9l-1.3,2.1l-37.1-6.7c-2.6-0.5-5.1,1.3-5.6,3.9c-0.5,2.6,1.3,5.1,3.9,5.6
		l33.4,6l-6.7,10.7l-25.4-2.1c-2.7-0.2-5,1.8-5.2,4.4c-0.2,2.7,1.8,5,4.4,5.2l20.4,1.7l-4.7,7.5c-5.8,7-14,7.8-28.3,3.1
		c-2.5-0.8-5.3,0.5-6.1,3.1c-0.8,2.5,0.5,5.3,3.1,6.1c5.6,1.9,11.9,3.5,18.1,3.5c7.5,0,15-2.4,21-9.9c0.1-0.1,0.2-0.3,0.3-0.5
		l24.2-38.8c3.5-6.2,5.4-10,5.4-16.8C328.5,100.6,323.4,95,315.4,92.6L315.4,92.6z M315.4,92.6"/>
	<linearGradient id="SVGID_17_" gradientUnits="userSpaceOnUse" x1="166.0854" y1="225.4258" x2="175.3842" y2="241.5319">
		<stop  offset="0" style="stop-color:#FF6167;stop-opacity:0.8"/>
		<stop  offset="0.1381" style="stop-color:#FB6067;stop-opacity:0.8249"/>
		<stop  offset="0.2696" style="stop-color:#F05C67;stop-opacity:0.8485"/>
		<stop  offset="0.3986" style="stop-color:#DC5666;stop-opacity:0.8717"/>
		<stop  offset="0.526" style="stop-color:#C14E65;stop-opacity:0.8947"/>
		<stop  offset="0.6522" style="stop-color:#9F4365;stop-opacity:0.9174"/>
		<stop  offset="0.7776" style="stop-color:#743663;stop-opacity:0.94"/>
		<stop  offset="0.9" style="stop-color:#422662;stop-opacity:0.962"/>
		<stop  offset="1" style="stop-color:#141861;stop-opacity:0.98"/>
	</linearGradient>
	<path class="st16" d="M171.9,224.2c-2.5-1-5.3,0.2-6.3,2.6c-0.8,1.9-1.1,3.7-1.1,5.4c0,2.7,0.9,5.6,2.8,8.5
		c0.9,1.5,2.5,2.3,4.1,2.3c0.9,0,1.7-0.2,2.5-0.7c2.3-1.4,3-4.4,1.6-6.6c-1.1-1.9-1.3-3-1.3-3.5c0-0.5,0.1-1.1,0.4-1.8
		C175.6,228,174.4,225.2,171.9,224.2L171.9,224.2z M171.9,224.2"/>
	<linearGradient id="SVGID_18_" gradientUnits="userSpaceOnUse" x1="167.0475" y1="107.5084" x2="171.8814" y2="115.8811">
		<stop  offset="0" style="stop-color:#FF6167;stop-opacity:0.8"/>
		<stop  offset="0.1381" style="stop-color:#FB6067;stop-opacity:0.8249"/>
		<stop  offset="0.2696" style="stop-color:#F05C67;stop-opacity:0.8485"/>
		<stop  offset="0.3986" style="stop-color:#DC5666;stop-opacity:0.8717"/>
		<stop  offset="0.526" style="stop-color:#C14E65;stop-opacity:0.8947"/>
		<stop  offset="0.6522" style="stop-color:#9F4365;stop-opacity:0.9174"/>
		<stop  offset="0.7776" style="stop-color:#743663;stop-opacity:0.94"/>
		<stop  offset="0.9" style="stop-color:#422662;stop-opacity:0.962"/>
		<stop  offset="1" style="stop-color:#141861;stop-opacity:0.98"/>
	</linearGradient>
	<path class="st17" d="M169.5,116.5c2.7,0,4.8-2.2,4.8-4.8c0-2.7-2.2-4.8-4.8-4.8h0c-2.7,0-4.8,2.2-4.8,4.8
		C164.6,114.4,166.8,116.5,169.5,116.5L169.5,116.5z M169.5,116.5"/>
	<linearGradient id="SVGID_19_" gradientUnits="userSpaceOnUse" x1="120.1364" y1="83.5211" x2="247.5978" y2="304.2908">
		<stop  offset="0" style="stop-color:#FF6167;stop-opacity:0.8"/>
		<stop  offset="0.1381" style="stop-color:#FB6067;stop-opacity:0.8249"/>
		<stop  offset="0.2696" style="stop-color:#F05C67;stop-opacity:0.8485"/>
		<stop  offset="0.3986" style="stop-color:#DC5666;stop-opacity:0.8717"/>
		<stop  offset="0.526" style="stop-color:#C14E65;stop-opacity:0.8947"/>
		<stop  offset="0.6522" style="stop-color:#9F4365;stop-opacity:0.9174"/>
		<stop  offset="0.7776" style="stop-color:#743663;stop-opacity:0.94"/>
		<stop  offset="0.9" style="stop-color:#422662;stop-opacity:0.962"/>
		<stop  offset="1" style="stop-color:#141861;stop-opacity:0.98"/>
	</linearGradient>
	<path class="st18" d="M188.6,167.6v-39.1c5.3-3,9.6-7.9,9.6-16.8c0-7.3-3.4-13.1-9.6-17V77.1c5.6-2,9.6-7.3,9.6-13.6
		c0-8-6.5-14.5-14.5-14.5c-8,0-14.5,6.5-14.5,14.5c0,6.3,4,11.6,9.6,13.6v13.8c-4.2-1.1-9.1-1.6-14.5-1.6c-8.5,0-16.9,1.5-21.4,3.7
		c-9.9,5-26.8,20.6-26.8,47.7c0,26.1,24.9,46.3,25.9,47.2l36.8,29.4v34.5l-13.1,15.7c-0.5,0.5-11.1,11.2-11.1,27.5
		c0,17.4,12.2,23.5,22,28.4l0.9,0.5c0.4,0.2,0.8,0.4,1.2,0.6v9.1c0,2.7,2.2,4.8,4.8,4.8c2.7,0,4.8-2.2,4.8-4.8v-4.7
		c3.3,1.3,6.5,2.1,9.3,2.1c4.8,0,7.5-2.3,9-4.2c5.9-7.8-0.7-16.9-5.8-21.2l-14.8-11.1l29.5-29.5c0.7-0.6,16.2-13.8,16.2-32.6
		c0-21-15.2-36.5-15.9-37.2L188.6,167.6z M183.8,58.6c2.7,0,4.8,2.2,4.8,4.8c0,2.7-2.2,4.8-4.8,4.8c-2.7,0-4.8-2.2-4.8-4.8
		C179,60.8,181.1,58.6,183.8,58.6L183.8,58.6z M209.3,257.8l-33.8,33.8c-1,1-1.5,2.4-1.4,3.8c0.1,1.4,0.8,2.7,1.9,3.5l19,14.3
		c1.7,1.5,5.5,6.1,4.1,7.9c-0.1,0.1-0.3,0.4-1.3,0.4c-3.7,0-10.2-3.2-15.9-6.1l-0.9-0.5c-10.3-5.2-16.6-8.9-16.6-19.8
		c0-12.2,8.2-20.6,8.5-21l23.8-28.6c0.6-0.6,6.2-6.4,6.2-13.1c0-6.6-5.6-12.4-6.2-13.1c-0.1-0.1-0.3-0.2-0.4-0.4l-48.2-38.6
		c-0.2-0.2-22.3-18.2-22.3-39.6c0-22.4,13.5-35.1,21.4-39.1c2.7-1.4,9.4-2.7,17.1-2.7c5.7,0,24.2,0.9,24.2,12.9
		c0,6.7-3.8,8.6-13,11.7c-2.8,0.9-5.8,1.9-8.5,3.3c-2.9,1.4-12.3,6.7-12.3,14c0,6.6,5.6,12.4,6.2,13.1l19.1,19.1
		c0.2,0.2,0.3,0.4,0.5,0.5l28.6,28.6c0.1,0.1,13.1,13.3,13.1,30.4C222.4,246.5,209.8,257.4,209.3,257.8L209.3,257.8z M188.6,240.2
		v-15.2l1.6,1.3c1.4,1.5,3.3,4.3,3.3,6.1c0,1.9-2,4.8-3.7,6.6L188.6,240.2z M179,132.5v25.5l-11-11c-1.4-1.4-3.4-4.4-3.4-6
		c0.4-1.2,3.8-4,7-5.5c2.1-1.1,4.6-1.9,7.2-2.8C178.8,132.5,178.9,132.5,179,132.5L179,132.5z M179,132.5"/>
</g>
</svg>
