<?xml version="1.0" encoding="utf-8"?>
<!-- Generator: Adobe Illustrator 22.0.1, SVG Export Plug-In . SVG Version: 6.00 Build 0)  -->
<svg version="1.1" id="Ebene_1" xmlns="http://www.w3.org/2000/svg" xmlns:xlink="http://www.w3.org/1999/xlink" x="0px" y="0px"
	 viewBox="0 0 385.8 388" style="enable-background:new 0 0 385.8 388;" xml:space="preserve">
<style type="text/css">
	.st0{fill:url(#SVGID_1_);}
	.st1{fill:url(#SVGID_2_);}
	.st2{fill:url(#SVGID_3_);}
	.st3{fill:url(#SVGID_4_);}
	.st4{fill:url(#SVGID_5_);}
	.st5{fill:url(#SVGID_6_);}
	.st6{fill:url(#SVGID_7_);}
	.st7{fill:url(#SVGID_8_);}
	.st8{fill:url(#SVGID_9_);}
</style>
<g>
	<linearGradient id="SVGID_1_" gradientUnits="userSpaceOnUse" x1="62.041" y1="307.5544" x2="115.7075" y2="338.5388">
		<stop  offset="0" style="stop-color:#FF6167;stop-opacity:0.8"/>
		<stop  offset="0.1381" style="stop-color:#FB6067;stop-opacity:0.8249"/>
		<stop  offset="0.2696" style="stop-color:#F05C67;stop-opacity:0.8485"/>
		<stop  offset="0.3986" style="stop-color:#DC5666;stop-opacity:0.8717"/>
		<stop  offset="0.526" style="stop-color:#C14E65;stop-opacity:0.8947"/>
		<stop  offset="0.6522" style="stop-color:#9F4365;stop-opacity:0.9174"/>
		<stop  offset="0.7776" style="stop-color:#743663;stop-opacity:0.94"/>
		<stop  offset="0.9" style="stop-color:#422662;stop-opacity:0.962"/>
		<stop  offset="1" style="stop-color:#141861;stop-opacity:0.98"/>
	</linearGradient>
	<path class="st0" d="M87,297.2c-18.1,0-32.9,14.8-32.9,32.9c0,2.6,2.1,4.7,4.7,4.7h56.4c2.6,0,4.7-2.1,4.7-4.7
		C119.9,312,105.1,297.2,87,297.2L87,297.2z M64,325.4c1.9-9.2,9.1-16.4,18.3-18.3v8.9h9.4v-8.9c9.2,1.9,16.4,9.1,18.3,18.3H64z
		 M64,325.4"/>
	<linearGradient id="SVGID_2_" gradientUnits="userSpaceOnUse" x1="48.2308" y1="80.3823" x2="356.2735" y2="258.2309">
		<stop  offset="0" style="stop-color:#FF6167;stop-opacity:0.8"/>
		<stop  offset="0.1381" style="stop-color:#FB6067;stop-opacity:0.8249"/>
		<stop  offset="0.2696" style="stop-color:#F05C67;stop-opacity:0.8485"/>
		<stop  offset="0.3986" style="stop-color:#DC5666;stop-opacity:0.8717"/>
		<stop  offset="0.526" style="stop-color:#C14E65;stop-opacity:0.8947"/>
		<stop  offset="0.6522" style="stop-color:#9F4365;stop-opacity:0.9174"/>
		<stop  offset="0.7776" style="stop-color:#743663;stop-opacity:0.94"/>
		<stop  offset="0.9" style="stop-color:#422662;stop-opacity:0.962"/>
		<stop  offset="1" style="stop-color:#141861;stop-opacity:0.98"/>
	</linearGradient>
	<path class="st1" d="M331.2,254.9H323c-0.3-0.7-0.5-1.3-0.8-2l5.8-5.8c1.8-1.8,1.8-4.8,0-6.6L308,220.6c-1-1-2.3-1.4-3.5-1.3
		c7.4-4,12.6-11.7,12.6-20.7V76.5c0-12.9-10.5-23.5-23.5-23.5h-216c-12.9,0-23.5,10.5-23.5,23.5v122.1c0,12.9,10.5,23.5,23.5,23.5
		h61.3l-17.7,32.9h-8.3c-9.1,0-16.4,7.4-16.4,16.4c0,9.1,7.4,16.4,16.4,16.4h101c0,2.6,2.1,4.7,4.7,4.7h8.2c0.3,0.7,0.5,1.3,0.8,2
		l-5.8,5.8c-1.8,1.8-1.8,4.8,0,6.6l19.9,19.9c1.8,1.8,4.8,1.8,6.6,0l5.8-5.8c0.7,0.3,1.3,0.6,2,0.8v8.2c0,2.6,2.1,4.7,4.7,4.7h28.2
		c2.6,0,4.7-2.1,4.7-4.7v-8.2c0.7-0.3,1.3-0.5,2-0.8l5.8,5.8c1.8,1.8,4.8,1.8,6.6,0l19.9-19.9c1.8-1.8,1.8-4.8,0-6.6l-5.8-5.8
		c0.3-0.7,0.6-1.3,0.8-2h8.2c2.6,0,4.7-2.1,4.7-4.7v-28.2C335.9,257,333.8,254.9,331.2,254.9L331.2,254.9z M63.5,76.5
		c0-7.8,6.3-14.1,14.1-14.1h216c7.8,0,14.1,6.3,14.1,14.1v98.6H63.5V76.5z M77.6,212.7c-7.8,0-14.1-6.3-14.1-14.1v-14.1h244.2v14.1
		c0,7.8-6.3,14.1-14.1,14.1H77.6z M301.3,220.7l-5.8,5.8c-0.7-0.3-1.3-0.6-2-0.8v-3.5C296.3,222.1,298.9,221.5,301.3,220.7
		L301.3,220.7z M256.1,222.1v3.5c-0.7,0.3-1.3,0.5-2,0.8l-4.4-4.4H256.1z M240.2,222.1l-4,4.1l-2.8-4.1H240.2z M213.8,278.4h-101
		c-3.9,0-7-3.2-7-7c0-3.9,3.2-7,7-7h101V278.4z M131.8,254.9l17.7-32.9H222l7.4,10.8l-7.6,7.6c-1.8,1.8-1.8,4.8,0,6.6l5.8,5.8
		c-0.3,0.7-0.6,1.3-0.8,2H131.8z M326.5,283.1h-6.9c-2.1,0-3.9,1.3-4.5,3.3c-0.7,2.3-1.7,4.6-2.9,6.9c-0.9,1.8-0.6,4,0.8,5.5
		l4.9,4.9l-13.3,13.3l-4.9-4.9c-1.5-1.5-3.7-1.8-5.5-0.8c-2.3,1.2-4.6,2.1-6.9,2.9c-2,0.6-3.3,2.4-3.3,4.5v6.9h-18.8v-6.9
		c0-2.1-1.3-3.9-3.3-4.5c-2.3-0.7-4.6-1.7-6.9-2.9c-1.8-0.9-4-0.6-5.5,0.8l-4.9,4.9l-13.3-13.3l4.9-4.9c1.4-1.5,1.8-3.7,0.8-5.5
		c-1.2-2.3-2.1-4.6-2.9-6.9c-0.6-2-2.4-3.3-4.5-3.3h-6.9v-18.8h6.9c2.1,0,3.9-1.3,4.5-3.3c0.7-2.3,1.7-4.6,2.9-6.9
		c0.9-1.8,0.6-4-0.8-5.5l-4.9-4.9l13.3-13.3l4.9,4.9c1.5,1.5,3.7,1.8,5.5,0.8c2.3-1.2,4.6-2.1,6.9-2.9c2-0.6,3.3-2.4,3.3-4.5v-6.9
		h18.8v6.9c0,2.1,1.3,3.9,3.3,4.5c2.3,0.7,4.6,1.7,6.9,2.9c1.8,0.9,4,0.6,5.5-0.8l4.9-4.9l13.3,13.3l-4.9,4.9
		c-1.5,1.5-1.8,3.7-0.8,5.5c1.2,2.3,2.1,4.6,2.9,6.9c0.6,2,2.4,3.3,4.5,3.3h6.9V283.1z M326.5,283.1"/>
	<linearGradient id="SVGID_3_" gradientUnits="userSpaceOnUse" x1="250.4376" y1="259.6393" x2="299.2363" y2="287.8132">
		<stop  offset="0" style="stop-color:#FF6167;stop-opacity:0.8"/>
		<stop  offset="0.1381" style="stop-color:#FB6067;stop-opacity:0.8249"/>
		<stop  offset="0.2696" style="stop-color:#F05C67;stop-opacity:0.8485"/>
		<stop  offset="0.3986" style="stop-color:#DC5666;stop-opacity:0.8717"/>
		<stop  offset="0.526" style="stop-color:#C14E65;stop-opacity:0.8947"/>
		<stop  offset="0.6522" style="stop-color:#9F4365;stop-opacity:0.9174"/>
		<stop  offset="0.7776" style="stop-color:#743663;stop-opacity:0.94"/>
		<stop  offset="0.9" style="stop-color:#422662;stop-opacity:0.962"/>
		<stop  offset="1" style="stop-color:#141861;stop-opacity:0.98"/>
	</linearGradient>
	<path class="st2" d="M274.8,245.5c-15.5,0-28.2,12.6-28.2,28.2c0,15.5,12.6,28.2,28.2,28.2c15.5,0,28.2-12.6,28.2-28.2
		C303,258.2,290.4,245.5,274.8,245.5L274.8,245.5z M274.8,292.5c-10.4,0-18.8-8.4-18.8-18.8c0-10.4,8.4-18.8,18.8-18.8
		c10.4,0,18.8,8.4,18.8,18.8C293.6,284.1,285.2,292.5,274.8,292.5L274.8,292.5z M274.8,292.5"/>
	<linearGradient id="SVGID_4_" gradientUnits="userSpaceOnUse" x1="113.7857" y1="103.6023" x2="157.7978" y2="129.0127">
		<stop  offset="0" style="stop-color:#FF6167;stop-opacity:0.8"/>
		<stop  offset="0.1381" style="stop-color:#FB6067;stop-opacity:0.8249"/>
		<stop  offset="0.2696" style="stop-color:#F05C67;stop-opacity:0.8485"/>
		<stop  offset="0.3986" style="stop-color:#DC5666;stop-opacity:0.8717"/>
		<stop  offset="0.526" style="stop-color:#C14E65;stop-opacity:0.8947"/>
		<stop  offset="0.6522" style="stop-color:#9F4365;stop-opacity:0.9174"/>
		<stop  offset="0.7776" style="stop-color:#743663;stop-opacity:0.94"/>
		<stop  offset="0.9" style="stop-color:#422662;stop-opacity:0.962"/>
		<stop  offset="1" style="stop-color:#141861;stop-opacity:0.98"/>
	</linearGradient>
	<path class="st3" d="M146.7,89.2l-6.6-6.6l-32.9,32.9c-1.8,1.8-1.8,4.8,0,6.6l32.9,32.9l6.6-6.6l-29.6-29.6L146.7,89.2z
		 M146.7,89.2"/>
	<linearGradient id="SVGID_5_" gradientUnits="userSpaceOnUse" x1="199.3272" y1="108.4837" x2="243.3393" y2="133.8941">
		<stop  offset="0" style="stop-color:#FF6167;stop-opacity:0.8"/>
		<stop  offset="0.1381" style="stop-color:#FB6067;stop-opacity:0.8249"/>
		<stop  offset="0.2696" style="stop-color:#F05C67;stop-opacity:0.8485"/>
		<stop  offset="0.3986" style="stop-color:#DC5666;stop-opacity:0.8717"/>
		<stop  offset="0.526" style="stop-color:#C14E65;stop-opacity:0.8947"/>
		<stop  offset="0.6522" style="stop-color:#9F4365;stop-opacity:0.9174"/>
		<stop  offset="0.7776" style="stop-color:#743663;stop-opacity:0.94"/>
		<stop  offset="0.9" style="stop-color:#422662;stop-opacity:0.962"/>
		<stop  offset="1" style="stop-color:#141861;stop-opacity:0.98"/>
	</linearGradient>
	<path class="st4" d="M250,115.4l-32.9-32.9l-6.6,6.6l29.6,29.6l-29.6,29.6l6.6,6.6l32.9-32.9C251.8,120.2,251.8,117.3,250,115.4
		L250,115.4z M250,115.4"/>
	<linearGradient id="SVGID_6_" gradientUnits="userSpaceOnUse" x1="172.0407" y1="110.3062" x2="185.0623" y2="117.8242">
		<stop  offset="0" style="stop-color:#FF6167;stop-opacity:0.8"/>
		<stop  offset="0.1381" style="stop-color:#FB6067;stop-opacity:0.8249"/>
		<stop  offset="0.2696" style="stop-color:#F05C67;stop-opacity:0.8485"/>
		<stop  offset="0.3986" style="stop-color:#DC5666;stop-opacity:0.8717"/>
		<stop  offset="0.526" style="stop-color:#C14E65;stop-opacity:0.8947"/>
		<stop  offset="0.6522" style="stop-color:#9F4365;stop-opacity:0.9174"/>
		<stop  offset="0.7776" style="stop-color:#743663;stop-opacity:0.94"/>
		<stop  offset="0.9" style="stop-color:#422662;stop-opacity:0.962"/>
		<stop  offset="1" style="stop-color:#141861;stop-opacity:0.98"/>
	</linearGradient>
	<path class="st5" d="M153.2,154.2l42.3-84.5l8.4,4.2l-42.3,84.5L153.2,154.2z M153.2,154.2"/>
	<linearGradient id="SVGID_7_" gradientUnits="userSpaceOnUse" x1="236.4085" y1="148.4159" x2="247.5187" y2="154.8305">
		<stop  offset="0" style="stop-color:#FF6167;stop-opacity:0.8"/>
		<stop  offset="0.1381" style="stop-color:#FB6067;stop-opacity:0.8249"/>
		<stop  offset="0.2696" style="stop-color:#F05C67;stop-opacity:0.8485"/>
		<stop  offset="0.3986" style="stop-color:#DC5666;stop-opacity:0.8717"/>
		<stop  offset="0.526" style="stop-color:#C14E65;stop-opacity:0.8947"/>
		<stop  offset="0.6522" style="stop-color:#9F4365;stop-opacity:0.9174"/>
		<stop  offset="0.7776" style="stop-color:#743663;stop-opacity:0.94"/>
		<stop  offset="0.9" style="stop-color:#422662;stop-opacity:0.962"/>
		<stop  offset="1" style="stop-color:#141861;stop-opacity:0.98"/>
	</linearGradient>
	<rect x="237.3" y="146.9" class="st6" width="9.4" height="9.4"/>
	<linearGradient id="SVGID_8_" gradientUnits="userSpaceOnUse" x1="255.1919" y1="148.4153" x2="266.3044" y2="154.8311">
		<stop  offset="0" style="stop-color:#FF6167;stop-opacity:0.8"/>
		<stop  offset="0.1381" style="stop-color:#FB6067;stop-opacity:0.8249"/>
		<stop  offset="0.2696" style="stop-color:#F05C67;stop-opacity:0.8485"/>
		<stop  offset="0.3986" style="stop-color:#DC5666;stop-opacity:0.8717"/>
		<stop  offset="0.526" style="stop-color:#C14E65;stop-opacity:0.8947"/>
		<stop  offset="0.6522" style="stop-color:#9F4365;stop-opacity:0.9174"/>
		<stop  offset="0.7776" style="stop-color:#743663;stop-opacity:0.94"/>
		<stop  offset="0.9" style="stop-color:#422662;stop-opacity:0.962"/>
		<stop  offset="1" style="stop-color:#141861;stop-opacity:0.98"/>
	</linearGradient>
	<rect x="256.1" y="146.9" class="st7" width="9.4" height="9.4"/>
	<linearGradient id="SVGID_9_" gradientUnits="userSpaceOnUse" x1="273.9786" y1="148.4153" x2="285.0912" y2="154.8311">
		<stop  offset="0" style="stop-color:#FF6167;stop-opacity:0.8"/>
		<stop  offset="0.1381" style="stop-color:#FB6067;stop-opacity:0.8249"/>
		<stop  offset="0.2696" style="stop-color:#F05C67;stop-opacity:0.8485"/>
		<stop  offset="0.3986" style="stop-color:#DC5666;stop-opacity:0.8717"/>
		<stop  offset="0.526" style="stop-color:#C14E65;stop-opacity:0.8947"/>
		<stop  offset="0.6522" style="stop-color:#9F4365;stop-opacity:0.9174"/>
		<stop  offset="0.7776" style="stop-color:#743663;stop-opacity:0.94"/>
		<stop  offset="0.9" style="stop-color:#422662;stop-opacity:0.962"/>
		<stop  offset="1" style="stop-color:#141861;stop-opacity:0.98"/>
	</linearGradient>
	<rect x="274.8" y="146.9" class="st8" width="9.4" height="9.4"/>
</g>
</svg>
