<?xml version="1.0" encoding="utf-8"?>
<!-- Generator: Adobe Illustrator 22.0.1, SVG Export Plug-In . SVG Version: 6.00 Build 0)  -->
<svg version="1.1" id="Ebene_1" xmlns="http://www.w3.org/2000/svg" xmlns:xlink="http://www.w3.org/1999/xlink" x="0px" y="0px"
	 viewBox="0 0 385.8 388" style="enable-background:new 0 0 385.8 388;" xml:space="preserve">
<style type="text/css">
	.st0{fill:url(#SVGID_1_);}
	.st1{fill:url(#SVGID_2_);}
	.st2{fill:url(#SVGID_3_);}
	.st3{fill:url(#SVGID_4_);}
	.st4{fill:url(#SVGID_5_);}
	.st5{fill:url(#SVGID_6_);}
	.st6{fill:url(#SVGID_7_);}
	.st7{fill:url(#SVGID_8_);}
	.st8{fill:url(#SVGID_9_);}
	.st9{fill:url(#SVGID_10_);}
	.st10{fill:url(#SVGID_11_);}
	.st11{fill:url(#SVGID_12_);}
</style>
<g>
	<path d="M272.2-118.1c-0.1-28.2-8.4-52.7-25.6-74.8c-14.8-19.1-34.3-34.1-53.1-48.6c-35.9-27.7-69.9-53.9-69.9-105.7
		c0-2.1-1.7-3.8-3.8-3.8h-15.1c-2.1,0-3.8,1.7-3.8,3.8c0,28.3,8.4,52.9,25.6,75c11.8,15.2,26.5,27.8,41.6,39.6
		c-14.1,11.1-29.4,24-41.6,39.6c-17.2,22.2-25.6,46.7-25.6,75c0,2.1,1.7,3.8,3.8,3.8h15.1c2.1,0,3.8-1.7,3.8-3.8
		c0-3.9,0.2-7.7,0.6-11.3h26.9c2.1,0,3.8-1.7,3.8-3.8s-1.7-3.8-3.8-3.8h-25.8c1.5-8.1,3.9-15.5,7.1-22.4H226c2.1,0,3.8-1.7,3.8-3.8
		c0-2.1-1.7-3.8-3.8-3.8h-89.7c4.7-8,10.5-15.4,17.1-22.4h46.1c2.1,0,3.8-1.7,3.8-3.8c0-2.1-1.7-3.8-3.8-3.8h-38.5
		c7.7-7.3,16.4-14.3,25.6-21.4c33.3,25.9,63,51.9,63,100.3c0,2.1,1.7,3.8,3.8,3.8h15.1c2.1,0,3.8-1.7,3.8-3.8
		C272.3-117.9,272.3-118,272.2-118.1L272.2-118.1z M149.2-195.8c-0.2,0.1-0.3,0.3-0.5,0.5c-4.2,4.3-8.1,8.8-11.6,13.5
		c-4.1,5.4-7.5,11-10.4,16.8c-0.1,0.2-0.3,0.5-0.4,0.7c-4.7,9.6-7.7,19.7-9.2,30.5c0,0.2,0,0.3-0.1,0.5c-0.5,3.8-0.8,7.7-0.9,11.6
		h-7.6c0.7-25,8.6-46.8,24-66.6c12-15.5,27.7-28.4,41.7-39.5c1.8,1.4,3.6,2.8,5.4,4.2c0.3,0.2,0.5,0.4,0.8,0.6
		C169.3-214.2,158.6-205.4,149.2-195.8L149.2-195.8z M257.1-121.6c-0.7-23.4-8.2-43.8-22.7-62.4c-13.5-17.3-31.3-31-50.1-45.5
		c-18.5-14.2-37.5-29-51.8-47.3c-15.4-19.8-23.2-41.6-24-66.6h7.6c0.7,23.4,8.2,43.8,22.7,62.4c13.5,17.3,31.3,31,50.1,45.5
		c18.5,14.2,37.5,29,51.8,47.3c15.4,19.8,23.2,41.6,24,66.6H257.1z M257.1-121.6"/>
	<linearGradient id="SVGID_1_" gradientUnits="userSpaceOnUse" x1="154.8082" y1="-305.7936" x2="154.8082" y2="-298.2333">
		<stop  offset="0" style="stop-color:#FF6167;stop-opacity:0.8"/>
		<stop  offset="0.1381" style="stop-color:#FB6067;stop-opacity:0.8249"/>
		<stop  offset="0.2696" style="stop-color:#F05C67;stop-opacity:0.8485"/>
		<stop  offset="0.3986" style="stop-color:#DC5666;stop-opacity:0.8717"/>
		<stop  offset="0.526" style="stop-color:#C14E65;stop-opacity:0.8947"/>
		<stop  offset="0.6522" style="stop-color:#9F4365;stop-opacity:0.9174"/>
		<stop  offset="0.7776" style="stop-color:#743663;stop-opacity:0.94"/>
		<stop  offset="0.9" style="stop-color:#422662;stop-opacity:0.962"/>
		<stop  offset="1" style="stop-color:#141861;stop-opacity:0.98"/>
	</linearGradient>
	<path class="st0" d="M147.2-305.8c-2.1,0-3.8,1.7-3.8,3.8c0,2.1,1.7,3.8,3.8,3.8h15.1c2.1,0,3.8-1.7,3.8-3.8c0-2.1-1.7-3.8-3.8-3.8
		H147.2z M147.2-305.8"/>
	<linearGradient id="SVGID_2_" gradientUnits="userSpaceOnUse" x1="202.3129" y1="-350.9117" x2="202.3129" y2="-238.3783">
		<stop  offset="0" style="stop-color:#FF6167;stop-opacity:0.8"/>
		<stop  offset="0.1381" style="stop-color:#FB6067;stop-opacity:0.8249"/>
		<stop  offset="0.2696" style="stop-color:#F05C67;stop-opacity:0.8485"/>
		<stop  offset="0.3986" style="stop-color:#DC5666;stop-opacity:0.8717"/>
		<stop  offset="0.526" style="stop-color:#C14E65;stop-opacity:0.8947"/>
		<stop  offset="0.6522" style="stop-color:#9F4365;stop-opacity:0.9174"/>
		<stop  offset="0.7776" style="stop-color:#743663;stop-opacity:0.94"/>
		<stop  offset="0.9" style="stop-color:#422662;stop-opacity:0.962"/>
		<stop  offset="1" style="stop-color:#141861;stop-opacity:0.98"/>
	</linearGradient>
	<path class="st1" d="M136.2-328.2H248c-1.4,8.1-3.8,15.5-7,22.4h-63.5c-2.1,0-3.8,1.7-3.8,3.8c0,2.1,1.7,3.8,3.8,3.8h59.6
		c-4.6,7.9-10.4,15.3-17.2,22.4h-46.3c-2.1,0-3.8,1.7-3.8,3.8c0,2.1,1.7,3.8,3.8,3.8h38.6c-4.9,4.6-10.1,9.1-15.8,13.6
		c-1.6,1.3-1.9,3.7-0.6,5.3c1.3,1.6,3.7,1.9,5.3,0.6c16.8-13.6,34.4-29.4,45.2-51.2c0.2-0.3,0.3-0.6,0.5-0.9c4.4-9,7.6-19,9.2-30.4
		c0-0.2,0.1-0.4,0.1-0.6c0.5-3.7,0.8-7.6,0.9-11.6h7.6c-0.7,25-8.6,46.8-24,66.6c-7.9,10.1-18,20.2-32,31.7
		c-1.6,1.3-1.8,3.7-0.5,5.3c0.7,0.9,1.8,1.4,2.9,1.4c0.8,0,1.7-0.3,2.4-0.9c14.4-11.8,24.9-22.3,33.1-32.8
		c17.2-22.2,25.6-46.7,25.6-75c0-2.1-1.7-3.8-3.8-3.8h-15.1c-2.1,0-3.8,1.7-3.8,3.8c0,3.9-0.2,7.7-0.5,11.3H136.2
		c-2.1,0-3.8,1.7-3.8,3.8C132.4-329.9,134.1-328.2,136.2-328.2L136.2-328.2z M136.2-328.2"/>
	<linearGradient id="SVGID_3_" gradientUnits="userSpaceOnUse" x1="201.627" y1="-136.7029" x2="201.627" y2="-129.1425">
		<stop  offset="0" style="stop-color:#FF6167;stop-opacity:0.8"/>
		<stop  offset="0.1381" style="stop-color:#FB6067;stop-opacity:0.8249"/>
		<stop  offset="0.2696" style="stop-color:#F05C67;stop-opacity:0.8485"/>
		<stop  offset="0.3986" style="stop-color:#DC5666;stop-opacity:0.8717"/>
		<stop  offset="0.526" style="stop-color:#C14E65;stop-opacity:0.8947"/>
		<stop  offset="0.6522" style="stop-color:#9F4365;stop-opacity:0.9174"/>
		<stop  offset="0.7776" style="stop-color:#743663;stop-opacity:0.94"/>
		<stop  offset="0.9" style="stop-color:#422662;stop-opacity:0.962"/>
		<stop  offset="1" style="stop-color:#141861;stop-opacity:0.98"/>
	</linearGradient>
	<path class="st2" d="M237.1-136.7h-70.8c-2.1,0-3.8,1.7-3.8,3.8s1.7,3.8,3.8,3.8h70.8c2.1,0,3.8-1.7,3.8-3.8
		S239.1-136.7,237.1-136.7L237.1-136.7z M237.1-136.7"/>
</g>
<g>
	<linearGradient id="SVGID_4_" gradientUnits="userSpaceOnUse" x1="242.5615" y1="198.8287" x2="300.6398" y2="232.3602">
		<stop  offset="0" style="stop-color:#FF6167;stop-opacity:0.8"/>
		<stop  offset="0.1381" style="stop-color:#FB6067;stop-opacity:0.8249"/>
		<stop  offset="0.2696" style="stop-color:#F05C67;stop-opacity:0.8485"/>
		<stop  offset="0.3986" style="stop-color:#DC5666;stop-opacity:0.8717"/>
		<stop  offset="0.526" style="stop-color:#C14E65;stop-opacity:0.8947"/>
		<stop  offset="0.6522" style="stop-color:#9F4365;stop-opacity:0.9174"/>
		<stop  offset="0.7776" style="stop-color:#743663;stop-opacity:0.94"/>
		<stop  offset="0.9" style="stop-color:#422662;stop-opacity:0.962"/>
		<stop  offset="1" style="stop-color:#141861;stop-opacity:0.98"/>
	</linearGradient>
	<path class="st3" d="M277.3,155.7c0-2.5-2-4.6-4.5-4.6c-2.5,0-4.6,2-4.6,4.6v13.7c0,41.6,9.7,60.5,10.1,61.2c2,4,5.2,13.7,2.6,17.9
		c-1.1,1.8-3.7,2.8-7.6,2.8h-36.9c-2.5,0-4.6,2-4.6,4.5c0,2.5,2,4.6,4.6,4.6h36.9c9.1,0,13.4-3.9,15.4-7.1c6-9.7-1.3-25.1-2.2-26.9
		c-0.1-0.2-9.1-18-9.1-57.1V155.7z M277.3,155.7"/>
	<linearGradient id="SVGID_5_" gradientUnits="userSpaceOnUse" x1="116.8221" y1="148.6063" x2="241.0805" y2="220.347">
		<stop  offset="0" style="stop-color:#FF6167;stop-opacity:0.8"/>
		<stop  offset="0.1381" style="stop-color:#FB6067;stop-opacity:0.8249"/>
		<stop  offset="0.2696" style="stop-color:#F05C67;stop-opacity:0.8485"/>
		<stop  offset="0.3986" style="stop-color:#DC5666;stop-opacity:0.8717"/>
		<stop  offset="0.526" style="stop-color:#C14E65;stop-opacity:0.8947"/>
		<stop  offset="0.6522" style="stop-color:#9F4365;stop-opacity:0.9174"/>
		<stop  offset="0.7776" style="stop-color:#743663;stop-opacity:0.94"/>
		<stop  offset="0.9" style="stop-color:#422662;stop-opacity:0.962"/>
		<stop  offset="1" style="stop-color:#141861;stop-opacity:0.98"/>
	</linearGradient>
	<path class="st4" d="M122.5,155.7c0-2.5-2-4.6-4.6-4.6c-2.5,0-4.5,2-4.5,4.6c0,19.5,14.3,57,18.7,65.7
		c5.5,11.1,29.8,38.9,54.1,38.9c24.4,0,48.6-27.8,54.1-38.9c4.4-8.7,18.7-46.2,18.7-65.7c0-2.5-2-4.6-4.6-4.6c-2.5,0-4.5,2-4.5,4.6
		c0,10.3-4.7,27.1-9.5,40.9c-8.9-0.3-34.7-1.6-52.5-8.7c-1.1-0.4-2.3-0.4-3.4,0c-17.8,7.1-43.7,8.5-52.5,8.7
		C127.3,182.8,122.5,166,122.5,155.7L122.5,155.7z M186.3,197c17.4,6.5,40,8.2,50.9,8.6c-2,5.2-3.8,9.4-5,11.8
		c-4.1,8.2-25.7,33.9-46,33.9c-20.3,0-41.9-25.7-46-33.9c-1.2-2.4-3-6.6-5-11.8C146.2,205.1,168.9,203.5,186.3,197L186.3,197z
		 M186.3,197"/>
	<linearGradient id="SVGID_6_" gradientUnits="userSpaceOnUse" x1="153.0196" y1="162.6158" x2="174.5609" y2="175.0527">
		<stop  offset="0" style="stop-color:#FF6167;stop-opacity:0.8"/>
		<stop  offset="0.1381" style="stop-color:#FB6067;stop-opacity:0.8249"/>
		<stop  offset="0.2696" style="stop-color:#F05C67;stop-opacity:0.8485"/>
		<stop  offset="0.3986" style="stop-color:#DC5666;stop-opacity:0.8717"/>
		<stop  offset="0.526" style="stop-color:#C14E65;stop-opacity:0.8947"/>
		<stop  offset="0.6522" style="stop-color:#9F4365;stop-opacity:0.9174"/>
		<stop  offset="0.7776" style="stop-color:#743663;stop-opacity:0.94"/>
		<stop  offset="0.9" style="stop-color:#422662;stop-opacity:0.962"/>
		<stop  offset="1" style="stop-color:#141861;stop-opacity:0.98"/>
	</linearGradient>
	<path class="st5" d="M163.5,178.4c2.5,0,4.5-2,4.5-4.6v-3c0.3,0.3,0.5,0.5,0.5,0.5c0.8,1.6,2.4,2.4,4,2.4c0.7,0,1.4-0.2,2.1-0.5
		c2.2-1.2,3.1-3.9,1.9-6.1c-1.4-2.6-5.6-7-13.1-7c-7.5,0-11.8,4.4-13.1,7c-1.1,2.2-0.3,4.8,1.8,6c2.1,1.2,4.9,0.4,6.2-1.7
		c0-0.1,0.3-0.3,0.6-0.6v3C159,176.4,161,178.4,163.5,178.4L163.5,178.4z M163.5,178.4"/>
	<linearGradient id="SVGID_7_" gradientUnits="userSpaceOnUse" x1="198.5299" y1="162.6166" x2="220.0691" y2="175.0523">
		<stop  offset="0" style="stop-color:#FF6167;stop-opacity:0.8"/>
		<stop  offset="0.1381" style="stop-color:#FB6067;stop-opacity:0.8249"/>
		<stop  offset="0.2696" style="stop-color:#F05C67;stop-opacity:0.8485"/>
		<stop  offset="0.3986" style="stop-color:#DC5666;stop-opacity:0.8717"/>
		<stop  offset="0.526" style="stop-color:#C14E65;stop-opacity:0.8947"/>
		<stop  offset="0.6522" style="stop-color:#9F4365;stop-opacity:0.9174"/>
		<stop  offset="0.7776" style="stop-color:#743663;stop-opacity:0.94"/>
		<stop  offset="0.9" style="stop-color:#422662;stop-opacity:0.962"/>
		<stop  offset="1" style="stop-color:#141861;stop-opacity:0.98"/>
	</linearGradient>
	<path class="st6" d="M209,178.4c2.5,0,4.5-2,4.5-4.6v-3c0.3,0.3,0.5,0.5,0.5,0.5c0.8,1.6,2.4,2.4,4,2.4c0.7,0,1.4-0.2,2.1-0.5
		c2.2-1.2,3.1-3.9,1.9-6.1c-1.4-2.6-5.6-7-13.1-7c-7.5,0-11.8,4.4-13.1,7c-1.1,2.2-0.3,4.8,1.8,6c2.1,1.2,4.9,0.4,6.2-1.7
		c0-0.1,0.3-0.3,0.6-0.6v3C204.5,176.4,206.5,178.4,209,178.4L209,178.4z M209,178.4"/>
	<linearGradient id="SVGID_8_" gradientUnits="userSpaceOnUse" x1="85.5002" y1="255.6068" x2="291.6711" y2="374.6396">
		<stop  offset="0" style="stop-color:#FF6167;stop-opacity:0.8"/>
		<stop  offset="0.1381" style="stop-color:#FB6067;stop-opacity:0.8249"/>
		<stop  offset="0.2696" style="stop-color:#F05C67;stop-opacity:0.8485"/>
		<stop  offset="0.3986" style="stop-color:#DC5666;stop-opacity:0.8717"/>
		<stop  offset="0.526" style="stop-color:#C14E65;stop-opacity:0.8947"/>
		<stop  offset="0.6522" style="stop-color:#9F4365;stop-opacity:0.9174"/>
		<stop  offset="0.7776" style="stop-color:#743663;stop-opacity:0.94"/>
		<stop  offset="0.9" style="stop-color:#422662;stop-opacity:0.962"/>
		<stop  offset="1" style="stop-color:#141861;stop-opacity:0.98"/>
	</linearGradient>
	<path class="st7" d="M322.6,318.1c-0.4-1.2-10.5-29.9-58-39.4c-2.4-0.5-4.7,1-5.3,3.4l-8.2,33H121.5l-8.2-33
		c-0.6-2.4-2.9-3.8-5.3-3.4c-47.6,9.5-57.6,38.2-58,39.4c-0.8,2.4,0.5,4.9,2.9,5.7c2.4,0.8,4.9-0.5,5.8-2.8c0.3-1,8.6-23.4,47-32.5
		l8,32.1c0.5,2,2.3,3.4,4.4,3.4h136.5c2.1,0,3.9-1.4,4.4-3.4l8-32.1c38.4,9.1,46.6,31.5,47,32.5c0.6,1.9,2.4,3.1,4.3,3.1
		c0.5,0,1-0.1,1.4-0.2C322.1,323,323.4,320.5,322.6,318.1L322.6,318.1z M322.6,318.1"/>
	<linearGradient id="SVGID_9_" gradientUnits="userSpaceOnUse" x1="137.9481" y1="250.6615" x2="234.576" y2="306.4496">
		<stop  offset="0" style="stop-color:#FF6167;stop-opacity:0.8"/>
		<stop  offset="0.1381" style="stop-color:#FB6067;stop-opacity:0.8249"/>
		<stop  offset="0.2696" style="stop-color:#F05C67;stop-opacity:0.8485"/>
		<stop  offset="0.3986" style="stop-color:#DC5666;stop-opacity:0.8717"/>
		<stop  offset="0.526" style="stop-color:#C14E65;stop-opacity:0.8947"/>
		<stop  offset="0.6522" style="stop-color:#9F4365;stop-opacity:0.9174"/>
		<stop  offset="0.7776" style="stop-color:#743663;stop-opacity:0.94"/>
		<stop  offset="0.9" style="stop-color:#422662;stop-opacity:0.962"/>
		<stop  offset="1" style="stop-color:#141861;stop-opacity:0.98"/>
	</linearGradient>
	<path class="st8" d="M122.7,279.7c0.6,2.4,3.1,3.9,5.5,3.3l15.2-3.8c5.5,7.2,22.1,26.7,42.8,26.7c20.7,0,37.4-19.4,42.8-26.7
		l15.2,3.8c2.4,0.6,4.9-0.9,5.5-3.3c0.6-2.4-0.9-4.9-3.3-5.5l-18.2-4.5c-1.9-0.5-3.8,0.3-4.9,1.9c-0.2,0.3-17.2,25.3-37.2,25.3
		c-20,0-37-25-37.2-25.3c-1.1-1.6-3-2.3-4.9-1.9l-18.2,4.5C123.6,274.8,122.1,277.2,122.7,279.7L122.7,279.7z M122.7,279.7"/>
	<linearGradient id="SVGID_10_" gradientUnits="userSpaceOnUse" x1="73.478" y1="192.148" x2="152.0218" y2="237.4952">
		<stop  offset="0" style="stop-color:#FF6167;stop-opacity:0.8"/>
		<stop  offset="0.1381" style="stop-color:#FB6067;stop-opacity:0.8249"/>
		<stop  offset="0.2696" style="stop-color:#F05C67;stop-opacity:0.8485"/>
		<stop  offset="0.3986" style="stop-color:#DC5666;stop-opacity:0.8717"/>
		<stop  offset="0.526" style="stop-color:#C14E65;stop-opacity:0.8947"/>
		<stop  offset="0.6522" style="stop-color:#9F4365;stop-opacity:0.9174"/>
		<stop  offset="0.7776" style="stop-color:#743663;stop-opacity:0.94"/>
		<stop  offset="0.9" style="stop-color:#422662;stop-opacity:0.962"/>
		<stop  offset="1" style="stop-color:#141861;stop-opacity:0.98"/>
	</linearGradient>
	<path class="st9" d="M99.3,260.4h36.9c2.5,0,4.5-2,4.5-4.5c0-2.5-2-4.6-4.5-4.6H99.3c-3.9,0-6.5-0.9-7.6-2.8
		c-2.7-4.3,0.6-13.9,2.7-18.2c0.4-1,9.9-24,9.9-60.9v-13.7c0-2.5-2-4.6-4.5-4.6c-2.5,0-4.6,2-4.6,4.6v13.7c0,34.9-9.1,57.1-9.1,57.1
		c-0.9,1.7-8.2,17-2.2,26.8C85.9,256.5,90.2,260.4,99.3,260.4L99.3,260.4z M99.3,260.4"/>
	<linearGradient id="SVGID_11_" gradientUnits="userSpaceOnUse" x1="108.1788" y1="57.9562" x2="269.9669" y2="151.3646">
		<stop  offset="0" style="stop-color:#FF6167;stop-opacity:0.8"/>
		<stop  offset="0.1381" style="stop-color:#FB6067;stop-opacity:0.8249"/>
		<stop  offset="0.2696" style="stop-color:#F05C67;stop-opacity:0.8485"/>
		<stop  offset="0.3986" style="stop-color:#DC5666;stop-opacity:0.8717"/>
		<stop  offset="0.526" style="stop-color:#C14E65;stop-opacity:0.8947"/>
		<stop  offset="0.6522" style="stop-color:#9F4365;stop-opacity:0.9174"/>
		<stop  offset="0.7776" style="stop-color:#743663;stop-opacity:0.94"/>
		<stop  offset="0.9" style="stop-color:#422662;stop-opacity:0.962"/>
		<stop  offset="1" style="stop-color:#141861;stop-opacity:0.98"/>
	</linearGradient>
	<path class="st10" d="M99.8,142h172.9c2.5,0,4.5-2,4.5-4.6V92c0-24.9-14.3-41-36.4-41H136.2c-23.4,0-41,17.6-41,41v45.5
		C95.2,140,97.3,142,99.8,142L99.8,142z M104.3,92c0-18.5,13.4-31.9,31.9-31.9h104.7c20.1,0,27.3,16.5,27.3,31.9v41H104.3V92z
		 M104.3,92"/>
	<linearGradient id="SVGID_12_" gradientUnits="userSpaceOnUse" x1="172.0798" y1="88.3239" x2="200.4431" y2="104.6994">
		<stop  offset="0" style="stop-color:#FF6167;stop-opacity:0.8"/>
		<stop  offset="0.1381" style="stop-color:#FB6067;stop-opacity:0.8249"/>
		<stop  offset="0.2696" style="stop-color:#F05C67;stop-opacity:0.8485"/>
		<stop  offset="0.3986" style="stop-color:#DC5666;stop-opacity:0.8717"/>
		<stop  offset="0.526" style="stop-color:#C14E65;stop-opacity:0.8947"/>
		<stop  offset="0.6522" style="stop-color:#9F4365;stop-opacity:0.9174"/>
		<stop  offset="0.7776" style="stop-color:#743663;stop-opacity:0.94"/>
		<stop  offset="0.9" style="stop-color:#422662;stop-opacity:0.962"/>
		<stop  offset="1" style="stop-color:#141861;stop-opacity:0.98"/>
	</linearGradient>
	<path class="st11" d="M199.9,92h-9.1v-9.1c0-2.5-2-4.6-4.5-4.6c-2.5,0-4.6,2-4.6,4.6V92h-9.1c-2.5,0-4.6,2-4.6,4.6
		c0,2.5,2,4.5,4.6,4.5h9.1v9.1c0,2.5,2,4.6,4.6,4.6c2.5,0,4.5-2,4.5-4.6v-9.1h9.1c2.5,0,4.6-2,4.6-4.5C204.5,94,202.4,92,199.9,92
		L199.9,92z M199.9,92"/>
</g>
</svg>
