<?xml version="1.0" encoding="utf-8"?>
<!-- Generator: Adobe Illustrator 22.0.1, SVG Export Plug-In . SVG Version: 6.00 Build 0)  -->
<svg version="1.1" id="Ebene_1" xmlns="http://www.w3.org/2000/svg" xmlns:xlink="http://www.w3.org/1999/xlink" x="0px" y="0px"
	 viewBox="0 0 385.8 388" style="enable-background:new 0 0 385.8 388;" xml:space="preserve">
<style type="text/css">
	.st0{fill:url(#SVGID_1_);}
	.st1{fill:url(#SVGID_2_);}
	.st2{fill:url(#SVGID_3_);}
	.st3{fill:url(#SVGID_4_);}
	.st4{fill:url(#SVGID_5_);}
	.st5{fill:url(#SVGID_6_);}
	.st6{fill:url(#SVGID_7_);}
	.st7{fill:url(#SVGID_8_);}
	.st8{fill:url(#SVGID_9_);}
	.st9{fill:url(#SVGID_10_);}
	.st10{fill:url(#SVGID_11_);}
	.st11{fill:url(#SVGID_12_);}
	.st12{fill:url(#SVGID_13_);}
	.st13{fill:url(#SVGID_14_);}
	.st14{fill:url(#SVGID_15_);}
	.st15{fill:url(#SVGID_16_);}
	.st16{fill:url(#SVGID_17_);}
	.st17{fill:url(#SVGID_18_);}
</style>
<g>
	<path d="M272.2-118.1c-0.1-28.2-8.4-52.7-25.6-74.8c-14.8-19.1-34.3-34.1-53.1-48.6c-35.9-27.7-69.9-53.9-69.9-105.7
		c0-2.1-1.7-3.8-3.8-3.8h-15.1c-2.1,0-3.8,1.7-3.8,3.8c0,28.3,8.4,52.9,25.6,75c11.8,15.2,26.5,27.8,41.6,39.6
		c-14.1,11.1-29.4,24-41.6,39.6c-17.2,22.2-25.6,46.7-25.6,75c0,2.1,1.7,3.8,3.8,3.8h15.1c2.1,0,3.8-1.7,3.8-3.8
		c0-3.9,0.2-7.7,0.6-11.3h26.9c2.1,0,3.8-1.7,3.8-3.8s-1.7-3.8-3.8-3.8h-25.8c1.5-8.1,3.9-15.5,7.1-22.4H226c2.1,0,3.8-1.7,3.8-3.8
		c0-2.1-1.7-3.8-3.8-3.8h-89.7c4.7-8,10.5-15.4,17.1-22.4h46.1c2.1,0,3.8-1.7,3.8-3.8c0-2.1-1.7-3.8-3.8-3.8h-38.5
		c7.7-7.3,16.4-14.3,25.6-21.4c33.3,25.9,63,51.9,63,100.3c0,2.1,1.7,3.8,3.8,3.8h15.1c2.1,0,3.8-1.7,3.8-3.8
		C272.3-117.9,272.3-118,272.2-118.1L272.2-118.1z M149.2-195.8c-0.2,0.1-0.3,0.3-0.5,0.5c-4.2,4.3-8.1,8.8-11.6,13.5
		c-4.1,5.4-7.5,11-10.4,16.8c-0.1,0.2-0.3,0.5-0.4,0.7c-4.7,9.6-7.7,19.7-9.2,30.5c0,0.2,0,0.3-0.1,0.5c-0.5,3.8-0.8,7.7-0.9,11.6
		h-7.6c0.7-25,8.6-46.8,24-66.6c12-15.5,27.7-28.4,41.7-39.5c1.8,1.4,3.6,2.8,5.4,4.2c0.3,0.2,0.5,0.4,0.8,0.6
		C169.3-214.2,158.6-205.4,149.2-195.8L149.2-195.8z M257.1-121.6c-0.7-23.4-8.2-43.8-22.7-62.4c-13.5-17.3-31.3-31-50.1-45.5
		c-18.5-14.2-37.5-29-51.8-47.3c-15.4-19.8-23.2-41.6-24-66.6h7.6c0.7,23.4,8.2,43.8,22.7,62.4c13.5,17.3,31.3,31,50.1,45.5
		c18.5,14.2,37.5,29,51.8,47.3c15.4,19.8,23.2,41.6,24,66.6H257.1z M257.1-121.6"/>
	<linearGradient id="SVGID_1_" gradientUnits="userSpaceOnUse" x1="154.8082" y1="-305.7936" x2="154.8082" y2="-298.2333">
		<stop  offset="0" style="stop-color:#FF6167;stop-opacity:0.8"/>
		<stop  offset="0.1381" style="stop-color:#FB6067;stop-opacity:0.8249"/>
		<stop  offset="0.2696" style="stop-color:#F05C67;stop-opacity:0.8485"/>
		<stop  offset="0.3986" style="stop-color:#DC5666;stop-opacity:0.8717"/>
		<stop  offset="0.526" style="stop-color:#C14E65;stop-opacity:0.8947"/>
		<stop  offset="0.6522" style="stop-color:#9F4365;stop-opacity:0.9174"/>
		<stop  offset="0.7776" style="stop-color:#743663;stop-opacity:0.94"/>
		<stop  offset="0.9" style="stop-color:#422662;stop-opacity:0.962"/>
		<stop  offset="1" style="stop-color:#141861;stop-opacity:0.98"/>
	</linearGradient>
	<path class="st0" d="M147.2-305.8c-2.1,0-3.8,1.7-3.8,3.8c0,2.1,1.7,3.8,3.8,3.8h15.1c2.1,0,3.8-1.7,3.8-3.8c0-2.1-1.7-3.8-3.8-3.8
		H147.2z M147.2-305.8"/>
	<linearGradient id="SVGID_2_" gradientUnits="userSpaceOnUse" x1="202.3129" y1="-350.9117" x2="202.3129" y2="-238.3783">
		<stop  offset="0" style="stop-color:#FF6167;stop-opacity:0.8"/>
		<stop  offset="0.1381" style="stop-color:#FB6067;stop-opacity:0.8249"/>
		<stop  offset="0.2696" style="stop-color:#F05C67;stop-opacity:0.8485"/>
		<stop  offset="0.3986" style="stop-color:#DC5666;stop-opacity:0.8717"/>
		<stop  offset="0.526" style="stop-color:#C14E65;stop-opacity:0.8947"/>
		<stop  offset="0.6522" style="stop-color:#9F4365;stop-opacity:0.9174"/>
		<stop  offset="0.7776" style="stop-color:#743663;stop-opacity:0.94"/>
		<stop  offset="0.9" style="stop-color:#422662;stop-opacity:0.962"/>
		<stop  offset="1" style="stop-color:#141861;stop-opacity:0.98"/>
	</linearGradient>
	<path class="st1" d="M136.2-328.2H248c-1.4,8.1-3.8,15.5-7,22.4h-63.5c-2.1,0-3.8,1.7-3.8,3.8c0,2.1,1.7,3.8,3.8,3.8h59.6
		c-4.6,7.9-10.4,15.3-17.2,22.4h-46.3c-2.1,0-3.8,1.7-3.8,3.8c0,2.1,1.7,3.8,3.8,3.8h38.6c-4.9,4.6-10.1,9.1-15.8,13.6
		c-1.6,1.3-1.9,3.7-0.6,5.3c1.3,1.6,3.7,1.9,5.3,0.6c16.8-13.6,34.4-29.4,45.2-51.2c0.2-0.3,0.3-0.6,0.5-0.9c4.4-9,7.6-19,9.2-30.4
		c0-0.2,0.1-0.4,0.1-0.6c0.5-3.7,0.8-7.6,0.9-11.6h7.6c-0.7,25-8.6,46.8-24,66.6c-7.9,10.1-18,20.2-32,31.7
		c-1.6,1.3-1.8,3.7-0.5,5.3c0.7,0.9,1.8,1.4,2.9,1.4c0.8,0,1.7-0.3,2.4-0.9c14.4-11.8,24.9-22.3,33.1-32.8
		c17.2-22.2,25.6-46.7,25.6-75c0-2.1-1.7-3.8-3.8-3.8h-15.1c-2.1,0-3.8,1.7-3.8,3.8c0,3.9-0.2,7.7-0.5,11.3H136.2
		c-2.1,0-3.8,1.7-3.8,3.8C132.4-329.9,134.1-328.2,136.2-328.2L136.2-328.2z M136.2-328.2"/>
	<linearGradient id="SVGID_3_" gradientUnits="userSpaceOnUse" x1="201.627" y1="-136.7029" x2="201.627" y2="-129.1425">
		<stop  offset="0" style="stop-color:#FF6167;stop-opacity:0.8"/>
		<stop  offset="0.1381" style="stop-color:#FB6067;stop-opacity:0.8249"/>
		<stop  offset="0.2696" style="stop-color:#F05C67;stop-opacity:0.8485"/>
		<stop  offset="0.3986" style="stop-color:#DC5666;stop-opacity:0.8717"/>
		<stop  offset="0.526" style="stop-color:#C14E65;stop-opacity:0.8947"/>
		<stop  offset="0.6522" style="stop-color:#9F4365;stop-opacity:0.9174"/>
		<stop  offset="0.7776" style="stop-color:#743663;stop-opacity:0.94"/>
		<stop  offset="0.9" style="stop-color:#422662;stop-opacity:0.962"/>
		<stop  offset="1" style="stop-color:#141861;stop-opacity:0.98"/>
	</linearGradient>
	<path class="st2" d="M237.1-136.7h-70.8c-2.1,0-3.8,1.7-3.8,3.8s1.7,3.8,3.8,3.8h70.8c2.1,0,3.8-1.7,3.8-3.8
		S239.1-136.7,237.1-136.7L237.1-136.7z M237.1-136.7"/>
</g>
<g>
	<linearGradient id="SVGID_4_" gradientUnits="userSpaceOnUse" x1="91.1812" y1="159.5994" x2="298.8204" y2="279.4799">
		<stop  offset="0" style="stop-color:#FF6167;stop-opacity:0.8"/>
		<stop  offset="0.1381" style="stop-color:#FB6067;stop-opacity:0.8249"/>
		<stop  offset="0.2696" style="stop-color:#F05C67;stop-opacity:0.8485"/>
		<stop  offset="0.3986" style="stop-color:#DC5666;stop-opacity:0.8717"/>
		<stop  offset="0.526" style="stop-color:#C14E65;stop-opacity:0.8947"/>
		<stop  offset="0.6522" style="stop-color:#9F4365;stop-opacity:0.9174"/>
		<stop  offset="0.7776" style="stop-color:#743663;stop-opacity:0.94"/>
		<stop  offset="0.9" style="stop-color:#422662;stop-opacity:0.962"/>
		<stop  offset="1" style="stop-color:#141861;stop-opacity:0.98"/>
	</linearGradient>
	<path class="st3" d="M311.3,134.6l-9.2,3.8l7.5,18h-32.8v10h36.9l12.4,29.9l-12.4,29.9h-75.9c-13.3-12.3-31.1-19.9-50.6-19.9
		c-19.5,0-37.3,7.6-50.6,19.9H52.8v10h74.8c-9.4,12.5-15.1,28-15.1,44.8c0,41.2,33.5,74.7,74.7,74.7c41.2,0,74.7-33.5,74.7-74.7
		c0-16.8-5.7-32.3-15.1-44.8h62.8l-7.5,18l9.2,3.8l25.7-61.7L311.3,134.6z M251.9,280.9c0,35.7-29,64.7-64.7,64.7
		c-35.7,0-64.7-29-64.7-64.7c0-35.7,29-64.7,64.7-64.7C222.9,216.2,251.9,245.2,251.9,280.9L251.9,280.9z M251.9,280.9"/>
	<linearGradient id="SVGID_5_" gradientUnits="userSpaceOnUse" x1="86.1121" y1="116.965" x2="244.2125" y2="208.2443">
		<stop  offset="0" style="stop-color:#FF6167;stop-opacity:0.8"/>
		<stop  offset="0.1381" style="stop-color:#FB6067;stop-opacity:0.8249"/>
		<stop  offset="0.2696" style="stop-color:#F05C67;stop-opacity:0.8485"/>
		<stop  offset="0.3986" style="stop-color:#DC5666;stop-opacity:0.8717"/>
		<stop  offset="0.526" style="stop-color:#C14E65;stop-opacity:0.8947"/>
		<stop  offset="0.6522" style="stop-color:#9F4365;stop-opacity:0.9174"/>
		<stop  offset="0.7776" style="stop-color:#743663;stop-opacity:0.94"/>
		<stop  offset="0.9" style="stop-color:#422662;stop-opacity:0.962"/>
		<stop  offset="1" style="stop-color:#141861;stop-opacity:0.98"/>
	</linearGradient>
	<path class="st4" d="M72.7,204.2l87.7-47.5l11,11l-20.5,2.6c-7.8,1-13.6,7.6-13.6,15.4c0,8.6,7,15.6,15.6,15.6
		c3.1,0,6.2-0.2,9.2-0.5l43.9-4.9l6.4-25.5l-21-29.4l27-3.9l9.8,34.3h28.6c8.2,0,14.9-6.7,14.9-14.9c0-8.2-6.7-14.9-14.9-14.9H251
		l-4.4-22.1L227.1,96c-4.9-5.9-12.1-9.2-19.7-9.2c-1.2,0-2.4,0.1-3.5,0.3l-20.9-10.5l-42.7,8.5c-7.4,1.5-12.8,8-12.8,15.6
		c0,8.8,7.1,15.9,15.9,15.9h2.7l-1.4,0.8l-89,56.2c-4.9,3.1-7.9,8.5-7.9,14.3v1.4c0,9.3,7.6,16.9,16.9,16.9
		C67.5,206.2,70.3,205.5,72.7,204.2L72.7,204.2z M201.7,172.4l-3.6,14.3l-37,4.1c-2.7,0.3-5.4,0.5-8.1,0.5c-3.1,0-5.6-2.5-5.6-5.6
		c0-2.8,2.1-5.2,4.9-5.5l40.7-5.1l-23.3-23.3l12.5-6.8L201.7,172.4z M143.4,106.6c-3.3,0-6-2.7-6-6c0-2.8,2-5.3,4.8-5.8l39.3-7.9
		l9.9,4.9l-20.1,11l-23.9,3.7c-0.3,0.1-0.6,0.1-0.9,0.1H143.4z M57.8,189.3v-1.4c0-2.4,1.2-4.6,3.2-5.9l88.8-56.1l50.1-27.3
		c2.3-1.2,4.9-1.9,7.5-1.9c4.7,0,9.1,2.1,12,5.6l17.9,21.5l5.5,27.6h14c2.7,0,5,2.2,5,5c0,2.7-2.2,5-5,5h-21.1L225.6,126l-40,5.7
		L68,195.4c-1,0.5-2.2,0.8-3.3,0.8C60.9,196.3,57.8,193.1,57.8,189.3L57.8,189.3z M57.8,189.3"/>
	<linearGradient id="SVGID_6_" gradientUnits="userSpaceOnUse" x1="226.0434" y1="61.84" x2="277.773" y2="91.7061">
		<stop  offset="0" style="stop-color:#FF6167;stop-opacity:0.8"/>
		<stop  offset="0.1381" style="stop-color:#FB6067;stop-opacity:0.8249"/>
		<stop  offset="0.2696" style="stop-color:#F05C67;stop-opacity:0.8485"/>
		<stop  offset="0.3986" style="stop-color:#DC5666;stop-opacity:0.8717"/>
		<stop  offset="0.526" style="stop-color:#C14E65;stop-opacity:0.8947"/>
		<stop  offset="0.6522" style="stop-color:#9F4365;stop-opacity:0.9174"/>
		<stop  offset="0.7776" style="stop-color:#743663;stop-opacity:0.94"/>
		<stop  offset="0.9" style="stop-color:#422662;stop-opacity:0.962"/>
		<stop  offset="1" style="stop-color:#141861;stop-opacity:0.98"/>
	</linearGradient>
	<path class="st5" d="M251.9,106.6c16.5,0,29.9-13.4,29.9-29.9c0-16.5-13.4-29.9-29.9-29.9c-16.5,0-29.9,13.4-29.9,29.9
		C222,93.2,235.4,106.6,251.9,106.6L251.9,106.6z M251.9,56.9c11,0,19.9,8.9,19.9,19.9c0,11-8.9,19.9-19.9,19.9
		c-11,0-19.9-8.9-19.9-19.9C232,65.8,240.9,56.9,251.9,56.9L251.9,56.9z M251.9,56.9"/>
	<linearGradient id="SVGID_7_" gradientUnits="userSpaceOnUse" x1="31.9479" y1="227.7017" x2="43.7279" y2="234.5029">
		<stop  offset="0" style="stop-color:#FF6167;stop-opacity:0.8"/>
		<stop  offset="0.1381" style="stop-color:#FB6067;stop-opacity:0.8249"/>
		<stop  offset="0.2696" style="stop-color:#F05C67;stop-opacity:0.8485"/>
		<stop  offset="0.3986" style="stop-color:#DC5666;stop-opacity:0.8717"/>
		<stop  offset="0.526" style="stop-color:#C14E65;stop-opacity:0.8947"/>
		<stop  offset="0.6522" style="stop-color:#9F4365;stop-opacity:0.9174"/>
		<stop  offset="0.7776" style="stop-color:#743663;stop-opacity:0.94"/>
		<stop  offset="0.9" style="stop-color:#422662;stop-opacity:0.962"/>
		<stop  offset="1" style="stop-color:#141861;stop-opacity:0.98"/>
	</linearGradient>
	<rect x="32.9" y="226.1" class="st6" width="10" height="10"/>
	<linearGradient id="SVGID_8_" gradientUnits="userSpaceOnUse" x1="31.9479" y1="123.1568" x2="43.7279" y2="129.9579">
		<stop  offset="0" style="stop-color:#FF6167;stop-opacity:0.8"/>
		<stop  offset="0.1381" style="stop-color:#FB6067;stop-opacity:0.8249"/>
		<stop  offset="0.2696" style="stop-color:#F05C67;stop-opacity:0.8485"/>
		<stop  offset="0.3986" style="stop-color:#DC5666;stop-opacity:0.8717"/>
		<stop  offset="0.526" style="stop-color:#C14E65;stop-opacity:0.8947"/>
		<stop  offset="0.6522" style="stop-color:#9F4365;stop-opacity:0.9174"/>
		<stop  offset="0.7776" style="stop-color:#743663;stop-opacity:0.94"/>
		<stop  offset="0.9" style="stop-color:#422662;stop-opacity:0.962"/>
		<stop  offset="1" style="stop-color:#141861;stop-opacity:0.98"/>
	</linearGradient>
	<rect x="32.9" y="121.6" class="st7" width="10" height="10"/>
	<linearGradient id="SVGID_9_" gradientUnits="userSpaceOnUse" x1="56.8406" y1="114.5341" x2="98.4904" y2="138.5806">
		<stop  offset="0" style="stop-color:#FF6167;stop-opacity:0.8"/>
		<stop  offset="0.1381" style="stop-color:#FB6067;stop-opacity:0.8249"/>
		<stop  offset="0.2696" style="stop-color:#F05C67;stop-opacity:0.8485"/>
		<stop  offset="0.3986" style="stop-color:#DC5666;stop-opacity:0.8717"/>
		<stop  offset="0.526" style="stop-color:#C14E65;stop-opacity:0.8947"/>
		<stop  offset="0.6522" style="stop-color:#9F4365;stop-opacity:0.9174"/>
		<stop  offset="0.7776" style="stop-color:#743663;stop-opacity:0.94"/>
		<stop  offset="0.9" style="stop-color:#422662;stop-opacity:0.962"/>
		<stop  offset="1" style="stop-color:#141861;stop-opacity:0.98"/>
	</linearGradient>
	<rect x="52.8" y="121.6" class="st8" width="49.8" height="10"/>
	<linearGradient id="SVGID_10_" gradientUnits="userSpaceOnUse" x1="41.9047" y1="103.2416" x2="53.6847" y2="110.0428">
		<stop  offset="0" style="stop-color:#FF6167;stop-opacity:0.8"/>
		<stop  offset="0.1381" style="stop-color:#FB6067;stop-opacity:0.8249"/>
		<stop  offset="0.2696" style="stop-color:#F05C67;stop-opacity:0.8485"/>
		<stop  offset="0.3986" style="stop-color:#DC5666;stop-opacity:0.8717"/>
		<stop  offset="0.526" style="stop-color:#C14E65;stop-opacity:0.8947"/>
		<stop  offset="0.6522" style="stop-color:#9F4365;stop-opacity:0.9174"/>
		<stop  offset="0.7776" style="stop-color:#743663;stop-opacity:0.94"/>
		<stop  offset="0.9" style="stop-color:#422662;stop-opacity:0.962"/>
		<stop  offset="1" style="stop-color:#141861;stop-opacity:0.98"/>
	</linearGradient>
	<rect x="42.8" y="101.7" class="st9" width="10" height="10"/>
	<linearGradient id="SVGID_11_" gradientUnits="userSpaceOnUse" x1="67.4203" y1="93.5414" x2="112.8027" y2="119.743">
		<stop  offset="0" style="stop-color:#FF6167;stop-opacity:0.8"/>
		<stop  offset="0.1381" style="stop-color:#FB6067;stop-opacity:0.8249"/>
		<stop  offset="0.2696" style="stop-color:#F05C67;stop-opacity:0.8485"/>
		<stop  offset="0.3986" style="stop-color:#DC5666;stop-opacity:0.8717"/>
		<stop  offset="0.526" style="stop-color:#C14E65;stop-opacity:0.8947"/>
		<stop  offset="0.6522" style="stop-color:#9F4365;stop-opacity:0.9174"/>
		<stop  offset="0.7776" style="stop-color:#743663;stop-opacity:0.94"/>
		<stop  offset="0.9" style="stop-color:#422662;stop-opacity:0.962"/>
		<stop  offset="1" style="stop-color:#141861;stop-opacity:0.98"/>
	</linearGradient>
	<rect x="62.7" y="101.7" class="st10" width="54.8" height="10"/>
	<linearGradient id="SVGID_12_" gradientUnits="userSpaceOnUse" x1="51.8623" y1="83.3303" x2="63.6423" y2="90.1315">
		<stop  offset="0" style="stop-color:#FF6167;stop-opacity:0.8"/>
		<stop  offset="0.1381" style="stop-color:#FB6067;stop-opacity:0.8249"/>
		<stop  offset="0.2696" style="stop-color:#F05C67;stop-opacity:0.8485"/>
		<stop  offset="0.3986" style="stop-color:#DC5666;stop-opacity:0.8717"/>
		<stop  offset="0.526" style="stop-color:#C14E65;stop-opacity:0.8947"/>
		<stop  offset="0.6522" style="stop-color:#9F4365;stop-opacity:0.9174"/>
		<stop  offset="0.7776" style="stop-color:#743663;stop-opacity:0.94"/>
		<stop  offset="0.9" style="stop-color:#422662;stop-opacity:0.962"/>
		<stop  offset="1" style="stop-color:#141861;stop-opacity:0.98"/>
	</linearGradient>
	<rect x="52.8" y="81.8" class="st11" width="10" height="10"/>
	<linearGradient id="SVGID_13_" gradientUnits="userSpaceOnUse" x1="76.7527" y1="74.7076" x2="118.4025" y2="98.7542">
		<stop  offset="0" style="stop-color:#FF6167;stop-opacity:0.8"/>
		<stop  offset="0.1381" style="stop-color:#FB6067;stop-opacity:0.8249"/>
		<stop  offset="0.2696" style="stop-color:#F05C67;stop-opacity:0.8485"/>
		<stop  offset="0.3986" style="stop-color:#DC5666;stop-opacity:0.8717"/>
		<stop  offset="0.526" style="stop-color:#C14E65;stop-opacity:0.8947"/>
		<stop  offset="0.6522" style="stop-color:#9F4365;stop-opacity:0.9174"/>
		<stop  offset="0.7776" style="stop-color:#743663;stop-opacity:0.94"/>
		<stop  offset="0.9" style="stop-color:#422662;stop-opacity:0.962"/>
		<stop  offset="1" style="stop-color:#141861;stop-opacity:0.98"/>
	</linearGradient>
	<rect x="72.7" y="81.8" class="st12" width="49.8" height="10"/>
	<linearGradient id="SVGID_14_" gradientUnits="userSpaceOnUse" x1="145.8277" y1="243.9267" x2="236.0417" y2="296.0118">
		<stop  offset="0" style="stop-color:#FF6167;stop-opacity:0.8"/>
		<stop  offset="0.1381" style="stop-color:#FB6067;stop-opacity:0.8249"/>
		<stop  offset="0.2696" style="stop-color:#F05C67;stop-opacity:0.8485"/>
		<stop  offset="0.3986" style="stop-color:#DC5666;stop-opacity:0.8717"/>
		<stop  offset="0.526" style="stop-color:#C14E65;stop-opacity:0.8947"/>
		<stop  offset="0.6522" style="stop-color:#9F4365;stop-opacity:0.9174"/>
		<stop  offset="0.7776" style="stop-color:#743663;stop-opacity:0.94"/>
		<stop  offset="0.9" style="stop-color:#422662;stop-opacity:0.962"/>
		<stop  offset="1" style="stop-color:#141861;stop-opacity:0.98"/>
	</linearGradient>
	<path class="st13" d="M186.6,226.1c-30.2,0.6-54.2,25.7-53.6,55.9l0.1,5l14.9-0.3l-0.2-10l-4.7,0.1c0.4-4.6,1.5-8.9,3.2-13l4.1,2.3
		l4.8-8.7l-4.1-2.2c2.6-3.7,5.7-6.9,9.3-9.7l2.4,4l8.5-5.2l-2.4-4c4-1.9,8.3-3.1,12.9-3.7l0.1,4.7l10-0.2l-0.1-4.7
		c4.6,0.4,8.9,1.5,13,3.2l-2.3,4.1l8.7,4.8l2.2-4.1c3.7,2.6,6.9,5.7,9.7,9.3l-4,2.4l5.2,8.5l4-2.4c1.9,4,3.1,8.3,3.8,12.9l-4.7,0.1
		l0.2,10l14.9-0.3l-0.1-5C241.8,249.6,216.8,225.5,186.6,226.1L186.6,226.1z M186.6,226.1"/>
	<linearGradient id="SVGID_15_" gradientUnits="userSpaceOnUse" x1="193.5467" y1="284.8537" x2="205.7027" y2="291.872">
		<stop  offset="0" style="stop-color:#FF6167;stop-opacity:0.8"/>
		<stop  offset="0.1381" style="stop-color:#FB6067;stop-opacity:0.8249"/>
		<stop  offset="0.2696" style="stop-color:#F05C67;stop-opacity:0.8485"/>
		<stop  offset="0.3986" style="stop-color:#DC5666;stop-opacity:0.8717"/>
		<stop  offset="0.526" style="stop-color:#C14E65;stop-opacity:0.8947"/>
		<stop  offset="0.6522" style="stop-color:#9F4365;stop-opacity:0.9174"/>
		<stop  offset="0.7776" style="stop-color:#743663;stop-opacity:0.94"/>
		<stop  offset="0.9" style="stop-color:#422662;stop-opacity:0.962"/>
		<stop  offset="1" style="stop-color:#141861;stop-opacity:0.98"/>
	</linearGradient>
	<path class="st14" d="M191.2,308.7l-8.1-5.8l24.9-34.8l8.1,5.8L191.2,308.7z M191.2,308.7"/>
	<linearGradient id="SVGID_16_" gradientUnits="userSpaceOnUse" x1="181.3" y1="322.2929" x2="193.08" y2="329.0941">
		<stop  offset="0" style="stop-color:#FF6167;stop-opacity:0.8"/>
		<stop  offset="0.1381" style="stop-color:#FB6067;stop-opacity:0.8249"/>
		<stop  offset="0.2696" style="stop-color:#F05C67;stop-opacity:0.8485"/>
		<stop  offset="0.3986" style="stop-color:#DC5666;stop-opacity:0.8717"/>
		<stop  offset="0.526" style="stop-color:#C14E65;stop-opacity:0.8947"/>
		<stop  offset="0.6522" style="stop-color:#9F4365;stop-opacity:0.9174"/>
		<stop  offset="0.7776" style="stop-color:#743663;stop-opacity:0.94"/>
		<stop  offset="0.9" style="stop-color:#422662;stop-opacity:0.962"/>
		<stop  offset="1" style="stop-color:#141861;stop-opacity:0.98"/>
	</linearGradient>
	<rect x="182.2" y="320.7" class="st15" width="10" height="10"/>
	<linearGradient id="SVGID_17_" gradientUnits="userSpaceOnUse" x1="201.2144" y1="322.2929" x2="212.9944" y2="329.0941">
		<stop  offset="0" style="stop-color:#FF6167;stop-opacity:0.8"/>
		<stop  offset="0.1381" style="stop-color:#FB6067;stop-opacity:0.8249"/>
		<stop  offset="0.2696" style="stop-color:#F05C67;stop-opacity:0.8485"/>
		<stop  offset="0.3986" style="stop-color:#DC5666;stop-opacity:0.8717"/>
		<stop  offset="0.526" style="stop-color:#C14E65;stop-opacity:0.8947"/>
		<stop  offset="0.6522" style="stop-color:#9F4365;stop-opacity:0.9174"/>
		<stop  offset="0.7776" style="stop-color:#743663;stop-opacity:0.94"/>
		<stop  offset="0.9" style="stop-color:#422662;stop-opacity:0.962"/>
		<stop  offset="1" style="stop-color:#141861;stop-opacity:0.98"/>
	</linearGradient>
	<rect x="202.1" y="320.7" class="st16" width="10" height="10"/>
	<linearGradient id="SVGID_18_" gradientUnits="userSpaceOnUse" x1="161.3875" y1="322.2936" x2="173.1652" y2="329.0934">
		<stop  offset="0" style="stop-color:#FF6167;stop-opacity:0.8"/>
		<stop  offset="0.1381" style="stop-color:#FB6067;stop-opacity:0.8249"/>
		<stop  offset="0.2696" style="stop-color:#F05C67;stop-opacity:0.8485"/>
		<stop  offset="0.3986" style="stop-color:#DC5666;stop-opacity:0.8717"/>
		<stop  offset="0.526" style="stop-color:#C14E65;stop-opacity:0.8947"/>
		<stop  offset="0.6522" style="stop-color:#9F4365;stop-opacity:0.9174"/>
		<stop  offset="0.7776" style="stop-color:#743663;stop-opacity:0.94"/>
		<stop  offset="0.9" style="stop-color:#422662;stop-opacity:0.962"/>
		<stop  offset="1" style="stop-color:#141861;stop-opacity:0.98"/>
	</linearGradient>
	<rect x="162.3" y="320.7" class="st17" width="10" height="10"/>
</g>
</svg>
