<?xml version="1.0" encoding="utf-8"?>
<!-- Generator: Adobe Illustrator 22.0.1, SVG Export Plug-In . SVG Version: 6.00 Build 0)  -->
<svg version="1.0" id="Ebene_1" xmlns="http://www.w3.org/2000/svg" xmlns:xlink="http://www.w3.org/1999/xlink" x="0px" y="0px"
	 viewBox="0 0 581.9 616.8" enable-background="new 0 0 581.9 616.8" xml:space="preserve">
<g id="Gruppe_198" transform="translate(840.603 354.24)">

		<path id="Pfad_281" fill="#FFFFFF" stroke="#141843" stroke-width="2" stroke-linecap="round" stroke-linejoin="round" stroke-miterlimit="10" d="
		M-584.5-42.3v-6h4.3c9-6,10.8-22.5,10.8-22.5h49.8c0,0,1.8,16.5,10.8,22.5h3.7v6H-584.5z"/>

		<rect id="Rechteck_251" x="-697" y="-60.3" fill="#141843" stroke="#141843" stroke-width="2" stroke-linecap="round" stroke-linejoin="round" stroke-miterlimit="10" width="140.9" height="93"/>

		<rect id="Rechteck_252" x="-691" y="-54.3" fill="#FFFFFF" stroke="#141843" stroke-width="2" stroke-linecap="round" stroke-linejoin="round" stroke-miterlimit="10" width="130.5" height="81"/>

		<rect id="Rechteck_253" x="-638.5" y="-202.7" fill="#141843" stroke="#141843" stroke-width="2" stroke-linecap="round" stroke-linejoin="round" stroke-miterlimit="10" width="185.9" height="133.5"/>

		<path id="Pfad_282" fill="#FFFFFF" stroke="#141843" stroke-width="2" stroke-linecap="round" stroke-linejoin="round" stroke-miterlimit="10" d="
		M-536.1-82.5c0,4.3-3.5,7.8-7.8,7.8s-7.8-3.5-7.8-7.8c0-4.3,3.5-7.8,7.8-7.8l0,0c4.3,0,7.8,3.4,7.8,7.7
		C-536.1-82.5-536.1-82.5-536.1-82.5z"/>

		<rect id="Rechteck_254" x="-631" y="-193.7" fill="#FFFFFF" stroke="#141843" stroke-width="2" stroke-linecap="round" stroke-linejoin="round" stroke-miterlimit="10" width="170.9" height="97.5"/>

		<rect id="Rechteck_255" x="-601.6" y="-187.1" fill="#FF6167" stroke="#141843" stroke-linecap="round" stroke-linejoin="round" stroke-miterlimit="10" width="37.5" height="10.5"/>

		<rect id="Rechteck_256" x="-600.1" y="-173.6" fill="#FF6167" stroke="#141843" stroke-linecap="round" stroke-linejoin="round" stroke-miterlimit="10" width="109.5" height="28.5"/>

		<rect id="Rechteck_257" x="-600.1" y="-142.1" fill="#FF6167" stroke="#141843" stroke-linecap="round" stroke-linejoin="round" stroke-miterlimit="10" width="31.5" height="16.5"/>

		<rect id="Rechteck_258" x="-562.6" y="-142.1" fill="#FF6167" stroke="#141843" stroke-linecap="round" stroke-linejoin="round" stroke-miterlimit="10" width="33" height="16.5"/>

		<rect id="Rechteck_259" x="-525.1" y="-142.1" fill="#FF6167" stroke="#141843" stroke-linecap="round" stroke-linejoin="round" stroke-miterlimit="10" width="33" height="16.5"/>

		<rect id="Rechteck_260" x="-601.6" y="-122.6" fill="#FF6167" stroke="#141843" stroke-linecap="round" stroke-linejoin="round" stroke-miterlimit="10" width="34.5" height="3"/>

		<rect id="Rechteck_261" x="-601.6" y="-117.1" fill="#FF6167" stroke="#141843" stroke-linecap="round" stroke-linejoin="round" stroke-miterlimit="10" width="34.5" height="3"/>

		<rect id="Rechteck_262" x="-601.6" y="-112.1" fill="#FF6167" stroke="#141843" stroke-linecap="round" stroke-linejoin="round" stroke-miterlimit="10" width="34.5" height="3"/>

		<rect id="Rechteck_263" x="-601.6" y="-106.4" fill="#FF6167" stroke="#141843" stroke-linecap="round" stroke-linejoin="round" stroke-miterlimit="10" width="18" height="3"/>

		<rect id="Rechteck_264" x="-564.1" y="-122.6" fill="#FF6167" stroke="#141843" stroke-linecap="round" stroke-linejoin="round" stroke-miterlimit="10" width="34.5" height="3"/>

		<rect id="Rechteck_265" x="-564.1" y="-117.1" fill="#FF6167" stroke="#141843" stroke-linecap="round" stroke-linejoin="round" stroke-miterlimit="10" width="34.5" height="3"/>

		<rect id="Rechteck_266" x="-564.1" y="-112.1" fill="#FF6167" stroke="#141843" stroke-linecap="round" stroke-linejoin="round" stroke-miterlimit="10" width="34.5" height="3"/>

		<rect id="Rechteck_267" x="-564.1" y="-106.4" fill="#FF6167" stroke="#141843" stroke-linecap="round" stroke-linejoin="round" stroke-miterlimit="10" width="19.5" height="3"/>

		<rect id="Rechteck_268" x="-523.6" y="-122.6" fill="#FF6167" stroke="#141843" stroke-linecap="round" stroke-linejoin="round" stroke-miterlimit="10" width="33" height="3"/>

		<rect id="Rechteck_269" x="-523.6" y="-117.1" fill="#FF6167" stroke="#141843" stroke-linecap="round" stroke-linejoin="round" stroke-miterlimit="10" width="33" height="3"/>

		<rect id="Rechteck_270" x="-523.6" y="-112.1" fill="#FF6167" stroke="#141843" stroke-linecap="round" stroke-linejoin="round" stroke-miterlimit="10" width="33" height="3"/>

		<rect id="Rechteck_271" x="-523.6" y="-106.4" fill="#FF6167" stroke="#141843" stroke-linecap="round" stroke-linejoin="round" stroke-miterlimit="10" width="18" height="3"/>

		<path id="Pfad_283" fill="#FFFFFF" stroke="#141843" stroke-width="2" stroke-linecap="round" stroke-linejoin="round" stroke-miterlimit="10" d="
		M-713.8,32.7H-538v4.6l-4.6,2.9H-709l-5.1-2.8L-713.8,32.7z"/>

		<rect id="Rechteck_272" x="-676.6" y="-47.4" fill="#FF6167" stroke="#141843" stroke-linecap="round" stroke-linejoin="round" stroke-miterlimit="10" width="31.5" height="9"/>

		<rect id="Rechteck_273" x="-676.6" y="-36.1" fill="#FF6167" stroke="#141843" stroke-linecap="round" stroke-linejoin="round" stroke-miterlimit="10" width="94.5" height="24"/>

		<rect id="Rechteck_274" x="-676.6" y="-8.7" fill="#FF6167" stroke="#141843" stroke-linecap="round" stroke-linejoin="round" stroke-miterlimit="10" width="28.5" height="15"/>

		<rect id="Rechteck_275" x="-643.6" y="-8.7" fill="#FF6167" stroke="#141843" stroke-linecap="round" stroke-linejoin="round" stroke-miterlimit="10" width="27" height="15"/>

		<rect id="Rechteck_276" x="-612.1" y="-8.7" fill="#FF6167" stroke="#141843" stroke-linecap="round" stroke-linejoin="round" stroke-miterlimit="10" width="28.5" height="15"/>

		<rect id="Rechteck_277" x="-676.6" y="9.3" fill="#FF6167" stroke="#141843" stroke-linecap="round" stroke-linejoin="round" stroke-miterlimit="10" width="28.5" height="3"/>

		<rect id="Rechteck_278" x="-676.6" y="14.1" fill="#FF6167" stroke="#141843" stroke-linecap="round" stroke-linejoin="round" stroke-miterlimit="10" width="28.5" height="3"/>

		<rect id="Rechteck_279" x="-676.6" y="21.3" fill="#FF6167" stroke="#141843" stroke-linecap="round" stroke-linejoin="round" stroke-miterlimit="10" width="16.5" height="3"/>

		<rect id="Rechteck_280" x="-645.1" y="9.3" fill="#FF6167" stroke="#141843" stroke-linecap="round" stroke-linejoin="round" stroke-miterlimit="10" width="28.5" height="3"/>

		<rect id="Rechteck_281" x="-645.1" y="14.1" fill="#FF6167" stroke="#141843" stroke-linecap="round" stroke-linejoin="round" stroke-miterlimit="10" width="28.5" height="3"/>

		<rect id="Rechteck_282" x="-645.1" y="21.3" fill="#FF6167" stroke="#141843" stroke-linecap="round" stroke-linejoin="round" stroke-miterlimit="10" width="16.5" height="3"/>

		<rect id="Rechteck_283" x="-610.6" y="9.3" fill="#FF6167" stroke="#141843" stroke-linecap="round" stroke-linejoin="round" stroke-miterlimit="10" width="28.5" height="3"/>

		<rect id="Rechteck_284" x="-610.6" y="14.1" fill="#FF6167" stroke="#141843" stroke-linecap="round" stroke-linejoin="round" stroke-miterlimit="10" width="28.5" height="3"/>

		<rect id="Rechteck_285" x="-610.6" y="21.3" fill="#FF6167" stroke="#0F0C15" stroke-linecap="round" stroke-linejoin="round" stroke-miterlimit="10" width="15" height="3"/>
	<g id="Gruppe_197" transform="translate(201.679 144.549)">

			<rect id="Rechteck_286" x="-714.1" y="-202.7" fill="#141843" stroke="#141843" stroke-width="2" stroke-linecap="round" stroke-linejoin="round" stroke-miterlimit="10" width="45" height="87"/>

			<rect id="Rechteck_287" x="-711.1" y="-192.2" fill="#FFFFFF" stroke="#141843" stroke-linecap="round" stroke-linejoin="round" stroke-miterlimit="10" width="39" height="66"/>

			<path id="Pfad_284" fill="#E5EBEE" stroke="#0F0C15" stroke-width="0.5" stroke-linecap="round" stroke-linejoin="round" stroke-miterlimit="10" d="
			M-688-122.2c0,2-1.6,3.6-3.6,3.6c-2,0-3.6-1.6-3.6-3.6c0-2,1.6-3.6,3.6-3.6l0,0C-689.6-125.8-688-124.3-688-122.2
			C-688-122.3-688-122.2-688-122.2z"/>

			<rect id="Rechteck_288" x="-702.1" y="-196.7" fill="#E5EBEE" stroke="#0F0C15" stroke-width="0.5" stroke-linecap="round" stroke-linejoin="round" stroke-miterlimit="10" width="18" height="3"/>

			<rect id="Rechteck_289" x="-708.1" y="-186.2" fill="#FF6167" stroke="#141843" stroke-linecap="round" stroke-linejoin="round" stroke-miterlimit="10" width="33" height="6"/>

			<rect id="Rechteck_290" x="-708.1" y="-177.2" fill="#FF6167" stroke="#141843" stroke-linecap="round" stroke-linejoin="round" stroke-miterlimit="10" width="33" height="18"/>

			<rect id="Rechteck_291" x="-708.1" y="-156.2" fill="#FF6167" stroke="#141843" stroke-linecap="round" stroke-linejoin="round" stroke-miterlimit="10" width="33" height="13.5"/>

			<rect id="Rechteck_292" x="-708.1" y="-139.7" fill="#FF6167" stroke="#141843" stroke-linecap="round" stroke-linejoin="round" stroke-miterlimit="10" width="33" height="9"/>
	</g>
</g>
</svg>
