<?xml version="1.0" encoding="utf-8"?>
<!-- Generator: Adobe Illustrator 22.0.1, SVG Export Plug-In . SVG Version: 6.00 Build 0)  -->
<svg version="1.0" id="Ebene_1" xmlns="http://www.w3.org/2000/svg" xmlns:xlink="http://www.w3.org/1999/xlink" x="0px" y="0px"
	 viewBox="0 0 581.9 616.8" enable-background="new 0 0 581.9 616.8" xml:space="preserve">
<rect id="Rechteck_296" x="137.1" y="449.8" fill="none" width="382.1" height="142.6"/>
<path id="Pfad_286" fill="#FDF4EB" d="M309.5,162l-39.6-59.5L230.3,162h15.6v112.5h46.5V162H309.5z"/>
<g id="Gruppe_223" transform="translate(202.429 395.55)">
	<g id="Gruppe_222" transform="translate(7.197)">
		<g id="Gruppe_199" transform="translate(0 85.92)">
			<path id="Pfad_287" fill="#FBE3CC" d="M114.3-210.1l80.4,45.7L82.2-98.6L1.8-143.9L114.3-210.1z"/>
			<path id="Pfad_288" fill="#141843" d="M82.2-96.8c-0.3,0-0.6-0.1-0.9-0.3L0.9-142.2c-0.8-0.4-1.1-1.5-0.7-2.3
				c0.2-0.3,0.4-0.5,0.7-0.7l112.5-66.3c0.6-0.3,1.2-0.3,1.8,0l80.4,45.7c0.8,0.4,1.1,1.5,0.7,2.3c-0.2,0.3-0.4,0.5-0.7,0.7
				L83.1-96.9C82.8-96.9,82.5-96.8,82.2-96.8z M5.4-143.9l76.8,43.2L191-164.4L114.3-208L5.4-143.9z"/>
		</g>
		<g id="Gruppe_200" transform="translate(0 78.122)">
			<path id="Pfad_289" fill="#FF6167" d="M114.3-210.1l80.4,45.7L82.2-98.6L1.8-143.9L114.3-210.1z"/>
			<path id="Pfad_290" fill="#141843" d="M82.2-96.8c-0.3,0-0.6-0.1-0.9-0.3L0.9-142.2c-0.8-0.4-1.1-1.5-0.7-2.3
				c0.2-0.3,0.4-0.5,0.7-0.7l112.5-66.3c0.6-0.3,1.2-0.3,1.8,0l80.4,45.7c0.8,0.4,1.1,1.5,0.7,2.3c-0.2,0.3-0.4,0.5-0.7,0.7
				L83.1-96.9C82.8-96.9,82.5-96.8,82.2-96.8z M5.4-143.9l76.8,43.2L191-164.4L114.3-208L5.4-143.9z"/>
		</g>
		<g id="Gruppe_201" transform="translate(0 70.175)">
			<path id="Pfad_291" fill="#FBE3CC" d="M114.3-210l80.4,45.7L82.2-98.6L1.8-143.7L114.3-210z"/>
			<path id="Pfad_292" fill="#141843" d="M82.2-96.8c-0.3,0-0.6-0.1-0.9-0.3L0.9-142.2c-0.8-0.4-1.1-1.5-0.7-2.3
				c0.2-0.3,0.4-0.5,0.7-0.7l112.5-66.3c0.6-0.3,1.2-0.3,1.8,0l80.4,45.7c0.8,0.4,1.1,1.5,0.7,2.3c-0.2,0.3-0.4,0.5-0.7,0.7
				L83.1-96.9C82.8-96.8,82.5-96.8,82.2-96.8z M5.4-143.7l76.8,43.2L191-164.3l-76.8-43.6L5.4-143.7z"/>
		</g>
		<g id="Gruppe_202" transform="translate(0 62.228)">
			<path id="Pfad_293" fill="#FF6167" d="M114.3-209.8l80.4,45.7L82.2-98.4L1.8-143.6L114.3-209.8z"/>
			<path id="Pfad_294" fill="#141843" d="M82.2-96.6c-0.3,0-0.6-0.1-0.9-0.3L0.9-142.1c-0.6-0.3-0.9-0.9-0.9-1.5
				c0-0.7,0.4-1.3,0.9-1.6l112.5-66.3c0.6-0.3,1.2-0.3,1.8,0l80.4,45.7c0.8,0.4,1.1,1.5,0.7,2.3c-0.2,0.3-0.4,0.5-0.7,0.7L83.1-96.9
				C82.8-96.7,82.5-96.6,82.2-96.6z M5.4-143.6l76.8,43.2L191-164.1l-76.8-43.6L5.4-143.6z"/>
		</g>
		<g id="Gruppe_203" transform="translate(0 54.581)">
			<path id="Pfad_295" fill="#FBE3CC" d="M114.3-210l80.4,45.7L82.2-98.6L1.8-143.7L114.3-210z"/>
			<path id="Pfad_296" fill="#141843" d="M82.2-96.8c-0.3,0-0.6-0.1-0.9-0.3L0.9-142.2c-0.8-0.4-1.1-1.5-0.7-2.3
				c0.2-0.3,0.4-0.5,0.7-0.7l112.5-66.3c0.6-0.3,1.2-0.3,1.8,0l80.4,45.7c0.8,0.4,1.1,1.5,0.7,2.3c-0.2,0.3-0.4,0.5-0.7,0.7
				L83.1-96.9C82.8-96.8,82.5-96.8,82.2-96.8z M5.4-143.7l76.8,43.2L191-164.3l-76.8-43.6L5.4-143.7z"/>
		</g>
		<g id="Gruppe_204" transform="translate(0 46.784)">
			<path id="Pfad_297" fill="#FF6167" d="M114.3-210l80.4,45.7L82.2-98.6L1.8-143.7L114.3-210z"/>
			<path id="Pfad_298" fill="#141843" d="M82.2-96.8c-0.3,0-0.6-0.1-0.9-0.3L0.9-142.2c-0.8-0.4-1.1-1.5-0.7-2.3
				c0.2-0.3,0.4-0.5,0.7-0.7l112.5-66.3c0.6-0.3,1.2-0.3,1.8,0l80.4,45.7c0.8,0.4,1.1,1.5,0.7,2.3c-0.2,0.3-0.4,0.5-0.7,0.7
				L83.1-96.9C82.8-96.8,82.5-96.8,82.2-96.8z M5.4-143.7l76.8,43.2L191-164.3l-76.8-43.6L5.4-143.7z"/>
		</g>
		<g id="Gruppe_205" transform="translate(0 38.986)">
			<path id="Pfad_299" fill="#FBE3CC" d="M114.3-210l80.4,45.7L82.2-98.6L1.8-143.7L114.3-210z"/>
			<path id="Pfad_300" fill="#141843" d="M82.2-96.8c-0.3,0-0.6-0.1-0.9-0.3L0.9-142.2c-0.8-0.4-1.1-1.5-0.7-2.3
				c0.2-0.3,0.4-0.5,0.7-0.7l112.5-66.3c0.6-0.3,1.2-0.3,1.8,0l80.4,45.7c0.8,0.4,1.1,1.5,0.7,2.3c-0.2,0.3-0.4,0.5-0.7,0.7
				L83.1-96.9C82.8-96.8,82.5-96.8,82.2-96.8z M5.4-143.7l76.8,43.2L191-164.3l-76.8-43.6L5.4-143.7z"/>
		</g>
		<g id="Gruppe_206" transform="translate(0 31.039)">
			<path id="Pfad_301" fill="#FF6167" d="M114.3-209.8l80.4,45.6L82.2-98.4L1.8-143.6L114.3-209.8z"/>
			<path id="Pfad_302" fill="#141843" d="M82.2-96.6c-0.3,0-0.6-0.1-0.9-0.3L0.9-142.1c-0.6-0.3-0.9-0.9-0.9-1.5
				c0-0.7,0.4-1.3,0.9-1.6l112.5-66.3c0.6-0.3,1.2-0.3,1.8,0l80.4,45.7c0.8,0.4,1.1,1.5,0.7,2.3c-0.2,0.3-0.4,0.5-0.7,0.7L83.1-96.9
				C82.8-96.7,82.5-96.6,82.2-96.6z M5.4-143.7l76.8,43.2L191-164.3l-76.8-43.5L5.4-143.7z"/>
		</g>
		<g id="Gruppe_207" transform="translate(0 23.392)">
			<path id="Pfad_303" fill="#FBE3CC" d="M114.3-210l80.4,45.6L82.2-98.6L1.8-143.7L114.3-210z"/>
			<path id="Pfad_304" fill="#141843" d="M82.2-96.8c-0.3,0-0.6-0.1-0.9-0.3L0.9-142.2c-0.8-0.4-1.1-1.5-0.7-2.3
				c0.2-0.3,0.4-0.5,0.7-0.7l112.5-66.3c0.6-0.3,1.2-0.3,1.8,0l80.4,45.7c0.8,0.4,1.1,1.5,0.7,2.3c-0.2,0.3-0.4,0.5-0.7,0.7
				L83.1-96.9C82.8-96.8,82.5-96.8,82.2-96.8z M5.4-143.9l76.8,43.2L191-164.4l-76.8-43.5L5.4-143.9z"/>
		</g>
		<g id="Gruppe_208" transform="translate(0 15.595)">
			<path id="Pfad_305" fill="#FF6167" d="M114.3-210l80.4,45.6L82.2-98.6L1.8-143.7L114.3-210z"/>
			<path id="Pfad_306" fill="#141843" d="M82.2-96.8c-0.3,0-0.6-0.1-0.9-0.3L0.9-142.2c-0.8-0.4-1.1-1.5-0.7-2.3
				c0.2-0.3,0.4-0.5,0.7-0.7l112.5-66.3c0.6-0.3,1.2-0.3,1.8,0l80.4,45.7c0.8,0.4,1.1,1.5,0.7,2.3c-0.2,0.3-0.4,0.5-0.7,0.7
				L83.1-96.9C82.8-96.8,82.5-96.8,82.2-96.8z M5.4-143.9l76.8,43.2L191-164.4L114.3-208L5.4-143.9z"/>
		</g>
		<g id="Gruppe_209" transform="translate(0 7.797)">
			<path id="Pfad_307" fill="#FBE3CC" d="M114.3-210l80.4,45.6L82.2-98.6L1.8-143.7L114.3-210z"/>
			<path id="Pfad_308" fill="#141843" d="M82.2-96.8c-0.3,0-0.6-0.1-0.9-0.3L0.9-142.2c-0.8-0.4-1.1-1.5-0.7-2.3
				c0.2-0.3,0.4-0.5,0.7-0.7l112.5-66.3c0.6-0.3,1.2-0.3,1.8,0l80.4,45.7c0.8,0.4,1.1,1.5,0.7,2.3c-0.2,0.3-0.4,0.5-0.7,0.7
				L83.1-96.9C82.8-96.9,82.5-96.8,82.2-96.8z M5.4-143.9l76.8,43.2L191-164.4L114.3-208L5.4-143.9z"/>
		</g>
		<g id="Gruppe_210">
			<path id="Pfad_309" fill="#FF6167" d="M114.3-210.1l80.4,45.7L82.2-98.6L1.8-143.7L114.3-210.1z"/>
			<path id="Pfad_310" fill="#141843" d="M82.2-96.8c-0.3,0-0.6-0.1-0.9-0.3L0.9-142.2c-0.8-0.4-1.1-1.5-0.7-2.3
				c0.2-0.3,0.4-0.5,0.7-0.7l112.5-66.3c0.6-0.3,1.2-0.3,1.8,0l80.4,45.7c0.8,0.4,1.1,1.5,0.7,2.3c-0.2,0.3-0.4,0.5-0.7,0.7
				L83.1-96.9C82.8-96.9,82.5-96.8,82.2-96.8z M5.4-143.9l76.8,43.2L191-164.4L114.3-208L5.4-143.9z"/>
		</g>
		<path id="Pfad_311" fill="#FBE3CC" d="M65.5-110l33.9-0.9L82-100.7L65.5-110z"/>
		<g id="Gruppe_220" transform="translate(29.527 14.413)">
			<g id="Gruppe_211" transform="translate(75.979)">
				<path id="Pfad_312" fill="#141843" d="M65.6-172.2c-0.3,0-0.7-0.1-0.9-0.3L1-208.4c-0.9-0.5-1.2-1.5-0.7-2.4
					c0.5-0.9,1.5-1.2,2.4-0.8l0,0l63.7,35.8c0.9,0.5,1.2,1.5,0.8,2.4C66.9-172.6,66.3-172.2,65.6-172.2z"/>
			</g>
			<g id="Gruppe_212" transform="translate(67.282 6.598)">
				<path id="Pfad_313" fill="#141843" d="M65.6-172.4c-0.3,0-0.7-0.1-0.9-0.3L1-208.4c-0.9-0.5-1.2-1.5-0.7-2.4
					c0.5-0.9,1.5-1.2,2.4-0.8l63.7,35.8c0.9,0.5,1.2,1.5,0.8,2.4C66.8-172.7,66.2-172.4,65.6-172.4z"/>
			</g>
			<g id="Gruppe_213" transform="translate(57.085 10.796)">
				<path id="Pfad_314" fill="#141843" d="M65.6-172.2c-0.3,0-0.7-0.1-0.9-0.3L1-208.4c-0.9-0.5-1.2-1.5-0.7-2.4
					c0.5-0.9,1.5-1.2,2.4-0.8l63.7,35.8c0.9,0.5,1.2,1.5,0.8,2.4C66.9-172.6,66.3-172.2,65.6-172.2z"/>
			</g>
			<g id="Gruppe_214" transform="translate(47.639 16.644)">
				<path id="Pfad_315" fill="#141843" d="M65.6-172.2c-0.3,0-0.7-0.1-0.9-0.3L1-208.4c-0.9-0.5-1.2-1.5-0.7-2.4
					c0.5-0.9,1.5-1.2,2.4-0.8l0,0l63.7,35.8c0.9,0.5,1.2,1.5,0.8,2.4C66.9-172.6,66.3-172.1,65.6-172.2z"/>
			</g>
			<g id="Gruppe_215" transform="translate(36.842 22.492)">
				<path id="Pfad_316" fill="#141843" d="M65.6-172.2c-0.3,0-0.7-0.1-0.9-0.3L1-208.4c-0.9-0.5-1.2-1.5-0.7-2.4
					c0.5-0.9,1.5-1.2,2.4-0.8l0,0l63.7,35.8c0.9,0.5,1.2,1.5,0.8,2.4C66.8-172.7,66.2-172.3,65.6-172.2z"/>
			</g>
			<g id="Gruppe_216" transform="translate(27.396 27.44)">
				<path id="Pfad_317" fill="#141843" d="M65.6-172.2c-0.3,0-0.7-0.1-0.9-0.3L1-208.4c-0.9-0.5-1.2-1.5-0.7-2.4
					c0.5-0.9,1.5-1.2,2.4-0.8l63.7,35.8c0.9,0.5,1.2,1.5,0.8,2.4C66.9-172.6,66.3-172.2,65.6-172.2z"/>
			</g>
			<g id="Gruppe_217" transform="translate(17.949 33.288)">
				<path id="Pfad_318" fill="#141843" d="M65.6-172.2c-0.3,0-0.7-0.1-0.9-0.3L1-208.4c-0.9-0.5-1.2-1.5-0.7-2.4
					c0.5-0.9,1.5-1.2,2.4-0.8l63.7,35.8c0.9,0.5,1.2,1.5,0.8,2.4C66.9-172.6,66.3-172.1,65.6-172.2z"/>
			</g>
			<g id="Gruppe_218" transform="translate(9.252 37.637)">
				<path id="Pfad_319" fill="#141843" d="M65.6-172.2c-0.3,0-0.7-0.1-0.9-0.3L1-208.4c-0.9-0.5-1.2-1.5-0.7-2.4
					c0.5-0.9,1.5-1.2,2.4-0.8l63.7,35.8c0.9,0.5,1.2,1.5,0.8,2.4C66.9-172.6,66.3-172.1,65.6-172.2z"/>
			</g>
			<g id="Gruppe_219" transform="translate(0 43.229)">
				<path id="Pfad_320" fill="#141843" d="M25.7-193.4c-0.3,0-0.6-0.1-0.9-0.3L0.9-208.3c-0.9-0.6-1.1-1.7-0.6-2.6
					c0.5-0.8,1.6-1.1,2.5-0.6l23.8,14.5c0.9,0.5,1.2,1.5,0.7,2.4c0,0.1-0.1,0.1-0.1,0.2C26.9-193.8,26.3-193.4,25.7-193.4z"/>
			</g>
		</g>
		<g id="Gruppe_221" transform="translate(60.256 80.147)">
			<path id="Pfad_321" fill="#FFFFFF" d="M1.8-191.2l43.2-1.5c0,0-15.4-3-22.2-18.3C22.8-210.8,15.8-194.6,1.8-191.2z"/>
			<path id="Pfad_322" fill="#141843" d="M1.8-188.5c-0.9,0-1.6-1-1.8-1.9c-0.1-1,0.4-1.9,1.4-2.2c13-3.3,19.8-18.1,19.8-18.3
				c0.3-0.6,0.9-0.8,1.6-0.8l0,0c0.8,0,1.4,0,1.6,0.6c6.1,14.2,20.7,16.9,20.8,16.9c0.9,0.1,1.5,0.9,1.5,1.8c0,0.9-0.8,1-1.8,1.2
				l-43.2,1L1.8-188.5z M22.8-206.9c-2.1,3.6-6,9.6-12.1,13.6l25.3-0.9C30.5-197,25.9-201.5,22.8-206.9z"/>
		</g>
	</g>
	<rect id="Rechteck_297" x="0" y="-175.1" fill="none" width="166.4" height="199.4"/>

		<linearGradient id="Pfad_323_1_" gradientUnits="userSpaceOnUse" x1="-255.2716" y1="116.209" x2="-254.4656" y2="117.459" gradientTransform="matrix(37.5753 0 0 -24.231 9757.1445 2682.6919)">
		<stop  offset="0" style="stop-color:#FBE3CC;stop-opacity:0.929"/>
		<stop  offset="0.283" style="stop-color:#FF6167;stop-opacity:0.302"/>
		<stop  offset="0.789" style="stop-color:#1C1A44;stop-opacity:0.976"/>
		<stop  offset="1" style="stop-color:#141843"/>
	</linearGradient>
	<path id="Pfad_323" fill="url(#Pfad_323_1_)" d="M198.4-160.7l-0.1,4l-34,19.8c0,0-1.9,1-2.8-0.3c-0.9-1.2-0.8-1.2,1.1-2.4
		C164-140.4,198.4-160.7,198.4-160.7z"/>

		<linearGradient id="Pfad_324_1_" gradientUnits="userSpaceOnUse" x1="-255.2696" y1="116.2117" x2="-254.4636" y2="117.4627" gradientTransform="matrix(37.5753 0 0 -24.231 9757.1445 2698.5857)">
		<stop  offset="0" style="stop-color:#FBE3CC;stop-opacity:0.929"/>
		<stop  offset="0.283" style="stop-color:#FF6167;stop-opacity:0.302"/>
		<stop  offset="0.789" style="stop-color:#1C1A44;stop-opacity:0.976"/>
		<stop  offset="1" style="stop-color:#141843"/>
	</linearGradient>
	<path id="Pfad_324" fill="url(#Pfad_324_1_)" d="M198.4-144.8l-0.1,4l-34,19.8c0,0-1.9,1-2.8-0.3c-0.9-1.2-0.8-1.2,1.1-2.4
		C164-124.5,198.4-144.8,198.4-144.8z"/>

		<linearGradient id="Pfad_325_1_" gradientUnits="userSpaceOnUse" x1="-255.2706" y1="116.2106" x2="-254.4646" y2="117.4606" gradientTransform="matrix(37.5753 0 0 -24.231 9757.1445 2714.0308)">
		<stop  offset="0" style="stop-color:#FBE3CC;stop-opacity:0.929"/>
		<stop  offset="0.283" style="stop-color:#FF6167;stop-opacity:0.302"/>
		<stop  offset="0.789" style="stop-color:#1C1A44;stop-opacity:0.976"/>
		<stop  offset="1" style="stop-color:#141843"/>
	</linearGradient>
	<path id="Pfad_325" fill="url(#Pfad_325_1_)" d="M198.4-129.3l-0.1,4l-34,19.8c0,0-1.9,1-2.8-0.3c-0.9-1.2-0.8-1.2,1.1-2.4
		C164-109.1,198.4-129.3,198.4-129.3z"/>

		<linearGradient id="Pfad_326_1_" gradientUnits="userSpaceOnUse" x1="-254.2365" y1="111.7163" x2="-253.4275" y2="112.9663" gradientTransform="matrix(38.3253 0 0 -24.83 9908.5166 2688.1772)">
		<stop  offset="0" style="stop-color:#FBE3CC;stop-opacity:0.929"/>
		<stop  offset="0.283" style="stop-color:#FF6167;stop-opacity:0.302"/>
		<stop  offset="0.789" style="stop-color:#1C1A44;stop-opacity:0.976"/>
		<stop  offset="1" style="stop-color:#141843"/>
	</linearGradient>
	<path id="Pfad_326" fill="url(#Pfad_326_1_)" d="M198.7-114l-0.1,4.3l-34.8,20.1c0,0-1.9,1-2.8-0.3c-0.9-1.2-0.8-1.2,1.1-2.4
		C163.6-93,198.7-114,198.7-114z"/>

		<linearGradient id="Pfad_327_1_" gradientUnits="userSpaceOnUse" x1="-255.4836" y1="113.9433" x2="-254.6736" y2="115.1783" gradientTransform="matrix(37.4254 0 0 -24.53 9726.7812 2724.6802)">
		<stop  offset="0" style="stop-color:#FBE3CC;stop-opacity:0.929"/>
		<stop  offset="0.283" style="stop-color:#FF6167;stop-opacity:0.302"/>
		<stop  offset="0.789" style="stop-color:#1C1A44;stop-opacity:0.976"/>
		<stop  offset="1" style="stop-color:#141843"/>
	</linearGradient>
	<path id="Pfad_327" fill="url(#Pfad_327_1_)" d="M198.1-98.1l0.1,4.3l-34,19.8c0,0-1.9,1-2.8-0.3c-0.9-1.2-0.8-1.2,1.1-2.4
		C164-77.6,198.1-98.1,198.1-98.1z"/>

		<linearGradient id="Pfad_328_1_" gradientUnits="userSpaceOnUse" x1="-255.2711" y1="116.2097" x2="-254.4651" y2="117.4597" gradientTransform="matrix(37.5753 0 0 -24.231 9757.1445 2760.9639)">
		<stop  offset="0" style="stop-color:#FBE3CC;stop-opacity:0.929"/>
		<stop  offset="0.283" style="stop-color:#FF6167;stop-opacity:0.302"/>
		<stop  offset="0.789" style="stop-color:#1C1A44;stop-opacity:0.976"/>
		<stop  offset="1" style="stop-color:#141843"/>
	</linearGradient>
	<path id="Pfad_328" fill="url(#Pfad_328_1_)" d="M198.4-82.4l-0.1,4l-34,19.8c0,0-1.9,1-2.8-0.3c-0.9-1.2-0.8-1.2,1.1-2.4
		C164-62.1,198.4-82.4,198.4-82.4z"/>
</g>
</svg>
