<?xml version="1.0" encoding="UTF-8" standalone="no"?>
<svg
   xmlns:dc="http://purl.org/dc/elements/1.1/"
   xmlns:cc="http://creativecommons.org/ns#"
   xmlns:rdf="http://www.w3.org/1999/02/22-rdf-syntax-ns#"
   xmlns="http://www.w3.org/2000/svg"
   viewBox="0 0 2560 1600"
   height="1600"
   width="2560"
   xml:space="preserve"
   id="svg2"
   version="1.1"><metadata
     id="metadata8"><rdf:RDF><cc:Work
         rdf:about=""><dc:format>image/svg+xml</dc:format><dc:type
           rdf:resource="http://purl.org/dc/dcmitype/StillImage" /></cc:Work></rdf:RDF></metadata><defs
     id="defs6"><clipPath
       id="clipPath28"
       clipPathUnits="userSpaceOnUse"><path
         id="path26"
         d="M 0,1200 H 1920 V 0 H 0 Z" /></clipPath></defs><g
     transform="matrix(1.3333333,0,0,-1.3333333,0,1600)"
     id="g10"><path
       id="path12"
       style="fill:#fbe3cc;fill-opacity:1;fill-rule:nonzero;stroke:none"
       d="m 1589.408,289.282 h -1280 v 664 h 1280 z" /><g
       transform="translate(1148.9082,833.1826)"
       id="g14"><path
         id="path16"
         style="fill:#141843;fill-opacity:1;fill-rule:nonzero;stroke:none"
         d="M 0,0 -838.877,-447.078 V 121.394 L 2.5,121 Z" /></g><g
       transform="translate(1143.875,954.1763)"
       id="g18"><path
         id="path20"
         style="fill:#ff6167;fill-opacity:1;fill-rule:nonzero;stroke:none"
         d="M 0,0 1.521,-123.394 445.625,-371.801 445.129,-0.394 Z" /></g><g
       id="g22"><g
         clip-path="url(#clipPath28)"
         id="g24"><g
           transform="translate(1589.625,581)"
           id="g30"><path
             id="path32"
             style="fill:#141843;fill-opacity:1;fill-rule:nonzero;stroke:none"
             d="m 0,0 -446.817,250.336 c -1.687,0.948 -2.285,3.081 -1.333,4.768 0.944,1.686 3.077,2.296 4.767,1.334 L 0,7.875" /></g><g
           transform="translate(1336.7305,716.3286)"
           id="g34"><path
             id="path36"
             style="fill:#fbe3cc;fill-opacity:1;fill-rule:nonzero;stroke:none"
             d="m 0,0 155.721,-88.563 -218.005,-127.494 -155.715,87.591 z" /></g><g
           transform="translate(1125.75,587.9336)"
           id="g38"><path
             id="path40"
             style="fill:#141843;fill-opacity:1;fill-rule:nonzero;stroke:none"
             d="M 0,0 148.662,-83.626 359.69,39.792 211.012,124.348 Z m 148.696,-91.165 c -0.592,0 -1.183,0.151 -1.717,0.451 L -8.735,-3.123 c -1.091,0.613 -1.774,1.763 -1.786,3.018 -0.014,1.251 0.646,2.415 1.723,3.05 l 218,128.466 c 1.08,0.64 2.421,0.644 3.51,0.027 L 368.433,42.877 c 1.088,-0.62 1.764,-1.772 1.771,-3.024 0.008,-1.252 -0.653,-2.411 -1.733,-3.044 L 150.464,-90.686 c -0.548,-0.318 -1.156,-0.479 -1.768,-0.479" /></g><g
           transform="translate(1336.7305,731.457)"
           id="g42"><path
             id="path44"
             style="fill:#ff6167;fill-opacity:1;fill-rule:nonzero;stroke:none"
             d="m 0,0 155.718,-88.565 -218.002,-127.492 -155.715,87.595 z" /></g><g
           transform="translate(1125.75,603.0664)"
           id="g46"><path
             id="path48"
             style="fill:#141843;fill-opacity:1;fill-rule:nonzero;stroke:none"
             d="m 0,0 148.662,-83.629 211.025,123.413 -148.675,84.56 z m 148.696,-91.168 c -0.592,0 -1.183,0.15 -1.717,0.451 L -8.735,-3.124 c -1.091,0.614 -1.774,1.763 -1.786,3.018 -0.014,1.252 0.646,2.415 1.723,3.052 l 218,128.462 c 1.08,0.639 2.421,0.643 3.51,0.028 L 368.43,42.87 c 1.087,-0.62 1.763,-1.772 1.771,-3.024 0.007,-1.252 -0.653,-2.411 -1.734,-3.044 L 150.464,-90.689 c -0.548,-0.318 -1.156,-0.479 -1.768,-0.479" /></g><g
           transform="translate(1336.7305,746.5894)"
           id="g50"><path
             id="path52"
             style="fill:#fbe3cc;fill-opacity:1;fill-rule:nonzero;stroke:none"
             d="m 0,0 155.721,-88.565 -218.005,-127.491 -155.715,87.587 z" /></g><g
           transform="translate(1125.75,618.1919)"
           id="g54"><path
             id="path56"
             style="fill:#141843;fill-opacity:1;fill-rule:nonzero;stroke:none"
             d="M 0,0 148.662,-83.623 359.69,39.792 211.012,124.351 Z m 148.696,-91.162 c -0.592,0 -1.183,0.152 -1.717,0.449 L -8.735,-3.126 c -1.091,0.616 -1.774,1.765 -1.786,3.02 -0.014,1.252 0.646,2.415 1.723,3.051 l 218,128.47 c 1.08,0.639 2.421,0.643 3.51,0.027 L 368.433,42.877 c 1.088,-0.62 1.764,-1.772 1.771,-3.024 0.008,-1.252 -0.653,-2.412 -1.733,-3.044 L 150.464,-90.682 c -0.548,-0.318 -1.156,-0.48 -1.768,-0.48" /></g><g
           transform="translate(1336.7305,761.7153)"
           id="g58"><path
             id="path60"
             style="fill:#ff6167;fill-opacity:1;fill-rule:nonzero;stroke:none"
             d="m 0,0 155.721,-88.562 -218.005,-127.494 -155.715,87.59 z" /></g><g
           transform="translate(1125.75,633.3218)"
           id="g62"><path
             id="path64"
             style="fill:#141843;fill-opacity:1;fill-rule:nonzero;stroke:none"
             d="M 0,0 148.662,-83.626 359.69,39.791 211.012,124.348 Z m 148.696,-91.165 c -0.592,0 -1.183,0.151 -1.717,0.452 L -8.735,-3.124 c -1.091,0.613 -1.774,1.762 -1.786,3.017 -0.014,1.253 0.646,2.416 1.723,3.051 l 218,128.467 c 1.08,0.639 2.421,0.643 3.51,0.027 L 368.433,42.876 c 1.088,-0.619 1.764,-1.772 1.771,-3.023 0.008,-1.253 -0.653,-2.413 -1.733,-3.045 L 150.464,-90.686 c -0.548,-0.317 -1.156,-0.479 -1.768,-0.479" /></g><g
           transform="translate(1336.7305,776.8477)"
           id="g66"><path
             id="path68"
             style="fill:#fbe3cc;fill-opacity:1;fill-rule:nonzero;stroke:none"
             d="M 0,0 155.721,-88.565 -62.284,-216.059 -217.999,-128.47 Z" /></g><g
           transform="translate(1125.75,648.4502)"
           id="g70"><path
             id="path72"
             style="fill:#141843;fill-opacity:1;fill-rule:nonzero;stroke:none"
             d="M 0,0 148.662,-83.626 359.69,39.792 211.012,124.351 Z m 148.696,-91.165 c -0.592,0 -1.183,0.151 -1.717,0.452 L -8.735,-3.123 c -1.091,0.612 -1.774,1.762 -1.786,3.017 -0.014,1.252 0.646,2.415 1.723,3.052 l 218,128.469 c 1.08,0.64 2.421,0.643 3.51,0.027 L 368.433,42.877 c 1.088,-0.62 1.764,-1.772 1.771,-3.023 0.008,-1.253 -0.653,-2.412 -1.733,-3.045 L 150.464,-90.686 c -0.548,-0.318 -1.156,-0.479 -1.768,-0.479" /></g><g
           transform="translate(1336.7305,791.9741)"
           id="g74"><path
             id="path76"
             style="fill:#ff6167;fill-opacity:1;fill-rule:nonzero;stroke:none"
             d="m 0,0 155.721,-88.562 -218.005,-127.494 -155.715,87.59 z" /></g><g
           transform="translate(1125.75,663.5791)"
           id="g78"><path
             id="path80"
             style="fill:#141843;fill-opacity:1;fill-rule:nonzero;stroke:none"
             d="M 0,0 148.662,-83.626 359.69,39.792 211.012,124.348 Z m 148.696,-91.164 c -0.592,0 -1.183,0.149 -1.717,0.452 L -8.735,-3.122 c -1.091,0.612 -1.774,1.761 -1.786,3.017 -0.014,1.251 0.646,2.415 1.723,3.051 l 218,128.466 c 1.08,0.64 2.421,0.643 3.51,0.027 L 368.433,42.878 c 1.088,-0.62 1.764,-1.773 1.771,-3.024 0.008,-1.253 -0.653,-2.412 -1.733,-3.044 L 150.464,-90.686 c -0.548,-0.318 -1.156,-0.478 -1.768,-0.478" /></g><g
           transform="translate(1336.7305,807.1064)"
           id="g82"><path
             id="path84"
             style="fill:#fbe3cc;fill-opacity:1;fill-rule:nonzero;stroke:none"
             d="m 0,0 155.721,-88.565 -218.005,-127.492 -155.715,87.588 z" /></g><g
           transform="translate(1125.75,678.7085)"
           id="g86"><path
             id="path88"
             style="fill:#141843;fill-opacity:1;fill-rule:nonzero;stroke:none"
             d="M 0,0 148.662,-83.623 359.69,39.791 211.012,124.351 Z m 148.696,-91.162 c -0.592,0 -1.183,0.151 -1.717,0.449 L -8.735,-3.126 c -1.091,0.616 -1.774,1.764 -1.786,3.02 -0.014,1.252 0.646,2.415 1.723,3.051 l 218,128.47 c 1.08,0.64 2.421,0.643 3.51,0.027 L 368.433,42.877 c 1.088,-0.62 1.764,-1.772 1.771,-3.024 0.008,-1.252 -0.653,-2.411 -1.733,-3.044 L 150.464,-90.682 c -0.548,-0.318 -1.156,-0.48 -1.768,-0.48" /></g><g
           transform="translate(1336.7305,822.2314)"
           id="g90"><path
             id="path92"
             style="fill:#ff6167;fill-opacity:1;fill-rule:nonzero;stroke:none"
             d="m 0,0 155.721,-88.561 -218.005,-127.495 -155.715,87.595 z" /></g><g
           transform="translate(1125.75,693.8408)"
           id="g94"><path
             id="path96"
             style="fill:#141843;fill-opacity:1;fill-rule:nonzero;stroke:none"
             d="M 0,0 148.662,-83.629 359.69,39.789 211.012,124.344 Z m 148.696,-91.168 c -0.592,0 -1.183,0.151 -1.717,0.452 L -8.735,-3.123 c -1.091,0.613 -1.774,1.762 -1.786,3.017 -0.014,1.252 0.646,2.415 1.723,3.051 l 218,128.464 c 1.08,0.635 2.421,0.642 3.51,0.026 L 368.433,42.874 c 1.088,-0.619 1.764,-1.771 1.771,-3.024 0.008,-1.252 -0.653,-2.412 -1.733,-3.044 L 150.464,-90.689 c -0.548,-0.318 -1.156,-0.479 -1.768,-0.479" /></g><g
           transform="translate(1336.7305,837.3643)"
           id="g98"><path
             id="path100"
             style="fill:#fbe3cc;fill-opacity:1;fill-rule:nonzero;stroke:none"
             d="M 0,0 155.718,-88.564 -62.284,-216.056 -217.999,-128.47 Z" /></g><g
           transform="translate(1125.75,708.9673)"
           id="g102"><path
             id="path104"
             style="fill:#141843;fill-opacity:1;fill-rule:nonzero;stroke:none"
             d="M 0,0 148.662,-83.623 359.687,39.792 211.012,124.351 Z m 148.696,-91.163 c -0.592,0 -1.183,0.152 -1.717,0.45 L -8.735,-3.126 c -1.091,0.616 -1.774,1.764 -1.786,3.02 -0.014,1.252 0.646,2.415 1.723,3.051 l 218,128.47 c 1.08,0.639 2.421,0.642 3.51,0.026 L 368.43,42.876 c 1.087,-0.619 1.763,-1.772 1.771,-3.023 0.007,-1.252 -0.653,-2.412 -1.734,-3.045 L 150.464,-90.683 c -0.548,-0.318 -1.156,-0.48 -1.768,-0.48" /></g><g
           transform="translate(1336.7305,852.4941)"
           id="g106"><path
             id="path108"
             style="fill:#ff6167;fill-opacity:1;fill-rule:nonzero;stroke:none"
             d="m 0,0 155.718,-88.562 -218.002,-127.499 -155.718,87.595 z" /></g><g
           transform="translate(1125.748,724.0996)"
           id="g110"><path
             id="path112"
             style="fill:#141843;fill-opacity:1;fill-rule:nonzero;stroke:none"
             d="M 0,0 148.664,-83.629 359.689,39.792 211.014,124.347 Z m 148.698,-91.168 c -0.593,0 -1.183,0.151 -1.718,0.451 L -8.737,-3.123 c -1.091,0.613 -1.772,1.762 -1.785,3.017 -0.014,1.252 0.646,2.416 1.723,3.051 l 218.003,128.466 c 1.08,0.64 2.421,0.643 3.51,0.027 L 368.432,42.876 c 1.087,-0.618 1.763,-1.771 1.771,-3.022 0.007,-1.253 -0.653,-2.413 -1.734,-3.045 L 150.466,-90.689 c -0.548,-0.318 -1.156,-0.479 -1.768,-0.479" /></g><g
           transform="translate(1336.7305,867.6226)"
           id="g114"><path
             id="path116"
             style="fill:#fbe3cc;fill-opacity:1;fill-rule:nonzero;stroke:none"
             d="M 0,0 155.721,-88.565 -62.284,-216.057 -217.999,-128.47 Z" /></g><g
           transform="translate(1125.75,739.2251)"
           id="g118"><path
             id="path120"
             style="fill:#141843;fill-opacity:1;fill-rule:nonzero;stroke:none"
             d="M 0,0 148.662,-83.623 359.69,39.791 211.012,124.351 Z m 148.696,-91.161 c -0.592,0 -1.183,0.151 -1.717,0.447 L -8.735,-3.126 c -1.091,0.616 -1.774,1.766 -1.786,3.02 -0.014,1.252 0.646,2.414 1.723,3.051 l 218,128.47 c 1.08,0.639 2.421,0.643 3.51,0.027 L 368.433,42.877 c 1.088,-0.618 1.764,-1.772 1.771,-3.024 0.008,-1.251 -0.653,-2.412 -1.733,-3.044 L 150.464,-90.683 c -0.548,-0.317 -1.156,-0.478 -1.768,-0.478" /></g><g
           transform="translate(1336.7305,882.7524)"
           id="g122"><path
             id="path124"
             style="fill:#fbe3cc;fill-opacity:1;fill-rule:nonzero;stroke:none"
             d="M 0,0 155.721,-88.563 -62.284,-216.06 -217.999,-128.467 Z" /></g><g
           transform="translate(1125.75,754.3574)"
           id="g126"><path
             id="path128"
             style="fill:#141843;fill-opacity:1;fill-rule:nonzero;stroke:none"
             d="M 0,0 148.662,-83.629 359.69,39.792 211.012,124.348 Z m 148.696,-91.167 c -0.592,0 -1.183,0.15 -1.717,0.451 L -8.735,-3.123 c -1.091,0.613 -1.774,1.763 -1.786,3.017 -0.014,1.252 0.646,2.415 1.723,3.051 l 218,128.466 c 1.08,0.64 2.421,0.643 3.51,0.028 L 368.433,42.877 c 1.088,-0.618 1.764,-1.772 1.771,-3.024 0.008,-1.251 -0.653,-2.412 -1.733,-3.044 L 150.464,-90.689 c -0.548,-0.318 -1.156,-0.478 -1.768,-0.478" /></g><g
           transform="translate(1235.5576,690.6914)"
           id="g130"><path
             id="path132"
             style="fill:#ffffff;fill-opacity:1;fill-rule:nonzero;stroke:none"
             d="m 0,0 83.626,2.879 c 0,0 -29.992,5.754 -42.908,35.37 C 40.718,38.249 27.145,6.77 0,0" /></g><g
           transform="translate(1276.2451,721.2021)"
           id="g134"><path
             id="path136"
             style="fill:#141843;fill-opacity:1;fill-rule:nonzero;stroke:none"
             d="m 0,0 c -4.017,-7.06 -11.764,-18.478 -23.4,-26.41 l 49.038,1.686 C 17.153,-20.132 7.152,-12.481 0,0 m -40.688,-35.765 c -1.741,0 -3.225,2.158 -3.469,3.893 -0.248,1.775 0.884,3.889 2.621,4.323 25.173,6.277 38.221,35.381 38.351,35.68 0.552,1.283 1.813,1.562 3.208,1.562 h 0.004 c 1.396,0 2.659,-0.051 3.215,-1.33 12.037,-27.604 40.075,-32.886 40.357,-32.941 1.752,-0.336 2.967,-1.742 2.832,-3.518 -0.136,-1.778 -1.59,-2.195 -3.373,-2.256 l -83.626,-1.913 c -0.041,-3.503 -0.081,-3.5 -0.12,-3.5" /></g><g
           transform="translate(1446.79,781.4727)"
           id="g138"><path
             id="path140"
             style="fill:#141843;fill-opacity:1;fill-rule:nonzero;stroke:none"
             d="m 0,0 c -0.58,0 -1.17,0.144 -1.713,0.448 l -123.499,69.465 c -1.686,0.951 -2.286,3.085 -1.338,4.772 0.944,1.686 3.078,2.284 4.772,1.338 L 1.721,6.558 C 3.406,5.606 4.006,3.472 3.059,1.786 2.416,0.643 1.226,0 0,0" /></g><g
           transform="translate(1429.9512,768.8403)"
           id="g142"><path
             id="path144"
             style="fill:#141843;fill-opacity:1;fill-rule:nonzero;stroke:none"
             d="M 0,0 C -0.582,0 -1.17,0.144 -1.714,0.451 L -125.213,69.92 c -1.685,0.947 -2.285,3.082 -1.334,4.768 0.941,1.687 3.075,2.295 4.768,1.335 L 1.72,6.554 C 3.406,5.606 4.006,3.472 3.055,1.786 2.414,0.644 1.226,0 0,0" /></g><g
           transform="translate(1410.3037,760.4214)"
           id="g146"><path
             id="path148"
             style="fill:#141843;fill-opacity:1;fill-rule:nonzero;stroke:none"
             d="M 0,0 C -0.582,0 -1.17,0.145 -1.714,0.449 L -125.21,69.914 c -1.686,0.951 -2.284,3.086 -1.337,4.772 0.946,1.686 3.079,2.285 4.772,1.337 L 1.72,6.558 C 3.406,5.607 4.005,3.473 3.059,1.787 2.414,0.644 1.226,0 0,0" /></g><g
           transform="translate(1392.0615,749.1929)"
           id="g150"><path
             id="path152"
             style="fill:#141843;fill-opacity:1;fill-rule:nonzero;stroke:none"
             d="m 0,0 c -0.581,0 -1.169,0.143 -1.713,0.451 l -123.5,69.469 c -1.686,0.947 -2.284,3.082 -1.333,4.768 0.94,1.687 3.074,2.292 4.768,1.334 L 1.721,6.553 C 3.407,5.606 4.006,3.472 3.055,1.785 2.415,0.643 1.225,0 0,0" /></g><g
           transform="translate(1371.0078,737.9668)"
           id="g154"><path
             id="path156"
             style="fill:#141843;fill-opacity:1;fill-rule:nonzero;stroke:none"
             d="m 0,0 c -0.581,0 -1.17,0.143 -1.713,0.451 l -123.499,69.468 c -1.686,0.948 -2.286,3.081 -1.335,4.768 0.941,1.686 3.078,2.296 4.769,1.334 L 1.721,6.553 C 3.406,5.605 4.006,3.472 3.055,1.785 2.415,0.643 1.226,0 0,0" /></g><g
           transform="translate(1352.7627,728.1431)"
           id="g158"><path
             id="path160"
             style="fill:#141843;fill-opacity:1;fill-rule:nonzero;stroke:none"
             d="M 0,0 C -0.582,0 -1.17,0.143 -1.714,0.451 L -125.21,69.919 c -1.686,0.948 -2.284,3.081 -1.333,4.768 0.94,1.686 3.078,2.292 4.768,1.334 L 1.72,6.553 C 3.407,5.605 4.006,3.471 3.055,1.785 2.414,0.643 1.226,0 0,0" /></g><g
           transform="translate(1334.5176,716.9136)"
           id="g162"><path
             id="path164"
             style="fill:#141843;fill-opacity:1;fill-rule:nonzero;stroke:none"
             d="M 0,0 C -0.582,0 -1.169,0.143 -1.714,0.451 L -125.21,69.922 c -1.686,0.948 -2.284,3.082 -1.333,4.768 0.944,1.686 3.077,2.296 4.768,1.334 L 1.721,6.554 C 3.407,5.605 4.005,3.471 3.054,1.785 2.415,0.643 1.226,0 0,0" /></g><g
           transform="translate(1317.6816,708.4951)"
           id="g166"><path
             id="path168"
             style="fill:#141843;fill-opacity:1;fill-rule:nonzero;stroke:none"
             d="m 0,0 c -0.581,0 -1.17,0.144 -1.714,0.451 l -123.5,69.468 c -1.685,0.948 -2.283,3.082 -1.332,4.768 0.942,1.69 3.077,2.293 4.768,1.334 L 1.721,6.553 C 3.407,5.605 4.006,3.472 3.055,1.786 2.415,0.643 1.225,0 0,0" /></g><g
           transform="translate(1222.248,738.668)"
           id="g170"><path
             id="path172"
             style="fill:#141843;fill-opacity:1;fill-rule:nonzero;stroke:none"
             d="m 0,0 c -0.619,0 -1.244,0.164 -1.812,0.506 l -46.312,28.069 c -1.652,1.002 -2.182,3.157 -1.18,4.812 1.005,1.653 3.157,2.176 4.813,1.181 L 1.819,6.499 C 3.472,5.497 4.002,3.341 3,1.686 2.34,0.602 1.184,0 0,0" /></g><g
           transform="translate(1242.2559,688.8076)"
           id="g174"><path
             id="path176"
             style="fill:#fbe3cc;fill-opacity:1;fill-rule:nonzero;stroke:none"
             d="M 0,0 65.742,1.739 32.156,-18.079 Z" /></g><g
           transform="translate(1365.126,515.9365)"
           id="g178"><path
             id="path180"
             style="fill:#ff6167;fill-opacity:1;fill-rule:nonzero;stroke:none"
             d="M 0,0 155.721,-88.563 -62.284,-216.061 -218,-128.467 Z" /></g><g
           transform="translate(1154.1455,387.541)"
           id="g182"><path
             id="path184"
             style="fill:#141843;fill-opacity:1;fill-rule:nonzero;stroke:none"
             d="M 0,0 148.662,-83.629 359.689,39.792 211.012,124.349 Z m 148.696,-91.167 c -0.592,0 -1.183,0.15 -1.717,0.451 L -8.735,-3.123 c -1.091,0.613 -1.774,1.764 -1.786,3.018 -0.015,1.251 0.645,2.414 1.723,3.05 l 217.999,128.466 c 1.081,0.641 2.422,0.644 3.51,0.028 L 368.432,42.878 c 1.089,-0.618 1.765,-1.773 1.772,-3.024 0.008,-1.251 -0.654,-2.413 -1.734,-3.044 L 150.464,-90.688 c -0.548,-0.319 -1.156,-0.479 -1.768,-0.479" /></g><g
           transform="translate(1475.1855,414.6572)"
           id="g186"><path
             id="path188"
             style="fill:#141843;fill-opacity:1;fill-rule:nonzero;stroke:none"
             d="m 0,0 c -0.58,0 -1.17,0.143 -1.714,0.447 l -123.499,69.465 c -1.686,0.951 -2.285,3.086 -1.337,4.772 0.944,1.686 3.078,2.285 4.771,1.338 L 1.72,6.557 C 3.406,5.606 4.005,3.472 3.059,1.785 2.416,0.643 1.226,0 0,0" /></g><g
           transform="translate(1458.3467,402.0244)"
           id="g190"><path
             id="path192"
             style="fill:#141843;fill-opacity:1;fill-rule:nonzero;stroke:none"
             d="M 0,0 C -0.582,0 -1.17,0.144 -1.714,0.451 L -125.213,69.92 c -1.686,0.947 -2.285,3.082 -1.334,4.768 0.94,1.687 3.074,2.295 4.768,1.334 L 1.72,6.554 C 3.406,5.606 4.005,3.472 3.054,1.785 2.414,0.644 1.226,0 0,0" /></g><g
           transform="translate(1438.6982,393.6055)"
           id="g194"><path
             id="path196"
             style="fill:#141843;fill-opacity:1;fill-rule:nonzero;stroke:none"
             d="M 0,0 C -0.581,0 -1.17,0.145 -1.713,0.449 L -125.21,69.914 c -1.686,0.951 -2.283,3.086 -1.337,4.772 0.947,1.686 3.079,2.285 4.773,1.336 L 1.721,6.559 C 3.406,5.607 4.006,3.473 3.059,1.787 2.415,0.645 1.226,0 0,0" /></g><g
           transform="translate(1420.457,382.377)"
           id="g198"><path
             id="path200"
             style="fill:#141843;fill-opacity:1;fill-rule:nonzero;stroke:none"
             d="M 0,0 C -0.581,0 -1.17,0.144 -1.713,0.451 L -125.214,69.92 c -1.686,0.947 -2.284,3.082 -1.333,4.768 0.941,1.686 3.075,2.291 4.768,1.334 L 1.721,6.553 C 3.406,5.606 4.006,3.472 3.055,1.785 2.415,0.643 1.225,0 0,0" /></g><g
           transform="translate(1399.4033,371.1504)"
           id="g202"><path
             id="path204"
             style="fill:#141843;fill-opacity:1;fill-rule:nonzero;stroke:none"
             d="M 0,0 C -0.582,0 -1.17,0.144 -1.714,0.451 L -125.213,69.92 c -1.686,0.947 -2.285,3.081 -1.334,4.768 0.941,1.686 3.077,2.295 4.768,1.333 L 1.72,6.554 C 3.406,5.605 4.006,3.472 3.055,1.786 2.414,0.644 1.226,0 0,0" /></g><g
           transform="translate(1381.1572,361.3271)"
           id="g206"><path
             id="path208"
             style="fill:#141843;fill-opacity:1;fill-rule:nonzero;stroke:none"
             d="m 0,0 c -0.581,0 -1.169,0.143 -1.713,0.451 l -123.496,69.468 c -1.687,0.947 -2.284,3.082 -1.333,4.768 0.94,1.686 3.077,2.292 4.768,1.334 L 1.721,6.553 C 3.408,5.605 4.006,3.472 3.055,1.785 2.415,0.643 1.226,0 0,0" /></g><g
           transform="translate(1362.9121,350.0977)"
           id="g210"><path
             id="path212"
             style="fill:#141843;fill-opacity:1;fill-rule:nonzero;stroke:none"
             d="M 0,0 C -0.581,0 -1.168,0.144 -1.713,0.451 L -125.21,69.922 c -1.686,0.948 -2.284,3.082 -1.333,4.768 0.944,1.686 3.078,2.296 4.769,1.334 L 1.722,6.554 C 3.408,5.605 4.006,3.472 3.055,1.785 2.416,0.643 1.226,0 0,0" /></g><g
           transform="translate(1346.0771,341.6797)"
           id="g214"><path
             id="path216"
             style="fill:#141843;fill-opacity:1;fill-rule:nonzero;stroke:none"
             d="m 0,0 c -0.581,0 -1.17,0.143 -1.715,0.45 l -123.499,69.469 c -1.686,0.947 -2.284,3.081 -1.333,4.768 0.943,1.69 3.078,2.292 4.768,1.334 L 1.721,6.553 C 3.406,5.605 4.006,3.472 3.055,1.785 2.415,0.643 1.225,0 0,0" /></g><g
           transform="translate(1250.6436,371.8516)"
           id="g218"><path
             id="path220"
             style="fill:#141843;fill-opacity:1;fill-rule:nonzero;stroke:none"
             d="m 0,0 c -0.62,0 -1.245,0.164 -1.812,0.507 l -46.313,28.069 c -1.652,1.002 -2.181,3.156 -1.18,4.812 1.006,1.652 3.158,2.175 4.814,1.18 L 1.819,6.499 C 3.472,5.497 4.001,3.342 3,1.687 2.34,0.603 1.184,0 0,0" /></g><g
           transform="translate(1621.0762,260.6416)"
           id="g222"><path
             id="path224"
             style="fill:#fbe3cc;fill-opacity:1;fill-rule:nonzero;stroke:none"
             d="M 0,0 -155.721,88.562 62.284,216.06 218,128.467 Z" /></g><g
           transform="translate(1832.0566,389.0361)"
           id="g226"><path
             id="path228"
             style="fill:#141843;fill-opacity:1;fill-rule:nonzero;stroke:none"
             d="m 0,0 -148.662,83.629 -211.027,-123.42 148.677,-84.558 z m -148.696,91.167 c 0.592,0 1.183,-0.149 1.717,-0.451 L 8.735,3.123 C 9.826,2.511 10.509,1.36 10.521,0.106 10.536,-1.146 9.875,-2.309 8.798,-2.945 l -217.999,-128.466 c -1.081,-0.64 -2.422,-0.643 -3.51,-0.028 l -155.721,88.562 c -1.089,0.618 -1.765,1.772 -1.772,3.023 -0.008,1.252 0.653,2.413 1.734,3.045 l 218.006,127.498 c 0.548,0.318 1.156,0.478 1.768,0.478" /></g><g
           transform="translate(1511.0166,361.9209)"
           id="g230"><path
             id="path232"
             style="fill:#141843;fill-opacity:1;fill-rule:nonzero;stroke:none"
             d="m 0,0 c 0.58,0 1.17,-0.144 1.714,-0.448 l 123.499,-69.464 c 1.685,-0.951 2.285,-3.086 1.337,-4.773 -0.944,-1.686 -3.078,-2.285 -4.771,-1.337 L -1.72,-6.558 c -1.686,0.952 -2.286,3.086 -1.339,4.773 C -2.416,-0.643 -1.226,0 0,0" /></g><g
           transform="translate(1527.8555,374.5527)"
           id="g234"><path
             id="path236"
             style="fill:#141843;fill-opacity:1;fill-rule:nonzero;stroke:none"
             d="M 0,0 C 0.582,0 1.17,-0.143 1.714,-0.451 L 125.213,-69.92 c 1.686,-0.946 2.285,-3.082 1.334,-4.768 -0.94,-1.686 -3.074,-2.295 -4.768,-1.334 L -1.72,-6.553 c -1.686,0.948 -2.285,3.081 -1.334,4.768 C -2.414,-0.643 -1.226,0 0,0" /></g><g
           transform="translate(1547.5039,382.9717)"
           id="g238"><path
             id="path240"
             style="fill:#141843;fill-opacity:1;fill-rule:nonzero;stroke:none"
             d="M 0,0 C 0.581,0 1.17,-0.145 1.713,-0.449 L 125.21,-69.913 c 1.686,-0.951 2.283,-3.086 1.337,-4.773 -0.947,-1.685 -3.079,-2.284 -4.773,-1.336 L -1.721,-6.558 c -1.685,0.952 -2.285,3.085 -1.338,4.772 C -2.415,-0.644 -1.226,0 0,0" /></g><g
           transform="translate(1565.7451,394.2012)"
           id="g242"><path
             id="path244"
             style="fill:#141843;fill-opacity:1;fill-rule:nonzero;stroke:none"
             d="M 0,0 C 0.581,0 1.17,-0.144 1.713,-0.451 L 125.214,-69.92 c 1.686,-0.947 2.284,-3.083 1.333,-4.768 -0.941,-1.687 -3.075,-2.292 -4.769,-1.335 L -1.721,-6.554 c -1.685,0.948 -2.285,3.082 -1.334,4.768 C -2.415,-0.644 -1.225,0 0,0" /></g><g
           transform="translate(1586.7988,405.4268)"
           id="g246"><path
             id="path248"
             style="fill:#141843;fill-opacity:1;fill-rule:nonzero;stroke:none"
             d="m 0,0 c 0.582,0 1.17,-0.144 1.714,-0.451 l 123.499,-69.468 c 1.685,-0.948 2.285,-3.082 1.334,-4.768 -0.941,-1.686 -3.077,-2.296 -4.768,-1.334 L -1.72,-6.554 c -1.686,0.949 -2.286,3.082 -1.335,4.769 C -2.414,-0.643 -1.226,0 0,0" /></g><g
           transform="translate(1605.0439,415.251)"
           id="g250"><path
             id="path252"
             style="fill:#141843;fill-opacity:1;fill-rule:nonzero;stroke:none"
             d="M 0,0 C 0.582,0 1.17,-0.144 1.714,-0.451 L 125.21,-69.919 c 1.686,-0.948 2.284,-3.082 1.333,-4.769 -0.94,-1.685 -3.077,-2.292 -4.768,-1.333 L -1.72,-6.554 c -1.687,0.949 -2.285,3.082 -1.334,4.768 C -2.414,-0.643 -1.226,0 0,0" /></g><g
           transform="translate(1623.29,426.4805)"
           id="g254"><path
             id="path256"
             style="fill:#141843;fill-opacity:1;fill-rule:nonzero;stroke:none"
             d="M 0,0 C 0.581,0 1.168,-0.144 1.713,-0.451 L 125.21,-69.923 c 1.686,-0.947 2.284,-3.082 1.333,-4.767 -0.944,-1.687 -3.078,-2.297 -4.769,-1.335 L -1.722,-6.555 c -1.686,0.95 -2.284,3.083 -1.333,4.769 C -2.416,-0.643 -1.226,0 0,0" /></g><g
           transform="translate(1640.125,434.8984)"
           id="g258"><path
             id="path260"
             style="fill:#141843;fill-opacity:1;fill-rule:nonzero;stroke:none"
             d="m 0,0 c 0.581,0 1.17,-0.144 1.715,-0.451 l 123.499,-69.468 c 1.686,-0.948 2.284,-3.082 1.333,-4.769 -0.943,-1.689 -3.078,-2.291 -4.769,-1.333 L -1.721,-6.554 c -1.685,0.949 -2.285,3.082 -1.334,4.769 C -2.415,-0.643 -1.225,0 0,0" /></g><g
           transform="translate(1735.5586,404.7256)"
           id="g262"><path
             id="path264"
             style="fill:#141843;fill-opacity:1;fill-rule:nonzero;stroke:none"
             d="m 0,0 c 0.62,0 1.245,-0.164 1.812,-0.506 l 46.313,-28.069 c 1.652,-1.002 2.181,-3.157 1.18,-4.813 -1.006,-1.652 -3.158,-2.175 -4.814,-1.18 L -1.819,-6.499 C -3.472,-5.497 -4.001,-3.341 -3,-1.687 -2.34,-0.602 -1.184,0 0,0" /></g></g></g></g></svg>