<?xml version="1.0" encoding="utf-8"?>
<!-- Generator: Adobe Illustrator 22.0.1, SVG Export Plug-In . SVG Version: 6.00 Build 0)  -->
<svg version="1.0" id="Ebene_1" xmlns="http://www.w3.org/2000/svg" xmlns:xlink="http://www.w3.org/1999/xlink" x="0px" y="0px"
	 viewBox="0 0 1920 996" enable-background="new 0 0 1920 996" xml:space="preserve">
<rect x="-3.7" y="41" fill="#FBE3CC" width="1924.2" height="956.3"/>
<polygon fill="#141843" points="1254.5,172.8 -2.2,894.3 -2.8,-2.8 1262,-2.2 "/>
<polygon fill="#FF6167" points="1250.7,-2.2 1253,183.3 1926.4,562.1 1924.9,-1.6 "/>
<polygon fill="#E9D3BF" points="764.4,888.3 955.3,998.1 1041,996.6 809.5,859.8 "/>
<g>
	<polygon fill="#E9D3BF" points="1843.7,995 1239.4,998.1 879.3,784.8 1366,502 	"/>
</g>
<g>
	<g>
		
			<polygon fill="#FFFFFF" stroke="#141843" stroke-width="10" stroke-linecap="round" stroke-linejoin="round" stroke-miterlimit="10" points="
			764.2,400 763.1,882.7 716.2,855.6 717.3,372.9 		"/>
	</g>
	<g>
		
			<polygon fill="#BEB3A8" stroke="#141843" stroke-width="10" stroke-linecap="round" stroke-linejoin="round" stroke-miterlimit="10" points="
			764.2,400 806.6,375.4 805.5,858.1 763.1,882.7 		"/>
	</g>
	<g>
		
			<polygon fill="#FDEEE0" stroke="#141843" stroke-width="10" stroke-linecap="round" stroke-linejoin="round" stroke-miterlimit="10" points="
			717.3,372.9 759.7,348.3 806.6,375.4 764.2,400 		"/>
	</g>
</g>
<line fill="none" stroke="#141843" stroke-width="10" stroke-linecap="round" stroke-linejoin="round" stroke-miterlimit="10" x1="1077.2" y1="577.3" x2="1077.2" y2="651.7"/>
<line fill="none" stroke="#141843" stroke-width="10" stroke-linecap="round" stroke-linejoin="round" stroke-miterlimit="10" x1="1471.1" y1="808.8" x2="1471.1" y2="883.2"/>
<g>
	<defs>
		<rect id="SVGID_1_" x="639" y="39" width="1282" height="958"/>
	</defs>
	<clipPath id="SVGID_2_">
		<use xlink:href="#SVGID_1_"  overflow="visible"/>
	</clipPath>
	<g clip-path="url(#SVGID_2_)">
		<g>
			
				<polygon fill="#FDEEE0" stroke="#141843" stroke-width="10" stroke-linecap="round" stroke-linejoin="round" stroke-miterlimit="10" points="
				2314.3,727.6 1919.6,957 1827.6,1010.4 715.5,365.4 1202.1,82.6 1919.3,498.5 			"/>
		</g>
		<g>
			
				<polygon fill="#FFFFFF" stroke="#141843" stroke-width="10" stroke-linecap="round" stroke-linejoin="round" stroke-miterlimit="10" points="
				1828,1010.1 1827.3,1089.5 1668.5,997.3 711.1,441.7 711.7,362.4 			"/>
		</g>
		<g>
			<g enable-background="new    ">
				<g>
					<g>
						<path fill="#FDF4EB" stroke="#141843" stroke-width="2" stroke-miterlimit="10" d="M1261.1,713.2c9.1,5.3,16.4,18,16.4,28.4
							s-7.4,14.7-16.5,9.4s-16.5-18-16.4-28.4C1244.6,712.2,1252,708,1261.1,713.2z"/>
						<path fill="#141843" stroke="#141843" stroke-width="2" stroke-miterlimit="10" d="M1268.4,756.1c-2.7,0-5.7-0.9-8.7-2.6
							c-10-5.8-17.8-19.3-17.8-30.8c0-6,2.2-10.6,6.2-12.9c4-2.3,9.1-1.9,14.4,1.2l0,0c10,5.8,17.8,19.3,17.8,30.8
							c0,6-2.2,10.6-6.2,12.9C1272.3,755.6,1270.4,756.1,1268.4,756.1z M1253.7,713.7c-1.1,0-2.1,0.2-3,0.7
							c-2.2,1.3-3.5,4.2-3.5,8.2c0,9.4,6.9,21.4,15.1,26.1c3.5,2,6.7,2.5,9,1.2c2.2-1.3,3.5-4.2,3.5-8.2c0-9.4-6.9-21.4-15.1-26.1
							l0,0C1257.6,714.3,1255.5,713.7,1253.7,713.7z"/>
					</g>
				</g>
				<g>
					<path fill="#FBE3CC" stroke="#141843" stroke-width="2" stroke-miterlimit="10" d="M1288.4,734.6c0-0.3,0-0.5,0-0.8
						c0-0.1,0-0.2,0-0.4c0-0.1,0-0.1,0-0.2c0-0.1,0-0.2,0-0.3c0-0.3-0.1-0.5-0.1-0.8c0-0.3-0.1-0.6-0.1-0.8c0,0,0,0,0,0c0,0,0,0,0,0
						c0-0.3-0.1-0.5-0.1-0.8c-0.1-0.3-0.1-0.6-0.2-0.9c0-0.1,0-0.2-0.1-0.3c0-0.1,0-0.1,0-0.2c0-0.1-0.1-0.3-0.1-0.4
						c-0.1-0.3-0.1-0.6-0.2-0.9c-0.1-0.2-0.1-0.4-0.2-0.6c0,0,0-0.1,0-0.1c0,0,0-0.1,0-0.1c-0.1-0.3-0.2-0.6-0.3-0.9
						c-0.1-0.3-0.2-0.6-0.3-0.8c0-0.1,0-0.1-0.1-0.2c0,0,0-0.1,0-0.1c-0.1-0.2-0.1-0.4-0.2-0.5c-0.1-0.3-0.2-0.5-0.3-0.8
						c-0.1-0.2-0.2-0.4-0.2-0.6c0,0,0-0.1,0-0.1c0,0,0-0.1,0-0.1c-0.1-0.3-0.2-0.5-0.4-0.8c-0.1-0.3-0.3-0.6-0.4-0.9
						c0,0,0-0.1-0.1-0.1c0-0.1-0.1-0.1-0.1-0.2c-0.1-0.2-0.2-0.5-0.4-0.7c-0.2-0.3-0.3-0.6-0.5-0.8c-0.1-0.1-0.2-0.3-0.2-0.4
						c0-0.1-0.1-0.1-0.1-0.2c-0.1-0.2-0.3-0.5-0.5-0.7c-0.2-0.4-0.4-0.7-0.7-1.1c0-0.1-0.1-0.1-0.1-0.2c-0.3-0.5-0.7-1-1-1.5
						c0,0,0,0,0,0c0,0,0,0,0,0c-0.2-0.3-0.5-0.6-0.7-1c-0.2-0.3-0.4-0.5-0.6-0.8c0,0,0,0,0,0c0,0,0,0,0,0c-0.2-0.3-0.4-0.5-0.6-0.7
						c-0.2-0.2-0.4-0.5-0.6-0.7c0,0-0.1-0.1-0.1-0.1c0,0-0.1-0.1-0.1-0.1c-0.2-0.2-0.3-0.3-0.5-0.5c-0.2-0.2-0.5-0.5-0.7-0.7
						c-0.1-0.1-0.1-0.1-0.2-0.2c-0.1-0.1-0.1-0.1-0.2-0.2c-0.1-0.1-0.2-0.2-0.3-0.3c-0.2-0.2-0.5-0.4-0.7-0.6
						c-0.1-0.1-0.2-0.2-0.3-0.3c-0.1,0-0.1-0.1-0.2-0.1c-0.1-0.1-0.2-0.1-0.2-0.2c-0.2-0.2-0.5-0.4-0.7-0.6
						c-0.2-0.1-0.4-0.3-0.5-0.4c0,0-0.1,0-0.1-0.1c0,0-0.1,0-0.1-0.1c-0.2-0.2-0.5-0.3-0.7-0.5c-0.2-0.1-0.5-0.3-0.7-0.4
						c-0.1,0-0.1-0.1-0.2-0.1c-0.2-0.1-0.3-0.2-0.5-0.3c-0.1,0-0.1-0.1-0.2-0.1c-0.1,0-0.2-0.1-0.3-0.1c-0.1,0-0.1-0.1-0.2-0.1
						c-0.1-0.1-0.2-0.1-0.3-0.2c-0.1,0-0.2-0.1-0.2-0.1c0,0-0.1,0-0.1,0c-0.2-0.1-0.4-0.2-0.7-0.3c0,0,0,0,0,0
						c-0.2-0.1-0.4-0.2-0.7-0.2c0,0-0.1,0-0.1,0c-0.1,0-0.2-0.1-0.2-0.1c-0.1,0-0.2-0.1-0.3-0.1c-0.1,0-0.1,0-0.2,0
						c-0.1,0-0.2-0.1-0.3-0.1c-0.1,0-0.2,0-0.2-0.1c-0.1,0-0.2,0-0.2-0.1c-0.1,0-0.2,0-0.3-0.1c-0.1,0-0.1,0-0.2,0
						c-0.1,0-0.2,0-0.3,0c-0.1,0-0.2,0-0.3-0.1c0,0-0.1,0-0.1,0c-0.1,0-0.2,0-0.3,0c-0.1,0-0.2,0-0.4,0c0,0-0.1,0-0.1,0
						c-0.1,0-0.2,0-0.2,0c-0.1,0-0.3,0-0.4,0c0,0-0.1,0-0.1,0c-0.1,0-0.1,0-0.2,0c-0.2,0-0.3,0-0.5,0c-0.1,0-0.1,0-0.2,0
						c0,0-0.1,0-0.1,0c-0.3,0-0.5,0.1-0.8,0.1c0,0,0,0-0.1,0c0,0,0,0,0,0c-0.4,0.1-0.7,0.2-1,0.3c0,0-0.1,0-0.1,0c0,0,0,0-0.1,0
						c-0.1,0.1-0.3,0.1-0.4,0.2c-0.1,0-0.1,0.1-0.2,0.1c-0.2,0.1-0.4,0.2-0.6,0.3c0,0,0,0,0,0l-10.9,6.3c0.2-0.1,0.4-0.2,0.6-0.3
						c0.1,0,0.1-0.1,0.2-0.1c0.1-0.1,0.3-0.1,0.4-0.2c0.1,0,0.1,0,0.2-0.1c0.3-0.1,0.7-0.2,1-0.3c0,0,0.1,0,0.1,0
						c0.3,0,0.5-0.1,0.8-0.1c0.1,0,0.2,0,0.3,0c0.2,0,0.3,0,0.5,0c0.1,0,0.2,0,0.3,0c0.1,0,0.3,0,0.4,0c0.1,0,0.2,0,0.3,0
						c0.1,0,0.2,0,0.4,0c0.1,0,0.3,0,0.4,0c0.1,0,0.2,0,0.3,0.1c0.1,0,0.3,0,0.4,0.1c0.1,0,0.2,0,0.3,0.1c0.2,0,0.3,0.1,0.5,0.1
						c0.1,0,0.2,0.1,0.3,0.1c0.2,0,0.3,0.1,0.5,0.2c0.1,0,0.2,0,0.2,0.1c0.2,0.1,0.5,0.2,0.7,0.3c0,0,0,0,0,0s0,0,0,0
						c0.2,0.1,0.5,0.2,0.8,0.3c0.1,0,0.2,0.1,0.2,0.1c0.2,0.1,0.4,0.2,0.5,0.3c0.1,0,0.2,0.1,0.3,0.1c0.2,0.1,0.5,0.3,0.7,0.4
						c0.6,0.3,1.1,0.7,1.6,1c0,0,0.1,0,0.1,0.1c0.5,0.4,1,0.7,1.5,1.1c0.1,0,0.1,0.1,0.2,0.1c0.5,0.4,0.9,0.8,1.4,1.2
						c0.1,0.1,0.1,0.1,0.2,0.2c0.5,0.4,0.9,0.9,1.4,1.4c0,0,0.1,0.1,0.1,0.1c0.5,0.5,0.9,1,1.4,1.6c0,0,0,0,0,0
						c0.9,1.1,1.7,2.2,2.5,3.4c0.2,0.3,0.4,0.7,0.7,1.1c0.2,0.3,0.4,0.6,0.5,0.9c0.1,0.1,0.2,0.3,0.2,0.4c0.3,0.5,0.6,1,0.8,1.5
						c0,0.1,0.1,0.1,0.1,0.2c0.3,0.6,0.6,1.3,0.9,1.9c0,0,0,0.1,0,0.1c0.3,0.6,0.5,1.3,0.8,1.9c0,0,0,0.1,0,0.1
						c0.2,0.7,0.5,1.3,0.7,2c0,0,0,0.1,0,0.1c0.2,0.6,0.4,1.3,0.5,1.9c0,0.1,0,0.1,0,0.2c0.1,0.7,0.3,1.3,0.4,1.9c0,0,0,0,0,0
						c0.1,0.7,0.2,1.3,0.2,1.9c0,0.1,0,0.1,0,0.2c0.1,0.6,0.1,1.3,0.1,1.9c0,0.3,0,0.6,0,0.9c0,0.1,0,0.2,0,0.3c0,0.2,0,0.4,0,0.6
						c0,0.1,0,0.2,0,0.3c0,0.2,0,0.3-0.1,0.5c0,0.1,0,0.2-0.1,0.4c0,0.2,0,0.3-0.1,0.4c0,0.1-0.1,0.3-0.1,0.4c0,0.1-0.1,0.3-0.1,0.4
						c0,0.2-0.1,0.3-0.1,0.5c0,0.1-0.1,0.2-0.1,0.3c-0.1,0.2-0.1,0.4-0.2,0.5c0,0.1-0.1,0.2-0.1,0.3c-0.1,0.3-0.2,0.6-0.4,0.8
						c0,0,0,0.1,0,0.1c-0.2,0.4-0.4,0.7-0.6,1c0,0,0,0.1,0,0.1c-0.2,0.3-0.3,0.5-0.5,0.7c0,0.1-0.1,0.1-0.1,0.2
						c-0.2,0.2-0.4,0.4-0.6,0.6c0,0,0,0,0,0c-0.2,0.2-0.4,0.4-0.7,0.6c-0.1,0-0.1,0.1-0.2,0.1c-0.2,0.2-0.5,0.3-0.7,0.5l0,0
						c0,0,0,0,0,0l10.9-6.3c0.3-0.1,0.5-0.3,0.7-0.5c0.1,0,0.1-0.1,0.2-0.1c0.2-0.2,0.5-0.4,0.7-0.6c0,0,0,0,0,0
						c0.2-0.2,0.4-0.4,0.6-0.6c0-0.1,0.1-0.1,0.1-0.2c0.2-0.2,0.4-0.5,0.5-0.7c0,0,0,0,0,0c0,0,0,0,0-0.1c0.2-0.3,0.4-0.7,0.6-1
						c0,0,0,0,0-0.1c0,0,0,0,0,0c0.1-0.3,0.2-0.5,0.4-0.8c0,0,0,0,0-0.1c0-0.1,0-0.1,0.1-0.2c0.1-0.2,0.1-0.3,0.2-0.5
						c0,0,0-0.1,0-0.1c0-0.1,0-0.1,0.1-0.2c0-0.1,0.1-0.3,0.1-0.4c0-0.1,0-0.1,0-0.2c0-0.1,0-0.1,0-0.2c0-0.1,0.1-0.3,0.1-0.4
						c0-0.1,0-0.1,0-0.2c0-0.1,0-0.2,0-0.2c0-0.1,0-0.2,0.1-0.4c0-0.1,0-0.1,0-0.2c0-0.1,0-0.2,0-0.3c0-0.1,0-0.2,0-0.3
						c0,0,0-0.1,0-0.1c0-0.2,0-0.3,0-0.5c0-0.1,0-0.2,0-0.2c0,0,0,0,0-0.1c0-0.3,0-0.5,0-0.8c0,0,0,0,0,0
						C1288.4,735.1,1288.4,734.8,1288.4,734.6z"/>
					<path fill="#141843" stroke="#141843" stroke-width="2" stroke-miterlimit="10" d="M1274.1,754.6l-2.7-4.7l0,0
						c0.2-0.1,0.3-0.2,0.5-0.3l0.1-0.1c0.1-0.1,0.3-0.2,0.4-0.3l0,0c0.2-0.2,0.3-0.3,0.4-0.5l0.1-0.1c0.1-0.2,0.2-0.3,0.4-0.5
						c0,0,0-0.1,0.1-0.1c0.1-0.2,0.3-0.5,0.4-0.7l0.1-0.1c0.1-0.2,0.2-0.4,0.3-0.6l0.1-0.2c0.1-0.1,0.1-0.3,0.1-0.4l0.1-0.3
						c0-0.1,0.1-0.2,0.1-0.4c0-0.1,0.1-0.2,0.1-0.3c0-0.1,0-0.2,0.1-0.3c0-0.1,0-0.2,0.1-0.4l0-0.3c0-0.1,0-0.3,0.1-0.4l0-0.3
						c0-0.2,0-0.4,0-0.5l0-0.2c0-0.2,0-0.5,0-0.8c0-0.5,0-1.1-0.1-1.7l0-0.1c-0.1-0.6-0.1-1.2-0.2-1.7c-0.1-0.6-0.2-1.2-0.4-1.8
						l0-0.2c-0.1-0.6-0.3-1.1-0.5-1.7l0-0.1c-0.2-0.6-0.4-1.2-0.6-1.8l-0.1-0.1c-0.2-0.6-0.4-1.2-0.7-1.7l0-0.1
						c-0.3-0.6-0.5-1.2-0.8-1.8l-0.1-0.2c-0.2-0.5-0.5-0.9-0.8-1.4l-0.2-0.4c-0.1-0.2-0.2-0.3-0.3-0.5l-0.3-0.5
						c-0.2-0.3-0.3-0.5-0.5-0.8c-0.7-1.1-1.5-2.2-2.3-3.1l0,0c-0.4-0.5-0.8-1-1.3-1.4l-0.1-0.1c-0.4-0.4-0.8-0.9-1.3-1.3l-0.2-0.1
						c-0.4-0.4-0.8-0.8-1.3-1.1l-0.2-0.1c-0.4-0.4-0.9-0.7-1.3-1l-0.1,0c-0.5-0.4-1-0.7-1.5-0.9c-0.2-0.1-0.4-0.2-0.6-0.3l-0.2-0.1
						c-0.2-0.1-0.3-0.2-0.5-0.2l-0.2-0.1c-0.2-0.1-0.4-0.2-0.6-0.2l-0.2-0.1c-0.2-0.1-0.4-0.1-0.5-0.2l-0.2-0.1
						c-0.1,0-0.3-0.1-0.4-0.1l-0.2-0.1c-0.1,0-0.2-0.1-0.4-0.1l-0.2-0.1c-0.1,0-0.2,0-0.3-0.1l-0.3,0c-0.1,0-0.2,0-0.3,0l-0.5,0
						c-0.2,0-0.3,0-0.4,0l-0.2,0c-0.1,0-0.2,0-0.4,0l-0.2,0c-0.2,0-0.4,0-0.5,0.1l-0.1,0c-0.2,0-0.4,0.1-0.7,0.2l-0.1,0
						c-0.1,0-0.2,0.1-0.3,0.1l-0.1,0.1c-0.1,0.1-0.3,0.1-0.4,0.2l0,0l-2.7-4.7l11.1-6.4c0.2-0.1,0.4-0.2,0.7-0.3
						c0.1,0,0.2-0.1,0.2-0.1c0.2-0.1,0.4-0.2,0.6-0.2c0.1,0,0.1,0,0.2-0.1l0.2-0.1c0.4-0.1,0.7-0.2,1.1-0.3l0.4-0.1
						c0.3,0,0.6-0.1,0.9-0.1c0.1,0,0.1,0,0.2,0c0.1,0,0.2,0,0.2,0c0.2,0,0.4,0,0.6,0c0.1,0,0.1,0,0.2,0l0.2,0c0.1,0,0.3,0,0.5,0
						c0.1,0,0.2,0,0.3,0l0.2,0c0.1,0,0.2,0,0.3,0l0.1,0c0.1,0,0.2,0,0.3,0l0.2,0c0.1,0,0.2,0,0.3,0.1l0.1,0c0.1,0,0.2,0,0.3,0
						l0.8,0.2c0.1,0,0.2,0,0.2,0.1l0.6,0.2c0.1,0,0.2,0.1,0.3,0.1l0.4,0.1c0.3,0.1,0.5,0.2,0.8,0.3l0.1,0c0.2,0.1,0.4,0.2,0.7,0.3
						l0.5,0.2c0.1,0,0.2,0.1,0.3,0.1l0.8,0.4c0.2,0.1,0.4,0.2,0.6,0.3l0.2,0.1c0.3,0.2,0.5,0.3,0.8,0.5c0.3,0.2,0.5,0.3,0.8,0.5
						l0.3,0.2c0.2,0.1,0.4,0.2,0.5,0.4c0.3,0.2,0.5,0.4,0.8,0.6l0.8,0.7c0.3,0.2,0.5,0.5,0.8,0.7l0.8,0.7c0.3,0.2,0.5,0.5,0.8,0.7
						c0.1,0.1,0.3,0.3,0.4,0.5l0.3,0.3c0.2,0.3,0.5,0.5,0.7,0.8c0.2,0.3,0.4,0.5,0.7,0.8l0.1,0.1c0.2,0.3,0.4,0.5,0.6,0.8
						c0.2,0.3,0.4,0.6,0.7,0.9l0.1,0.2c0.4,0.5,0.7,1,1.1,1.6c0,0.1,0.1,0.1,0.1,0.2c0.2,0.3,0.4,0.6,0.6,0.9l0.3,0.5
						c0.1,0.2,0.2,0.3,0.3,0.5l0.1,0.2c0.1,0.1,0.1,0.2,0.2,0.3l0.2,0.3c0.1,0.2,0.3,0.5,0.4,0.7c0.1,0.2,0.2,0.4,0.3,0.6l0.2,0.4
						c0.2,0.3,0.3,0.6,0.5,0.9c0.1,0.3,0.3,0.6,0.4,0.8l0.1,0.3c0.1,0.2,0.2,0.4,0.2,0.5c0.1,0.3,0.2,0.6,0.3,0.9l0.3,0.9
						c0.1,0.3,0.2,0.6,0.3,0.9c0.1,0.3,0.2,0.6,0.3,0.9l0,0.1l-2.6,0.9l2.6-0.7c0.1,0.3,0.1,0.5,0.2,0.7c0.1,0.3,0.2,0.6,0.2,0.9
						l0.2,0.9c0.1,0.3,0.1,0.6,0.2,0.9c0.1,0.3,0.1,0.5,0.1,0.8l0,0.1c0,0,0,0,0,0l0,0c0,0.3,0.1,0.6,0.1,0.9c0,0.3,0.1,0.6,0.1,0.9
						l0.1,0.9c0,0.3,0,0.6,0,0.9c0,0.3,0,0.6,0,0.8l0,0.1c0,0.3,0,0.6,0,0.9l0,0.5c0,0.1,0,0.3,0,0.4l-0.1,0.6c0,0.1,0,0.2,0,0.3
						c0,0,0,0.1,0,0.2l-0.1,0.9c0,0.2-0.1,0.3-0.1,0.5c0,0.1,0,0.2-0.1,0.3c0,0.1,0,0.1-0.1,0.2c0,0.2-0.1,0.4-0.1,0.5
						c0,0.1,0,0.2-0.1,0.2l-0.1,0.2c-0.1,0.2-0.1,0.4-0.2,0.6c0,0.1,0,0.2-0.1,0.2l-0.1,0.2c-0.1,0.3-0.2,0.6-0.4,0.9l-0.1,0.3
						c-0.2,0.4-0.4,0.7-0.6,1.1l-0.2,0.3c-0.2,0.3-0.4,0.6-0.6,0.9c0,0.1-0.1,0.1-0.2,0.2c-0.3,0.3-0.5,0.6-0.7,0.8l-0.1,0.1
						c-0.3,0.3-0.6,0.5-0.9,0.8l-0.2,0.2c-0.4,0.3-0.7,0.5-1,0.6L1274.1,754.6C1274.1,754.6,1274.1,754.6,1274.1,754.6z
						 M1271.1,718.4c0.9,1.1,1.8,2.3,2.6,3.6c0.2,0.3,0.4,0.6,0.6,0.9l0.3,0.5c0.1,0.2,0.3,0.4,0.4,0.7l0.3,0.5
						c0.3,0.5,0.6,1.1,0.9,1.6l0.1,0.2c0.3,0.7,0.7,1.4,1,2l0,0.1c0.3,0.7,0.6,1.3,0.8,2l0.1,0.1c0.3,0.7,0.5,1.4,0.7,2.1l0,0.1
						c0.2,0.7,0.4,1.4,0.6,2.1l0,0.2c0.2,0.7,0.3,1.4,0.4,2.1c0.1,0.7,0.2,1.4,0.3,2.2l0,0.2c0.1,0.7,0.1,1.4,0.1,2.1
						c0,0.3,0,0.7,0,1l0,0.3c0,0.2,0,0.5,0,0.7l0,0.4c0,0.2,0,0.4-0.1,0.6c0,0.1,0,0.2,0,0.2l2.3-1.3c0.2-0.1,0.3-0.2,0.5-0.3
						l0.1-0.1c0.1-0.1,0.3-0.2,0.4-0.3l0.1-0.1c0.1-0.1,0.2-0.2,0.3-0.4l0.1-0.1c0.1-0.2,0.3-0.3,0.4-0.5l0.1-0.1
						c0.1-0.2,0.3-0.5,0.4-0.7l0.1-0.1c0.1-0.1,0.2-0.4,0.2-0.6l0.1-0.2c0.1-0.2,0.1-0.3,0.1-0.4l0.1-0.3c0-0.1,0.1-0.2,0.1-0.4
						l0.3-1.7l0-0.4c0-0.1,0-0.2,0-0.3l0-0.5c0-0.2,0-0.4,0-0.6l0-0.1c0-0.2,0-0.4,0-0.6l0,0c0-0.2,0-0.5,0-0.7l-0.1-0.7
						c0-0.2,0-0.5-0.1-0.7c0-0.2-0.1-0.5-0.1-0.7l0-0.1c0-0.2-0.1-0.5-0.1-0.7c0-0.3-0.1-0.5-0.2-0.8l-0.2-0.8
						c-0.1-0.3-0.1-0.5-0.2-0.8c-0.1-0.2-0.1-0.4-0.2-0.6l-0.1-0.2c-0.1-0.3-0.2-0.5-0.3-0.8c-0.1-0.3-0.2-0.5-0.3-0.8l-0.3-0.8
						c-0.1-0.2-0.2-0.5-0.3-0.7l-0.2-0.5l2.5-1.2l-2.5,1.1l0-0.1c-0.1-0.3-0.2-0.5-0.3-0.8c-0.1-0.3-0.3-0.5-0.4-0.8l-0.2-0.4
						c-0.1-0.2-0.2-0.4-0.3-0.6c-0.1-0.2-0.2-0.4-0.3-0.6l-0.4-0.7c-0.1-0.2-0.2-0.3-0.2-0.4l-0.3-0.5c-0.2-0.3-0.3-0.5-0.5-0.8
						l-0.1-0.2c-0.3-0.4-0.6-0.8-0.9-1.2l-0.1-0.1c-0.2-0.3-0.4-0.6-0.7-0.9c-0.2-0.2-0.3-0.4-0.5-0.6l-0.1-0.1
						c-0.2-0.2-0.4-0.4-0.5-0.6c-0.2-0.2-0.4-0.4-0.6-0.7l-0.3-0.3c-0.1-0.1-0.2-0.3-0.4-0.4c-0.2-0.2-0.4-0.4-0.6-0.6l-0.7-0.6
						c-0.2-0.2-0.4-0.4-0.7-0.6l-0.7-0.5c-0.2-0.2-0.4-0.3-0.6-0.5c-0.1-0.1-0.3-0.2-0.4-0.3l-0.2-0.2c-0.2-0.1-0.4-0.3-0.6-0.4
						c-0.2-0.1-0.4-0.3-0.6-0.4l-0.1-0.1c-0.2-0.1-0.4-0.2-0.5-0.3l-1.2-0.6c-0.2-0.1-0.4-0.2-0.5-0.2l-0.1,0
						c-0.2-0.1-0.3-0.1-0.5-0.2l-2.4-0.6l-0.5,0c-0.1,0-0.2,0-0.3,0l-0.1,0l-0.1,0c-0.1,0-0.3,0-0.4,0l-0.2,0c-0.2,0-0.4,0-0.5,0.1
						l-0.1,0c-0.2,0-0.4,0.1-0.6,0.2l-0.1,0c-0.1,0-0.2,0.1-0.3,0.1l-0.1,0.1c-0.1,0.1-0.2,0.1-0.3,0.2l-0.2,0.1l-2.1,1.2
						c0,0,0.1,0,0.1,0l0.2,0.1c0.3,0.1,0.5,0.2,0.8,0.3l0.3,0.1c0.2,0.1,0.4,0.2,0.6,0.3l0.3,0.2c0.3,0.1,0.5,0.3,0.8,0.4
						c0.6,0.4,1.2,0.7,1.8,1.2l0.1,0.1c0.6,0.4,1.1,0.8,1.7,1.3l0.2,0.1c0.5,0.4,1,0.9,1.5,1.3l0.2,0.2c0.5,0.5,1,1,1.5,1.5l0.1,0.1
						c0.5,0.5,1,1.1,1.4,1.6L1271.1,718.4z M1288.6,744.8L1288.6,744.8C1288.6,744.8,1288.6,744.8,1288.6,744.8z M1289.4,743.4
						L1289.4,743.4C1289.4,743.4,1289.4,743.4,1289.4,743.4z M1262.3,707.7L1262.3,707.7C1262.3,707.7,1262.3,707.7,1262.3,707.7z
						 M1260.9,702.5C1260.9,702.5,1260.8,702.5,1260.9,702.5C1260.8,702.5,1260.9,702.5,1260.9,702.5z M1261,702.5
						C1261,702.5,1261,702.5,1261,702.5L1261,702.5z"/>
				</g>
			</g>
		</g>
	</g>
</g>
<g id="Maus_2_">
	
		<path fill="#FF6167" stroke="#141843" stroke-width="10" stroke-linecap="round" stroke-linejoin="round" stroke-miterlimit="10" d="
		M1855.7,545.9c0,0.3,0,0.6-0.1,0.8c0,0.2-0.1,0.5-0.1,0.7c0,0.3-0.1,0.6-0.1,0.8c0,0.2-0.1,0.5-0.2,0.7c-0.1,0.3-0.1,0.5-0.2,0.8
		c-0.1,0.2-0.1,0.5-0.2,0.7c-0.1,0.3-0.2,0.5-0.3,0.8c-0.1,0.2-0.2,0.5-0.3,0.7c-0.1,0.3-0.2,0.6-0.4,0.8c-0.1,0.2-0.2,0.5-0.3,0.7
		c-0.1,0.3-0.3,0.6-0.4,0.8c-0.2,0.3-0.3,0.6-0.5,0.9c0,0.1-0.1,0.1-0.1,0.2c-0.3,0.4-0.5,0.8-0.8,1.3c-0.1,0.1-0.1,0.2-0.2,0.2
		c-0.3,0.4-0.6,0.8-0.9,1.2c-0.1,0.1-0.1,0.2-0.2,0.2c-0.3,0.4-0.6,0.7-0.9,1.1c-0.1,0.1-0.2,0.2-0.3,0.3c-0.4,0.4-0.8,0.8-1.2,1.2
		c-0.1,0.1-0.1,0.1-0.2,0.2c-0.3,0.3-0.6,0.6-1,0.9c-0.3,0.2-0.5,0.5-0.8,0.7c-0.3,0.2-0.5,0.4-0.8,0.6c-0.3,0.2-0.6,0.5-0.9,0.7
		c-0.3,0.2-0.5,0.4-0.8,0.6c-0.3,0.2-0.6,0.4-0.9,0.7c-0.3,0.2-0.6,0.4-0.9,0.6c-0.3,0.2-0.7,0.4-1,0.6c-0.4,0.3-0.8,0.5-1.3,0.8
		l-58.7,34.1c-0.6,0.3-1.2,0.7-1.8,1c-0.2,0.1-0.3,0.2-0.5,0.3c-0.6,0.3-1.1,0.6-1.7,0.8c-0.1,0-0.1,0.1-0.2,0.1
		c-0.6,0.3-1.3,0.6-2,0.9c-0.2,0.1-0.3,0.1-0.5,0.2c-0.6,0.2-1.1,0.5-1.7,0.7c-0.1,0-0.2,0.1-0.4,0.1c-0.7,0.3-1.4,0.5-2.1,0.7
		c-0.2,0.1-0.3,0.1-0.5,0.2c-0.5,0.2-0.9,0.3-1.4,0.5c-0.4,0.1-0.9,0.3-1.3,0.4c-0.4,0.1-0.8,0.2-1.2,0.3c-0.5,0.1-0.9,0.2-1.4,0.4
		c-0.4,0.1-0.8,0.2-1.2,0.3c-0.5,0.1-0.9,0.2-1.4,0.3c-0.4,0.1-0.8,0.2-1.2,0.3c-0.5,0.1-1,0.2-1.4,0.3c-0.4,0.1-0.7,0.1-1.1,0.2
		c-1,0.2-2.1,0.4-3.1,0.5c-0.1,0-0.3,0-0.4,0.1c-0.9,0.1-1.8,0.2-2.8,0.3c-0.4,0-0.7,0.1-1.1,0.1c-0.6,0.1-1.2,0.1-1.8,0.1
		c-0.4,0-0.8,0.1-1.1,0.1c-0.6,0-1.2,0.1-1.9,0.1c-0.4,0-0.7,0-1.1,0c-0.5,0-1.1,0-1.6,0c-0.4,0-0.8,0-1.1,0c-0.6,0-1.2,0-1.7,0
		c-0.3,0-0.7,0-1,0c-0.5,0-1.1,0-1.6-0.1c-0.4,0-0.7,0-1.1,0c-0.6,0-1.1-0.1-1.7-0.1c-0.3,0-0.7,0-1-0.1c-0.7-0.1-1.4-0.1-2.1-0.2
		c-0.2,0-0.4,0-0.6-0.1c-0.9-0.1-1.8-0.2-2.7-0.3c-0.1,0-0.3,0-0.4-0.1c-0.8-0.1-1.5-0.2-2.3-0.4c-0.3-0.1-0.6-0.1-0.9-0.2
		c-0.6-0.1-1.1-0.2-1.7-0.3c-0.3-0.1-0.6-0.1-0.9-0.2c-0.6-0.1-1.2-0.3-1.9-0.4c-0.3-0.1-0.7-0.2-1-0.3c-0.6-0.1-1.1-0.3-1.7-0.4
		c-0.5-0.1-1-0.3-1.4-0.4c-0.2-0.1-0.4-0.1-0.5-0.2c-0.7-0.2-1.4-0.4-2.1-0.7c-0.1,0-0.3-0.1-0.4-0.1c-0.6-0.2-1.2-0.4-1.7-0.6
		c-0.2-0.1-0.4-0.1-0.6-0.2c-0.5-0.2-0.9-0.4-1.3-0.5c-0.3-0.1-0.6-0.3-0.9-0.4c-0.4-0.2-0.9-0.4-1.3-0.6c-0.3-0.1-0.6-0.3-0.8-0.4
		c-0.5-0.2-0.9-0.5-1.4-0.7c-0.2-0.1-0.5-0.2-0.7-0.3c-0.7-0.4-1.3-0.7-2-1.1c-4.8-2.8-8.5-5.9-11.2-9.3c-1.2-1.4-2.1-2.9-2.9-4.4
		c-0.3-0.5-0.5-1-0.7-1.5c-1.1-2.5-1.6-5.1-1.6-7.7l0,15.1c0,8.3,5.4,16.6,16.4,22.9c0.7,0.4,1.3,0.7,2,1.1c0.2,0.1,0.5,0.2,0.7,0.3
		c0.5,0.2,0.9,0.5,1.4,0.7c0.3,0.1,0.6,0.3,0.8,0.4c0.4,0.2,0.9,0.4,1.3,0.6c0.3,0.1,0.6,0.3,0.9,0.4c0.3,0.1,0.6,0.3,0.9,0.4
		c0.2,0.1,0.3,0.1,0.5,0.2c0.2,0.1,0.4,0.1,0.6,0.2c0.6,0.2,1.1,0.4,1.7,0.6c0.1,0,0.3,0.1,0.4,0.1c0.7,0.2,1.4,0.5,2.1,0.7
		c0.2,0.1,0.4,0.1,0.5,0.2c0.3,0.1,0.6,0.2,0.9,0.3c0.2,0,0.3,0.1,0.5,0.1c0.6,0.2,1.1,0.3,1.7,0.4c0.3,0.1,0.7,0.2,1,0.3
		c0.6,0.1,1.2,0.3,1.9,0.4c0.2,0.1,0.5,0.1,0.7,0.2c0.1,0,0.1,0,0.2,0c0.6,0.1,1.1,0.2,1.7,0.3c0.3,0.1,0.6,0.1,0.9,0.2
		c0.8,0.1,1.5,0.2,2.3,0.4c0.1,0,0.3,0,0.4,0.1c0,0,0,0,0,0c0.9,0.1,1.8,0.2,2.7,0.3c0.2,0,0.4,0,0.6,0.1c0.7,0.1,1.4,0.1,2.1,0.2
		c0,0,0,0,0.1,0c0.3,0,0.6,0,0.9,0.1c0.6,0,1.1,0.1,1.7,0.1c0.4,0,0.7,0,1.1,0c0.5,0,1.1,0,1.6,0.1c0,0,0.1,0,0.1,0
		c0.3,0,0.6,0,0.9,0c0.6,0,1.2,0,1.7,0c0.4,0,0.8,0,1.1,0c0.5,0,1.1,0,1.6,0c0.1,0,0.2,0,0.3,0c0.3,0,0.5,0,0.8,0
		c0.6,0,1.2-0.1,1.9-0.1c0.4,0,0.8-0.1,1.1-0.1c0.6,0,1.2-0.1,1.8-0.1c0.2,0,0.4,0,0.6-0.1c0.1,0,0.3,0,0.4-0.1
		c0.9-0.1,1.8-0.2,2.8-0.3c0.1,0,0.3,0,0.4-0.1c1.1-0.1,2.1-0.3,3.1-0.5c0.1,0,0.2,0,0.3,0c0.3-0.1,0.6-0.1,0.8-0.2
		c0.5-0.1,1-0.2,1.4-0.3c0.4-0.1,0.8-0.2,1.2-0.3c0.5-0.1,0.9-0.2,1.4-0.3c0.4-0.1,0.8-0.2,1.2-0.3c0.5-0.1,0.9-0.2,1.4-0.4
		c0.4-0.1,0.8-0.2,1.2-0.3c0.5-0.1,0.9-0.3,1.3-0.4c0.2-0.1,0.4-0.1,0.6-0.2c0.3-0.1,0.5-0.2,0.8-0.3c0.2-0.1,0.3-0.1,0.5-0.2
		c0.7-0.2,1.4-0.5,2.1-0.7c0.1,0,0.2-0.1,0.4-0.1c0.6-0.2,1.1-0.5,1.7-0.7c0.2-0.1,0.3-0.1,0.5-0.2c0.7-0.3,1.3-0.6,2-0.9
		c0.1,0,0.2-0.1,0.2-0.1c0.6-0.3,1.1-0.6,1.7-0.8c0.2-0.1,0.3-0.2,0.5-0.3c0.6-0.3,1.2-0.7,1.8-1l58.7-34.1c0.2-0.1,0.5-0.3,0.7-0.4
		c0.2-0.1,0.4-0.3,0.6-0.4c0.3-0.2,0.7-0.4,1-0.6c0.3-0.2,0.6-0.4,0.9-0.6c0.3-0.2,0.6-0.4,0.9-0.7c0.3-0.2,0.6-0.4,0.8-0.6
		c0.3-0.2,0.6-0.5,0.9-0.7c0.3-0.2,0.5-0.4,0.8-0.6c0.3-0.2,0.5-0.5,0.8-0.7c0.1-0.1,0.2-0.2,0.3-0.3c0.2-0.2,0.4-0.4,0.6-0.6
		c0.1-0.1,0.1-0.1,0.2-0.2c0.4-0.4,0.8-0.8,1.2-1.2c0.1-0.1,0.2-0.2,0.3-0.3c0.3-0.4,0.6-0.7,0.9-1.1c0.1-0.1,0.1-0.2,0.2-0.2
		c0,0,0.1-0.1,0.1-0.1c0.3-0.4,0.6-0.8,0.8-1.1c0.1-0.1,0.1-0.2,0.2-0.2c0.3-0.4,0.6-0.8,0.8-1.3c0-0.1,0.1-0.1,0.1-0.2
		c0.1-0.2,0.2-0.3,0.3-0.5c0.1-0.1,0.1-0.3,0.2-0.4c0.1-0.3,0.3-0.6,0.4-0.8c0.1-0.2,0.2-0.5,0.3-0.7c0.1-0.3,0.2-0.6,0.4-0.8
		c0-0.1,0.1-0.3,0.2-0.4c0-0.1,0.1-0.2,0.1-0.3c0.1-0.3,0.2-0.5,0.3-0.8c0.1-0.2,0.1-0.5,0.2-0.7c0.1-0.3,0.1-0.5,0.2-0.8
		c0-0.1,0.1-0.3,0.1-0.4c0-0.1,0-0.2,0-0.3c0.1-0.3,0.1-0.6,0.1-0.8c0-0.2,0.1-0.5,0.1-0.7c0-0.3,0-0.6,0.1-0.8c0-0.2,0-0.3,0-0.5
		c0-0.2,0-0.3,0-0.5l0-15.1C1855.8,545.3,1855.7,545.6,1855.7,545.9z"/>
	<g>
		
			<path fill="#FDEEE0" stroke="#141843" stroke-width="10" stroke-linecap="round" stroke-linejoin="round" stroke-miterlimit="10" d="
			M1839.4,522c21.8,12.6,21.9,32.9,0.3,45.5l-58.7,34.1c-21.6,12.6-56.8,12.6-78.6,0c-21.8-12.6-21.9-32.9-0.3-45.5l58.7-34.1
			C1782.4,509.5,1817.6,509.5,1839.4,522z"/>
	</g>
</g>
<g>
	<path fill="none" stroke="#141843" stroke-width="10" stroke-linecap="round" stroke-linejoin="round" stroke-miterlimit="10" d="
		M1929.3,831c5.3,3.1,5.4,8.1,0.1,11.1L1795,920.2c-5.3,3.1-13.9,3.1-19.2,0l-365-210.7c-5.3-3.1-5.4-8.1-0.1-11.1"/>
</g>
<g>
	
		<ellipse transform="matrix(2.836349e-03 -1 1 2.836349e-03 1267.8781 2343.9146)" fill="#FDEEE0" stroke="#141843" stroke-width="7" stroke-linecap="round" stroke-linejoin="round" stroke-miterlimit="10" cx="1809.2" cy="536.2" rx="7.8" ry="13.5"/>
</g>
<g>
	<g>
		<polygon fill="#FF6167" points="1148.2,168.5 1382.3,301.6 1054.6,493.3 820.5,361.6 		"/>
		<path fill="#141843" d="M1054.6,498.5c-0.9,0-1.8-0.2-2.6-0.7L817.9,366.2c-1.6-0.9-2.7-2.7-2.7-4.5c0-1.9,1-3.6,2.6-4.6
			l327.7-193.1c1.6-1,3.6-1,5.3,0L1384.9,297c1.6,0.9,2.7,2.7,2.7,4.5c0,1.9-1,3.6-2.6,4.6l-327.7,191.7
			C1056.4,498.3,1055.5,498.5,1054.6,498.5z M831.1,361.5l223.5,125.7l317.2-185.5l-223.5-127.1L831.1,361.5z"/>
	</g>
	<g>
		<g>
			<path fill="#141843" d="M1313.7,320.7c-0.9,0-1.8-0.2-2.6-0.7l-185.6-104.4c-2.5-1.4-3.4-4.6-2-7.2c1.4-2.5,4.6-3.4,7.2-2
				l185.6,104.4c2.5,1.4,3.4,4.6,2,7.2C1317.3,319.8,1315.5,320.7,1313.7,320.7z"/>
		</g>
		<g>
			<path fill="#141843" d="M1288.4,339.7c-0.9,0-1.8-0.2-2.6-0.7l-185.6-104.4c-2.5-1.4-3.4-4.6-2-7.2c1.4-2.5,4.6-3.4,7.2-2
				L1291,329.9c2.5,1.4,3.4,4.6,2,7.2C1292,338.8,1290.2,339.7,1288.4,339.7z"/>
		</g>
		<g>
			<path fill="#141843" d="M1258.8,352.4c-0.9,0-1.8-0.2-2.6-0.7l-185.6-104.4c-2.5-1.4-3.4-4.6-2-7.2c1.4-2.5,4.6-3.4,7.2-2
				l185.6,104.4c2.5,1.4,3.4,4.6,2,7.2C1262.5,351.4,1260.7,352.4,1258.8,352.4z"/>
		</g>
		<g>
			<path fill="#141843" d="M1231.4,369.3c-0.9,0-1.8-0.2-2.6-0.7l-185.7-104.4c-2.5-1.4-3.4-4.6-2-7.2c1.4-2.5,4.6-3.4,7.2-2
				L1234,359.4c2.5,1.4,3.4,4.6,2,7.2C1235,368.3,1233.2,369.3,1231.4,369.3z"/>
		</g>
		<g>
			<path fill="#141843" d="M1199.8,386.1c-0.9,0-1.8-0.2-2.6-0.7L1011.5,281c-2.5-1.4-3.4-4.6-2-7.2c1.4-2.5,4.6-3.5,7.2-2
				l185.6,104.4c2.5,1.4,3.4,4.6,2,7.2C1203.4,385.2,1201.6,386.1,1199.8,386.1z"/>
		</g>
		<g>
			<path fill="#141843" d="M1172.3,400.9c-0.9,0-1.8-0.2-2.6-0.7L984.1,295.8c-2.5-1.4-3.4-4.6-2-7.2c1.4-2.5,4.6-3.4,7.2-2
				L1174.9,391c2.5,1.4,3.4,4.6,2,7.2C1176,399.9,1174.2,400.9,1172.3,400.9z"/>
		</g>
		<g>
			<path fill="#141843" d="M1144.9,417.8c-0.9,0-1.8-0.2-2.6-0.7L956.7,312.7c-2.5-1.4-3.4-4.6-2-7.2c1.4-2.5,4.6-3.5,7.2-2
				l185.6,104.4c2.5,1.4,3.4,4.6,2,7.2C1148.5,416.8,1146.7,417.8,1144.9,417.8z"/>
		</g>
		<g>
			<path fill="#141843" d="M1119.6,430.4c-0.9,0-1.8-0.2-2.6-0.7L931.4,325.3c-2.5-1.4-3.4-4.6-2-7.2c1.4-2.5,4.6-3.4,7.2-2
				l185.6,104.4c2.5,1.4,3.4,4.6,2,7.2C1123.2,429.5,1121.4,430.4,1119.6,430.4z"/>
		</g>
		<g>
			<path fill="#141843" d="M976.1,385.1c-0.9,0-1.9-0.2-2.7-0.8l-69.6-42.2c-2.5-1.5-3.3-4.7-1.8-7.2c1.5-2.5,4.7-3.3,7.2-1.8
				l69.6,42.2c2.5,1.5,3.3,4.7,1.8,7.2C979.7,384.2,977.9,385.1,976.1,385.1z"/>
		</g>
	</g>
</g>
<g>
	<g>
		<polygon fill="#FBE3CC" points="1474.2,338.5 1708,471.4 1380.7,662.9 1146.9,531.3 		"/>
		<path fill="#141843" d="M1380.7,668.1c-0.9,0-1.8-0.2-2.6-0.7l-233.8-131.5c-1.6-0.9-2.7-2.6-2.7-4.5c0-1.9,1-3.6,2.6-4.6
			l327.3-192.9c1.6-1,3.6-1,5.3,0l233.8,133c1.6,0.9,2.7,2.7,2.7,4.5c0,1.9-1,3.6-2.6,4.6l-327.3,191.4
			C1382.5,667.9,1381.6,668.1,1380.7,668.1z M1157.4,531.2l223.2,125.6l316.9-185.3l-223.2-127L1157.4,531.2z"/>
	</g>
	<g>
		<polygon fill="#FF6167" points="1474.2,315.7 1708,448.7 1380.7,640.1 1146.9,508.6 		"/>
		<path fill="#141843" d="M1380.7,645.4c-0.9,0-1.8-0.2-2.6-0.7l-233.8-131.5c-1.6-0.9-2.7-2.6-2.7-4.5c0-1.9,1-3.6,2.6-4.6
			l327.3-192.9c1.6-1,3.6-1,5.3,0l233.8,133c1.6,0.9,2.6,2.7,2.7,4.5c0,1.9-1,3.6-2.6,4.6l-327.3,191.4
			C1382.5,645.2,1381.6,645.4,1380.7,645.4z M1157.4,508.5l223.2,125.6l316.8-185.3l-223.2-127L1157.4,508.5z"/>
	</g>
	<g>
		<polygon fill="#FBE3CC" points="1474.2,293 1708,426 1380.7,617.4 1146.9,485.9 		"/>
		<path fill="#141843" d="M1380.7,622.7c-0.9,0-1.8-0.2-2.6-0.7l-233.8-131.5c-1.6-0.9-2.7-2.7-2.7-4.5c0-1.9,1-3.6,2.6-4.6
			l327.3-192.9c1.6-1,3.6-1,5.3,0l233.8,133c1.6,0.9,2.7,2.7,2.7,4.5c0,1.9-1,3.6-2.6,4.6L1383.3,622
			C1382.5,622.4,1381.6,622.7,1380.7,622.7z M1157.4,485.8l223.2,125.6l316.9-185.3l-223.2-127L1157.4,485.8z"/>
	</g>
	<g>
		<polygon fill="#FF6167" points="1474.2,270.3 1708,403.3 1380.7,594.7 1146.9,463.2 		"/>
		<path fill="#141843" d="M1380.7,600c-0.9,0-1.8-0.2-2.6-0.7l-233.8-131.5c-1.6-0.9-2.7-2.6-2.7-4.5c0-1.9,1-3.6,2.6-4.6
			l327.3-192.9c1.6-1,3.6-1,5.3,0l233.8,133c1.6,0.9,2.7,2.7,2.7,4.5c0,1.9-1,3.6-2.6,4.6l-327.3,191.4
			C1382.5,599.7,1381.6,600,1380.7,600z M1157.4,463.1l223.2,125.6l316.9-185.3l-223.2-127L1157.4,463.1z"/>
	</g>
	<g>
		<polygon fill="#FBE3CC" points="1474.2,247.6 1708,380.6 1380.7,572 1146.9,440.5 		"/>
		<path fill="#141843" d="M1380.7,577.3c-0.9,0-1.8-0.2-2.6-0.7l-233.8-131.5c-1.6-0.9-2.7-2.6-2.7-4.5c0-1.9,1-3.6,2.6-4.6
			l327.3-192.9c1.6-1,3.6-1,5.3,0l233.8,133c1.6,0.9,2.7,2.7,2.7,4.5c0,1.9-1,3.6-2.6,4.6l-327.3,191.4
			C1382.5,577,1381.6,577.3,1380.7,577.3z M1157.4,440.4l223.2,125.6l316.9-185.3l-223.2-127L1157.4,440.4z"/>
	</g>
	<g>
		<polygon fill="#FF6167" points="1474.2,224.9 1708,357.9 1380.7,549.3 1146.9,417.8 		"/>
		<path fill="#141843" d="M1380.7,554.5c-0.9,0-1.8-0.2-2.6-0.7l-233.8-131.5c-1.6-0.9-2.7-2.6-2.7-4.5c0-1.9,1-3.6,2.6-4.6
			l327.3-192.9c1.6-1,3.6-1,5.3,0l233.8,133c1.6,0.9,2.7,2.7,2.7,4.5c0,1.9-1,3.6-2.6,4.6l-327.3,191.4
			C1382.5,554.3,1381.6,554.5,1380.7,554.5z M1157.4,417.7l223.2,125.6l316.9-185.3l-223.2-127L1157.4,417.7z"/>
	</g>
	<g>
		<polygon fill="#FBE3CC" points="1474.2,202.2 1708,335.1 1380.7,526.6 1146.9,395 		"/>
		<path fill="#141843" d="M1380.7,531.8c-0.9,0-1.8-0.2-2.6-0.7l-233.8-131.5c-1.6-0.9-2.7-2.7-2.7-4.5c0-1.9,1-3.6,2.6-4.6
			l327.3-192.9c1.6-1,3.6-1,5.3,0l233.8,133c1.6,0.9,2.7,2.7,2.7,4.5c0,1.9-1,3.6-2.6,4.6l-327.3,191.4
			C1382.5,531.6,1381.6,531.8,1380.7,531.8z M1157.4,394.9l223.2,125.6l316.9-185.3l-223.2-127L1157.4,394.9z"/>
	</g>
	<g>
		<polygon fill="#FF6167" points="1474.2,179.4 1708,312.4 1380.7,503.8 1146.9,372.3 		"/>
		<path fill="#141843" d="M1380.7,509.1c-0.9,0-1.8-0.2-2.6-0.7l-233.8-131.5c-1.6-0.9-2.7-2.6-2.7-4.5c0-1.9,1-3.6,2.6-4.6
			l327.3-192.9c1.6-1,3.6-1,5.3,0l233.8,133c1.6,0.9,2.7,2.7,2.7,4.5c0,1.9-1,3.6-2.6,4.6l-327.3,191.4
			C1382.5,508.9,1381.6,509.1,1380.7,509.1z M1157.4,372.2l223.2,125.6l316.9-185.3l-223.2-127L1157.4,372.2z"/>
	</g>
	<g>
		<polygon fill="#FBE3CC" points="1474.2,156.7 1708,289.7 1380.7,481.1 1146.9,349.6 		"/>
		<path fill="#141843" d="M1380.7,486.4c-0.9,0-1.8-0.2-2.6-0.7l-233.8-131.5c-1.6-0.9-2.7-2.6-2.7-4.5c0-1.9,1-3.6,2.6-4.6
			l327.3-192.9c1.6-1,3.6-1,5.3,0l233.8,133c1.6,0.9,2.6,2.7,2.7,4.5c0,1.9-1,3.6-2.6,4.6l-327.3,191.4
			C1382.5,486.1,1381.6,486.4,1380.7,486.4z M1157.4,349.5l223.2,125.6l316.8-185.3l-223.2-127L1157.4,349.5z"/>
	</g>
	<g>
		<polygon fill="#FF6167" points="1474.2,134 1708,267 1380.7,458.4 1146.9,326.9 		"/>
		<path fill="#141843" d="M1380.7,463.7c-0.9,0-1.8-0.2-2.6-0.7l-233.8-131.5c-1.6-0.9-2.7-2.6-2.7-4.5c0-1.9,1-3.6,2.6-4.6
			l327.3-192.9c1.6-1,3.6-1,5.3,0l233.8,133c1.6,0.9,2.6,2.7,2.7,4.5c0,1.9-1,3.6-2.6,4.6L1383.3,463
			C1382.5,463.4,1381.6,463.7,1380.7,463.7z M1157.4,326.8l223.2,125.6L1697.5,267l-223.2-127L1157.4,326.8z"/>
	</g>
	<g>
		<polygon fill="#FBE3CC" points="1474.2,111.3 1708,244.3 1380.7,435.7 1146.9,304.2 		"/>
		<path fill="#141843" d="M1380.7,441c-0.9,0-1.8-0.2-2.6-0.7l-233.8-131.5c-1.6-0.9-2.7-2.7-2.7-4.5c0-1.9,1-3.6,2.6-4.6
			l327.3-192.9c1.6-1,3.6-1,5.3,0l233.8,133c1.6,0.9,2.7,2.7,2.7,4.5c0,1.9-1,3.6-2.6,4.6l-327.3,191.4
			C1382.5,440.7,1381.6,441,1380.7,441z M1157.4,304.1l223.2,125.6l316.9-185.3l-223.2-127L1157.4,304.1z"/>
	</g>
	<g>
		<polygon fill="#FBE3CC" points="1474.2,88.6 1708,221.6 1380.7,413 1146.9,281.5 		"/>
		<path fill="#141843" d="M1380.7,418.2c-0.9,0-1.8-0.2-2.6-0.7L1144.3,286c-1.6-0.9-2.7-2.6-2.7-4.5c0-1.9,1-3.6,2.6-4.6L1471.5,84
			c1.6-1,3.6-1,5.3,0l233.8,133c1.6,0.9,2.7,2.7,2.7,4.5c0,1.9-1,3.6-2.6,4.6l-327.3,191.4C1382.5,418,1381.6,418.2,1380.7,418.2z
			 M1157.4,281.4l223.2,125.6l316.9-185.3l-223.2-127L1157.4,281.4z"/>
	</g>
	<g>
		<path fill="#FFFFFF" d="M1322.3,377l125.6-4.3c0,0-45-8.6-64.4-53.1C1383.4,319.5,1363,366.8,1322.3,377z"/>
		<path fill="#141843" d="M1322.3,384.8c-2.6,0-4.8-3.2-5.2-5.8c-0.4-2.7,1.3-5.8,3.9-6.5c37.8-9.4,57.4-53.1,57.6-53.6
			c0.8-1.9,2.7-2.3,4.8-2.3c0,0,0,0,0,0c2.1,0,4,0.1,4.8,2c18.1,41.4,60.2,49.4,60.6,49.5c2.6,0.5,4.5,2.6,4.3,5.3
			c-0.2,2.7-2.4,3.3-5.1,3.4l-125.6,2.9C1322.4,384.8,1322.3,384.8,1322.3,384.8z M1383.4,331.1c-6,10.6-17.7,27.7-35.1,39.7
			l73.6-2.5C1409.1,361.4,1394.1,349.9,1383.4,331.1z"/>
	</g>
	<g>
		<g>
			<path fill="#141843" d="M1639.4,240.6c-0.9,0-1.8-0.2-2.6-0.7l-185.4-104.3c-2.5-1.4-3.4-4.6-2-7.2c1.4-2.5,4.6-3.4,7.2-2
				L1642,230.8c2.5,1.4,3.4,4.6,2,7.2C1643.1,239.7,1641.3,240.6,1639.4,240.6z"/>
		</g>
		<g>
			<path fill="#141843" d="M1614.2,259.6c-0.9,0-1.8-0.2-2.6-0.7l-185.4-104.3c-2.5-1.4-3.4-4.6-2-7.2c1.4-2.5,4.6-3.4,7.2-2
				l185.4,104.3c2.5,1.4,3.4,4.6,2,7.2C1617.8,258.6,1616,259.6,1614.2,259.6z"/>
		</g>
		<g>
			<path fill="#141843" d="M1584.7,272.3c-0.9,0-1.8-0.2-2.6-0.7l-185.4-104.3c-2.5-1.4-3.4-4.6-2-7.2c1.4-2.5,4.6-3.4,7.2-2
				l185.4,104.3c2.5,1.4,3.4,4.6,2,7.2C1588.3,271.3,1586.5,272.3,1584.7,272.3z"/>
		</g>
		<g>
			<path fill="#141843" d="M1557.3,289.1c-0.9,0-1.8-0.2-2.6-0.7l-185.4-104.3c-2.5-1.4-3.4-4.6-2-7.2c1.4-2.5,4.6-3.4,7.2-2
				l185.4,104.3c2.5,1.4,3.4,4.6,2,7.2C1560.9,288.1,1559.1,289.1,1557.3,289.1z"/>
		</g>
		<g>
			<path fill="#141843" d="M1525.7,306c-0.9,0-1.8-0.2-2.6-0.7L1337.7,201c-2.5-1.4-3.4-4.6-2-7.2c1.4-2.5,4.6-3.4,7.2-2
				l185.4,104.3c2.5,1.4,3.4,4.6,2,7.2C1529.3,305,1527.5,306,1525.7,306z"/>
		</g>
		<g>
			<path fill="#141843" d="M1498.3,320.7c-0.9,0-1.8-0.2-2.6-0.7l-185.4-104.3c-2.5-1.4-3.4-4.6-2-7.2c1.4-2.5,4.6-3.4,7.2-2
				l185.4,104.3c2.5,1.4,3.4,4.6,2,7.2C1501.9,319.8,1500.1,320.7,1498.3,320.7z"/>
		</g>
		<g>
			<path fill="#141843" d="M1470.9,337.6c-0.9,0-1.8-0.2-2.6-0.7l-185.4-104.3c-2.5-1.4-3.4-4.6-2-7.2c1.4-2.5,4.6-3.4,7.2-2
				l185.4,104.3c2.5,1.4,3.4,4.6,2,7.2C1474.5,336.6,1472.7,337.6,1470.9,337.6z"/>
		</g>
		<g>
			<path fill="#141843" d="M1445.6,350.2c-0.9,0-1.8-0.2-2.6-0.7l-185.4-104.3c-2.5-1.4-3.4-4.6-2-7.2c1.4-2.5,4.6-3.4,7.2-2
				l185.4,104.3c2.5,1.4,3.4,4.6,2,7.2C1449.2,349.3,1447.4,350.2,1445.6,350.2z"/>
		</g>
		<g>
			<path fill="#141843" d="M1302.3,304.9c-0.9,0-1.9-0.2-2.7-0.8L1230,262c-2.5-1.5-3.3-4.7-1.8-7.2c1.5-2.5,4.7-3.3,7.2-1.8
				l69.5,42.1c2.5,1.5,3.3,4.7,1.8,7.2C1305.8,304,1304.1,304.9,1302.3,304.9z"/>
		</g>
	</g>
	<polygon fill="#FBE3CC" points="1332.3,379.8 1431.1,377.2 1380.6,406.9 	"/>
</g>
<g id="Tastatur_2_">
	<g>
		
			<path fill="#FFFFFF" stroke="#141843" stroke-width="10" stroke-linecap="round" stroke-linejoin="round" stroke-miterlimit="10" d="
			M1929.3,814.4c5.3,3.1,5.4,8.1,0.1,11.1L1795,903.7c-5.3,3.1-13.9,3.1-19.2,0l-365-210.7c-5.3-3.1-5.4-8.1-0.1-11.1l134.4-78.1
			c5.3-3.1,13.9-3.1,19.2,0L1929.3,814.4z"/>
	</g>
	<g>
		<path fill="#999999" d="M1554.7,737.2c-5.7,3.3-11.3,6.6-17,9.9c-1.4,0.8-1.4,2.2,0,3c39.2,22.6,78.4,45.3,117.6,67.9
			c1.4,0.8,3.8,0.8,5.2,0c5.7-3.3,11.3-6.6,17-9.9c1.4-0.8,1.4-2.2,0-3c-39.2-22.6-78.4-45.3-117.6-67.9
			C1558.5,736.4,1556.2,736.4,1554.7,737.2"/>
		<path fill="#999999" d="M1472.5,661.9c-5.6,3.3-11.3,6.6-16.9,9.8c-1.4,0.8-1.4,2.2,0,3c16.4,9.5,32.8,18.9,49.2,28.4
			c1.4,0.8,3.8,0.8,5.2,0c5.6-3.3,11.3-6.6,16.9-9.8c1.4-0.8,1.4-2.2,0-3c-16.4-9.5-32.8-18.9-49.2-28.4
			C1476.3,661,1474,661,1472.5,661.9"/>
		<path fill="#999999" d="M1815.1,879.3c5.6-3.3,11.3-6.6,16.9-9.8c1.4-0.8,1.4-2.2,0-3c-15.8-9.1-31.6-18.2-47.4-27.3
			c-1.4-0.8-3.8-0.8-5.2,0c-5.6,3.3-11.3,6.6-16.9,9.8c-1.4,0.8-1.4,2.2,0,3c15.8,9.1,31.6,18.2,47.4,27.3
			C1811.3,880.1,1813.7,880.1,1815.1,879.3"/>
		<path fill="#999999" d="M1496.9,647.7c-5.7,3.3-11.3,6.6-16.9,9.8c-1.4,0.8-1.4,2.2,0,3c12.2,7,24.4,14.1,36.6,21.1
			c1.4,0.8,3.8,0.8,5.2,0c5.6-3.3,11.3-6.6,16.9-9.8c1.4-0.8,1.4-2.2,0-3c-12.2-7-24.4-14.1-36.6-21.1
			C1500.7,646.8,1498.4,646.8,1496.9,647.7"/>
		<path fill="#999999" d="M1839.5,865.1c5.6-3.3,11.3-6.6,16.9-9.8c1.4-0.8,1.4-2.2,0-3c-12.1-7-24.1-13.9-36.2-20.9
			c-1.5-0.8-3.8-0.8-5.2,0c-5.6,3.3-11.3,6.6-16.9,9.8c-1.4,0.8-1.4,2.2,0,3c12.1,7,24.1,13.9,36.2,20.9
			C1835.7,865.9,1838.1,865.9,1839.5,865.1"/>
		<path fill="#999999" d="M1521.2,633.6c-5.6,3.3-11.3,6.6-16.9,9.8c-1.4,0.8-1.4,2.2,0,3c10.1,5.8,20.2,11.7,30.3,17.5
			c1.5,0.8,3.8,0.8,5.2,0c5.6-3.3,11.3-6.6,16.9-9.8c1.4-0.8,1.4-2.2,0-3c-10.1-5.8-20.2-11.7-30.3-17.5
			C1525,632.7,1522.7,632.7,1521.2,633.6"/>
		<path fill="#999999" d="M1887.9,837c5.7-3.3,11.3-6.6,17-9.9c1.7-1,1.1-2.4,0-3c-10.1-5.8-20.1-11.6-30.2-17.4
			c-1.4-0.8-3.8-0.8-5.2,0c-5.7,3.3-11.3,6.6-17,9.9c-1.4,0.8-1.4,2.2,0,3c10.1,5.8,20.1,11.6,30.2,17.4
			C1884.2,837.8,1886.5,837.8,1887.9,837"/>
		<path fill="#999999" d="M1691.7,836c5.7-3.3,11.3-6.6,17-9.9c1.4-0.8,1.4-2.2,0-3c-8-4.6-16-9.3-24.1-13.9c-1.4-0.8-3.8-0.8-5.2,0
			c-5.7,3.3-11.3,6.6-17,9.9c-1.4,0.8-1.4,2.2,0,3c8,4.6,16,9.3,24.1,13.9C1687.9,836.8,1690.3,836.8,1691.7,836"/>
		<path fill="#999999" d="M1535.6,745.8c5.7-3.3,11.3-6.6,17-9.9c1.4-0.8,1.4-2.2,0-3c-8-4.6-16-9.3-24.1-13.9
			c-1.4-0.8-3.8-0.8-5.2,0c-5.7,3.3-11.3,6.6-17,9.9c-1.4,0.8-1.4,2.2,0,3c8,4.6,16,9.3,24.1,13.9
			C1531.8,746.6,1534.1,746.6,1535.6,745.8"/>
		<path fill="#999999" d="M1753.4,824c-5.6,3.3-11.3,6.6-16.9,9.8c-1.4,0.8-1.4,2.2,0,3c5.9,3.4,11.9,6.9,17.8,10.3
			c1.4,0.8,3.8,0.8,5.2,0c5.6-3.3,11.3-6.6,16.9-9.8c1.4-0.8,1.4-2.2,0-3c-5.9-3.4-11.9-6.9-17.8-10.3
			C1757.2,823.2,1754.8,823.2,1753.4,824"/>
		<path fill="#999999" d="M1602,736.6c1.4-0.8,1.4-2.2,0-3c-5.9-3.4-11.9-6.9-17.8-10.3c-1.5-0.8-3.8-0.8-5.2,0
			c-5.6,3.3-11.3,6.6-16.9,9.8c-1.4,0.8-1.4,2.2,0,3c5.9,3.4,11.9,6.9,17.8,10.3c1.5,0.8,3.8,0.8,5.2,0
			C1590.7,743.1,1596.3,739.9,1602,736.6"/>
		<path fill="#999999" d="M1628.7,752c-5.6,3.3-11.3,6.6-16.9,9.8c-1.4,0.8-1.4,2.2,0,3c5.9,3.4,11.9,6.9,17.8,10.3
			c1.4,0.8,3.8,0.8,5.2,0c5.6-3.3,11.3-6.6,16.9-9.8c1.4-0.8,1.4-2.2,0-3c-5.9-3.4-11.9-6.9-17.8-10.3
			C1632.5,751.2,1630.2,751.2,1628.7,752"/>
		<path fill="#999999" d="M1703.5,795.2c-5.6,3.3-11.3,6.6-16.9,9.8c-1.4,0.8-1.4,2.2,0,3c5.9,3.4,11.9,6.9,17.8,10.3
			c1.5,0.8,3.8,0.8,5.2,0c5.6-3.3,11.3-6.6,16.9-9.8c1.4-0.8,1.4-2.2,0-3c-5.9-3.4-11.9-6.9-17.8-10.3
			C1707.3,794.4,1705,794.4,1703.5,795.2"/>
		<path fill="#999999" d="M1653.7,766.4c-5.6,3.3-11.3,6.6-16.9,9.8c-1.4,0.8-1.4,2.2,0,3c5.9,3.4,11.9,6.9,17.8,10.3
			c1.4,0.8,3.8,0.8,5.2,0c5.6-3.3,11.3-6.6,16.9-9.8c1.4-0.8,1.4-2.2,0-3c-5.9-3.4-11.9-6.9-17.8-10.3
			C1657.4,765.6,1655.1,765.6,1653.7,766.4"/>
		<path fill="#999999" d="M1656.5,708.6c-5.9-3.4-11.9-6.9-17.8-10.3c-1.4-0.8-3.8-0.8-5.2,0c-5.6,3.3-11.3,6.6-16.9,9.8
			c-1.4,0.8-1.4,2.2,0,3c5.9,3.4,11.9,6.9,17.8,10.3c1.4,0.8,3.8,0.8,5.2,0c5.6-3.3,11.3-6.6,16.9-9.8
			C1658,710.8,1657.9,709.5,1656.5,708.6"/>
		<path fill="#999999" d="M1601.4,671.5c5.7-3.3,11.3-6.6,17-9.9c1.4-0.8,1.4-2.2,0-3c-5.9-3.4-11.9-6.9-17.8-10.3
			c-1.5-0.8-3.8-0.8-5.2,0c-5.7,3.3-11.3,6.6-17,9.9c-1.4,0.8-1.4,2.2,0,3c5.9,3.4,11.9,6.9,17.8,10.3
			C1597.6,672.3,1599.9,672.3,1601.4,671.5"/>
		<path fill="#999999" d="M1679.5,804c1.4,0.8,3.8,0.8,5.2,0c5.6-3.3,11.3-6.6,16.9-9.8c1.4-0.8,1.4-2.2,0-3
			c-6-3.4-11.9-6.9-17.8-10.3c-1.4-0.8-3.8-0.8-5.2,0c-5.6,3.3-11.3,6.6-16.9,9.8c-1.4,0.8-1.4,2.2,0,3
			C1667.6,797.1,1673.6,800.6,1679.5,804"/>
		<path fill="#999999" d="M1560.1,732c5.6-3.3,11.3-6.6,16.9-9.8c1.4-0.8,1.4-2.2,0-3c-6-3.4-11.9-6.9-17.8-10.3
			c-1.4-0.8-3.8-0.8-5.2,0c-5.6,3.3-11.3,6.6-16.9,9.8c-1.4,0.8-1.4,2.2,0,3c6,3.4,11.9,6.9,17.8,10.3
			C1556.3,732.9,1558.6,732.9,1560.1,732"/>
		<path fill="#999999" d="M1815.9,826.4c6,3.4,11.9,6.9,17.8,10.3c1.4,0.8,3.8,0.8,5.2,0c5.6-3.3,11.3-6.6,16.9-9.8
			c1.4-0.8,1.4-2.2,0-3c-5.9-3.4-11.9-6.9-17.8-10.3c-1.4-0.8-3.8-0.8-5.2,0c-5.6,3.3-11.3,6.6-16.9,9.8
			C1814.5,824.2,1814.5,825.5,1815.9,826.4"/>
		<path fill="#999999" d="M1706.4,737.4c-5.9-3.4-11.9-6.9-17.8-10.3c-1.5-0.8-3.8-0.8-5.2,0c-5.6,3.3-11.3,6.6-16.9,9.8
			c-1.4,0.8-1.4,2.2,0,3c5.9,3.4,11.9,6.9,17.8,10.3c1.4,0.8,3.8,0.8,5.2,0c5.6-3.3,11.3-6.6,16.9-9.8
			C1707.8,739.6,1707.8,738.3,1706.4,737.4"/>
		<path fill="#999999" d="M1825.7,801.1c5.7-3.3,11.3-6.6,17-9.9c1.4-0.8,1.4-2.2,0-3c-5.9-3.4-11.9-6.9-17.8-10.3
			c-1.5-0.8-3.8-0.8-5.2,0c-5.7,3.3-11.3,6.6-17,9.9c-1.4,0.8-1.4,2.2,0,3c5.9,3.4,11.9,6.9,17.8,10.3
			C1822,801.9,1824.3,801.9,1825.7,801.1"/>
		<path fill="#999999" d="M1651.2,700.3c5.7-3.3,11.3-6.6,17-9.9c1.4-0.8,1.4-2.2,0-3c-5.9-3.4-11.9-6.9-17.8-10.3
			c-1.4-0.8-3.8-0.8-5.2,0c-5.7,3.3-11.3,6.6-17,9.9c-1.4,0.8-1.4,2.2,0,3c5.9,3.4,11.9,6.9,17.8,10.3
			C1647.4,701.1,1649.8,701.1,1651.2,700.3"/>
		<path fill="#999999" d="M1741.1,864.5c5.7-3.3,11.3-6.6,17-9.9c1.4-0.8,1.4-2.2,0-3c-5.9-3.4-11.9-6.9-17.8-10.3
			c-1.4-0.8-3.8-0.8-5.2,0c-5.7,3.3-11.3,6.6-17,9.9c-1.4,0.8-1.4,2.2,0,3c6,3.4,11.9,6.9,17.8,10.3
			C1737.4,865.3,1739.7,865.3,1741.1,864.5"/>
		<path fill="#999999" d="M1558.6,655.1c-5.6,3.3-11.3,6.6-16.9,9.8c-1.4,0.8-1.4,2.2,0,3c5.9,3.4,11.9,6.9,17.8,10.3
			c1.5,0.8,3.8,0.8,5.2,0c5.6-3.3,11.3-6.6,16.9-9.8c1.4-0.8,1.4-2.2,0-3c-5.9-3.4-11.9-6.9-17.8-10.3
			C1562.4,654.3,1560.1,654.3,1558.6,655.1"/>
		<path fill="#999999" d="M1806.1,795c-5.9-3.4-11.9-6.9-17.8-10.3c-1.5-0.8-3.8-0.8-5.2,0c-5.6,3.3-11.3,6.6-16.9,9.8
			c-1.4,0.8-1.4,2.2,0,3c5.9,3.4,11.9,6.9,17.8,10.3c1.4,0.8,3.8,0.8,5.2,0c5.6-3.3,11.3-6.6,16.9-9.8
			C1807.5,797.2,1807.5,795.8,1806.1,795"/>
		<path fill="#999999" d="M1756.2,766.2c-5.9-3.4-11.9-6.9-17.8-10.3c-1.4-0.8-3.8-0.8-5.2,0c-5.6,3.3-11.3,6.6-16.9,9.8
			c-1.4,0.8-1.4,2.2,0,3c5.9,3.4,11.9,6.9,17.8,10.3c1.5,0.8,3.8,0.8,5.2,0c5.6-3.3,11.3-6.6,16.9-9.8
			C1757.7,768.4,1757.7,767,1756.2,766.2"/>
		<path fill="#999999" d="M1750.9,757.9c5.7-3.3,11.3-6.6,17-9.9c1.4-0.8,1.4-2.2,0-3c-5.9-3.4-11.9-6.9-17.8-10.3
			c-1.4-0.8-3.8-0.8-5.2,0c-5.7,3.3-11.3,6.6-17,9.9c-1.4,0.8-1.4,2.2,0,3c5.9,3.4,11.9,6.9,17.8,10.3
			C1747.2,758.7,1749.5,758.7,1750.9,757.9"/>
		<path fill="#999999" d="M1701.1,729.1c5.7-3.3,11.3-6.6,17-9.9c1.4-0.8,1.4-2.2,0-3c-5.9-3.4-11.9-6.9-17.8-10.3
			c-1.5-0.8-3.8-0.8-5.2,0c-5.7,3.3-11.3,6.6-17,9.9c-1.4,0.8-1.4,2.2,0,3c5.9,3.4,11.9,6.9,17.8,10.3
			C1697.3,729.9,1699.6,729.9,1701.1,729.1"/>
		<path fill="#999999" d="M1728.4,809.6c-5.6,3.3-11.3,6.6-16.9,9.8c-1.4,0.8-1.4,2.2,0,3c5.9,3.4,11.9,6.9,17.8,10.3
			c1.5,0.8,3.8,0.8,5.2,0c5.6-3.3,11.3-6.6,16.9-9.8c1.4-0.8,1.4-2.2,0-3c-5.9-3.4-11.9-6.9-17.8-10.3
			C1732.2,808.8,1729.9,808.8,1728.4,809.6"/>
		<path fill="#999999" d="M1603.8,737.6c-5.6,3.3-11.3,6.6-16.9,9.8c-1.4,0.8-1.4,2.2,0,3c5.9,3.4,11.9,6.9,17.8,10.3
			c1.5,0.8,3.8,0.8,5.2,0c5.6-3.3,11.3-6.6,16.9-9.8c1.4-0.8,1.4-2.2,0-3c-5.9-3.4-11.9-6.9-17.8-10.3
			C1607.6,736.8,1605.2,736.8,1603.8,737.6"/>
		<path fill="#999999" d="M1548.9,700.3c5.9,3.4,11.9,6.9,17.8,10.3c1.4,0.8,3.8,0.8,5.2,0c5.6-3.3,11.3-6.6,16.9-9.8
			c1.4-0.8,1.4-2.2,0-3c-5.9-3.4-11.9-6.9-17.8-10.3c-1.4-0.8-3.8-0.8-5.2,0c-5.7,3.3-11.3,6.6-16.9,9.8
			C1547.4,698.1,1547.4,699.5,1548.9,700.3"/>
		<path fill="#999999" d="M1698.5,786.7c5.9,3.4,11.9,6.9,17.8,10.3c1.5,0.8,3.8,0.8,5.2,0c5.6-3.3,11.3-6.6,16.9-9.8
			c1.4-0.8,1.4-2.2,0-3c-5.9-3.4-11.9-6.9-17.8-10.3c-1.4-0.8-3.8-0.8-5.2,0c-5.7,3.3-11.3,6.6-16.9,9.8
			C1697,784.5,1697,785.9,1698.5,786.7"/>
		<path fill="#999999" d="M1773.3,829.9c5.9,3.4,11.9,6.9,17.8,10.3c1.4,0.8,3.8,0.8,5.2,0c5.6-3.3,11.3-6.6,16.9-9.8
			c1.4-0.8,1.4-2.2,0-3c-5.9-3.4-11.9-6.9-17.8-10.3c-1.4-0.8-3.8-0.8-5.2,0c-5.6,3.3-11.3,6.6-16.9,9.8
			C1771.8,827.7,1771.8,829,1773.3,829.9"/>
		<path fill="#999999" d="M1648.6,757.9c5.9,3.4,11.9,6.9,17.8,10.3c1.4,0.8,3.8,0.8,5.2,0c5.6-3.3,11.3-6.6,16.9-9.8
			c1.4-0.8,1.4-2.2,0-3c-5.9-3.4-11.9-6.9-17.8-10.3c-1.5-0.8-3.8-0.8-5.2,0c-5.7,3.3-11.3,6.6-16.9,9.8
			C1647.2,755.7,1647.2,757.1,1648.6,757.9"/>
		<path fill="#999999" d="M1731.3,751.8c-5.9-3.4-11.9-6.9-17.8-10.3c-1.4-0.8-3.8-0.8-5.2,0c-5.6,3.3-11.3,6.6-16.9,9.8
			c-1.4,0.8-1.4,2.2,0,3c6,3.4,11.9,6.9,17.8,10.3c1.4,0.8,3.8,0.8,5.2,0c5.6-3.3,11.3-6.6,16.9-9.8
			C1732.8,754,1732.7,752.6,1731.3,751.8"/>
		<path fill="#999999" d="M1606.6,679.8c-5.9-3.4-11.9-6.9-17.8-10.3c-1.5-0.8-3.8-0.8-5.2,0c-5.6,3.3-11.3,6.6-16.9,9.8
			c-1.4,0.8-1.4,2.2,0,3c5.9,3.4,11.9,6.9,17.8,10.3c1.5,0.8,3.8,0.8,5.2,0c5.6-3.3,11.3-6.6,16.9-9.8
			C1608.1,682,1608.1,680.7,1606.6,679.8"/>
		<path fill="#999999" d="M1831,809.4c-5.9-3.4-11.9-6.9-17.8-10.3c-1.4-0.8-3.8-0.8-5.2,0c-5.6,3.3-11.3,6.6-16.9,9.8
			c-1.4,0.8-1.4,2.2,0,3c5.9,3.4,11.9,6.9,17.8,10.3c1.4,0.8,3.8,0.8,5.2,0c5.6-3.3,11.3-6.6,16.9-9.8
			C1832.5,811.6,1832.5,810.2,1831,809.4"/>
		<path fill="#999999" d="M1676.2,714.7c5.7-3.3,11.3-6.6,17-9.9c1.4-0.8,1.4-2.2,0-3c-5.9-3.4-11.9-6.9-17.8-10.3
			c-1.5-0.8-3.8-0.8-5.2,0c-5.7,3.3-11.3,6.6-17,9.9c-1.4,0.8-1.4,2.2,0,3c5.9,3.4,11.9,6.9,17.8,10.3
			C1672.4,715.5,1674.7,715.5,1676.2,714.7"/>
		<path fill="#999999" d="M1716.2,850.1c5.7-3.3,11.3-6.6,17-9.9c1.4-0.8,1.4-2.2,0-3c-6-3.4-11.9-6.9-17.8-10.3
			c-1.4-0.8-3.8-0.8-5.2,0c-5.7,3.3-11.3,6.6-17,9.9c-1.4,0.8-1.4,2.2,0,3c6,3.4,11.9,6.9,17.8,10.3
			C1712.4,850.9,1714.8,850.9,1716.2,850.1"/>
		<path fill="#999999" d="M1553.4,646.8c5.9,3.4,11.9,6.9,17.8,10.3c1.5,0.8,3.8,0.8,5.2,0c5.7-3.3,11.3-6.6,17-9.9
			c1.4-0.8,1.4-2.2,0-3c-5.9-3.4-11.9-6.9-17.8-10.3c-1.5-0.8-3.8-0.8-5.2,0c-5.7,3.3-11.3,6.6-17,9.9
			C1551.9,644.6,1551.9,646,1553.4,646.8"/>
		<path fill="#999999" d="M1545.4,619.5c-5.7,3.3-11.3,6.6-17,9.9c-1.4,0.8-1.4,2.2,0,3c5.9,3.4,11.9,6.9,17.8,10.3
			c1.4,0.8,3.8,0.8,5.2,0c5.7-3.3,11.3-6.6,17-9.9c1.4-0.8,1.4-2.2,0-3c-5.9-3.4-11.9-6.9-17.8-10.3
			C1549.1,618.7,1546.8,618.7,1545.4,619.5"/>
		<path fill="#999999" d="M1775.9,772.3c5.7-3.3,11.3-6.6,17-9.9c1.4-0.8,1.4-2.2,0-3c-5.9-3.4-11.9-6.9-17.8-10.3
			c-1.4-0.8-3.8-0.8-5.2,0c-5.7,3.3-11.3,6.6-17,9.9c-1.4,0.8-1.4,2.2,0,3c5.9,3.4,11.9,6.9,17.8,10.3
			C1772.1,773.1,1774.4,773.1,1775.9,772.3"/>
		<path fill="#999999" d="M1800.8,786.7c5.7-3.3,11.3-6.6,17-9.9c1.4-0.8,1.4-2.2,0-3c-5.9-3.4-11.9-6.9-17.8-10.3
			c-1.4-0.8-3.8-0.8-5.2,0c-5.7,3.3-11.3,6.6-17,9.9c-1.4,0.8-1.4,2.2,0,3c6,3.4,11.9,6.9,17.8,10.3
			C1797,787.5,1799.4,787.5,1800.8,786.7"/>
		<path fill="#999999" d="M1598.7,729.1c5.9,3.4,11.9,6.9,17.8,10.3c1.5,0.8,3.8,0.8,5.2,0c5.6-3.3,11.3-6.6,16.9-9.8
			c1.4-0.8,1.4-2.2,0-3c-5.9-3.4-11.9-6.9-17.8-10.3c-1.4-0.8-3.8-0.8-5.2,0c-5.7,3.3-11.3,6.6-16.9,9.8
			C1597.3,726.9,1597.3,728.3,1598.7,729.1"/>
		<path fill="#999999" d="M1863.8,851c5.6-3.3,11.3-6.6,16.9-9.8c1.4-0.8,1.4-2.2,0-3c-5.9-3.4-11.9-6.9-17.8-10.3
			c-1.5-0.8-3.8-0.8-5.2,0c-5.6,3.3-11.3,6.6-16.9,9.8c-1.4,0.8-1.4,2.2,0,3c5.9,3.4,11.9,6.9,17.8,10.3
			C1860,851.8,1862.4,851.8,1863.8,851"/>
		<path fill="#999999" d="M1791,893.3c5.7-3.3,11.3-6.6,17-9.9c1.4-0.8,1.4-2.2,0-3c-5.9-3.4-11.9-6.9-17.8-10.3
			c-1.4-0.8-3.8-0.8-5.2,0c-5.7,3.3-11.3,6.6-17,9.9c-1.4,0.8-1.4,2.2,0,3c5.9,3.4,11.9,6.9,17.8,10.3
			C1787.2,894.1,1789.6,894.1,1791,893.3"/>
		<path fill="#999999" d="M1591.6,696.8c5.9,3.4,11.9,6.9,17.8,10.3c1.4,0.8,3.8,0.8,5.2,0c5.6-3.3,11.3-6.6,16.9-9.8
			c1.4-0.8,1.4-2.2,0-3c-5.9-3.4-11.9-6.9-17.8-10.3c-1.4-0.8-3.8-0.8-5.2,0c-5.6,3.3-11.3,6.6-16.9,9.8
			C1590.1,694.6,1590.1,696,1591.6,696.8"/>
		<path fill="#999999" d="M1681.4,723c-5.9-3.4-11.9-6.9-17.8-10.3c-1.5-0.8-3.8-0.8-5.2,0c-5.6,3.3-11.3,6.6-16.9,9.8
			c-1.4,0.8-1.4,2.2,0,3c5.9,3.4,11.9,6.9,17.8,10.3c1.5,0.8,3.8,0.8,5.2,0c5.6-3.3,11.3-6.6,16.9-9.8
			C1682.9,725.2,1682.9,723.9,1681.4,723"/>
		<path fill="#999999" d="M1781.2,780.6c-5.9-3.4-11.9-6.9-17.8-10.3c-1.5-0.8-3.8-0.8-5.2,0c-5.6,3.3-11.3,6.6-16.9,9.8
			c-1.4,0.8-1.4,2.2,0,3c5.9,3.4,11.9,6.9,17.8,10.3c1.5,0.8,3.8,0.8,5.2,0c5.6-3.3,11.3-6.6,16.9-9.8
			C1782.6,782.8,1782.6,781.4,1781.2,780.6"/>
		<path fill="#999999" d="M1603.2,672.6c-1.4,0.8-1.4,2.2,0,3c5.9,3.4,11.9,6.9,17.8,10.3c1.4,0.8,3.8,0.8,5.2,0
			c5.7-3.3,11.3-6.6,17-9.9c1.4-0.8,1.4-2.2,0-3c-5.9-3.4-11.9-6.9-17.8-10.3c-1.4-0.8-3.8-0.8-5.2,0
			C1614.5,666,1608.9,669.3,1603.2,672.6"/>
		<path fill="#999999" d="M1850.7,815.4c5.7-3.3,11.3-6.6,17-9.9c1.4-0.8,1.4-2.2,0-3c-5.9-3.4-11.9-6.9-17.8-10.3
			c-1.4-0.8-3.8-0.8-5.2,0c-5.7,3.3-11.3,6.6-17,9.9c-1.4,0.8-1.4,2.2,0,3c5.9,3.4,11.9,6.9,17.8,10.3
			C1846.9,816.3,1849.2,816.3,1850.7,815.4"/>
		<path fill="#999999" d="M1726,743.5c5.7-3.3,11.3-6.6,17-9.9c1.4-0.8,1.4-2.2,0-3c-5.9-3.4-11.9-6.9-17.8-10.3
			c-1.4-0.8-3.8-0.8-5.2,0c-5.7,3.3-11.3,6.6-17,9.9c-1.4,0.8-1.4,2.2,0,3c5.9,3.4,11.9,6.9,17.8,10.3
			C1722.2,744.3,1724.6,744.3,1726,743.5"/>
		<path fill="#999999" d="M1766.1,878.9c5.7-3.3,11.3-6.6,17-9.9c1.4-0.8,1.4-2.2,0-3c-5.9-3.4-11.9-6.9-17.8-10.3
			c-1.4-0.8-3.8-0.8-5.2,0c-5.7,3.3-11.3,6.6-17,9.9c-1.4,0.8-1.4,2.2,0,3c5.9,3.4,11.9,6.9,17.8,10.3
			C1762.3,879.7,1764.6,879.7,1766.1,878.9"/>
		<path fill="#999999" d="M1590.7,701.8c-5.6,3.3-11.3,6.6-16.9,9.8c-1.4,0.8-1.4,2.2,0,3c5.9,3.4,11.9,6.9,17.8,10.3
			c1.4,0.8,3.8,0.8,5.2,0c5.6-3.3,11.3-6.6,16.9-9.8c1.4-0.8,1.4-2.2,0-3c-5.9-3.4-11.9-6.9-17.8-10.3
			C1594.5,701,1592.2,701,1590.7,701.8"/>
		<path fill="#999999" d="M1623.7,743.5c5.9,3.4,11.9,6.9,17.8,10.3c1.5,0.8,3.8,0.8,5.2,0c5.6-3.3,11.3-6.6,16.9-9.8
			c1.4-0.8,1.4-2.2,0-3c-5.9-3.4-11.9-6.9-17.8-10.3c-1.5-0.8-3.8-0.8-5.2,0c-5.7,3.3-11.3,6.6-16.9,9.8
			C1622.2,741.3,1622.2,742.7,1623.7,743.5"/>
		<path fill="#999999" d="M1673.5,772.3c5.9,3.4,11.9,6.9,17.8,10.3c1.4,0.8,3.8,0.8,5.2,0c5.6-3.3,11.3-6.6,16.9-9.8
			c1.4-0.8,1.4-2.2,0-3c-5.9-3.4-11.9-6.9-17.8-10.3c-1.4-0.8-3.8-0.8-5.2,0c-5.7,3.3-11.3,6.6-16.9,9.8
			C1672.1,770.1,1672.1,771.5,1673.5,772.3"/>
		<path fill="#999999" d="M1723.4,801.1c5.9,3.4,11.9,6.9,17.8,10.3c1.5,0.8,3.8,0.8,5.2,0c5.6-3.3,11.3-6.6,16.9-9.8
			c1.4-0.8,1.4-2.2,0-3c-5.9-3.4-11.9-6.9-17.8-10.3c-1.5-0.8-3.8-0.8-5.2,0c-5.7,3.3-11.3,6.6-16.9,9.8
			C1721.9,798.9,1722,800.2,1723.4,801.1"/>
		<path fill="#999999" d="M1748.3,815.5c5.9,3.4,11.9,6.9,17.8,10.3c1.4,0.8,3.8,0.8,5.2,0c5.6-3.3,11.3-6.6,16.9-9.8
			c1.4-0.8,1.4-2.2,0-3c-5.9-3.4-11.9-6.9-17.8-10.3c-1.4-0.8-3.8-0.8-5.2,0c-5.7,3.3-11.3,6.6-16.9,9.8
			C1746.9,813.3,1746.9,814.6,1748.3,815.5"/>
		<path fill="#999999" d="M1540.9,673.1c-5.7,3.3-11.3,6.6-16.9,9.8c-1.4,0.8-1.4,2.2,0,3c5.9,3.4,11.9,6.9,17.8,10.3
			c1.5,0.8,3.8,0.8,5.2,0c5.6-3.3,11.3-6.6,16.9-9.8c1.4-0.8,1.4-2.2,0-3c-5.9-3.4-11.9-6.9-17.8-10.3
			C1544.7,672.2,1542.3,672.2,1540.9,673.1"/>
		<path fill="#999999" d="M1529,694.5c-5.6,3.3-11.3,6.6-16.9,9.8c-1.4,0.8-1.4,2.2,0,3c5.9,3.4,11.7,6.8,17.6,10.1
			c1.4,0.8,3.8,0.8,5.2,0c5.6-3.3,11.3-6.6,16.9-9.8c1.3-0.8,1.5-2,0.3-2.9c-5.9-3.4-11.9-6.9-17.8-10.3
			C1532.8,693.6,1530.4,693.6,1529,694.5"/>
		<path fill="#999999" d="M1479.2,713.3c5.7-3.3,11.3-6.6,17-9.9c1.4-0.8,1.4-2.2,0-3c-5.9-3.4-11.7-6.8-17.6-10.1
			c-1.5-0.8-3.8-0.8-5.2,0c-5.7,3.3-11.3,6.6-17,9.9c-1.4,0.8-1.4,2.2,0,3c5.9,3.4,11.7,6.8,17.6,10.1
			C1475.4,714.1,1477.8,714.1,1479.2,713.3"/>
		<path fill="#999999" d="M1504.2,727.7c5.7-3.3,11.3-6.6,17-9.9c1.4-0.8,1.4-2.2,0-3c-5.9-3.4-11.7-6.8-17.6-10.1
			c-1.5-0.8-3.8-0.8-5.2,0c-5.7,3.3-11.3,6.6-17,9.9c-1.4,0.8-1.4,2.2,0,3c5.9,3.4,11.7,6.8,17.6,10.1
			C1500.4,728.5,1502.7,728.5,1504.2,727.7"/>
		<path fill="#999999" d="M1454.3,698.9c5.7-3.3,11.3-6.6,17-9.9c1.4-0.8,1.4-2.2,0-3c-5.9-3.4-11.7-6.8-17.6-10.1
			c-1.4-0.8-3.8-0.8-5.2,0c-5.7,3.3-11.3,6.6-17,9.9c-1.4,0.8-1.4,2.2,0,3c5.9,3.4,11.7,6.8,17.6,10.1
			C1450.5,699.7,1452.9,699.7,1454.3,698.9"/>
	</g>
	<g>
		
			<path fill="#FDEEE0" stroke="#141843" stroke-width="6" stroke-linecap="round" stroke-linejoin="round" stroke-miterlimit="10" d="
			M1554.7,734.6c-5.7,3.3-11.3,6.6-17,9.9c-1.4,0.8-1.4,2.2,0,3c39.2,22.6,78.4,45.3,117.6,67.9c1.4,0.8,3.8,0.8,5.2,0
			c5.7-3.3,11.3-6.6,17-9.9c1.4-0.8,1.4-2.2,0-3c-39.2-22.6-78.4-45.3-117.6-67.9C1558.5,733.7,1556.2,733.7,1554.7,734.6"/>
		
			<path fill="#FDEEE0" stroke="#141843" stroke-width="6" stroke-linecap="round" stroke-linejoin="round" stroke-miterlimit="10" d="
			M1472.5,659.2c-5.6,3.3-11.3,6.6-16.9,9.8c-1.4,0.8-1.4,2.2,0,3c16.4,9.5,32.8,18.9,49.2,28.4c1.4,0.8,3.8,0.8,5.2,0
			c5.6-3.3,11.3-6.6,16.9-9.8c1.4-0.8,1.4-2.2,0-3c-16.4-9.5-32.8-18.9-49.2-28.4C1476.3,658.3,1474,658.3,1472.5,659.2"/>
		
			<path fill="#FDEEE0" stroke="#141843" stroke-width="6" stroke-linecap="round" stroke-linejoin="round" stroke-miterlimit="10" d="
			M1815.1,876.6c5.6-3.3,11.3-6.6,16.9-9.8c1.4-0.8,1.4-2.2,0-3c-15.8-9.1-31.6-18.2-47.4-27.3c-1.4-0.8-3.8-0.8-5.2,0
			c-5.6,3.3-11.3,6.6-16.9,9.8c-1.4,0.8-1.4,2.2,0,3c15.8,9.1,31.6,18.2,47.4,27.3C1811.3,877.4,1813.7,877.4,1815.1,876.6"/>
		
			<path fill="#FDEEE0" stroke="#141843" stroke-width="6" stroke-linecap="round" stroke-linejoin="round" stroke-miterlimit="10" d="
			M1496.9,645c-5.7,3.3-11.3,6.6-16.9,9.8c-1.4,0.8-1.4,2.2,0,3c12.2,7,24.4,14.1,36.6,21.1c1.4,0.8,3.8,0.8,5.2,0
			c5.6-3.3,11.3-6.6,16.9-9.8c1.4-0.8,1.4-2.2,0-3c-12.2-7-24.4-14.1-36.6-21.1C1500.7,644.2,1498.4,644.2,1496.9,645"/>
		
			<path fill="#FDEEE0" stroke="#141843" stroke-width="6" stroke-linecap="round" stroke-linejoin="round" stroke-miterlimit="10" d="
			M1839.5,862.4c5.6-3.3,11.3-6.6,16.9-9.8c1.4-0.8,1.4-2.2,0-3c-12.1-7-24.1-13.9-36.2-20.9c-1.5-0.8-3.8-0.8-5.2,0
			c-5.6,3.3-11.3,6.6-16.9,9.8c-1.4,0.8-1.4,2.2,0,3c12.1,7,24.1,13.9,36.2,20.9C1835.7,863.3,1838.1,863.3,1839.5,862.4"/>
		
			<path fill="#FDEEE0" stroke="#141843" stroke-width="6" stroke-linecap="round" stroke-linejoin="round" stroke-miterlimit="10" d="
			M1521.2,630.9c-5.6,3.3-11.3,6.6-16.9,9.8c-1.4,0.8-1.4,2.2,0,3c10.1,5.8,20.2,11.7,30.3,17.5c1.5,0.8,3.8,0.8,5.2,0
			c5.6-3.3,11.3-6.6,16.9-9.8c1.4-0.8,1.4-2.2,0-3c-10.1-5.8-20.2-11.7-30.3-17.5C1525,630,1522.7,630,1521.2,630.9"/>
		
			<path fill="#FDEEE0" stroke="#141843" stroke-width="6" stroke-linecap="round" stroke-linejoin="round" stroke-miterlimit="10" d="
			M1887.9,834.3c5.7-3.3,11.3-6.6,17-9.9c1.7-1,1.1-2.4,0-3c-10.1-5.8-20.1-11.6-30.2-17.4c-1.4-0.8-3.8-0.8-5.2,0
			c-5.7,3.3-11.3,6.6-17,9.9c-1.4,0.8-1.4,2.2,0,3c10.1,5.8,20.1,11.6,30.2,17.4C1884.2,835.1,1886.5,835.1,1887.9,834.3"/>
		
			<path fill="#FDEEE0" stroke="#141843" stroke-width="6" stroke-linecap="round" stroke-linejoin="round" stroke-miterlimit="10" d="
			M1691.7,833.3c5.7-3.3,11.3-6.6,17-9.9c1.4-0.8,1.4-2.2,0-3c-8-4.6-16-9.3-24.1-13.9c-1.4-0.8-3.8-0.8-5.2,0
			c-5.7,3.3-11.3,6.6-17,9.9c-1.4,0.8-1.4,2.2,0,3c8,4.6,16,9.3,24.1,13.9C1687.9,834.1,1690.3,834.1,1691.7,833.3"/>
		
			<path fill="#FDEEE0" stroke="#141843" stroke-width="6" stroke-linecap="round" stroke-linejoin="round" stroke-miterlimit="10" d="
			M1535.6,743.1c5.7-3.3,11.3-6.6,17-9.9c1.4-0.8,1.4-2.2,0-3c-8-4.6-16-9.3-24.1-13.9c-1.4-0.8-3.8-0.8-5.2,0
			c-5.7,3.3-11.3,6.6-17,9.9c-1.4,0.8-1.4,2.2,0,3c8,4.6,16,9.3,24.1,13.9C1531.8,744,1534.1,744,1535.6,743.1"/>
		
			<path fill="#FDEEE0" stroke="#141843" stroke-width="6" stroke-linecap="round" stroke-linejoin="round" stroke-miterlimit="10" d="
			M1753.4,821.3c-5.6,3.3-11.3,6.6-16.9,9.8c-1.4,0.8-1.4,2.2,0,3c5.9,3.4,11.9,6.9,17.8,10.3c1.4,0.8,3.8,0.8,5.2,0
			c5.6-3.3,11.3-6.6,16.9-9.8c1.4-0.8,1.4-2.2,0-3c-5.9-3.4-11.9-6.9-17.8-10.3C1757.2,820.5,1754.8,820.5,1753.4,821.3"/>
		
			<path fill="#FDEEE0" stroke="#141843" stroke-width="6" stroke-linecap="round" stroke-linejoin="round" stroke-miterlimit="10" d="
			M1602,733.9c1.4-0.8,1.4-2.2,0-3c-5.9-3.4-11.9-6.9-17.8-10.3c-1.5-0.8-3.8-0.8-5.2,0c-5.6,3.3-11.3,6.6-16.9,9.8
			c-1.4,0.8-1.4,2.2,0,3c5.9,3.4,11.9,6.9,17.8,10.3c1.5,0.8,3.8,0.8,5.2,0C1590.7,740.5,1596.3,737.2,1602,733.9"/>
		
			<path fill="#FDEEE0" stroke="#141843" stroke-width="6" stroke-linecap="round" stroke-linejoin="round" stroke-miterlimit="10" d="
			M1628.7,749.4c-5.6,3.3-11.3,6.6-16.9,9.8c-1.4,0.8-1.4,2.2,0,3c5.9,3.4,11.9,6.9,17.8,10.3c1.4,0.8,3.8,0.8,5.2,0
			c5.6-3.3,11.3-6.6,16.9-9.8c1.4-0.8,1.4-2.2,0-3c-5.9-3.4-11.9-6.9-17.8-10.3C1632.5,748.5,1630.2,748.5,1628.7,749.4"/>
		
			<path fill="#FDEEE0" stroke="#141843" stroke-width="6" stroke-linecap="round" stroke-linejoin="round" stroke-miterlimit="10" d="
			M1703.5,792.5c-5.6,3.3-11.3,6.6-16.9,9.8c-1.4,0.8-1.4,2.2,0,3c5.9,3.4,11.9,6.9,17.8,10.3c1.5,0.8,3.8,0.8,5.2,0
			c5.6-3.3,11.3-6.6,16.9-9.8c1.4-0.8,1.4-2.2,0-3c-5.9-3.4-11.9-6.9-17.8-10.3C1707.3,791.7,1705,791.7,1703.5,792.5"/>
		
			<path fill="#FDEEE0" stroke="#141843" stroke-width="6" stroke-linecap="round" stroke-linejoin="round" stroke-miterlimit="10" d="
			M1653.7,763.7c-5.6,3.3-11.3,6.6-16.9,9.8c-1.4,0.8-1.4,2.2,0,3c5.9,3.4,11.9,6.9,17.8,10.3c1.4,0.8,3.8,0.8,5.2,0
			c5.6-3.3,11.3-6.6,16.9-9.8c1.4-0.8,1.4-2.2,0-3c-5.9-3.4-11.9-6.9-17.8-10.3C1657.4,762.9,1655.1,762.9,1653.7,763.7"/>
		
			<path fill="#FDEEE0" stroke="#141843" stroke-width="6" stroke-linecap="round" stroke-linejoin="round" stroke-miterlimit="10" d="
			M1656.5,706c-5.9-3.4-11.9-6.9-17.8-10.3c-1.4-0.8-3.8-0.8-5.2,0c-5.6,3.3-11.3,6.6-16.9,9.8c-1.4,0.8-1.4,2.2,0,3
			c5.9,3.4,11.9,6.9,17.8,10.3c1.4,0.8,3.8,0.8,5.2,0c5.6-3.3,11.3-6.6,16.9-9.8C1658,708.2,1657.9,706.8,1656.5,706"/>
		
			<path fill="#FDEEE0" stroke="#141843" stroke-width="6" stroke-linecap="round" stroke-linejoin="round" stroke-miterlimit="10" d="
			M1601.4,668.8c5.7-3.3,11.3-6.6,17-9.9c1.4-0.8,1.4-2.2,0-3c-5.9-3.4-11.9-6.9-17.8-10.3c-1.5-0.8-3.8-0.8-5.2,0
			c-5.7,3.3-11.3,6.6-17,9.9c-1.4,0.8-1.4,2.2,0,3c5.9,3.4,11.9,6.9,17.8,10.3C1597.6,669.7,1599.9,669.7,1601.4,668.8"/>
		
			<path fill="#FDEEE0" stroke="#141843" stroke-width="6" stroke-linecap="round" stroke-linejoin="round" stroke-miterlimit="10" d="
			M1679.5,801.3c1.4,0.8,3.8,0.8,5.2,0c5.6-3.3,11.3-6.6,16.9-9.8c1.4-0.8,1.4-2.2,0-3c-6-3.4-11.9-6.9-17.8-10.3
			c-1.4-0.8-3.8-0.8-5.2,0c-5.6,3.3-11.3,6.6-16.9,9.8c-1.4,0.8-1.4,2.2,0,3C1667.6,794.5,1673.6,797.9,1679.5,801.3"/>
		
			<path fill="#FDEEE0" stroke="#141843" stroke-width="6" stroke-linecap="round" stroke-linejoin="round" stroke-miterlimit="10" d="
			M1560.1,729.4c5.6-3.3,11.3-6.6,16.9-9.8c1.4-0.8,1.4-2.2,0-3c-6-3.4-11.9-6.9-17.8-10.3c-1.4-0.8-3.8-0.8-5.2,0
			c-5.6,3.3-11.3,6.6-16.9,9.8c-1.4,0.8-1.4,2.2,0,3c6,3.4,11.9,6.9,17.8,10.3C1556.3,730.2,1558.6,730.2,1560.1,729.4"/>
		
			<path fill="#FDEEE0" stroke="#141843" stroke-width="6" stroke-linecap="round" stroke-linejoin="round" stroke-miterlimit="10" d="
			M1815.9,823.7c6,3.4,11.9,6.9,17.8,10.3c1.4,0.8,3.8,0.8,5.2,0c5.6-3.3,11.3-6.6,16.9-9.8c1.4-0.8,1.4-2.2,0-3
			c-5.9-3.4-11.9-6.9-17.8-10.3c-1.4-0.8-3.8-0.8-5.2,0c-5.6,3.3-11.3,6.6-16.9,9.8C1814.5,821.5,1814.5,822.8,1815.9,823.7"/>
		
			<path fill="#FDEEE0" stroke="#141843" stroke-width="6" stroke-linecap="round" stroke-linejoin="round" stroke-miterlimit="10" d="
			M1706.4,734.7c-5.9-3.4-11.9-6.9-17.8-10.3c-1.5-0.8-3.8-0.8-5.2,0c-5.6,3.3-11.3,6.6-16.9,9.8c-1.4,0.8-1.4,2.2,0,3
			c5.9,3.4,11.9,6.9,17.8,10.3c1.4,0.8,3.8,0.8,5.2,0c5.6-3.3,11.3-6.6,16.9-9.8C1707.8,736.9,1707.8,735.6,1706.4,734.7"/>
		
			<path fill="#FDEEE0" stroke="#141843" stroke-width="6" stroke-linecap="round" stroke-linejoin="round" stroke-miterlimit="10" d="
			M1825.7,798.4c5.7-3.3,11.3-6.6,17-9.9c1.4-0.8,1.4-2.2,0-3c-5.9-3.4-11.9-6.9-17.8-10.3c-1.5-0.8-3.8-0.8-5.2,0
			c-5.7,3.3-11.3,6.6-17,9.9c-1.4,0.8-1.4,2.2,0,3c5.9,3.4,11.9,6.9,17.8,10.3C1822,799.2,1824.3,799.2,1825.7,798.4"/>
		
			<path fill="#FDEEE0" stroke="#141843" stroke-width="6" stroke-linecap="round" stroke-linejoin="round" stroke-miterlimit="10" d="
			M1651.2,697.6c5.7-3.3,11.3-6.6,17-9.9c1.4-0.8,1.4-2.2,0-3c-5.9-3.4-11.9-6.9-17.8-10.3c-1.4-0.8-3.8-0.8-5.2,0
			c-5.7,3.3-11.3,6.6-17,9.9c-1.4,0.8-1.4,2.2,0,3c5.9,3.4,11.9,6.9,17.8,10.3C1647.4,698.5,1649.8,698.5,1651.2,697.6"/>
		
			<path fill="#FDEEE0" stroke="#141843" stroke-width="6" stroke-linecap="round" stroke-linejoin="round" stroke-miterlimit="10" d="
			M1741.1,861.8c5.7-3.3,11.3-6.6,17-9.9c1.4-0.8,1.4-2.2,0-3c-5.9-3.4-11.9-6.9-17.8-10.3c-1.4-0.8-3.8-0.8-5.2,0
			c-5.7,3.3-11.3,6.6-17,9.9c-1.4,0.8-1.4,2.2,0,3c6,3.4,11.9,6.9,17.8,10.3C1737.4,862.7,1739.7,862.7,1741.1,861.8"/>
		
			<path fill="#FDEEE0" stroke="#141843" stroke-width="6" stroke-linecap="round" stroke-linejoin="round" stroke-miterlimit="10" d="
			M1558.6,652.5c-5.6,3.3-11.3,6.6-16.9,9.8c-1.4,0.8-1.4,2.2,0,3c5.9,3.4,11.9,6.9,17.8,10.3c1.5,0.8,3.8,0.8,5.2,0
			c5.6-3.3,11.3-6.6,16.9-9.8c1.4-0.8,1.4-2.2,0-3c-5.9-3.4-11.9-6.9-17.8-10.3C1562.4,651.6,1560.1,651.6,1558.6,652.5"/>
		
			<path fill="#FDEEE0" stroke="#141843" stroke-width="6" stroke-linecap="round" stroke-linejoin="round" stroke-miterlimit="10" d="
			M1806.1,792.3c-5.9-3.4-11.9-6.9-17.8-10.3c-1.5-0.8-3.8-0.8-5.2,0c-5.6,3.3-11.3,6.6-16.9,9.8c-1.4,0.8-1.4,2.2,0,3
			c5.9,3.4,11.9,6.9,17.8,10.3c1.4,0.8,3.8,0.8,5.2,0c5.6-3.3,11.3-6.6,16.9-9.8C1807.5,794.5,1807.5,793.2,1806.1,792.3"/>
		
			<path fill="#FDEEE0" stroke="#141843" stroke-width="6" stroke-linecap="round" stroke-linejoin="round" stroke-miterlimit="10" d="
			M1756.2,763.5c-5.9-3.4-11.9-6.9-17.8-10.3c-1.4-0.8-3.8-0.8-5.2,0c-5.6,3.3-11.3,6.6-16.9,9.8c-1.4,0.8-1.4,2.2,0,3
			c5.9,3.4,11.9,6.9,17.8,10.3c1.5,0.8,3.8,0.8,5.2,0c5.6-3.3,11.3-6.6,16.9-9.8C1757.7,765.7,1757.7,764.4,1756.2,763.5"/>
		
			<path fill="#FDEEE0" stroke="#141843" stroke-width="6" stroke-linecap="round" stroke-linejoin="round" stroke-miterlimit="10" d="
			M1750.9,755.2c5.7-3.3,11.3-6.6,17-9.9c1.4-0.8,1.4-2.2,0-3c-5.9-3.4-11.9-6.9-17.8-10.3c-1.4-0.8-3.8-0.8-5.2,0
			c-5.7,3.3-11.3,6.6-17,9.9c-1.4,0.8-1.4,2.2,0,3c5.9,3.4,11.9,6.9,17.8,10.3C1747.2,756,1749.5,756,1750.9,755.2"/>
		
			<path fill="#FDEEE0" stroke="#141843" stroke-width="6" stroke-linecap="round" stroke-linejoin="round" stroke-miterlimit="10" d="
			M1701.1,726.4c5.7-3.3,11.3-6.6,17-9.9c1.4-0.8,1.4-2.2,0-3c-5.9-3.4-11.9-6.9-17.8-10.3c-1.5-0.8-3.8-0.8-5.2,0
			c-5.7,3.3-11.3,6.6-17,9.9c-1.4,0.8-1.4,2.2,0,3c5.9,3.4,11.9,6.9,17.8,10.3C1697.3,727.2,1699.6,727.2,1701.1,726.4"/>
		
			<path fill="#FDEEE0" stroke="#141843" stroke-width="6" stroke-linecap="round" stroke-linejoin="round" stroke-miterlimit="10" d="
			M1728.4,806.9c-5.6,3.3-11.3,6.6-16.9,9.8c-1.4,0.8-1.4,2.2,0,3c5.9,3.4,11.9,6.9,17.8,10.3c1.5,0.8,3.8,0.8,5.2,0
			c5.6-3.3,11.3-6.6,16.9-9.8c1.4-0.8,1.4-2.2,0-3c-5.9-3.4-11.9-6.9-17.8-10.3C1732.2,806.1,1729.9,806.1,1728.4,806.9"/>
		
			<path fill="#FDEEE0" stroke="#141843" stroke-width="6" stroke-linecap="round" stroke-linejoin="round" stroke-miterlimit="10" d="
			M1603.8,735c-5.6,3.3-11.3,6.6-16.9,9.8c-1.4,0.8-1.4,2.2,0,3c5.9,3.4,11.9,6.9,17.8,10.3c1.5,0.8,3.8,0.8,5.2,0
			c5.6-3.3,11.3-6.6,16.9-9.8c1.4-0.8,1.4-2.2,0-3c-5.9-3.4-11.9-6.9-17.8-10.3C1607.6,734.1,1605.2,734.1,1603.8,735"/>
		
			<path fill="#FDEEE0" stroke="#141843" stroke-width="6" stroke-linecap="round" stroke-linejoin="round" stroke-miterlimit="10" d="
			M1548.9,697.7c5.9,3.4,11.9,6.9,17.8,10.3c1.4,0.8,3.8,0.8,5.2,0c5.6-3.3,11.3-6.6,16.9-9.8c1.4-0.8,1.4-2.2,0-3
			c-5.9-3.4-11.9-6.9-17.8-10.3c-1.4-0.8-3.8-0.8-5.2,0c-5.7,3.3-11.3,6.6-16.9,9.8C1547.4,695.5,1547.4,696.8,1548.9,697.7"/>
		
			<path fill="#FDEEE0" stroke="#141843" stroke-width="6" stroke-linecap="round" stroke-linejoin="round" stroke-miterlimit="10" d="
			M1698.5,784c5.9,3.4,11.9,6.9,17.8,10.3c1.5,0.8,3.8,0.8,5.2,0c5.6-3.3,11.3-6.6,16.9-9.8c1.4-0.8,1.4-2.2,0-3
			c-5.9-3.4-11.9-6.9-17.8-10.3c-1.4-0.8-3.8-0.8-5.2,0c-5.7,3.3-11.3,6.6-16.9,9.8C1697,781.8,1697,783.2,1698.5,784"/>
		
			<path fill="#FDEEE0" stroke="#141843" stroke-width="6" stroke-linecap="round" stroke-linejoin="round" stroke-miterlimit="10" d="
			M1773.3,827.2c5.9,3.4,11.9,6.9,17.8,10.3c1.4,0.8,3.8,0.8,5.2,0c5.6-3.3,11.3-6.6,16.9-9.8c1.4-0.8,1.4-2.2,0-3
			c-5.9-3.4-11.9-6.9-17.8-10.3c-1.4-0.8-3.8-0.8-5.2,0c-5.6,3.3-11.3,6.6-16.9,9.8C1771.8,825,1771.8,826.4,1773.3,827.2"/>
		
			<path fill="#FDEEE0" stroke="#141843" stroke-width="6" stroke-linecap="round" stroke-linejoin="round" stroke-miterlimit="10" d="
			M1648.6,755.2c5.9,3.4,11.9,6.9,17.8,10.3c1.4,0.8,3.8,0.8,5.2,0c5.6-3.3,11.3-6.6,16.9-9.8c1.4-0.8,1.4-2.2,0-3
			c-5.9-3.4-11.9-6.9-17.8-10.3c-1.5-0.8-3.8-0.8-5.2,0c-5.7,3.3-11.3,6.6-16.9,9.8C1647.2,753,1647.2,754.4,1648.6,755.2"/>
		
			<path fill="#FDEEE0" stroke="#141843" stroke-width="6" stroke-linecap="round" stroke-linejoin="round" stroke-miterlimit="10" d="
			M1731.3,749.1c-5.9-3.4-11.9-6.9-17.8-10.3c-1.4-0.8-3.8-0.8-5.2,0c-5.6,3.3-11.3,6.6-16.9,9.8c-1.4,0.8-1.4,2.2,0,3
			c6,3.4,11.9,6.9,17.8,10.3c1.4,0.8,3.8,0.8,5.2,0c5.6-3.3,11.3-6.6,16.9-9.8C1732.8,751.3,1732.7,750,1731.3,749.1"/>
		
			<path fill="#FDEEE0" stroke="#141843" stroke-width="6" stroke-linecap="round" stroke-linejoin="round" stroke-miterlimit="10" d="
			M1606.6,677.2c-5.9-3.4-11.9-6.9-17.8-10.3c-1.5-0.8-3.8-0.8-5.2,0c-5.6,3.3-11.3,6.6-16.9,9.8c-1.4,0.8-1.4,2.2,0,3
			c5.9,3.4,11.9,6.9,17.8,10.3c1.5,0.8,3.8,0.8,5.2,0c5.6-3.3,11.3-6.6,16.9-9.8C1608.1,679.4,1608.1,678,1606.6,677.2"/>
		
			<path fill="#FDEEE0" stroke="#141843" stroke-width="6" stroke-linecap="round" stroke-linejoin="round" stroke-miterlimit="10" d="
			M1831,806.7c-5.9-3.4-11.9-6.9-17.8-10.3c-1.4-0.8-3.8-0.8-5.2,0c-5.6,3.3-11.3,6.6-16.9,9.8c-1.4,0.8-1.4,2.2,0,3
			c5.9,3.4,11.9,6.9,17.8,10.3c1.4,0.8,3.8,0.8,5.2,0c5.6-3.3,11.3-6.6,16.9-9.8C1832.5,808.9,1832.5,807.6,1831,806.7"/>
		
			<path fill="#FDEEE0" stroke="#141843" stroke-width="6" stroke-linecap="round" stroke-linejoin="round" stroke-miterlimit="10" d="
			M1676.2,712c5.7-3.3,11.3-6.6,17-9.9c1.4-0.8,1.4-2.2,0-3c-5.9-3.4-11.9-6.9-17.8-10.3c-1.5-0.8-3.8-0.8-5.2,0
			c-5.7,3.3-11.3,6.6-17,9.9c-1.4,0.8-1.4,2.2,0,3c5.9,3.4,11.9,6.9,17.8,10.3C1672.4,712.9,1674.7,712.9,1676.2,712"/>
		
			<path fill="#FDEEE0" stroke="#141843" stroke-width="6" stroke-linecap="round" stroke-linejoin="round" stroke-miterlimit="10" d="
			M1716.2,847.4c5.7-3.3,11.3-6.6,17-9.9c1.4-0.8,1.4-2.2,0-3c-6-3.4-11.9-6.9-17.8-10.3c-1.4-0.8-3.8-0.8-5.2,0
			c-5.7,3.3-11.3,6.6-17,9.9c-1.4,0.8-1.4,2.2,0,3c6,3.4,11.9,6.9,17.8,10.3C1712.4,848.3,1714.8,848.3,1716.2,847.4"/>
		
			<path fill="#FDEEE0" stroke="#141843" stroke-width="6" stroke-linecap="round" stroke-linejoin="round" stroke-miterlimit="10" d="
			M1553.4,644.1c5.9,3.4,11.9,6.9,17.8,10.3c1.5,0.8,3.8,0.8,5.2,0c5.7-3.3,11.3-6.6,17-9.9c1.4-0.8,1.4-2.2,0-3
			c-5.9-3.4-11.9-6.9-17.8-10.3c-1.5-0.8-3.8-0.8-5.2,0c-5.7,3.3-11.3,6.6-17,9.9C1551.9,641.9,1551.9,643.3,1553.4,644.1"/>
		
			<path fill="#FDEEE0" stroke="#141843" stroke-width="6" stroke-linecap="round" stroke-linejoin="round" stroke-miterlimit="10" d="
			M1545.4,616.9c-5.7,3.3-11.3,6.6-17,9.9c-1.4,0.8-1.4,2.2,0,3c5.9,3.4,11.9,6.9,17.8,10.3c1.4,0.8,3.8,0.8,5.2,0
			c5.7-3.3,11.3-6.6,17-9.9c1.4-0.8,1.4-2.2,0-3c-5.9-3.4-11.9-6.9-17.8-10.3C1549.1,616,1546.8,616,1545.4,616.9"/>
		
			<path fill="#FDEEE0" stroke="#141843" stroke-width="6" stroke-linecap="round" stroke-linejoin="round" stroke-miterlimit="10" d="
			M1775.9,769.6c5.7-3.3,11.3-6.6,17-9.9c1.4-0.8,1.4-2.2,0-3c-5.9-3.4-11.9-6.9-17.8-10.3c-1.4-0.8-3.8-0.8-5.2,0
			c-5.7,3.3-11.3,6.6-17,9.9c-1.4,0.8-1.4,2.2,0,3c5.9,3.4,11.9,6.9,17.8,10.3C1772.1,770.4,1774.4,770.4,1775.9,769.6"/>
		
			<path fill="#FDEEE0" stroke="#141843" stroke-width="6" stroke-linecap="round" stroke-linejoin="round" stroke-miterlimit="10" d="
			M1800.8,784c5.7-3.3,11.3-6.6,17-9.9c1.4-0.8,1.4-2.2,0-3c-5.9-3.4-11.9-6.9-17.8-10.3c-1.4-0.8-3.8-0.8-5.2,0
			c-5.7,3.3-11.3,6.6-17,9.9c-1.4,0.8-1.4,2.2,0,3c6,3.4,11.9,6.9,17.8,10.3C1797,784.8,1799.4,784.8,1800.8,784"/>
		
			<path fill="#FDEEE0" stroke="#141843" stroke-width="6" stroke-linecap="round" stroke-linejoin="round" stroke-miterlimit="10" d="
			M1598.7,726.4c5.9,3.4,11.9,6.9,17.8,10.3c1.5,0.8,3.8,0.8,5.2,0c5.6-3.3,11.3-6.6,16.9-9.8c1.4-0.8,1.4-2.2,0-3
			c-5.9-3.4-11.9-6.9-17.8-10.3c-1.4-0.8-3.8-0.8-5.2,0c-5.7,3.3-11.3,6.6-16.9,9.8C1597.3,724.2,1597.3,725.6,1598.7,726.4"/>
		
			<path fill="#FDEEE0" stroke="#141843" stroke-width="6" stroke-linecap="round" stroke-linejoin="round" stroke-miterlimit="10" d="
			M1863.8,848.3c5.6-3.3,11.3-6.6,16.9-9.8c1.4-0.8,1.4-2.2,0-3c-5.9-3.4-11.9-6.9-17.8-10.3c-1.5-0.8-3.8-0.8-5.2,0
			c-5.6,3.3-11.3,6.6-16.9,9.8c-1.4,0.8-1.4,2.2,0,3c5.9,3.4,11.9,6.9,17.8,10.3C1860,849.1,1862.4,849.1,1863.8,848.3"/>
		
			<path fill="#FDEEE0" stroke="#141843" stroke-width="6" stroke-linecap="round" stroke-linejoin="round" stroke-miterlimit="10" d="
			M1791,890.6c5.7-3.3,11.3-6.6,17-9.9c1.4-0.8,1.4-2.2,0-3c-5.9-3.4-11.9-6.9-17.8-10.3c-1.4-0.8-3.8-0.8-5.2,0
			c-5.7,3.3-11.3,6.6-17,9.9c-1.4,0.8-1.4,2.2,0,3c5.9,3.4,11.9,6.9,17.8,10.3C1787.2,891.5,1789.6,891.5,1791,890.6"/>
		
			<path fill="#FDEEE0" stroke="#141843" stroke-width="6" stroke-linecap="round" stroke-linejoin="round" stroke-miterlimit="10" d="
			M1591.6,694.1c5.9,3.4,11.9,6.9,17.8,10.3c1.4,0.8,3.8,0.8,5.2,0c5.6-3.3,11.3-6.6,16.9-9.8c1.4-0.8,1.4-2.2,0-3
			c-5.9-3.4-11.9-6.9-17.8-10.3c-1.4-0.8-3.8-0.8-5.2,0c-5.6,3.3-11.3,6.6-16.9,9.8C1590.1,691.9,1590.1,693.3,1591.6,694.1"/>
		
			<path fill="#FDEEE0" stroke="#141843" stroke-width="6" stroke-linecap="round" stroke-linejoin="round" stroke-miterlimit="10" d="
			M1681.4,720.4c-5.9-3.4-11.9-6.9-17.8-10.3c-1.5-0.8-3.8-0.8-5.2,0c-5.6,3.3-11.3,6.6-16.9,9.8c-1.4,0.8-1.4,2.2,0,3
			c5.9,3.4,11.9,6.9,17.8,10.3c1.5,0.8,3.8,0.8,5.2,0c5.6-3.3,11.3-6.6,16.9-9.8C1682.9,722.5,1682.9,721.2,1681.4,720.4"/>
		
			<path fill="#FDEEE0" stroke="#141843" stroke-width="6" stroke-linecap="round" stroke-linejoin="round" stroke-miterlimit="10" d="
			M1781.2,777.9c-5.9-3.4-11.9-6.9-17.8-10.3c-1.5-0.8-3.8-0.8-5.2,0c-5.6,3.3-11.3,6.6-16.9,9.8c-1.4,0.8-1.4,2.2,0,3
			c5.9,3.4,11.9,6.9,17.8,10.3c1.5,0.8,3.8,0.8,5.2,0c5.6-3.3,11.3-6.6,16.9-9.8C1782.6,780.1,1782.6,778.8,1781.2,777.9"/>
		
			<path fill="#FDEEE0" stroke="#141843" stroke-width="6" stroke-linecap="round" stroke-linejoin="round" stroke-miterlimit="10" d="
			M1603.2,669.9c-1.4,0.8-1.4,2.2,0,3c5.9,3.4,11.9,6.9,17.8,10.3c1.4,0.8,3.8,0.8,5.2,0c5.7-3.3,11.3-6.6,17-9.9
			c1.4-0.8,1.4-2.2,0-3c-5.9-3.4-11.9-6.9-17.8-10.3c-1.4-0.8-3.8-0.8-5.2,0C1614.5,663.3,1608.9,666.6,1603.2,669.9"/>
		
			<path fill="#FDEEE0" stroke="#141843" stroke-width="6" stroke-linecap="round" stroke-linejoin="round" stroke-miterlimit="10" d="
			M1850.7,812.8c5.7-3.3,11.3-6.6,17-9.9c1.4-0.8,1.4-2.2,0-3c-5.9-3.4-11.9-6.9-17.8-10.3c-1.4-0.8-3.8-0.8-5.2,0
			c-5.7,3.3-11.3,6.6-17,9.9c-1.4,0.8-1.4,2.2,0,3c5.9,3.4,11.9,6.9,17.8,10.3C1846.9,813.6,1849.2,813.6,1850.7,812.8"/>
		
			<path fill="#FDEEE0" stroke="#141843" stroke-width="6" stroke-linecap="round" stroke-linejoin="round" stroke-miterlimit="10" d="
			M1726,740.8c5.7-3.3,11.3-6.6,17-9.9c1.4-0.8,1.4-2.2,0-3c-5.9-3.4-11.9-6.9-17.8-10.3c-1.4-0.8-3.8-0.8-5.2,0
			c-5.7,3.3-11.3,6.6-17,9.9c-1.4,0.8-1.4,2.2,0,3c5.9,3.4,11.9,6.9,17.8,10.3C1722.2,741.6,1724.6,741.6,1726,740.8"/>
		
			<path fill="#FDEEE0" stroke="#141843" stroke-width="6" stroke-linecap="round" stroke-linejoin="round" stroke-miterlimit="10" d="
			M1766.1,876.2c5.7-3.3,11.3-6.6,17-9.9c1.4-0.8,1.4-2.2,0-3c-5.9-3.4-11.9-6.9-17.8-10.3c-1.4-0.8-3.8-0.8-5.2,0
			c-5.7,3.3-11.3,6.6-17,9.9c-1.4,0.8-1.4,2.2,0,3c5.9,3.4,11.9,6.9,17.8,10.3C1762.3,877.1,1764.6,877.1,1766.1,876.2"/>
		
			<path fill="#FDEEE0" stroke="#141843" stroke-width="6" stroke-linecap="round" stroke-linejoin="round" stroke-miterlimit="10" d="
			M1590.7,699.2c-5.6,3.3-11.3,6.6-16.9,9.8c-1.4,0.8-1.4,2.2,0,3c5.9,3.4,11.9,6.9,17.8,10.3c1.4,0.8,3.8,0.8,5.2,0
			c5.6-3.3,11.3-6.6,16.9-9.8c1.4-0.8,1.4-2.2,0-3c-5.9-3.4-11.9-6.9-17.8-10.3C1594.5,698.3,1592.2,698.3,1590.7,699.2"/>
		
			<path fill="#FDEEE0" stroke="#141843" stroke-width="6" stroke-linecap="round" stroke-linejoin="round" stroke-miterlimit="10" d="
			M1623.7,740.8c5.9,3.4,11.9,6.9,17.8,10.3c1.5,0.8,3.8,0.8,5.2,0c5.6-3.3,11.3-6.6,16.9-9.8c1.4-0.8,1.4-2.2,0-3
			c-5.9-3.4-11.9-6.9-17.8-10.3c-1.5-0.8-3.8-0.8-5.2,0c-5.7,3.3-11.3,6.6-16.9,9.8C1622.2,738.6,1622.2,740,1623.7,740.8"/>
		
			<path fill="#FDEEE0" stroke="#141843" stroke-width="6" stroke-linecap="round" stroke-linejoin="round" stroke-miterlimit="10" d="
			M1673.5,769.6c5.9,3.4,11.9,6.9,17.8,10.3c1.4,0.8,3.8,0.8,5.2,0c5.6-3.3,11.3-6.6,16.9-9.8c1.4-0.8,1.4-2.2,0-3
			c-5.9-3.4-11.9-6.9-17.8-10.3c-1.4-0.8-3.8-0.8-5.2,0c-5.7,3.3-11.3,6.6-16.9,9.8C1672.1,767.4,1672.1,768.8,1673.5,769.6"/>
		
			<path fill="#FDEEE0" stroke="#141843" stroke-width="6" stroke-linecap="round" stroke-linejoin="round" stroke-miterlimit="10" d="
			M1723.4,798.4c5.9,3.4,11.9,6.9,17.8,10.3c1.5,0.8,3.8,0.8,5.2,0c5.6-3.3,11.3-6.6,16.9-9.8c1.4-0.8,1.4-2.2,0-3
			c-5.9-3.4-11.9-6.9-17.8-10.3c-1.5-0.8-3.8-0.8-5.2,0c-5.7,3.3-11.3,6.6-16.9,9.8C1721.9,796.2,1722,797.6,1723.4,798.4"/>
		
			<path fill="#FDEEE0" stroke="#141843" stroke-width="6" stroke-linecap="round" stroke-linejoin="round" stroke-miterlimit="10" d="
			M1748.3,812.8c5.9,3.4,11.9,6.9,17.8,10.3c1.4,0.8,3.8,0.8,5.2,0c5.6-3.3,11.3-6.6,16.9-9.8c1.4-0.8,1.4-2.2,0-3
			c-5.9-3.4-11.9-6.9-17.8-10.3c-1.4-0.8-3.8-0.8-5.2,0c-5.7,3.3-11.3,6.6-16.9,9.8C1746.9,810.6,1746.9,812,1748.3,812.8"/>
		
			<path fill="#FDEEE0" stroke="#141843" stroke-width="6" stroke-linecap="round" stroke-linejoin="round" stroke-miterlimit="10" d="
			M1540.9,670.4c-5.7,3.3-11.3,6.6-16.9,9.8c-1.4,0.8-1.4,2.2,0,3c5.9,3.4,11.9,6.9,17.8,10.3c1.5,0.8,3.8,0.8,5.2,0
			c5.6-3.3,11.3-6.6,16.9-9.8c1.4-0.8,1.4-2.2,0-3c-5.9-3.4-11.9-6.9-17.8-10.3C1544.7,669.5,1542.3,669.5,1540.9,670.4"/>
		
			<path fill="#FDEEE0" stroke="#141843" stroke-width="6" stroke-linecap="round" stroke-linejoin="round" stroke-miterlimit="10" d="
			M1529,691.8c-5.6,3.3-11.3,6.6-16.9,9.8c-1.4,0.8-1.4,2.2,0,3c5.9,3.4,11.7,6.8,17.6,10.1c1.4,0.8,3.8,0.8,5.2,0
			c5.6-3.3,11.3-6.6,16.9-9.8c1.3-0.8,1.5-2,0.3-2.9c-5.9-3.4-11.9-6.9-17.8-10.3C1532.8,690.9,1530.4,690.9,1529,691.8"/>
		
			<path fill="#FDEEE0" stroke="#141843" stroke-width="6" stroke-linecap="round" stroke-linejoin="round" stroke-miterlimit="10" d="
			M1479.2,710.6c5.7-3.3,11.3-6.6,17-9.9c1.4-0.8,1.4-2.2,0-3c-5.9-3.4-11.7-6.8-17.6-10.1c-1.5-0.8-3.8-0.8-5.2,0
			c-5.7,3.3-11.3,6.6-17,9.9c-1.4,0.8-1.4,2.2,0,3c5.9,3.4,11.7,6.8,17.6,10.1C1475.4,711.4,1477.8,711.4,1479.2,710.6"/>
		
			<path fill="#FDEEE0" stroke="#141843" stroke-width="6" stroke-linecap="round" stroke-linejoin="round" stroke-miterlimit="10" d="
			M1504.2,725c5.7-3.3,11.3-6.6,17-9.9c1.4-0.8,1.4-2.2,0-3c-5.9-3.4-11.7-6.8-17.6-10.1c-1.5-0.8-3.8-0.8-5.2,0
			c-5.7,3.3-11.3,6.6-17,9.9c-1.4,0.8-1.4,2.2,0,3c5.9,3.4,11.7,6.8,17.6,10.1C1500.4,725.8,1502.7,725.8,1504.2,725"/>
		
			<path fill="#FDEEE0" stroke="#141843" stroke-width="6" stroke-linecap="round" stroke-linejoin="round" stroke-miterlimit="10" d="
			M1454.3,696.2c5.7-3.3,11.3-6.6,17-9.9c1.4-0.8,1.4-2.2,0-3c-5.9-3.4-11.7-6.8-17.6-10.1c-1.4-0.8-3.8-0.8-5.2,0
			c-5.7,3.3-11.3,6.6-17,9.9c-1.4,0.8-1.4,2.2,0,3c5.9,3.4,11.7,6.8,17.6,10.1C1450.5,697,1452.9,697,1454.3,696.2"/>
	</g>
</g>
</svg>