<?xml version="1.0" encoding="utf-8"?>
<!-- Generator: Adobe Illustrator 22.0.1, SVG Export Plug-In . SVG Version: 6.00 Build 0)  -->
<svg version="1.0" id="Ebene_1" xmlns="http://www.w3.org/2000/svg" xmlns:xlink="http://www.w3.org/1999/xlink" x="0px" y="0px"
	 viewBox="0 0 1920 994" enable-background="new 0 0 1920 994" xml:space="preserve">
<rect x="-3.7" y="-1" fill="#FBE3CC" width="1921.9" height="997"/>
<polygon fill="#141843" points="1253,172.4 -7,899.1 -7.6,-5 1260.5,-2.3 "/>
<polygon fill="#FF6167" points="1249.2,-2.3 1251.5,183 1924.2,561.3 1922.6,-1.7 "/>
<rect x="1159.9" y="43.5" fill="none" width="699.7" height="833.3"/>
<g>
	<path fill="#141843" d="M2093.7,655.6c-0.9,0-1.8-0.2-2.6-0.7l-843.6-472.8c-2.5-1.4-3.4-4.6-2-7.2c1.4-2.5,4.6-3.4,7.2-2
		l843.6,472.8c2.5,1.4,3.4,4.6,2,7.2C2097.4,654.6,2095.6,655.6,2093.7,655.6z"/>
</g>
<g opacity="0.25">
	<polygon fill="#BCAA99" points="1903.1,549.5 1417.1,831.9 927.9,549.5 1413.9,267 	"/>
</g>
<g>
	
		<polygon fill="#BEB3A8" stroke="#141843" stroke-width="10" stroke-linecap="round" stroke-linejoin="round" stroke-miterlimit="10" points="
		1852.3,276.6 1851.7,516 1414.9,264.4 1415.6,25 	"/>
</g>
<g>
	
		<polygon fill="#E5E1DC" stroke="#141843" stroke-width="10" stroke-linecap="round" stroke-linejoin="round" stroke-miterlimit="10" points="
		1415.4,25.5 1414.7,265.4 980.8,517.5 981.5,277.6 	"/>
</g>
<g>
	<g>
		<polygon fill="#FBE3CC" points="1474.2,338.5 1708,471.4 1380.7,662.9 1146.9,531.3 		"/>
		<path fill="#141843" d="M1380.7,668.1c-0.9,0-1.8-0.2-2.6-0.7l-233.8-131.5c-1.6-0.9-2.7-2.6-2.7-4.5c0-1.9,1-3.6,2.6-4.6
			l327.3-192.9c1.6-1,3.6-1,5.3,0l233.8,133c1.6,0.9,2.7,2.7,2.7,4.5c0,1.9-1,3.6-2.6,4.6l-327.3,191.4
			C1382.5,667.9,1381.6,668.1,1380.7,668.1z M1157.4,531.2l223.2,125.6l316.9-185.3l-223.2-127L1157.4,531.2z"/>
	</g>
	<g>
		<polygon fill="#FF6167" points="1474.2,315.7 1708,448.7 1380.7,640.1 1146.9,508.6 		"/>
		<path fill="#141843" d="M1380.7,645.4c-0.9,0-1.8-0.2-2.6-0.7l-233.8-131.5c-1.6-0.9-2.7-2.6-2.7-4.5c0-1.9,1-3.6,2.6-4.6
			l327.3-192.9c1.6-1,3.6-1,5.3,0l233.8,133c1.6,0.9,2.6,2.7,2.7,4.5c0,1.9-1,3.6-2.6,4.6l-327.3,191.4
			C1382.5,645.2,1381.6,645.4,1380.7,645.4z M1157.4,508.5l223.2,125.6l316.8-185.3l-223.2-127L1157.4,508.5z"/>
	</g>
	<g>
		<polygon fill="#FBE3CC" points="1474.2,293 1708,426 1380.7,617.4 1146.9,485.9 		"/>
		<path fill="#141843" d="M1380.7,622.7c-0.9,0-1.8-0.2-2.6-0.7l-233.8-131.5c-1.6-0.9-2.7-2.7-2.7-4.5c0-1.9,1-3.6,2.6-4.6
			l327.3-192.9c1.6-1,3.6-1,5.3,0l233.8,133c1.6,0.9,2.7,2.7,2.7,4.5c0,1.9-1,3.6-2.6,4.6L1383.3,622
			C1382.5,622.4,1381.6,622.7,1380.7,622.7z M1157.4,485.8l223.2,125.6l316.9-185.3l-223.2-127L1157.4,485.8z"/>
	</g>
	<g>
		<polygon fill="#FF6167" points="1474.2,270.3 1708,403.3 1380.7,594.7 1146.9,463.2 		"/>
		<path fill="#141843" d="M1380.7,600c-0.9,0-1.8-0.2-2.6-0.7l-233.8-131.5c-1.6-0.9-2.7-2.6-2.7-4.5c0-1.9,1-3.6,2.6-4.6
			l327.3-192.9c1.6-1,3.6-1,5.3,0l233.8,133c1.6,0.9,2.7,2.7,2.7,4.5c0,1.9-1,3.6-2.6,4.6l-327.3,191.4
			C1382.5,599.7,1381.6,600,1380.7,600z M1157.4,463.1l223.2,125.6l316.9-185.3l-223.2-127L1157.4,463.1z"/>
	</g>
	<g>
		<polygon fill="#FBE3CC" points="1474.2,247.6 1708,380.6 1380.7,572 1146.9,440.5 		"/>
		<path fill="#141843" d="M1380.7,577.3c-0.9,0-1.8-0.2-2.6-0.7l-233.8-131.5c-1.6-0.9-2.7-2.6-2.7-4.5c0-1.9,1-3.6,2.6-4.6
			l327.3-192.9c1.6-1,3.6-1,5.3,0l233.8,133c1.6,0.9,2.7,2.7,2.7,4.5c0,1.9-1,3.6-2.6,4.6l-327.3,191.4
			C1382.5,577,1381.6,577.3,1380.7,577.3z M1157.4,440.4l223.2,125.6l316.9-185.3l-223.2-127L1157.4,440.4z"/>
	</g>
	<g>
		<polygon fill="#FF6167" points="1474.2,224.9 1708,357.9 1380.7,549.3 1146.9,417.8 		"/>
		<path fill="#141843" d="M1380.7,554.5c-0.9,0-1.8-0.2-2.6-0.7l-233.8-131.5c-1.6-0.9-2.7-2.6-2.7-4.5c0-1.9,1-3.6,2.6-4.6
			l327.3-192.9c1.6-1,3.6-1,5.3,0l233.8,133c1.6,0.9,2.7,2.7,2.7,4.5c0,1.9-1,3.6-2.6,4.6l-327.3,191.4
			C1382.5,554.3,1381.6,554.5,1380.7,554.5z M1157.4,417.7l223.2,125.6l316.9-185.3l-223.2-127L1157.4,417.7z"/>
	</g>
	<g>
		<polygon fill="#FBE3CC" points="1474.2,202.2 1708,335.1 1380.7,526.6 1146.9,395 		"/>
		<path fill="#141843" d="M1380.7,531.8c-0.9,0-1.8-0.2-2.6-0.7l-233.8-131.5c-1.6-0.9-2.7-2.7-2.7-4.5c0-1.9,1-3.6,2.6-4.6
			l327.3-192.9c1.6-1,3.6-1,5.3,0l233.8,133c1.6,0.9,2.7,2.7,2.7,4.5c0,1.9-1,3.6-2.6,4.6l-327.3,191.4
			C1382.5,531.6,1381.6,531.8,1380.7,531.8z M1157.4,394.9l223.2,125.6l316.9-185.3l-223.2-127L1157.4,394.9z"/>
	</g>
	<g>
		<polygon fill="#FF6167" points="1474.2,179.4 1708,312.4 1380.7,503.8 1146.9,372.3 		"/>
		<path fill="#141843" d="M1380.7,509.1c-0.9,0-1.8-0.2-2.6-0.7l-233.8-131.5c-1.6-0.9-2.7-2.6-2.7-4.5c0-1.9,1-3.6,2.6-4.6
			l327.3-192.9c1.6-1,3.6-1,5.3,0l233.8,133c1.6,0.9,2.7,2.7,2.7,4.5c0,1.9-1,3.6-2.6,4.6l-327.3,191.4
			C1382.5,508.9,1381.6,509.1,1380.7,509.1z M1157.4,372.2l223.2,125.6l316.9-185.3l-223.2-127L1157.4,372.2z"/>
	</g>
	<g>
		<polygon fill="#FBE3CC" points="1474.2,156.7 1708,289.7 1380.7,481.1 1146.9,349.6 		"/>
		<path fill="#141843" d="M1380.7,486.4c-0.9,0-1.8-0.2-2.6-0.7l-233.8-131.5c-1.6-0.9-2.7-2.6-2.7-4.5c0-1.9,1-3.6,2.6-4.6
			l327.3-192.9c1.6-1,3.6-1,5.3,0l233.8,133c1.6,0.9,2.6,2.7,2.7,4.5c0,1.9-1,3.6-2.6,4.6l-327.3,191.4
			C1382.5,486.1,1381.6,486.4,1380.7,486.4z M1157.4,349.5l223.2,125.6l316.8-185.3l-223.2-127L1157.4,349.5z"/>
	</g>
	<g>
		<polygon fill="#FF6167" points="1474.2,134 1708,267 1380.7,458.4 1146.9,326.9 		"/>
		<path fill="#141843" d="M1380.7,463.7c-0.9,0-1.8-0.2-2.6-0.7l-233.8-131.5c-1.6-0.9-2.7-2.6-2.7-4.5c0-1.9,1-3.6,2.6-4.6
			l327.3-192.9c1.6-1,3.6-1,5.3,0l233.8,133c1.6,0.9,2.6,2.7,2.7,4.5c0,1.9-1,3.6-2.6,4.6L1383.3,463
			C1382.5,463.4,1381.6,463.7,1380.7,463.7z M1157.4,326.8l223.2,125.6L1697.5,267l-223.2-127L1157.4,326.8z"/>
	</g>
	<g>
		<polygon fill="#FBE3CC" points="1474.2,111.3 1708,244.3 1380.7,435.7 1146.9,304.2 		"/>
		<path fill="#141843" d="M1380.7,441c-0.9,0-1.8-0.2-2.6-0.7l-233.8-131.5c-1.6-0.9-2.7-2.7-2.7-4.5c0-1.9,1-3.6,2.6-4.6
			l327.3-192.9c1.6-1,3.6-1,5.3,0l233.8,133c1.6,0.9,2.7,2.7,2.7,4.5c0,1.9-1,3.6-2.6,4.6l-327.3,191.4
			C1382.5,440.7,1381.6,441,1380.7,441z M1157.4,304.1l223.2,125.6l316.9-185.3l-223.2-127L1157.4,304.1z"/>
	</g>
	<g>
		<polygon fill="#FBE3CC" points="1474.2,88.6 1708,221.6 1380.7,413 1146.9,281.5 		"/>
		<path fill="#141843" d="M1380.7,418.2c-0.9,0-1.8-0.2-2.6-0.7L1144.3,286c-1.6-0.9-2.7-2.6-2.7-4.5c0-1.9,1-3.6,2.6-4.6L1471.5,84
			c1.6-1,3.6-1,5.3,0l233.8,133c1.6,0.9,2.7,2.7,2.7,4.5c0,1.9-1,3.6-2.6,4.6l-327.3,191.4C1382.5,418,1381.6,418.2,1380.7,418.2z
			 M1157.4,281.4l223.2,125.6l316.9-185.3l-223.2-127L1157.4,281.4z"/>
	</g>
	<g>
		<path fill="#FFFFFF" d="M1322.3,377l125.6-4.3c0,0-45-8.6-64.4-53.1C1383.4,319.5,1363,366.8,1322.3,377z"/>
		<path fill="#141843" d="M1322.3,384.8c-2.6,0-4.8-3.2-5.2-5.8c-0.4-2.7,1.3-5.8,3.9-6.5c37.8-9.4,57.4-53.1,57.6-53.6
			c0.8-1.9,2.7-2.3,4.8-2.3c0,0,0,0,0,0c2.1,0,4,0.1,4.8,2c18.1,41.4,60.2,49.4,60.6,49.5c2.6,0.5,4.5,2.6,4.3,5.3
			c-0.2,2.7-2.4,3.3-5.1,3.4l-125.6,2.9C1322.4,384.8,1322.3,384.8,1322.3,384.8z M1383.4,331.1c-6,10.6-17.7,27.7-35.1,39.7
			l73.6-2.5C1409.1,361.4,1394.1,349.9,1383.4,331.1z"/>
	</g>
	<g>
		<g>
			<path fill="#141843" d="M1639.4,240.6c-0.9,0-1.8-0.2-2.6-0.7l-185.4-104.3c-2.5-1.4-3.4-4.6-2-7.2c1.4-2.5,4.6-3.4,7.2-2
				L1642,230.8c2.5,1.4,3.4,4.6,2,7.2C1643.1,239.7,1641.3,240.6,1639.4,240.6z"/>
		</g>
		<g>
			<path fill="#141843" d="M1614.2,259.6c-0.9,0-1.8-0.2-2.6-0.7l-185.4-104.3c-2.5-1.4-3.4-4.6-2-7.2c1.4-2.5,4.6-3.4,7.2-2
				l185.4,104.3c2.5,1.4,3.4,4.6,2,7.2C1617.8,258.6,1616,259.6,1614.2,259.6z"/>
		</g>
		<g>
			<path fill="#141843" d="M1584.7,272.3c-0.9,0-1.8-0.2-2.6-0.7l-185.4-104.3c-2.5-1.4-3.4-4.6-2-7.2c1.4-2.5,4.6-3.4,7.2-2
				l185.4,104.3c2.5,1.4,3.4,4.6,2,7.2C1588.3,271.3,1586.5,272.3,1584.7,272.3z"/>
		</g>
		<g>
			<path fill="#141843" d="M1557.3,289.1c-0.9,0-1.8-0.2-2.6-0.7l-185.4-104.3c-2.5-1.4-3.4-4.6-2-7.2c1.4-2.5,4.6-3.4,7.2-2
				l185.4,104.3c2.5,1.4,3.4,4.6,2,7.2C1560.9,288.1,1559.1,289.1,1557.3,289.1z"/>
		</g>
		<g>
			<path fill="#141843" d="M1525.7,306c-0.9,0-1.8-0.2-2.6-0.7L1337.7,201c-2.5-1.4-3.4-4.6-2-7.2c1.4-2.5,4.6-3.4,7.2-2
				l185.4,104.3c2.5,1.4,3.4,4.6,2,7.2C1529.3,305,1527.5,306,1525.7,306z"/>
		</g>
		<g>
			<path fill="#141843" d="M1498.3,320.7c-0.9,0-1.8-0.2-2.6-0.7l-185.4-104.3c-2.5-1.4-3.4-4.6-2-7.2c1.4-2.5,4.6-3.4,7.2-2
				l185.4,104.3c2.5,1.4,3.4,4.6,2,7.2C1501.9,319.8,1500.1,320.7,1498.3,320.7z"/>
		</g>
		<g>
			<path fill="#141843" d="M1470.9,337.6c-0.9,0-1.8-0.2-2.6-0.7l-185.4-104.3c-2.5-1.4-3.4-4.6-2-7.2c1.4-2.5,4.6-3.4,7.2-2
				l185.4,104.3c2.5,1.4,3.4,4.6,2,7.2C1474.5,336.6,1472.7,337.6,1470.9,337.6z"/>
		</g>
		<g>
			<path fill="#141843" d="M1445.6,350.2c-0.9,0-1.8-0.2-2.6-0.7l-185.4-104.3c-2.5-1.4-3.4-4.6-2-7.2c1.4-2.5,4.6-3.4,7.2-2
				l185.4,104.3c2.5,1.4,3.4,4.6,2,7.2C1449.2,349.3,1447.4,350.2,1445.6,350.2z"/>
		</g>
		<g>
			<path fill="#141843" d="M1302.3,304.9c-0.9,0-1.9-0.2-2.7-0.8L1230,262c-2.5-1.5-3.3-4.7-1.8-7.2c1.5-2.5,4.7-3.3,7.2-1.8
				l69.5,42.1c2.5,1.5,3.3,4.7,1.8,7.2C1305.8,304,1304.1,304.9,1302.3,304.9z"/>
		</g>
	</g>
	<polygon fill="#FBE3CC" points="1332.3,379.8 1431.1,377.2 1380.6,406.9 	"/>
</g>
<g>
	
		<polygon fill="#FFFFFF" stroke="#141843" stroke-width="10" stroke-linecap="round" stroke-linejoin="round" stroke-miterlimit="10" points="
		1416.9,528.3 1416.2,768.2 979.5,516.1 980.2,276.2 	"/>
</g>
<g>
	
		<polygon fill="#FDEEE0" stroke="#141843" stroke-width="10" stroke-linecap="round" stroke-linejoin="round" stroke-miterlimit="10" points="
		1850.8,276.2 1850.1,516.1 1416.2,768.2 1416.9,528.3 	"/>
</g>
<g>
	<g enable-background="new    ">
		<g>
			<g>
				<path fill="#FDF4EB" stroke="#141843" stroke-width="3" stroke-miterlimit="10" d="M1156.9,490.2c17.6,10.2,31.9,34.9,31.8,55.2
					s-14.4,28.5-32.1,18.3c-17.6-10.2-31.9-34.9-31.9-55.2C1124.9,488.2,1139.3,480,1156.9,490.2z"/>
				<path fill="#141843" stroke="#141843" stroke-width="3" stroke-miterlimit="10" d="M1171.1,571.6c-5,0-10.5-1.6-16.1-4.9
					c-18.6-10.7-33.7-36.9-33.6-58.2c0-11.1,4-19.4,11.1-23.5c7.2-4.1,16.5-3.3,26.2,2.3c18.6,10.7,33.7,36.8,33.6,58.2
					c0,11.1-4,19.4-11.1,23.6C1178.1,570.7,1174.7,571.6,1171.1,571.6z M1142.6,489.3c-2.4,0-4.7,0.6-6.6,1.7
					c-4.9,2.8-7.6,9-7.6,17.5c-0.1,19.1,13.5,42.5,30.1,52.1c7.4,4.3,14.2,5.1,19.2,2.3c4.9-2.8,7.6-9,7.6-17.5
					c0.1-19.1-13.4-42.5-30.1-52.1C1150.7,490.6,1146.4,489.3,1142.6,489.3z"/>
			</g>
		</g>
		<g>
			<path fill="#FBE3CC" stroke="#141843" stroke-width="3" stroke-miterlimit="10" d="M1179.5,565.9l21.2-12.3
				c0.5-0.3,0.9-0.6,1.4-0.9c0.1-0.1,0.2-0.2,0.3-0.2c0.4-0.3,0.9-0.7,1.3-1.1c0,0,0.1-0.1,0.1-0.1c0.4-0.4,0.7-0.8,1.1-1.2
				c0.1-0.1,0.2-0.2,0.3-0.3c0.4-0.5,0.7-0.9,1-1.4c0,0,0,0,0,0c0,0,0-0.1,0.1-0.1c0.4-0.6,0.8-1.3,1.1-2c0,0,0-0.1,0.1-0.1
				c0,0,0,0,0-0.1c0.2-0.5,0.5-1.1,0.7-1.6c0,0,0-0.1,0.1-0.1c0-0.1,0.1-0.3,0.1-0.4c0.1-0.3,0.2-0.7,0.3-1c0-0.1,0.1-0.2,0.1-0.3
				c0-0.1,0.1-0.3,0.1-0.4c0.1-0.3,0.2-0.6,0.2-0.9c0-0.1,0.1-0.2,0.1-0.4c0-0.1,0.1-0.3,0.1-0.4c0.1-0.3,0.1-0.5,0.2-0.8
				c0-0.1,0.1-0.3,0.1-0.4c0-0.2,0-0.3,0.1-0.5c0-0.2,0.1-0.5,0.1-0.7c0-0.1,0-0.2,0.1-0.4c0-0.2,0-0.4,0.1-0.6c0-0.2,0-0.4,0.1-0.7
				c0-0.1,0-0.2,0-0.3c0-0.3,0-0.6,0.1-0.9c0-0.2,0-0.3,0-0.5c0,0,0-0.1,0-0.1c0-0.5,0-1,0-1.5c0,0,0-0.1,0-0.1c0-0.5,0-1,0-1.4
				c0-0.5,0-1-0.1-1.5c0-0.2,0-0.5-0.1-0.7c0-0.1,0-0.2,0-0.3c0-0.2,0-0.4,0-0.5c0-0.5-0.1-1-0.2-1.6c-0.1-0.5-0.1-1.1-0.2-1.6
				c0,0,0,0,0,0c0,0,0,0,0-0.1c-0.1-0.5-0.2-1-0.3-1.5c-0.1-0.6-0.2-1.1-0.3-1.7c0-0.2-0.1-0.4-0.1-0.6c0-0.1-0.1-0.2-0.1-0.3
				c-0.1-0.2-0.1-0.5-0.2-0.7c-0.1-0.6-0.3-1.1-0.4-1.7c-0.1-0.4-0.2-0.8-0.4-1.2c0-0.1,0-0.2-0.1-0.2c0-0.1,0-0.1-0.1-0.2
				c-0.2-0.6-0.3-1.1-0.5-1.7c-0.2-0.5-0.4-1.1-0.6-1.6c0-0.1-0.1-0.2-0.1-0.3c0-0.1-0.1-0.2-0.1-0.2c-0.1-0.3-0.3-0.7-0.4-1
				c-0.2-0.5-0.4-1-0.6-1.6c-0.2-0.4-0.3-0.7-0.5-1.1c0-0.1-0.1-0.1-0.1-0.2c0-0.1-0.1-0.1-0.1-0.2c-0.2-0.5-0.5-1-0.7-1.5
				c-0.3-0.6-0.5-1.1-0.8-1.7c0-0.1-0.1-0.2-0.1-0.3c-0.1-0.1-0.1-0.2-0.2-0.3c-0.2-0.4-0.5-0.9-0.7-1.3c-0.3-0.6-0.6-1.1-0.9-1.6
				c-0.2-0.3-0.3-0.6-0.5-0.8c-0.1-0.1-0.1-0.2-0.2-0.3c-0.3-0.5-0.6-0.9-0.9-1.4c-0.4-0.7-0.8-1.4-1.3-2c-0.1-0.1-0.1-0.2-0.2-0.3
				c-0.7-1-1.3-1.9-2-2.9c0,0,0,0,0,0c0,0,0,0,0,0c-0.5-0.6-0.9-1.3-1.4-1.9c-0.4-0.5-0.8-1-1.2-1.5c0,0,0,0,0,0c0,0,0,0,0,0
				c-0.4-0.5-0.8-1-1.2-1.4c-0.4-0.5-0.8-0.9-1.2-1.4c-0.1-0.1-0.1-0.1-0.2-0.2c-0.1-0.1-0.1-0.2-0.2-0.2c-0.3-0.3-0.6-0.6-0.9-0.9
				c-0.4-0.5-0.9-0.9-1.3-1.3c-0.1-0.1-0.3-0.3-0.4-0.4c-0.1-0.1-0.2-0.2-0.3-0.3c-0.2-0.2-0.4-0.4-0.7-0.6
				c-0.5-0.4-0.9-0.8-1.4-1.2c-0.2-0.2-0.4-0.3-0.6-0.5c-0.1-0.1-0.2-0.2-0.3-0.3c-0.2-0.1-0.3-0.3-0.5-0.4
				c-0.5-0.4-0.9-0.7-1.4-1.1c-0.3-0.3-0.7-0.5-1-0.7c-0.1,0-0.1-0.1-0.2-0.1c-0.1,0-0.1-0.1-0.2-0.1c-0.4-0.3-0.9-0.6-1.4-0.9
				c-0.4-0.3-0.9-0.6-1.4-0.8c-0.1-0.1-0.2-0.1-0.3-0.2c-0.3-0.2-0.7-0.4-1-0.6c-0.1-0.1-0.3-0.1-0.4-0.2c-0.2-0.1-0.3-0.2-0.5-0.3
				c-0.1-0.1-0.3-0.1-0.4-0.2c-0.2-0.1-0.4-0.2-0.6-0.3c-0.2-0.1-0.3-0.1-0.5-0.2c-0.1,0-0.1-0.1-0.2-0.1c-0.4-0.2-0.9-0.4-1.3-0.5
				c0,0,0,0,0,0c-0.4-0.2-0.9-0.3-1.3-0.5c-0.1,0-0.1,0-0.2-0.1c-0.2-0.1-0.3-0.1-0.5-0.1c-0.2-0.1-0.4-0.1-0.7-0.2
				c-0.1,0-0.2-0.1-0.3-0.1c-0.2-0.1-0.4-0.1-0.6-0.2c-0.1,0-0.3-0.1-0.4-0.1c-0.2,0-0.3-0.1-0.4-0.1c-0.2,0-0.4-0.1-0.6-0.1
				c-0.1,0-0.2,0-0.3-0.1c-0.2,0-0.3-0.1-0.5-0.1c-0.2,0-0.4-0.1-0.6-0.1c-0.1,0-0.2,0-0.2,0c-0.2,0-0.4,0-0.5-0.1
				c-0.2,0-0.5-0.1-0.7-0.1c-0.1,0-0.1,0-0.2,0c-0.2,0-0.3,0-0.5,0c-0.3,0-0.5,0-0.8,0c-0.1,0-0.2,0-0.2,0c-0.1,0-0.2,0-0.3,0
				c-0.3,0-0.7,0-1,0c-0.1,0-0.2,0-0.3,0c-0.1,0-0.1,0-0.2,0c-0.5,0.1-1,0.1-1.5,0.2c0,0-0.1,0-0.1,0c0,0,0,0,0,0
				c-0.7,0.1-1.4,0.3-2,0.6c-0.1,0-0.1,0-0.2,0.1c0,0-0.1,0-0.1,0.1c-0.3,0.1-0.6,0.2-0.8,0.3c-0.1,0.1-0.3,0.1-0.4,0.2
				c-0.4,0.2-0.8,0.4-1.2,0.6c0,0,0,0,0,0l-21.2,12.3c0.4-0.2,0.8-0.4,1.2-0.6c0.1-0.1,0.3-0.1,0.4-0.2c0.3-0.1,0.6-0.2,0.8-0.3
				c0.1,0,0.2-0.1,0.3-0.1c0.7-0.2,1.3-0.4,2-0.6c0,0,0.1,0,0.1,0c0.5-0.1,1-0.2,1.5-0.2c0.2,0,0.3,0,0.5,0c0.3,0,0.7,0,1,0
				c0.2,0,0.4,0,0.6,0c0.3,0,0.5,0,0.8,0c0.2,0,0.4,0,0.7,0c0.2,0,0.5,0,0.7,0.1c0.3,0,0.5,0.1,0.8,0.1c0.2,0,0.4,0.1,0.7,0.1
				c0.3,0,0.5,0.1,0.8,0.2c0.2,0,0.4,0.1,0.6,0.1c0.3,0.1,0.6,0.1,0.9,0.2c0.2,0,0.4,0.1,0.6,0.2c0.3,0.1,0.7,0.2,1,0.3
				c0.2,0.1,0.3,0.1,0.5,0.2c0.5,0.2,1,0.3,1.4,0.5c0,0,0,0,0,0s0,0,0,0c0.5,0.2,1,0.4,1.5,0.6c0.2,0.1,0.3,0.1,0.5,0.2
				c0.3,0.2,0.7,0.3,1,0.5c0.2,0.1,0.3,0.2,0.5,0.3c0.5,0.2,0.9,0.5,1.4,0.8c1.1,0.6,2.1,1.3,3.2,2c0.1,0,0.1,0.1,0.2,0.1
				c1,0.7,1.9,1.4,2.9,2.2c0.1,0.1,0.2,0.2,0.3,0.3c0.9,0.8,1.8,1.5,2.7,2.4c0.1,0.1,0.2,0.2,0.3,0.3c0.9,0.8,1.8,1.7,2.6,2.6
				c0.1,0.1,0.1,0.2,0.2,0.2c0.9,1,1.8,2,2.7,3.1c0,0,0,0,0,0c1.7,2.1,3.3,4.3,4.8,6.5c0.4,0.7,0.9,1.4,1.3,2
				c0.4,0.6,0.7,1.1,1.1,1.7c0.2,0.3,0.3,0.6,0.5,0.8c0.6,1,1.1,2,1.6,3c0.1,0.1,0.1,0.2,0.2,0.3c0.6,1.2,1.2,2.5,1.7,3.7
				c0,0.1,0.1,0.1,0.1,0.2c0.5,1.2,1,2.4,1.5,3.7c0,0.1,0.1,0.2,0.1,0.2c0.5,1.3,0.9,2.5,1.3,3.8c0,0.1,0,0.2,0.1,0.2
				c0.4,1.2,0.7,2.4,1,3.7c0,0.1,0.1,0.2,0.1,0.3c0.3,1.3,0.5,2.5,0.7,3.8c0,0,0,0,0,0.1c0.2,1.3,0.3,2.5,0.5,3.8c0,0.1,0,0.2,0,0.3
				c0.1,1.2,0.2,2.5,0.1,3.7c0,0.6,0,1.2,0,1.8c0,0.2,0,0.3,0,0.5c0,0.4,0,0.8-0.1,1.2c0,0.2,0,0.4-0.1,0.7c0,0.3-0.1,0.6-0.1,1
				c0,0.2-0.1,0.5-0.1,0.7c0,0.3-0.1,0.6-0.1,0.9c0,0.3-0.1,0.5-0.2,0.8c-0.1,0.3-0.1,0.5-0.2,0.8c-0.1,0.3-0.1,0.6-0.2,0.9
				c-0.1,0.2-0.1,0.4-0.2,0.7c-0.1,0.3-0.2,0.7-0.3,1c-0.1,0.2-0.1,0.4-0.2,0.5c-0.2,0.6-0.4,1.1-0.7,1.6c0,0.1-0.1,0.1-0.1,0.2
				c-0.3,0.7-0.7,1.3-1.1,2c0,0-0.1,0.1-0.1,0.1c-0.3,0.5-0.7,1-1,1.4c-0.1,0.1-0.2,0.2-0.3,0.3c-0.4,0.4-0.7,0.8-1.1,1.2
				c0,0-0.1,0.1-0.1,0.1c-0.4,0.4-0.8,0.8-1.3,1.1c-0.1,0.1-0.2,0.2-0.3,0.2C1180.4,565.3,1179.9,565.6,1179.5,565.9"/>
			<path fill="#141843" stroke="#141843" stroke-width="3" stroke-miterlimit="10" d="M1181.2,568.9l-3.5-6.1l0,0
				c0.3-0.2,0.7-0.4,1.1-0.7l0.3-0.2c0.4-0.3,0.7-0.6,1-0.8c0,0,0.1-0.1,0.1-0.1c0.2-0.2,0.5-0.6,0.8-0.9l0.2-0.3
				c0.3-0.4,0.6-0.8,0.8-1.2l0.1-0.1c0.3-0.5,0.6-1,0.9-1.6l0.1-0.2c0.2-0.4,0.4-0.8,0.6-1.3l0.2-0.5c0.1-0.3,0.2-0.6,0.3-0.9
				c0.1-0.2,0.1-0.4,0.2-0.6c0.1-0.3,0.1-0.5,0.2-0.8c0.1-0.2,0.1-0.4,0.2-0.7c0-0.2,0.1-0.4,0.1-0.7c0-0.3,0.1-0.5,0.1-0.8
				c0-0.2,0.1-0.4,0.1-0.6c0-0.3,0.1-0.6,0.1-0.9l0.1-0.6c0-0.3,0.1-0.7,0.1-1l0-0.5c0-0.5,0-1.1,0-1.6c0-1.1,0-2.2-0.1-3.4l0-0.3
				c-0.1-1.2-0.2-2.4-0.4-3.5c-0.2-1.2-0.4-2.4-0.7-3.6l-0.1-0.3c-0.3-1.2-0.6-2.3-0.9-3.5l0-0.1c-0.4-1.3-0.8-2.5-1.2-3.7l-0.1-0.2
				c-0.4-1.2-0.9-2.4-1.4-3.5l-0.1-0.1c-0.5-1.2-1.1-2.4-1.7-3.6l-0.2-0.3c-0.4-0.8-0.9-1.7-1.5-2.8l-0.2-0.4
				c-0.1-0.1-0.2-0.3-0.2-0.4c-0.2-0.4-0.4-0.7-0.7-1.1l-0.6-1c-0.3-0.5-0.6-1.1-1-1.6c-1.5-2.2-3-4.3-4.6-6.2l-0.1-0.1
				c-0.8-1-1.7-1.9-2.6-2.9l-0.2-0.2c-0.8-0.9-1.7-1.7-2.5-2.5l-0.3-0.3c-0.8-0.8-1.7-1.5-2.5-2.2l-0.3-0.2c-0.9-0.7-1.8-1.4-2.7-2
				l-0.1-0.1c-1-0.7-2-1.4-3-1.9c-0.4-0.2-0.9-0.5-1.3-0.7l-0.5-0.3c-0.3-0.2-0.6-0.3-0.9-0.5l-0.4-0.2c-0.4-0.2-0.8-0.4-1.2-0.5
				l-0.2-0.1c-0.4-0.2-0.8-0.3-1.2-0.4l-0.4-0.1c-0.3-0.1-0.6-0.2-0.9-0.3c-0.2,0-0.3-0.1-0.5-0.1c-0.3-0.1-0.5-0.1-0.8-0.2
				c-0.2,0-0.3-0.1-0.5-0.1c-0.2,0-0.5-0.1-0.7-0.1l-0.1,0c-0.1,0-0.3,0-0.4-0.1c-0.2,0-0.4-0.1-0.6-0.1l-0.1,0c-0.2,0-0.3,0-0.5,0
				c-0.1,0-0.3,0-0.4,0l-0.2,0c-0.2,0-0.4,0-0.7,0c-0.1,0-0.2,0-0.4,0l-0.1,0c-0.3,0-0.6,0-0.8,0c-0.1,0-0.3,0-0.4,0
				c-0.4,0-0.8,0.1-1.2,0.2l-0.2,0c-0.5,0.1-1,0.2-1.5,0.4l-0.2,0.1c-0.3,0.1-0.5,0.2-0.7,0.3l-0.3,0.1c-0.3,0.1-0.6,0.3-0.9,0.5
				l-3.5-6.1l21.3-12.4c0.4-0.2,0.9-0.5,1.4-0.7c0.1-0.1,0.3-0.1,0.4-0.2l0.1,0c0.3-0.1,0.6-0.3,1-0.4c0.1,0,0.2-0.1,0.2-0.1
				l0.3-0.1c0.8-0.3,1.5-0.5,2.2-0.6l0.4-0.1c0.5-0.1,1-0.2,1.6-0.2c0.1,0,0.2,0,0.3,0c0.1,0,0.3,0,0.4,0c0.4,0,0.8,0,1.2-0.1
				c0.1,0,0.3,0,0.4,0c0.1,0,0.2,0,0.3,0c0.3,0,0.6,0,0.9,0l0.1,0c0.1,0,0.3,0,0.4,0c0.1,0,0.2,0,0.3,0c0.2,0,0.4,0,0.7,0.1l0.3,0
				c0.2,0,0.3,0,0.5,0.1c0.1,0,0.2,0,0.3,0c0.2,0,0.5,0.1,0.7,0.1l0.2,0c0.1,0,0.3,0,0.4,0.1c0.1,0,0.2,0,0.3,0.1
				c0.3,0.1,0.5,0.1,0.7,0.2l0.1,0c0.1,0,0.3,0.1,0.4,0.1c0.1,0,0.2,0.1,0.4,0.1l0.1,0c0.2,0.1,0.4,0.1,0.6,0.2
				c0.2,0,0.3,0.1,0.4,0.1c0.2,0,0.3,0.1,0.5,0.2l0.9,0.3c0.4,0.2,0.9,0.3,1.3,0.5l0.2,0.1c0.5,0.2,0.9,0.4,1.4,0.6l0.9,0.4
				c0.2,0.1,0.3,0.2,0.5,0.2l1.4,0.7c0.4,0.2,0.7,0.4,1.1,0.6l0.3,0.2c0.5,0.3,1,0.6,1.5,0.9c0.5,0.3,1,0.6,1.5,1l0.4,0.3
				c0.4,0.2,0.7,0.5,1.1,0.8c0.5,0.4,1,0.7,1.5,1.1l1,0.8c0.2,0.1,0.3,0.3,0.5,0.4c0.5,0.4,1,0.9,1.5,1.3c0.2,0.1,0.3,0.3,0.5,0.5
				l1,0.9c0.5,0.5,1,0.9,1.4,1.4c0.3,0.3,0.5,0.5,0.8,0.8l0.6,0.6c0.4,0.5,0.9,0.9,1.3,1.4c0.4,0.5,0.9,1,1.3,1.5l0.1,0.1
				c0.4,0.5,0.8,1,1.2,1.5c0.5,0.6,0.9,1.2,1.4,1.8l0.1,0.2c0.7,1,1.4,2,2.1,3c0.1,0.1,0.1,0.2,0.2,0.3c0.4,0.6,0.8,1.2,1.2,1.8
				l0.2,0.4c0.1,0.2,0.2,0.3,0.3,0.5c0.2,0.3,0.4,0.6,0.6,1c0,0.1,0.1,0.2,0.2,0.3c0.1,0.3,0.3,0.5,0.4,0.7l0.4,0.8
				c0.2,0.4,0.5,0.8,0.7,1.3c0.2,0.4,0.4,0.8,0.6,1.2l0.4,0.8c0.3,0.6,0.6,1.2,0.8,1.7c0.2,0.5,0.5,1.1,0.7,1.6l0.2,0.6
				c0.1,0.3,0.3,0.7,0.4,1c0.2,0.5,0.4,1.1,0.7,1.6c0.1,0.3,0.2,0.6,0.4,1l0.3,0.7c0.2,0.6,0.4,1.1,0.6,1.7c0.2,0.6,0.4,1.2,0.6,1.7
				l0.1,0.4c0.1,0.5,0.3,0.9,0.4,1.3c0.2,0.6,0.3,1.2,0.5,1.8l0.3,1.3c0,0.1,0.1,0.3,0.1,0.4c0.1,0.6,0.2,1.2,0.4,1.8
				c0.1,0.5,0.2,1.1,0.3,1.6c0,0,0,0.1,0,0.1c0.1,0.6,0.2,1.1,0.2,1.7c0.1,0.6,0.1,1.1,0.2,1.7l0.1,1.1c0,0.2,0,0.4,0,0.5
				c0,0.6,0.1,1.1,0.1,1.7c0,0.5,0,1,0,1.6v0.1c0,0.6,0,1.1,0,1.7l-0.1,0.9c0,0.3,0,0.5,0,0.8c0,0.1,0,0.2,0,0.3
				c0,0.2,0,0.4-0.1,0.6l0,0.4c0,0.2,0,0.3,0,0.5l0,0.3c0,0.3-0.1,0.6-0.1,0.8l0,0.2c0,0.1,0,0.3-0.1,0.4c0,0.1,0,0.2-0.1,0.3l0,0.1
				c-0.1,0.3-0.1,0.6-0.2,0.8l0,0.1c0,0.1,0,0.2-0.1,0.3c0,0.1-0.1,0.2-0.1,0.3c-0.1,0.4-0.2,0.7-0.3,1.1c0,0.2-0.1,0.3-0.1,0.4
				c0,0.1-0.1,0.2-0.1,0.3c-0.1,0.4-0.2,0.8-0.4,1.1c-0.1,0.2-0.1,0.3-0.2,0.5l-0.1,0.2c-0.2,0.6-0.5,1.2-0.7,1.7l-0.1,0.2
				c0,0.1-0.1,0.1-0.1,0.2c-0.4,0.7-0.8,1.4-1.2,2.1c0,0.1-0.1,0.2-0.1,0.2l-0.1,0.2c-0.4,0.5-0.7,1.1-1.2,1.6l-0.3,0.3
				c-0.5,0.6-0.9,1-1.3,1.5c-0.1,0.1-0.1,0.1-0.2,0.2c-0.4,0.4-0.9,0.9-1.5,1.3c-0.1,0.1-0.3,0.2-0.4,0.3c-0.6,0.5-1.2,0.8-1.7,1.1
				L1181.2,568.9C1181.2,568.9,1181.2,568.9,1181.2,568.9z M1153.5,484.6c0.5,0.2,1,0.4,1.5,0.6l0.5,0.2c0.4,0.2,0.8,0.4,1.1,0.6
				l0.6,0.3c0.5,0.3,1,0.5,1.5,0.8c1.1,0.6,2.3,1.4,3.4,2.2l0.1,0.1c1.1,0.8,2.1,1.5,3.2,2.4l0.3,0.2c1,0.8,2,1.7,2.9,2.6l0.3,0.3
				c1,0.9,1.9,1.8,2.8,2.8l0.2,0.2c1,1,1.9,2.1,2.8,3.2c1.8,2.1,3.5,4.4,5.1,6.9c0.4,0.6,0.7,1.2,1.1,1.8l0.6,0.9
				c0.3,0.4,0.5,0.9,0.8,1.3c0.1,0.2,0.2,0.4,0.3,0.6l0.2,0.3c0.7,1.2,1.2,2.2,1.7,3.1l0.2,0.3c0.7,1.3,1.3,2.6,1.8,3.9l0.1,0.1
				c0.6,1.3,1.1,2.6,1.6,3.9l0.1,0.3c0.5,1.3,0.9,2.7,1.3,4l0.1,0.2c0.4,1.3,0.7,2.6,1,3.9l0.1,0.4c0.3,1.4,0.6,2.7,0.8,4
				c0.2,1.4,0.4,2.7,0.5,4.1l0,0.3c0.1,1.4,0.2,2.7,0.2,4c0,0.6,0,1.3,0,1.9l0,0.5c0,0.4-0.1,0.8-0.1,1.3l-0.1,0.7
				c0,0.4-0.1,0.7-0.1,1.1c0,0.3-0.1,0.5-0.1,0.8c0,0.3-0.1,0.6-0.2,1c-0.1,0.3-0.1,0.6-0.2,0.8c-0.1,0.3-0.1,0.6-0.2,0.9
				c-0.1,0.3-0.1,0.5-0.2,0.8l7.8-4.5c0.3-0.2,0.7-0.4,1.1-0.7l0.2-0.2c0.4-0.3,0.7-0.6,1-0.8l0.1-0.1c0.3-0.3,0.6-0.6,0.9-1
				l0.2-0.3c0.3-0.4,0.6-0.7,0.8-1.1l0.1-0.2c0.3-0.5,0.6-1,0.9-1.6l0.1-0.2c0.2-0.4,0.4-0.9,0.6-1.3l0.2-0.5
				c0.1-0.3,0.2-0.6,0.3-0.9l0.2-0.6c0.1-0.3,0.1-0.5,0.2-0.8l0.2-0.7c0-0.2,0.1-0.4,0.1-0.7l0.1-0.8c0-0.2,0.1-0.4,0.1-0.6l0.2-1.7
				c0-0.2,0-0.4,0-0.6l0.1-0.9c0-0.4,0-0.9,0-1.4c0-0.5,0-1,0-1.4c0-0.5,0-0.9-0.1-1.4l-0.1-1.4c0-0.5-0.1-1-0.2-1.5
				c-0.1-0.5-0.1-1-0.2-1.5l0-0.1c-0.1-0.5-0.2-1-0.2-1.4c-0.1-0.5-0.2-1-0.3-1.6l-0.4-1.6c-0.1-0.5-0.3-1.1-0.4-1.6
				c-0.1-0.4-0.2-0.8-0.3-1.2l-0.1-0.4c-0.2-0.6-0.3-1.1-0.5-1.6c-0.2-0.5-0.4-1-0.5-1.5l-0.2-0.6c-0.1-0.3-0.2-0.6-0.3-0.9
				c-0.2-0.5-0.4-1-0.6-1.5c-0.1-0.3-0.3-0.6-0.4-0.9l-0.2-0.5c-0.2-0.5-0.5-1-0.7-1.5c-0.3-0.5-0.5-1.1-0.8-1.6l-0.4-0.8
				c-0.2-0.4-0.4-0.7-0.5-1.1c-0.2-0.4-0.4-0.7-0.6-1.1l-0.5-0.8c-0.1-0.1-0.2-0.3-0.2-0.4l-0.1-0.2c-0.2-0.3-0.3-0.6-0.5-0.8
				c-0.1-0.2-0.3-0.4-0.4-0.6l-0.2-0.4c-0.3-0.5-0.7-1.1-1-1.6c-0.1-0.1-0.1-0.2-0.2-0.3c-0.6-1-1.3-1.9-1.9-2.7l-0.1-0.1
				c-0.4-0.6-0.9-1.2-1.3-1.7c-0.4-0.5-0.8-0.9-1.1-1.4l-0.1-0.1c-0.4-0.4-0.8-0.9-1.2-1.3c-0.4-0.4-0.8-0.9-1.2-1.3l-0.5-0.6
				c-0.2-0.2-0.5-0.5-0.7-0.7c-0.4-0.4-0.8-0.9-1.3-1.3l-0.9-0.9c-0.1-0.1-0.3-0.2-0.4-0.4c-0.4-0.4-0.9-0.8-1.3-1.2l-1.3-1.1
				c-0.4-0.3-0.9-0.7-1.3-1c-0.3-0.2-0.6-0.4-0.9-0.7l-0.3-0.2c-0.4-0.3-0.9-0.6-1.3-0.9c-0.4-0.3-0.8-0.5-1.2-0.8l-0.3-0.2
				c-0.3-0.2-0.6-0.4-0.9-0.5l-1.2-0.6c-0.1-0.1-0.2-0.1-0.4-0.2l-0.8-0.4c-0.3-0.2-0.7-0.3-1-0.4l-0.2-0.1
				c-0.4-0.2-0.8-0.3-1.1-0.4l-0.8-0.3c-0.1,0-0.2-0.1-0.3-0.1l-1.5-0.4c-0.2,0-0.3-0.1-0.5-0.1l-0.7-0.1c-0.2,0-0.4-0.1-0.6-0.1
				l-0.8-0.1c-0.2,0-0.3,0-0.5,0l-0.6,0c-0.2,0-0.4,0-0.7,0c-0.1,0-0.1,0-0.2,0c-0.1,0-0.2,0-0.3,0c-0.3,0-0.5,0-0.8,0
				c-0.1,0-0.2,0-0.2,0c-0.1,0-0.1,0-0.2,0c-0.4,0-0.8,0.1-1.2,0.2l-0.2,0c-0.4,0.1-1,0.2-1.5,0.4l-0.2,0.1
				c-0.2,0.1-0.4,0.2-0.7,0.3l-0.3,0.1c-0.3,0.1-0.6,0.3-0.9,0.5l-7.8,4.5c0.1,0,0.1,0,0.2,0c0.2,0.1,0.4,0.1,0.6,0.2
				c0.4,0.1,0.7,0.2,1.1,0.3l0.5,0.2c0.5,0.2,1,0.4,1.5,0.6L1153.5,484.6z M1204.3,544.3C1204.3,544.3,1204.3,544.3,1204.3,544.3
				L1204.3,544.3z M1204.9,542.8C1204.9,542.8,1204.9,542.8,1204.9,542.8L1204.9,542.8z M1160.7,477.3L1160.7,477.3
				C1160.7,477.3,1160.7,477.3,1160.7,477.3z M1159.8,470.4C1159.8,470.4,1159.8,470.4,1159.8,470.4L1159.8,470.4z"/>
		</g>
	</g>
</g>
<g>
	
		<polyline fill="none" stroke="#141843" stroke-width="10" stroke-linecap="round" stroke-linejoin="round" stroke-miterlimit="10" points="
		1955.1,549.2 1849.3,283.4 1906.1,573.6 	"/>
	
		<polyline fill="none" stroke="#141843" stroke-width="10" stroke-linecap="round" stroke-linejoin="round" stroke-miterlimit="10" points="
		1807.6,587.2 1849.3,283.4 1713.6,654.7 	"/>
	<path fill="none" stroke="#141843" stroke-width="10" stroke-linecap="round" stroke-linejoin="round" stroke-miterlimit="10" d="
		M1814.7,547.4c0,0,37.5-45.7,84.1-5.6"/>
	<path fill="none" stroke="#141843" stroke-width="10" stroke-linecap="round" stroke-linejoin="round" stroke-miterlimit="10" d="
		M1821.6,493.4c0,0,29.1-44.5,67.8-3.3"/>
	<path fill="none" stroke="#141843" stroke-width="10" stroke-linecap="round" stroke-linejoin="round" stroke-miterlimit="10" d="
		M1831.2,420.8c0,0,8.3-15.2,21.4-15.1c6.5,0.1,13.6,0.9,22.6,15.1"/>
	<path fill="none" stroke="#141843" stroke-width="10" stroke-linecap="round" stroke-linejoin="round" stroke-miterlimit="10" d="
		M1810.6,565.2c0,0-26.3-49.1-74.5,27.9"/>
	<path fill="none" stroke="#141843" stroke-width="10" stroke-linecap="round" stroke-linejoin="round" stroke-miterlimit="10" d="
		M1764.4,518c0,0,30.1-29.3,52.9-0.9"/>
	<path fill="none" stroke="#141843" stroke-width="10" stroke-linecap="round" stroke-linejoin="round" stroke-miterlimit="10" d="
		M1786.7,458.6c0,0,26.6-17.7,36.4,7.6"/>
	<path fill="none" stroke="#141843" stroke-width="10" stroke-linecap="round" stroke-linejoin="round" stroke-miterlimit="10" d="
		M1903.1,558.2c0,0,10-37,43.4-27.7"/>
	<path fill="none" stroke="#141843" stroke-width="10" stroke-linecap="round" stroke-linejoin="round" stroke-miterlimit="10" d="
		M1893.7,505.4c0,0,12.5-23.7,38.3-13.6"/>
	<path fill="none" stroke="#141843" stroke-width="10" stroke-linecap="round" stroke-linejoin="round" stroke-miterlimit="10" d="
		M1882.2,449.8c0,0,11.3-16.4,29.2-8.3"/>
	<path fill="none" stroke="#141843" stroke-width="10" stroke-linecap="round" stroke-linejoin="round" stroke-miterlimit="10" d="
		M1870.4,386.2c0,0,6.3-11.9,18.1-1"/>
</g>
<g>
	<path fill="#FBE3CC" d="M1900.5,173.2v16.6h-51.9v-13.4l29-45.6h-28.4v-16.6h50.8v13.4l-29,45.6H1900.5z"/>
	<path fill="#FBE3CC" d="M1833.6,227.2v15.1h-43.2v-10.8l20.4-28.1h-19.4v-15.1h41.1v10.8l-20.4,28.1H1833.6z"/>
	<path fill="#FBE3CC" d="M1775.1,276.9v12h-34.3v-8.6L1757,258h-15.4v-12h32.6v8.6l-16.2,22.3H1775.1z"/>
</g>
</svg>
