<?xml version="1.0" encoding="UTF-8" standalone="no"?>
<svg
   xmlns:dc="http://purl.org/dc/elements/1.1/"
   xmlns:cc="http://creativecommons.org/ns#"
   xmlns:rdf="http://www.w3.org/1999/02/22-rdf-syntax-ns#"
   xmlns="http://www.w3.org/2000/svg"
   viewBox="0 0 2560 1600"
   height="1600"
   width="2560"
   xml:space="preserve"
   id="svg2"
   version="1.1"><metadata
     id="metadata8"><rdf:RDF><cc:Work
         rdf:about=""><dc:format>image/svg+xml</dc:format><dc:type
           rdf:resource="http://purl.org/dc/dcmitype/StillImage" /></cc:Work></rdf:RDF></metadata><defs
     id="defs6"><clipPath
       id="clipPath28"
       clipPathUnits="userSpaceOnUse"><path
         id="path26"
         d="M 0,1200 H 1920 V 0 H 0 Z" /></clipPath><clipPath
       id="clipPath40"
       clipPathUnits="userSpaceOnUse"><path
         id="path38"
         d="M 927.852,792.976 H 1903.13 V 228.059 H 927.852 Z" /></clipPath></defs><g
     transform="matrix(1.3333333,0,0,-1.3333333,0,1600)"
     id="g10"><path
       id="path12"
       style="fill:#fbe3cc;fill-opacity:1;fill-rule:nonzero;stroke:none"
       d="m 0,64 h 1918.145 v 996.975 H 0 Z" /><g
       transform="translate(0,1056.95)"
       id="g14"><path
         id="path16"
         style="fill:#141843;fill-opacity:1;fill-rule:nonzero;stroke:none"
         d="m 0,0 v -892.062 l 1252.994,722.668 7.507,174.771 z" /></g><g
       transform="translate(1251.4923,877.0455)"
       id="g18"><path
         id="path20"
         style="fill:#ff6167;fill-opacity:1;fill-rule:nonzero;stroke:none"
         d="M 0,0 668.507,-376.036 V 184.683 L -2.302,185.272 Z" /></g><g
       id="g22"><g
         clip-path="url(#clipPath28)"
         id="g24"><g
           transform="translate(2093.7344,404.4053)"
           id="g30"><path
             id="path32"
             style="fill:#141843;fill-opacity:1;fill-rule:nonzero;stroke:none"
             d="m 0,0 c -0.873,0 -1.754,0.215 -2.572,0.677 l -843.575,472.794 c -2.532,1.423 -3.429,4.627 -2.001,7.159 1.418,2.532 4.621,3.448 7.159,2.003 L 2.585,9.84 C 5.117,8.416 6.015,5.212 4.587,2.681 3.628,0.965 1.841,0 0,0" /></g><g
           id="g34"><g
             id="g36" /><g
             id="g48"><g
               style="opacity:0.25"
               id="g46"
               clip-path="url(#clipPath40)"><g
                 id="g44"
                 transform="translate(1903.1299,510.5195)"><path
                   id="path42"
                   style="fill:#bcaa99;fill-opacity:1;fill-rule:nonzero;stroke:none"
                   d="M 0,0 -486.049,-282.461 -975.278,-0.005 -489.229,282.456 Z" /></g></g></g></g><g
           transform="translate(1852.3369,783.395)"
           id="g50"><path
             id="path52"
             style="fill:#beb3a8;fill-opacity:1;fill-rule:nonzero;stroke:none"
             d="m 0,0 -0.68,-239.39 -436.707,251.605 0.68,239.39 z" /></g><g
           transform="translate(1852.3369,783.395)"
           id="g54"><path
             id="path56"
             style="fill:none;stroke:#141843;stroke-width:10;stroke-linecap:round;stroke-linejoin:round;stroke-miterlimit:10;stroke-dasharray:none;stroke-opacity:1"
             d="m 0,0 -0.68,-239.39 -436.707,251.605 0.68,239.39 z" /></g><g
           transform="translate(1415.3535,1034.5327)"
           id="g58"><path
             id="path60"
             style="fill:#e5e1dc;fill-opacity:1;fill-rule:nonzero;stroke:none"
             d="m 0,0 -0.68,-239.893 -433.869,-252.137 0.681,239.893 z" /></g><g
           transform="translate(1415.3535,1034.5327)"
           id="g62"><path
             id="path64"
             style="fill:none;stroke:#141843;stroke-width:10;stroke-linecap:round;stroke-linejoin:round;stroke-miterlimit:10;stroke-dasharray:none;stroke-opacity:1"
             d="m 0,0 -0.68,-239.893 -433.869,-252.137 0.681,239.893 z" /></g><g
           transform="translate(1474.1943,721.5425)"
           id="g66"><path
             id="path68"
             style="fill:#fbe3cc;fill-opacity:1;fill-rule:nonzero;stroke:none"
             d="M 0,0 233.81,-132.974 -93.519,-324.404 -327.32,-192.888 Z" /></g><g
           transform="translate(1157.4131,528.7617)"
           id="g70"><path
             id="path72"
             style="fill:#141843;fill-opacity:1;fill-rule:nonzero;stroke:none"
             d="M 0,0 223.212,-125.563 540.063,59.746 316.827,186.704 Z m 223.263,-136.881 c -0.89,0 -1.777,0.227 -2.578,0.677 l -233.8,131.515 c -1.639,0.919 -2.663,2.646 -2.681,4.531 -0.022,1.879 0.969,3.625 2.587,4.58 L 314.11,197.31 c 1.622,0.961 3.636,0.966 5.27,0.041 L 553.189,64.378 c 1.635,-0.93 2.651,-2.66 2.661,-4.541 0.012,-1.879 -0.981,-3.619 -2.603,-4.569 l -327.33,-191.43 c -0.822,-0.479 -1.736,-0.719 -2.654,-0.719" /></g><g
           transform="translate(1474.1943,744.2573)"
           id="g74"><path
             id="path76"
             style="fill:#ff6167;fill-opacity:1;fill-rule:nonzero;stroke:none"
             d="M 0,0 233.806,-132.977 -93.519,-324.402 -327.32,-192.881 Z" /></g><g
           transform="translate(1157.4131,551.4824)"
           id="g78"><path
             id="path80"
             style="fill:#141843;fill-opacity:1;fill-rule:nonzero;stroke:none"
             d="M 0,0 223.212,-125.566 540.06,59.735 316.827,186.699 Z m 223.263,-136.886 c -0.89,0 -1.777,0.227 -2.578,0.677 l -233.8,131.52 c -1.639,0.921 -2.663,2.646 -2.681,4.53 -0.022,1.881 0.969,3.626 2.587,4.582 L 314.11,197.305 c 1.622,0.96 3.636,0.966 5.27,0.042 L 553.186,64.369 c 1.631,-0.931 2.648,-2.661 2.66,-4.541 0.01,-1.88 -0.982,-3.621 -2.605,-4.571 L 225.917,-136.167 c -0.822,-0.478 -1.736,-0.719 -2.654,-0.719" /></g><g
           transform="translate(1474.1943,766.978)"
           id="g82"><path
             id="path84"
             style="fill:#fbe3cc;fill-opacity:1;fill-rule:nonzero;stroke:none"
             d="M 0,0 233.81,-132.977 -93.519,-324.401 -327.32,-192.893 Z" /></g><g
           transform="translate(1157.4131,574.1934)"
           id="g86"><path
             id="path88"
             style="fill:#141843;fill-opacity:1;fill-rule:nonzero;stroke:none"
             d="M 0,0 223.212,-125.558 540.063,59.746 316.827,186.709 Z m 223.263,-136.876 c -0.89,0 -1.777,0.227 -2.578,0.674 l -233.8,131.508 c -1.639,0.924 -2.663,2.65 -2.681,4.535 -0.022,1.88 0.969,3.626 2.587,4.581 L 314.11,197.315 c 1.622,0.96 3.636,0.966 5.27,0.042 L 553.189,64.378 c 1.635,-0.93 2.651,-2.66 2.661,-4.54 0.012,-1.88 -0.981,-3.621 -2.603,-4.571 l -327.33,-191.423 c -0.822,-0.478 -1.736,-0.72 -2.654,-0.72" /></g><g
           transform="translate(1474.1943,789.689)"
           id="g90"><path
             id="path92"
             style="fill:#ff6167;fill-opacity:1;fill-rule:nonzero;stroke:none"
             d="M 0,0 233.81,-132.973 -93.519,-324.401 -327.32,-192.887 Z" /></g><g
           transform="translate(1157.4131,596.9102)"
           id="g94"><path
             id="path96"
             style="fill:#141843;fill-opacity:1;fill-rule:nonzero;stroke:none"
             d="M 0,0 223.212,-125.563 540.063,59.746 316.827,186.705 Z m 223.263,-136.881 c -0.89,0 -1.777,0.226 -2.578,0.678 L -13.115,-4.69 c -1.639,0.919 -2.663,2.646 -2.681,4.53 -0.022,1.88 0.969,3.626 2.587,4.581 L 314.11,197.31 c 1.622,0.959 3.636,0.965 5.27,0.041 L 553.189,64.378 c 1.635,-0.93 2.651,-2.662 2.661,-4.541 0.012,-1.879 -0.981,-3.621 -2.603,-4.572 l -327.33,-191.427 c -0.822,-0.477 -1.736,-0.719 -2.654,-0.719" /></g><g
           transform="translate(1474.1943,812.4102)"
           id="g98"><path
             id="path100"
             style="fill:#fbe3cc;fill-opacity:1;fill-rule:nonzero;stroke:none"
             d="M 0,0 233.81,-132.979 -93.519,-324.405 -327.32,-192.893 Z" /></g><g
           transform="translate(1157.4131,619.625)"
           id="g102"><path
             id="path104"
             style="fill:#141843;fill-opacity:1;fill-rule:nonzero;stroke:none"
             d="M 0,0 223.212,-125.562 540.063,59.747 316.827,186.709 Z m 223.263,-136.881 c -0.89,0 -1.777,0.227 -2.578,0.679 l -233.8,131.514 c -1.639,0.918 -2.663,2.644 -2.681,4.529 -0.022,1.879 0.969,3.626 2.587,4.582 L 314.11,197.316 c 1.622,0.96 3.636,0.965 5.27,0.041 L 553.189,64.379 c 1.635,-0.931 2.651,-2.661 2.661,-4.54 0.012,-1.881 -0.981,-3.621 -2.603,-4.571 L 225.917,-136.16 c -0.822,-0.479 -1.736,-0.721 -2.654,-0.721" /></g><g
           transform="translate(1474.1943,835.1216)"
           id="g106"><path
             id="path108"
             style="fill:#ff6167;fill-opacity:1;fill-rule:nonzero;stroke:none"
             d="M 0,0 233.81,-132.973 -93.519,-324.402 -327.32,-192.888 Z" /></g><g
           transform="translate(1157.4131,642.3408)"
           id="g110"><path
             id="path112"
             style="fill:#141843;fill-opacity:1;fill-rule:nonzero;stroke:none"
             d="M 0,0 223.212,-125.562 540.063,59.747 316.827,186.705 Z m 223.263,-136.881 c -0.89,0 -1.777,0.226 -2.578,0.68 l -233.8,131.513 c -1.639,0.919 -2.663,2.644 -2.681,4.53 -0.022,1.879 0.969,3.625 2.587,4.581 L 314.11,197.31 c 1.622,0.962 3.636,0.966 5.27,0.042 L 553.189,64.38 c 1.635,-0.93 2.651,-2.663 2.661,-4.541 0.012,-1.881 -0.981,-3.621 -2.603,-4.57 l -327.33,-191.43 c -0.822,-0.479 -1.736,-0.72 -2.654,-0.72" /></g><g
           transform="translate(1474.1943,857.8428)"
           id="g114"><path
             id="path116"
             style="fill:#fbe3cc;fill-opacity:1;fill-rule:nonzero;stroke:none"
             d="M 0,0 233.81,-132.978 -93.519,-324.402 -327.32,-192.892 Z" /></g><g
           transform="translate(1157.4131,665.0571)"
           id="g118"><path
             id="path120"
             style="fill:#141843;fill-opacity:1;fill-rule:nonzero;stroke:none"
             d="M 0,0 223.212,-125.557 540.063,59.745 316.827,186.709 Z m 223.263,-136.875 c -0.89,0 -1.777,0.224 -2.578,0.672 l -233.8,131.508 c -1.639,0.926 -2.663,2.651 -2.681,4.536 -0.022,1.88 0.969,3.625 2.587,4.581 L 314.11,197.315 c 1.622,0.962 3.636,0.966 5.27,0.041 L 553.189,64.378 c 1.635,-0.93 2.651,-2.66 2.661,-4.54 0.012,-1.88 -0.981,-3.62 -2.603,-4.571 l -327.33,-191.424 c -0.822,-0.477 -1.736,-0.718 -2.654,-0.718" /></g><g
           transform="translate(1474.1943,880.5527)"
           id="g122"><path
             id="path124"
             style="fill:#ff6167;fill-opacity:1;fill-rule:nonzero;stroke:none"
             d="M 0,0 233.81,-132.972 -93.519,-324.401 -327.32,-192.881 Z" /></g><g
           transform="translate(1157.4131,687.7778)"
           id="g126"><path
             id="path128"
             style="fill:#141843;fill-opacity:1;fill-rule:nonzero;stroke:none"
             d="M 0,0 223.212,-125.566 540.063,59.742 316.827,186.699 Z m 223.263,-136.887 c -0.89,0 -1.777,0.227 -2.578,0.679 l -233.8,131.52 c -1.639,0.919 -2.663,2.644 -2.681,4.529 -0.022,1.88 0.969,3.625 2.587,4.581 L 314.11,197.306 c 1.622,0.955 3.636,0.965 5.27,0.04 L 553.189,64.374 c 1.635,-0.93 2.651,-2.66 2.661,-4.541 0.012,-1.879 -0.981,-3.621 -2.603,-4.57 l -327.33,-191.43 c -0.822,-0.477 -1.736,-0.72 -2.654,-0.72" /></g><g
           transform="translate(1474.1943,903.2734)"
           id="g130"><path
             id="path132"
             style="fill:#fbe3cc;fill-opacity:1;fill-rule:nonzero;stroke:none"
             d="M 0,0 233.806,-132.976 -93.519,-324.401 -327.32,-192.893 Z" /></g><g
           transform="translate(1157.4131,710.4897)"
           id="g134"><path
             id="path136"
             style="fill:#141843;fill-opacity:1;fill-rule:nonzero;stroke:none"
             d="M 0,0 223.212,-125.557 540.06,59.746 316.827,186.708 Z m 223.263,-136.877 c -0.89,0 -1.777,0.226 -2.578,0.673 l -233.8,131.51 c -1.639,0.925 -2.663,2.649 -2.681,4.534 -0.022,1.881 0.969,3.626 2.587,4.582 L 314.11,197.315 c 1.622,0.96 3.636,0.965 5.27,0.04 L 553.186,64.377 c 1.631,-0.93 2.648,-2.66 2.66,-4.539 0.01,-1.881 -0.982,-3.621 -2.605,-4.571 L 225.917,-136.158 c -0.822,-0.477 -1.736,-0.719 -2.654,-0.719" /></g><g
           transform="translate(1474.1943,925.9907)"
           id="g138"><path
             id="path140"
             style="fill:#ff6167;fill-opacity:1;fill-rule:nonzero;stroke:none"
             d="m 0,0 233.806,-132.972 -327.325,-191.436 -233.805,131.52 z" /></g><g
           transform="translate(1157.4092,733.2109)"
           id="g142"><path
             id="path144"
             style="fill:#141843;fill-opacity:1;fill-rule:nonzero;stroke:none"
             d="M 0,0 223.216,-125.567 540.063,59.745 316.831,186.703 Z m 223.267,-136.888 c -0.89,0 -1.777,0.229 -2.579,0.679 L -13.118,-4.689 c -1.638,0.92 -2.66,2.645 -2.681,4.529 -0.02,1.881 0.972,3.627 2.589,4.582 l 327.324,192.887 c 1.622,0.961 3.636,0.966 5.27,0.041 L 553.189,64.377 c 1.632,-0.929 2.649,-2.66 2.661,-4.539 0.01,-1.881 -0.982,-3.621 -2.605,-4.572 L 225.921,-136.168 c -0.822,-0.478 -1.736,-0.72 -2.654,-0.72" /></g><g
           transform="translate(1474.1943,948.7056)"
           id="g146"><path
             id="path148"
             style="fill:#fbe3cc;fill-opacity:1;fill-rule:nonzero;stroke:none"
             d="M 0,0 233.81,-132.978 -93.519,-324.402 -327.32,-192.893 Z" /></g><g
           transform="translate(1157.4131,755.9209)"
           id="g150"><path
             id="path152"
             style="fill:#141843;fill-opacity:1;fill-rule:nonzero;stroke:none"
             d="M 0,0 223.212,-125.556 540.063,59.745 316.827,186.709 Z m 223.263,-136.875 c -0.89,0 -1.777,0.226 -2.578,0.671 l -233.8,131.51 c -1.639,0.924 -2.663,2.652 -2.681,4.535 -0.022,1.88 0.969,3.625 2.587,4.581 L 314.11,197.315 c 1.622,0.959 3.636,0.966 5.27,0.041 L 553.189,64.378 c 1.635,-0.928 2.651,-2.66 2.661,-4.54 0.012,-1.879 -0.981,-3.621 -2.603,-4.571 l -327.33,-191.424 c -0.822,-0.477 -1.736,-0.718 -2.654,-0.718" /></g><g
           transform="translate(1474.1943,971.4224)"
           id="g154"><path
             id="path156"
             style="fill:#fbe3cc;fill-opacity:1;fill-rule:nonzero;stroke:none"
             d="M 0,0 233.81,-132.973 -93.519,-324.407 -327.32,-192.889 Z" /></g><g
           transform="translate(1157.4131,778.6416)"
           id="g158"><path
             id="path160"
             style="fill:#141843;fill-opacity:1;fill-rule:nonzero;stroke:none"
             d="M 0,0 223.212,-125.566 540.063,59.746 316.827,186.705 Z m 223.263,-136.885 c -0.89,0 -1.777,0.225 -2.578,0.677 l -233.8,131.519 c -1.639,0.92 -2.663,2.647 -2.681,4.53 -0.022,1.88 0.969,3.625 2.587,4.581 L 314.11,197.31 c 1.622,0.961 3.636,0.965 5.27,0.042 L 553.189,64.378 c 1.635,-0.928 2.651,-2.66 2.661,-4.54 0.012,-1.879 -0.981,-3.621 -2.603,-4.571 l -327.33,-191.434 c -0.822,-0.477 -1.736,-0.718 -2.654,-0.718" /></g><g
           transform="translate(1322.2852,683.0488)"
           id="g162"><path
             id="path164"
             style="fill:#ffffff;fill-opacity:1;fill-rule:nonzero;stroke:none"
             d="m 0,0 125.563,4.323 c 0,0 -45.033,8.64 -64.426,53.106 C 61.137,57.429 40.758,10.164 0,0" /></g><g
           transform="translate(1383.377,728.8604)"
           id="g166"><path
             id="path168"
             style="fill:#141843;fill-opacity:1;fill-rule:nonzero;stroke:none"
             d="m 0,0 c -6.03,-10.601 -17.663,-27.744 -35.135,-39.654 l 73.628,2.531 C 25.755,-30.229 10.739,-18.741 0,0 m -61.092,-53.701 c -2.613,0 -4.843,3.241 -5.208,5.846 -0.374,2.665 1.325,5.838 3.935,6.491 37.796,9.424 57.387,53.123 57.583,53.572 0.828,1.926 2.721,2.346 4.817,2.346 h 0.006 c 2.095,0 3.99,-0.077 4.827,-1.997 18.073,-41.448 60.172,-49.378 60.594,-49.46 2.63,-0.505 4.456,-2.617 4.252,-5.282 -0.204,-2.67 -2.387,-3.296 -5.064,-3.388 l -125.562,-2.872 c -0.062,-5.26 -0.122,-5.256 -0.18,-5.256" /></g><g
           transform="translate(1639.4453,819.3545)"
           id="g170"><path
             id="path172"
             style="fill:#141843;fill-opacity:1;fill-rule:nonzero;stroke:none"
             d="m 0,0 c -0.871,0 -1.757,0.215 -2.573,0.672 l -185.43,104.299 c -2.532,1.428 -3.432,4.633 -2.008,7.165 1.416,2.532 4.621,3.431 7.163,2.01 L 2.582,9.846 C 5.114,8.418 6.014,5.212 4.592,2.681 3.627,0.965 1.84,0 0,0" /></g><g
           transform="translate(1614.1611,800.3872)"
           id="g174"><path
             id="path176"
             style="fill:#141843;fill-opacity:1;fill-rule:nonzero;stroke:none"
             d="m 0,0 c -0.873,0 -1.756,0.215 -2.572,0.678 l -185.431,104.304 c -2.531,1.423 -3.431,4.628 -2.003,7.161 1.412,2.531 4.617,3.445 7.159,2.003 L 2.583,9.84 C 5.115,8.418 6.015,5.213 4.587,2.681 3.626,0.966 1.841,0 0,0" /></g><g
           transform="translate(1584.6611,787.7466)"
           id="g178"><path
             id="path180"
             style="fill:#141843;fill-opacity:1;fill-rule:nonzero;stroke:none"
             d="m 0,0 c -0.873,0 -1.757,0.217 -2.572,0.674 l -185.427,104.299 c -2.531,1.428 -3.429,4.633 -2.007,7.165 1.422,2.532 4.623,3.431 7.165,2.008 L 2.583,9.847 C 5.114,8.419 6.015,5.215 4.593,2.683 3.625,0.967 1.84,0 0,0" /></g><g
           transform="translate(1557.2725,770.8872)"
           id="g182"><path
             id="path184"
             style="fill:#141843;fill-opacity:1;fill-rule:nonzero;stroke:none"
             d="m 0,0 c -0.873,0 -1.757,0.215 -2.573,0.677 l -185.432,104.305 c -2.532,1.422 -3.43,4.628 -2.001,7.16 1.411,2.532 4.616,3.441 7.158,2.004 L 2.583,9.839 C 5.114,8.417 6.014,5.212 4.586,2.681 3.625,0.965 1.838,0 0,0" /></g><g
           transform="translate(1525.6602,754.0317)"
           id="g186"><path
             id="path188"
             style="fill:#141843;fill-opacity:1;fill-rule:nonzero;stroke:none"
             d="m 0,0 c -0.873,0 -1.757,0.215 -2.572,0.677 l -185.431,104.304 c -2.531,1.423 -3.431,4.627 -2.003,7.159 1.412,2.532 4.621,3.448 7.159,2.004 L 2.583,9.839 C 5.115,8.417 6.015,5.212 4.587,2.681 3.625,0.965 1.841,0 0,0" /></g><g
           transform="translate(1498.2656,739.2812)"
           id="g190"><path
             id="path192"
             style="fill:#141843;fill-opacity:1;fill-rule:nonzero;stroke:none"
             d="m 0,0 c -0.873,0 -1.757,0.215 -2.573,0.677 l -185.426,104.304 c -2.531,1.423 -3.43,4.627 -2.001,7.159 1.411,2.532 4.62,3.443 7.158,2.004 L 2.583,9.839 C 5.116,8.417 6.014,5.212 4.586,2.681 3.625,0.965 1.84,0 0,0" /></g><g
           transform="translate(1470.8701,722.4204)"
           id="g194"><path
             id="path196"
             style="fill:#141843;fill-opacity:1;fill-rule:nonzero;stroke:none"
             d="m 0,0 c -0.873,0 -1.754,0.215 -2.572,0.677 l -185.426,104.31 c -2.532,1.423 -3.43,4.627 -2.002,7.159 1.418,2.531 4.621,3.447 7.159,2.003 L 2.585,9.841 C 5.117,8.417 6.015,5.213 4.587,2.681 3.628,0.965 1.841,0 0,0" /></g><g
           transform="translate(1445.5928,709.7808)"
           id="g198"><path
             id="path200"
             style="fill:#141843;fill-opacity:1;fill-rule:nonzero;stroke:none"
             d="m 0,0 c -0.873,0 -1.756,0.215 -2.574,0.677 l -185.431,104.304 c -2.531,1.423 -3.429,4.627 -2.001,7.159 1.416,2.538 4.621,3.443 7.159,2.004 L 2.583,9.84 C 5.115,8.417 6.015,5.213 4.587,2.681 3.626,0.965 1.839,0 0,0" /></g><g
           transform="translate(1302.3018,755.084)"
           id="g202"><path
             id="path204"
             style="fill:#141843;fill-opacity:1;fill-rule:nonzero;stroke:none"
             d="m 0,0 c -0.93,0 -1.868,0.246 -2.722,0.76 l -69.535,42.145 c -2.481,1.505 -3.274,4.741 -1.771,7.225 1.509,2.481 4.739,3.266 7.226,1.773 L 2.731,9.758 C 5.213,8.253 6.009,5.017 4.505,2.532 3.514,0.904 1.777,0 0,0" /></g><g
           transform="translate(1332.3428,680.2202)"
           id="g206"><path
             id="path208"
             style="fill:#fbe3cc;fill-opacity:1;fill-rule:nonzero;stroke:none"
             d="M 0,0 98.71,2.611 48.282,-27.145 Z" /></g><g
           transform="translate(1416.9111,531.6504)"
           id="g210"><path
             id="path212"
             style="fill:#ffffff;fill-opacity:1;fill-rule:nonzero;stroke:none"
             d="m 0,0 -0.681,-239.893 -436.707,252.133 0.681,239.893 z" /></g><g
           transform="translate(1416.9111,531.6504)"
           id="g214"><path
             id="path216"
             style="fill:none;stroke:#141843;stroke-width:10;stroke-linecap:round;stroke-linejoin:round;stroke-miterlimit:10;stroke-dasharray:none;stroke-opacity:1"
             d="m 0,0 -0.681,-239.893 -436.707,252.133 0.681,239.893 z" /></g><g
           transform="translate(1850.7793,783.7871)"
           id="g218"><path
             id="path220"
             style="fill:#fdeee0;fill-opacity:1;fill-rule:nonzero;stroke:none"
             d="m 0,0 -0.68,-239.893 -433.869,-252.136 0.681,239.892 z" /></g><g
           transform="translate(1850.7793,783.7871)"
           id="g222"><path
             id="path224"
             style="fill:none;stroke:#141843;stroke-width:10;stroke-linecap:round;stroke-linejoin:round;stroke-miterlimit:10;stroke-dasharray:none;stroke-opacity:1"
             d="m 0,0 -0.68,-239.893 -433.869,-252.136 0.681,239.892 z" /></g><g
           transform="translate(1156.9346,569.7783)"
           id="g226"><path
             id="path228"
             style="fill:#fdf4eb;fill-opacity:1;fill-rule:nonzero;stroke:none"
             d="M 0,0 C 17.648,-10.189 31.904,-34.882 31.848,-55.161 31.79,-75.44 17.44,-83.629 -0.208,-73.439 -17.856,-63.25 -32.123,-38.541 -32.065,-18.262 -32.008,2.018 -17.648,10.189 0,0" /></g><g
           transform="translate(1156.9346,569.7783)"
           id="g230"><path
             id="path232"
             style="fill:none;stroke:#141843;stroke-width:3;stroke-linecap:butt;stroke-linejoin:miter;stroke-miterlimit:10;stroke-dasharray:none;stroke-opacity:1"
             d="M 0,0 C 17.648,-10.189 31.904,-34.882 31.848,-55.161 31.79,-75.44 17.44,-83.629 -0.208,-73.439 -17.856,-63.25 -32.123,-38.541 -32.065,-18.262 -32.008,2.018 -17.648,10.189 0,0 Z" /></g><g
           transform="translate(1142.6064,570.6758)"
           id="g234"><path
             id="path236"
             style="fill:#141843;fill-opacity:1;fill-rule:nonzero;stroke:none"
             d="m 0,0 c -2.445,0 -4.676,-0.554 -6.615,-1.67 -4.892,-2.814 -7.598,-9.029 -7.622,-17.499 -0.055,-19.132 13.452,-42.52 30.107,-52.138 7.435,-4.292 14.244,-5.091 19.18,-2.254 4.893,2.816 7.601,9.036 7.626,17.512 0.053,19.127 -13.448,42.508 -30.098,52.121 C 8.062,-1.32 3.775,0 0,0 m 28.46,-82.237 c -5.011,0 -10.483,1.632 -16.09,4.868 -18.592,10.734 -33.668,36.851 -33.607,58.22 0.031,11.071 3.984,19.434 11.13,23.545 7.191,4.139 16.49,3.335 26.185,-2.261 18.586,-10.731 33.657,-36.841 33.598,-58.203 -0.031,-11.079 -3.986,-19.446 -11.135,-23.56 -3.028,-1.743 -6.433,-2.609 -10.081,-2.609" /></g><g
           transform="translate(1142.6064,570.6758)"
           id="g238"><path
             id="path240"
             style="fill:none;stroke:#141843;stroke-width:3;stroke-linecap:butt;stroke-linejoin:miter;stroke-miterlimit:10;stroke-dasharray:none;stroke-opacity:1"
             d="m 0,0 c -2.445,0 -4.676,-0.554 -6.615,-1.67 -4.892,-2.814 -7.598,-9.029 -7.622,-17.499 -0.055,-19.132 13.452,-42.52 30.107,-52.138 7.435,-4.292 14.244,-5.091 19.18,-2.254 4.893,2.816 7.601,9.036 7.626,17.512 0.053,19.127 -13.448,42.508 -30.098,52.121 C 8.062,-1.32 3.775,0 0,0 Z m 28.46,-82.237 c -5.011,0 -10.483,1.632 -16.09,4.868 -18.592,10.734 -33.668,36.851 -33.607,58.22 0.031,11.071 3.984,19.434 11.13,23.545 7.191,4.139 16.49,3.335 26.185,-2.261 18.586,-10.731 33.657,-36.841 33.598,-58.203 -0.031,-11.079 -3.986,-19.446 -11.135,-23.56 -3.028,-1.743 -6.433,-2.609 -10.081,-2.609 z" /></g><g
           transform="translate(1179.457,494.1133)"
           id="g242"><path
             id="path244"
             style="fill:#fbe3cc;fill-opacity:1;fill-rule:nonzero;stroke:#141843;stroke-width:3;stroke-linecap:butt;stroke-linejoin:miter;stroke-miterlimit:10;stroke-dasharray:none;stroke-opacity:1"
             d="m 0,0 21.165,12.3 c 0.486,0.282 0.95,0.601 1.403,0.937 0.111,0.081 0.22,0.163 0.328,0.248 0.443,0.347 0.875,0.711 1.284,1.109 0.029,0.028 0.055,0.059 0.084,0.088 0.383,0.379 0.749,0.786 1.101,1.211 0.09,0.108 0.18,0.215 0.268,0.326 0.363,0.46 0.713,0.938 1.039,1.447 0.009,0.015 0.02,0.026 0.029,0.041 0.022,0.033 0.037,0.072 0.059,0.106 0.39,0.622 0.753,1.279 1.087,1.97 0.018,0.039 0.042,0.071 0.06,0.111 0.009,0.017 0.016,0.038 0.024,0.055 0.245,0.521 0.471,1.063 0.683,1.622 0.019,0.048 0.042,0.092 0.06,0.141 0.048,0.129 0.087,0.269 0.133,0.4 0.117,0.332 0.231,0.668 0.336,1.013 0.028,0.092 0.062,0.177 0.089,0.27 0.039,0.13 0.069,0.269 0.105,0.401 0.08,0.287 0.156,0.577 0.227,0.872 0.03,0.121 0.066,0.236 0.094,0.359 0.03,0.134 0.053,0.275 0.082,0.41 0.054,0.25 0.105,0.502 0.153,0.758 0.024,0.134 0.055,0.261 0.079,0.396 0.027,0.157 0.047,0.321 0.072,0.479 0.036,0.23 0.071,0.459 0.102,0.693 0.017,0.12 0.039,0.235 0.054,0.356 0.026,0.2 0.041,0.409 0.064,0.612 0.023,0.22 0.048,0.439 0.068,0.662 0.008,0.089 0.021,0.175 0.027,0.265 0.025,0.297 0.038,0.604 0.056,0.906 0.01,0.162 0.022,0.32 0.03,0.483 0.002,0.04 0.006,0.079 0.008,0.119 0.022,0.507 0.033,1.022 0.036,1.545 v 0.093 c 10e-4,0.477 -0.005,0.958 -0.019,1.441 -0.016,0.513 -0.039,1.028 -0.073,1.546 -0.014,0.234 -0.038,0.471 -0.056,0.706 l -0.024,0.305 c -0.015,0.181 -0.026,0.361 -0.044,0.544 -0.049,0.519 -0.107,1.041 -0.173,1.564 -0.068,0.534 -0.144,1.069 -0.229,1.606 -0.002,0.015 -0.006,0.03 -0.008,0.046 -0.003,0.018 -0.007,0.036 -0.009,0.053 -0.081,0.505 -0.167,1.01 -0.262,1.516 -0.105,0.555 -0.217,1.11 -0.339,1.667 -0.042,0.196 -0.092,0.392 -0.137,0.589 -0.026,0.116 -0.054,0.232 -0.081,0.348 -0.057,0.245 -0.111,0.491 -0.172,0.737 -0.139,0.564 -0.288,1.13 -0.445,1.695 -0.114,0.411 -0.237,0.822 -0.36,1.232 -0.023,0.078 -0.044,0.154 -0.068,0.231 -0.022,0.075 -0.042,0.149 -0.065,0.224 -0.169,0.551 -0.345,1.102 -0.529,1.652 -0.182,0.544 -0.372,1.086 -0.568,1.628 -0.036,0.1 -0.075,0.199 -0.112,0.3 -0.03,0.081 -0.062,0.162 -0.092,0.243 -0.126,0.341 -0.251,0.681 -0.384,1.021 -0.201,0.519 -0.409,1.036 -0.624,1.552 -0.154,0.371 -0.315,0.74 -0.475,1.11 -0.029,0.066 -0.056,0.131 -0.084,0.197 -0.033,0.071 -0.062,0.143 -0.093,0.215 -0.229,0.516 -0.462,1.031 -0.702,1.542 -0.265,0.565 -0.537,1.127 -0.817,1.687 -0.042,0.085 -0.088,0.169 -0.131,0.254 -0.055,0.11 -0.114,0.22 -0.169,0.33 -0.228,0.445 -0.454,0.892 -0.69,1.333 -0.295,0.553 -0.611,1.094 -0.919,1.64 -0.158,0.278 -0.308,0.56 -0.471,0.837 -0.063,0.109 -0.121,0.221 -0.185,0.331 -0.28,0.476 -0.59,0.932 -0.88,1.403 -0.423,0.685 -0.84,1.374 -1.283,2.044 -0.071,0.107 -0.134,0.221 -0.205,0.327 -0.652,0.976 -1.325,1.934 -2.017,2.873 l -0.006,0.009 c -0.001,0 -0.001,0 -0.001,10e-4 -0.465,0.63 -0.938,1.252 -1.42,1.863 -0.39,0.497 -0.788,0.986 -1.189,1.471 l -0.026,0.032 c -0.005,0.007 -0.011,0.014 -0.016,0.02 -0.406,0.489 -0.818,0.97 -1.234,1.445 -0.411,0.466 -0.825,0.925 -1.244,1.377 -0.068,0.074 -0.139,0.144 -0.208,0.219 -0.072,0.076 -0.145,0.15 -0.216,0.226 -0.293,0.31 -0.584,0.621 -0.882,0.924 -0.444,0.452 -0.893,0.895 -1.346,1.331 -0.14,0.134 -0.282,0.261 -0.423,0.394 -0.106,0.099 -0.214,0.198 -0.32,0.297 -0.221,0.205 -0.44,0.414 -0.662,0.616 -0.469,0.423 -0.944,0.836 -1.421,1.239 -0.209,0.177 -0.421,0.344 -0.632,0.517 -0.106,0.086 -0.214,0.174 -0.321,0.261 -0.157,0.127 -0.312,0.259 -0.469,0.383 -0.464,0.366 -0.932,0.724 -1.403,1.07 -0.34,0.251 -0.684,0.491 -1.028,0.731 -0.062,0.044 -0.124,0.09 -0.186,0.133 -0.059,0.04 -0.116,0.084 -0.176,0.125 -0.449,0.307 -0.902,0.607 -1.357,0.896 -0.449,0.286 -0.9,0.563 -1.353,0.829 -0.104,0.062 -0.209,0.122 -0.314,0.183 -0.34,0.196 -0.679,0.386 -1.016,0.568 -0.129,0.071 -0.256,0.132 -0.384,0.199 -0.175,0.092 -0.348,0.182 -0.522,0.271 -0.135,0.068 -0.271,0.143 -0.405,0.209 -0.215,0.107 -0.429,0.202 -0.644,0.304 -0.152,0.072 -0.306,0.146 -0.458,0.215 -0.064,0.03 -0.128,0.063 -0.192,0.091 -0.426,0.191 -0.851,0.37 -1.272,0.539 -0.005,0.002 -0.009,0.004 -0.013,0.006 -0.431,0.172 -0.859,0.333 -1.284,0.483 -0.056,0.019 -0.11,0.035 -0.166,0.054 -0.153,0.053 -0.306,0.1 -0.458,0.15 -0.219,0.072 -0.439,0.149 -0.656,0.215 -0.109,0.033 -0.216,0.057 -0.324,0.089 -0.188,0.054 -0.374,0.105 -0.56,0.155 -0.145,0.039 -0.293,0.084 -0.437,0.12 -0.152,0.038 -0.299,0.065 -0.45,0.1 -0.188,0.043 -0.376,0.086 -0.562,0.125 -0.1,0.021 -0.2,0.047 -0.298,0.067 -0.177,0.034 -0.348,0.055 -0.522,0.086 -0.217,0.037 -0.435,0.075 -0.65,0.106 -0.075,0.011 -0.153,0.028 -0.228,0.038 -0.178,0.024 -0.351,0.034 -0.528,0.054 -0.231,0.025 -0.463,0.053 -0.691,0.07 -0.068,0.006 -0.137,0.017 -0.203,0.021 -0.157,0.011 -0.307,0.009 -0.461,0.015 -0.273,0.013 -0.544,0.025 -0.812,0.027 -0.076,0.001 -0.154,0.008 -0.229,0.008 -0.117,0 -0.23,-0.014 -0.347,-0.017 -0.339,-0.007 -0.675,-0.022 -1.007,-0.047 -0.1,-0.008 -0.204,-0.006 -0.303,-0.015 -0.075,-0.006 -0.144,-0.024 -0.218,-0.031 -0.509,-0.053 -1.01,-0.124 -1.5,-0.218 -0.041,-0.007 -0.084,-0.01 -0.124,-0.018 -0.008,-0.002 -0.015,-0.005 -0.023,-0.006 -0.698,-0.142 -1.372,-0.334 -2.029,-0.559 -0.059,-0.02 -0.123,-0.029 -0.182,-0.049 -0.047,-0.017 -0.091,-0.04 -0.139,-0.057 -0.286,-0.105 -0.565,-0.224 -0.843,-0.344 -0.136,-0.058 -0.276,-0.111 -0.41,-0.175 -0.404,-0.188 -0.798,-0.391 -1.182,-0.614 -0.005,-0.003 -0.009,-0.005 -0.014,-0.007 L -45.269,77.894 c 0.389,0.225 0.79,0.43 1.197,0.622 0.133,0.062 0.27,0.114 0.405,0.172 0.279,0.122 0.561,0.241 0.849,0.345 0.104,0.039 0.213,0.071 0.318,0.107 0.658,0.224 1.332,0.418 2.031,0.558 0.048,0.01 0.098,0.015 0.146,0.025 0.49,0.094 0.992,0.165 1.501,0.217 0.173,0.018 0.346,0.033 0.52,0.046 0.332,0.026 0.669,0.04 1.008,0.048 0.191,0.004 0.382,0.01 0.575,0.009 0.268,-0.002 0.54,-0.015 0.812,-0.027 0.22,-0.01 0.441,-0.019 0.664,-0.037 0.229,-0.017 0.461,-0.044 0.692,-0.07 0.25,-0.027 0.501,-0.055 0.755,-0.091 0.215,-0.031 0.433,-0.07 0.65,-0.107 0.272,-0.047 0.544,-0.096 0.82,-0.152 0.186,-0.039 0.375,-0.082 0.563,-0.125 0.293,-0.069 0.588,-0.142 0.885,-0.221 0.188,-0.05 0.374,-0.101 0.563,-0.154 0.323,-0.094 0.65,-0.197 0.977,-0.304 0.153,-0.051 0.306,-0.097 0.46,-0.151 0.48,-0.166 0.962,-0.341 1.449,-0.537 0.002,-10e-4 0.004,-0.002 0.006,-0.002 0.003,-0.001 0.005,-0.002 0.007,-0.002 0.484,-0.195 0.973,-0.407 1.463,-0.63 0.153,-0.07 0.307,-0.145 0.461,-0.217 0.347,-0.164 0.696,-0.334 1.047,-0.513 0.174,-0.088 0.348,-0.179 0.522,-0.27 0.465,-0.245 0.931,-0.496 1.401,-0.768 1.08,-0.623 2.146,-1.305 3.199,-2.032 0.062,-0.044 0.125,-0.09 0.188,-0.134 0.981,-0.686 1.947,-1.415 2.899,-2.184 0.107,-0.086 0.214,-0.173 0.32,-0.261 0.921,-0.755 1.827,-1.547 2.717,-2.372 0.105,-0.099 0.212,-0.197 0.317,-0.296 0.902,-0.849 1.785,-1.733 2.65,-2.648 0.073,-0.077 0.147,-0.152 0.219,-0.229 0.923,-0.987 1.825,-2.005 2.7,-3.058 0.01,-0.013 0.02,-0.025 0.031,-0.037 1.716,-2.067 3.328,-4.262 4.834,-6.539 0.443,-0.672 0.861,-1.362 1.285,-2.049 0.355,-0.576 0.724,-1.144 1.064,-1.73 0.161,-0.278 0.313,-0.561 0.471,-0.84 0.555,-0.981 1.097,-1.968 1.607,-2.97 0.056,-0.11 0.115,-0.221 0.171,-0.331 0.615,-1.221 1.197,-2.454 1.742,-3.698 0.028,-0.066 0.055,-0.131 0.084,-0.196 0.53,-1.22 1.025,-2.45 1.484,-3.685 0.03,-0.08 0.061,-0.161 0.091,-0.242 C 6.016,38.87 6.441,37.601 6.826,36.33 6.85,36.254 6.87,36.178 6.893,36.102 7.258,34.879 7.584,33.656 7.87,32.436 7.897,32.319 7.925,32.203 7.951,32.087 8.24,30.826 8.489,29.567 8.689,28.316 8.692,28.298 8.695,28.28 8.698,28.262 8.898,27 9.047,25.747 9.152,24.504 9.161,24.401 9.169,24.299 9.177,24.196 9.273,22.953 9.328,21.72 9.325,20.504 9.323,19.908 9.307,19.324 9.281,18.75 9.273,18.583 9.26,18.421 9.25,18.256 9.228,17.865 9.201,17.477 9.168,17.096 9.147,16.87 9.122,16.649 9.099,16.427 9.063,16.104 9.026,15.782 8.982,15.467 8.95,15.23 8.915,14.998 8.878,14.767 8.832,14.474 8.782,14.185 8.729,13.899 8.681,13.641 8.629,13.386 8.575,13.134 8.52,12.876 8.461,12.622 8.4,12.37 8.328,12.074 8.252,11.783 8.172,11.495 8.109,11.271 8.046,11.046 7.979,10.826 7.873,10.479 7.759,10.143 7.642,9.81 7.578,9.631 7.518,9.448 7.45,9.272 7.238,8.714 7.012,8.171 6.766,7.649 6.739,7.593 6.709,7.541 6.683,7.484 6.349,6.793 5.986,6.136 5.596,5.515 5.565,5.466 5.537,5.414 5.507,5.366 5.181,4.858 4.831,4.38 4.469,3.921 4.381,3.81 4.29,3.701 4.2,3.593 3.848,3.168 3.482,2.76 3.098,2.381 3.069,2.353 3.044,2.322 3.016,2.295 2.606,1.896 2.174,1.532 1.73,1.186 1.623,1.102 1.515,1.02 1.405,0.938 0.951,0.603 0.486,0.283 0,0" /></g><g
           transform="translate(1159.8232,589.6016)"
           id="g246"><path
             id="path248"
             style="fill:#141843;fill-opacity:1;fill-rule:nonzero;stroke:none"
             d="M 0,0 C -0.012,-0.001 -0.024,-0.002 -0.036,-0.004 Z M 0.858,-6.947 0.832,-6.95 c 0.009,0.001 0.018,0.003 0.026,0.003 m 44.227,-65.468 c -0.004,-0.007 -0.007,-0.014 -0.01,-0.021 z m -0.59,-1.458 c -0.006,-0.01 -0.012,-0.021 -0.017,-0.031 z m -50.841,59.641 c 0.49,-0.198 0.983,-0.413 1.477,-0.638 l 0.503,-0.236 c 0.38,-0.179 0.759,-0.365 1.14,-0.558 l 0.579,-0.301 c 0.494,-0.26 0.999,-0.533 1.507,-0.826 1.124,-0.648 2.282,-1.385 3.442,-2.186 l 0.14,-0.1 c 1.084,-0.759 2.125,-1.542 3.154,-2.372 l 0.296,-0.241 c 1.013,-0.831 1.982,-1.677 2.924,-2.552 l 0.332,-0.311 c 0.953,-0.895 1.892,-1.834 2.798,-2.793 l 0.237,-0.25 c 0.972,-1.038 1.926,-2.119 2.829,-3.204 1.78,-2.145 3.483,-4.448 5.093,-6.884 0.382,-0.578 0.746,-1.168 1.109,-1.757 l 0.563,-0.909 c 0.266,-0.424 0.532,-0.849 0.784,-1.283 0.108,-0.187 0.212,-0.375 0.316,-0.562 l 0.174,-0.313 c 0.672,-1.187 1.206,-2.174 1.68,-3.106 l 0.172,-0.333 c 0.657,-1.303 1.269,-2.604 1.828,-3.879 l 0.057,-0.133 c 0.583,-1.344 1.107,-2.643 1.586,-3.934 l 0.1,-0.265 c 0.483,-1.313 0.933,-2.658 1.336,-3.986 l 0.058,-0.2 c 0.396,-1.324 0.742,-2.627 1.043,-3.91 l 0.087,-0.373 c 0.313,-1.362 0.576,-2.707 0.781,-3.992 0.216,-1.358 0.379,-2.707 0.494,-4.069 l 0.028,-0.337 c 0.109,-1.411 0.161,-2.709 0.158,-3.967 -0.002,-0.649 -0.02,-1.279 -0.047,-1.901 l -0.034,-0.546 c -0.024,-0.42 -0.054,-0.843 -0.09,-1.257 l -0.075,-0.732 c -0.04,-0.37 -0.081,-0.726 -0.13,-1.076 -0.035,-0.256 -0.074,-0.516 -0.115,-0.772 -0.05,-0.316 -0.106,-0.64 -0.166,-0.96 -0.052,-0.28 -0.11,-0.565 -0.169,-0.847 -0.065,-0.296 -0.129,-0.576 -0.196,-0.855 -0.063,-0.259 -0.127,-0.509 -0.195,-0.755 l 7.798,4.531 c 0.322,0.186 0.664,0.416 1.078,0.723 l 0.248,0.187 c 0.391,0.305 0.71,0.58 0.983,0.843 l 0.074,0.077 c 0.292,0.289 0.576,0.603 0.884,0.973 l 0.217,0.265 c 0.305,0.385 0.567,0.748 0.797,1.102 l 0.134,0.219 c 0.294,0.468 0.597,1.016 0.873,1.589 l 0.089,0.175 c 0.205,0.445 0.385,0.874 0.559,1.333 l 0.161,0.455 c 0.103,0.293 0.201,0.578 0.29,0.873 l 0.168,0.58 c 0.074,0.264 0.139,0.514 0.201,0.769 l 0.158,0.69 c 0.045,0.211 0.09,0.434 0.132,0.66 l 0.136,0.784 c 0.03,0.195 0.061,0.398 0.09,0.603 l 0.189,1.686 c 0.02,0.219 0.029,0.409 0.039,0.599 l 0.053,0.856 c 0.016,0.412 0.027,0.884 0.03,1.363 0.001,0.521 -0.005,0.963 -0.018,1.408 -0.014,0.474 -0.036,0.951 -0.067,1.428 l -0.114,1.442 c -0.047,0.488 -0.101,0.974 -0.162,1.462 -0.062,0.487 -0.131,0.971 -0.207,1.457 l -0.023,0.128 c -0.076,0.482 -0.156,0.953 -0.246,1.425 -0.098,0.524 -0.203,1.045 -0.318,1.569 l -0.369,1.585 c -0.131,0.529 -0.271,1.061 -0.419,1.594 -0.109,0.39 -0.225,0.78 -0.342,1.168 l -0.109,0.373 c -0.177,0.581 -0.343,1.102 -0.518,1.623 -0.174,0.52 -0.354,1.035 -0.54,1.55 l -0.236,0.631 c -0.106,0.284 -0.21,0.567 -0.321,0.851 -0.194,0.5 -0.391,0.991 -0.595,1.48 -0.13,0.314 -0.265,0.625 -0.4,0.936 l -0.207,0.48 c -0.232,0.527 -0.456,1.019 -0.685,1.508 -0.253,0.54 -0.513,1.076 -0.779,1.608 l -0.396,0.771 c -0.181,0.354 -0.362,0.709 -0.549,1.06 -0.196,0.367 -0.401,0.727 -0.607,1.086 l -0.468,0.831 c -0.082,0.148 -0.163,0.296 -0.249,0.442 l -0.135,0.241 c -0.192,0.33 -0.347,0.57 -0.501,0.81 -0.131,0.204 -0.261,0.409 -0.388,0.614 l -0.225,0.367 c -0.328,0.531 -0.656,1.064 -0.999,1.586 -0.06,0.09 -0.114,0.177 -0.166,0.264 -0.635,0.955 -1.269,1.859 -1.912,2.732 l -0.092,0.126 c -0.43,0.581 -0.866,1.153 -1.31,1.717 -0.371,0.471 -0.75,0.937 -1.131,1.397 l -0.063,0.078 c -0.363,0.438 -0.756,0.897 -1.153,1.348 -0.385,0.437 -0.779,0.875 -1.178,1.306 l -0.544,0.571 c -0.228,0.242 -0.456,0.484 -0.689,0.72 -0.424,0.432 -0.848,0.852 -1.276,1.262 l -0.941,0.877 c -0.128,0.119 -0.255,0.24 -0.384,0.356 -0.442,0.398 -0.887,0.787 -1.336,1.166 l -1.336,1.091 c -0.428,0.337 -0.864,0.67 -1.304,0.993 -0.309,0.228 -0.617,0.443 -0.924,0.658 l -0.341,0.242 c -0.449,0.309 -0.869,0.585 -1.289,0.854 -0.413,0.261 -0.829,0.517 -1.247,0.763 l -0.282,0.164 c -0.32,0.185 -0.632,0.36 -0.941,0.528 l -1.19,0.615 c -0.125,0.062 -0.243,0.116 -0.36,0.17 l -0.808,0.381 c -0.343,0.154 -0.679,0.297 -1.012,0.433 l -0.198,0.079 c -0.404,0.16 -0.753,0.29 -1.099,0.414 l -0.8,0.261 c -0.11,0.037 -0.222,0.074 -0.331,0.108 l -1.545,0.404 c -0.163,0.037 -0.324,0.074 -0.485,0.108 l -0.7,0.13 c -0.242,0.041 -0.405,0.071 -0.565,0.094 l -0.758,0.09 c -0.152,0.015 -0.304,0.033 -0.454,0.045 l -0.561,0.03 c -0.224,0.011 -0.45,0.022 -0.671,0.023 -0.062,0 -0.125,0.002 -0.189,0.005 C 3.754,-6.648 3.666,-6.652 3.577,-6.654 3.304,-6.66 3.029,-6.672 2.759,-6.693 2.681,-6.699 2.606,-6.702 2.533,-6.705 2.469,-6.715 2.405,-6.723 2.342,-6.729 1.933,-6.771 1.532,-6.827 1.14,-6.902 L 0.953,-6.935 c -0.447,-0.091 -0.96,-0.234 -1.521,-0.426 l -0.246,-0.08 c -0.228,-0.083 -0.443,-0.176 -0.659,-0.27 l -0.319,-0.133 c -0.311,-0.145 -0.613,-0.301 -0.907,-0.472 l -7.806,-4.535 c 0.054,-0.013 0.109,-0.028 0.162,-0.042 0.21,-0.056 0.422,-0.114 0.637,-0.175 0.361,-0.106 0.727,-0.219 1.094,-0.34 l 0.509,-0.167 c 0.502,-0.173 1.007,-0.359 1.517,-0.56 z m 27.737,-84.284 -3.516,6.053 0.002,0.002 c 0.322,0.188 0.665,0.418 1.08,0.725 l 0.252,0.19 c 0.375,0.294 0.688,0.562 0.956,0.819 0.045,0.047 0.09,0.092 0.136,0.137 0.246,0.244 0.53,0.557 0.84,0.93 l 0.214,0.262 c 0.327,0.414 0.602,0.794 0.839,1.166 l 0.077,0.128 c 0.314,0.5 0.617,1.048 0.894,1.623 l 0.088,0.174 c 0.179,0.379 0.367,0.827 0.558,1.331 l 0.166,0.466 c 0.097,0.28 0.197,0.571 0.288,0.869 0.059,0.194 0.114,0.387 0.168,0.582 0.071,0.256 0.137,0.511 0.201,0.77 0.052,0.216 0.104,0.443 0.154,0.675 0.045,0.211 0.091,0.436 0.133,0.663 0.049,0.26 0.093,0.513 0.133,0.771 0.035,0.219 0.066,0.424 0.094,0.633 0.04,0.289 0.074,0.575 0.105,0.863 l 0.063,0.608 c 0.03,0.335 0.053,0.688 0.074,1.045 l 0.029,0.457 c 0.022,0.517 0.038,1.054 0.04,1.601 0.003,1.067 -0.043,2.183 -0.138,3.41 l -0.022,0.28 c -0.102,1.197 -0.244,2.377 -0.424,3.509 -0.188,1.18 -0.422,2.372 -0.701,3.59 l -0.077,0.33 c -0.27,1.15 -0.58,2.315 -0.924,3.465 l -0.039,0.133 c -0.387,1.281 -0.794,2.496 -1.235,3.693 l -0.084,0.227 c -0.438,1.178 -0.914,2.359 -1.416,3.514 l -0.052,0.123 c -0.536,1.225 -1.096,2.413 -1.69,3.592 l -0.161,0.312 c -0.43,0.844 -0.917,1.744 -1.536,2.839 l -0.207,0.37 c -0.08,0.146 -0.16,0.291 -0.244,0.435 -0.213,0.366 -0.44,0.726 -0.665,1.087 l -0.592,0.955 c -0.324,0.525 -0.648,1.052 -0.987,1.566 -1.46,2.209 -2.999,4.294 -4.575,6.194 l -0.071,0.086 c -0.805,0.968 -1.667,1.945 -2.553,2.89 l -0.203,0.214 c -0.819,0.866 -1.662,1.709 -2.511,2.509 l -0.308,0.287 c -0.828,0.768 -1.688,1.519 -2.545,2.222 l -0.288,0.235 c -0.915,0.739 -1.825,1.425 -2.717,2.047 l -0.134,0.095 c -1.045,0.723 -2.04,1.356 -2.999,1.91 -0.429,0.249 -0.856,0.477 -1.283,0.702 l -0.482,0.252 c -0.313,0.158 -0.631,0.312 -0.949,0.463 l -0.409,0.193 c -0.419,0.19 -0.83,0.37 -1.237,0.535 l -0.225,0.09 c -0.39,0.153 -0.777,0.294 -1.163,0.427 l -0.408,0.133 c -0.289,0.094 -0.577,0.185 -0.861,0.268 -0.163,0.047 -0.324,0.09 -0.487,0.133 -0.26,0.07 -0.516,0.134 -0.77,0.191 -0.17,0.041 -0.33,0.077 -0.488,0.11 -0.239,0.049 -0.473,0.09 -0.706,0.13 l -0.129,0.023 c -0.142,0.024 -0.283,0.049 -0.422,0.069 -0.215,0.031 -0.423,0.053 -0.631,0.076 l -0.138,0.015 c -0.153,0.017 -0.305,0.034 -0.457,0.046 -0.133,0.012 -0.264,0.017 -0.395,0.022 l -0.164,0.007 c -0.219,0.011 -0.446,0.022 -0.667,0.024 -0.122,0.002 -0.241,-0.002 -0.364,-0.006 l -0.106,-0.002 c -0.28,-0.007 -0.556,-0.019 -0.826,-0.039 -0.141,-0.011 -0.285,-0.024 -0.428,-0.037 -0.398,-0.043 -0.802,-0.098 -1.194,-0.174 l -0.162,-0.027 c -0.489,-0.102 -0.992,-0.243 -1.546,-0.431 l -0.19,-0.063 c -0.279,-0.099 -0.498,-0.194 -0.715,-0.288 l -0.322,-0.134 c -0.305,-0.143 -0.614,-0.301 -0.915,-0.475 l -3.516,6.053 21.281,12.364 c 0.428,0.245 0.884,0.48 1.357,0.701 0.125,0.059 0.262,0.116 0.401,0.174 l 0.094,0.039 c 0.322,0.14 0.64,0.273 0.965,0.394 0.079,0.035 0.157,0.065 0.237,0.093 l 0.344,0.106 c 0.759,0.255 1.478,0.453 2.189,0.603 l 0.432,0.082 c 0.507,0.096 1.043,0.174 1.629,0.237 0.116,0.018 0.226,0.033 0.337,0.044 0.134,0.011 0.257,0.017 0.38,0.02 0.377,0.027 0.774,0.047 1.177,0.055 0.149,0.011 0.283,0.021 0.43,0.017 0.088,0 0.184,-0.003 0.281,-0.007 C 4.419,0.352 4.736,0.338 5.055,0.323 L 5.156,0.32 C 5.3,0.318 5.445,0.314 5.593,0.304 5.692,0.297 5.777,0.287 5.862,0.277 6.053,0.264 6.283,0.238 6.515,0.213 L 6.776,0.186 C 6.931,0.172 7.085,0.156 7.241,0.135 7.316,0.125 7.41,0.11 7.503,0.094 7.73,0.061 7.957,0.021 8.183,-0.018 L 8.39,-0.051 c 0.148,-0.023 0.298,-0.047 0.449,-0.076 0.1,-0.019 0.197,-0.042 0.294,-0.064 0.261,-0.055 0.474,-0.104 0.688,-0.154 l 0.122,-0.026 c 0.132,-0.028 0.262,-0.057 0.396,-0.09 0.107,-0.027 0.232,-0.061 0.357,-0.098 l 0.122,-0.033 c 0.218,-0.058 0.426,-0.115 0.635,-0.176 0.167,-0.044 0.272,-0.073 0.378,-0.105 0.161,-0.049 0.339,-0.107 0.517,-0.168 l 0.897,-0.295 c 0.427,-0.15 0.856,-0.31 1.287,-0.48 l 0.155,-0.063 c 0.462,-0.185 0.928,-0.383 1.398,-0.592 l 0.898,-0.423 c 0.173,-0.08 0.346,-0.161 0.52,-0.247 l 1.415,-0.731 c 0.374,-0.203 0.74,-0.408 1.108,-0.62 l 0.339,-0.198 c 0.488,-0.287 0.974,-0.584 1.456,-0.892 0.491,-0.313 0.978,-0.634 1.46,-0.965 l 0.421,-0.297 c 0.357,-0.25 0.714,-0.5 1.067,-0.76 0.498,-0.367 0.997,-0.748 1.493,-1.138 L 27.3,-9.59 c 0.158,-0.127 0.315,-0.254 0.471,-0.386 0.508,-0.428 1.012,-0.868 1.509,-1.316 0.163,-0.147 0.326,-0.3 0.489,-0.452 l 0.993,-0.926 c 0.481,-0.463 0.956,-0.932 1.424,-1.408 0.261,-0.266 0.525,-0.545 0.788,-0.824 l 0.593,-0.624 c 0.432,-0.466 0.867,-0.947 1.296,-1.435 0.441,-0.504 0.872,-1.008 1.298,-1.519 l 0.084,-0.106 c 0.382,-0.457 0.798,-0.971 1.208,-1.492 0.478,-0.608 0.947,-1.223 1.409,-1.846 l 0.116,-0.156 c 0.71,-0.965 1.409,-1.962 2.078,-2.963 0.065,-0.098 0.126,-0.195 0.185,-0.293 0.415,-0.633 0.783,-1.23 1.151,-1.826 l 0.22,-0.359 c 0.107,-0.172 0.215,-0.342 0.325,-0.512 0.202,-0.316 0.403,-0.631 0.593,-0.955 0.05,-0.084 0.102,-0.178 0.154,-0.272 0.149,-0.26 0.258,-0.455 0.367,-0.65 l 0.428,-0.759 c 0.236,-0.415 0.472,-0.831 0.697,-1.252 0.209,-0.39 0.41,-0.785 0.612,-1.18 l 0.433,-0.843 c 0.282,-0.566 0.567,-1.154 0.844,-1.745 0.25,-0.534 0.494,-1.071 0.733,-1.609 l 0.243,-0.565 c 0.148,-0.344 0.298,-0.688 0.44,-1.032 0.226,-0.541 0.445,-1.084 0.656,-1.628 0.124,-0.317 0.244,-0.642 0.364,-0.967 l 0.251,-0.67 c 0.207,-0.571 0.406,-1.143 0.597,-1.713 0.193,-0.576 0.379,-1.155 0.556,-1.736 l 0.127,-0.432 c 0.142,-0.477 0.272,-0.91 0.392,-1.344 0.166,-0.595 0.323,-1.194 0.471,-1.791 l 0.313,-1.342 c 0.035,-0.146 0.069,-0.293 0.101,-0.439 0.126,-0.574 0.246,-1.164 0.356,-1.752 0.101,-0.53 0.191,-1.062 0.275,-1.593 0.009,-0.048 0.018,-0.094 0.025,-0.143 0.09,-0.566 0.17,-1.131 0.241,-1.694 0.07,-0.557 0.132,-1.115 0.186,-1.671 l 0.09,-1.133 c 0.016,-0.18 0.032,-0.358 0.042,-0.536 0.036,-0.551 0.061,-1.106 0.078,-1.658 0.016,-0.521 0.022,-1.04 0.021,-1.555 v -0.105 c -0.003,-0.566 -0.016,-1.125 -0.039,-1.674 l -0.054,-0.885 c -0.013,-0.255 -0.028,-0.511 -0.049,-0.761 -0.005,-0.072 -0.015,-0.164 -0.025,-0.256 -0.02,-0.221 -0.041,-0.41 -0.061,-0.6 l -0.039,-0.369 c -0.015,-0.156 -0.03,-0.314 -0.049,-0.467 l -0.045,-0.306 c -0.047,-0.336 -0.086,-0.592 -0.127,-0.848 l -0.023,-0.153 c -0.018,-0.129 -0.037,-0.257 -0.058,-0.382 -0.02,-0.112 -0.042,-0.224 -0.066,-0.334 l -0.021,-0.105 c -0.054,-0.286 -0.111,-0.569 -0.171,-0.848 l -0.022,-0.11 c -0.021,-0.115 -0.044,-0.23 -0.069,-0.341 -0.028,-0.123 -0.058,-0.234 -0.088,-0.344 -0.097,-0.398 -0.184,-0.729 -0.275,-1.055 -0.05,-0.2 -0.082,-0.324 -0.117,-0.443 -0.033,-0.111 -0.067,-0.213 -0.103,-0.315 -0.116,-0.38 -0.247,-0.767 -0.381,-1.148 -0.063,-0.199 -0.106,-0.329 -0.152,-0.453 l -0.094,-0.231 c -0.23,-0.603 -0.472,-1.177 -0.72,-1.711 l -0.087,-0.19 c -0.031,-0.063 -0.066,-0.132 -0.104,-0.199 -0.36,-0.738 -0.752,-1.448 -1.167,-2.116 -0.046,-0.084 -0.094,-0.164 -0.144,-0.242 l -0.106,-0.159 c -0.357,-0.545 -0.729,-1.058 -1.153,-1.596 l -0.283,-0.345 c -0.48,-0.578 -0.904,-1.045 -1.331,-1.471 -0.058,-0.062 -0.117,-0.121 -0.176,-0.178 -0.429,-0.418 -0.943,-0.863 -1.538,-1.329 -0.13,-0.102 -0.271,-0.208 -0.412,-0.311 -0.617,-0.457 -1.167,-0.824 -1.718,-1.144 L 21.393,-98.514 c -0.001,0 -0.002,-0.001 -0.002,-0.002" /></g><g
           transform="translate(1159.8232,589.6016)"
           id="g250"><path
             id="path252"
             style="fill:none;stroke:#141843;stroke-width:3;stroke-linecap:butt;stroke-linejoin:miter;stroke-miterlimit:10;stroke-dasharray:none;stroke-opacity:1"
             d="M 0,0 C -0.012,-0.001 -0.024,-0.002 -0.036,-0.004 Z M 0.858,-6.947 0.832,-6.95 c 0.009,0.001 0.018,0.003 0.026,0.003 z m 44.227,-65.468 c -0.004,-0.007 -0.007,-0.014 -0.01,-0.021 z m -0.59,-1.458 c -0.006,-0.01 -0.012,-0.021 -0.017,-0.031 z m -50.841,59.641 c 0.49,-0.198 0.983,-0.413 1.477,-0.638 l 0.503,-0.236 c 0.38,-0.179 0.759,-0.365 1.14,-0.558 l 0.579,-0.301 c 0.494,-0.26 0.999,-0.533 1.507,-0.826 1.124,-0.648 2.282,-1.385 3.442,-2.186 l 0.14,-0.1 c 1.084,-0.759 2.125,-1.542 3.154,-2.372 l 0.296,-0.241 c 1.013,-0.831 1.982,-1.677 2.924,-2.552 l 0.332,-0.311 c 0.953,-0.895 1.892,-1.834 2.798,-2.793 l 0.237,-0.25 c 0.972,-1.038 1.926,-2.119 2.829,-3.204 1.78,-2.145 3.483,-4.448 5.093,-6.884 0.382,-0.578 0.746,-1.168 1.109,-1.757 l 0.563,-0.909 c 0.266,-0.424 0.532,-0.849 0.784,-1.283 0.108,-0.187 0.212,-0.375 0.316,-0.562 l 0.174,-0.313 c 0.672,-1.187 1.206,-2.174 1.68,-3.106 l 0.172,-0.333 c 0.657,-1.303 1.269,-2.604 1.828,-3.879 l 0.057,-0.133 c 0.583,-1.344 1.107,-2.643 1.586,-3.934 l 0.1,-0.265 c 0.483,-1.313 0.933,-2.658 1.336,-3.986 l 0.058,-0.2 c 0.396,-1.324 0.742,-2.627 1.043,-3.91 l 0.087,-0.373 c 0.313,-1.362 0.576,-2.707 0.781,-3.992 0.216,-1.358 0.379,-2.707 0.494,-4.069 l 0.028,-0.337 c 0.109,-1.411 0.161,-2.709 0.158,-3.967 -0.002,-0.649 -0.02,-1.279 -0.047,-1.901 l -0.034,-0.546 c -0.024,-0.42 -0.054,-0.843 -0.09,-1.257 l -0.075,-0.732 c -0.04,-0.37 -0.081,-0.726 -0.13,-1.076 -0.035,-0.256 -0.074,-0.516 -0.115,-0.772 -0.05,-0.316 -0.106,-0.64 -0.166,-0.96 -0.052,-0.28 -0.11,-0.565 -0.169,-0.847 -0.065,-0.296 -0.129,-0.576 -0.196,-0.855 -0.063,-0.259 -0.127,-0.509 -0.195,-0.755 l 7.798,4.531 c 0.322,0.186 0.664,0.416 1.078,0.723 l 0.248,0.187 c 0.391,0.305 0.71,0.58 0.983,0.843 l 0.074,0.077 c 0.292,0.289 0.576,0.603 0.884,0.973 l 0.217,0.265 c 0.305,0.385 0.567,0.748 0.797,1.102 l 0.134,0.219 c 0.294,0.468 0.597,1.016 0.873,1.589 l 0.089,0.175 c 0.205,0.445 0.385,0.874 0.559,1.333 l 0.161,0.455 c 0.103,0.293 0.201,0.578 0.29,0.873 l 0.168,0.58 c 0.074,0.264 0.139,0.514 0.201,0.769 l 0.158,0.69 c 0.045,0.211 0.09,0.434 0.132,0.66 l 0.136,0.784 c 0.03,0.195 0.061,0.398 0.09,0.603 l 0.189,1.686 c 0.02,0.219 0.029,0.409 0.039,0.599 l 0.053,0.856 c 0.016,0.412 0.027,0.884 0.03,1.363 0.001,0.521 -0.005,0.963 -0.018,1.408 -0.014,0.474 -0.036,0.951 -0.067,1.428 l -0.114,1.442 c -0.047,0.488 -0.101,0.974 -0.162,1.462 -0.062,0.487 -0.131,0.971 -0.207,1.457 l -0.023,0.128 c -0.076,0.482 -0.156,0.953 -0.246,1.425 -0.098,0.524 -0.203,1.045 -0.318,1.569 l -0.369,1.585 c -0.131,0.529 -0.271,1.061 -0.419,1.594 -0.109,0.39 -0.225,0.78 -0.342,1.168 l -0.109,0.373 c -0.177,0.581 -0.343,1.102 -0.518,1.623 -0.174,0.52 -0.354,1.035 -0.54,1.55 l -0.236,0.631 c -0.106,0.284 -0.21,0.567 -0.321,0.851 -0.194,0.5 -0.391,0.991 -0.595,1.48 -0.13,0.314 -0.265,0.625 -0.4,0.936 l -0.207,0.48 c -0.232,0.527 -0.456,1.019 -0.685,1.508 -0.253,0.54 -0.513,1.076 -0.779,1.608 l -0.396,0.771 c -0.181,0.354 -0.362,0.709 -0.549,1.06 -0.196,0.367 -0.401,0.727 -0.607,1.086 l -0.468,0.831 c -0.082,0.148 -0.163,0.296 -0.249,0.442 l -0.135,0.241 c -0.192,0.33 -0.347,0.57 -0.501,0.81 -0.131,0.204 -0.261,0.409 -0.388,0.614 l -0.225,0.367 c -0.328,0.531 -0.656,1.064 -0.999,1.586 -0.06,0.09 -0.114,0.177 -0.166,0.264 -0.635,0.955 -1.269,1.859 -1.912,2.732 l -0.092,0.126 c -0.43,0.581 -0.866,1.153 -1.31,1.717 -0.371,0.471 -0.75,0.937 -1.131,1.397 l -0.063,0.078 c -0.363,0.438 -0.756,0.897 -1.153,1.348 -0.385,0.437 -0.779,0.875 -1.178,1.306 l -0.544,0.571 c -0.228,0.242 -0.456,0.484 -0.689,0.72 -0.424,0.432 -0.848,0.852 -1.276,1.262 l -0.941,0.877 c -0.128,0.119 -0.255,0.24 -0.384,0.356 -0.442,0.398 -0.887,0.787 -1.336,1.166 l -1.336,1.091 c -0.428,0.337 -0.864,0.67 -1.304,0.993 -0.309,0.228 -0.617,0.443 -0.924,0.658 l -0.341,0.242 c -0.449,0.309 -0.869,0.585 -1.289,0.854 -0.413,0.261 -0.829,0.517 -1.247,0.763 l -0.282,0.164 c -0.32,0.185 -0.632,0.36 -0.941,0.528 l -1.19,0.615 c -0.125,0.062 -0.243,0.116 -0.36,0.17 l -0.808,0.381 c -0.343,0.154 -0.679,0.297 -1.012,0.433 l -0.198,0.079 c -0.404,0.16 -0.753,0.29 -1.099,0.414 l -0.8,0.261 c -0.11,0.037 -0.222,0.074 -0.331,0.108 l -1.545,0.404 c -0.163,0.037 -0.324,0.074 -0.485,0.108 l -0.7,0.13 c -0.242,0.041 -0.405,0.071 -0.565,0.094 l -0.758,0.09 c -0.152,0.015 -0.304,0.033 -0.454,0.045 l -0.561,0.03 c -0.224,0.011 -0.45,0.022 -0.671,0.023 -0.062,0 -0.125,0.002 -0.189,0.005 C 3.754,-6.648 3.666,-6.652 3.577,-6.654 3.304,-6.66 3.029,-6.672 2.759,-6.693 2.681,-6.699 2.606,-6.702 2.533,-6.705 2.469,-6.715 2.405,-6.723 2.342,-6.729 1.933,-6.771 1.532,-6.827 1.14,-6.902 L 0.953,-6.935 c -0.447,-0.091 -0.96,-0.234 -1.521,-0.426 l -0.246,-0.08 c -0.228,-0.083 -0.443,-0.176 -0.659,-0.27 l -0.319,-0.133 c -0.311,-0.145 -0.613,-0.301 -0.907,-0.472 l -7.806,-4.535 c 0.054,-0.013 0.109,-0.028 0.162,-0.042 0.21,-0.056 0.422,-0.114 0.637,-0.175 0.361,-0.106 0.727,-0.219 1.094,-0.34 l 0.509,-0.167 c 0.502,-0.173 1.007,-0.359 1.517,-0.56 z m 27.737,-84.284 -3.516,6.053 0.002,0.002 c 0.322,0.188 0.665,0.418 1.08,0.725 l 0.252,0.19 c 0.375,0.294 0.688,0.562 0.956,0.819 0.045,0.047 0.09,0.092 0.136,0.137 0.246,0.244 0.53,0.557 0.84,0.93 l 0.214,0.262 c 0.327,0.414 0.602,0.794 0.839,1.166 l 0.077,0.128 c 0.314,0.5 0.617,1.048 0.894,1.623 l 0.088,0.174 c 0.179,0.379 0.367,0.827 0.558,1.331 l 0.166,0.466 c 0.097,0.28 0.197,0.571 0.288,0.869 0.059,0.194 0.114,0.387 0.168,0.582 0.071,0.256 0.137,0.511 0.201,0.77 0.052,0.216 0.104,0.443 0.154,0.675 0.045,0.211 0.091,0.436 0.133,0.663 0.049,0.26 0.093,0.513 0.133,0.771 0.035,0.219 0.066,0.424 0.094,0.633 0.04,0.289 0.074,0.575 0.105,0.863 l 0.063,0.608 c 0.03,0.335 0.053,0.688 0.074,1.045 l 0.029,0.457 c 0.022,0.517 0.038,1.054 0.04,1.601 0.003,1.067 -0.043,2.183 -0.138,3.41 l -0.022,0.28 c -0.102,1.197 -0.244,2.377 -0.424,3.509 -0.188,1.18 -0.422,2.372 -0.701,3.59 l -0.077,0.33 c -0.27,1.15 -0.58,2.315 -0.924,3.465 l -0.039,0.133 c -0.387,1.281 -0.794,2.496 -1.235,3.693 l -0.084,0.227 c -0.438,1.178 -0.914,2.359 -1.416,3.514 l -0.052,0.123 c -0.536,1.225 -1.096,2.413 -1.69,3.592 l -0.161,0.312 c -0.43,0.844 -0.917,1.744 -1.536,2.839 l -0.207,0.37 c -0.08,0.146 -0.16,0.291 -0.244,0.435 -0.213,0.366 -0.44,0.726 -0.665,1.087 l -0.592,0.955 c -0.324,0.525 -0.648,1.052 -0.987,1.566 -1.46,2.209 -2.999,4.294 -4.575,6.194 l -0.071,0.086 c -0.805,0.968 -1.667,1.945 -2.553,2.89 l -0.203,0.214 c -0.819,0.866 -1.662,1.709 -2.511,2.509 l -0.308,0.287 c -0.828,0.768 -1.688,1.519 -2.545,2.222 l -0.288,0.235 c -0.915,0.739 -1.825,1.425 -2.717,2.047 l -0.134,0.095 c -1.045,0.723 -2.04,1.356 -2.999,1.91 -0.429,0.249 -0.856,0.477 -1.283,0.702 l -0.482,0.252 c -0.313,0.158 -0.631,0.312 -0.949,0.463 l -0.409,0.193 c -0.419,0.19 -0.83,0.37 -1.237,0.535 l -0.225,0.09 c -0.39,0.153 -0.777,0.294 -1.163,0.427 l -0.408,0.133 c -0.289,0.094 -0.577,0.185 -0.861,0.268 -0.163,0.047 -0.324,0.09 -0.487,0.133 -0.26,0.07 -0.516,0.134 -0.77,0.191 -0.17,0.041 -0.33,0.077 -0.488,0.11 -0.239,0.049 -0.473,0.09 -0.706,0.13 l -0.129,0.023 c -0.142,0.024 -0.283,0.049 -0.422,0.069 -0.215,0.031 -0.423,0.053 -0.631,0.076 l -0.138,0.015 c -0.153,0.017 -0.305,0.034 -0.457,0.046 -0.133,0.012 -0.264,0.017 -0.395,0.022 l -0.164,0.007 c -0.219,0.011 -0.446,0.022 -0.667,0.024 -0.122,0.002 -0.241,-0.002 -0.364,-0.006 l -0.106,-0.002 c -0.28,-0.007 -0.556,-0.019 -0.826,-0.039 -0.141,-0.011 -0.285,-0.024 -0.428,-0.037 -0.398,-0.043 -0.802,-0.098 -1.194,-0.174 l -0.162,-0.027 c -0.489,-0.102 -0.992,-0.243 -1.546,-0.431 l -0.19,-0.063 c -0.279,-0.099 -0.498,-0.194 -0.715,-0.288 l -0.322,-0.134 c -0.305,-0.143 -0.614,-0.301 -0.915,-0.475 l -3.516,6.053 21.281,12.364 c 0.428,0.245 0.884,0.48 1.357,0.701 0.125,0.059 0.262,0.116 0.401,0.174 l 0.094,0.039 c 0.322,0.14 0.64,0.273 0.965,0.394 0.079,0.035 0.157,0.065 0.237,0.093 l 0.344,0.106 c 0.759,0.255 1.478,0.453 2.189,0.603 l 0.432,0.082 c 0.507,0.096 1.043,0.174 1.629,0.237 0.116,0.018 0.226,0.033 0.337,0.044 0.134,0.011 0.257,0.017 0.38,0.02 0.377,0.027 0.774,0.047 1.177,0.055 0.149,0.011 0.283,0.021 0.43,0.017 0.088,0 0.184,-0.003 0.281,-0.007 C 4.419,0.352 4.736,0.338 5.055,0.323 L 5.156,0.32 C 5.3,0.318 5.445,0.314 5.593,0.304 5.692,0.297 5.777,0.287 5.862,0.277 6.053,0.264 6.283,0.238 6.515,0.213 L 6.776,0.186 C 6.931,0.172 7.085,0.156 7.241,0.135 7.316,0.125 7.41,0.11 7.503,0.094 7.73,0.061 7.957,0.021 8.183,-0.018 L 8.39,-0.051 c 0.148,-0.023 0.298,-0.047 0.449,-0.076 0.1,-0.019 0.197,-0.042 0.294,-0.064 0.261,-0.055 0.474,-0.104 0.688,-0.154 l 0.122,-0.026 c 0.132,-0.028 0.262,-0.057 0.396,-0.09 0.107,-0.027 0.232,-0.061 0.357,-0.098 l 0.122,-0.033 c 0.218,-0.058 0.426,-0.115 0.635,-0.176 0.167,-0.044 0.272,-0.073 0.378,-0.105 0.161,-0.049 0.339,-0.107 0.517,-0.168 l 0.897,-0.295 c 0.427,-0.15 0.856,-0.31 1.287,-0.48 l 0.155,-0.063 c 0.462,-0.185 0.928,-0.383 1.398,-0.592 l 0.898,-0.423 c 0.173,-0.08 0.346,-0.161 0.52,-0.247 l 1.415,-0.731 c 0.374,-0.203 0.74,-0.408 1.108,-0.62 l 0.339,-0.198 c 0.488,-0.287 0.974,-0.584 1.456,-0.892 0.491,-0.313 0.978,-0.634 1.46,-0.965 l 0.421,-0.297 c 0.357,-0.25 0.714,-0.5 1.067,-0.76 0.498,-0.367 0.997,-0.748 1.493,-1.138 L 27.3,-9.59 c 0.158,-0.127 0.315,-0.254 0.471,-0.386 0.508,-0.428 1.012,-0.868 1.509,-1.316 0.163,-0.147 0.326,-0.3 0.489,-0.452 l 0.993,-0.926 c 0.481,-0.463 0.956,-0.932 1.424,-1.408 0.261,-0.266 0.525,-0.545 0.788,-0.824 l 0.593,-0.624 c 0.432,-0.466 0.867,-0.947 1.296,-1.435 0.441,-0.504 0.872,-1.008 1.298,-1.519 l 0.084,-0.106 c 0.382,-0.457 0.798,-0.971 1.208,-1.492 0.478,-0.608 0.947,-1.223 1.409,-1.846 l 0.116,-0.156 c 0.71,-0.965 1.409,-1.962 2.078,-2.963 0.065,-0.098 0.126,-0.195 0.185,-0.293 0.415,-0.633 0.783,-1.23 1.151,-1.826 l 0.22,-0.359 c 0.107,-0.172 0.215,-0.342 0.325,-0.512 0.202,-0.316 0.403,-0.631 0.593,-0.955 0.05,-0.084 0.102,-0.178 0.154,-0.272 0.149,-0.26 0.258,-0.455 0.367,-0.65 l 0.428,-0.759 c 0.236,-0.415 0.472,-0.831 0.697,-1.252 0.209,-0.39 0.41,-0.785 0.612,-1.18 l 0.433,-0.843 c 0.282,-0.566 0.567,-1.154 0.844,-1.745 0.25,-0.534 0.494,-1.071 0.733,-1.609 l 0.243,-0.565 c 0.148,-0.344 0.298,-0.688 0.44,-1.032 0.226,-0.541 0.445,-1.084 0.656,-1.628 0.124,-0.317 0.244,-0.642 0.364,-0.967 l 0.251,-0.67 c 0.207,-0.571 0.406,-1.143 0.597,-1.713 0.193,-0.576 0.379,-1.155 0.556,-1.736 l 0.127,-0.432 c 0.142,-0.477 0.272,-0.91 0.392,-1.344 0.166,-0.595 0.323,-1.194 0.471,-1.791 l 0.313,-1.342 c 0.035,-0.146 0.069,-0.293 0.101,-0.439 0.126,-0.574 0.246,-1.164 0.356,-1.752 0.101,-0.53 0.191,-1.062 0.275,-1.593 0.009,-0.048 0.018,-0.094 0.025,-0.143 0.09,-0.566 0.17,-1.131 0.241,-1.694 0.07,-0.557 0.132,-1.115 0.186,-1.671 l 0.09,-1.133 c 0.016,-0.18 0.032,-0.358 0.042,-0.536 0.036,-0.551 0.061,-1.106 0.078,-1.658 0.016,-0.521 0.022,-1.04 0.021,-1.555 v -0.105 c -0.003,-0.566 -0.016,-1.125 -0.039,-1.674 l -0.054,-0.885 c -0.013,-0.255 -0.028,-0.511 -0.049,-0.761 -0.005,-0.072 -0.015,-0.164 -0.025,-0.256 -0.02,-0.221 -0.041,-0.41 -0.061,-0.6 l -0.039,-0.369 c -0.015,-0.156 -0.03,-0.314 -0.049,-0.467 l -0.045,-0.306 c -0.047,-0.336 -0.086,-0.592 -0.127,-0.848 l -0.023,-0.153 c -0.018,-0.129 -0.037,-0.257 -0.058,-0.382 -0.02,-0.112 -0.042,-0.224 -0.066,-0.334 l -0.021,-0.105 c -0.054,-0.286 -0.111,-0.569 -0.171,-0.848 l -0.022,-0.11 c -0.021,-0.115 -0.044,-0.23 -0.069,-0.341 -0.028,-0.123 -0.058,-0.234 -0.088,-0.344 -0.097,-0.398 -0.184,-0.729 -0.275,-1.055 -0.05,-0.2 -0.082,-0.324 -0.117,-0.443 -0.033,-0.111 -0.067,-0.213 -0.103,-0.315 -0.116,-0.38 -0.247,-0.767 -0.381,-1.148 -0.063,-0.199 -0.106,-0.329 -0.152,-0.453 l -0.094,-0.231 c -0.23,-0.603 -0.472,-1.177 -0.72,-1.711 l -0.087,-0.19 c -0.031,-0.063 -0.066,-0.132 -0.104,-0.199 -0.36,-0.738 -0.752,-1.448 -1.167,-2.116 -0.046,-0.084 -0.094,-0.164 -0.144,-0.242 l -0.106,-0.159 c -0.357,-0.545 -0.729,-1.058 -1.153,-1.596 l -0.283,-0.345 c -0.48,-0.578 -0.904,-1.045 -1.331,-1.471 -0.058,-0.062 -0.117,-0.121 -0.176,-0.178 -0.429,-0.418 -0.943,-0.863 -1.538,-1.329 -0.13,-0.102 -0.271,-0.208 -0.412,-0.311 -0.617,-0.457 -1.167,-0.824 -1.718,-1.144 L 21.393,-98.514 c -0.001,0 -0.002,-0.001 -0.002,-0.002 z" /></g><g
           transform="translate(1955.1211,510.8271)"
           id="g254"><path
             id="path256"
             style="fill:none;stroke:#141843;stroke-width:10;stroke-linecap:round;stroke-linejoin:round;stroke-miterlimit:10;stroke-dasharray:none;stroke-opacity:1"
             d="M 0,0 -105.786,265.741 -49.007,-24.411" /></g><g
           transform="translate(1807.626,472.7705)"
           id="g258"><path
             id="path260"
             style="fill:none;stroke:#141843;stroke-width:10;stroke-linecap:round;stroke-linejoin:round;stroke-miterlimit:10;stroke-dasharray:none;stroke-opacity:1"
             d="M 0,0 41.709,303.797 -94.061,-67.439" /></g><g
           transform="translate(1814.6689,512.5615)"
           id="g262"><path
             id="path264"
             style="fill:none;stroke:#141843;stroke-width:10;stroke-linecap:round;stroke-linejoin:round;stroke-miterlimit:10;stroke-dasharray:none;stroke-opacity:1"
             d="M 0,0 C 0,0 37.539,45.658 84.11,5.59" /></g><g
           transform="translate(1821.5859,566.5732)"
           id="g266"><path
             id="path268"
             style="fill:none;stroke:#141843;stroke-width:10;stroke-linecap:round;stroke-linejoin:round;stroke-miterlimit:10;stroke-dasharray:none;stroke-opacity:1"
             d="M 0,0 C 0,0 29.085,44.486 67.751,3.323" /></g><g
           transform="translate(1831.2354,639.1528)"
           id="g270"><path
             id="path272"
             style="fill:none;stroke:#141843;stroke-width:10;stroke-linecap:round;stroke-linejoin:round;stroke-miterlimit:10;stroke-dasharray:none;stroke-opacity:1"
             d="M 0,0 C 0,0 8.291,15.227 21.404,15.092 27.888,15.026 34.967,14.173 43.955,0.027" /></g><g
           transform="translate(1810.6445,494.7627)"
           id="g274"><path
             id="path276"
             style="fill:none;stroke:#141843;stroke-width:10;stroke-linecap:round;stroke-linejoin:round;stroke-miterlimit:10;stroke-dasharray:none;stroke-opacity:1"
             d="M 0,0 C 0,0 -26.328,49.053 -74.523,-27.947" /></g><g
           transform="translate(1764.3613,541.9707)"
           id="g278"><path
             id="path280"
             style="fill:none;stroke:#141843;stroke-width:10;stroke-linecap:round;stroke-linejoin:round;stroke-miterlimit:10;stroke-dasharray:none;stroke-opacity:1"
             d="M 0,0 C 0,0 30.149,29.279 52.924,0.936" /></g><g
           transform="translate(1786.6953,601.4194)"
           id="g282"><path
             id="path284"
             style="fill:none;stroke:#141843;stroke-width:10;stroke-linecap:round;stroke-linejoin:round;stroke-miterlimit:10;stroke-dasharray:none;stroke-opacity:1"
             d="M 0,0 C 0,0 26.628,17.675 36.367,-7.609" /></g><g
           transform="translate(1903.1016,501.8115)"
           id="g286"><path
             id="path288"
             style="fill:none;stroke:#141843;stroke-width:10;stroke-linecap:round;stroke-linejoin:round;stroke-miterlimit:10;stroke-dasharray:none;stroke-opacity:1"
             d="M 0,0 C 0,0 10.028,37.022 43.361,27.746" /></g><g
           transform="translate(1893.7314,554.5889)"
           id="g290"><path
             id="path292"
             style="fill:none;stroke:#141843;stroke-width:10;stroke-linecap:round;stroke-linejoin:round;stroke-miterlimit:10;stroke-dasharray:none;stroke-opacity:1"
             d="M 0,0 C 0,0 12.495,23.711 38.279,13.641" /></g><g
           transform="translate(1882.2412,610.1685)"
           id="g294"><path
             id="path296"
             style="fill:none;stroke:#141843;stroke-width:10;stroke-linecap:round;stroke-linejoin:round;stroke-miterlimit:10;stroke-dasharray:none;stroke-opacity:1"
             d="M 0,0 C 0,0 11.3,16.396 29.172,8.261" /></g><g
           transform="translate(1870.3994,673.7583)"
           id="g298"><path
             id="path300"
             style="fill:none;stroke:#141843;stroke-width:10;stroke-linecap:round;stroke-linejoin:round;stroke-miterlimit:10;stroke-dasharray:none;stroke-opacity:1"
             d="M 0,0 C 0,0 6.294,11.862 18.054,0.985" /></g><g
           transform="translate(1900.4736,886.8477)"
           id="g302"><path
             id="path304"
             style="fill:#fbe3cc;fill-opacity:1;fill-rule:nonzero;stroke:none"
             d="m 0,0 v -16.65 h -51.896 v 13.406 l 28.976,45.625 h -28.434 v 16.65 H -0.54 V 45.625 L -29.516,0 Z" /></g><g
           transform="translate(1833.627,832.7827)"
           id="g306"><path
             id="path308"
             style="fill:#fbe3cc;fill-opacity:1;fill-rule:nonzero;stroke:none"
             d="m 0,0 v -15.136 h -43.246 v 10.811 l 20.434,28.11 H -42.165 V 38.921 H -1.081 V 28.11 L -21.515,0 Z" /></g><g
           transform="translate(1775.1387,783.1084)"
           id="g310"><path
             id="path312"
             style="fill:#fbe3cc;fill-opacity:1;fill-rule:nonzero;stroke:none"
             d="m 0,0 v -12.007 h -34.306 v 8.576 l 16.209,22.299 H -33.449 V 30.875 H -0.857 V 22.299 L -17.067,0 Z" /></g></g></g></g></svg>