<?xml version="1.0" encoding="utf-8"?>
<!-- Generator: Adobe Illustrator 22.0.1, SVG Export Plug-In . SVG Version: 6.00 Build 0)  -->
<svg version="1.0" id="Ebene_1" xmlns="http://www.w3.org/2000/svg" xmlns:xlink="http://www.w3.org/1999/xlink" x="0px" y="0px"
	 viewBox="0 0 1920 995.9" enable-background="new 0 0 1920 995.9" xml:space="preserve">
<g>
	<rect x="-3.7" y="1.1" fill="#FBE3CC" width="1923.7" height="997"/>
	<polygon fill="#141843" points="1253,174.5 -2.2,895.2 -2.8,-0.9 1260.5,-0.3 	"/>
	<polygon fill="#FF6167" points="1249.2,-0.3 1251.5,185 1920,560 1920.5,0.3 	"/>
	<g>
		<path fill="#141843" d="M1920,561l-677.4-379.9c-2.5-1.4-3.4-4.6-2-7.2c1.4-2.5,4.6-3.4,7.2-2L1920,549"/>
	</g>
</g>
<polygon fill="#E9D3BF" points="1859.2,689.6 1912,718.6 1871.7,742 1818.9,714.5 "/>
<g>
	
		<polygon fill="#FBE3CC" stroke="#141843" stroke-width="10" stroke-linecap="round" stroke-linejoin="round" stroke-miterlimit="10" points="
		1813.7,663.9 1813.7,638.2 1836.1,625.3 1836.2,651.2 	"/>
	
		<polygon fill="#FBE3CC" stroke="#141843" stroke-width="10" stroke-linecap="round" stroke-linejoin="round" stroke-miterlimit="10" points="
		1780,683.8 1780,644.9 1858.6,690 1858.6,728.9 1813.7,703 	"/>
	<polygon fill="#141843" points="1791.2,664.2 1802.5,670.7 1802.5,696.6 1791.2,690.2 	"/>
	<polygon fill="#141843" points="1836.1,690 1836.1,703 1847.3,709.5 1847.4,696.5 	"/>
	<polygon fill="#141843" points="1813.7,677.2 1813.7,690.1 1824.9,696.6 1824.9,683.6 	"/>
	
		<polygon fill="#FF6167" stroke="#141843" stroke-width="10" stroke-linecap="round" stroke-linejoin="round" stroke-miterlimit="10" points="
		1858.6,728.9 1892.3,709.5 1892.3,670.6 1875.5,667.3 1858.6,690 	"/>
	<polygon fill="#141843" points="1881.1,690 1881.1,703 1869.8,709.5 1869.8,696.5 	"/>
	
		<polygon fill="#BFAE9E" stroke="#141843" stroke-width="10" stroke-linecap="round" stroke-linejoin="round" stroke-miterlimit="10" points="
		1813.7,663.9 1830.5,641.2 1875.5,667.4 1858.6,690.1 	"/>
	
		<polygon fill="#BFAE9E" stroke="#141843" stroke-width="10" stroke-linecap="round" stroke-linejoin="round" stroke-miterlimit="10" points="
		1892.3,670.6 1847.4,644.7 1830.5,641.2 1875.5,667.4 	"/>
	
		<polygon fill="#FF6167" stroke="#141843" stroke-width="10" stroke-linecap="round" stroke-linejoin="round" stroke-miterlimit="10" points="
		1780,644.9 1780,618.8 1813.7,638.2 1813.7,667.5 	"/>
	
		<polygon fill="#BFAE9E" stroke="#141843" stroke-width="10" stroke-linecap="round" stroke-linejoin="round" stroke-miterlimit="10" points="
		1780,618.8 1802.5,605.8 1836.1,625.3 1813.7,638.2 	"/>
	<polygon fill="#141843" points="1791.2,638.2 1791.2,651.2 1802.5,657.7 1802.5,644.7 	"/>
</g>
<polygon fill="#E9D3BF" points="1474.2,572.6 1708,705.6 1380.7,897 1146.9,765.5 "/>
<polygon fill="#E9D3BF" points="1248.2,893.6 1301,922.6 1227.7,967 1174.9,939.5 "/>
<polygon fill="#E9D3BF" points="1148.2,624.6 1201,653.6 1163.7,675 1110.9,647.5 "/>
<polygon fill="#E9D3BF" points="901.2,523.6 954,552.6 894.7,587 841.9,559.5 "/>
<path fill="none" stroke="#C83617" stroke-linecap="round" stroke-linejoin="round" stroke-miterlimit="10" d="M1433.4,190.3
	c0,0-1.7,15.1-8.9,20.7c-7.3,5.6-27.4,16.2-35.8,32.4l76-48.1C1464.7,195.3,1449.1,183,1433.4,190.3z"/>
<path fill="none" stroke="#C83617" stroke-linecap="round" stroke-linejoin="round" stroke-miterlimit="10" d="M1483.9,227
	c4.8-22.8-20.1-54.9-50.9-61.4c-23.3-4.9-45.5,1.5-57,14.8c0,0-3.2,13.4,3.2,24.9c0,0-8.9,23.6-11.5,24.3
	c-2.6,0.6-15.3,9.6-7.7,27.5l58.1,24.3L1483.9,227z"/>
<g id="XMLID_903_">
	<g id="XMLID_947_">
		
			<ellipse id="XMLID_952_" transform="matrix(1 -2.832439e-03 2.832439e-03 1 -2.2713 2.8268)" fill="#E9D3BF" cx="996.9" cy="803.3" rx="42.7" ry="24.7"/>
	</g>
	<g id="XMLID_904_">
		<g id="XMLID_921_">
			<g id="XMLID_922_" enable-background="new    ">
				<g id="XMLID_945_">
					<polygon id="XMLID_946_" fill="#141843" points="1006.4,725.6 1006.1,809.2 996.6,814.7 996.9,731.2 					"/>
				</g>
				<g id="XMLID_943_">
					<polygon id="XMLID_944_" fill="#141843" points="996.9,731.2 996.6,814.7 987.1,809.2 987.3,725.6 					"/>
				</g>
				<g id="XMLID_923_">
					<polygon id="XMLID_942_" fill="#8F7B69" points="1006.4,725.6 996.9,731.2 987.3,725.6 996.8,720.1 					"/>
				</g>
			</g>
		</g>
		<g id="XMLID_905_">
			<g id="XMLID_918_">
				
					<polygon id="XMLID_920_" fill="#FBE3CC" stroke="#141843" stroke-width="10" stroke-linecap="round" stroke-linejoin="round" stroke-miterlimit="10" points="
					996.7,679.7 996.7,785 1037,769.7 				"/>
				
					<polygon id="XMLID_919_" fill="#FBE3CC" stroke="#141843" stroke-width="10" stroke-linecap="round" stroke-linejoin="round" stroke-miterlimit="10" points="
					996.7,679.7 996.7,785 956.4,769.7 				"/>
			</g>
			<polygon id="XMLID_917_" opacity="0.5" fill="#BFAE9E" points="1028,749.5 996,772.4 961.4,762.1 970.7,737.9 			"/>
			<g id="XMLID_914_">
				
					<polygon id="XMLID_916_" fill="#FBE3CC" stroke="#141843" stroke-width="10" stroke-linecap="round" stroke-linejoin="round" stroke-miterlimit="10" points="
					996.7,630 996.7,761.3 1047,742.3 				"/>
				
					<polygon id="XMLID_915_" fill="#FBE3CC" stroke="#141843" stroke-width="10" stroke-linecap="round" stroke-linejoin="round" stroke-miterlimit="10" points="
					996.7,630 996.7,761.3 946.5,742.3 				"/>
			</g>
			<polygon id="XMLID_913_" opacity="0.5" fill="#BFAE9E" points="1024,690.9 996.7,701.2 969.5,690.9 959.6,709.4 994.6,723.2 
				1024,690.9 			"/>
			<g id="XMLID_910_">
				
					<polygon id="XMLID_912_" fill="#FBE3CC" stroke="#141843" stroke-width="10" stroke-linecap="round" stroke-linejoin="round" stroke-miterlimit="10" points="
					996.7,595.9 996.7,701.2 1037,685.9 				"/>
				
					<polygon id="XMLID_911_" fill="#FBE3CC" stroke="#141843" stroke-width="10" stroke-linecap="round" stroke-linejoin="round" stroke-miterlimit="10" points="
					996.7,595.9 996.7,701.2 956.4,685.9 				"/>
			</g>
			<polygon id="XMLID_909_" opacity="0.5" fill="#BFAE9E" points="1015.8,638.6 994.6,667.5 968.9,659.7 983.3,626 			"/>
			<g id="XMLID_906_">
				
					<polygon id="XMLID_908_" fill="#FBE3CC" stroke="#141843" stroke-width="10" stroke-linecap="round" stroke-linejoin="round" stroke-miterlimit="10" points="
					996.7,583.4 996.7,645.8 1020.6,636.8 				"/>
				
					<polygon id="XMLID_907_" fill="#FBE3CC" stroke="#141843" stroke-width="10" stroke-linecap="round" stroke-linejoin="round" stroke-miterlimit="10" points="
					996.7,583.4 996.7,645.8 972.8,636.8 				"/>
			</g>
		</g>
	</g>
</g>
<g id="XMLID_36_">
	<g id="XMLID_62_">
		
			<ellipse id="XMLID_63_" transform="matrix(1 -2.832439e-03 2.832439e-03 1 -1.0692 2.8094)" fill="#E9D3BF" cx="991.3" cy="378.9" rx="24.4" ry="14.2"/>
	</g>
	<g id="XMLID_37_">
		<g id="XMLID_54_">
			<g id="XMLID_55_" enable-background="new    ">
				<g id="XMLID_60_">
					<polygon id="XMLID_61_" fill="#141843" points="996.7,334.4 996.6,382.3 991.2,385.4 991.3,337.6 					"/>
				</g>
				<g id="XMLID_58_">
					<polygon id="XMLID_59_" fill="#141843" points="991.3,337.6 991.2,385.4 985.7,382.3 985.8,334.4 					"/>
				</g>
				<g id="XMLID_56_">
					<polygon id="XMLID_57_" fill="#8F7B69" points="996.7,334.4 991.3,337.6 985.8,334.4 991.3,331.3 					"/>
				</g>
			</g>
		</g>
		<g id="XMLID_38_">
			<g id="XMLID_51_">
				
					<polygon id="XMLID_53_" fill="#FBE3CC" stroke="#141843" stroke-width="10" stroke-linecap="round" stroke-linejoin="round" stroke-miterlimit="10" points="
					991.2,308.2 991.2,368.4 1014.3,359.7 				"/>
				
					<polygon id="XMLID_52_" fill="#FBE3CC" stroke="#141843" stroke-width="10" stroke-linecap="round" stroke-linejoin="round" stroke-miterlimit="10" points="
					991.2,308.2 991.2,368.4 968.2,359.7 				"/>
			</g>
			<polygon id="XMLID_50_" opacity="0.5" fill="#BFAE9E" points="1009.1,348.1 990.8,361.2 971,355.3 976.3,341.5 			"/>
			<g id="XMLID_47_">
				
					<polygon id="XMLID_49_" fill="#FBE3CC" stroke="#141843" stroke-width="10" stroke-linecap="round" stroke-linejoin="round" stroke-miterlimit="10" points="
					991.2,279.7 991.2,354.9 1020,344 				"/>
				
					<polygon id="XMLID_48_" fill="#FBE3CC" stroke="#141843" stroke-width="10" stroke-linecap="round" stroke-linejoin="round" stroke-miterlimit="10" points="
					991.2,279.7 991.2,354.9 962.5,344 				"/>
			</g>
			<polygon id="XMLID_46_" opacity="0.5" fill="#BFAE9E" points="1006.8,314.5 991.2,320.4 975.6,314.5 970,325.1 990,333 
				1006.8,314.5 			"/>
			<g id="XMLID_43_">
				
					<polygon id="XMLID_45_" fill="#FBE3CC" stroke="#141843" stroke-width="10" stroke-linecap="round" stroke-linejoin="round" stroke-miterlimit="10" points="
					991.2,260.2 991.2,320.4 1014.3,311.7 				"/>
				
					<polygon id="XMLID_44_" fill="#FBE3CC" stroke="#141843" stroke-width="10" stroke-linecap="round" stroke-linejoin="round" stroke-miterlimit="10" points="
					991.2,260.2 991.2,320.4 968.2,311.7 				"/>
			</g>
			<polygon id="XMLID_42_" opacity="0.5" fill="#BFAE9E" points="1002.2,284.6 990,301.1 975.3,296.7 983.5,277.4 			"/>
			<g id="XMLID_39_">
				
					<polygon id="XMLID_41_" fill="#FBE3CC" stroke="#141843" stroke-width="10" stroke-linecap="round" stroke-linejoin="round" stroke-miterlimit="10" points="
					991.2,253 991.2,288.7 1004.9,283.6 				"/>
				
					<polygon id="XMLID_40_" fill="#FBE3CC" stroke="#141843" stroke-width="10" stroke-linecap="round" stroke-linejoin="round" stroke-miterlimit="10" points="
					991.2,253 991.2,288.7 977.6,283.6 				"/>
			</g>
		</g>
	</g>
</g>
<g id="XMLID_8_">
	<g id="XMLID_34_">
		
			<ellipse id="XMLID_35_" transform="matrix(1 -2.832439e-03 2.832439e-03 1 -2.5361 4.5973)" fill="#E9D3BF" cx="1621.8" cy="897.7" rx="28.3" ry="16.4"/>
	</g>
	<g id="XMLID_9_">
		<g id="XMLID_26_">
			<g id="XMLID_27_" enable-background="new    ">
				<g id="XMLID_32_">
					<polygon id="XMLID_33_" fill="#141843" points="1628.1,846.3 1628,901.6 1621.7,905.2 1621.8,849.9 					"/>
				</g>
				<g id="XMLID_30_">
					<polygon id="XMLID_31_" fill="#141843" points="1621.8,849.9 1621.7,905.2 1615.3,901.6 1615.5,846.3 					"/>
				</g>
				<g id="XMLID_28_">
					<polygon id="XMLID_29_" fill="#8F7B69" points="1628.1,846.3 1621.8,849.9 1615.5,846.3 1621.8,842.6 					"/>
				</g>
			</g>
		</g>
		<g id="XMLID_10_">
			<g id="XMLID_23_">
				
					<polygon id="XMLID_25_" fill="#FBE3CC" stroke="#141843" stroke-width="10" stroke-linecap="round" stroke-linejoin="round" stroke-miterlimit="10" points="
					1621.7,815.9 1621.7,885.5 1648.4,875.5 				"/>
				
					<polygon id="XMLID_24_" fill="#FBE3CC" stroke="#141843" stroke-width="10" stroke-linecap="round" stroke-linejoin="round" stroke-miterlimit="10" points="
					1621.7,815.9 1621.7,885.5 1595.1,875.5 				"/>
			</g>
			<polygon id="XMLID_22_" opacity="0.5" fill="#BFAE9E" points="1642.4,862.1 1621.3,877.2 1598.4,870.4 1604.5,854.4 			"/>
			<g id="XMLID_19_">
				
					<polygon id="XMLID_21_" fill="#FBE3CC" stroke="#141843" stroke-width="10" stroke-linecap="round" stroke-linejoin="round" stroke-miterlimit="10" points="
					1621.7,783 1621.7,869.9 1655,857.3 				"/>
				
					<polygon id="XMLID_20_" fill="#FBE3CC" stroke="#141843" stroke-width="10" stroke-linecap="round" stroke-linejoin="round" stroke-miterlimit="10" points="
					1621.7,783 1621.7,869.9 1588.5,857.3 				"/>
			</g>
			<polygon id="XMLID_18_" opacity="0.5" fill="#BFAE9E" points="1639.8,823.3 1621.7,830.1 1603.7,823.3 1597.2,835.5 
				1620.3,844.7 1639.8,823.3 			"/>
			<g id="XMLID_15_">
				
					<polygon id="XMLID_17_" fill="#FBE3CC" stroke="#141843" stroke-width="10" stroke-linecap="round" stroke-linejoin="round" stroke-miterlimit="10" points="
					1621.7,760.4 1621.7,830.1 1648.4,820 				"/>
				
					<polygon id="XMLID_16_" fill="#FBE3CC" stroke="#141843" stroke-width="10" stroke-linecap="round" stroke-linejoin="round" stroke-miterlimit="10" points="
					1621.7,760.4 1621.7,830.1 1595.1,820 				"/>
			</g>
			<polygon id="XMLID_14_" opacity="0.5" fill="#BFAE9E" points="1634.4,788.6 1620.3,807.8 1603.3,802.6 1612.8,780.3 			"/>
			<g id="XMLID_11_">
				
					<polygon id="XMLID_13_" fill="#FBE3CC" stroke="#141843" stroke-width="10" stroke-linecap="round" stroke-linejoin="round" stroke-miterlimit="10" points="
					1621.7,752.1 1621.7,793.4 1637.5,787.4 				"/>
				
					<polygon id="XMLID_12_" fill="#FBE3CC" stroke="#141843" stroke-width="10" stroke-linecap="round" stroke-linejoin="round" stroke-miterlimit="10" points="
					1621.7,752.1 1621.7,793.4 1605.9,787.4 				"/>
			</g>
		</g>
	</g>
</g>
<g>
	
		<line fill="none" stroke="#FF6167" stroke-width="10" stroke-linecap="round" stroke-linejoin="round" stroke-miterlimit="10" x1="1067.8" y1="289.7" x2="970.6" y2="276.9"/>
	
		<line fill="none" stroke="#FF6167" stroke-width="10" stroke-linecap="round" stroke-linejoin="round" stroke-miterlimit="10" x1="1097.5" y1="293.6" x2="1087.1" y2="292.2"/>
	
		<line fill="none" stroke="#FF6167" stroke-width="10" stroke-linecap="round" stroke-linejoin="round" stroke-miterlimit="10" x1="1118.4" y1="341.7" x2="1088.1" y2="403.3"/>
	
		<line fill="none" stroke="#FF6167" stroke-width="10" stroke-linecap="round" stroke-linejoin="round" stroke-miterlimit="10" x1="1119.9" y1="184.4" x2="1116.8" y2="170"/>
	
		<line fill="none" stroke="#FF6167" stroke-width="10" stroke-linecap="round" stroke-linejoin="round" stroke-miterlimit="10" x1="1134.4" y1="251" x2="1124.3" y2="204.6"/>
</g>
<polygon fill="#FBE3CC" stroke="#141843" stroke-width="10" stroke-linecap="round" stroke-linejoin="round" stroke-miterlimit="10" points="
	1137.2,911.8 1137.2,847 1193.3,879.3 1193.3,944.1 "/>
<polygon fill="#141843" points="1148.3,892.3 1148.3,905.3 1159.6,911.8 1159.6,898.8 "/>
<polygon fill="#141843" points="1148.3,866.3 1148.3,879.3 1159.6,885.8 1159.6,872.8 "/>
<polygon fill="#141843" points="1170.8,905.3 1170.8,918.3 1182.1,924.8 1182.1,911.8 "/>
<polygon fill="#141843" points="1170.8,879.4 1170.8,892.3 1182.1,898.9 1182.1,885.8 "/>
<g>
	
		<polygon fill="#BFAE9E" stroke="#141843" stroke-width="10" stroke-linecap="round" stroke-linejoin="round" stroke-miterlimit="10" points="
		1137.2,846.9 1193.3,879.4 1227,860 1170.8,827.4 	"/>
</g>
<polygon fill="#FBE3CC" stroke="#141843" stroke-width="10" stroke-linecap="round" stroke-linejoin="round" stroke-miterlimit="10" points="
	1170.9,827.5 1170.9,788.5 1227,820.9 1227,859.8 "/>
<polygon fill="#141843" points="1182.1,808 1182.1,821 1193.3,827.5 1193.4,814.5 "/>
<polygon fill="#141843" points="1204.6,821 1204.6,834 1215.8,840.5 1215.9,827.5 "/>
<g>
	
		<polygon fill="#BFAE9E" stroke="#141843" stroke-width="10" stroke-linecap="round" stroke-linejoin="round" stroke-miterlimit="10" points="
		1170.9,788.5 1227.1,820.9 1260.7,775.7 1204.6,743.1 	"/>
</g>
<polygon fill="#FF6167" stroke="#141843" stroke-width="10" stroke-linecap="round" stroke-linejoin="round" stroke-miterlimit="10" points="
	1227,820.9 1227,860 1227,860.4 1227,860 1193.3,879.3 1193.3,944.1 1215.7,931.1 1215.7,905.2 1238,892.3 1238.2,918.1 
	1260.7,905.2 1260.7,775.7 "/>
<polygon fill="#FBE3CC" stroke="#141843" stroke-width="10" stroke-linecap="round" stroke-linejoin="round" stroke-miterlimit="10" points="
	1238.2,918.1 1226.9,911.7 1226.9,898.7 1238.2,892.3 "/>
<polygon fill="#141843" points="1215.7,879.2 1215.7,892.2 1204.5,898.7 1204.5,885.7 "/>
<polygon fill="#141843" points="1238.2,866.3 1238.2,879.3 1227,885.8 1226.9,872.8 "/>
<polygon fill="#141843" points="1249.4,838.9 1249.4,851.9 1238.2,858.4 1238.2,845.4 "/>
<polygon fill="#141843" points="1249.4,813 1249.4,826 1238.2,832.5 1238.2,819.5 "/>
<g>
	
		<polygon fill="#FBE3CC" stroke="#141843" stroke-width="10" stroke-linecap="round" stroke-linejoin="round" stroke-miterlimit="10" points="
		1079.5,625.8 1079.5,586.9 1135.7,619.3 1135.7,658.2 1090.8,632.3 	"/>
	<polygon fill="#141843" points="1090.7,606.3 1102,612.8 1102,638.7 1090.8,632.3 	"/>
	<polygon fill="#141843" points="1113.2,619.3 1113.2,632.3 1124.4,638.8 1124.4,625.8 	"/>
	
		<polygon fill="#FF6167" stroke="#141843" stroke-width="10" stroke-linecap="round" stroke-linejoin="round" stroke-miterlimit="10" points="
		1135.7,658.2 1169.4,638.8 1169.4,599.9 1152.6,596.6 1135.7,619.3 	"/>
	<polygon fill="#141843" points="1158.2,619.3 1158.2,632.3 1146.9,638.8 1146.9,625.8 	"/>
	
		<polygon fill="#BFAE9E" stroke="#141843" stroke-width="10" stroke-linecap="round" stroke-linejoin="round" stroke-miterlimit="10" points="
		1079.5,586.9 1096.4,564.2 1152.6,596.6 1135.7,619.3 	"/>
	
		<polygon fill="#BFAE9E" stroke="#141843" stroke-width="10" stroke-linecap="round" stroke-linejoin="round" stroke-miterlimit="10" points="
		1169.4,599.9 1113.2,567.5 1096.4,564.2 1152.6,596.6 	"/>
</g>
<g>
	<path fill="#E9D3BF" d="M1577,745c-0.1-2.1,35.1-10.5,39-11.4c24-5.8,52.5-4.5,60.6-34.2c0.6-2.2,0.3-28.5-2.2-27.3
		C1674.4,672.1,1576,717.1,1577,745z"/>
	<path fill="#E9D3BF" d="M1769.6,751.8c0,0-7,12.8-7,12.8c-7.7,27.6-11,56.7-24.5,82.5c-8,15.3-11.4,30.7-13.2,47.8
		c-1,8.7-9.1,16.3-1.5,21.8c8.6,6.3,22.7-0.1,31.6-2.6c11.4-3.2,23.6-6.3,30.8-16.6c7.5-10.8,6.6-24.9,6.5-37.4
		c-0.1-14.1-1.5-28-3.9-41.9c-2.8-16-10-40.1-0.2-55.2C1790.4,759.3,1779.1,738.4,1769.6,751.8z"/>
	
		<path fill="#FDEEE0" stroke="#141843" stroke-width="10" stroke-linecap="round" stroke-linejoin="round" stroke-miterlimit="10" d="
		M1742.6,748.8c0,0-7,12.8-7,12.8c-7.7,27.6-11,56.7-24.5,82.5c-8,15.3-11.4,30.7-13.2,47.8c-1,8.7,0.9,21.3,8.5,26.8
		c4.4,3.3,8.9,2.6,13.9,1c7.4-2.5,14.6-1.7,22-3.7c11.4-3,24-17.1,26-28.6c2.4-13.4,1.8-27.9,2.3-41.5c0.6-15.8-2.3-32.5,2.6-47.8
		c1.4-4.3,21.3-37.6,25.1-35.3C1798.1,762.8,1752.1,735.4,1742.6,748.8z"/>
	
		<path fill="#FDEEE0" stroke="#141843" stroke-width="10" stroke-linecap="round" stroke-linejoin="round" stroke-miterlimit="10" d="
		M1660.2,680.4c0,0,0.6,14,0,19.2c-0.6,5.1-8.9,16.6-18.5,17.2s-32.6,2.6-39,5.7c-6.4,3.2-19.8,18.5-26.2,22.4
		c-9,5.4-18.4,11.8-28.5,13.1c-6.8,0.9-22.1,0.9-27-6.7c-4.8-7.5-0.4-20.4,1.9-28.1c2.9-9.6,6.3-17.6,16.1-22.2
		c13.5-6.4,29.3-8,43.2-13.9c6.5-2.8,13-6,18.6-10.3c0.9-0.7,12.2-12.7,9.6-13.6C1610.4,663.2,1660.2,680.4,1660.2,680.4z"/>
	<g>
		<path fill="#FF6167" d="M1920,359l-22.9,3.8l-151.3,77.9c0,0-28.7,12.1-28.7,12.1c4.4,34,9.3,68,12,102.2
			c1.4,17.4,2.2,34.8,2.1,52.2c-0.1,14-2.7,27.8-3.7,41.8c-1,13.4,3.8,26.6,2.8,40c-0.9,11.2-7.1,19.8-4.8,31.6
			c4.2,21.7,33.3,46.1,55.6,45.4c20.8-0.7,36.6-15.8,46.7-32.8c11.9-20,10.3-44.8,13.8-67.2c2.5-16.2,3.1-34.1,8.1-49.7
			c5.5-17.2,16.4-32.1,27-46.5c10.9-14.8,19.6-28.9,27.3-45.6c4.5-9.7,10.4-18.7,16.1-27.7"/>
		<path fill="#141843" d="M1920,505c-5.2,8.2-7.8,12.9-11.7,21.3c-7.6,16.3-16.2,30.6-27.8,46.5c-10.4,14.1-21.1,28.6-26.3,45
			c-3.3,10.3-4.6,22-5.9,33.3c-0.6,5.2-1.2,10.5-2,15.7c-0.9,6-1.5,12.1-2,18.5c-1.5,17.2-3.2,35-12.4,50.5
			c-13.2,22.1-31.2,34.6-50.8,35.3c-0.3,0-0.7,0-1,0c-24.1,0-55-25.5-59.6-49.5c-1.6-8.4,0.3-15.1,2.3-21.6
			c1.1-3.8,2.2-7.4,2.5-11.3c0.5-6.2-0.4-12.4-1.3-18.9c-1-6.8-2-13.8-1.4-21c0.4-5.4,1-10.8,1.7-16.1c1-8.3,2-17,2-25.3
			c0.1-16.1-0.6-33-2-51.8c-2.2-28.3-6-57.1-9.7-84.8c-0.8-5.7-1.5-11.4-2.2-17.1l-0.5-3.8l32.1-13.5l151.8-78.1l24.1-4.8 M1920,363
			l-21.2,4.5l-150.9,77.7l-25.4,10.7c0.6,4.4,1.2,8.9,1.8,13.3c3.7,27.9,7.5,56.8,9.7,85.4c1.5,19,2.2,36.3,2.1,52.6
			c-0.1,8.9-1.1,17.8-2.1,26.5c-0.6,5.1-1.2,10.5-1.6,15.6c-0.5,6.2,0.4,12.3,1.4,18.9c1,6.8,2,13.9,1.4,21.1
			c-0.4,4.9-1.6,9.2-2.9,13.3c-1.7,5.9-3.2,10.9-2,16.9c3.8,19.5,31.2,42,50.5,41.4c9.3-0.3,27.2-4.6,42.5-30.4
			c8-13.5,9.5-30.2,11-46.3c0.6-6.3,1.2-12.8,2.1-19.1c0.8-4.9,1.3-10,1.9-15.3c1.3-11.8,2.7-24,6.3-35.2
			c5.7-18,16.9-33.2,27.8-47.9c11.2-15.3,19.5-29.1,26.8-44.7c4.2-9,9.5-17.4,14.6-25.4l1.8-2.8c1.5-2.4,3.1-4.9,4.7-7.6"/>
	</g>
	
		<path fill="#FDEEE0" stroke="#141843" stroke-width="10" stroke-linecap="round" stroke-linejoin="round" stroke-miterlimit="10" d="
		M1610.4,241.7c0,0-12.1,23-10.9,30.7c1.3,7.7-6.4,40.9-6.4,40.9l74.1,157.1l106-66.4l71.5-77.9l-206.9-111.1L1610.4,241.7z"/>
	<path fill="#141843" d="M1772.6,345.8c0,0,12.8-11.7,29.1-10.2c0,0-4.8-15.3,2.4-22c7.2-6.7,39.3-41.7,49.3-41.7
		s27.8-24.4,30.2-29.2s6.3-14.4,7.3-22.5c1-8.1,16.7-73.9,29.2-81.1l-0.4,275.1c0,0-6.8,7.2-12.1,13.4c-5.3,6.2-46.8,40.3-52.9,39.3
		L1772.6,345.8z"/>
	<path fill="#FF6167" stroke="#141843" stroke-width="10" stroke-miterlimit="10" d="M1767.9,352.1c-3.7,10.2-3.9,20-9.8,29.3
		c-6.8,10.8-19.6,29.8-34,29.8c-21.1,0-25.9,13.6-25.9,13.6l31.5,75.6c18.1,21.2,38.4-4.9,41.3-13.5c2.1-6.4,11.2-10.5,16.6-13.6
		c7.9-4.4,16.6-9.8,25.2-12.5c8-2.5,14.6,1.8,21.9,4.8c6.4,2.6,16.3,4.5,22.5-0.3c6.1-4.7,7.9-14.8,8.3-21.9
		c1.2-21.2-8.8-42.7-20.9-59.6c-9.4-13.1-20.5-25.9-34.5-34.2C1799.1,343.1,1773.9,335.5,1767.9,352.1z"/>
	<path fill="#141843" d="M1492-0.5c-2.3,2.3-5.5,7.9-7,10.5c-16.2,26.9-28.1,54.9-44,82c-10.7,18.3-34.3,35.9-34.3,58.4
		c0,0-24.3,3.8-30.7,30c0,0,86.2,46.6,103.5,51.1c0,0,18.5-10.9,26.8-20.4c8.3-9.6,17.2-25.5,17.2-25.5s5.1-12.1,16.6-19.8
		c0,0,0,0,0,0c11.5-7.7,29.4-18.8,36.4-31.1c8.6-15.2,15.2-33.5,24.6-48.8c-4.5,33.4-4.4,67.2-5,102.1c-0.4,23.2,5.7,45.8,20.8,63.9
		c21.1,25.1,52.4,40,70,68.2c7.6,12.1,17.6,14.4,32,18c25,6.2,79.4,16.6,102-2c14.7-12.1,68.9-74.5,77.8-94.3
		c8.9-19.8,21.7-95.3,21.7-95.3V-3C1920.5-3,1492.5-0.9,1492-0.5z"/>
	<path fill="#FF6167" stroke="#141843" stroke-width="10" stroke-miterlimit="10" d="M1711.9,512.5c-5.4,2.6-4.2,17.5-4.7,22.4
		c-1.7,18.8-4.1,38.1-8.5,56.5c-3.3,13.8-7.7,27.4-11.4,41.1c-3,10.9-3.6,29.2-12.4,37.2c-10.6,9.6-23,17.4-37.7,13.4
		c-13.2-3.6-24.9-12.4-32.7-23.5c-7.7-10.9-4.3-23-6.4-35.3c-1.6-9.3-8.9-16.7-9.5-26.5c-0.5-8.4-1.1-16.8-1.7-25.2
		C1586.7,572.5,1711.7,512.6,1711.9,512.5z"/>
	<path fill="none" stroke="#141843" stroke-width="10" stroke-linecap="round" stroke-linejoin="round" stroke-miterlimit="10" d="
		M1726.9,430.6c0,0,37.1-18.5,46.1-40.5s9.9-44,22-45"/>
	<path fill="none" stroke="#141843" stroke-width="10" stroke-linecap="round" stroke-linejoin="round" stroke-miterlimit="10" d="
		M1754.4,474.8c0,0,46.8-32.9,70.6-32.7s35.4,4.8,41-6"/>
	<path fill="none" stroke="#141843" stroke-width="10" stroke-linecap="round" stroke-linejoin="round" stroke-miterlimit="10" d="
		M1741,442c18-10.8,32-21.7,45.3-38.2c9.7-12,20.4-41.8,39.7-40.5"/>
	<path fill="none" stroke="#141843" stroke-width="10" stroke-linecap="round" stroke-linejoin="round" stroke-miterlimit="10" d="
		M1748,456c19.4-11.9,39.5-19.3,57-34c8.8-7.4,14-17.5,21.8-25.9c6.5-7,17.6-18,27.2-9.1"/>
	
		<line fill="none" stroke="#141843" stroke-width="10" stroke-linecap="round" stroke-linejoin="round" stroke-miterlimit="10" x1="1746" y1="339" x2="1737" y2="404"/>
	
		<line fill="none" stroke="#141843" stroke-width="10" stroke-linecap="round" stroke-linejoin="round" stroke-miterlimit="10" x1="1721" y1="331" x2="1711" y2="410"/>
</g>
<g>
	<g>
		<polygon fill="#FBE3CC" points="1474.2,340.5 1708,473.5 1380.7,664.9 1146.9,533.4 		"/>
		<path fill="#141843" d="M1380.7,670.2c-0.9,0-1.8-0.2-2.6-0.7L1144.3,538c-1.6-0.9-2.7-2.6-2.7-4.5c0-1.9,1-3.6,2.6-4.6
			L1471.5,336c1.6-1,3.6-1,5.3,0l233.8,133c1.6,0.9,2.7,2.7,2.7,4.5c0,1.9-1,3.6-2.6,4.6l-327.3,191.4
			C1382.5,669.9,1381.6,670.2,1380.7,670.2z M1157.4,533.3l223.2,125.6l316.9-185.3l-223.2-127L1157.4,533.3z"/>
	</g>
	<g>
		<polygon fill="#FF6167" points="1474.2,317.8 1708,450.8 1380.7,642.2 1146.9,510.7 		"/>
		<path fill="#141843" d="M1380.7,647.4c-0.9,0-1.8-0.2-2.6-0.7l-233.8-131.5c-1.6-0.9-2.7-2.6-2.7-4.5c0-1.9,1-3.6,2.6-4.6
			l327.3-192.9c1.6-1,3.6-1,5.3,0l233.8,133c1.6,0.9,2.6,2.7,2.7,4.5c0,1.9-1,3.6-2.6,4.6l-327.3,191.4
			C1382.5,647.2,1381.6,647.4,1380.7,647.4z M1157.4,510.6l223.2,125.6l316.8-185.3l-223.2-127L1157.4,510.6z"/>
	</g>
	<g>
		<polygon fill="#FBE3CC" points="1474.2,295.1 1708,428 1380.7,619.5 1146.9,487.9 		"/>
		<path fill="#141843" d="M1380.7,624.7c-0.9,0-1.8-0.2-2.6-0.7l-233.8-131.5c-1.6-0.9-2.7-2.7-2.7-4.5c0-1.9,1-3.6,2.6-4.6
			l327.3-192.9c1.6-1,3.6-1,5.3,0l233.8,133c1.6,0.9,2.7,2.7,2.7,4.5c0,1.9-1,3.6-2.6,4.6L1383.3,624
			C1382.5,624.5,1381.6,624.7,1380.7,624.7z M1157.4,487.8l223.2,125.6l316.9-185.3l-223.2-127L1157.4,487.8z"/>
	</g>
	<g>
		<polygon fill="#FF6167" points="1474.2,272.3 1708,405.3 1380.7,596.7 1146.9,465.2 		"/>
		<path fill="#141843" d="M1380.7,602c-0.9,0-1.8-0.2-2.6-0.7l-233.8-131.5c-1.6-0.9-2.7-2.6-2.7-4.5c0-1.9,1-3.6,2.6-4.6
			l327.3-192.9c1.6-1,3.6-1,5.3,0l233.8,133c1.6,0.9,2.7,2.7,2.7,4.5c0,1.9-1,3.6-2.6,4.6l-327.3,191.4
			C1382.5,601.8,1381.6,602,1380.7,602z M1157.4,465.1l223.2,125.6l316.9-185.3l-223.2-127L1157.4,465.1z"/>
	</g>
	<g>
		<polygon fill="#FBE3CC" points="1474.2,249.6 1708,382.6 1380.7,574 1146.9,442.5 		"/>
		<path fill="#141843" d="M1380.7,579.3c-0.9,0-1.8-0.2-2.6-0.7l-233.8-131.5c-1.6-0.9-2.7-2.6-2.7-4.5c0-1.9,1-3.6,2.6-4.6
			l327.3-192.9c1.6-1,3.6-1,5.3,0l233.8,133c1.6,0.9,2.7,2.7,2.7,4.5c0,1.9-1,3.6-2.6,4.6l-327.3,191.4
			C1382.5,579,1381.6,579.3,1380.7,579.3z M1157.4,442.4L1380.6,568l316.9-185.3l-223.2-127L1157.4,442.4z"/>
	</g>
	<g>
		<polygon fill="#FF6167" points="1474.2,226.9 1708,359.9 1380.7,551.3 1146.9,419.8 		"/>
		<path fill="#141843" d="M1380.7,556.6c-0.9,0-1.8-0.2-2.6-0.7l-233.8-131.5c-1.6-0.9-2.7-2.6-2.7-4.5c0-1.9,1-3.6,2.6-4.6
			l327.3-192.9c1.6-1,3.6-1,5.3,0l233.8,133c1.6,0.9,2.7,2.7,2.7,4.5c0,1.9-1,3.6-2.6,4.6l-327.3,191.4
			C1382.5,556.3,1381.6,556.6,1380.7,556.6z M1157.4,419.7l223.2,125.6l316.9-185.3l-223.2-127L1157.4,419.7z"/>
	</g>
	<g>
		<polygon fill="#FBE3CC" points="1474.2,204.2 1708,337.2 1380.7,528.6 1146.9,397.1 		"/>
		<path fill="#141843" d="M1380.7,533.9c-0.9,0-1.8-0.2-2.6-0.7l-233.8-131.5c-1.6-0.9-2.7-2.7-2.7-4.5c0-1.9,1-3.6,2.6-4.6
			l327.3-192.9c1.6-1,3.6-1,5.3,0l233.8,133c1.6,0.9,2.7,2.7,2.7,4.5c0,1.9-1,3.6-2.6,4.6l-327.3,191.4
			C1382.5,533.6,1381.6,533.9,1380.7,533.9z M1157.4,397l223.2,125.6l316.9-185.3l-223.2-127L1157.4,397z"/>
	</g>
	<g>
		<polygon fill="#FF6167" points="1474.2,181.5 1708,314.5 1380.7,505.9 1146.9,374.4 		"/>
		<path fill="#141843" d="M1380.7,511.1c-0.9,0-1.8-0.2-2.6-0.7l-233.8-131.5c-1.6-0.9-2.7-2.6-2.7-4.5c0-1.9,1-3.6,2.6-4.6
			L1471.5,177c1.6-1,3.6-1,5.3,0l233.8,133c1.6,0.9,2.7,2.7,2.7,4.5c0,1.9-1,3.6-2.6,4.6l-327.3,191.4
			C1382.5,510.9,1381.6,511.1,1380.7,511.1z M1157.4,374.3l223.2,125.6l316.9-185.3l-223.2-127L1157.4,374.3z"/>
	</g>
	<g>
		<polygon fill="#FBE3CC" points="1474.2,158.8 1708,291.7 1380.7,483.2 1146.9,351.7 		"/>
		<path fill="#141843" d="M1380.7,488.4c-0.9,0-1.8-0.2-2.6-0.7l-233.8-131.5c-1.6-0.9-2.7-2.6-2.7-4.5c0-1.9,1-3.6,2.6-4.6
			l327.3-192.9c1.6-1,3.6-1,5.3,0l233.8,133c1.6,0.9,2.6,2.7,2.7,4.5c0,1.9-1,3.6-2.6,4.6l-327.3,191.4
			C1382.5,488.2,1381.6,488.4,1380.7,488.4z M1157.4,351.5l223.2,125.6l316.8-185.3l-223.2-127L1157.4,351.5z"/>
	</g>
	<g>
		<polygon fill="#FF6167" points="1474.2,136 1708,269 1380.7,460.5 1146.9,328.9 		"/>
		<path fill="#141843" d="M1380.7,465.7c-0.9,0-1.8-0.2-2.6-0.7l-233.8-131.5c-1.6-0.9-2.7-2.6-2.7-4.5c0-1.9,1-3.6,2.6-4.6
			l327.3-192.9c1.6-1,3.6-1,5.3,0l233.8,133c1.6,0.9,2.6,2.7,2.7,4.5c0,1.9-1,3.6-2.6,4.6L1383.3,465
			C1382.5,465.5,1381.6,465.7,1380.7,465.7z M1157.4,328.8l223.2,125.6l316.8-185.3l-223.2-127L1157.4,328.8z"/>
	</g>
	<g>
		<polygon fill="#FBE3CC" points="1474.2,113.3 1708,246.3 1380.7,437.7 1146.9,306.2 		"/>
		<path fill="#141843" d="M1380.7,443c-0.9,0-1.8-0.2-2.6-0.7l-233.8-131.5c-1.6-0.9-2.7-2.7-2.7-4.5c0-1.9,1-3.6,2.6-4.6
			l327.3-192.9c1.6-1,3.6-1,5.3,0l233.8,133c1.6,0.9,2.7,2.7,2.7,4.5c0,1.9-1,3.6-2.6,4.6l-327.3,191.4
			C1382.5,442.7,1381.6,443,1380.7,443z M1157.4,306.1l223.2,125.6l316.9-185.3l-223.2-127L1157.4,306.1z"/>
	</g>
	<g>
		<polygon fill="#FBE3CC" points="1474.2,90.6 1708,223.6 1380.7,415 1146.9,283.5 		"/>
		<path fill="#141843" d="M1380.7,420.3c-0.9,0-1.8-0.2-2.6-0.7l-233.8-131.5c-1.6-0.9-2.7-2.6-2.7-4.5c0-1.9,1-3.6,2.6-4.6
			l327.3-192.9c1.6-1,3.6-1,5.3,0l233.8,133c1.6,0.9,2.7,2.7,2.7,4.5c0,1.9-1,3.6-2.6,4.6l-327.3,191.4
			C1382.5,420,1381.6,420.3,1380.7,420.3z M1157.4,283.4L1380.6,409l316.9-185.3l-223.2-127L1157.4,283.4z"/>
	</g>
	<g>
		<path fill="#FFFFFF" d="M1322.3,379l125.6-4.3c0,0-45-8.6-64.4-53.1C1383.4,321.6,1363,368.8,1322.3,379z"/>
		<path fill="#141843" d="M1322.3,386.9c-2.6,0-4.8-3.2-5.2-5.8c-0.4-2.7,1.3-5.8,3.9-6.5c37.8-9.4,57.4-53.1,57.6-53.6
			c0.8-1.9,2.7-2.3,4.8-2.3c0,0,0,0,0,0c2.1,0,4,0.1,4.8,2c18.1,41.4,60.2,49.4,60.6,49.5c2.6,0.5,4.5,2.6,4.3,5.3
			c-0.2,2.7-2.4,3.3-5.1,3.4l-125.6,2.9C1322.4,386.9,1322.3,386.9,1322.3,386.9z M1383.4,333.2c-6,10.6-17.7,27.7-35.1,39.7
			l73.6-2.5C1409.1,363.4,1394.1,351.9,1383.4,333.2z"/>
	</g>
	<g>
		<g>
			<path fill="#141843" d="M1639.4,242.7c-0.9,0-1.8-0.2-2.6-0.7l-185.4-104.3c-2.5-1.4-3.4-4.6-2-7.2c1.4-2.5,4.6-3.4,7.2-2
				L1642,232.8c2.5,1.4,3.4,4.6,2,7.2C1643.1,241.7,1641.3,242.7,1639.4,242.7z"/>
		</g>
		<g>
			<path fill="#141843" d="M1614.2,261.6c-0.9,0-1.8-0.2-2.6-0.7l-185.4-104.3c-2.5-1.4-3.4-4.6-2-7.2c1.4-2.5,4.6-3.4,7.2-2
				l185.4,104.3c2.5,1.4,3.4,4.6,2,7.2C1617.8,260.7,1616,261.6,1614.2,261.6z"/>
		</g>
		<g>
			<path fill="#141843" d="M1584.7,274.3c-0.9,0-1.8-0.2-2.6-0.7l-185.4-104.3c-2.5-1.4-3.4-4.6-2-7.2c1.4-2.5,4.6-3.4,7.2-2
				l185.4,104.3c2.5,1.4,3.4,4.6,2,7.2C1588.3,273.3,1586.5,274.3,1584.7,274.3z"/>
		</g>
		<g>
			<path fill="#141843" d="M1557.3,291.1c-0.9,0-1.8-0.2-2.6-0.7l-185.4-104.3c-2.5-1.4-3.4-4.6-2-7.2c1.4-2.5,4.6-3.4,7.2-2
				l185.4,104.3c2.5,1.4,3.4,4.6,2,7.2C1560.9,290.2,1559.1,291.1,1557.3,291.1z"/>
		</g>
		<g>
			<path fill="#141843" d="M1525.7,308c-0.9,0-1.8-0.2-2.6-0.7L1337.7,203c-2.5-1.4-3.4-4.6-2-7.2c1.4-2.5,4.6-3.4,7.2-2
				l185.4,104.3c2.5,1.4,3.4,4.6,2,7.2C1529.3,307,1527.5,308,1525.7,308z"/>
		</g>
		<g>
			<path fill="#141843" d="M1498.3,322.8c-0.9,0-1.8-0.2-2.6-0.7l-185.4-104.3c-2.5-1.4-3.4-4.6-2-7.2c1.4-2.5,4.6-3.4,7.2-2
				l185.4,104.3c2.5,1.4,3.4,4.6,2,7.2C1501.9,321.8,1500.1,322.8,1498.3,322.8z"/>
		</g>
		<g>
			<path fill="#141843" d="M1470.9,339.6c-0.9,0-1.8-0.2-2.6-0.7l-185.4-104.3c-2.5-1.4-3.4-4.6-2-7.2c1.4-2.5,4.6-3.4,7.2-2
				l185.4,104.3c2.5,1.4,3.4,4.6,2,7.2C1474.5,338.6,1472.7,339.6,1470.9,339.6z"/>
		</g>
		<g>
			<path fill="#141843" d="M1445.6,352.3c-0.9,0-1.8-0.2-2.6-0.7l-185.4-104.3c-2.5-1.4-3.4-4.6-2-7.2c1.4-2.5,4.6-3.4,7.2-2
				l185.4,104.3c2.5,1.4,3.4,4.6,2,7.2C1449.2,351.3,1447.4,352.3,1445.6,352.3z"/>
		</g>
		<g>
			<path fill="#141843" d="M1302.3,307c-0.9,0-1.9-0.2-2.7-0.8L1230,264c-2.5-1.5-3.3-4.7-1.8-7.2c1.5-2.5,4.7-3.3,7.2-1.8
				l69.5,42.1c2.5,1.5,3.3,4.7,1.8,7.2C1305.8,306,1304.1,307,1302.3,307z"/>
		</g>
	</g>
	<polygon fill="#FBE3CC" points="1332.3,381.8 1431.1,379.2 1380.6,409 	"/>
</g>
<path fill="#FDEEE0" stroke="#141843" stroke-width="10" stroke-linecap="round" stroke-linejoin="round" stroke-miterlimit="10" d="
	M1667.8,508c0,0-5.7,0-14.7-0.6c-8.9-0.6-35.5,19.8-42.8,24.3c-8.3,5.1-23.6,23.6-37.7,21.1c-14.9-2.7-13.4-18.9-7.1-28.4
	c8-12.1,19-22.1,32-28.5c27.5-13.4,42.1-32.6,42.1-32.6c8.9-18.5,31.3-27.5,46-34.5c14.7-7,32.6-2.6,32.6-2.6s36.4,16,32.6,62.6
	c0,0-26.8,14-31.9,18.5s-54.3,35.1-58.8,37.7s-33.2,13.4-42.8,17.2c-9.6,3.8-47.9,27.5-51.7,29.4c-9.4,4.7-14.4,3.5-24.3,6.4
	c-6.9,2-37.2,7.9-42.4,0l72-44"/>
<g>
	
		<polygon fill="#FBE3CC" stroke="#141843" stroke-width="10" stroke-linecap="round" stroke-linejoin="round" stroke-miterlimit="10" points="
		852.3,559.7 796.1,527.3 796.1,462.5 852.3,494.8 	"/>
	
		<polygon fill="#FF6167" stroke="#141843" stroke-width="10" stroke-linecap="round" stroke-linejoin="round" stroke-miterlimit="10" points="
		908.4,527.3 908.4,462.5 852.3,494.8 852.3,559.7 	"/>
	<polygon fill="#141843" points="897.2,507.8 897.2,520.8 886,527.3 885.9,514.3 	"/>
	<polygon fill="#141843" points="897.2,481.9 897.2,494.8 886,501.4 885.9,488.3 	"/>
	<polygon fill="#141843" points="874.7,520.8 874.7,533.8 863.5,540.3 863.4,527.3 	"/>
	<polygon fill="#141843" points="874.7,494.9 874.7,507.8 863.5,514.4 863.4,501.4 	"/>
	
		<polygon fill="#FBE3CC" stroke="#141843" stroke-width="10" stroke-linecap="round" stroke-linejoin="round" stroke-miterlimit="10" points="
		796.1,553.2 784.9,546.7 784.9,520.8 818.6,540.3 818.6,566.2 807.4,559.7 	"/>
	
		<polygon fill="#FF6167" stroke="#141843" stroke-width="10" stroke-linecap="round" stroke-linejoin="round" stroke-miterlimit="10" points="
		818.6,566.2 841.1,553.2 841.1,514.3 818.6,540.3 	"/>
	
		<polygon fill="#BFAE9E" stroke="#141843" stroke-width="10" stroke-linecap="round" stroke-linejoin="round" stroke-miterlimit="10" points="
		784.9,520.8 807.4,494.8 841.1,514.3 818.6,540.3 	"/>
	<g>
		
			<polygon fill="#BFAE9E" stroke="#141843" stroke-width="10" stroke-linecap="round" stroke-linejoin="round" stroke-miterlimit="10" points="
			908.4,462.5 852.2,494.9 796.1,462.5 852.3,429.9 		"/>
	</g>
</g>
<g id="XMLID_2_">
	
		<ellipse id="XMLID_3_" transform="matrix(1 -2.832439e-03 2.832439e-03 1 -2.2807 2.1782)" fill="#E9D3BF" cx="767.9" cy="806.3" rx="42.7" ry="24.7"/>
</g>
<g>
	
		<path fill="#FF6167" stroke="#141843" stroke-width="10" stroke-linecap="round" stroke-linejoin="round" stroke-miterlimit="10" d="
		M808.8,706.8c0-10.9-4.4-20.8-11.6-27.9c-3.7-3.6-8-6.6-12.8-8.6c-4.7-1.9-9.7-3-15.1-3c-5.4,0-10.5,1.1-15.1,3
		c-4.8,2-9.2,4.9-12.8,8.6c-3.6,3.6-6.5,7.9-8.5,12.7l-0.1,0.1c-1.9,4.6-3,9.8-3,15.1c0,4.3,0.7,8.4,1.9,12.2c1.3,4,3.2,7.7,5.6,11
		c4.5,6.2,8.2,10.2,11.1,13.3v0c5.5,6.1,8.3,9.1,8.8,17.4h24.4c0.4-8.4,3.2-11.4,8.7-17.5c2.8-3.1,6.4-7.1,10.9-13.2
		c2.4-3.3,4.4-7,5.6-11C808.1,715.2,808.8,711.1,808.8,706.8L808.8,706.8z"/>
	
		<line fill="#FBE3CC" stroke="#141843" stroke-width="10" stroke-linecap="round" stroke-linejoin="round" stroke-miterlimit="10" x1="756.3" y1="775.4" x2="781.3" y2="775.4"/>
	
		<line fill="#FBE3CC" stroke="#141843" stroke-width="10" stroke-linecap="round" stroke-linejoin="round" stroke-miterlimit="10" x1="758.7" y1="787.7" x2="777.7" y2="787.7"/>
	
		<line fill="#FBE3CC" stroke="#141843" stroke-width="10" stroke-linecap="round" stroke-linejoin="round" stroke-miterlimit="10" x1="762.7" y1="800.7" x2="772.7" y2="800.7"/>
	
		<line fill="#FBE3CC" stroke="#141843" stroke-width="10" stroke-linecap="round" stroke-linejoin="round" stroke-miterlimit="10" x1="824.1" y1="680.1" x2="839.7" y2="671.1"/>
	
		<line fill="#FBE3CC" stroke="#141843" stroke-width="10" stroke-linecap="round" stroke-linejoin="round" stroke-miterlimit="10" x1="799.7" y1="655.7" x2="808.7" y2="640.1"/>
	
		<line fill="#FBE3CC" stroke="#141843" stroke-width="10" stroke-linecap="round" stroke-linejoin="round" stroke-miterlimit="10" x1="766.3" y1="646.8" x2="766.3" y2="628.8"/>
	
		<line fill="#FBE3CC" stroke="#141843" stroke-width="10" stroke-linecap="round" stroke-linejoin="round" stroke-miterlimit="10" x1="732.9" y1="655.7" x2="724" y2="640.1"/>
	
		<line fill="#FBE3CC" stroke="#141843" stroke-width="10" stroke-linecap="round" stroke-linejoin="round" stroke-miterlimit="10" x1="708.5" y1="680.1" x2="693" y2="671.1"/>
	<path fill="none" stroke="#141843" stroke-width="10" stroke-linecap="round" stroke-linejoin="round" stroke-miterlimit="10" d="
		M761.3,739.4l-6.7-30.7c0,0,18,3.4,30.3-0.6l-9,31.3"/>
</g>
</svg>
