<?xml version="1.0" encoding="UTF-8" standalone="no"?>
<svg
   xmlns:dc="http://purl.org/dc/elements/1.1/"
   xmlns:cc="http://creativecommons.org/ns#"
   xmlns:rdf="http://www.w3.org/1999/02/22-rdf-syntax-ns#"
   xmlns="http://www.w3.org/2000/svg"
   viewBox="0 0 472.11334 388.16"
   height="388.16"
   width="472.11334"
   xml:space="preserve"
   id="svg2"
   version="1.1"><metadata
     id="metadata8"><rdf:RDF><cc:Work
         rdf:about=""><dc:format>image/svg+xml</dc:format><dc:type
           rdf:resource="http://purl.org/dc/dcmitype/StillImage" /></cc:Work></rdf:RDF></metadata><defs
     id="defs6"><clipPath
       id="clipPath18"
       clipPathUnits="userSpaceOnUse"><path
         id="path16"
         d="M 0,291.12 H 354.085 V 0 H 0 Z" /></clipPath></defs><g
     transform="matrix(1.3333333,0,0,-1.3333333,0,388.16)"
     id="g10"><g
       id="g12"><g
         clip-path="url(#clipPath18)"
         id="g14"><g
           transform="translate(135.9258,112.8938)"
           id="g20"><path
             id="path22"
             style="fill:#ff6167;fill-opacity:1;fill-rule:nonzero;stroke:none"
             d="m 0,0 c -2.067,0 -5.406,2.067 -7.95,4.611 -3.498,3.657 -4.133,7.155 -2.226,11.606 3.021,7.314 14.151,19.875 23.85,33.231 -9.381,-5.565 -25.44,-19.239 -40.385,-42.293 -4.293,-6.678 -7.155,-7.314 -10.494,-6.201 -1.749,0.636 -5.565,3.021 -6.678,3.816 -2.385,1.589 -3.816,4.77 -3.339,9.221 0.636,5.247 6.201,13.515 11.448,20.511 17.489,23.055 21.305,27.665 23.849,27.665 2.703,0 6.36,-3.815 10.971,-6.359 2.862,-1.432 3.657,-3.181 3.339,-5.725 9.54,7.314 15.105,10.018 18.126,10.018 1.907,0 4.293,-0.637 6.518,-2.386 2.226,-1.748 3.498,-3.339 3.498,-6.36 0,-3.656 -1.907,-8.903 -4.769,-13.832 12.401,9.54 15.581,11.448 19.079,11.448 2.067,0 3.657,-0.477 5.883,-1.59 3.18,-1.59 4.77,-4.293 4.77,-6.36 0,-7.155 -11.13,-17.967 -14.946,-27.188 7.791,1.589 16.377,7.472 26.235,20.669 l 0.477,0.636 c 1.113,1.431 1.431,1.59 1.908,1.113 l 0.477,-0.477 c 1.112,-1.113 0.954,-1.908 0.317,-3.021 L 69.481,31.958 C 60.101,16.217 44.837,4.134 34.82,4.134 c -9.062,0 -13.674,9.221 -13.037,13.832 0.477,3.657 2.067,7.632 4.611,11.766 C 21.783,26.075 17.331,19.556 9.063,8.585 3.975,2.067 2.067,0 0,0" /></g><g
           transform="translate(185.8437,82.257)"
           id="g24"><path
             id="path26"
             style="fill:#ff6167;fill-opacity:1;fill-rule:nonzero;stroke:none"
             d="M 0,0 C 6.868,4.339 14.778,11.811 23.698,22.846 5.254,17.758 -2.695,14.26 -8.896,8.854 c -5.406,-4.77 -6.678,-9.222 -6.201,-13.356 l -3.975,-6.678 c -3.816,3.339 -6.36,7.314 -6.36,13.197 0,4.293 2.067,9.222 6.837,13.515 9.54,8.426 27.983,12.561 49.766,17.172 3.975,5.565 7.791,11.447 11.288,17.489 C 30.058,37.792 24.652,35.088 19.405,35.088 c -2.703,0 -4.293,0.637 -7.314,2.704 -3.975,2.702 -4.452,4.928 -1.908,12.56 3.657,10.494 15.264,30.687 19.716,40.703 0.318,0.795 0.795,1.113 2.067,1.113 0.954,0 3.975,-0.477 6.837,-1.272 6.518,-1.749 7.949,-4.611 6.36,-10.017 -1.432,-5.087 -6.837,-16.535 -11.13,-27.983 8.744,4.77 19.716,15.423 29.096,32.117 1.749,3.021 2.862,4.134 4.77,4.134 2.067,0 6.996,-1.59 9.54,-2.862 2.544,-1.431 3.021,-2.862 1.908,-6.36 -2.226,-7.472 -12.879,-25.916 -23.055,-41.498 10.971,4.452 20.034,10.017 23.691,14.787 0.318,0.477 0.795,0.477 0.954,0 0.477,-1.749 -0.159,-5.088 -0.954,-6.678 C 76.803,40.494 65.514,34.293 49.614,28.569 33.52,5.055 17.261,-7.56 5.368,-12.806" /></g><g
           transform="translate(85.0483,201.6789)"
           id="g28"><path
             id="path30"
             style="fill:#141843;fill-opacity:1;fill-rule:nonzero;stroke:none"
             d="m 0,0 9.89,5.733 c 1.792,-4.156 4.874,-6.952 10.536,-6.952 5.447,0 6.808,2.151 6.808,4.086 0,3.082 -2.866,4.3 -10.392,6.379 -7.453,2.078 -14.764,5.661 -14.764,15.266 0,9.675 8.171,15.265 16.843,15.265 8.242,0 14.692,-3.942 18.348,-11.324 l -9.676,-5.662 c -1.72,3.584 -4.085,5.806 -8.672,5.806 -3.584,0 -5.376,-1.792 -5.376,-3.799 0,-2.293 1.219,-3.87 9.031,-6.236 7.597,-2.292 16.126,-4.945 16.126,-15.551 0,-9.676 -7.741,-15.409 -18.635,-15.409 C 9.532,-12.398 2.795,-7.382 0,0" /></g><g
           transform="translate(163.5244,212.2863)"
           id="g32"><path
             id="path34"
             style="fill:#141843;fill-opacity:1;fill-rule:nonzero;stroke:none"
             d="m 0,0 v -22.003 h -10.75 v 20.426 c 0,4.444 -2.796,6.522 -6.236,6.522 -3.942,0 -6.665,-2.294 -6.665,-7.382 v -19.566 h -10.751 v 50.169 h 10.751 V 10.464 c 1.935,2.651 5.518,4.372 10.249,4.372 C -6.164,14.836 0,9.676 0,0" /></g><g
           transform="translate(196.9204,208.2014)"
           id="g36"><path
             id="path38"
             style="fill:#141843;fill-opacity:1;fill-rule:nonzero;stroke:none"
             d="m 0,0 c 0,5.375 -3.583,8.743 -8.529,8.743 -4.945,0 -8.529,-3.368 -8.529,-8.743 0,-5.376 3.584,-8.744 8.529,-8.744 C -3.583,-8.744 0,-5.376 0,0 M 10.75,17.917 V -17.918 H 0 v 3.368 c -2.365,-2.722 -5.877,-4.371 -10.679,-4.371 -9.389,0 -17.13,8.241 -17.13,18.921 0,10.679 7.741,18.921 17.13,18.921 4.802,0 8.314,-1.649 10.679,-4.372 v 3.368 z" /></g><g
           transform="translate(237.0522,226.8352)"
           id="g40"><path
             id="path42"
             style="fill:#141843;fill-opacity:1;fill-rule:nonzero;stroke:none"
             d="m 0,0 v -12.184 c -4.443,0.717 -10.75,-1.075 -10.75,-8.17 V -36.552 H -21.501 V -0.717 H -10.75 V -7.095 C -9.317,-2.293 -4.515,0 0,0" /></g><g
           transform="translate(265.7905,211.9279)"
           id="g44"><path
             id="path46"
             style="fill:#141843;fill-opacity:1;fill-rule:nonzero;stroke:none"
             d="m 0,0 c -1.146,4.157 -4.372,5.662 -7.597,5.662 -4.085,0 -6.809,-2.007 -7.812,-5.662 z m -6.594,-13.044 c 2.939,0 5.448,1.147 6.881,2.724 l 8.6,-4.946 c -3.512,-4.874 -8.815,-7.381 -15.624,-7.381 -12.256,0 -19.853,8.241 -19.853,18.92 0,10.679 7.741,18.921 19.065,18.921 10.463,0 18.204,-8.098 18.204,-18.921 0,-1.505 -0.143,-2.938 -0.429,-4.3 h -25.444 c 1.361,-3.727 4.658,-5.017 8.6,-5.017" /></g><g
           transform="translate(116.5137,88.0529)"
           id="g48"><path
             id="path50"
             style="fill:#141843;fill-opacity:1;fill-rule:nonzero;stroke:none"
             d="M 0,0 H -12.901 V -39.132 H -24.368 V 0 H -37.269 V 11.037 H 0 Z" /></g><g
           transform="translate(155.5718,70.924)"
           id="g52"><path
             id="path54"
             style="fill:#141843;fill-opacity:1;fill-rule:nonzero;stroke:none"
             d="m 0,0 v -22.003 h -10.75 v 20.426 c 0,4.444 -2.796,6.522 -6.236,6.522 -3.942,0 -6.665,-2.294 -6.665,-7.382 v -19.566 h -10.751 v 50.169 h 10.751 V 10.464 c 1.935,2.651 5.518,4.372 10.249,4.372 C -6.164,14.836 0,9.676 0,0" /></g><g
           transform="translate(187.749,70.5656)"
           id="g56"><path
             id="path58"
             style="fill:#141843;fill-opacity:1;fill-rule:nonzero;stroke:none"
             d="m 0,0 c -1.146,4.157 -4.372,5.662 -7.597,5.662 -4.085,0 -6.809,-2.007 -7.812,-5.662 z m -6.594,-13.044 c 2.939,0 5.448,1.147 6.881,2.724 l 8.6,-4.946 c -3.512,-4.874 -8.815,-7.381 -15.624,-7.381 -12.256,0 -19.853,8.241 -19.853,18.92 0,10.679 7.741,18.921 19.065,18.921 10.463,0 18.204,-8.098 18.204,-18.921 0,-1.505 -0.143,-2.938 -0.43,-4.3 h -25.443 c 1.362,-3.727 4.658,-5.017 8.6,-5.017" /></g><g
           transform="translate(230.8926,59.6721)"
           id="g60"><path
             id="path62"
             style="fill:#141843;fill-opacity:1;fill-rule:nonzero;stroke:none"
             d="m 0,0 c 0,-8.242 -7.167,-11.754 -14.907,-11.754 -7.168,0 -12.614,2.723 -15.409,8.528 L -21,2.078 c 0.932,-2.724 2.939,-4.228 6.093,-4.228 2.58,0 3.87,0.788 3.87,2.221 0,3.942 -17.631,1.864 -17.631,14.263 0,7.812 6.593,11.754 14.047,11.754 5.806,0 10.966,-2.58 13.976,-7.669 l -9.174,-4.945 c -1.003,1.863 -2.437,3.153 -4.802,3.153 -1.863,0 -3.01,-0.717 -3.01,-2.007 C -17.631,10.535 0,13.259 0,0" /></g><path
           id="path64"
           style="fill:#141843;fill-opacity:1;fill-rule:nonzero;stroke:none"
           d="m 236.266,84.756 h 10.75 V 48.921 h -10.75 z m -1.075,9.605 c 0,3.511 2.938,6.45 6.451,6.45 3.511,0 6.45,-2.939 6.45,-6.45 0,-3.512 -2.939,-6.452 -6.45,-6.452 -3.513,0 -6.451,2.94 -6.451,6.452" /><g
           transform="translate(282.3496,59.6721)"
           id="g66"><path
             id="path68"
             style="fill:#141843;fill-opacity:1;fill-rule:nonzero;stroke:none"
             d="m 0,0 c 0,-8.242 -7.168,-11.754 -14.908,-11.754 -7.167,0 -12.614,2.723 -15.409,8.528 L -21,2.078 c 0.932,-2.724 2.938,-4.228 6.092,-4.228 2.58,0 3.87,0.788 3.87,2.221 0,3.942 -17.63,1.864 -17.63,14.263 0,7.812 6.593,11.754 14.047,11.754 5.805,0 10.966,-2.58 13.975,-7.669 l -9.173,-4.945 c -1.003,1.863 -2.437,3.153 -4.802,3.153 -1.864,0 -3.01,-0.717 -3.01,-2.007 C -17.631,10.535 0,13.259 0,0" /></g></g></g></g></svg>