<?xml version="1.0" encoding="utf-8"?>
<!-- Generator: Adobe Illustrator 22.0.1, SVG Export Plug-In . SVG Version: 6.00 Build 0)  -->
<svg version="1.0" id="Ebene_1" xmlns="http://www.w3.org/2000/svg" xmlns:xlink="http://www.w3.org/1999/xlink" x="0px" y="0px"
	 viewBox="0 0 268 268" enable-background="new 0 0 268 268" xml:space="preserve">
<g id="Gruppe_554" transform="translate(20732 3923)">
	<path id="Pfad_1037" fill="#FFFFFF" d="M-20517.1-3841.3l-52.5-54.5c-0.8-0.8-1.8-1.2-2.9-1.2h-78.2c-8.8,0-15.9,7.1-15.9,15.9
		v55.4h-31.7c-6.5,0-11.8,5.3-11.9,11.9v59.4c0,6.5,5.3,11.9,11.9,11.9h31.7v35.6c0,8.8,7.1,15.8,15.9,15.8h118.7
		c8.8,0,15.9-7.1,15.9-15.8v-131.6C-20516-3839.6-20516.4-3840.6-20517.1-3841.3z M-20571.4-3886.3l43.1,44.7h-43.1V-3886.3z
		 M-20698.1-3750.5c-2.2,0-4-1.8-4-4v-59.4c0-2.2,1.8-4,4-4h106.9c2.2,0,4,1.8,4,4v59.4c0,2.2-1.8,4-4,4L-20698.1-3750.5
		L-20698.1-3750.5z M-20523.9-3707c0,4.4-3.6,7.9-7.9,7.9c0,0,0,0,0,0h-118.7c-4.4,0-7.9-3.5-7.9-7.9v-35.6h67.3
		c6.5,0,11.8-5.3,11.9-11.9v-59.4c0-6.5-5.3-11.8-11.9-11.9h-67.3v-55.4c0-4.4,3.6-7.9,7.9-7.9h71.2v51.5c0,2.2,1.7,4,3.9,4
		c0,0,0,0,0,0h51.5L-20523.9-3707z"/>
	<path id="Pfad_1038" fill="#FFFFFF" d="M-20662.7-3796.5c-1.2-1.6-2.9-2.8-4.9-3.3c-2.7-0.5-5.4-0.6-8.1-0.5h-11.1v34h6.9v-12.8
		h4.5c2.4,0.1,4.8-0.1,7.1-0.5c1.3-0.3,2.5-0.8,3.6-1.6c1.2-0.9,2.2-2,2.9-3.4c0.8-1.6,1.2-3.4,1.2-5.3
		C-20660.6-3792.3-20661.3-3794.6-20662.7-3796.5L-20662.7-3796.5z M-20668.5-3787.2c-0.5,0.8-1.3,1.3-2.2,1.7
		c-1.8,0.5-3.6,0.7-5.4,0.6h-3.8v-9.7h3.3c1.6,0,3.3,0,4.9,0.3c1.1,0.2,2,0.7,2.8,1.5c0.7,0.8,1.1,1.9,1.1,3.1
		C-20667.8-3788.9-20668-3788-20668.5-3787.2L-20668.5-3787.2z"/>
	<path id="Pfad_1039" fill="#FFFFFF" d="M-20627.7-3791.1c-0.7-2.1-1.8-3.9-3.3-5.5c-1.4-1.5-3.2-2.6-5.1-3.1
		c-2.1-0.5-4.3-0.7-6.5-0.7h-12.6v34h13c2.1,0.1,4.1-0.2,6.1-0.7c1.8-0.5,3.4-1.5,4.8-2.7c1.7-1.7,2.9-3.8,3.6-6
		c0.8-2.3,1.1-4.8,1.1-7.2C-20626.5-3785.7-20626.9-3788.4-20627.7-3791.1L-20627.7-3791.1z M-20634.4-3777.1
		c-0.3,1.2-0.9,2.4-1.8,3.3c-0.8,0.7-1.7,1.2-2.8,1.4c-1.4,0.2-2.8,0.3-4.2,0.3h-5.1v-22.5h3.1c1.9-0.1,3.8,0,5.6,0.3
		c1.2,0.2,2.3,0.8,3.2,1.6c0.9,0.9,1.6,2.1,2,3.3c0.5,2,0.8,4,0.7,6C-20633.6-3781.3-20633.8-3779.2-20634.4-3777.1L-20634.4-3777.1
		z"/>
	<path id="Pfad_1040" fill="#FFFFFF" d="M-20597.4-3794.6v-5.7h-23.3v34h6.9v-14.5h14.2v-5.7h-14.2v-8L-20597.4-3794.6
		L-20597.4-3794.6z"/>
</g>
</svg>