<?xml version="1.0" encoding="UTF-8" standalone="no"?>
<svg
   xmlns:dc="http://purl.org/dc/elements/1.1/"
   xmlns:cc="http://creativecommons.org/ns#"
   xmlns:rdf="http://www.w3.org/1999/02/22-rdf-syntax-ns#"
   xmlns="http://www.w3.org/2000/svg"
   viewBox="0 0 530.66669 482.66666"
   height="482.66666"
   width="530.66669"
   xml:space="preserve"
   id="svg2"
   version="1.1"><metadata
     id="metadata8"><rdf:RDF><cc:Work
         rdf:about=""><dc:format>image/svg+xml</dc:format><dc:type
           rdf:resource="http://purl.org/dc/dcmitype/StillImage" /></cc:Work></rdf:RDF></metadata><defs
     id="defs6"><clipPath
       id="clipPath18"
       clipPathUnits="userSpaceOnUse"><path
         id="path16"
         d="M 0,362 H 398 V 0 H 0 Z" /></clipPath></defs><g
     transform="matrix(1.3333333,0,0,-1.3333333,0,482.66667)"
     id="g10"><g
       id="g12"><g
         clip-path="url(#clipPath18)"
         id="g14"><g
           transform="translate(333.2349,184.9146)"
           id="g20"><path
             id="path22"
             style="fill:#ff6167;fill-opacity:1;fill-rule:nonzero;stroke:none"
             d="m 0,0 c 0,-67.331 -54.583,-121.913 -121.914,-121.913 -67.33,0 -121.913,54.582 -121.913,121.913 0,67.331 54.583,121.914 121.913,121.914 C -54.583,121.914 0,67.331 0,0" /></g><g
           transform="translate(350.7642,184.9146)"
           id="g24"><path
             id="path26"
             style="fill:none;stroke:#141843;stroke-width:10;stroke-linecap:butt;stroke-linejoin:miter;stroke-miterlimit:10;stroke-dasharray:none;stroke-opacity:1"
             d="m 0,0 c 0,-77.012 -62.431,-139.442 -139.443,-139.442 -77.012,0 -139.442,62.43 -139.442,139.442 0,77.012 62.43,139.443 139.442,139.443 C -62.431,139.443 0,77.012 0,0 Z" /></g><g
           transform="translate(175.3755,238.6787)"
           id="g28"><path
             id="path30"
             style="fill:none;stroke:#141843;stroke-width:10;stroke-linecap:round;stroke-linejoin:round;stroke-miterlimit:10;stroke-dasharray:none;stroke-opacity:1"
             d="M 0,0 48.152,-28.833 94.031,-56.305 47.3,-82.301 0.569,-108.298" /></g></g></g></g></svg>