<?xml version="1.0" encoding="utf-8"?>
<!-- Generator: Adobe Illustrator 22.0.1, SVG Export Plug-In . SVG Version: 6.00 Build 0)  -->
<svg version="1.0" id="Ebene_1" xmlns="http://www.w3.org/2000/svg" xmlns:xlink="http://www.w3.org/1999/xlink" x="0px" y="0px"
	 viewBox="0 0 1920 1108.9" enable-background="new 0 0 1920 1108.9" xml:space="preserve">
<rect id="Rechteck_380" y="-9.3" fill="#FF6167" width="1921" height="1119.6"/>
<path id="Pfad_995" fill="none" stroke="#141843" stroke-width="10" stroke-miterlimit="10" d="M1050.5,387v-98.6
	c0-19.3,15.6-34.9,34.8-34.9c0,0,0,0,0.1,0h170.2c19.3,0,34.9-15.6,34.9-34.8c0,0,0,0,0-0.1v-34.1"/>
<g id="Gruppe_508">
	<g id="Gruppe_507">
		<g id="Gruppe_506">

				<line id="Linie_17" fill="none" stroke="#141843" stroke-width="10" stroke-miterlimit="10" x1="1038.4" y1="563.7" x2="1038.4" y2="998.2"/>
			<g id="Gruppe_505">
				<circle id="Ellipse_35" fill="#141843" cx="1038.4" cy="997.6" r="11.3"/>
			</g>
		</g>
	</g>
</g>
<path id="Pfad_996" fill="none" stroke="#141843" stroke-width="10" stroke-miterlimit="10" d="M1649,580.8h5.5
	c13.5,0,24.4,10.9,24.4,24.3c0,0,0,0,0,0.1v192c0,18.7-15.2,33.9-33.9,33.9h-72"/>
<path id="Pfad_997" fill="none" stroke="#141843" stroke-width="10" stroke-miterlimit="10" d="M1092.3,506.8h415.3
	c11.2,0,20.3,9.1,20.3,20.3v39.7c0,7.7,6.2,14,14,14c0,0,0,0,0,0h6.1"/>
<path id="Pfad_998" fill="none" stroke="#141843" stroke-width="10" stroke-miterlimit="10" d="M1098.3,459.9h266.5
	c17.9,0,32.5-14.6,32.5-32.5l0,0v-17.3"/>
<g id="Gruppe_509">

		<line id="Linie_18" fill="none" stroke="#141843" stroke-width="10" stroke-miterlimit="10" x1="390.4" y1="486" x2="390.4" y2="701.4"/>
	<path id="Pfad_999" fill="none" stroke="#141843" stroke-width="10" stroke-miterlimit="10" d="M429.6,486h-90.3
		c-19.7,0-35.6-15.9-35.6-35.6v-36.3"/>

		<line id="Linie_19" fill="none" stroke="#141843" stroke-width="10" stroke-miterlimit="10" x1="804.3" y1="486" x2="539.3" y2="486"/>
</g>
<g id="Gruppe_513">

		<line id="Linie_20" fill="none" stroke="#141843" stroke-width="10" stroke-miterlimit="10" x1="838.8" y1="178.4" x2="931.6" y2="178.4"/>
	<g id="Gruppe_512">
		<g id="Gruppe_511">
			<path id="Pfad_1000" fill="none" stroke="#141843" stroke-width="10" stroke-miterlimit="10" d="M931.6,343V111.3
				c0-11,8.9-20,20-20c0,0,0,0,0,0H1053"/>
			<g id="Gruppe_510">
				<circle id="Ellipse_36" fill="#141843" cx="1052.4" cy="91.3" r="11.3"/>
			</g>
		</g>
	</g>
</g>
<g id="Gruppe_520">
	<g id="Gruppe_516">
		<g id="Gruppe_515">
			<path id="Pfad_1001" fill="none" stroke="#141843" stroke-width="10" stroke-miterlimit="10" d="M841.8,569.7H693.9
				c-12.1,0-21.9,9.8-21.9,21.9c0,0,0,0,0,0v208.6"/>
			<g id="Gruppe_514">
				<circle id="Ellipse_37" fill="#141843" cx="672.1" cy="799.6" r="11.3"/>
			</g>
		</g>
	</g>
	<g id="Gruppe_519">
		<g id="Gruppe_518">

				<line id="Linie_21" fill="none" stroke="#141843" stroke-width="10" stroke-miterlimit="10" x1="455.2" y1="656.8" x2="668.5" y2="656.8"/>
			<g id="Gruppe_517">
				<circle id="Ellipse_38" fill="#141843" cx="455.7" cy="656.8" r="11.3"/>
			</g>
		</g>
	</g>
</g>
<g id="Gruppe_521">
	<circle id="Ellipse_39" fill="#FF6167" cx="772.5" cy="178.4" r="53.4"/>
	<circle id="Ellipse_40" fill="none" stroke="#141843" stroke-width="10" stroke-miterlimit="10" cx="772.5" cy="178.4" r="65.3"/>
	<path id="Pfad_1003" fill="#FFFFFF" d="M791.1,157.9h-41.5c-4.9,0-8.8,4.5-8.8,10.1v19.1c0,5.6,4,10.1,8.8,10.1h28.5l14.7,13.8
		l-2.5-13.8h0.8c4.9,0,8.8-4.5,8.8-10.1V168C799.9,162.5,796,157.9,791.1,157.9z"/>
</g>
<circle id="Ellipse_42" fill="none" stroke="#141843" stroke-width="10" stroke-miterlimit="10" cx="485.7" cy="485.8" r="53.2"/>
<path id="Pfad_1004" fill="#FFFFFF" d="M506.6,482.3c-0.6-0.7-0.7-1.7-0.3-2.5c1.9-3.5-2-5-3.2-5.4c-0.2-0.1-0.4-0.1-0.6-0.1
	l-8.8-0.5c-1.3-0.1-2.2-1.2-2.1-2.5c0,0,0-0.1,0-0.1c1.4-8.3-0.2-10.1-0.2-10.1c-1.9-3.3-4-3.9-5.5-3.7c-1.1,0.1-1.9,1.1-1.9,2.2
	l0.1,7.1c0,0.4-0.1,0.8-0.3,1.2l-6.5,11.3c-0.2,0.3-0.4,0.5-0.7,0.7c-0.2,0.1-0.3,0.2-0.4,0.4c-0.1,0.2-0.3,0.2-0.5,0.2H474
	c-0.3,0-0.6,0.3-0.6,0.6l-0.4,16.5c0,0.3,0.3,0.6,0.6,0.6h2c0.1,0,0.3,0,0.4,0.1c1.3,0.8,2.7,1.5,4.1,2.1c0.3,0.1,0.6,0.2,0.9,0.2
	l17.5,0.4c0.2,0,0.4,0,0.6-0.1c3.4-0.8,3.7-3.1,3.6-4.6c-0.1-0.9,0.3-1.7,1-2.2c1.5-1.1,2.2-3,1.8-4.8c-0.1-0.8,0.2-1.6,0.8-2.1
	C508.6,485.5,507.6,483.5,506.6,482.3z"/>
<g id="Gruppe_522">
	<path id="Pfad_1005" fill="#FFFFFF" d="M473.2,501.6l-10.1-0.2c-0.9,0-1.5-0.7-1.5-1.6l0.5-21.4c0-0.9,0.7-1.5,1.6-1.5l10.1,0.2
		c0.9,0,1.5,0.7,1.5,1.6l-0.5,21.4c0,0.8-0.7,1.5-1.5,1.5C473.3,501.6,473.3,501.6,473.2,501.6z"/>
	<path id="Pfad_1006" fill="#FF6167" d="M472,502.7l-7.6-0.2c-2.1,0-3.8-1.8-3.8-3.9l0.4-18.9c0-2.1,1.8-3.8,3.9-3.8l7.6,0.2
		c2.1,0,3.8,1.8,3.8,3.9l-0.4,18.9C475.8,501,474.1,502.7,472,502.7z M464.9,478c-0.9,0-1.7,0.7-1.7,1.6l-0.4,18.9
		c0,0.9,0.7,1.7,1.6,1.7l7.6,0.2c0.9,0,1.7-0.7,1.7-1.6l0.4-18.9c0-0.9-0.7-1.7-1.6-1.7L464.9,478z"/>
</g>
<g id="Gruppe_523">
	<circle id="Ellipse_43" fill="#FF6167" cx="1601" cy="576.9" r="39.2"/>
	<path id="Pfad_1007" fill="#FFFFFF" d="M1616.7,565.1c-9.5-4.6-15.4,2.9-16,3.8c-3.7-5.1-10.5-6.7-16-3.8c0,0-8.9,6.4-2.8,15.3
		c0,0,12,11.6,16.9,16l0,0l1.8,1.5h0.2v-0.1c2.1-1.3,18.7-17.5,18.7-17.5C1625.7,571.5,1616.7,565.1,1616.7,565.1z"/>
</g>
<g id="Gruppe_524">
	<circle id="Ellipse_44" fill="none" stroke="#141843" stroke-width="10" stroke-miterlimit="10" cx="1601" cy="576.9" r="51.3"/>
	<path id="Pfad_1008" fill="none" d="M1621.5,561.5c-12.4-6-20.1,3.8-20.9,4.9c-0.8-1.1-8.5-10.9-20.9-4.9c0,0-11.7,8.3-3.6,20
		c0,0,15.6,15.2,22,20.9l0,0l2.4,2h0.2v-0.1c2.7-1.7,24.4-22.8,24.4-22.8C1633.2,569.8,1621.5,561.5,1621.5,561.5z"/>
</g>
<circle id="Ellipse_45" fill="#FF6167" stroke="#141843" stroke-width="10" stroke-miterlimit="10" cx="949.2" cy="470.3" r="145.8"/>
<line id="Linie_22" fill="none" stroke="#141843" stroke-width="10" stroke-miterlimit="10" x1="923.8" y1="746.3" x2="1038.4" y2="746.3"/>
<g id="Gruppe_526">
	<circle id="Ellipse_46" fill="#141843" cx="862.9" cy="746.2" r="48.8"/>
	<circle id="Ellipse_47" fill="none" stroke="#141843" stroke-width="10" stroke-miterlimit="10" cx="862.9" cy="746.2" r="63.4"/>
	<path id="Pfad_1009" fill="#FFFFFF" d="M858.8,733.9l2.4,5.8c-0.5,1.1-1.2,2-2,2.8c-0.9,0.7,3.1,7.4,8.9,9.1c1-0.9,1.9-1.9,2.8-2.9
		c0.1-0.3,6,2.1,6.2,2.9c0.2,0.8,0.7,3.5-4.1,5.5c-4.9,2-14.4-6.8-14.9-7.1s-4.4-4.9-5.3-9.2c-0.8-4.3,3.4-6.8,3.4-6.8
		C857,733.7,858,733.6,858.8,733.9z"/>
	<g id="Gruppe_525">
		<path id="Pfad_1010" fill="#FFFFFF" d="M837.1,772.8l5.1-13c-7.9-12.2-4.4-28.4,7.8-36.2c12.2-7.9,28.4-4.4,36.2,7.8
			c7.9,12.2,4.4,28.4-7.8,36.2c-8.4,5.4-19.1,5.6-27.6,0.5L837.1,772.8z M851.9,760.6l1.4,1c8.8,6.1,20.9,3.9,27-5s3.9-20.9-5-27
			s-20.9-3.9-27,5c-2.2,3.2-3.4,7.1-3.4,11c0,4.2,1.3,8.3,3.9,11.6l1.2,1.5l-1.1,2.8L851.9,760.6z"/>
	</g>
</g>
<g id="Gruppe_528">
	<g id="Gruppe_527">
		<circle id="Ellipse_48" fill="none" stroke="#141843" stroke-width="10" stroke-miterlimit="10" cx="1292" cy="128.3" r="58.5"/>
		<circle id="Ellipse_49" fill="#141843" cx="1292" cy="128.3" r="46.3"/>
	</g>
	<path id="Pfad_1011" fill="#EFEBE3" d="M1283.9,161.5h13V129h9.1l1-10.9h-10v-6.2c0-2.6,0.5-3.6,3-3.6h7V97.1h-9
		c-9.7,0-14,4.3-14,12.4v8.7h-6.7v11h6.7L1283.9,161.5L1283.9,161.5z"/>
</g>
<g id="Gruppe_532">
	<g id="Gruppe_529">

			<circle id="Ellipse_50" fill="none" stroke="#141843" stroke-width="10" stroke-miterlimit="10" cx="389.8" cy="812.9" r="111.8"/>
		<circle id="Ellipse_51" fill="#141843" cx="389.9" cy="812.8" r="95.9"/>
	</g>
	<g id="Gruppe_531">
		<g id="Gruppe_530">
			<rect id="Rechteck_324" x="344.3" y="785.7" fill="#FFFFFF" width="20.9" height="67.6"/>
			<path id="Pfad_1012" fill="#FFFFFF" d="M354.7,776.9c6.9,0.1,12.5-5.5,12.6-12.4c0.1-6.9-5.5-12.5-12.4-12.6
				c-6.9-0.1-12.5,5.5-12.6,12.4c0,0,0,0.1,0,0.1C342.3,771.3,347.8,776.9,354.7,776.9z"/>
		</g>
		<path id="Pfad_1013" fill="#FFFFFF" d="M398.7,817.9c0-9.5,4.4-15.2,12.8-15.2c7.7,0,11.4,5.4,11.4,15.2v35.5h20.8v-42.8
			c0-18.1-10.3-26.9-24.6-26.9c-8.3-0.1-16,4.2-20.4,11.2v-9.1h-20v67.6h20V817.9z"/>
	</g>
</g>
<g id="Gruppe_536">
	<g id="Gruppe_533">
		<path id="Pfad_1014" fill="#FFFFFF" d="M914.2,492.6c-1.6,0-4.2-1.6-6.1-3.6c-2.7-2.8-3.2-5.5-1.7-9c2.3-5.6,10.9-15.3,18.4-25.6
			c-7.2,4.3-19.6,14.8-31.2,32.6c-3.3,5.2-5.5,5.6-8.1,4.8c-1.8-0.8-3.5-1.8-5.2-2.9c-1.8-1.2-2.9-3.7-2.6-7.1
			c0.5-4,4.8-10.4,8.8-15.8c13.5-17.8,16.4-21.3,18.4-21.3c2.1,0,4.9,2.9,8.5,4.9c2.2,1.1,2.8,2.5,2.6,4.4c7.4-5.6,11.7-7.7,14-7.7
			c1.8,0,3.6,0.7,5,1.8c1.7,1.3,2.7,2.6,2.7,4.9c0,2.8-1.5,6.9-3.7,10.7c9.6-7.4,12-8.8,14.7-8.8c1.6,0,3.1,0.4,4.5,1.2
			c2.5,1.2,3.7,3.3,3.7,4.9c0,5.5-8.6,13.9-11.5,21c6-1.2,12.6-5.8,20.2-15.9l0.4-0.5c0.9-1.1,1.1-1.2,1.5-0.9l0.4,0.4
			c0.7,0.5,0.8,1.5,0.3,2.1c0,0.1-0.1,0.1-0.1,0.2l-0.4,0.6c-7.2,12.1-19,21.5-26.7,21.5c-7,0-10.5-7.1-10.1-10.7
			c0.6-3.2,1.8-6.3,3.6-9.1c-3.6,2.8-7,7.9-13.4,16.3C917.3,491,915.8,492.6,914.2,492.6z"/>
		<path id="Pfad_1015" fill="#FFFFFF" d="M952.8,516.2c5.3-3.3,11.4-9.1,18.3-17.6c-14.2,3.9-20.4,6.6-25.1,10.8
			c-4.2,3.7-5.2,7.1-4.8,10.3l-3.1,5.2c-2.9-2.6-4.9-5.6-4.9-10.2c0-3.3,1.6-7.1,5.3-10.4c7.4-6.5,21.6-9.7,38.4-13.2
			c3.1-4.3,6-8.9,8.7-13.5c-9.6,9.6-13.7,11.7-17.8,11.7c-2.1,0-3.3-0.5-5.6-2.1c-3.1-2.1-3.4-3.8-1.5-9.7
			c2.8-8.1,11.8-23.7,15.2-31.4c0.2-0.6,0.6-0.9,1.6-0.9c1.8,0.2,3.6,0.5,5.3,1c5,1.3,6.1,3.6,4.9,7.7c-1.1,3.9-5.3,12.8-8.6,21.6
			c6.7-3.7,15.2-11.9,22.4-24.8c1.3-2.3,2.2-3.2,3.7-3.2c2.6,0.3,5.1,1.1,7.4,2.2c2,1.1,2.3,2.2,1.5,4.9c-1.7,5.8-9.9,20-17.8,32
			c8.5-3.4,15.5-7.7,18.3-11.4c0.2-0.4,0.6-0.4,0.7,0c0.3,1.8,0,3.6-0.7,5.2c-2.5,4.7-11.2,9.4-23.4,13.9
			c-12.4,18.1-25,27.9-34.1,31.9"/>
	</g>
	<g id="Gruppe_534">
		<path id="Pfad_1016" fill="#141843" d="M875,424.1l7.6-4.4c1.4,3.2,3.8,5.4,8.1,5.4c4.2,0,5.3-1.7,5.3-3.2c0-2.4-2.2-3.3-8-4.9
			s-11.4-4.4-11.4-11.8c0-7.5,6.3-11.8,13-11.8c6.1-0.2,11.6,3.2,14.2,8.7l-7.5,4.4c-1.3-2.8-3.2-4.5-6.7-4.5
			c-2.8,0-4.1,1.4-4.1,2.9c0,1.8,0.9,3,7,4.8c5.9,1.8,12.4,3.8,12.4,12c0,7.5-6,11.9-14.4,11.9C882.3,433.7,877.2,429.8,875,424.1z"
			/>
		<path id="Pfad_1017" fill="#141843" d="M935.5,415.9v17h-8.3v-15.8c0-3.4-2.2-5-4.8-5c-3,0-5.1,1.8-5.1,5.7v15.1H909v-38.7h8.3
			v13.6c1.5-2,4.3-3.4,7.9-3.4C930.8,404.5,935.5,408.4,935.5,415.9z"/>
		<path id="Pfad_1018" fill="#141843" d="M969.6,405.2v27.6h-8.3v-2.6c-2.1,2.3-5.1,3.6-8.2,3.4c-7.2,0-13.2-6.4-13.2-14.6
			s6-14.6,13.2-14.6c3.1-0.2,6.1,1.1,8.2,3.4v-2.6L969.6,405.2L969.6,405.2z M961.3,419.1c-0.1-3.6-3.1-6.6-6.7-6.5
			s-6.6,3.1-6.5,6.7c0.1,3.6,3,6.5,6.6,6.5c3.5,0.2,6.4-2.5,6.6-6C961.3,419.6,961.3,419.4,961.3,419.1z"/>
		<path id="Pfad_1019" fill="#141843" d="M992.3,404.7v9.4c-3.4-0.6-8.3,0.8-8.3,6.3v12.5h-8.3v-27.6h8.3v4.9
			C985.1,406.5,988.8,404.7,992.3,404.7z"/>
		<path id="Pfad_1020" fill="#141843" d="M1009.3,426.2c2,0.1,3.9-0.7,5.3-2.1l6.6,3.8c-2.7,3.8-6.8,5.7-12.1,5.7
			c-9.5,0-15.3-6.4-15.3-14.6c-0.2-7.8,6-14.4,13.8-14.6c0.3,0,0.6,0,0.9,0c8.1,0,14,6.2,14,14.6c0,1.1-0.1,2.2-0.3,3.3h-19.6
			C1003.8,425.3,1006.3,426.2,1009.3,426.2z M1014.4,416.2c-0.7-2.7-3.1-4.5-5.9-4.4c-3.2,0-5.3,1.5-6,4.4H1014.4z"/>
	</g>
	<g id="Gruppe_535">
		<path id="Pfad_1021" fill="#141843" d="M899.3,511.7h-10v30.2h-8.8v-30.2h-10v-8.5h28.8V511.7z"/>
		<path id="Pfad_1022" fill="#141843" d="M929.4,525v17h-8.3v-15.8c0-3.4-2.2-5-4.8-5c-3,0-5.1,1.8-5.1,5.7V542h-8.3v-38.7h8.3V517
			c1.5-2,4.3-3.4,7.9-3.4C924.6,513.5,929.4,517.5,929.4,525z"/>
		<path id="Pfad_1023" fill="#141843" d="M949.1,535.3c2,0.1,3.9-0.7,5.3-2.1l6.6,3.8c-2.7,3.8-6.8,5.7-12.1,5.7
			c-9.5,0-15.3-6.4-15.3-14.6c-0.2-7.8,6-14.4,13.8-14.6c0.3,0,0.6,0,0.9,0c8.1,0,14,6.2,14,14.6c0,1.1-0.1,2.2-0.3,3.3h-19.6
			C943.6,534.3,946.1,535.3,949.1,535.3z M954.2,525.2c-0.7-2.7-3.1-4.5-5.9-4.4c-3.2,0-5.3,1.5-6,4.4H954.2z"/>
		<path id="Pfad_1024" fill="#141843" d="M987.5,533.6c0,6.4-5.5,9.1-11.5,9.1c-5.5,0-9.7-2.1-11.9-6.6l7.2-4.1
			c0.6,2.1,2.6,3.4,4.7,3.3c2,0,3-0.6,3-1.7c0-3-13.6-1.4-13.6-11c0-6,5.1-9.1,10.8-9.1c4.4-0.1,8.5,2.1,10.8,5.9l-7.1,3.8
			c-0.7-1.5-2.1-2.4-3.7-2.4c-1.4,0-2.3,0.6-2.3,1.5C973.9,525.5,987.5,523.4,987.5,533.6z"/>
		<path id="Pfad_1025" fill="#141843" d="M990.8,506.9c0-2.8,2.2-5,5-5s5,2.2,5,5s-2.2,5-5,5C993.1,511.9,990.8,509.7,990.8,506.9z
			 M991.7,514.3h8.3v27.6h-8.3V514.3z"/>
		<path id="Pfad_1026" fill="#141843" d="M1027.2,533.6c0,6.4-5.5,9.1-11.5,9.1c-5.5,0-9.7-2.1-11.9-6.6l7.2-4.1
			c0.6,2.1,2.6,3.4,4.7,3.3c2,0,3-0.6,3-1.7c0-3-13.6-1.4-13.6-11c0-6,5.1-9.1,10.8-9.1c4.4-0.1,8.5,2.1,10.8,5.9l-7.1,3.8
			c-0.7-1.5-2.1-2.4-3.7-2.4c-1.4,0-2.3,0.6-2.3,1.5C1013.6,525.5,1027.2,523.4,1027.2,533.6z"/>
	</g>
</g>
<g id="Gruppe_537">
	<circle id="Ellipse_52" fill="none" stroke="#141843" stroke-width="10" stroke-miterlimit="10" cx="1396.8" cy="340" r="69.1"/>
	<circle id="Ellipse_53" fill="#141843" cx="1396.7" cy="340" r="55.9"/>
</g>
<g id="Gruppe_538">
	<path id="Pfad_1027" fill="#EFEBE3" d="M1396.8,314.6c8.6,0,9.7,0,13.1,0.2c2,0,4.1,0.4,6,1.1c2.8,1.1,5,3.3,6.1,6.1
		c0.7,1.9,1.1,4,1.1,6c0.2,3.4,0.2,4.4,0.2,13.1c0,8.6,0,9.7-0.2,13.1c0,2-0.4,4.1-1.1,6c-1.1,2.8-3.3,5-6.1,6.1
		c-1.9,0.7-4,1.1-6,1.1c-3.4,0.2-4.4,0.2-13.1,0.2s-9.7,0-13.1-0.2c-2,0-4.1-0.4-6-1.1c-2.8-1.1-5-3.3-6.1-6.1c-0.7-1.9-1.1-4-1.1-6
		c-0.2-3.4-0.2-4.4-0.2-13.1c0-8.6,0-9.7,0.2-13.1c0-2,0.4-4.1,1.1-6c1.1-2.8,3.3-5,6.1-6.1c1.9-0.7,4-1.1,6-1.1
		C1387.1,314.7,1388.1,314.6,1396.8,314.6 M1396.8,308.8c-8.8,0-9.9,0-13.3,0.2c-2.7,0.1-5.3,0.6-7.8,1.5c-4.3,1.7-7.7,5.1-9.4,9.4
		c-0.9,2.5-1.4,5.1-1.5,7.8c-0.2,3.4-0.2,4.5-0.2,13.3s0,9.9,0.2,13.3c0.1,2.7,0.6,5.3,1.5,7.8c1.7,4.3,5.1,7.7,9.4,9.4
		c2.5,0.9,5.1,1.4,7.8,1.5c3.4,0.2,4.5,0.2,13.3,0.2c8.8,0,9.9,0,13.3-0.2c2.7-0.1,5.3-0.6,7.8-1.5c4.3-1.7,7.7-5.1,9.4-9.4
		c0.9-2.5,1.4-5.1,1.5-7.8c0.2-3.4,0.2-4.5,0.2-13.3s0-9.9-0.2-13.3c-0.1-2.7-0.6-5.3-1.5-7.8c-1.7-4.3-5.1-7.7-9.4-9.4
		c-2.5-0.9-5.1-1.4-7.8-1.5C1406.6,308.8,1405.5,308.8,1396.8,308.8"/>
	<path id="Pfad_1028" fill="#EFEBE3" d="M1396.8,324.5c-9.2,0-16.6,7.4-16.6,16.6s7.4,16.6,16.6,16.6c9.2,0,16.6-7.4,16.6-16.6
		c0,0,0,0,0,0C1413.3,332,1405.9,324.6,1396.8,324.5 M1396.8,351.9c-6,0-10.8-4.8-10.8-10.8c0-6,4.8-10.8,10.8-10.8
		s10.8,4.8,10.8,10.8v0C1407.5,347.1,1402.7,351.9,1396.8,351.9"/>
	<path id="Pfad_1029" fill="#EFEBE3" d="M1417.9,323.9c0,2.2-1.7,3.9-3.9,3.9c-2.2,0-3.9-1.7-3.9-3.9c0-2.2,1.7-3.9,3.9-3.9
		C1416.1,320,1417.9,321.8,1417.9,323.9C1417.9,323.9,1417.9,323.9,1417.9,323.9"/>
</g>
<g id="Gruppe_540">
	<g id="Gruppe_539">
		<circle id="Ellipse_54" fill="none" stroke="#141843" stroke-width="10" stroke-miterlimit="10" cx="304.5" cy="366.6" r="51.8"/>
		<circle id="Ellipse_55" fill="#141843" cx="304.5" cy="366.6" r="40.7"/>
	</g>
	<path id="Pfad_1030" fill="#FFFFFF" d="M292.1,373.2c0.5,0.3,1.1,0.1,1.4-0.4c0-0.1,0.1-0.2,0.1-0.3c0.1-0.5,0.5-1.8,0.6-2.3
		c0.2-0.6,0.1-1.2-0.4-1.6c-1.3-1.6-2-3.6-1.9-5.7c0-7.4,5.5-14,14.4-14c7.9,0,12.2,4.8,12.2,11.2c0,8.4-3.7,15.6-9.3,15.6
		c-3.1,0-5.4-2.5-4.6-5.6c0.9-3.7,2.6-7.7,2.6-10.4c0-2.4-1.3-4.4-3.9-4.4c-3.1,0-5.6,3.2-5.6,7.6c0,1.6,0.3,3.1,0.9,4.6
		c0,0-3.2,13.6-3.8,15.9c-1.1,4.7-0.2,10.5-0.1,11.1c0,0.3,0.5,0.4,0.7,0.2c0.3-0.4,4-5,5.3-9.6c0.4-1.3,2.1-8,2.1-8
		c1,1.9,4,3.6,7.1,3.6c9.4,0,15.8-8.6,15.8-20.1c0-8.7-7.4-16.8-18.5-16.8c-13.9,0-20.9,10-20.9,18.3
		C286.1,367,288,371.5,292.1,373.2z"/>
</g>
<g id="Gruppe_544">
	<g id="Gruppe_541">
		<circle id="Ellipse_56" fill="none" stroke="#141843" stroke-width="10" stroke-miterlimit="10" cx="1496.6" cy="825.1" r="80"/>
		<circle id="Ellipse_57" fill="#141843" cx="1496.5" cy="825.1" r="66.2"/>
	</g>
	<g id="Gruppe_543">
		<path id="Pfad_1031" fill="#FFFFFF" d="M1489.3,848.1c2.1-0.4,4-1.3,5.7-2.5c1.4-1.1,2.6-2.5,3.6-4c1.5-2.4,2.3-5.2,2.3-8.1
			c0.1-2.6-0.6-5.2-2-7.4c-1.4-2.1-3.5-3.7-5.9-4.5c1.5-0.7,2.8-1.7,3.9-2.9c1.6-2.1,2.5-4.8,2.3-7.5c0.1-2.7-0.7-5.4-2.3-7.7
			c-2.6-3.5-7-5.3-13.1-5.4h-24.5v50.7h22.8C1484.5,848.8,1486.9,848.6,1489.3,848.1z M1469.4,806.9h11c2,0,4.1,0.2,6,0.8
			c1.8,0.8,2.7,2.3,2.7,4.7c0.2,1.8-0.6,3.5-2.1,4.5c-1.7,0.9-3.5,1.3-5.4,1.3h-12.3L1469.4,806.9L1469.4,806.9z M1469.4,840v-13.5
			h12.5c1.7-0.1,3.5,0.2,5.1,0.9c2.2,1,3.2,2.8,3.2,5.4c0,3.1-1.1,5.2-3.3,6.3c-1.6,0.7-3.4,1-5.1,0.9L1469.4,840L1469.4,840z"/>
		<g id="Gruppe_542">
			<path id="Pfad_1032" fill="#FFFFFF" d="M1509.4,845.4c3.7,3.1,8.4,4.7,13.2,4.6c6,0,10.7-1.8,14.1-5.5c2.2-2.3,3.4-4.6,3.6-6.8
				h-10c-0.5,1-1.2,1.9-2,2.6c-1.6,1.2-3.5,1.8-5.4,1.7c-1.9,0-3.8-0.4-5.4-1.4c-2.5-1.5-3.8-4.1-3.9-7.9h27.3
				c0-2.5-0.1-4.9-0.3-7.4c-0.4-2.8-1.5-5.4-3-7.7c-1.6-2.4-3.8-4.3-6.5-5.5c-2.8-1.2-5.8-1.9-8.8-1.8c-5.5,0-10,1.7-13.4,5.2
				s-5.2,8.4-5.2,14.9C1503.7,837.4,1505.6,842.4,1509.4,845.4z M1516.4,820.5c1.6-1.5,3.7-2.2,5.8-2.1c2.1-0.1,4.2,0.7,5.8,2
				c1.6,1.3,2.4,3.3,2.6,5.9h-16.9C1514,824.2,1515,822.2,1516.4,820.5L1516.4,820.5z"/>
			<rect id="Rechteck_325" x="1510.6" y="801" fill="#FFFFFF" width="22" height="5.1"/>
		</g>
	</g>
</g>
<rect id="Rechteck_332" x="699.3" y="918.7" fill="#FFFFFF" stroke="#141843" stroke-width="10" stroke-linecap="round" stroke-linejoin="round" stroke-miterlimit="10" width="648" height="96.5"/>
</svg>
