<?xml version="1.0" encoding="UTF-8" standalone="no"?>
<svg
   xmlns:dc="http://purl.org/dc/elements/1.1/"
   xmlns:cc="http://creativecommons.org/ns#"
   xmlns:rdf="http://www.w3.org/1999/02/22-rdf-syntax-ns#"
   xmlns="http://www.w3.org/2000/svg"
   viewBox="0 0 2560 1600"
   height="1600"
   width="2560"
   xml:space="preserve"
   id="svg2"
   version="1.1"><metadata
     id="metadata8"><rdf:RDF><cc:Work
         rdf:about=""><dc:format>image/svg+xml</dc:format><dc:type
           rdf:resource="http://purl.org/dc/dcmitype/StillImage" /></cc:Work></rdf:RDF></metadata><defs
     id="defs6"><clipPath
       id="clipPath18"
       clipPathUnits="userSpaceOnUse"><path
         id="path16"
         d="M 0,1200 H 1920 V 0 H 0 Z" /></clipPath><clipPath
       id="clipPath294"
       clipPathUnits="userSpaceOnUse"><path
         id="path292"
         d="m 900,192.25 h 151.6 v -50.4 H 900 Z" /></clipPath><clipPath
       id="clipPath298"
       clipPathUnits="userSpaceOnUse"><path
         id="path296"
         d="m 900,192.25 h 151.6 v -50.4 H 900 Z" /></clipPath></defs><g
     transform="matrix(1.3333333,0,0,-1.3333333,0,1600)"
     id="g10"><g
       id="g12"><g
         clip-path="url(#clipPath18)"
         id="g14"><g
           transform="translate(1103.292,748.6709)"
           id="g20"><path
             id="path22"
             style="fill:none;stroke:#141843;stroke-width:10;stroke-linecap:butt;stroke-linejoin:miter;stroke-miterlimit:10;stroke-dasharray:none;stroke-opacity:1"
             d="m 0,0 v 98.6 c -0.018,19.257 15.579,34.882 34.836,34.9 H 34.9 205.1 c 19.257,-0.018 34.882,15.579 34.9,34.836 v 0.064 34.1" /></g><g
           transform="translate(1091.1924,571.9707)"
           id="g24"><path
             id="path26"
             style="fill:none;stroke:#141843;stroke-width:10;stroke-linecap:butt;stroke-linejoin:miter;stroke-miterlimit:10;stroke-dasharray:none;stroke-opacity:1"
             d="M 0,0 V -434.5" /></g><g
           transform="translate(1091.1924,149.3711)"
           id="g28"><path
             id="path30"
             style="fill:#141843;fill-opacity:1;fill-rule:nonzero;stroke:none"
             d="m 0,0 c 6.24,0 11.3,-5.06 11.3,-11.3 0,-6.241 -5.06,-11.3 -11.3,-11.3 -6.241,0 -11.301,5.059 -11.301,11.3 0,6.24 5.06,11.3 11.301,11.3" /></g><g
           transform="translate(1382.292,554.8711)"
           id="g32"><path
             id="path34"
             style="fill:none;stroke:#141843;stroke-width:10;stroke-linecap:butt;stroke-linejoin:miter;stroke-miterlimit:10;stroke-dasharray:none;stroke-opacity:1"
             d="m 0,0 h 5.5 c 13.459,0.018 24.383,-10.879 24.4,-24.338 v -0.062 -192 C 29.884,-235.116 14.716,-250.284 -4,-250.3 h -72" /></g><g
           transform="translate(1117.6924,628.8711)"
           id="g36"><path
             id="path38"
             style="fill:none;stroke:#141843;stroke-width:10;stroke-linecap:butt;stroke-linejoin:miter;stroke-miterlimit:10;stroke-dasharray:none;stroke-opacity:1"
             d="m 0,0 h 123.199 c 11.208,-0.008 20.292,-9.092 20.301,-20.3 V -60 c -0.013,-7.72 6.234,-13.987 13.954,-14 h 0.046 6.1" /></g><g
           transform="translate(1102.0918,675.771)"
           id="g40"><path
             id="path42"
             style="fill:none;stroke:#141843;stroke-width:10;stroke-linecap:butt;stroke-linejoin:miter;stroke-miterlimit:10;stroke-dasharray:none;stroke-opacity:1"
             d="M 0,0 H 144.5 C 162.449,0 177,14.551 177,32.5 v 17.3" /></g><g
           transform="translate(666.6919,649.6709)"
           id="g44"><path
             id="path46"
             style="fill:none;stroke:#141843;stroke-width:10;stroke-linecap:butt;stroke-linejoin:miter;stroke-miterlimit:10;stroke-dasharray:none;stroke-opacity:1"
             d="M 0,0 V -215.399" /></g><g
           transform="translate(705.8921,649.6709)"
           id="g48"><path
             id="path50"
             style="fill:none;stroke:#141843;stroke-width:10;stroke-linecap:butt;stroke-linejoin:miter;stroke-miterlimit:10;stroke-dasharray:none;stroke-opacity:1"
             d="m 0,0 h -90.3 c -19.658,0.008 -35.593,15.942 -35.6,35.6 v 36.3" /></g><g
           transform="translate(892.4922,649.6709)"
           id="g52"><path
             id="path54"
             style="fill:none;stroke:#141843;stroke-width:10;stroke-linecap:butt;stroke-linejoin:miter;stroke-miterlimit:10;stroke-dasharray:none;stroke-opacity:1"
             d="M 0,0 H -76.9" /></g><g
           transform="translate(891.5918,957.271)"
           id="g56"><path
             id="path58"
             style="fill:none;stroke:#141843;stroke-width:10;stroke-linecap:butt;stroke-linejoin:miter;stroke-miterlimit:10;stroke-dasharray:none;stroke-opacity:1"
             d="M 0,0 H 92.8" /></g><g
           transform="translate(984.3916,792.6709)"
           id="g60"><path
             id="path62"
             style="fill:none;stroke:#141843;stroke-width:10;stroke-linecap:butt;stroke-linejoin:miter;stroke-miterlimit:10;stroke-dasharray:none;stroke-opacity:1"
             d="m 0,0 v 231.7 c -0.003,11.043 8.946,19.997 19.988,20 H 20 121.4" /></g><g
           transform="translate(1105.1924,1055.6709)"
           id="g64"><path
             id="path66"
             style="fill:#141843;fill-opacity:1;fill-rule:nonzero;stroke:none"
             d="m 0,0 c 6.24,0 11.3,-5.059 11.3,-11.3 0,-6.241 -5.06,-11.3 -11.3,-11.3 -6.241,0 -11.301,5.059 -11.301,11.3 0,6.241 5.06,11.3 11.301,11.3" /></g><g
           transform="translate(942.6919,565.9707)"
           id="g68"><path
             id="path70"
             style="fill:none;stroke:#141843;stroke-width:10;stroke-linecap:butt;stroke-linejoin:miter;stroke-miterlimit:10;stroke-dasharray:none;stroke-opacity:1"
             d="m 0,0 h -97 c -12.092,0.004 -21.896,-9.796 -21.9,-21.888 V -21.899 -230.5" /></g><g
           transform="translate(823.8921,347.3711)"
           id="g72"><path
             id="path74"
             style="fill:#141843;fill-opacity:1;fill-rule:nonzero;stroke:none"
             d="m 0,0 c 6.241,0 11.3,-5.06 11.3,-11.3 0,-6.241 -5.059,-11.3 -11.3,-11.3 -6.241,0 -11.3,5.059 -11.3,11.3 C -11.3,-5.06 -6.241,0 0,0" /></g><g
           transform="translate(606.9922,478.8711)"
           id="g76"><path
             id="path78"
             style="fill:none;stroke:#141843;stroke-width:10;stroke-linecap:butt;stroke-linejoin:miter;stroke-miterlimit:10;stroke-dasharray:none;stroke-opacity:1"
             d="M 0,0 H 213.3" /></g><g
           transform="translate(607.4922,490.1709)"
           id="g80"><path
             id="path82"
             style="fill:#141843;fill-opacity:1;fill-rule:nonzero;stroke:none"
             d="m 0,0 c 6.241,0 11.3,-5.059 11.3,-11.3 0,-6.241 -5.059,-11.3 -11.3,-11.3 -6.241,0 -11.3,5.059 -11.3,11.3 C -11.3,-5.059 -6.241,0 0,0" /></g><g
           transform="translate(825.292,1010.6709)"
           id="g84"><path
             id="path86"
             style="fill:#ff6167;fill-opacity:1;fill-rule:nonzero;stroke:none"
             d="m 0,0 c 29.492,0 53.4,-23.908 53.4,-53.4 0,-29.492 -23.908,-53.4 -53.4,-53.4 -29.492,0 -53.4,23.908 -53.4,53.4 C -53.4,-23.908 -29.492,0 0,0" /></g><g
           transform="translate(825.292,1022.5713)"
           id="g88"><path
             id="path90"
             style="fill:none;stroke:#141843;stroke-width:10;stroke-linecap:butt;stroke-linejoin:miter;stroke-miterlimit:10;stroke-dasharray:none;stroke-opacity:1"
             d="m 0,0 c 36.064,0 65.3,-29.236 65.3,-65.3 0,-36.064 -29.236,-65.3 -65.3,-65.3 -36.064,0 -65.3,29.236 -65.3,65.3 C -65.3,-29.236 -36.064,0 0,0 Z" /></g><g
           transform="translate(843.8921,977.771)"
           id="g92"><path
             id="path94"
             style="fill:#ffffff;fill-opacity:1;fill-rule:nonzero;stroke:none"
             d="m 0,0 h -41.5 c -4.9,0 -8.8,-4.5 -8.8,-10.1 v -19.1 c 0,-5.6 4,-10.1 8.8,-10.1 H -13 L 1.7,-53.1 -0.8,-39.3 H 0 c 4.9,0 8.8,4.5 8.8,10.1 v 19.1 C 8.8,-4.6 4.9,0 0,0" /></g><g
           transform="translate(760.9922,689.9712)"
           id="g96"><path
             id="path98"
             style="fill:#ff6167;fill-opacity:1;fill-rule:nonzero;stroke:none"
             d="m 0,0 c 22.146,0 40.1,-17.954 40.1,-40.1 0,-22.147 -17.954,-40.1 -40.1,-40.1 -22.147,0 -40.1,17.953 -40.1,40.1 C -40.1,-17.954 -22.147,0 0,0" /></g><g
           transform="translate(760.9922,703.0713)"
           id="g100"><path
             id="path102"
             style="fill:none;stroke:#141843;stroke-width:10;stroke-linecap:butt;stroke-linejoin:miter;stroke-miterlimit:10;stroke-dasharray:none;stroke-opacity:1"
             d="m 0,0 c 29.381,0 53.2,-23.819 53.2,-53.2 0,-29.382 -23.819,-53.2 -53.2,-53.2 -29.382,0 -53.2,23.818 -53.2,53.2 C -53.2,-23.819 -29.382,0 0,0 Z" /></g><g
           transform="translate(781.8921,653.3711)"
           id="g104"><path
             id="path106"
             style="fill:#ffffff;fill-opacity:1;fill-rule:nonzero;stroke:none"
             d="m 0,0 c -0.59,0.699 -0.708,1.682 -0.3,2.5 1.9,3.5 -2,5 -3.2,5.4 -0.189,0.081 -0.395,0.116 -0.6,0.1 l -8.8,0.5 c -1.267,0.099 -2.213,1.206 -2.114,2.473 0.004,0.042 0.008,0.085 0.014,0.127 1.4,8.3 -0.2,10.1 -0.2,10.1 -1.9,3.3 -4,3.9 -5.5,3.7 -1.103,-0.14 -1.922,-1.089 -1.9,-2.2 l 0.1,-7.1 c -0.004,-0.418 -0.107,-0.829 -0.3,-1.2 L -29.3,3.1 C -29.481,2.819 -29.719,2.581 -30,2.4 -30.179,2.321 -30.321,2.179 -30.4,2 -30.5,1.8 -30.7,1.8 -30.9,1.8 h -1.7 c -0.322,-0.022 -0.578,-0.278 -0.6,-0.6 l -0.4,-16.5 c 0.022,-0.322 0.278,-0.578 0.6,-0.6 h 2 c 0.141,0.015 0.283,-0.02 0.4,-0.1 1.303,-0.817 2.675,-1.521 4.1,-2.1 0.288,-0.114 0.591,-0.181 0.9,-0.2 l 17.5,-0.4 c 0.205,-0.016 0.411,0.018 0.6,0.1 3.4,0.8 3.7,3.1 3.6,4.6 -0.1,0.862 0.285,1.708 1,2.2 1.532,1.076 2.247,2.982 1.8,4.8 -0.088,0.788 0.21,1.57 0.8,2.1 C 2,-3.2 1,-1.2 0,0" /></g><g
           transform="translate(748.4922,634.0713)"
           id="g108"><path
             id="path110"
             style="fill:#ffffff;fill-opacity:1;fill-rule:nonzero;stroke:none"
             d="m 0,0 -10.1,0.2 c -0.854,0.033 -1.522,0.746 -1.5,1.6 l 0.5,21.4 c 0.033,0.853 0.746,1.522 1.6,1.5 L 0.6,24.5 C 1.453,24.467 2.122,23.754 2.1,22.9 L 1.6,1.5 C 1.602,0.671 0.932,-0.001 0.103,-0.003 0.069,-0.003 0.034,-0.002 0,0" /></g><g
           transform="translate(740.1919,657.6709)"
           id="g112"><path
             id="path114"
             style="fill:#ff6167;fill-opacity:1;fill-rule:nonzero;stroke:none"
             d="m 0,0 c -0.908,0.02 -1.664,-0.692 -1.7,-1.6 l -0.4,-18.9 c -0.019,-0.908 0.693,-1.664 1.6,-1.7 l 7.6,-0.2 c 0.908,-0.019 1.664,0.692 1.7,1.6 l 0.4,18.9 c 0.019,0.908 -0.692,1.665 -1.6,1.7 z m 7.1,-24.7 -7.6,0.2 c -2.118,0.046 -3.809,1.782 -3.8,3.9 l 0.4,18.9 C -3.854,0.418 -2.119,2.109 0,2.1 L 7.6,1.9 C 9.718,1.854 11.409,0.119 11.4,-2 L 11,-20.9 c -0.081,-2.103 -1.795,-3.774 -3.9,-3.8" /></g><g
           transform="translate(1334.292,597.9707)"
           id="g116"><path
             id="path118"
             style="fill:#ff6167;fill-opacity:1;fill-rule:nonzero;stroke:none"
             d="m 0,0 c 21.649,0 39.2,-17.55 39.2,-39.199 0,-21.651 -17.551,-39.2 -39.2,-39.2 -21.649,0 -39.2,17.549 -39.2,39.2 C -39.2,-17.55 -21.649,0 0,0" /></g><g
           transform="translate(1349.9922,570.5713)"
           id="g120"><path
             id="path122"
             style="fill:#ffffff;fill-opacity:1;fill-rule:nonzero;stroke:none"
             d="m 0,0 c -9.5,4.6 -15.4,-2.9 -16,-3.8 -3.658,5.052 -10.461,6.668 -16,3.8 0,0 -8.9,-6.4 -2.8,-15.3 0,0 12,-11.6 16.9,-16 l 1.799,-1.5 h 0.201 v 0.1 c 2.1,1.3 18.7,17.5 18.7,17.5 C 9,-6.4 0,0 0,0" /></g><g
           transform="translate(1334.292,610.0713)"
           id="g124"><path
             id="path126"
             style="fill:none;stroke:#141843;stroke-width:10;stroke-linecap:butt;stroke-linejoin:miter;stroke-miterlimit:10;stroke-dasharray:none;stroke-opacity:1"
             d="m 0,0 c 28.332,0 51.3,-22.968 51.3,-51.3 0,-28.333 -22.968,-51.301 -51.3,-51.301 -28.332,0 -51.3,22.968 -51.3,51.301 C -51.3,-22.968 -28.332,0 0,0 Z" /></g><g
           transform="translate(1001.9922,811.1709)"
           id="g128"><path
             id="path130"
             style="fill:#ff6167;fill-opacity:1;fill-rule:nonzero;stroke:none"
             d="m 0,0 c 80.523,0 145.8,-65.277 145.8,-145.8 0,-80.523 -65.277,-145.8 -145.8,-145.8 -80.523,0 -145.8,65.277 -145.8,145.8 C -145.8,-65.277 -80.523,0 0,0" /></g><g
           transform="translate(1001.9922,811.1709)"
           id="g132"><path
             id="path134"
             style="fill:none;stroke:#141843;stroke-width:10;stroke-linecap:butt;stroke-linejoin:miter;stroke-miterlimit:10;stroke-dasharray:none;stroke-opacity:1"
             d="m 0,0 c 80.523,0 145.8,-65.277 145.8,-145.8 0,-80.523 -65.277,-145.8 -145.8,-145.8 -80.523,0 -145.8,65.277 -145.8,145.8 C -145.8,-65.277 -80.523,0 0,0 Z" /></g><g
           transform="translate(976.5918,389.3711)"
           id="g136"><path
             id="path138"
             style="fill:none;stroke:#141843;stroke-width:10;stroke-linecap:butt;stroke-linejoin:miter;stroke-miterlimit:10;stroke-dasharray:none;stroke-opacity:1"
             d="M 0,0 H 114.601" /></g><g
           transform="translate(915.6919,438.2715)"
           id="g140"><path
             id="path142"
             style="fill:#141843;fill-opacity:1;fill-rule:nonzero;stroke:none"
             d="m 0,0 c 26.952,0 48.8,-21.849 48.8,-48.801 0,-26.951 -21.848,-48.8 -48.8,-48.8 -26.951,0 -48.8,21.849 -48.8,48.8 C -48.8,-21.849 -26.951,0 0,0" /></g><g
           transform="translate(915.6919,452.8711)"
           id="g144"><path
             id="path146"
             style="fill:none;stroke:#141843;stroke-width:10;stroke-linecap:butt;stroke-linejoin:miter;stroke-miterlimit:10;stroke-dasharray:none;stroke-opacity:1"
             d="m 0,0 c 35.015,0 63.4,-28.385 63.4,-63.4 0,-35.015 -28.385,-63.4 -63.4,-63.4 -35.015,0 -63.4,28.385 -63.4,63.4 C -63.4,-28.385 -35.015,0 0,0 Z" /></g><g
           transform="translate(911.5918,401.7715)"
           id="g148"><path
             id="path150"
             style="fill:#ffffff;fill-opacity:1;fill-rule:nonzero;stroke:none"
             d="m 0,0 2.4,-5.801 c -0.484,-1.051 -1.163,-2.001 -2,-2.8 -0.9,-0.7 3.1,-7.399 8.9,-9.099 0.982,0.918 1.917,1.887 2.8,2.899 0.1,0.301 6,-2.099 6.2,-2.899 0.2,-0.8 0.7,-3.5 -4.1,-5.5 -4.9,-2 -14.4,6.8 -14.9,7.099 -0.5,0.3 -4.4,4.901 -5.3,9.201 -0.8,4.299 3.4,6.799 3.4,6.799 C -1.779,0.27 -0.847,0.306 0,0" /></g><g
           transform="translate(904.6919,375.0713)"
           id="g152"><path
             id="path154"
             style="fill:#ffffff;fill-opacity:1;fill-rule:nonzero;stroke:none"
             d="m 0,0 1.4,-1 c 8.829,-6.083 20.917,-3.855 27,4.974 6.082,8.829 3.855,20.918 -4.974,27 C 14.597,37.056 2.509,34.829 -3.574,26 -5.803,22.765 -6.997,18.929 -7,15 -7.041,10.805 -5.667,6.718 -3.1,3.399 L -1.9,1.899 -3,-0.9 Z m -14.8,-12.2 5.1,13 c -7.853,12.166 -4.357,28.395 7.809,36.249 12.166,7.853 28.396,4.357 36.249,-7.81 C 42.212,17.073 38.715,0.844 26.549,-7.01 18.175,-12.415 7.46,-12.604 -1.1,-7.5 Z" /></g><g
           transform="translate(1344.6641,1065.8696)"
           id="g156"><path
             id="path158"
             style="fill:none;stroke:#141843;stroke-width:10;stroke-linecap:butt;stroke-linejoin:miter;stroke-miterlimit:10;stroke-dasharray:none;stroke-opacity:1"
             d="M 0,0 C 32.309,0.072 58.559,-26.061 58.631,-58.369 58.703,-90.678 32.57,-116.928 0.262,-117 -32.047,-117.072 -58.297,-90.939 -58.369,-58.63 -58.441,-26.322 -32.309,-0.072 0,0 Z" /></g><g
           transform="translate(1344.792,1053.6709)"
           id="g160"><path
             id="path162"
             style="fill:#141843;fill-opacity:1;fill-rule:nonzero;stroke:none"
             d="m 0,0 c 25.57,0 46.3,-20.729 46.3,-46.3 0,-25.571 -20.73,-46.3 -46.3,-46.3 -25.57,0 -46.3,20.729 -46.3,46.3 C -46.3,-20.729 -25.57,0 0,0" /></g><g
           transform="translate(1336.6924,974.1709)"
           id="g164"><path
             id="path166"
             style="fill:#efebe3;fill-opacity:1;fill-rule:nonzero;stroke:none"
             d="m 0,0 h 13 v 32.5 h 9.1 l 1,10.9 h -10 v 6.2 c 0,2.6 0.5,3.6 3,3.6 h 7 v 11.2 h -9 C 4.399,64.4 0.1,60.1 0.1,52 v -8.7 h -6.701 v -11 H 0.1 L 0.1,0 Z" /></g><g
           transform="translate(587.0537,401.8623)"
           id="g168"><path
             id="path170"
             style="fill:none;stroke:#141843;stroke-width:10;stroke-linecap:butt;stroke-linejoin:miter;stroke-miterlimit:10;stroke-dasharray:none;stroke-opacity:1"
             d="m 0,0 c 43.661,43.661 114.448,43.661 158.109,0 43.661,-43.66 43.661,-114.448 0,-158.108 C 114.448,-201.77 43.661,-201.77 0,-158.108 -43.661,-114.448 -43.661,-43.66 0,0 Z" /></g><g
           transform="translate(571.4858,338.4424)"
           id="g172"><path
             id="path174"
             style="fill:#141843;fill-opacity:1;fill-rule:nonzero;stroke:none"
             d="m 0,0 c 8.58,52.275 57.914,87.697 110.189,79.117 52.276,-8.58 87.698,-57.913 79.118,-110.188 -8.58,-52.276 -57.914,-87.699 -110.189,-79.118 C 26.842,-101.608 -8.58,-52.275 0,0" /></g><path
           id="path176"
           style="fill:#ffffff;fill-opacity:1;fill-rule:nonzero;stroke:none"
           d="m 620.592,349.971 h 20.9 v -67.6 h -20.9 z" /><g
           transform="translate(630.9922,358.7715)"
           id="g178"><path
             id="path180"
             style="fill:#ffffff;fill-opacity:1;fill-rule:nonzero;stroke:none"
             d="m 0,0 c 6.903,-0.056 12.544,5.496 12.6,12.399 0.055,6.904 -5.497,12.544 -12.4,12.6 -6.904,0.055 -12.545,-5.496 -12.6,-12.399 0,-0.034 0,-0.067 0,-0.1 C -12.409,5.631 -6.868,0.046 0,0" /></g><g
           transform="translate(674.9922,317.7715)"
           id="g182"><path
             id="path184"
             style="fill:#ffffff;fill-opacity:1;fill-rule:nonzero;stroke:none"
             d="M 0,0 C 0,9.5 4.4,15.199 12.8,15.199 20.5,15.199 24.2,9.8 24.2,0 V -35.5 H 45 V 7.3 C 45,25.399 34.7,34.199 20.4,34.199 12.109,34.289 4.375,30.043 0,23 v 9.1 H -20 V -35.5 H 0 Z" /></g><g
           transform="translate(966.9922,643.0713)"
           id="g186"><path
             id="path188"
             style="fill:#ffffff;fill-opacity:1;fill-rule:nonzero;stroke:none"
             d="m 0,0 c -1.601,0 -4.2,1.6 -6.1,3.6 -2.7,2.8 -3.2,5.5 -1.7,9 2.3,5.6 10.9,15.3 18.4,25.6 C 3.399,33.9 -9,23.4 -20.6,5.6 -23.9,0.4 -26.1,0 -28.7,0.8 c -1.8,0.842 -3.538,1.811 -5.2,2.9 -1.8,1.2 -2.9,3.7 -2.6,7.1 0.5,4 4.8,10.4 8.8,15.8 13.5,17.8 16.4,21.3 18.4,21.3 2.1,0 4.9,-2.9 8.5,-4.9 2.199,-1.1 2.8,-2.5 2.6,-4.4 7.4,5.6 11.7,7.7 14,7.7 1.818,-0.036 3.575,-0.668 5,-1.8 1.7,-1.3 2.7,-2.6 2.7,-4.9 0,-2.8 -1.5,-6.9 -3.7,-10.7 9.599,7.4 12,8.8 14.7,8.8 1.574,-0.033 3.118,-0.444 4.5,-1.2 2.5,-1.2 3.7,-3.3 3.7,-4.9 0,-5.5 -8.6,-13.9 -11.5,-21 6,1.2 12.6,5.8 20.199,15.9 L 51.8,27 c 0.9,1.1 1.099,1.2 1.5,0.9 l 0.4,-0.4 c 0.684,-0.503 0.83,-1.465 0.326,-2.149 C 53.987,25.298 53.945,25.248 53.899,25.2 L 53.5,24.6 C 46.3,12.5 34.5,3.1 26.8,3.1 c -7,0 -10.5,7.1 -10.1,10.7 0.561,3.249 1.786,6.347 3.6,9.1 C 16.7,20.1 13.3,15 6.899,6.6 3.1,1.6 1.6,0 0,0" /></g><g
           transform="translate(1005.5918,619.4712)"
           id="g190"><path
             id="path192"
             style="fill:#ffffff;fill-opacity:1;fill-rule:nonzero;stroke:none"
             d="M 0,0 C 5.3,3.3 11.4,9.1 18.3,17.6 4.101,13.7 -2.1,11 -6.8,6.8 -11,3.1 -12,-0.3 -11.6,-3.5 l -3.1,-5.2 c -2.9,2.6 -4.9,5.6 -4.9,10.2 0,3.3 1.6,7.1 5.3,10.4 7.401,6.5 21.6,9.7 38.401,13.2 3.129,4.347 6.034,8.853 8.699,13.5 C 23.2,29 19.101,26.9 15,26.9 12.9,26.9 11.7,27.4 9.4,29 6.3,31.1 6,32.8 7.9,38.7 10.7,46.8 19.7,62.4 23.101,70.1 23.3,70.7 23.7,71 24.7,71 c 1.793,-0.172 3.568,-0.506 5.3,-1 5,-1.3 6.101,-3.6 4.9,-7.7 -1.1,-3.9 -5.299,-12.8 -8.6,-21.6 6.7,3.7 15.2,11.9 22.4,24.8 1.3,2.3 2.2,3.2 3.7,3.2 2.571,-0.322 5.071,-1.065 7.4,-2.2 2,-1.1 2.301,-2.2 1.5,-4.9 -1.699,-5.8 -9.9,-20 -17.8,-32 C 52,33 59,37.3 61.8,41 c 0.2,0.4 0.6,0.4 0.7,0 0.263,-1.765 0.021,-3.568 -0.7,-5.2 C 59.3,31.1 50.601,26.4 38.4,21.9 26,3.8 13.4,-6 4.3,-10" /></g><g
           transform="translate(927.792,711.5713)"
           id="g194"><path
             id="path196"
             style="fill:#141843;fill-opacity:1;fill-rule:nonzero;stroke:none"
             d="M 0,0 7.6,4.4 C 9,1.2 11.4,-1 15.7,-1 19.9,-1 21,0.7 21,2.2 21,4.6 18.8,5.5 13,7.1 7.2,8.7 1.6,11.5 1.6,18.9 c 0,7.5 6.3,11.8 13,11.8 6.051,0.215 11.643,-3.212 14.2,-8.7 l -7.5,-4.4 c -1.3,2.8 -3.2,4.5 -6.7,4.5 -2.8,0 -4.1,-1.4 -4.1,-2.9 0,-1.8 0.9,-3 7,-4.8 5.9,-1.8 12.4,-3.8 12.4,-12 0,-7.5 -6,-11.9 -14.4,-11.9 C 7.3,-9.6 2.2,-5.7 0,0" /></g><g
           transform="translate(988.292,719.771)"
           id="g198"><path
             id="path200"
             style="fill:#141843;fill-opacity:1;fill-rule:nonzero;stroke:none"
             d="m 0,0 v -17 h -8.3 v 15.8 c 0,3.4 -2.2,5 -4.8,5 -3,0 -5.1,-1.8 -5.1,-5.7 V -17 h -8.3 v 38.7 h 8.3 V 8.1 c 1.5,2 4.3,3.4 7.9,3.4 C -4.7,11.4 0,7.5 0,0" /></g><g
           transform="translate(1014.0918,716.5713)"
           id="g202"><path
             id="path204"
             style="fill:#141843;fill-opacity:1;fill-rule:nonzero;stroke:none"
             d="m 0,0 c -0.055,3.645 -3.055,6.554 -6.699,6.499 -3.645,-0.055 -6.555,-3.055 -6.499,-6.699 0.054,-3.606 2.993,-6.5 6.598,-6.5 3.49,-0.158 6.447,2.542 6.605,6.032 C 0.016,-0.446 0.014,-0.223 0,0 M 8.3,13.9 V -13.7 H 0 v 2.6 c -2.078,-2.315 -5.093,-3.565 -8.2,-3.4 -7.199,0 -13.199,6.4 -13.199,14.6 0,8.2 6,14.6 13.199,14.6 3.107,0.165 6.122,-1.085 8.2,-3.4 v 2.6 z" /></g><g
           transform="translate(1045.0918,730.9712)"
           id="g206"><path
             id="path208"
             style="fill:#141843;fill-opacity:1;fill-rule:nonzero;stroke:none"
             d="m 0,0 v -9.4 c -3.399,0.6 -8.3,-0.8 -8.3,-6.3 v -12.5 h -8.3 v 27.6 h 8.3 V -5.5 C -7.2,-1.8 -3.5,0 0,0" /></g><g
           transform="translate(1067.1924,719.4712)"
           id="g210"><path
             id="path212"
             style="fill:#141843;fill-opacity:1;fill-rule:nonzero;stroke:none"
             d="m 0,0 c -0.655,2.693 -3.132,4.541 -5.9,4.4 -3.201,0 -5.3,-1.5 -6,-4.4 z m -5.101,-10 c 1.981,-0.059 3.898,0.701 5.3,2.1 L 6.8,-11.7 c -2.7,-3.8 -6.8,-5.7 -12.101,-5.7 -9.5,0 -15.3,6.4 -15.3,14.6 -0.218,7.846 5.966,14.384 13.813,14.603 0.296,0.008 0.592,0.007 0.888,-0.003 8.099,0 14,-6.2 14,-14.6 0.008,-1.107 -0.092,-2.213 -0.3,-3.3 h -19.601 c 1.2,-3 3.7,-3.9 6.7,-3.9" /></g><g
           transform="translate(952.0918,623.9712)"
           id="g214"><path
             id="path216"
             style="fill:#141843;fill-opacity:1;fill-rule:nonzero;stroke:none"
             d="m 0,0 h -10 v -30.2 h -8.8 V 0 h -10 V 8.5 H 0 Z" /></g><g
           transform="translate(982.1924,610.6709)"
           id="g218"><path
             id="path220"
             style="fill:#141843;fill-opacity:1;fill-rule:nonzero;stroke:none"
             d="m 0,0 v -17 h -8.301 v 15.8 c 0,3.4 -2.199,5 -4.8,5 -3,0 -5.099,-1.8 -5.099,-5.7 V -17 h -8.3 v 38.7 h 8.3 V 8 c 1.5,2 4.3,3.4 7.899,3.4 C -4.801,11.5 0,7.5 0,0" /></g><g
           transform="translate(1006.9922,610.4712)"
           id="g222"><path
             id="path224"
             style="fill:#141843;fill-opacity:1;fill-rule:nonzero;stroke:none"
             d="m 0,0 c -0.655,2.693 -3.132,4.541 -5.9,4.4 -3.201,0 -5.3,-1.5 -6,-4.4 z m -5.101,-10.1 c 1.981,-0.059 3.898,0.701 5.301,2.1 l 6.6,-3.8 c -2.7,-3.8 -6.8,-5.7 -12.1,-5.7 -9.5,0 -15.301,6.4 -15.301,14.6 -0.217,7.846 5.966,14.384 13.813,14.603 0.296,0.008 0.592,0.007 0.888,-0.003 8.1,0 14,-6.2 14,-14.6 0.008,-1.107 -0.092,-2.213 -0.3,-3.3 h -19.6 c 1.199,-2.9 3.699,-3.9 6.699,-3.9" /></g><g
           transform="translate(1040.292,602.0713)"
           id="g226"><path
             id="path228"
             style="fill:#141843;fill-opacity:1;fill-rule:nonzero;stroke:none"
             d="m 0,0 c 0,-6.4 -5.5,-9.101 -11.5,-9.101 -5.5,0 -9.7,2.101 -11.9,6.601 l 7.2,4.1 c 0.597,-2.067 2.553,-3.44 4.7,-3.3 2,0 3,0.6 3,1.7 0,3 -13.6,1.4 -13.6,11 0,6 5.1,9.1 10.8,9.1 4.405,0.144 8.541,-2.115 10.8,-5.9 l -7.1,-3.8 c -0.661,1.453 -2.104,2.389 -3.7,2.4 -1.4,0 -2.3,-0.6 -2.3,-1.5 C -13.6,8.1 0,10.2 0,0" /></g><path
           id="path230"
           style="fill:#141843;fill-opacity:1;fill-rule:nonzero;stroke:none"
           d="m 1044.492,621.371 h 8.3 v -27.6 h -8.3 z m -0.9,7.4 c 0,2.762 2.238,5 5,5 2.762,0 5,-2.238 5,-5 0,-2.761 -2.238,-5 -5,-5 -2.743,0.043 -4.956,2.257 -5,5" /><g
           transform="translate(1079.9922,602.0713)"
           id="g232"><path
             id="path234"
             style="fill:#141843;fill-opacity:1;fill-rule:nonzero;stroke:none"
             d="m 0,0 c 0,-6.4 -5.5,-9.101 -11.5,-9.101 -5.5,0 -9.7,2.101 -11.9,6.601 l 7.2,4.1 c 0.597,-2.067 2.553,-3.44 4.7,-3.3 2,0 3,0.6 3,1.7 0,3 -13.601,1.4 -13.601,11 0,6 5.101,9.1 10.801,9.1 4.405,0.144 8.541,-2.115 10.8,-5.9 l -7.101,-3.8 c -0.66,1.453 -2.103,2.389 -3.699,2.4 -1.4,0 -2.301,-0.6 -2.301,-1.5 C -13.601,8.1 0,10.2 0,0" /></g><g
           transform="translate(1261.623,862.6978)"
           id="g236"><path
             id="path238"
             style="fill:none;stroke:#141843;stroke-width:10;stroke-linecap:butt;stroke-linejoin:miter;stroke-miterlimit:10;stroke-dasharray:none;stroke-opacity:1"
             d="m 0,0 c 37.018,9.35 74.606,-13.08 83.956,-50.098 9.351,-37.018 -13.079,-74.606 -50.097,-83.956 -37.018,-9.35 -74.607,13.079 -83.957,50.097 C -59.447,-46.938 -37.018,-9.35 0,0 Z" /></g><g
           transform="translate(1278.4922,851.5713)"
           id="g240"><path
             id="path242"
             style="fill:#141843;fill-opacity:1;fill-rule:nonzero;stroke:none"
             d="m 0,0 c 30.872,0 55.899,-25.027 55.899,-55.9 0,-30.873 -25.027,-55.9 -55.899,-55.9 -30.873,0 -55.9,25.027 -55.9,55.9 C -55.9,-25.027 -30.873,0 0,0" /></g><g
           transform="translate(1278.5918,826.8711)"
           id="g244"><path
             id="path246"
             style="fill:#efebe3;fill-opacity:1;fill-rule:nonzero;stroke:none"
             d="m 0,0 c -8.8,0 -9.899,0 -13.3,-0.2 -2.664,-0.071 -5.299,-0.578 -7.8,-1.5 -4.325,-1.658 -7.742,-5.075 -9.4,-9.4 -0.911,-2.504 -1.418,-5.137 -1.5,-7.8 -0.2,-3.4 -0.2,-4.5 -0.2,-13.3 0,-8.8 0,-9.9 0.2,-13.3 0.072,-2.665 0.578,-5.299 1.5,-7.8 1.658,-4.325 5.075,-7.742 9.4,-9.4 2.504,-0.911 5.137,-1.418 7.8,-1.5 3.401,-0.2 4.5,-0.2 13.3,-0.2 8.8,0 9.9,0 13.3,0.2 2.665,0.072 5.3,0.578 7.801,1.5 4.324,1.658 7.741,5.075 9.399,9.4 0.912,2.504 1.418,5.137 1.5,7.8 0.2,3.4 0.2,4.5 0.2,13.3 0,8.8 0,9.9 -0.2,13.3 -0.071,2.664 -0.578,5.299 -1.5,7.8 -1.658,4.325 -5.075,7.742 -9.399,9.4 -2.504,0.911 -5.138,1.418 -7.801,1.5 C 9.8,0 8.7,0 0,0 m 0,-5.8 c 8.601,0 9.7,0 13.101,-0.2 2.048,-0.011 4.08,-0.383 6,-1.1 2.807,-1.074 5.025,-3.293 6.099,-6.1 0.705,-1.923 1.077,-3.952 1.1,-6 0.2,-3.4 0.2,-4.4 0.2,-13.1 0,-8.6 0,-9.7 -0.2,-13.1 -0.011,-2.049 -0.383,-4.08 -1.1,-6 -1.074,-2.808 -3.292,-5.026 -6.099,-6.1 -1.923,-0.705 -3.953,-1.077 -6,-1.1 C 9.7,-58.8 8.7,-58.8 0,-58.8 c -8.7,0 -9.7,0 -13.1,0.2 -2.048,0.011 -4.08,0.383 -6,1.1 -2.807,1.074 -5.025,3.292 -6.1,6.1 -0.705,1.923 -1.077,3.952 -1.1,6 -0.2,3.4 -0.2,4.4 -0.2,13.1 0,8.6 0,9.7 0.2,13.1 0.011,2.049 0.384,4.08 1.1,6 1.075,2.807 3.293,5.026 6.1,6.1 1.923,0.705 3.953,1.077 6,1.1 3.4,0.1 4.4,0.2 13.1,0.2" /></g><g
           transform="translate(1278.5918,783.771)"
           id="g248"><path
             id="path250"
             style="fill:#efebe3;fill-opacity:1;fill-rule:nonzero;stroke:none"
             d="m 0,0 c -5.965,0 -10.8,4.835 -10.8,10.8 0,5.965 4.835,10.8 10.8,10.8 5.965,0 10.8,-4.835 10.8,-10.8 C 10.755,4.854 5.945,0.046 0,0 m 0,27.4 c -9.168,0 -16.6,-7.432 -16.6,-16.6 0,-9.168 7.432,-16.6 16.6,-16.6 9.168,0 16.601,7.432 16.601,16.6 C 16.518,19.934 9.134,27.317 0,27.4" /></g><g
           transform="translate(1299.6924,811.771)"
           id="g252"><path
             id="path254"
             style="fill:#efebe3;fill-opacity:1;fill-rule:nonzero;stroke:none"
             d="m 0,0 c 0,-2.154 -1.746,-3.9 -3.9,-3.9 -2.155,0 -3.901,1.746 -3.901,3.9 0,2.154 1.746,3.9 3.901,3.9 C -1.746,3.9 0,2.154 0,0" /></g><g
           transform="translate(580.792,820.8711)"
           id="g256"><path
             id="path258"
             style="fill:none;stroke:#141843;stroke-width:10;stroke-linecap:butt;stroke-linejoin:miter;stroke-miterlimit:10;stroke-dasharray:none;stroke-opacity:1"
             d="m 0,0 c 28.608,0 51.8,-23.191 51.8,-51.8 0,-28.608 -23.192,-51.8 -51.8,-51.8 -28.608,0 -51.8,23.192 -51.8,51.8 C -51.8,-23.191 -28.608,0 0,0 Z" /></g><g
           transform="translate(580.792,809.771)"
           id="g260"><path
             id="path262"
             style="fill:#141843;fill-opacity:1;fill-rule:nonzero;stroke:none"
             d="m 0,0 c 22.478,0 40.7,-18.222 40.7,-40.7 0,-22.478 -18.222,-40.7 -40.7,-40.7 -22.478,0 -40.7,18.222 -40.7,40.7 C -40.7,-18.222 -22.478,0 0,0" /></g><g
           transform="translate(568.3921,762.4712)"
           id="g264"><path
             id="path266"
             style="fill:#ffffff;fill-opacity:1;fill-rule:nonzero;stroke:none"
             d="M 0,0 C 0.498,-0.272 1.122,-0.089 1.394,0.408 1.444,0.5 1.479,0.598 1.5,0.7 1.6,1.2 2,2.5 2.1,3 2.322,3.564 2.161,4.207 1.7,4.6 c -1.321,1.597 -1.998,3.629 -1.9,5.7 0,7.4 5.5,14 14.4,14 7.9,0 12.2,-4.8 12.2,-11.2 0,-8.4 -3.7,-15.6 -9.3,-15.6 -3.1,0 -5.4,2.5 -4.6,5.6 0.9,3.7 2.6,7.7 2.6,10.4 0,2.4 -1.3,4.4 -3.9,4.4 C 8.1,17.9 5.6,14.7 5.6,10.3 5.57,8.72 5.877,7.152 6.5,5.7 6.5,5.7 3.3,-7.9 2.7,-10.2 1.6,-14.9 2.5,-20.7 2.6,-21.3 c 0,-0.3 0.5,-0.4 0.7,-0.2 0.3,0.4 4,5 5.3,9.6 0.4,1.3 2.1,8 2.1,8 1,-1.9 4,-3.6 7.1,-3.6 9.4,0 15.8,8.6 15.8,20.1 0,8.7 -7.4,16.8 -18.5,16.8 C 1.2,29.4 -5.8,19.4 -5.8,11.1 -6,6.2 -4.1,1.7 0,0" /></g><g
           transform="translate(1229.7139,390.5684)"
           id="g268"><path
             id="path270"
             style="fill:none;stroke:#141843;stroke-width:10;stroke-linecap:butt;stroke-linejoin:miter;stroke-miterlimit:10;stroke-dasharray:none;stroke-opacity:1"
             d="M 0,0 C 44.183,0.1 80.08,-35.638 80.179,-79.821 80.277,-124.004 44.54,-159.9 0.357,-160 c -44.182,-0.099 -80.08,35.639 -80.178,79.821 C -79.92,-35.995 -44.183,-0.099 0,0 Z" /></g><g
           transform="translate(1183.0381,357.4062)"
           id="g272"><path
             id="path274"
             style="fill:#141843;fill-opacity:1;fill-rule:nonzero;stroke:none"
             d="m 0,0 c 25.854,25.853 67.769,25.853 93.621,0 25.853,-25.853 25.853,-67.768 0,-93.621 C 67.769,-119.474 25.854,-119.474 0,-93.621 -25.853,-67.768 -25.853,-25.853 0,0" /></g><g
           transform="translate(1202.6924,295.6709)"
           id="g276"><path
             id="path278"
             style="fill:#ffffff;fill-opacity:1;fill-rule:nonzero;stroke:none"
             d="m 0,0 v 13.5 h 12.5 c 1.745,0.087 3.488,-0.221 5.1,-0.899 2.2,-1 3.2,-2.801 3.2,-5.401 C 20.8,4.101 19.699,2 17.5,0.9 15.889,0.222 14.146,-0.086 12.399,0 Z m 0,33.101 h 11 c 2.028,0.035 4.051,-0.235 6,-0.801 1.8,-0.8 2.699,-2.3 2.699,-4.699 0.16,-1.769 -0.641,-3.488 -2.099,-4.5 -1.656,-0.899 -3.518,-1.347 -5.401,-1.301 h -12.3 V 33.101 Z M 19.899,-8.1 c 2.056,0.419 3.999,1.272 5.701,2.5 1.425,1.112 2.644,2.466 3.599,4 1.525,2.425 2.322,5.236 2.301,8.1 0.068,2.609 -0.627,5.181 -2,7.4 -1.436,2.092 -3.503,3.669 -5.9,4.5 1.478,0.7 2.804,1.685 3.9,2.9 1.645,2.141 2.461,4.804 2.3,7.5 0.065,2.746 -0.739,5.441 -2.3,7.7 -2.601,3.5 -7,5.3 -13.101,5.4 h -24.5 V -8.8 h 22.8 c 2.417,0.016 4.826,0.249 7.2,0.7" /></g><g
           transform="translate(1249.6924,315.1709)"
           id="g280"><path
             id="path282"
             style="fill:#ffffff;fill-opacity:1;fill-rule:nonzero;stroke:none"
             d="m 0,0 c 1.562,1.469 3.659,2.229 5.8,2.101 2.112,0.06 4.174,-0.651 5.8,-2 C 13.199,-1.2 14,-3.2 14.199,-5.8 H -2.7 c 0.339,2.149 1.274,4.158 2.7,5.8 m -7,-24.899 c 3.713,-3.054 8.393,-4.685 13.199,-4.601 6,0 10.7,1.8 14.101,5.5 2.2,2.3 3.399,4.601 3.599,6.8 h -10 c -0.507,-0.978 -1.185,-1.858 -2,-2.6 -1.552,-1.167 -3.458,-1.766 -5.399,-1.7 -1.895,-0.037 -3.763,0.447 -5.4,1.4 -2.5,1.5 -3.8,4.1 -3.901,7.9 h 27.3 c 0.034,2.471 -0.066,4.941 -0.3,7.4 -0.434,2.752 -1.458,5.379 -3,7.7 -1.588,2.425 -3.845,4.335 -6.5,5.5 -2.765,1.239 -5.769,1.853 -8.8,1.8 -5.5,0 -10,-1.7 -13.4,-5.2 C -10.9,1.5 -12.7,-3.399 -12.7,-9.899 c 0,-7 1.899,-12 5.7,-15" /></g><path
           id="path284"
           style="fill:#ffffff;fill-opacity:1;fill-rule:nonzero;stroke:none"
           d="m 1243.892,334.671 h 22 v -5.1 h -22 z" /><path
           id="path286"
           style="fill:#ffffff;fill-opacity:1;fill-rule:nonzero;stroke:#141843;stroke-width:10;stroke-linecap:round;stroke-linejoin:round;stroke-miterlimit:10;stroke-dasharray:none;stroke-opacity:1"
           d="m 825.5,217 h 295 v -96.5 h -295 z" /><g
           id="g288"><g
             id="g290" /><g
             id="g314"><g
               id="g312"
               clip-path="url(#clipPath294)"><g
                 id="g310"><g
                   id="g300" /><g
                   id="g308"><g
                     id="g306"
                     clip-path="url(#clipPath298)"><text
                       id="text304"
                       style="font-variant:normal;font-weight:800;font-stretch:normal;font-size:45px;font-family:'Gilroy ExtraBold';-inkscape-font-specification:Gilroy-ExtraBold;writing-mode:lr-tb;fill:#ff6167;fill-opacity:1;fill-rule:nonzero;stroke:none"
                       transform="matrix(1,0,0,-1,900,154)"><tspan
                         id="tspan302"
                         y="0"
                         x="0 29.25 57.285 68.985001 95.535004 123.57">Upload</tspan></text>
</g></g></g></g></g></g></g></g></g></svg>