<?xml version="1.0" encoding="UTF-8" standalone="no"?>
<svg
   xmlns:dc="http://purl.org/dc/elements/1.1/"
   xmlns:cc="http://creativecommons.org/ns#"
   xmlns:rdf="http://www.w3.org/1999/02/22-rdf-syntax-ns#"
   xmlns="http://www.w3.org/2000/svg"
   viewBox="0 0 2560 2469.3333"
   height="2469.3333"
   width="2560"
   xml:space="preserve"
   id="svg2"
   version="1.1"><metadata
     id="metadata8"><rdf:RDF><cc:Work
         rdf:about=""><dc:format>image/svg+xml</dc:format><dc:type
           rdf:resource="http://purl.org/dc/dcmitype/StillImage" /></cc:Work></rdf:RDF></metadata><defs
     id="defs6"><clipPath
       id="clipPath20"
       clipPathUnits="userSpaceOnUse"><path
         id="path18"
         d="M 0,1852 H 1920 V 0 H 0 Z" /></clipPath><clipPath
       id="clipPath32"
       clipPathUnits="userSpaceOnUse"><path
         id="path30"
         d="M 246.035,736 H 377.913 V 691.2 H 246.035 Z" /></clipPath><clipPath
       id="clipPath36"
       clipPathUnits="userSpaceOnUse"><path
         id="path34"
         d="M 246.035,736 H 377.913 V 691.2 H 246.035 Z" /></clipPath><clipPath
       id="clipPath60"
       clipPathUnits="userSpaceOnUse"><path
         id="path58"
         d="m 179.035,1272 h 84.158 v -74.8 h -84.158 z" /></clipPath><clipPath
       id="clipPath64"
       clipPathUnits="userSpaceOnUse"><path
         id="path62"
         d="m 179.035,1272 h 80.84 v -44.8 h -80.84 z" /></clipPath><clipPath
       id="clipPath68"
       clipPathUnits="userSpaceOnUse"><path
         id="path66"
         d="m 179.035,1242 h 84.158 v -44.8 h -84.158 z" /></clipPath><clipPath
       id="clipPath262"
       clipPathUnits="userSpaceOnUse"><path
         id="path260"
         d="m 550.035,1133 h 201.477 v -44.8 H 550.035 Z" /></clipPath><clipPath
       id="clipPath278"
       clipPathUnits="userSpaceOnUse"><path
         id="path276"
         d="M 668.535,440 H 803.293 V 395.2 H 668.535 Z" /></clipPath><clipPath
       id="clipPath282"
       clipPathUnits="userSpaceOnUse"><path
         id="path280"
         d="M 668.535,440 H 803.293 V 395.2 H 668.535 Z" /></clipPath><clipPath
       id="clipPath320"
       clipPathUnits="userSpaceOnUse"><path
         id="path318"
         d="m 918.035,1530 h 142.355 v -44.8 H 918.035 Z" /></clipPath></defs><g
     transform="matrix(1.3333333,0,0,-1.3333333,0,2469.3333)"
     id="g10"><path
       id="path12"
       style="fill:#ff6167;fill-opacity:1;fill-rule:nonzero;stroke:none"
       d="M 0,220.4 H 1920 V 1692 H 0 Z" /><g
       id="g14"><g
         clip-path="url(#clipPath20)"
         id="g16"><g
           transform="translate(140.312,1358.791)"
           id="g22"><path
             id="path24"
             style="fill:none;stroke:#141843;stroke-width:10;stroke-linecap:butt;stroke-linejoin:miter;stroke-miterlimit:4;stroke-dasharray:none;stroke-opacity:1"
             d="m 0,0 c 42.641,42.144 111.772,42.142 154.415,0 42.144,-41.449 42.708,-109.215 1.258,-151.359 -0.416,-0.423 -0.835,-0.843 -1.258,-1.259 -42.643,-42.142 -111.774,-42.144 -154.415,0 -42.145,41.45 -42.708,109.216 -1.258,151.36 C -0.842,-0.835 -0.423,-0.416 0,0 Z" /></g><g
           id="g26"><g
             id="g28" /><g
             id="g52"><g
               id="g50"
               clip-path="url(#clipPath32)"><g
                 id="g48"><g
                   id="g38" /><g
                   id="g46"><g
                     id="g44"
                     clip-path="url(#clipPath36)"><text
                       id="text42"
                       style="font-variant:normal;font-weight:800;font-stretch:normal;font-size:40px;font-family:'Gilroy ExtraBold';-inkscape-font-specification:Gilroy-ExtraBold;writing-mode:lr-tb;fill:#141843;fill-opacity:1;fill-rule:nonzero;stroke:none"
                       transform="matrix(1,0,0,-1,246.0352,702)"><tspan
                         id="tspan40"
                         y="0"
                         x="0 23.6 46 64.519997 87.839996 98.239998 113.16">Results</tspan></text>
</g></g></g></g></g></g><g
           id="g54"><g
             id="g56" /><g
             id="g96"><g
               id="g94"
               clip-path="url(#clipPath60)"><g
                 id="g80"><g
                   id="g70" /><g
                   id="g78"><g
                     id="g76"
                     clip-path="url(#clipPath64)"><text
                       id="text74"
                       style="font-variant:normal;font-weight:800;font-stretch:normal;font-size:40px;font-family:'Gilroy ExtraBold';-inkscape-font-specification:Gilroy-ExtraBold;writing-mode:lr-tb;fill:#141843;fill-opacity:1;fill-rule:nonzero;stroke:none"
                       transform="matrix(1,0,0,-1,179.0352,1238)"><tspan
                         id="tspan72"
                         y="0"
                         x="0 23.4 46.720001">Sum</tspan></text>
</g></g></g><g
                 id="g92"><g
                   id="g82" /><g
                   id="g90"><g
                     id="g88"
                     clip-path="url(#clipPath68)"><text
                       id="text86"
                       style="font-variant:normal;font-weight:800;font-stretch:normal;font-size:40px;font-family:'Gilroy ExtraBold';-inkscape-font-specification:Gilroy-ExtraBold;writing-mode:lr-tb;fill:#141843;fill-opacity:1;fill-rule:nonzero;stroke:none"
                       transform="matrix(1,0,0,-1,179.0352,1208)"><tspan
                         id="tspan84"
                         y="0"
                         x="0 10.4 25.92 35.919998 59.240002">it up</tspan></text>
</g></g></g></g></g></g><path
           id="path98"
           style="fill:none;stroke:#141843;stroke-width:10;stroke-linecap:butt;stroke-linejoin:miter;stroke-miterlimit:4;stroke-dasharray:none;stroke-opacity:1"
           d="m 874.535,1627 h 224 v -224 h -224 z" /><path
           id="path100"
           style="fill:none;stroke:#141843;stroke-width:10;stroke-linecap:butt;stroke-linejoin:miter;stroke-miterlimit:4;stroke-dasharray:none;stroke-opacity:1"
           d="m 619.035,601 h 232 V 369 h -232 z" /><path
           id="path102"
           style="fill:none;stroke:#141843;stroke-width:10;stroke-linecap:butt;stroke-linejoin:miter;stroke-miterlimit:4;stroke-dasharray:none;stroke-opacity:1"
           d="m 105.605,1393.947 h 224 v -224 h -224 z" /><g
           transform="translate(845.2119,368.998)"
           id="g104"><path
             id="path106"
             style="fill:none;stroke:#141843;stroke-width:10;stroke-linecap:butt;stroke-linejoin:miter;stroke-miterlimit:4;stroke-dasharray:none;stroke-opacity:1"
             d="m 0,0 h -221.7 l 111.453,219.4 z" /></g><g
           transform="translate(425.9844,664.1543)"
           id="g108"><path
             id="path110"
             style="fill:none;stroke:#141843;stroke-width:10;stroke-linecap:butt;stroke-linejoin:miter;stroke-miterlimit:4;stroke-dasharray:none;stroke-opacity:1"
             d="m 0,0 h -233.949 l 117.612,231.523 z" /></g><g
           transform="translate(323.6582,1169.9473)"
           id="g112"><path
             id="path114"
             style="fill:none;stroke:#141843;stroke-width:10;stroke-linecap:butt;stroke-linejoin:miter;stroke-miterlimit:4;stroke-dasharray:none;stroke-opacity:1"
             d="m 0,0 h -214.053 l 107.61,211.834 z" /></g><g
           transform="translate(746.1357,1196.6709)"
           id="g116"><path
             id="path118"
             style="fill:none;stroke:#141843;stroke-width:10;stroke-linecap:butt;stroke-linejoin:miter;stroke-miterlimit:10;stroke-dasharray:none;stroke-opacity:1"
             d="m 0,0 v 98.6 c -0.018,19.257 15.579,34.882 34.836,34.9 H 34.9 205.1 c 19.257,-0.018 34.882,15.579 34.9,34.836 v 0.064 34.1" /></g><g
           transform="translate(734.0361,1019.9712)"
           id="g120"><path
             id="path122"
             style="fill:none;stroke:#141843;stroke-width:10;stroke-linecap:butt;stroke-linejoin:miter;stroke-miterlimit:10;stroke-dasharray:none;stroke-opacity:1"
             d="M 0,0 V -434.5" /></g><g
           transform="translate(1025.1357,1002.8711)"
           id="g124"><path
             id="path126"
             style="fill:none;stroke:#141843;stroke-width:10;stroke-linecap:butt;stroke-linejoin:miter;stroke-miterlimit:10;stroke-dasharray:none;stroke-opacity:1"
             d="m 0,0 h 5.5 c 13.459,0.017 24.383,-10.879 24.4,-24.338 v -0.062 -192 C 29.884,-235.116 14.716,-250.284 -4,-250.3 h -72" /></g><g
           transform="translate(760.5361,1076.8711)"
           id="g128"><path
             id="path130"
             style="fill:none;stroke:#141843;stroke-width:10;stroke-linecap:butt;stroke-linejoin:miter;stroke-miterlimit:10;stroke-dasharray:none;stroke-opacity:1"
             d="m 0,0 h 123.2 c 11.208,-0.008 20.292,-9.092 20.3,-20.3 V -60 c -0.013,-7.719 6.234,-13.987 13.954,-14 h 0.046 6.1" /></g><g
           transform="translate(744.936,1123.771)"
           id="g132"><path
             id="path134"
             style="fill:none;stroke:#141843;stroke-width:10;stroke-linecap:butt;stroke-linejoin:miter;stroke-miterlimit:10;stroke-dasharray:none;stroke-opacity:1"
             d="M 0,0 H 144.5 C 162.449,0 177,14.551 177,32.5 v 17.3" /></g><g
           transform="translate(309.5361,1097.6709)"
           id="g136"><path
             id="path138"
             style="fill:none;stroke:#141843;stroke-width:10;stroke-linecap:butt;stroke-linejoin:miter;stroke-miterlimit:10;stroke-dasharray:none;stroke-opacity:1"
             d="M 0,0 V -215.399" /></g><g
           transform="translate(348.7358,1097.6709)"
           id="g140"><path
             id="path142"
             style="fill:none;stroke:#141843;stroke-width:10;stroke-linecap:butt;stroke-linejoin:miter;stroke-miterlimit:10;stroke-dasharray:none;stroke-opacity:1"
             d="m 0,0 h -90.3 c -19.658,0.008 -35.592,15.942 -35.6,35.6 v 36.3" /></g><g
           transform="translate(535.3359,1097.6709)"
           id="g144"><path
             id="path146"
             style="fill:none;stroke:#141843;stroke-width:10;stroke-linecap:butt;stroke-linejoin:miter;stroke-miterlimit:10;stroke-dasharray:none;stroke-opacity:1"
             d="M 0,0 H -76.9" /></g><g
           transform="translate(534.436,1405.271)"
           id="g148"><path
             id="path150"
             style="fill:none;stroke:#141843;stroke-width:10;stroke-linecap:butt;stroke-linejoin:miter;stroke-miterlimit:10;stroke-dasharray:none;stroke-opacity:1"
             d="M 0,0 H 92.8" /></g><g
           transform="translate(627.2358,1240.6709)"
           id="g152"><path
             id="path154"
             style="fill:none;stroke:#141843;stroke-width:10;stroke-linecap:butt;stroke-linejoin:miter;stroke-miterlimit:10;stroke-dasharray:none;stroke-opacity:1"
             d="m 0,0 v 231.7 c -0.003,11.043 8.946,19.997 19.988,20 H 20 121.4" /></g><g
           transform="translate(748.0361,1503.6709)"
           id="g156"><path
             id="path158"
             style="fill:#141843;fill-opacity:1;fill-rule:nonzero;stroke:none"
             d="m 0,0 c 6.241,0 11.3,-5.059 11.3,-11.3 0,-6.241 -5.059,-11.3 -11.3,-11.3 -6.241,0 -11.3,5.059 -11.3,11.3 C -11.3,-5.059 -6.241,0 0,0" /></g><g
           transform="translate(585.5361,1013.9712)"
           id="g160"><path
             id="path162"
             style="fill:none;stroke:#141843;stroke-width:10;stroke-linecap:butt;stroke-linejoin:miter;stroke-miterlimit:10;stroke-dasharray:none;stroke-opacity:1"
             d="m 0,0 h -97 c -12.092,0.003 -21.897,-9.796 -21.9,-21.888 V -21.9 -230.5" /></g><g
           transform="translate(466.7358,795.3711)"
           id="g164"><path
             id="path166"
             style="fill:#141843;fill-opacity:1;fill-rule:nonzero;stroke:none"
             d="m 0,0 c 6.241,0 11.3,-5.06 11.3,-11.3 0,-6.241 -5.059,-11.3 -11.3,-11.3 -6.241,0 -11.3,5.059 -11.3,11.3 C -11.3,-5.06 -6.241,0 0,0" /></g><g
           transform="translate(249.8359,926.8711)"
           id="g168"><path
             id="path170"
             style="fill:none;stroke:#141843;stroke-width:10;stroke-linecap:butt;stroke-linejoin:miter;stroke-miterlimit:10;stroke-dasharray:none;stroke-opacity:1"
             d="M 0,0 H 213.3" /></g><g
           transform="translate(250.3359,938.1709)"
           id="g172"><path
             id="path174"
             style="fill:#141843;fill-opacity:1;fill-rule:nonzero;stroke:none"
             d="m 0,0 c 6.241,0 11.3,-5.059 11.3,-11.3 0,-6.241 -5.059,-11.3 -11.3,-11.3 -6.241,0 -11.3,5.059 -11.3,11.3 C -11.3,-5.059 -6.241,0 0,0" /></g><g
           transform="translate(468.1357,1470.5713)"
           id="g176"><path
             id="path178"
             style="fill:none;stroke:#141843;stroke-width:10;stroke-linecap:butt;stroke-linejoin:miter;stroke-miterlimit:10;stroke-dasharray:none;stroke-opacity:1"
             d="m 0,0 c 36.064,0 65.3,-29.236 65.3,-65.3 0,-36.064 -29.236,-65.3 -65.3,-65.3 -36.064,0 -65.3,29.236 -65.3,65.3 C -65.3,-29.236 -36.064,0 0,0 Z" /></g><g
           transform="translate(403.8359,1137.9712)"
           id="g180"><path
             id="path182"
             style="fill:#ff6167;fill-opacity:1;fill-rule:nonzero;stroke:none"
             d="m 0,0 c 22.146,0 40.1,-17.954 40.1,-40.1 0,-22.147 -17.954,-40.1 -40.1,-40.1 -22.146,0 -40.1,17.953 -40.1,40.1 C -40.1,-17.954 -22.146,0 0,0" /></g><g
           transform="translate(403.8359,1151.0713)"
           id="g184"><path
             id="path186"
             style="fill:none;stroke:#141843;stroke-width:10;stroke-linecap:butt;stroke-linejoin:miter;stroke-miterlimit:10;stroke-dasharray:none;stroke-opacity:1"
             d="m 0,0 c 29.381,0 53.2,-23.819 53.2,-53.2 0,-29.382 -23.819,-53.2 -53.2,-53.2 -29.381,0 -53.2,23.818 -53.2,53.2 C -53.2,-23.819 -29.381,0 0,0 Z" /></g><g
           transform="translate(424.7358,1101.3711)"
           id="g188"><path
             id="path190"
             style="fill:#141843;fill-opacity:1;fill-rule:nonzero;stroke:none"
             d="m 0,0 c -0.59,0.699 -0.708,1.682 -0.3,2.5 1.9,3.5 -2,5 -3.2,5.4 -0.189,0.081 -0.395,0.116 -0.6,0.1 l -8.8,0.5 c -1.267,0.099 -2.213,1.206 -2.114,2.473 0.004,0.042 0.009,0.085 0.014,0.127 1.4,8.3 -0.2,10.1 -0.2,10.1 -1.9,3.3 -4,3.9 -5.5,3.7 -1.102,-0.14 -1.922,-1.089 -1.9,-2.2 l 0.1,-7.1 c -0.004,-0.418 -0.107,-0.829 -0.3,-1.2 L -29.3,3.1 C -29.48,2.819 -29.719,2.581 -30,2.4 -30.179,2.321 -30.321,2.179 -30.4,2 -30.5,1.8 -30.7,1.8 -30.9,1.8 h -1.7 c -0.322,-0.022 -0.578,-0.278 -0.6,-0.6 l -0.4,-16.5 c 0.022,-0.322 0.278,-0.578 0.6,-0.6 h 2 c 0.141,0.015 0.283,-0.02 0.4,-0.1 1.303,-0.817 2.675,-1.521 4.1,-2.1 0.288,-0.114 0.591,-0.181 0.9,-0.2 l 17.5,-0.4 c 0.205,-0.016 0.411,0.018 0.6,0.1 3.4,0.8 3.7,3.1 3.6,4.6 -0.099,0.862 0.285,1.708 1,2.2 1.532,1.076 2.247,2.982 1.8,4.8 -0.088,0.788 0.21,1.57 0.8,2.1 C 2,-3.2 1,-1.2 0,0" /></g><g
           transform="translate(391.3359,1082.0713)"
           id="g192"><path
             id="path194"
             style="fill:#141843;fill-opacity:1;fill-rule:nonzero;stroke:none"
             d="m 0,0 -10.1,0.2 c -0.854,0.033 -1.522,0.746 -1.5,1.6 l 0.5,21.4 c 0.033,0.853 0.746,1.522 1.6,1.5 L 0.6,24.5 C 1.454,24.467 2.122,23.754 2.1,22.9 L 1.6,1.5 C 1.602,0.671 0.932,-0.001 0.104,-0.003 0.069,-0.003 0.034,-0.002 0,0" /></g><g
           transform="translate(383.0361,1105.6709)"
           id="g196"><path
             id="path198"
             style="fill:#ff6167;fill-opacity:1;fill-rule:nonzero;stroke:none"
             d="m 0,0 c -0.908,0.02 -1.665,-0.692 -1.7,-1.6 l -0.4,-18.9 c -0.02,-0.908 0.692,-1.664 1.6,-1.7 l 7.6,-0.2 c 0.908,-0.019 1.664,0.692 1.7,1.6 l 0.4,18.9 c 0.019,0.908 -0.693,1.665 -1.6,1.7 z m 7.1,-24.7 -7.6,0.2 c -2.118,0.046 -3.809,1.782 -3.8,3.9 l 0.4,18.9 C -3.854,0.418 -2.119,2.109 0,2.1 L 7.6,1.9 C 9.718,1.854 11.409,0.119 11.4,-2 L 11,-20.9 c -0.081,-2.103 -1.796,-3.774 -3.9,-3.8" /></g><g
           transform="translate(977.1357,1045.9712)"
           id="g200"><path
             id="path202"
             style="fill:#ff6167;fill-opacity:1;fill-rule:nonzero;stroke:none"
             d="m 0,0 c 21.649,0 39.2,-17.55 39.2,-39.2 0,-21.65 -17.551,-39.2 -39.2,-39.2 -21.649,0 -39.2,17.55 -39.2,39.2 C -39.2,-17.55 -21.649,0 0,0" /></g><g
           transform="translate(992.8359,1018.5713)"
           id="g204"><path
             id="path206"
             style="fill:#141843;fill-opacity:1;fill-rule:nonzero;stroke:none"
             d="m 0,0 c -9.5,4.6 -15.4,-2.9 -16,-3.8 -3.657,5.052 -10.461,6.668 -16,3.8 0,0 -8.9,-6.4 -2.8,-15.3 0,0 12,-11.6 16.9,-16 l 1.8,-1.5 h 0.2 v 0.1 c 2.1,1.3 18.7,17.5 18.7,17.5 C 9,-6.4 0,0 0,0" /></g><g
           transform="translate(977.1357,1058.0713)"
           id="g208"><path
             id="path210"
             style="fill:none;stroke:#141843;stroke-width:10;stroke-linecap:butt;stroke-linejoin:miter;stroke-miterlimit:10;stroke-dasharray:none;stroke-opacity:1"
             d="m 0,0 c 28.332,0 51.3,-22.968 51.3,-51.3 0,-28.332 -22.968,-51.3 -51.3,-51.3 -28.332,0 -51.3,22.968 -51.3,51.3 C -51.3,-22.968 -28.332,0 0,0 Z" /></g><g
           transform="translate(644.8359,1259.1709)"
           id="g212"><path
             id="path214"
             style="fill:#ff6167;fill-opacity:1;fill-rule:nonzero;stroke:none"
             d="m 0,0 c 80.523,0 145.8,-65.277 145.8,-145.8 0,-80.523 -65.277,-145.8 -145.8,-145.8 -80.523,0 -145.8,65.277 -145.8,145.8 C -145.8,-65.277 -80.523,0 0,0" /></g><g
           transform="translate(644.8359,1259.1709)"
           id="g216"><path
             id="path218"
             style="fill:none;stroke:#141843;stroke-width:10;stroke-linecap:butt;stroke-linejoin:miter;stroke-miterlimit:10;stroke-dasharray:none;stroke-opacity:1"
             d="m 0,0 c 80.523,0 145.8,-65.277 145.8,-145.8 0,-80.523 -65.277,-145.8 -145.8,-145.8 -80.523,0 -145.8,65.277 -145.8,145.8 C -145.8,-65.277 -80.523,0 0,0 Z" /></g><g
           transform="translate(619.436,837.3711)"
           id="g220"><path
             id="path222"
             style="fill:none;stroke:#141843;stroke-width:10;stroke-linecap:butt;stroke-linejoin:miter;stroke-miterlimit:10;stroke-dasharray:none;stroke-opacity:1"
             d="M 0,0 H 114.6" /></g><g
           transform="translate(558.5361,900.8711)"
           id="g224"><path
             id="path226"
             style="fill:none;stroke:#141843;stroke-width:10;stroke-linecap:butt;stroke-linejoin:miter;stroke-miterlimit:10;stroke-dasharray:none;stroke-opacity:1"
             d="m 0,0 c 35.015,0 63.4,-28.385 63.4,-63.4 0,-35.015 -28.385,-63.4 -63.4,-63.4 -35.015,0 -63.4,28.385 -63.4,63.4 C -63.4,-28.385 -35.015,0 0,0 Z" /></g><g
           transform="translate(554.436,849.7715)"
           id="g228"><path
             id="path230"
             style="fill:#141843;fill-opacity:1;fill-rule:nonzero;stroke:none"
             d="m 0,0 2.4,-5.801 c -0.484,-1.051 -1.163,-2.001 -2,-2.8 -0.9,-0.7 3.1,-7.399 8.9,-9.099 0.982,0.918 1.916,1.887 2.8,2.899 0.1,0.301 6,-2.099 6.2,-2.899 0.2,-0.8 0.7,-3.5 -4.1,-5.5 -4.9,-2 -14.4,6.8 -14.9,7.099 -0.5,0.3 -4.4,4.901 -5.3,9.201 -0.8,4.299 3.4,6.799 3.4,6.799 C -1.779,0.27 -0.847,0.306 0,0" /></g><g
           transform="translate(547.5361,823.0713)"
           id="g232"><path
             id="path234"
             style="fill:#141843;fill-opacity:1;fill-rule:nonzero;stroke:none"
             d="m 0,0 1.4,-1 c 8.829,-6.083 20.917,-3.855 26.999,4.974 6.083,8.829 3.856,20.918 -4.973,27 C 14.597,37.056 2.508,34.829 -3.574,26 -5.803,22.765 -6.998,18.929 -7,15 -7.041,10.805 -5.667,6.718 -3.1,3.399 L -1.9,1.899 -3,-0.9 Z m -14.8,-12.2 5.1,13 c -7.854,12.166 -4.358,28.395 7.809,36.249 12.166,7.853 28.395,4.357 36.249,-7.81 C 42.211,17.073 38.715,0.844 26.549,-7.01 18.175,-12.415 7.46,-12.604 -1.1,-7.5 Z" /></g><g
           transform="translate(904.4668,1310.6978)"
           id="g236"><path
             id="path238"
             style="fill:none;stroke:#141843;stroke-width:10;stroke-linecap:butt;stroke-linejoin:miter;stroke-miterlimit:10;stroke-dasharray:none;stroke-opacity:1"
             d="m 0,0 c 37.018,9.35 74.606,-13.08 83.957,-50.098 9.35,-37.018 -13.08,-74.606 -50.098,-83.956 -37.018,-9.35 -74.607,13.079 -83.956,50.097 C -59.447,-46.938 -37.018,-9.35 0,0 Z" /></g><g
           transform="translate(921.436,1274.8711)"
           id="g240"><path
             id="path242"
             style="fill:#141843;fill-opacity:1;fill-rule:nonzero;stroke:none"
             d="m 0,0 c -8.8,0 -9.9,0 -13.3,-0.2 -2.664,-0.071 -5.299,-0.578 -7.8,-1.5 -4.325,-1.658 -7.742,-5.075 -9.4,-9.4 -0.912,-2.504 -1.418,-5.137 -1.5,-7.8 -0.2,-3.4 -0.2,-4.5 -0.2,-13.3 0,-8.8 0,-9.9 0.2,-13.3 0.071,-2.665 0.578,-5.299 1.5,-7.8 1.658,-4.325 5.075,-7.742 9.4,-9.4 2.504,-0.911 5.137,-1.418 7.8,-1.5 3.4,-0.2 4.5,-0.2 13.3,-0.2 8.8,0 9.9,0 13.3,0.2 2.664,0.072 5.299,0.578 7.8,1.5 4.325,1.658 7.742,5.075 9.4,9.4 0.912,2.504 1.418,5.137 1.5,7.8 0.2,3.4 0.2,4.5 0.2,13.3 0,8.8 0,9.9 -0.2,13.3 -0.072,2.664 -0.579,5.299 -1.5,7.8 -1.658,4.325 -5.075,7.742 -9.4,9.4 -2.504,0.911 -5.137,1.418 -7.8,1.5 C 9.8,0 8.7,0 0,0 m 0,-5.8 c 8.6,0 9.7,0 13.1,-0.2 2.049,-0.011 4.08,-0.383 6,-1.1 2.808,-1.074 5.025,-3.293 6.1,-6.1 0.705,-1.923 1.077,-3.952 1.1,-6 0.2,-3.4 0.2,-4.4 0.2,-13.1 0,-8.6 0,-9.7 -0.2,-13.1 -0.011,-2.049 -0.383,-4.08 -1.1,-6 -1.075,-2.808 -3.292,-5.026 -6.1,-6.1 -1.923,-0.705 -3.952,-1.077 -6,-1.1 -3.4,-0.2 -4.4,-0.2 -13.1,-0.2 -8.7,0 -9.7,0 -13.1,0.2 -2.049,0.011 -4.08,0.383 -6,1.1 -2.808,1.074 -5.026,3.292 -6.1,6.1 -0.705,1.923 -1.077,3.952 -1.1,6 -0.2,3.4 -0.2,4.4 -0.2,13.1 0,8.6 0,9.7 0.2,13.1 0.011,2.049 0.383,4.08 1.1,6 1.074,2.807 3.292,5.026 6.1,6.1 1.923,0.705 3.952,1.077 6,1.1 3.4,0.1 4.4,0.2 13.1,0.2" /></g><g
           transform="translate(921.436,1231.771)"
           id="g244"><path
             id="path246"
             style="fill:#141843;fill-opacity:1;fill-rule:nonzero;stroke:none"
             d="m 0,0 c -5.965,0 -10.8,4.835 -10.8,10.8 0,5.965 4.835,10.8 10.8,10.8 5.964,0 10.8,-4.835 10.8,-10.8 C 10.754,4.854 5.945,0.046 0,0 m 0,27.4 c -9.168,0 -16.6,-7.432 -16.6,-16.6 0,-9.168 7.432,-16.6 16.6,-16.6 9.168,0 16.6,7.432 16.6,16.6 C 16.517,19.934 9.133,27.317 0,27.4" /></g><g
           transform="translate(942.5361,1259.771)"
           id="g248"><path
             id="path250"
             style="fill:#141843;fill-opacity:1;fill-rule:nonzero;stroke:none"
             d="m 0,0 c 0,-2.154 -1.746,-3.9 -3.9,-3.9 -2.154,0 -3.9,1.746 -3.9,3.9 0,2.154 1.746,3.9 3.9,3.9 C -1.746,3.9 0,2.154 0,0" /></g><g
           transform="translate(872.5581,838.5684)"
           id="g252"><path
             id="path254"
             style="fill:none;stroke:#141843;stroke-width:10;stroke-linecap:butt;stroke-linejoin:miter;stroke-miterlimit:10;stroke-dasharray:none;stroke-opacity:1"
             d="M 0,0 C 44.183,0.1 80.08,-35.638 80.179,-79.821 80.277,-124.004 44.54,-159.9 0.357,-160 c -44.183,-0.099 -80.08,35.639 -80.178,79.821 C -79.92,-35.995 -44.183,-0.099 0,0 Z" /></g><g
           id="g256"><g
             id="g258" /><g
             id="g270"><g
               id="g268"
               clip-path="url(#clipPath262)"><text
                 id="text266"
                 style="font-variant:normal;font-weight:800;font-stretch:normal;font-size:40px;font-family:'Gilroy ExtraBold';-inkscape-font-specification:Gilroy-ExtraBold;writing-mode:lr-tb;fill:#141843;fill-opacity:1;fill-rule:nonzero;stroke:none"
                 transform="matrix(1,0,0,-1,550.0352,1099)"><tspan
                   id="tspan264"
                   y="0"
                   x="0 24.4 49.119999 67.639999 78.040001 99.279999 109.28 121.88 146.8 167.84 182.75999">Basic facts</tspan></text>
</g></g></g><g
           id="g272"><g
             id="g274" /><g
             id="g298"><g
               id="g296"
               clip-path="url(#clipPath278)"><g
                 id="g294"><g
                   id="g284" /><g
                   id="g292"><g
                     id="g290"
                     clip-path="url(#clipPath282)"><text
                       id="text288"
                       style="font-variant:normal;font-weight:800;font-stretch:normal;font-size:40px;font-family:'Gilroy ExtraBold';-inkscape-font-specification:Gilroy-ExtraBold;writing-mode:lr-tb;fill:#141843;fill-opacity:1;fill-rule:nonzero;stroke:none"
                       transform="matrix(1,0,0,-1,668.5352,406)"><tspan
                         id="tspan286"
                         y="0"
                         x="0 26 50.919998 61.32 84.919998 109.84">Upload</tspan></text>
</g></g></g></g></g></g><path
           id="path300"
           style="fill:#141843;fill-opacity:1;fill-rule:nonzero;stroke:none"
           d="m 842.003,775.707 h 15.345 v -49.633 h -15.345 z" /><g
           transform="translate(849.6357,782.168)"
           id="g302"><path
             id="path304"
             style="fill:#141843;fill-opacity:1;fill-rule:nonzero;stroke:none"
             d="M 0,0 C 5.068,-0.043 9.212,4.031 9.255,9.1 9.298,14.168 5.225,18.312 0.156,18.355 -4.913,18.398 -9.057,14.324 -9.1,9.256 V 9.178 C -9.107,4.137 -5.042,0.036 0,0" /></g><g
           transform="translate(881.9443,752.0654)"
           id="g306"><path
             id="path308"
             style="fill:#141843;fill-opacity:1;fill-rule:nonzero;stroke:none"
             d="m 0,0 c 0,6.975 3.231,11.159 9.4,11.159 5.653,0 8.37,-3.965 8.37,-11.159 V -26.065 H 33.042 V 5.359 c 0,13.289 -7.562,19.75 -18.062,19.75 C 8.894,25.176 3.214,22.058 0.002,16.887 v 6.68 H -14.684 V -26.065 H 0 Z" /></g><g
           transform="translate(459.4346,1376)"
           id="g310"><path
             id="path312"
             style="fill:#141843;fill-opacity:1;fill-rule:nonzero;stroke:none"
             d="m 0,0 h 13 v 32.5 h 9.1 l 1,10.9 h -10 v 6.2 c 0,2.6 0.5,3.6 3,3.6 h 7 v 11.2 h -9 C 4.4,64.4 0.1,60.1 0.1,52 v -8.7 h -6.7 v -11 H 0.1 L 0.1,0 Z" /></g><g
           id="g314"><g
             id="g316" /><g
             id="g328"><g
               id="g326"
               clip-path="url(#clipPath320)"><text
                 id="text324"
                 style="font-variant:normal;font-weight:800;font-stretch:normal;font-size:40px;font-family:'Gilroy ExtraBold';-inkscape-font-specification:Gilroy-ExtraBold;writing-mode:lr-tb;fill:#141843;fill-opacity:1;fill-rule:nonzero;stroke:none"
                 transform="matrix(1,0,0,-1,918.0352,1496)"><tspan
                   id="tspan322"
                   y="0"
                   x="0 32.799999 55.400002 70.519997 93.839996 117.44">Method</tspan></text>
</g></g></g></g></g></g></svg>