<?xml version="1.0" encoding="UTF-8" standalone="no"?>
<!-- Created with Inkscape (http://www.inkscape.org/) -->

<svg
   xmlns:dc="http://purl.org/dc/elements/1.1/"
   xmlns:cc="http://creativecommons.org/ns#"
   xmlns:rdf="http://www.w3.org/1999/02/22-rdf-syntax-ns#"
   xmlns:svg="http://www.w3.org/2000/svg"
   xmlns="http://www.w3.org/2000/svg"
   xmlns:sodipodi="http://sodipodi.sourceforge.net/DTD/sodipodi-0.dtd"
   xmlns:inkscape="http://www.inkscape.org/namespaces/inkscape"
   version="1.1"
   id="svg10"
   xml:space="preserve"
   width="33.104"
   height="33.225105"
   viewBox="0 0 33.103999 33.225104"
   sodipodi:docname="user.svg"
   inkscape:version="0.92.2 (5c3e80d, 2017-08-06)"><metadata
     id="metadata16"><rdf:RDF><cc:Work
         rdf:about=""><dc:format>image/svg+xml</dc:format><dc:type
           rdf:resource="http://purl.org/dc/dcmitype/StillImage" /><dc:title></dc:title></cc:Work></rdf:RDF></metadata><defs
     id="defs14"><clipPath
       clipPathUnits="userSpaceOnUse"
       id="clipPath28"><path
         d="M 0,800 H 1280 V 0 H 0 Z"
         id="path26"
         inkscape:connector-curvature="0" /></clipPath><clipPath
       clipPathUnits="userSpaceOnUse"
       id="clipPath60"><path
         d="M 0,800 H 1280 V 0 H 0 Z"
         id="path58"
         inkscape:connector-curvature="0" /></clipPath><clipPath
       clipPathUnits="userSpaceOnUse"
       id="clipPath88"><path
         d="M 0,800 H 1280 V 0 H 0 Z"
         id="path86"
         inkscape:connector-curvature="0" /></clipPath><clipPath
       clipPathUnits="userSpaceOnUse"
       id="clipPath110"><path
         d="m 816,157 h 463.999 V 712 H 816 Z"
         id="path108"
         inkscape:connector-curvature="0" /></clipPath><clipPath
       clipPathUnits="userSpaceOnUse"
       id="clipPath262"><path
         d="m 1182.5,563.5 c -5.25,-3 -5.366,-3.189 -3,-6.5 v 0 c 2.5,-3.5 7.75,-0.75 7.75,-0.75 v 0 l 92.75,53.698 v 10.932 c -15.709,-9.257 -93.483,-55.084 -97.5,-57.38"
         id="path260"
         inkscape:connector-curvature="0" /></clipPath><linearGradient
       x1="0"
       y1="0"
       x2="1"
       y2="0"
       gradientUnits="userSpaceOnUse"
       gradientTransform="matrix(84.418487,84.418487,84.418487,-84.418487,1190.3623,546.05127)"
       spreadMethod="pad"
       id="linearGradient280"><stop
         style="stop-opacity:0.92927443;stop-color:#ffffff"
         offset="0"
         id="stop272" /><stop
         style="stop-opacity:0.29999237;stop-color:#ffffff"
         offset="0.283242"
         id="stop274" /><stop
         style="stop-opacity:0.97630274;stop-color:#ffffff"
         offset="0.788457"
         id="stop276" /><stop
         style="stop-opacity:1;stop-color:#ffffff"
         offset="1"
         id="stop278" /></linearGradient><mask
       maskUnits="userSpaceOnUse"
       x="0"
       y="0"
       width="1"
       height="1"
       id="mask282"><g
         id="g292"><g
           id="g290"><g
             id="g288"><g
               id="g286"><path
                 d="M -32768,32767 H 32767 V -32768 H -32768 Z"
                 style="fill:url(#linearGradient280);stroke:none"
                 id="path284"
                 inkscape:connector-curvature="0" /></g></g></g></g></mask><linearGradient
       x1="0"
       y1="0"
       x2="1"
       y2="0"
       gradientUnits="userSpaceOnUse"
       gradientTransform="matrix(84.418487,84.418487,84.418487,-84.418487,1190.3623,546.05127)"
       spreadMethod="pad"
       id="linearGradient306"><stop
         style="stop-opacity:1;stop-color:#fbe3cc"
         offset="0"
         id="stop298" /><stop
         style="stop-opacity:1;stop-color:#ff6167"
         offset="0.283242"
         id="stop300" /><stop
         style="stop-opacity:1;stop-color:#1c1a44"
         offset="0.788457"
         id="stop302" /><stop
         style="stop-opacity:1;stop-color:#141843"
         offset="1"
         id="stop304" /></linearGradient><clipPath
       clipPathUnits="userSpaceOnUse"
       id="clipPath316"><path
         d="m 1182.5,520.5 c -5.25,-3 -5.366,-3.188 -3,-6.5 v 0 c 2.5,-3.5 7.75,-0.75 7.75,-0.75 v 0 l 92.75,53.697 v 10.932 c -15.709,-9.257 -93.483,-55.083 -97.5,-57.379"
         id="path314"
         inkscape:connector-curvature="0" /></clipPath><linearGradient
       x1="0"
       y1="0"
       x2="1"
       y2="0"
       gradientUnits="userSpaceOnUse"
       gradientTransform="matrix(84.418205,84.418205,84.418205,-84.418205,1190.3623,503.05127)"
       spreadMethod="pad"
       id="linearGradient334"><stop
         style="stop-opacity:0.92927443;stop-color:#ffffff"
         offset="0"
         id="stop326" /><stop
         style="stop-opacity:0.29999237;stop-color:#ffffff"
         offset="0.283242"
         id="stop328" /><stop
         style="stop-opacity:0.97630274;stop-color:#ffffff"
         offset="0.788457"
         id="stop330" /><stop
         style="stop-opacity:1;stop-color:#ffffff"
         offset="1"
         id="stop332" /></linearGradient><mask
       maskUnits="userSpaceOnUse"
       x="0"
       y="0"
       width="1"
       height="1"
       id="mask336"><g
         id="g346"><g
           id="g344"><g
             id="g342"><g
               id="g340"><path
                 d="M -32768,32767 H 32767 V -32768 H -32768 Z"
                 style="fill:url(#linearGradient334);stroke:none"
                 id="path338"
                 inkscape:connector-curvature="0" /></g></g></g></g></mask><linearGradient
       x1="0"
       y1="0"
       x2="1"
       y2="0"
       gradientUnits="userSpaceOnUse"
       gradientTransform="matrix(84.418205,84.418205,84.418205,-84.418205,1190.3623,503.05127)"
       spreadMethod="pad"
       id="linearGradient360"><stop
         style="stop-opacity:1;stop-color:#fbe3cc"
         offset="0"
         id="stop352" /><stop
         style="stop-opacity:1;stop-color:#ff6167"
         offset="0.283242"
         id="stop354" /><stop
         style="stop-opacity:1;stop-color:#1c1a44"
         offset="0.788457"
         id="stop356" /><stop
         style="stop-opacity:1;stop-color:#141843"
         offset="1"
         id="stop358" /></linearGradient><clipPath
       clipPathUnits="userSpaceOnUse"
       id="clipPath370"><path
         d="m 1182.5,476.5 c -5.25,-3 -5.366,-3.188 -3,-6.5 v 0 c 2.5,-3.5 7.75,-0.75 7.75,-0.75 v 0 l 92.75,53.697 v 10.932 c -15.709,-9.257 -93.483,-55.083 -97.5,-57.379"
         id="path368"
         inkscape:connector-curvature="0" /></clipPath><linearGradient
       x1="0"
       y1="0"
       x2="1"
       y2="0"
       gradientUnits="userSpaceOnUse"
       gradientTransform="matrix(84.418205,84.418205,84.418205,-84.418205,1190.3633,459.05029)"
       spreadMethod="pad"
       id="linearGradient388"><stop
         style="stop-opacity:0.92927443;stop-color:#ffffff"
         offset="0"
         id="stop380" /><stop
         style="stop-opacity:0.29999237;stop-color:#ffffff"
         offset="0.283242"
         id="stop382" /><stop
         style="stop-opacity:0.97630274;stop-color:#ffffff"
         offset="0.788457"
         id="stop384" /><stop
         style="stop-opacity:1;stop-color:#ffffff"
         offset="1"
         id="stop386" /></linearGradient><mask
       maskUnits="userSpaceOnUse"
       x="0"
       y="0"
       width="1"
       height="1"
       id="mask390"><g
         id="g400"><g
           id="g398"><g
             id="g396"><g
               id="g394"><path
                 d="M -32768,32767 H 32767 V -32768 H -32768 Z"
                 style="fill:url(#linearGradient388);stroke:none"
                 id="path392"
                 inkscape:connector-curvature="0" /></g></g></g></g></mask><linearGradient
       x1="0"
       y1="0"
       x2="1"
       y2="0"
       gradientUnits="userSpaceOnUse"
       gradientTransform="matrix(84.418205,84.418205,84.418205,-84.418205,1190.3633,459.05029)"
       spreadMethod="pad"
       id="linearGradient414"><stop
         style="stop-opacity:1;stop-color:#fbe3cc"
         offset="0"
         id="stop406" /><stop
         style="stop-opacity:1;stop-color:#ff6167"
         offset="0.283242"
         id="stop408" /><stop
         style="stop-opacity:1;stop-color:#1c1a44"
         offset="0.788457"
         id="stop410" /><stop
         style="stop-opacity:1;stop-color:#141843"
         offset="1"
         id="stop412" /></linearGradient><clipPath
       clipPathUnits="userSpaceOnUse"
       id="clipPath424"><path
         d="m 1182.5,433.5 c -5.25,-3 -5.366,-3.188 -3,-6.5 v 0 c 2.5,-3.5 7.75,-0.75 7.75,-0.75 v 0 l 92.75,53.697 v 10.932 c -15.709,-9.257 -93.483,-55.083 -97.5,-57.379"
         id="path422"
         inkscape:connector-curvature="0" /></clipPath><linearGradient
       x1="0"
       y1="0"
       x2="1"
       y2="0"
       gradientUnits="userSpaceOnUse"
       gradientTransform="matrix(84.418144,84.418144,84.418144,-84.418144,1190.3623,416.05127)"
       spreadMethod="pad"
       id="linearGradient442"><stop
         style="stop-opacity:0.92927443;stop-color:#ffffff"
         offset="0"
         id="stop434" /><stop
         style="stop-opacity:0.29999237;stop-color:#ffffff"
         offset="0.283242"
         id="stop436" /><stop
         style="stop-opacity:0.97630274;stop-color:#ffffff"
         offset="0.788457"
         id="stop438" /><stop
         style="stop-opacity:1;stop-color:#ffffff"
         offset="1"
         id="stop440" /></linearGradient><mask
       maskUnits="userSpaceOnUse"
       x="0"
       y="0"
       width="1"
       height="1"
       id="mask444"><g
         id="g454"><g
           id="g452"><g
             id="g450"><g
               id="g448"><path
                 d="M -32768,32767 H 32767 V -32768 H -32768 Z"
                 style="fill:url(#linearGradient442);stroke:none"
                 id="path446"
                 inkscape:connector-curvature="0" /></g></g></g></g></mask><linearGradient
       x1="0"
       y1="0"
       x2="1"
       y2="0"
       gradientUnits="userSpaceOnUse"
       gradientTransform="matrix(84.418144,84.418144,84.418144,-84.418144,1190.3623,416.05127)"
       spreadMethod="pad"
       id="linearGradient468"><stop
         style="stop-opacity:1;stop-color:#fbe3cc"
         offset="0"
         id="stop460" /><stop
         style="stop-opacity:1;stop-color:#ff6167"
         offset="0.283242"
         id="stop462" /><stop
         style="stop-opacity:1;stop-color:#1c1a44"
         offset="0.788457"
         id="stop464" /><stop
         style="stop-opacity:1;stop-color:#141843"
         offset="1"
         id="stop466" /></linearGradient><clipPath
       clipPathUnits="userSpaceOnUse"
       id="clipPath478"><path
         d="m 1182.5,390.5 c -5.25,-3 -5.366,-3.189 -3,-6.5 v 0 c 2.5,-3.5 7.75,-0.75 7.75,-0.75 v 0 l 92.75,53.697 v 10.932 c -15.709,-9.257 -93.483,-55.083 -97.5,-57.379"
         id="path476"
         inkscape:connector-curvature="0" /></clipPath><linearGradient
       x1="0"
       y1="0"
       x2="1"
       y2="0"
       gradientUnits="userSpaceOnUse"
       gradientTransform="matrix(84.418205,84.418205,84.418205,-84.418205,1190.3623,373.05176)"
       spreadMethod="pad"
       id="linearGradient496"><stop
         style="stop-opacity:0.92927443;stop-color:#ffffff"
         offset="0"
         id="stop488" /><stop
         style="stop-opacity:0.29999237;stop-color:#ffffff"
         offset="0.283242"
         id="stop490" /><stop
         style="stop-opacity:0.97630274;stop-color:#ffffff"
         offset="0.788457"
         id="stop492" /><stop
         style="stop-opacity:1;stop-color:#ffffff"
         offset="1"
         id="stop494" /></linearGradient><mask
       maskUnits="userSpaceOnUse"
       x="0"
       y="0"
       width="1"
       height="1"
       id="mask498"><g
         id="g508"><g
           id="g506"><g
             id="g504"><g
               id="g502"><path
                 d="M -32768,32767 H 32767 V -32768 H -32768 Z"
                 style="fill:url(#linearGradient496);stroke:none"
                 id="path500"
                 inkscape:connector-curvature="0" /></g></g></g></g></mask><linearGradient
       x1="0"
       y1="0"
       x2="1"
       y2="0"
       gradientUnits="userSpaceOnUse"
       gradientTransform="matrix(84.418205,84.418205,84.418205,-84.418205,1190.3623,373.05176)"
       spreadMethod="pad"
       id="linearGradient522"><stop
         style="stop-opacity:1;stop-color:#fbe3cc"
         offset="0"
         id="stop514" /><stop
         style="stop-opacity:1;stop-color:#ff6167"
         offset="0.283242"
         id="stop516" /><stop
         style="stop-opacity:1;stop-color:#1c1a44"
         offset="0.788457"
         id="stop518" /><stop
         style="stop-opacity:1;stop-color:#141843"
         offset="1"
         id="stop520" /></linearGradient><clipPath
       clipPathUnits="userSpaceOnUse"
       id="clipPath532"><path
         d="m 1182.5,346.5 c -5.25,-3 -5.366,-3.189 -3,-6.5 v 0 c 2.5,-3.5 7.75,-0.75 7.75,-0.75 v 0 l 92.75,53.698 v 10.932 c -15.709,-9.257 -93.483,-55.084 -97.5,-57.38"
         id="path530"
         inkscape:connector-curvature="0" /></clipPath><linearGradient
       x1="0"
       y1="0"
       x2="1"
       y2="0"
       gradientUnits="userSpaceOnUse"
       gradientTransform="matrix(84.418205,84.418205,84.418205,-84.418205,1190.3633,329.05078)"
       spreadMethod="pad"
       id="linearGradient550"><stop
         style="stop-opacity:0.92927443;stop-color:#ffffff"
         offset="0"
         id="stop542" /><stop
         style="stop-opacity:0.29999237;stop-color:#ffffff"
         offset="0.283242"
         id="stop544" /><stop
         style="stop-opacity:0.97630274;stop-color:#ffffff"
         offset="0.788457"
         id="stop546" /><stop
         style="stop-opacity:1;stop-color:#ffffff"
         offset="1"
         id="stop548" /></linearGradient><mask
       maskUnits="userSpaceOnUse"
       x="0"
       y="0"
       width="1"
       height="1"
       id="mask552"><g
         id="g562"><g
           id="g560"><g
             id="g558"><g
               id="g556"><path
                 d="M -32768,32767 H 32767 V -32768 H -32768 Z"
                 style="fill:url(#linearGradient550);stroke:none"
                 id="path554"
                 inkscape:connector-curvature="0" /></g></g></g></g></mask><linearGradient
       x1="0"
       y1="0"
       x2="1"
       y2="0"
       gradientUnits="userSpaceOnUse"
       gradientTransform="matrix(84.418205,84.418205,84.418205,-84.418205,1190.3633,329.05078)"
       spreadMethod="pad"
       id="linearGradient576"><stop
         style="stop-opacity:1;stop-color:#fbe3cc"
         offset="0"
         id="stop568" /><stop
         style="stop-opacity:1;stop-color:#ff6167"
         offset="0.283242"
         id="stop570" /><stop
         style="stop-opacity:1;stop-color:#1c1a44"
         offset="0.788457"
         id="stop572" /><stop
         style="stop-opacity:1;stop-color:#141843"
         offset="1"
         id="stop574" /></linearGradient></defs><sodipodi:namedview
     pagecolor="#ffffff"
     bordercolor="#666666"
     borderopacity="1"
     objecttolerance="10"
     gridtolerance="10"
     guidetolerance="10"
     inkscape:pageopacity="0"
     inkscape:pageshadow="2"
     inkscape:window-width="1839"
     inkscape:window-height="1057"
     id="namedview12"
     showgrid="false"
     fit-margin-top="0"
     fit-margin-left="0"
     fit-margin-right="0"
     fit-margin-bottom="0"
     inkscape:zoom="0.78105465"
     inkscape:cx="-583.64951"
     inkscape:cy="-477.77609"
     inkscape:window-x="73"
     inkscape:window-y="-8"
     inkscape:window-maximized="1"
     inkscape:current-layer="g18" /><g
     id="g18"
     inkscape:groupmode="layer"
     inkscape:label="Share_my_thesis_pages"
     transform="matrix(1.3333333,0,0,-1.3333333,-1436.9829,1044.3345)"><path
       d="M 0,118 H 1280 V 713 H 0 Z"
       style="fill:#fbe3cc;fill-opacity:1;fill-rule:nonzero;stroke:none"
       id="path20"
       inkscape:connector-curvature="0" /><g
       id="g22"><g
         id="g24"
         clip-path="url(#clipPath28)"><g
           id="g30"
           transform="translate(612.9385,759)"><path
             d="m 0,0 c 0,-8.561 -6.126,-15.5 -13.683,-15.5 h -210.968 c -7.557,0 -13.682,6.939 -13.682,15.5 0,8.561 6.125,15.5 13.682,15.5 H -13.683 C -6.126,15.5 0,8.561 0,0 Z"
             style="fill:none;stroke:#ff6167;stroke-width:1;stroke-linecap:butt;stroke-linejoin:miter;stroke-miterlimit:10;stroke-dasharray:none;stroke-opacity:1"
             id="path32"
             inkscape:connector-curvature="0" /></g><path
           d="m 68.364,754.658 h 0.192 v 0.36 h -0.192 z m -5.284,-4.229 v -0.384 c 0.239,0 0.36,0.128 0.36,0.384 z m -0.191,0.169 h 0.359 v 0.168 h -0.359 z m -5.143,9.224 h 0.169 v 0.385 h -0.169 z m -3.531,5.791 h 0.36 v 0.216 h -0.36 z m -1.611,1.105 h 0.385 v 0.168 h -0.385 z m -1.584,-0.361 h 0.385 v 0.193 H 51.02 Z m 15.087,5.478 -0.216,-0.336 0.384,0.192 h 0.168 c 0.688,-0.417 1.033,-0.713 1.033,-0.889 0,-0.128 -0.048,-0.192 -0.144,-0.192 0.24,-0.577 0.36,-1.05 0.36,-1.417 h -0.216 l 0.216,-0.337 -0.216,-0.36 c 0.4,0 0.649,-0.769 0.745,-2.307 l 0.336,-0.36 -0.193,-0.913 v -1.369 l 0.193,-1.082 c -0.127,-0.352 -0.24,-0.528 -0.336,-0.528 0.224,-1.089 0.4,-1.634 0.529,-1.634 l -0.193,-0.312 v -0.889 l 0.193,-0.865 c -0.129,0 -0.193,-0.064 -0.193,-0.192 h 0.361 v -0.385 c -0.369,0 -0.554,-0.112 -0.554,-0.336 l 0.386,0.193 h 0.168 l 0.168,-1.058 c -0.113,-0.369 -0.225,-0.552 -0.336,-0.552 0.096,-0.465 0.207,-0.697 0.336,-0.697 l -0.168,-0.336 v -0.216 l 0.168,-0.865 -0.336,0.168 c 0.223,-0.352 0.336,-0.705 0.336,-1.057 v -2.475 c 0,-0.112 -0.057,-0.168 -0.168,-0.168 l 0.168,-0.385 v -2.834 c 0,-0.096 0.049,-0.144 0.144,-0.144 -0.095,-0.289 -0.144,-0.465 -0.144,-0.529 -0.225,0 -0.336,0.176 -0.336,0.529 -0.93,-0.481 -1.522,-0.841 -1.778,-1.082 h -0.865 c -2.259,0.577 -3.387,1.05 -3.387,1.418 0,0.673 -0.185,1.498 -0.554,2.474 l 0.361,-0.144 v 0.144 c -0.465,0.514 -0.696,0.993 -0.696,1.442 v 0.696 l 0.192,0.361 h -0.192 c 0,-0.128 -0.058,-0.192 -0.169,-0.192 v 0.192 c 0.111,0.209 0.169,0.376 0.169,0.504 l -0.336,0.193 0.167,0.336 c -0.112,0.721 -0.24,1.081 -0.385,1.081 0,0.112 0.073,0.168 0.218,0.168 -0.145,1.09 -0.218,1.97 -0.218,2.643 0,0.064 0.026,0.192 0.073,0.385 0.032,0.192 0.08,0.432 0.145,0.72 -0.241,0 -0.361,0.104 -0.361,0.312 h 0.143 c -0.095,0.256 -0.143,0.553 -0.143,0.889 h -0.193 c -0.255,0 -1.073,-2.066 -2.45,-6.198 -1.009,-3.299 -1.729,-4.949 -2.162,-4.949 l -0.865,-0.384 c -2.019,0.737 -3.026,1.393 -3.026,1.969 0,0.257 -0.122,0.385 -0.362,0.385 0,0.113 0.064,0.168 0.193,0.168 l -0.193,0.337 v 0.384 h 0.362 v 0.312 h -0.53 c 0,0.128 0.057,0.192 0.168,0.192 -0.48,6.487 -0.888,9.73 -1.224,9.73 h -0.217 v -1.081 c -0.226,0 -0.624,-0.688 -1.201,-2.066 -0.256,-0.016 -0.384,-0.144 -0.384,-0.384 0.143,0 0.216,-0.064 0.216,-0.193 -0.161,0 -0.52,-1.057 -1.082,-3.171 -0.976,-1.649 -1.57,-2.474 -1.778,-2.474 0,-0.144 -0.16,-0.489 -0.479,-1.033 h -0.385 v 0.336 H 45.35 c 0,-0.208 -0.352,-0.448 -1.057,-0.72 0,0.111 -0.057,0.168 -0.168,0.168 0,-0.224 -0.121,-0.337 -0.361,-0.337 -0.241,0 -0.361,0.113 -0.361,0.337 0.113,0 0.168,0.071 0.168,0.216 h -0.168 c 0,-0.192 -0.24,-0.377 -0.72,-0.553 0,0.225 -0.697,0.465 -2.09,0.721 v 0.168 l 0.168,0.336 h -0.168 c 0,-0.128 -0.072,-0.192 -0.217,-0.192 l -0.864,1.442 v 0.889 h -0.361 v 0.528 h 0.193 l 0.336,-0.216 v 0.384 c -0.353,0 -0.529,0.128 -0.529,0.385 0.048,0.224 0.168,0.336 0.361,0.336 -0.241,0.369 -0.361,0.721 -0.361,1.057 l 0.193,0.865 c -0.129,0.256 -0.193,0.432 -0.193,0.528 0.128,0.256 0.193,0.448 0.193,0.577 l -0.337,0.697 c 0.159,0.24 0.328,0.952 0.505,2.138 0,0.096 -0.057,0.144 -0.168,0.144 l 0.336,2.499 h -0.168 c 0.112,0.352 0.24,0.529 0.384,0.529 l -0.216,0.36 c 0.24,1.425 0.36,2.25 0.36,2.474 h -0.144 c 0,0.465 0.584,0.753 1.754,0.865 0,0.145 0.048,0.216 0.144,0.216 0,-0.144 0.063,-0.216 0.192,-0.216 0.049,0.241 0.168,0.36 0.361,0.36 0.72,-0.096 1.192,-0.144 1.417,-0.144 l 0.361,0.144 c 0.447,-0.24 0.921,-0.36 1.417,-0.36 h 0.553 c 0,-0.24 0.103,-0.36 0.311,-0.36 v -0.865 c 0.705,-0.657 1.057,-1.065 1.057,-1.226 -0.416,0 -0.768,-0.48 -1.057,-1.441 0,-0.112 0.064,-0.168 0.194,-0.168 l -0.194,-0.913 c 0,-0.081 0.064,-0.249 0.194,-0.505 l -0.673,-2.643 0.311,-0.191 -0.143,-0.36 v -0.553 h 0.311 c 0,0.287 0.481,1.12 1.442,2.498 0.496,1.185 1.393,2.651 2.691,4.397 -0.143,0.208 -0.216,0.456 -0.216,0.744 1.601,0.817 2.714,1.226 3.339,1.226 h 0.216 c 0.85,0 1.498,-0.529 1.947,-1.586 v -1.561 l -0.361,0.168 0.169,-0.36 v -1.586 h 0.311 l -0.696,-1.442 c 0.145,-1.057 0.375,-1.585 0.696,-1.585 0,-0.145 -0.04,-0.321 -0.119,-0.529 0.096,-1.186 0.264,-1.778 0.504,-1.778 0.481,0.817 0.721,1.409 0.721,1.778 v 0.72 c 0.432,0 0.664,0.417 0.696,1.25 0.128,0 0.488,0.753 1.082,2.259 h -0.192 c 0.704,1.729 1.714,3.795 3.026,6.198 v 0.912 l 0.361,-0.215 v 0.215 l -0.192,0.361 c 1.617,0.688 2.73,1.033 3.339,1.033 z"
           style="fill:#ff6167;fill-opacity:1;fill-rule:nonzero;stroke:none"
           id="path34"
           inkscape:connector-curvature="0" /><path
           d="m 84.846,757.108 h 0.168 v 0.312 h -0.168 z m -0.336,4.252 v -0.528 h 0.336 c -0.096,0.256 -0.145,0.432 -0.145,0.528 z m 0.191,-3.94 c 0,0.097 0.049,0.289 0.145,0.577 h -0.145 c -0.256,-0.016 -0.385,-0.136 -0.385,-0.36 z m 0.145,1.273 c 0,-0.224 -0.178,-0.336 -0.53,-0.336 v -0.169 h 0.385 l 0.313,0.505 z m -0.698,-4.396 h 0.168 v 0.36 h -0.168 z m -0.168,3.34 h 0.168 v 0.36 H 83.98 Z m 0,2.33 c 0.113,-0.257 0.168,-0.448 0.168,-0.577 h 0.168 v 0.385 z m 0,2.066 c 0.225,0 0.336,-0.105 0.336,-0.312 h 0.194 c 0.223,0 0.336,0.104 0.336,0.312 -0.321,0 -0.61,0.128 -0.866,0.384 z m -0.191,-9.537 h 0.191 v 0.529 h -0.191 z m 0.721,6.894 c 0,-0.161 -0.24,-0.561 -0.721,-1.202 h 0.191 c 0.482,0.53 0.721,0.874 0.721,1.034 v 0.168 z m -0.721,2.163 v -0.385 c 0.24,0 0.359,0.128 0.359,0.385 z m -0.168,-5.886 -0.193,-0.313 v -0.192 h 0.193 c 0,0.24 0.119,0.36 0.359,0.36 v 0.145 z m -0.193,3.411 h 0.193 v 0.312 h -0.193 z m -0.167,-6.751 c 0.239,-0.015 0.36,-0.129 0.36,-0.336 -0.129,0 -0.193,-0.072 -0.193,-0.217 h 0.193 l 0.168,0.361 v 0.192 c -0.097,0 -0.273,0.057 -0.528,0.169 z m 0,7.76 v -0.312 c 0.239,0 0.36,0.103 0.36,0.312 z m -0.217,1.081 h 0.384 v 0.192 h -0.384 z m -0.12,-7.784 h 0.12 v 0.36 h -0.12 z m 0.12,3.004 c 0,0.111 -0.04,0.168 -0.12,0.168 v -0.168 l 0.337,-0.169 h 0.167 v 0.337 h 0.193 l 0.359,-0.168 -0.191,0.36 c 0.031,0.24 0.152,0.36 0.359,0.36 l 0.168,-0.72 h -0.168 c 0.113,-0.193 0.168,-0.433 0.168,-0.721 h 0.194 v 0.552 h -0.194 l 0.194,0.337 v 0.552 c -0.145,0 -0.322,0.073 -0.53,0.216 0,-0.159 -0.311,-0.472 -0.936,-0.936 m -0.312,-7.617 h 0.312 v 0.192 h -0.312 z m 0.192,5.526 -0.192,-0.384 h 0.192 l 0.12,0.384 z m -0.192,3.123 c 0.206,0 0.312,-0.224 0.312,-0.672 h 0.217 c 0,0.255 0.055,0.48 0.167,0.672 l -0.384,0.217 c 0,-0.145 -0.04,-0.217 -0.12,-0.217 0,0.144 -0.065,0.217 -0.192,0.217 z m 0,0.768 h 0.191 v 0.505 h -0.191 z m 0,1.395 h 0.191 v 0.384 h -0.191 z m -0.169,-3.749 v -0.312 l 0.481,-0.36 v 0.36 c -0.208,0 -0.312,0.104 -0.312,0.312 z m -0.215,-3.699 v -0.144 l 0.384,-0.217 v 0.217 z m -0.168,7.64 h 0.168 v 0.889 H 82.18 Z m -0.168,-3.724 -0.169,-0.384 h 0.169 l 0.168,0.384 z m -0.169,1.754 h 0.337 l -0.168,0.888 v 0.385 l 0.336,-0.168 v 0.312 H 82.18 c -0.226,-0.016 -0.337,-0.12 -0.337,-0.312 z m -0.168,-11.508 h 0.337 v 0.168 h -0.337 z m 0,4.06 h 0.168 l -0.168,-0.312 v -0.36 h 0.168 c 0,0.288 0.111,0.576 0.337,0.864 h -0.168 c 0,-0.128 -0.058,-0.192 -0.169,-0.192 0,0.128 -0.057,0.192 -0.168,0.192 z m 0,1.417 h 0.337 c 0,0.241 -0.113,0.361 -0.337,0.361 z m 0,1.25 h 0.168 v 0.36 h -0.168 z m 0,6.943 v -0.577 c 0.224,0 0.337,0.129 0.337,0.385 z M 82.563,761 v 0.168 c -0.063,0.272 -0.36,0.504 -0.888,0.697 0.063,-0.304 0.36,-0.593 0.888,-0.865 m -1.104,-19.82 h 0.384 v 0.191 h -0.384 z m 0.216,16.457 -0.216,-0.697 0.384,-0.192 v 0.889 z M 81.291,738.32 h 0.168 v 0.36 h -0.168 z m 0.168,18.236 -0.168,-0.337 h 0.168 l 0.216,0.337 z m -0.168,2.354 h 0.384 c 0,0.208 -0.129,0.312 -0.384,0.312 z m 0,2.45 c 0.11,-0.192 0.168,-0.424 0.168,-0.696 h 0.216 v 0.504 z m -0.145,-26.067 h 0.312 v 0.192 h -0.312 z m 0.313,2.331 c 0,0.16 0.071,0.336 0.216,0.528 -0.257,-0.144 -0.433,-0.215 -0.529,-0.215 0.033,-0.209 0.135,-0.313 0.313,-0.313 m 0,8.504 v 0.337 c -0.209,-0.032 -0.313,-0.144 -0.313,-0.337 z m -0.313,2.139 h 0.145 v 0.312 h -0.145 z m 0,5.309 h 0.145 v 0.336 h -0.145 z m 0.145,4.949 c 0,-0.096 -0.049,-0.272 -0.145,-0.528 h 0.145 l 0.168,0.36 v 0.168 z m -0.312,-2.691 h 0.168 v 0.385 h -0.168 z m 0,1.274 v -0.168 l 0.312,-0.192 v 0.192 z m 0,0.529 v -0.313 c 0.207,0 0.312,0.104 0.312,0.313 z m 0,2.33 v -0.192 l 0.312,-0.192 v 0.192 z m 0,1.754 h 0.48 v 0.144 h -0.48 z m -0.217,-37.19 h 0.217 v 0.697 h -0.217 z m 0,27.243 h 0.217 v 0.36 h -0.217 z m 0,3.893 -0.168,-0.313 h 0.168 l 0.217,0.313 z m -0.36,-10.595 h 0.191 v 0.36 h -0.191 z m -0.121,11.316 h 0.121 v 0.36 h -0.121 z m 0,3.891 v -0.504 h 0.121 l -0.121,-0.385 c 0.159,-0.576 0.321,-0.865 0.481,-0.865 l -0.168,0.385 v 0.312 l 0.168,0.361 c -0.241,0 -0.36,0.231 -0.36,0.696 z M 80.09,733.9 c 0.288,0 0.639,-0.352 1.056,-1.057 -0.081,0.433 -0.369,0.905 -0.865,1.418 h 0.313 v 0.168 c -0.129,0 -0.297,0.056 -0.504,0.168 z m 0,26.932 h 0.191 v 0.336 H 80.09 Z m 0,-32.746 -0.194,-0.384 v -0.168 h 0.194 v 0.384 l 0.312,-0.216 v 0.216 z m -0.194,4.926 c 0.034,-0.257 0.16,-0.385 0.385,-0.385 h 0.121 l -0.121,1.081 c -0.256,-0.016 -0.385,-0.12 -0.385,-0.312 z m 0,18.21 h 0.193 v 0.385 h -0.193 z m 0,7.135 h 0.385 v 0.168 h -0.385 z m 0,0.553 h 0.385 v 0.168 h -0.385 z m -0.191,-28.181 v -0.552 l 0.385,-0.193 v 0.193 c -0.13,0.272 -0.194,0.456 -0.194,0.552 z m 0,24.793 h 0.385 v 0.144 h -0.385 z m -0.168,-22.319 h 0.168 v 0.337 h -0.168 z m 0.359,24.985 c 0,-0.191 -0.12,-0.447 -0.359,-0.768 h 0.168 l 0.385,0.577 v 0.191 z m -0.359,-32.96 -0.168,-0.385 h 0.168 l 0.168,0.385 z m -0.168,0.528 v -0.36 c 0.224,0 0.336,0.12 0.336,0.36 z m 0,7.952 h 0.168 v 0.36 h -0.168 z m 0,-5.478 -0.193,-0.312 c 0.241,0.113 0.417,0.168 0.529,0.168 v 0.144 z m -0.193,0.36 h 0.193 v 0.505 h -0.193 z m 0,0.866 h 0.193 v 0.529 h -0.193 z m 0.361,5.526 c 0,0.143 0.056,0.311 0.168,0.504 -0.209,-0.129 -0.385,-0.193 -0.529,-0.193 0.049,-0.207 0.168,-0.311 0.361,-0.311 m -0.361,18.042 c 0.129,-0.192 0.193,-0.424 0.193,-0.697 h 0.168 v 0.553 z m 0,0.721 h 0.193 v 0.336 h -0.193 z m 0,-27.1 -0.168,-0.36 v -0.168 h 0.168 c 0,0.112 0.062,0.288 0.193,0.528 z m -0.168,6.198 v -0.216 c 0.288,0 0.519,-0.032 0.697,-0.096 v 0.312 z m 0,0.697 c 0.049,-0.225 0.168,-0.337 0.361,-0.337 v 0.337 z m -0.192,-4.253 h 0.191 v 0.553 h -0.191 z m 0,21.791 h 0.191 v 0.36 H 78.816 Z M 78.647,728.59 h 0.169 v 0.361 h -0.169 z m 0,3.725 c 0.016,-0.241 0.136,-0.36 0.361,-0.36 0,0.128 0.055,0.191 0.168,0.191 0,-0.127 0.062,-0.191 0.193,-0.191 v 0.191 l -0.361,0.169 z m 0,3.556 v -0.578 c 0.241,0 0.361,0.121 0.361,0.361 v 0.217 z m 0.169,-5.887 v 0.385 c -0.209,-0.049 -0.312,-0.177 -0.312,-0.385 z m -0.312,1.442 h 0.144 v 0.337 h -0.144 z m 0,-0.169 c 0,-0.064 -0.065,-0.296 -0.192,-0.696 h 0.192 c 0.207,0 0.312,0.104 0.312,0.312 v 0.384 z m -0.553,-1.61 v -0.191 h 0.168 l -0.168,-0.361 v -0.144 c 0,-0.192 0.184,-0.376 0.553,-0.552 v 0.191 l -0.385,0.505 0.193,0.361 z m 0.168,6.007 -0.168,-0.361 v -0.119 h 0.168 c 0,0.08 0.063,0.24 0.193,0.48 z m -0.168,0.721 v -0.168 l 0.168,-0.336 c 0.273,0.112 0.447,0.168 0.528,0.168 v 0.168 z m 0,7.64 h 0.168 v 0.336 h -0.168 z m -0.217,-11.172 h 0.217 v 0.36 h -0.217 z m 0.385,0.36 v -0.36 h 0.385 v -0.216 c -0.274,0 -0.528,-0.344 -0.77,-1.032 h 0.217 c 0,0.111 0.056,0.168 0.168,0.168 0,-0.113 0.063,-0.168 0.193,-0.168 l -0.193,0.36 0.528,0.672 c -0.095,0.289 -0.143,0.481 -0.143,0.576 z m -0.528,-2.161 h 0.36 v 0.216 h -0.36 z m 0,1.273 h 0.36 c 0,0.208 -0.12,0.312 -0.36,0.312 z m 0.36,2.475 0.168,-0.361 V 733.9 l -0.385,0.168 -0.143,-0.36 v -0.312 h 0.36 l -0.217,0.312 h 0.385 v -0.312 c 0.385,0.336 0.736,0.504 1.057,0.504 l -0.168,0.361 v 0.168 l 0.888,-0.168 c 0,0.112 -0.063,0.168 -0.191,0.168 l 0.191,0.361 v 0.192 c -0.24,-0.033 -0.359,-0.16 -0.359,-0.385 l -0.361,0.193 h -0.36 l -0.169,-0.89 h -0.335 l 0.192,0.89 v 0.192 h -0.192 z m -0.553,-9.226 h 0.192 v 0.384 h -0.192 z m 0,9.729 v -0.503 c 0.128,-0.241 0.193,-0.417 0.193,-0.529 h 0.143 v 0.168 c -0.095,0.225 -0.143,0.512 -0.143,0.864 z m 0,1.634 c 0,-0.24 -0.056,-0.36 -0.168,-0.36 0.241,-0.448 0.361,-0.808 0.361,-1.081 h 0.143 c -0.095,0.545 -0.143,1.025 -0.143,1.441 z m 0,-10.498 v 0.384 c -0.224,-0.016 -0.335,-0.145 -0.335,-0.384 z m -0.335,0.769 h 0.528 v 0.144 h -0.528 z m 0,2.979 h 0.168 v 0.384 h -0.168 z m 0,2.666 h 0.168 v 0.36 h -0.168 z m 0.335,4.229 v 0.384 c -0.224,-0.016 -0.335,-0.144 -0.335,-0.384 z m -0.552,-8.121 c 0.256,0 0.384,0.112 0.384,0.336 v 0.169 c -0.257,-0.016 -0.384,-0.137 -0.384,-0.361 z m 0,6.703 h 0.384 c 0,0.257 -0.128,0.385 -0.384,0.385 z m -0.312,-5.477 v -0.193 l 0.312,-0.144 v 0.144 z m 0,3.026 c 0,-0.24 -0.13,-0.36 -0.385,-0.36 v -0.216 h 0.385 l 0.168,0.385 v 0.191 z m -0.385,2.668 h 0.216 v -0.385 H 76.149 Z M 75.981,733.9 h 0.384 v -0.505 h -0.384 z m 0.553,1.393 v -0.119 l -0.169,-0.384 h 0.337 c 0,-0.129 -0.057,-0.193 -0.168,-0.193 l 0.168,-0.336 V 733.9 h -0.337 c 0,0.593 -0.129,0.89 -0.384,0.89 0.111,0.272 0.168,0.44 0.168,0.503 z m -0.698,19.172 h 0.146 v 0.504 h -0.146 z m 0,1.369 h 0.146 v 0.385 h -0.146 z m 0,10.644 h 0.529 v 0.168 h -0.529 z m -0.743,-4.061 h 0.192 v 0.336 h -0.192 z m -0.145,-9.393 h 0.337 v 0.168 h -0.337 z m -0.192,8.144 v -0.336 h 0.337 l -0.337,-0.553 h 0.192 l 0.337,0.553 z m -0.553,-7.423 h 0.36 l 0.193,0.336 c -0.24,-0.112 -0.425,-0.168 -0.553,-0.168 z m 0,-2.139 -0.144,-0.384 h 0.144 l 0.193,0.384 z m -0.144,14.367 h 0.337 v 0.192 h -0.337 z m -0.361,-8.553 h 0.192 v 0.385 h -0.192 z m 0,2.859 h 0.192 v 0.385 h -0.192 z m 0,2.691 v -0.217 l 0.361,-0.143 v 0.143 z m 0,-6.414 -0.192,-0.337 h 0.192 l 0.193,0.337 z m -0.36,0.768 -0.168,-0.384 h 0.168 l 0.168,0.384 z m -0.36,-3.579 h 0.192 v 0.336 h -0.192 z m -0.192,-1.034 c 0.128,-0.255 0.192,-0.447 0.192,-0.576 h 0.192 v 0.361 z m 0,4.709 h 0.191 v 0.385 h -0.191 z m 0,4.445 0.384,-0.144 h 0.168 v 0.144 c -0.096,0 -0.279,0.056 -0.552,0.168 z m -0.337,-8.673 h 0.169 v 0.384 h -0.169 z m -0.144,5.165 -0.215,-0.36 h 0.215 l 0.144,0.36 z m -0.215,0.168 h 0.215 v 0.385 H 72.09 Z m -0.338,-3.363 h 0.338 l 0.215,0.36 c -0.256,-0.112 -0.441,-0.168 -0.553,-0.168 z m 0,3.026 h 0.168 v 0.337 h -0.168 z m 0.338,6.007 c 0,-0.544 -0.113,-0.953 -0.338,-1.225 h 0.168 l 0.529,0.697 h -0.144 l 0.144,0.336 v 0.192 z m -0.554,-7.976 v -0.168 c 0.146,0 0.216,-0.072 0.216,-0.217 -0.144,0 -0.216,-0.056 -0.216,-0.167 l 0.384,-0.145 v 0.145 c -0.111,0 -0.168,0.056 -0.168,0.167 0.112,0 0.168,0.073 0.168,0.217 z m -0.143,1.105 h 0.144 v 0.313 h -0.144 z m 5.141,9.874 c 0.176,-0.48 0.464,-0.72 0.864,-0.72 v -1.058 l 0.336,0.193 0.217,-1.081 -0.36,-0.145 v 0.313 h -0.193 v -0.697 h -0.335 l 0.167,-0.336 c -0.466,-0.033 -0.696,-0.801 -0.696,-2.307 l -0.385,0.193 v -0.385 c 0,-0.112 0.072,-0.168 0.216,-0.168 0,-0.112 -0.072,-0.168 -0.216,-0.168 l 0.216,-0.865 c 0,-0.129 -0.072,-0.321 -0.216,-0.577 l 0.216,-0.312 c 0,-0.721 -0.232,-1.081 -0.696,-1.081 v -0.36 h 0.312 v 0.36 h 0.168 v -1.057 h -0.313 l 0.313,-0.552 v -1.418 h 0.216 c 0.513,0.256 1.449,1.384 2.811,3.387 0.033,0.48 0.208,0.721 0.529,0.721 l -0.168,0.312 c 0.111,0.385 0.231,0.577 0.359,0.577 0,0.08 -0.063,0.12 -0.191,0.12 0.128,0.4 0.191,0.993 0.191,1.778 l 0.385,-0.144 -0.191,0.312 c 0.014,0.256 0.119,0.384 0.312,0.384 0,-0.112 0.063,-0.167 0.192,-0.167 0.08,0.479 0.264,0.72 0.552,0.72 h 0.313 l -0.168,-0.36 c 0.11,0 0.168,0.048 0.168,0.143 l 0.721,-0.143 h 1.248 v -0.193 c 0.241,0 0.361,0.112 0.361,0.336 h -0.361 c 0.015,0.257 0.135,0.385 0.361,0.385 h 0.527 l -0.168,-0.385 v -0.143 h 0.168 v 0.36 h 0.194 c 0.062,-0.625 0.351,-0.937 0.864,-0.937 v -0.168 h -0.36 v -0.697 h 0.192 v 0.385 h 0.384 l -0.216,-0.889 c 0.145,0 0.216,-0.072 0.216,-0.217 -0.208,0 -0.4,-0.16 -0.576,-0.48 l 0.36,-0.577 v -0.48 l -0.36,0.168 v -0.168 c 0.24,-0.033 0.36,-0.16 0.36,-0.385 -0.096,-1.313 -0.216,-1.969 -0.36,-1.969 h -0.168 l 0.168,-0.889 -0.313,0.167 v -0.48 H 84.51 l -0.362,0.168 v -0.168 c 0.113,0 0.168,-0.063 0.168,-0.192 -0.111,0 -0.168,-0.064 -0.168,-0.192 l 0.362,-0.192 v 0.384 c 0.223,0 0.336,-0.168 0.336,-0.504 l -0.336,-0.745 h 0.191 l -0.553,-1.202 h 0.168 c 0.129,0.193 0.194,0.353 0.194,0.481 h 0.191 v -0.168 c -0.129,-0.464 -0.191,-0.88 -0.191,-1.25 h -0.194 v 0.361 h -0.168 v -0.144 c 0.113,-0.369 0.233,-0.553 0.362,-0.553 0,-0.352 -0.297,-0.528 -0.889,-0.528 v -0.169 c 0.464,0 0.695,-0.128 0.695,-0.384 l -0.168,-0.889 -0.359,0.217 v -0.217 c 0.176,0 0.352,-0.168 0.527,-0.505 l -0.336,-0.528 c 0.113,-0.224 0.168,-0.408 0.168,-0.552 -0.239,-0.016 -0.359,-0.129 -0.359,-0.337 0,-0.111 0.063,-0.169 0.191,-0.169 -0.24,-1.664 -0.48,-2.674 -0.719,-3.026 l 0.167,-0.336 c -0.095,-0.496 -0.225,-0.745 -0.384,-0.745 l 0.217,-0.336 v -0.553 c 0,-0.208 -0.233,-0.313 -0.698,-0.313 v -0.215 h 0.481 v -0.337 c 0,-0.224 -0.16,-0.336 -0.481,-0.336 v -0.36 h 0.361 v -0.193 l -0.361,-1.225 h 0.169 c -0.369,-0.865 -0.552,-1.457 -0.552,-1.778 0,-0.112 0.055,-0.168 0.168,-0.168 -0.593,-1.841 -0.889,-2.851 -0.889,-3.027 l 0.216,-0.361 V 733.9 l -0.384,0.168 0.168,-0.36 v -0.865 c 0,-0.208 -0.105,-0.312 -0.313,-0.312 v 0.096 c -0.096,0 -0.449,-0.224 -1.056,-0.672 0,0.24 -0.13,0.36 -0.385,0.36 v -0.72 h 0.385 c 0,-0.225 -0.13,-0.338 -0.385,-0.338 h -0.168 v 0.338 h -0.168 v -0.338 h -0.193 v 0.506 h -0.168 v -0.337 c 0.111,-0.192 0.168,-0.424 0.168,-0.697 h 0.193 v 0.528 l 0.912,-0.384 c 0,0.4 0.039,0.826 0.121,1.273 h 0.744 v -0.383 l -0.384,0.192 -0.168,-0.36 v -0.553 c 0.256,0 0.385,0.184 0.385,0.553 h 0.312 c -0.097,-0.225 -0.145,-0.513 -0.145,-0.866 l -0.384,0.144 v -0.144 c 0.256,-0.016 0.384,-0.136 0.384,-0.36 v -0.192 l -0.744,0.552 -0.121,-0.36 h 0.121 c 0,0.128 0.063,0.192 0.192,0.192 l 0.168,-0.384 c -0.289,0 -0.514,-0.241 -0.672,-0.721 h -0.385 v -0.361 l 0.385,0.192 h 0.191 l 0.121,-0.697 0.36,0.193 c 0,-0.128 0.071,-0.193 0.217,-0.193 v 0.193 l -0.385,0.168 0.168,0.336 v 0.169 h -0.36 l 0.192,0.384 c -0.129,0 -0.192,0.048 -0.192,0.144 h 0.192 c 0.288,-0.096 0.471,-0.144 0.552,-0.144 v -1.441 c 0,-0.208 -0.128,-0.313 -0.384,-0.313 0,0.208 -0.12,0.313 -0.36,0.313 v -0.169 c 0.303,0 0.495,-0.296 0.577,-0.888 -0.146,0 -0.217,-0.048 -0.217,-0.144 0.351,0 0.529,-0.361 0.529,-1.081 h -0.312 c 0.111,-0.577 0.456,-1.458 1.033,-2.643 -0.274,-0.961 -0.914,-1.442 -1.922,-1.442 -1.299,0 -2.428,1.177 -3.388,3.532 l -0.337,1.634 0.169,0.888 c -0.112,0 -0.169,0.048 -0.169,0.144 0.112,0 0.169,0.057 0.169,0.169 h -0.169 c 0,-0.112 -0.072,-0.169 -0.216,-0.169 v 0.169 l 0.216,0.384 c -0.144,0 -0.216,0.056 -0.216,0.168 h 0.385 v 0.336 l -0.385,-0.192 h -0.168 v 0.361 c 0,0.512 0.24,0.88 0.721,1.105 0,0.096 0.048,0.256 0.144,0.481 l -0.865,-0.673 v 0.36 c 0,0.096 0.056,0.144 0.168,0.144 l -0.313,1.082 c 0,0.672 0.338,1.257 1.01,1.753 0.063,-0.208 0.192,-0.312 0.384,-0.312 l -0.384,0.672 c 0.144,0.225 0.217,0.401 0.217,0.529 -0.241,0 -0.361,0.129 -0.361,0.385 h 0.361 v 0.504 h -0.529 v 0.721 h 0.312 c -0.082,0.368 -0.184,0.552 -0.312,0.552 l 0.168,0.313 -0.168,0.384 h 0.312 v 0.168 h -0.481 v 0.696 c 0.225,1.731 0.337,2.683 0.337,2.86 v 0.505 h 0.361 v 0.168 h -0.361 v 0.215 c 0.24,0.369 0.536,1.61 0.889,3.724 0.24,0 0.36,0.457 0.36,1.37 h -0.217 l 0.385,0.937 c -0.112,0.225 -0.168,0.384 -0.168,0.481 0,0.592 0.184,0.888 0.553,0.888 -0.129,1.009 -0.385,1.594 -0.77,1.754 -0.817,-0.32 -1.632,-0.481 -2.449,-0.481 -1.299,0.161 -1.947,0.449 -1.947,0.865 l -0.36,-0.168 h -0.192 l -0.696,1.058 c 0,0.288 -0.289,0.816 -0.866,1.585 v 0.216 l 0.169,0.361 h -0.169 c 0.112,0.159 0.169,0.447 0.169,0.864 h -0.169 c 0,0.096 0.055,0.145 0.169,0.145 l -0.169,0.384 v 0.337 l 0.169,0.36 -0.53,0.36 c 0.241,0.832 0.465,1.249 0.673,1.249 l -0.312,1.418 h 0.169 l -0.169,0.312 c 0,0.337 0.104,0.697 0.312,1.081 -0.097,0.289 -0.143,0.473 -0.143,0.553 l 0.359,0.144 -0.359,2.138 c 0.175,0.465 0.351,0.697 0.527,0.697 v -0.313 h 0.17 v 0.313 c -0.226,0 -0.338,0.12 -0.338,0.36 l 0.168,0.913 0.385,-0.192 h 0.144 c 0,0.128 0.055,0.303 0.169,0.529 -0.114,0 -0.169,0.055 -0.169,0.168 0.113,0 0.289,0.055 0.529,0.168 0,-0.113 0.063,-0.168 0.192,-0.168 0,0.368 0.705,0.552 2.115,0.552 l 0.384,-0.168 v 0.168 l 0.312,-0.168 z"
           style="fill:#ff6167;fill-opacity:1;fill-rule:nonzero;stroke:none"
           id="path36"
           inkscape:connector-curvature="0" /></g></g><text
       transform="matrix(1,0,0,-1,34.1133,772.9536)"
       style="font-variant:normal;font-weight:800;font-stretch:normal;font-size:19.12579918px;font-family:'Gilroy ExtraBold';-inkscape-font-specification:Gilroy-ExtraBold;writing-mode:lr-tb;fill:#000000;fill-opacity:1;fill-rule:nonzero;stroke:none"
       id="text42"><tspan
         x="0 11.188593 22.338934 34.254307 41.042053"
         y="0"
         sodipodi:role="line"
         id="tspan38">Share</tspan><tspan
         x="0 10.327932 21.478273 32.188721 41.043968 45.921047"
         y="37.71608"
         sodipodi:role="line"
         id="tspan40">Thesis</tspan></text>
<text
       transform="matrix(1,0,0,-1,641.8223,753.145)"
       style="font-variant:normal;font-weight:800;font-stretch:normal;font-size:21px;font-family:'Gilroy ExtraBold';-inkscape-font-specification:Gilroy-ExtraBold;writing-mode:lr-tb;fill:#ff6167;fill-opacity:1;fill-rule:nonzero;stroke:none"
       id="text52"><tspan
         x="0 14.28 27.363001 39.752998 51.995998"
         y="0"
         sodipodi:role="line"
         id="tspan44">About</tspan><tspan
         x="-443.01599 -426.573 -413.48999 -408.03 -395.85001 -388.07999 -382.62"
         y="0"
         sodipodi:role="line"
         id="tspan46">Galerie</tspan><tspan
         x="-343.686 -331.50601 -324.05099 -311.97601 -300.00809"
         y="0"
         sodipodi:role="line"
         id="tspan48">Profl</tspan><tspan
         x="-254.35201 -243.01199 -230.769 -219.009 -209.286 -203.931 -194.103 -188.853 -177.933 -165.75301 -158.298 -146.22301 -133.7301 -121.5501 -109.3071 -101.3691 -95.909103 -90.449097 -79.403099 -67.160103 -54.980099"
         y="0"
         sodipodi:role="line"
         id="tspan50">Thesis veröfentlichen</tspan></text>
<g
       id="g54"
       transform="translate(-27.4713,2.8617)"><g
         id="g56"
         clip-path="url(#clipPath60)"><g
           id="g62"
           transform="translate(1235.2461,771.4277)"><path
             d="m 0,0 v 0 c -0.191,0.115 -0.342,0.077 -0.417,-0.112 0,0 0.53,2.909 0.114,4.118 -0.908,3.176 -8.39,4.082 -8.39,2.118 -3.25,-0.908 -2.647,-3.969 -2.192,-6.275 0,0 -0.227,0.266 -0.529,0 -0.342,-0.378 0.037,-1.247 0.188,-1.701 0.076,-0.302 0.189,-0.528 0.265,-0.717 v -0.076 c 0,-0.341 0.113,-0.567 0.303,-0.567 0.756,-2.872 3.023,-5.254 5.025,-5.254 1.853,0 4.16,2.382 4.913,5.254 0.152,0 0.265,0.226 0.265,0.567 v 0.039 c 0.113,0.189 0.188,0.415 0.304,0.754 C -0.039,-1.435 0.414,-0.302 0,0"
             style="fill:#000000;fill-opacity:1;fill-rule:evenodd;stroke:none"
             id="path64"
             inkscape:connector-curvature="0" /></g><g
           id="g66"
           transform="translate(1226.0605,763.1523)"><path
             d="M 0,0 C -5.932,-3.327 -8.918,-1.437 -8.918,-9.486 H 3.553 3.666 15.91 C 15.91,-1.739 12.925,-3.327 7.029,0 6.01,-0.945 4.839,-1.588 3.553,-1.588 2.193,-1.588 0.983,-0.945 0,0"
             style="fill:#ff6167;fill-opacity:1;fill-rule:evenodd;stroke:none"
             id="path68"
             inkscape:connector-curvature="0" /></g></g></g><g
       id="g82"><g
         id="g84"
         clip-path="url(#clipPath88)"><g
           id="g90"
           transform="translate(206.6055)"><path
             d="M 0,0 632.29,383.012 869.395,262 436.346,0 Z"
             style="fill:#ffffff;fill-opacity:1;fill-rule:nonzero;stroke:none"
             id="path92"
             inkscape:connector-curvature="0" /></g></g></g><g
       id="g104"><g
         id="g106"
         clip-path="url(#clipPath110)"><g
           id="g112"
           transform="translate(1154.498,572.0596)"><path
             d="M 0,0 223.838,-127.302 -89.529,-310.567 -313.358,-184.661 Z"
             style="fill:#fbe3cc;fill-opacity:1;fill-rule:nonzero;stroke:none"
             id="path114"
             inkscape:connector-curvature="0" /></g><g
           id="g116"
           transform="translate(851.2295,387.501)"><path
             d="M 0,0 213.69,-120.207 517.028,57.198 303.313,178.741 Z m 213.739,-131.043 c -0.851,0 -1.701,0.217 -2.468,0.648 L -12.558,-4.489 c -1.567,0.881 -2.548,2.533 -2.566,4.338 -0.021,1.798 0.929,3.47 2.478,4.384 l 313.358,184.661 c 1.554,0.92 3.48,0.925 5.045,0.04 L 529.595,61.633 c 1.564,-0.89 2.537,-2.548 2.547,-4.347 0.011,-1.799 -0.939,-3.467 -2.493,-4.376 L 216.28,-130.354 c -0.787,-0.458 -1.662,-0.689 -2.541,-0.689"
             style="fill:#141843;fill-opacity:1;fill-rule:nonzero;stroke:none"
             id="path118"
             inkscape:connector-curvature="0" /></g><g
           id="g120"
           transform="translate(1154.498,593.8057)"><path
             d="m 0,0 223.834,-127.306 -313.363,-183.26 -223.829,125.911 z"
             style="fill:#ff6167;fill-opacity:1;fill-rule:nonzero;stroke:none"
             id="path122"
             inkscape:connector-curvature="0" /></g><g
           id="g124"
           transform="translate(851.2295,409.2529)"><path
             d="M 0,0 213.69,-120.211 517.024,57.188 303.313,178.737 Z m 213.739,-131.048 c -0.851,0 -1.701,0.217 -2.468,0.649 L -12.558,-4.489 c -1.567,0.881 -2.548,2.533 -2.566,4.338 -0.021,1.798 0.929,3.469 2.478,4.385 L 300.712,188.89 c 1.554,0.919 3.48,0.924 5.045,0.039 L 529.591,61.622 c 1.563,-0.89 2.537,-2.546 2.547,-4.346 0.009,-1.799 -0.94,-3.466 -2.493,-4.377 L 216.28,-130.359 c -0.787,-0.457 -1.662,-0.689 -2.541,-0.689"
             style="fill:#141843;fill-opacity:1;fill-rule:nonzero;stroke:none"
             id="path126"
             inkscape:connector-curvature="0" /></g><g
           id="g128"
           transform="translate(1154.498,615.5576)"><path
             d="M 0,0 223.838,-127.306 -89.529,-310.565 -313.358,-184.666 Z"
             style="fill:#fbe3cc;fill-opacity:1;fill-rule:nonzero;stroke:none"
             id="path130"
             inkscape:connector-curvature="0" /></g><g
           id="g132"
           transform="translate(851.2295,430.9961)"><path
             d="M 0,0 213.69,-120.203 517.028,57.196 303.313,178.746 Z m 213.739,-131.039 c -0.851,0 -1.701,0.217 -2.468,0.644 l -223.829,125.9 c -1.567,0.886 -2.548,2.537 -2.566,4.342 -0.021,1.799 0.929,3.471 2.478,4.385 l 313.358,184.666 c 1.554,0.919 3.48,0.925 5.045,0.039 L 529.595,61.631 c 1.564,-0.89 2.537,-2.546 2.547,-4.346 0.011,-1.8 -0.939,-3.467 -2.493,-4.377 L 216.28,-130.351 c -0.787,-0.457 -1.662,-0.688 -2.541,-0.688"
             style="fill:#141843;fill-opacity:1;fill-rule:nonzero;stroke:none"
             id="path134"
             inkscape:connector-curvature="0" /></g><g
           id="g136"
           transform="translate(1154.498,637.3003)"><path
             d="M 0,0 223.838,-127.302 -89.529,-310.566 -313.358,-184.662 Z"
             style="fill:#ff6167;fill-opacity:1;fill-rule:nonzero;stroke:none"
             id="path138"
             inkscape:connector-curvature="0" /></g><g
           id="g140"
           transform="translate(851.2295,452.7422)"><path
             d="M 0,0 213.69,-120.206 517.028,57.197 303.313,178.742 Z m 213.739,-131.042 c -0.851,0 -1.701,0.216 -2.468,0.648 L -12.558,-4.488 c -1.567,0.88 -2.548,2.531 -2.566,4.336 -0.021,1.8 0.929,3.471 2.478,4.386 l 313.358,184.661 c 1.554,0.919 3.48,0.924 5.045,0.04 L 529.595,61.633 c 1.564,-0.891 2.537,-2.548 2.547,-4.346 0.011,-1.801 -0.939,-3.467 -2.493,-4.377 L 216.28,-130.354 c -0.787,-0.457 -1.662,-0.688 -2.541,-0.688"
             style="fill:#141843;fill-opacity:1;fill-rule:nonzero;stroke:none"
             id="path142"
             inkscape:connector-curvature="0" /></g><g
           id="g144"
           transform="translate(1154.498,659.0522)"><path
             d="M 0,0 223.838,-127.306 -89.529,-310.57 -313.358,-184.666 Z"
             style="fill:#fbe3cc;fill-opacity:1;fill-rule:nonzero;stroke:none"
             id="path146"
             inkscape:connector-curvature="0" /></g><g
           id="g148"
           transform="translate(851.2295,474.4893)"><path
             d="M 0,0 213.69,-120.206 517.028,57.198 303.313,178.746 Z m 213.739,-131.043 c -0.851,0 -1.701,0.217 -2.468,0.649 L -12.558,-4.489 c -1.567,0.88 -2.548,2.533 -2.566,4.338 -0.021,1.798 0.929,3.47 2.478,4.384 L 300.712,188.9 c 1.554,0.919 3.48,0.924 5.045,0.039 L 529.595,61.633 c 1.564,-0.89 2.537,-2.548 2.547,-4.347 0.011,-1.799 -0.939,-3.467 -2.493,-4.376 L 216.28,-130.354 c -0.787,-0.458 -1.662,-0.689 -2.541,-0.689"
             style="fill:#141843;fill-opacity:1;fill-rule:nonzero;stroke:none"
             id="path150"
             inkscape:connector-curvature="0" /></g><g
           id="g152"
           transform="translate(1154.498,680.7949)"><path
             d="M 0,0 223.838,-127.302 -89.529,-310.566 -313.358,-184.661 Z"
             style="fill:#ff6167;fill-opacity:1;fill-rule:nonzero;stroke:none"
             id="path154"
             inkscape:connector-curvature="0" /></g><g
           id="g156"
           transform="translate(851.2295,496.2363)"><path
             d="M 0,0 213.69,-120.207 517.028,57.198 303.313,178.742 Z m 213.739,-131.043 c -0.851,0 -1.701,0.216 -2.468,0.65 L -12.558,-4.488 c -1.567,0.879 -2.548,2.531 -2.566,4.337 -0.021,1.797 0.929,3.471 2.478,4.385 l 313.358,184.661 c 1.554,0.92 3.48,0.924 5.045,0.039 L 529.595,61.633 c 1.564,-0.89 2.537,-2.547 2.547,-4.346 0.011,-1.801 -0.939,-3.467 -2.493,-4.377 L 216.28,-130.354 c -0.787,-0.458 -1.662,-0.689 -2.541,-0.689"
             style="fill:#141843;fill-opacity:1;fill-rule:nonzero;stroke:none"
             id="path158"
             inkscape:connector-curvature="0" /></g><g
           id="g160"
           transform="translate(1154.498,702.5469)"><path
             d="m 0,0 223.838,-127.307 -313.367,-183.259 -223.829,125.9 z"
             style="fill:#fbe3cc;fill-opacity:1;fill-rule:nonzero;stroke:none"
             id="path162"
             inkscape:connector-curvature="0" /></g><g
           id="g164"
           transform="translate(851.2295,517.9844)"><path
             d="M 0,0 213.69,-120.203 517.028,57.196 303.313,178.746 Z m 213.739,-131.039 c -0.851,0 -1.701,0.216 -2.468,0.644 l -223.829,125.9 c -1.567,0.886 -2.548,2.537 -2.566,4.342 -0.021,1.799 0.929,3.471 2.478,4.385 l 313.358,184.666 c 1.554,0.921 3.48,0.925 5.045,0.04 L 529.595,61.633 c 1.564,-0.892 2.537,-2.548 2.547,-4.348 0.011,-1.8 -0.939,-3.465 -2.493,-4.375 L 216.28,-130.351 c -0.787,-0.457 -1.662,-0.688 -2.541,-0.688"
             style="fill:#141843;fill-opacity:1;fill-rule:nonzero;stroke:none"
             id="path166"
             inkscape:connector-curvature="0" /></g><g
           id="g168"
           transform="translate(1154.498,724.2886)"><path
             d="m 0,0 223.838,-127.3 -313.367,-183.266 -223.829,125.91 z"
             style="fill:#ff6167;fill-opacity:1;fill-rule:nonzero;stroke:none"
             id="path170"
             inkscape:connector-curvature="0" /></g><g
           id="g172"
           transform="translate(851.2295,539.7363)"><path
             d="M 0,0 213.69,-120.212 517.028,57.191 303.313,178.735 Z m 213.739,-131.049 c -0.851,0 -1.701,0.217 -2.468,0.65 L -12.558,-4.489 c -1.567,0.88 -2.548,2.531 -2.566,4.336 -0.021,1.799 0.929,3.471 2.478,4.385 l 313.358,184.657 c 1.554,0.915 3.48,0.924 5.045,0.039 L 529.595,61.627 c 1.564,-0.891 2.537,-2.547 2.547,-4.347 0.011,-1.8 -0.939,-3.466 -2.493,-4.375 L 216.28,-130.359 c -0.787,-0.457 -1.662,-0.69 -2.541,-0.69"
             style="fill:#141843;fill-opacity:1;fill-rule:nonzero;stroke:none"
             id="path174"
             inkscape:connector-curvature="0" /></g><g
           id="g176"
           transform="translate(1154.498,746.0405)"><path
             d="m 0,0 223.834,-127.306 -313.363,-183.26 -223.829,125.9 z"
             style="fill:#fbe3cc;fill-opacity:1;fill-rule:nonzero;stroke:none"
             id="path178"
             inkscape:connector-curvature="0" /></g><g
           id="g180"
           transform="translate(851.2295,561.4785)"><path
             d="M 0,0 213.69,-120.201 517.024,57.197 303.313,178.745 Z m 213.739,-131.039 c -0.851,0 -1.701,0.217 -2.468,0.644 L -12.558,-4.494 c -1.567,0.885 -2.548,2.537 -2.566,4.342 -0.021,1.798 0.929,3.47 2.478,4.384 l 313.358,184.667 c 1.554,0.919 3.48,0.924 5.045,0.038 L 529.591,61.632 c 1.563,-0.89 2.537,-2.546 2.547,-4.347 0.009,-1.799 -0.94,-3.467 -2.493,-4.376 L 216.28,-130.35 c -0.787,-0.457 -1.662,-0.689 -2.541,-0.689"
             style="fill:#141843;fill-opacity:1;fill-rule:nonzero;stroke:none"
             id="path182"
             inkscape:connector-curvature="0" /></g><g
           id="g184"
           transform="translate(1154.498,767.7881)"><path
             d="m 0,0 223.834,-127.301 -313.363,-183.27 -223.833,125.91 z"
             style="fill:#ff6167;fill-opacity:1;fill-rule:nonzero;stroke:none"
             id="path186"
             inkscape:connector-curvature="0" /></g><g
           id="g188"
           transform="translate(851.2256,583.2305)"><path
             d="M 0,0 213.694,-120.213 517.028,57.197 303.317,178.74 Z m 213.743,-131.049 c -0.851,0 -1.701,0.217 -2.469,0.649 L -12.559,-4.49 c -1.568,0.881 -2.547,2.533 -2.566,4.338 -0.021,1.798 0.929,3.47 2.478,4.384 l 313.363,184.661 c 1.554,0.92 3.48,0.925 5.045,0.04 L 529.595,61.632 c 1.563,-0.89 2.537,-2.547 2.547,-4.346 0.009,-1.8 -0.94,-3.467 -2.494,-4.377 L 216.284,-130.36 c -0.787,-0.458 -1.662,-0.689 -2.541,-0.689"
             style="fill:#141843;fill-opacity:1;fill-rule:nonzero;stroke:none"
             id="path190"
             inkscape:connector-curvature="0" /></g><g
           id="g192"
           transform="translate(1154.498,789.5342)"><path
             d="M 0,0 223.838,-127.306 -89.529,-310.565 -313.358,-184.666 Z"
             style="fill:#fbe3cc;fill-opacity:1;fill-rule:nonzero;stroke:none"
             id="path194"
             inkscape:connector-curvature="0" /></g><g
           id="g196"
           transform="translate(851.2295,604.9727)"><path
             d="M 0,0 213.69,-120.203 517.028,57.196 303.313,178.746 Z m 213.739,-131.039 c -0.851,0 -1.701,0.217 -2.468,0.644 l -223.829,125.9 c -1.567,0.886 -2.548,2.538 -2.566,4.342 -0.021,1.799 0.929,3.471 2.478,4.385 l 313.358,184.666 c 1.554,0.919 3.48,0.925 5.045,0.04 L 529.595,61.631 c 1.564,-0.888 2.537,-2.546 2.547,-4.346 0.011,-1.799 -0.939,-3.467 -2.493,-4.375 L 216.28,-130.351 c -0.787,-0.457 -1.662,-0.688 -2.541,-0.688"
             style="fill:#141843;fill-opacity:1;fill-rule:nonzero;stroke:none"
             id="path198"
             inkscape:connector-curvature="0" /></g><g
           id="g200"
           transform="translate(1154.498,811.2817)"><path
             d="m 0,0 223.838,-127.301 -313.367,-183.27 -223.829,125.909 z"
             style="fill:#ff6167;fill-opacity:1;fill-rule:nonzero;stroke:none"
             id="path202"
             inkscape:connector-curvature="0" /></g><g
           id="g204"
           transform="translate(851.2295,626.7246)"><path
             d="M 0,0 213.69,-120.212 517.028,57.196 303.313,178.741 Z m 213.739,-131.048 c -0.851,0 -1.701,0.216 -2.468,0.649 L -12.558,-4.49 c -1.567,0.881 -2.548,2.533 -2.566,4.337 -0.021,1.799 0.929,3.471 2.478,4.385 l 313.358,184.662 c 1.554,0.919 3.48,0.923 5.045,0.04 L 529.595,61.631 c 1.564,-0.888 2.537,-2.546 2.547,-4.346 0.011,-1.799 -0.939,-3.467 -2.493,-4.375 L 216.28,-130.359 c -0.787,-0.457 -1.662,-0.689 -2.541,-0.689"
             style="fill:#141843;fill-opacity:1;fill-rule:nonzero;stroke:none"
             id="path206"
             inkscape:connector-curvature="0" /></g><g
           id="g208"
           transform="translate(1018.6973,532.5)"><path
             d="M 0,0 94.5,2.5 46.223,-25.987 Z"
             style="fill:#fbe3cc;fill-opacity:1;fill-rule:nonzero;stroke:none"
             id="path210"
             inkscape:connector-curvature="0" /></g><g
           id="g212"
           transform="translate(1312.7021,665.7002)"><path
             d="m 0,0 c -0.835,0 -1.683,0.206 -2.464,0.644 l -177.521,99.851 c -2.424,1.366 -3.285,4.434 -1.922,6.858 1.356,2.424 4.424,3.285 6.858,1.924 L 2.472,9.426 C 4.896,8.059 5.758,4.99 4.396,2.566 3.472,0.924 1.761,0 0,0"
             style="fill:#141843;fill-opacity:1;fill-rule:nonzero;stroke:none"
             id="path214"
             inkscape:connector-curvature="0" /></g><g
           id="g216"
           transform="translate(1288.4961,647.542)"><path
             d="m 0,0 c -0.836,0 -1.681,0.206 -2.463,0.648 l -177.521,99.857 c -2.424,1.361 -3.285,4.43 -1.917,6.854 1.351,2.424 4.42,3.299 6.853,1.918 L 2.474,9.42 C 4.897,8.059 5.758,4.99 4.392,2.566 3.471,0.925 1.762,0 0,0"
             style="fill:#141843;fill-opacity:1;fill-rule:nonzero;stroke:none"
             id="path218"
             inkscape:connector-curvature="0" /></g><g
           id="g220"
           transform="translate(1260.2539,635.4409)"><path
             d="m 0,0 c -0.836,0 -1.681,0.208 -2.463,0.645 l -177.517,99.851 c -2.423,1.367 -3.284,4.435 -1.921,6.858 1.361,2.424 4.425,3.285 6.858,1.923 L 2.474,9.426 C 4.897,8.059 5.758,4.991 4.396,2.567 3.471,0.925 1.762,0 0,0"
             style="fill:#141843;fill-opacity:1;fill-rule:nonzero;stroke:none"
             id="path222"
             inkscape:connector-curvature="0" /></g><g
           id="g224"
           transform="translate(1234.0332,619.2998)"><path
             d="m 0,0 c -0.836,0 -1.681,0.206 -2.463,0.648 l -177.522,99.857 c -2.425,1.361 -3.285,4.43 -1.917,6.854 1.351,2.424 4.421,3.294 6.853,1.918 L 2.474,9.42 C 4.897,8.059 5.758,4.989 4.391,2.565 3.471,0.924 1.76,0 0,0"
             style="fill:#141843;fill-opacity:1;fill-rule:nonzero;stroke:none"
             id="path226"
             inkscape:connector-curvature="0" /></g><g
           id="g228"
           transform="translate(1203.7695,603.1631)"><path
             d="m 0,0 c -0.835,0 -1.682,0.206 -2.463,0.648 l -177.521,99.856 c -2.424,1.362 -3.285,4.43 -1.917,6.854 1.35,2.424 4.422,3.3 6.852,1.917 L 2.474,9.42 C 4.897,8.058 5.758,4.989 4.392,2.565 3.471,0.924 1.762,0 0,0"
             style="fill:#141843;fill-opacity:1;fill-rule:nonzero;stroke:none"
             id="path230"
             inkscape:connector-curvature="0" /></g><g
           id="g232"
           transform="translate(1177.5439,589.042)"><path
             d="m 0,0 c -0.837,0 -1.682,0.206 -2.464,0.648 l -177.516,99.856 c -2.424,1.362 -3.285,4.43 -1.917,6.854 1.351,2.424 4.423,3.295 6.853,1.917 L 2.473,9.42 C 4.897,8.058 5.758,4.989 4.391,2.565 3.47,0.924 1.761,0 0,0"
             style="fill:#141843;fill-opacity:1;fill-rule:nonzero;stroke:none"
             id="path234"
             inkscape:connector-curvature="0" /></g><g
           id="g236"
           transform="translate(1151.3174,572.9004)"><path
             d="m 0,0 c -0.835,0 -1.681,0.205 -2.464,0.648 l -177.517,99.861 c -2.423,1.362 -3.284,4.43 -1.916,6.854 1.357,2.424 4.424,3.3 6.853,1.917 L 2.474,9.42 C 4.897,8.059 5.757,4.99 4.39,2.566 3.472,0.924 1.761,0 0,0"
             style="fill:#141843;fill-opacity:1;fill-rule:nonzero;stroke:none"
             id="path238"
             inkscape:connector-curvature="0" /></g><g
           id="g240"
           transform="translate(1127.1172,560.7998)"><path
             d="m 0,0 c -0.835,0 -1.682,0.206 -2.464,0.648 l -177.522,99.856 c -2.424,1.362 -3.284,4.43 -1.916,6.854 1.355,2.43 4.423,3.295 6.853,1.917 L 2.473,9.42 C 4.896,8.058 5.758,4.989 4.391,2.565 3.471,0.924 1.76,0 0,0"
             style="fill:#141843;fill-opacity:1;fill-rule:nonzero;stroke:none"
             id="path242"
             inkscape:connector-curvature="0" /></g><g
           id="g244"
           transform="translate(989.9375,604.1709)"><path
             d="m 0,0 c -0.89,0 -1.789,0.235 -2.605,0.728 l -66.571,40.347 c -2.374,1.441 -3.135,4.538 -1.695,6.917 1.446,2.375 4.538,3.128 6.918,1.697 L 2.615,9.342 C 4.99,7.901 5.754,4.804 4.312,2.424 3.364,0.865 1.701,0 0,0"
             style="fill:#141843;fill-opacity:1;fill-rule:nonzero;stroke:none"
             id="path246"
             inkscape:connector-curvature="0" /></g><g
           id="g248"
           transform="translate(1009.0693,535.207)"><path
             d="m 0,0 120.206,4.141 c 0,0 -43.11,8.269 -61.677,50.839 C 58.529,54.98 39.019,9.73 0,0"
             style="fill:#ffffff;fill-opacity:1;fill-rule:nonzero;stroke:none"
             id="path250"
             inkscape:connector-curvature="0" /></g><g
           id="g252"
           transform="translate(1067.5547,579.0645)"><path
             d="m 0,0 c -5.773,-10.147 -16.909,-26.56 -33.636,-37.961 l 70.488,2.424 C 24.657,-28.939 10.281,-17.94 0,0 m -58.485,-51.41 c -2.503,0 -4.638,3.103 -4.987,5.596 -0.358,2.552 1.27,5.591 3.767,6.214 36.184,9.024 54.939,50.86 55.127,51.288 0.793,1.844 2.606,2.248 4.611,2.248 h 0.006 c 2.006,0 3.82,-0.075 4.622,-1.914 17.302,-39.678 57.606,-47.271 58.009,-47.35 2.518,-0.483 4.266,-2.504 4.07,-5.057 -0.195,-2.556 -2.285,-3.154 -4.847,-3.244 l -120.207,-2.749 c -0.059,-5.036 -0.118,-5.032 -0.171,-5.032"
             style="fill:#141843;fill-opacity:1;fill-rule:nonzero;stroke:none"
             id="path254"
             inkscape:connector-curvature="0" /></g></g></g><g
       id="g256"><g
         id="g258"
         clip-path="url(#clipPath262)"><g
           id="g264"><g
             id="g266" /><g
             id="g294"
             mask="url(#mask282)"><g
               id="g296"><path
                 d="m 1182.5,563.5 c -5.25,-3 -5.366,-3.189 -3,-6.5 v 0 c 2.5,-3.5 7.75,-0.75 7.75,-0.75 v 0 l 92.75,53.698 v 10.932 c -15.709,-9.257 -93.483,-55.084 -97.5,-57.38"
                 style="fill:url(#linearGradient306);stroke:none"
                 id="path308"
                 inkscape:connector-curvature="0" /></g></g></g></g></g><g
       id="g310"><g
         id="g312"
         clip-path="url(#clipPath316)"><g
           id="g318"><g
             id="g320" /><g
             id="g348"
             mask="url(#mask336)"><g
               id="g350"><path
                 d="m 1182.5,520.5 c -5.25,-3 -5.366,-3.188 -3,-6.5 v 0 c 2.5,-3.5 7.75,-0.75 7.75,-0.75 v 0 l 92.75,53.697 v 10.932 c -15.709,-9.257 -93.483,-55.083 -97.5,-57.379"
                 style="fill:url(#linearGradient360);stroke:none"
                 id="path362"
                 inkscape:connector-curvature="0" /></g></g></g></g></g><g
       id="g364"><g
         id="g366"
         clip-path="url(#clipPath370)"><g
           id="g372"><g
             id="g374" /><g
             id="g402"
             mask="url(#mask390)"><g
               id="g404"><path
                 d="m 1182.5,476.5 c -5.25,-3 -5.366,-3.188 -3,-6.5 v 0 c 2.5,-3.5 7.75,-0.75 7.75,-0.75 v 0 l 92.75,53.697 v 10.932 c -15.709,-9.257 -93.483,-55.083 -97.5,-57.379"
                 style="fill:url(#linearGradient414);stroke:none"
                 id="path416"
                 inkscape:connector-curvature="0" /></g></g></g></g></g><g
       id="g418"><g
         id="g420"
         clip-path="url(#clipPath424)"><g
           id="g426"><g
             id="g428" /><g
             id="g456"
             mask="url(#mask444)"><g
               id="g458"><path
                 d="m 1182.5,433.5 c -5.25,-3 -5.366,-3.188 -3,-6.5 v 0 c 2.5,-3.5 7.75,-0.75 7.75,-0.75 v 0 l 92.75,53.697 v 10.932 c -15.709,-9.257 -93.483,-55.083 -97.5,-57.379"
                 style="fill:url(#linearGradient468);stroke:none"
                 id="path470"
                 inkscape:connector-curvature="0" /></g></g></g></g></g><g
       id="g472"><g
         id="g474"
         clip-path="url(#clipPath478)"><g
           id="g480"><g
             id="g482" /><g
             id="g510"
             mask="url(#mask498)"><g
               id="g512"><path
                 d="m 1182.5,390.5 c -5.25,-3 -5.366,-3.189 -3,-6.5 v 0 c 2.5,-3.5 7.75,-0.75 7.75,-0.75 v 0 l 92.75,53.697 v 10.932 c -15.709,-9.257 -93.483,-55.083 -97.5,-57.379"
                 style="fill:url(#linearGradient522);stroke:none"
                 id="path524"
                 inkscape:connector-curvature="0" /></g></g></g></g></g><g
       id="g526"><g
         id="g528"
         clip-path="url(#clipPath532)"><g
           id="g534"><g
             id="g536" /><g
             id="g564"
             mask="url(#mask552)"><g
               id="g566"><path
                 d="m 1182.5,346.5 c -5.25,-3 -5.366,-3.189 -3,-6.5 v 0 c 2.5,-3.5 7.75,-0.75 7.75,-0.75 v 0 l 92.75,53.698 v 10.932 c -15.709,-9.257 -93.483,-55.084 -97.5,-57.38"
                 style="fill:url(#linearGradient576);stroke:none"
                 id="path578"
                 inkscape:connector-curvature="0" /></g></g></g></g></g><g
       transform="translate(-139.40531,4.665779)"
       id="g604"><g
         clip-path="url(#clipPath60)"
         id="g602"><g
           transform="translate(1235.2461,771.4277)"
           id="g596"><path
             inkscape:connector-curvature="0"
             id="path594"
             style="fill:#000000;fill-opacity:1;fill-rule:evenodd;stroke:none"
             d="m 0,0 v 0 c -0.191,0.115 -0.342,0.077 -0.417,-0.112 0,0 0.53,2.909 0.114,4.118 -0.908,3.176 -8.39,4.082 -8.39,2.118 -3.25,-0.908 -2.647,-3.969 -2.192,-6.275 0,0 -0.227,0.266 -0.529,0 -0.342,-0.378 0.037,-1.247 0.188,-1.701 0.076,-0.302 0.189,-0.528 0.265,-0.717 v -0.076 c 0,-0.341 0.113,-0.567 0.303,-0.567 0.756,-2.872 3.023,-5.254 5.025,-5.254 1.853,0 4.16,2.382 4.913,5.254 0.152,0 0.265,0.226 0.265,0.567 v 0.039 c 0.113,0.189 0.188,0.415 0.304,0.754 C -0.039,-1.435 0.414,-0.302 0,0" /></g><g
           transform="translate(1226.0605,763.1523)"
           id="g600"><path
             inkscape:connector-curvature="0"
             id="path598"
             style="fill:#ff6167;fill-opacity:1;fill-rule:evenodd;stroke:none"
             d="M 0,0 C -5.932,-3.327 -8.918,-1.437 -8.918,-9.486 H 3.553 3.666 15.91 C 15.91,-1.739 12.925,-3.327 7.029,0 6.01,-0.945 4.839,-1.588 3.553,-1.588 2.193,-1.588 0.983,-0.945 0,0" /></g></g></g></g></svg>